<svg width="48" height="48" viewBox="0 0 48 48" fill="none" xmlns="http://www.w3.org/2000/svg">
<g clip-path="url(#clip0_384_869)">
<path d="M46.113 33.0925C46.1305 33.0625 46.144 33.0305 46.154 32.998C47.359 30.189 48 27.1345 48 24C48 19.907 46.908 15.906 44.8375 12.403C45.3715 11.8915 45.7055 11.1725 45.7055 10.376C45.7055 8.828 44.446 7.5685 42.898 7.5685C42.362 7.5685 41.8605 7.7195 41.434 7.9815C40.9415 7.482 40.423 7.0025 39.886 6.549C40.083 6.1655 40.1945 5.7315 40.1945 5.272C40.1945 3.724 38.935 2.4645 37.387 2.4645C36.512 2.4645 35.729 2.867 35.214 3.497C32.078 1.957 28.7035 1.1765 25.176 1.1765C21.6485 1.1765 18.0525 2.022 14.883 3.625C14.372 2.9225 13.5445 2.465 12.6115 2.465C11.0635 2.465 9.80404 3.7245 9.80404 5.2725C9.80404 5.816 9.95954 6.3235 10.228 6.7535C9.15003 7.689 8.15604 8.7275 7.27104 9.846C7.11554 10.0425 7.14853 10.328 7.34504 10.4835C7.54153 10.639 7.82703 10.606 7.98253 10.4095C8.83354 9.3345 9.78804 8.3365 10.8245 7.4375C10.893 7.494 10.964 7.5465 11.037 7.5965C11.0445 7.6015 11.052 7.6065 11.0595 7.6115C11.0865 7.6295 11.114 7.647 11.1415 7.664C11.1555 7.6725 11.1695 7.681 11.1835 7.6895C11.2045 7.702 11.226 7.7145 11.2475 7.7265C11.266 7.737 11.285 7.747 11.3035 7.757C11.3205 7.766 11.3375 7.7745 11.3545 7.783C11.377 7.7945 11.4 7.8055 11.423 7.8165C11.4355 7.8225 11.4485 7.828 11.461 7.834C11.488 7.846 11.5155 7.8585 11.543 7.8695C11.5485 7.8715 11.554 7.8735 11.559 7.876C11.696 7.9315 11.8385 7.9765 11.9855 8.01C11.995 8.012 12.004 8.0145 12.013 8.0165C12.0415 8.0225 12.07 8.028 12.099 8.0335C12.114 8.0365 12.129 8.039 12.144 8.0415C12.1695 8.046 12.195 8.0495 12.221 8.0535C12.2405 8.0565 12.26 8.0585 12.28 8.061C12.3025 8.0635 12.325 8.0665 12.3475 8.0685C12.373 8.071 12.399 8.0725 12.4245 8.0745C12.442 8.0755 12.4595 8.077 12.4775 8.078C12.522 8.08 12.566 8.0815 12.6105 8.0815C13.7315 8.0815 14.701 7.421 15.1505 6.4685C17.765 7.079 20.2605 8.0345 22.578 9.3125C22.4425 9.6415 22.3675 10.001 22.3675 10.3785C22.3675 10.8825 22.5015 11.355 22.735 11.7645C20.931 13.3715 19.317 15.231 17.9315 17.3C17.5685 17.1285 17.163 17.032 16.7355 17.032C15.3715 17.032 14.232 18.01 13.9805 19.302C11.1385 19.2955 8.26604 19.536 5.43304 20.0175C5.36204 19.8285 5.27053 19.6495 5.16254 19.4825C5.16154 19.481 5.16104 19.4795 5.16004 19.4785C5.14303 19.4525 5.12604 19.427 5.10804 19.4015C5.10454 19.397 5.10154 19.392 5.09804 19.3875C5.06804 19.345 5.03703 19.3035 5.00454 19.2625C4.99753 19.254 4.99103 19.245 4.98404 19.2365C4.97104 19.2205 4.95754 19.205 4.94454 19.189C4.93104 19.173 4.91704 19.157 4.90304 19.1415C4.89154 19.129 4.88054 19.116 4.86904 19.1035C4.84504 19.0775 4.82103 19.052 4.79604 19.027C4.79354 19.0245 4.79104 19.022 4.78904 19.0195C4.75954 18.99 4.72904 18.9615 4.69854 18.933C4.69354 18.9285 4.68804 18.9235 4.68304 18.919C4.65454 18.8935 4.62604 18.8685 4.59654 18.844C4.59353 18.8415 4.59054 18.839 4.58754 18.8365C4.52004 18.7805 4.44953 18.728 4.37653 18.6785C4.37504 18.6775 4.37354 18.6765 4.37204 18.6755C4.33604 18.651 4.29904 18.6275 4.26154 18.6045C4.26154 18.6045 4.26103 18.6045 4.26054 18.604C4.18653 18.559 4.11003 18.5175 4.03154 18.479C4.02454 18.4755 4.01704 18.472 4.00954 18.4685C3.99604 18.462 3.98304 18.4555 3.96954 18.4495C4.45803 16.579 5.19404 14.781 6.15954 13.1C6.28454 12.8825 6.20954 12.605 5.99203 12.4805C5.77454 12.3555 5.49704 12.4305 5.37254 12.648C4.36803 14.3965 3.60204 16.2665 3.09354 18.212C2.99904 18.2025 2.90304 18.1975 2.80604 18.1975C1.25804 18.1975 -0.00146484 19.457 -0.00146484 21.005C-0.00146484 22.399 1.02004 23.5585 2.35354 23.7755C2.35254 23.852 2.35204 23.928 2.35204 24.0025C2.35204 30.587 5.17853 36.8165 10.121 41.1565C9.91854 41.544 9.80354 41.984 9.80354 42.4505C9.80354 43.9985 11.063 45.258 12.611 45.258C13.453 45.258 14.2085 44.885 14.7235 44.2965C17.9345 45.952 21.5395 46.826 25.175 46.826C28.8105 46.826 32.4335 45.948 35.6505 44.2845C36.1655 44.88 36.926 45.258 37.7735 45.258C39.3215 45.258 40.581 43.9985 40.581 42.4505C40.581 41.9755 40.462 41.528 40.253 41.1355C42.804 38.889 44.7895 36.138 46.111 33.095L46.113 33.0925ZM44.0885 12.9195C46.055 16.2695 47.0925 20.091 47.0925 24C47.0925 26.801 46.559 29.535 45.5525 32.075C43.284 29.898 41.251 28.0685 38.946 26.3595C39.0375 26.083 39.0875 25.788 39.0875 25.481C39.0875 24.6765 38.7465 23.9505 38.2025 23.438C40.115 20.2535 41.612 16.803 42.656 13.173C42.736 13.18 42.8165 13.184 42.8985 13.184C42.9485 13.184 42.9985 13.1825 43.048 13.18C43.066 13.179 43.084 13.177 43.1025 13.176C43.1335 13.174 43.1645 13.1715 43.1955 13.1685C43.218 13.166 43.2405 13.163 43.263 13.16C43.289 13.1565 43.3145 13.1535 43.3405 13.1495C43.3655 13.1455 43.3905 13.141 43.415 13.136C43.4375 13.132 43.46 13.1275 43.4825 13.123C43.509 13.1175 43.5355 13.111 43.562 13.1045C43.582 13.0995 43.602 13.0945 43.622 13.0895C43.6495 13.082 43.677 13.074 43.7045 13.066C43.7225 13.0605 43.7405 13.055 43.7585 13.0495C43.787 13.0405 43.815 13.031 43.8435 13.0205C43.8595 13.0145 43.8755 13.0085 43.8915 13.0025C43.9205 12.9915 43.9495 12.98 43.9785 12.968C43.9925 12.962 44.0065 12.956 44.02 12.95C44.043 12.94 44.066 12.9305 44.0885 12.92V12.9195ZM36.28 27.3805C35.2325 27.3805 34.3805 26.5285 34.3805 25.481C34.3805 24.4335 35.2325 23.5815 36.28 23.5815C37.3275 23.5815 38.1795 24.4335 38.1795 25.481C38.1795 26.5285 37.3275 27.3805 36.28 27.3805ZM44.798 10.3765C44.798 11.0245 44.4715 11.5975 43.9745 11.9405C43.9415 11.963 43.908 11.985 43.874 12.0055C43.864 12.0115 43.854 12.017 43.844 12.023C43.816 12.039 43.7875 12.0545 43.7585 12.0695C43.748 12.075 43.7375 12.0805 43.727 12.0855C43.692 12.1025 43.657 12.118 43.621 12.133C43.608 12.1385 43.595 12.1435 43.582 12.1485C43.5515 12.16 43.521 12.171 43.4905 12.1815C43.4815 12.1845 43.4725 12.188 43.463 12.191C43.425 12.203 43.387 12.213 43.348 12.2225C43.3355 12.2255 43.323 12.2285 43.31 12.231C43.2725 12.2395 43.235 12.247 43.197 12.253C43.193 12.2535 43.189 12.2545 43.185 12.255C43.144 12.261 43.1025 12.2655 43.0605 12.2695C43.0495 12.2705 43.0385 12.2715 43.0275 12.272C42.9845 12.275 42.9415 12.277 42.898 12.277C41.8505 12.277 40.9985 11.425 40.9985 10.3775C40.9985 10.3435 40.9995 10.3095 41.0015 10.276C41.0015 10.267 41.003 10.258 41.0035 10.249C41.005 10.224 41.007 10.1995 41.0095 10.175C41.0105 10.165 41.012 10.155 41.0135 10.145C41.0165 10.1215 41.0195 10.098 41.023 10.075C41.0245 10.0645 41.0265 10.0545 41.0285 10.044C41.0325 10.0215 41.0365 9.999 41.0415 9.9765C41.044 9.9655 41.0465 9.955 41.049 9.9445C41.054 9.923 41.0595 9.9015 41.065 9.8805C41.068 9.869 41.0715 9.8575 41.075 9.846C41.081 9.826 41.087 9.806 41.0935 9.7865C41.0975 9.774 41.1015 9.762 41.106 9.75C41.1125 9.732 41.119 9.714 41.126 9.696C41.131 9.6825 41.1365 9.669 41.142 9.656C41.1485 9.64 41.1555 9.6245 41.1625 9.609C41.169 9.594 41.1755 9.579 41.1825 9.5645C41.1885 9.552 41.195 9.5395 41.2015 9.5265C41.21 9.5095 41.2185 9.4925 41.2275 9.4755C41.231 9.469 41.235 9.4625 41.2385 9.456C41.293 9.358 41.3565 9.265 41.427 9.1785C41.43 9.175 41.433 9.171 41.4355 9.1675C41.4515 9.148 41.468 9.129 41.485 9.1105C41.4895 9.1055 41.494 9.1005 41.4985 9.0955C41.515 9.0775 41.5315 9.0605 41.5485 9.043C41.554 9.0375 41.5595 9.032 41.565 9.0265C41.582 9.01 41.599 8.9935 41.6165 8.9775C41.622 8.9725 41.628 8.967 41.634 8.962C41.97 8.6615 42.4135 8.4785 42.8985 8.4785C43.946 8.4785 44.798 9.3305 44.798 10.378V10.3765ZM40.498 8.9215C40.4755 8.9585 40.454 8.996 40.433 9.034C40.4315 9.037 40.43 9.0395 40.4285 9.0425C40.409 9.078 40.391 9.114 40.373 9.1505C40.3705 9.155 40.3685 9.1595 40.366 9.1645C40.349 9.2005 40.3325 9.2365 40.317 9.273C40.315 9.278 40.3125 9.2825 40.3105 9.2875C40.2765 9.3685 40.246 9.4515 40.2195 9.536C40.215 9.551 40.211 9.566 40.2065 9.581C40.1985 9.6075 40.191 9.6335 40.184 9.66C40.179 9.679 40.1745 9.6985 40.1695 9.718C40.164 9.741 40.1585 9.7635 40.1535 9.7865C40.149 9.807 40.145 9.8275 40.141 9.848C40.1365 9.8705 40.1325 9.8935 40.129 9.9165C40.1255 9.937 40.1225 9.9575 40.1195 9.978C40.116 10.002 40.113 10.0265 40.11 10.051C40.108 10.0705 40.1055 10.0895 40.1035 10.109C40.101 10.137 40.099 10.165 40.097 10.1935C40.096 10.2095 40.0945 10.2255 40.094 10.242C40.092 10.2865 40.0905 10.3315 40.0905 10.3765C40.0905 11.5255 40.7845 12.515 41.775 12.949C40.7575 16.4775 39.3035 19.832 37.4485 22.9295C37.0925 22.7655 36.6965 22.6735 36.2795 22.6735C36.1465 22.6735 36.0155 22.6835 35.8875 22.7015C33.977 18.3985 31.1395 14.601 27.657 11.6885C27.865 11.2965 27.9835 10.85 27.9835 10.3765C27.9835 9.9715 27.8965 9.5865 27.7415 9.238C29.9315 7.9525 32.2945 6.9665 34.7765 6.303C35.1885 7.3425 36.203 8.0795 37.387 8.0795C37.4335 8.0795 37.48 8.0785 37.526 8.076C37.567 8.074 37.6075 8.0705 37.648 8.067C37.6525 8.067 37.657 8.0665 37.6615 8.066C38.1225 8.021 38.5505 7.864 38.9195 7.6225C38.9215 7.621 38.924 7.6195 38.926 7.618C38.9565 7.598 38.9865 7.577 39.0165 7.5555C39.0255 7.549 39.0345 7.543 39.0435 7.5365C39.0665 7.5195 39.089 7.5025 39.111 7.485C39.126 7.473 39.1415 7.4615 39.1565 7.449C39.1725 7.436 39.1875 7.423 39.2035 7.4095C39.224 7.392 39.2445 7.3745 39.2645 7.3565C39.274 7.3475 39.2835 7.3385 39.2935 7.33C39.311 7.314 39.329 7.298 39.346 7.2815C39.83 7.692 40.298 8.1255 40.744 8.575C40.6525 8.6845 40.5705 8.8005 40.497 8.921L40.498 8.9215ZM23.277 10.3765C23.277 9.329 24.129 8.477 25.1765 8.477C26.224 8.477 27.076 9.329 27.076 10.3765C27.076 11.424 26.224 12.276 25.1765 12.276C24.129 12.276 23.277 11.424 23.277 10.3765ZM37.3875 3.3725C38.435 3.3725 39.287 4.2245 39.287 5.272C39.287 5.6935 39.149 6.083 38.916 6.3985C38.9055 6.413 38.8945 6.427 38.8835 6.441C38.873 6.4545 38.863 6.468 38.852 6.481C38.832 6.505 38.8115 6.5285 38.7905 6.5515C38.781 6.562 38.771 6.572 38.7615 6.582C38.747 6.5975 38.732 6.6125 38.717 6.6275C38.7075 6.6365 38.698 6.6455 38.689 6.6545C38.6715 6.671 38.6535 6.6875 38.6355 6.703C38.6285 6.709 38.6215 6.7155 38.614 6.7215C38.3605 6.9355 38.055 7.0805 37.728 7.1405C37.7255 7.1405 37.723 7.1415 37.721 7.142C37.6895 7.1475 37.6575 7.1525 37.625 7.1565C37.6185 7.1575 37.6125 7.158 37.606 7.159C37.577 7.1625 37.548 7.165 37.519 7.167C37.511 7.1675 37.5035 7.1685 37.4955 7.169C37.4595 7.171 37.4235 7.1725 37.3875 7.1725C36.34 7.1725 35.488 6.3205 35.488 5.273C35.488 5.234 35.4895 5.1955 35.492 5.157C35.4925 5.147 35.4935 5.137 35.4945 5.1265C35.497 5.096 35.5 5.066 35.5035 5.036C35.5045 5.027 35.5055 5.0185 35.507 5.0095C35.518 4.9315 35.5335 4.8545 35.554 4.779C35.5555 4.773 35.5575 4.767 35.559 4.7615C35.568 4.7295 35.5775 4.698 35.588 4.667C35.5905 4.659 35.5935 4.651 35.596 4.6435C35.6085 4.6075 35.622 4.5715 35.637 4.5365C35.637 4.5365 35.637 4.536 35.637 4.5355C35.6515 4.5015 35.667 4.4685 35.6835 4.4355C35.6895 4.4235 35.696 4.4115 35.702 4.3995C35.713 4.378 35.7245 4.357 35.7365 4.336C36.064 3.7625 36.681 3.3745 37.3875 3.3745V3.3725ZM12.6125 7.172C12.579 7.172 12.5455 7.171 12.512 7.1695C12.507 7.1695 12.5015 7.1685 12.4965 7.1685C12.468 7.1665 12.4395 7.1645 12.411 7.1615C12.4075 7.1615 12.4035 7.1605 12.4 7.16C12.37 7.1565 12.34 7.1525 12.3105 7.148C12.308 7.148 12.306 7.147 12.3035 7.1465C12.2725 7.1415 12.242 7.1355 12.2115 7.129C12.21 7.129 12.2085 7.1285 12.207 7.128C12.176 7.121 12.145 7.1135 12.1145 7.1055C12.113 7.1055 12.1115 7.1045 12.11 7.104C12.0795 7.0955 12.0495 7.0865 12.0195 7.0765C12.0175 7.076 12.015 7.075 12.013 7.074C11.984 7.0645 11.9555 7.054 11.9275 7.043C11.924 7.0415 11.921 7.0405 11.9175 7.039C11.8905 7.0285 11.864 7.017 11.838 7.0055C11.8335 7.0035 11.8285 7.0015 11.824 6.999C11.7995 6.988 11.7755 6.976 11.7515 6.964C11.7455 6.961 11.739 6.958 11.733 6.9545C11.711 6.943 11.6895 6.931 11.668 6.9185C11.6605 6.914 11.6525 6.91 11.645 6.9055C11.626 6.894 11.607 6.882 11.588 6.87C11.579 6.864 11.5695 6.8585 11.5605 6.8525C11.544 6.8415 11.528 6.83 11.512 6.8185C11.5015 6.811 11.4905 6.8035 11.48 6.7955C11.468 6.7865 11.456 6.777 11.4445 6.7675C11.41 6.7405 11.3765 6.713 11.344 6.6835C11.3415 6.681 11.339 6.679 11.3365 6.677C11.32 6.662 11.304 6.6465 11.2885 6.631C11.2815 6.6245 11.2745 6.6175 11.2675 6.611C11.253 6.5965 11.239 6.581 11.2245 6.566C11.2165 6.5575 11.209 6.5495 11.201 6.541C10.898 6.2045 10.7135 5.7595 10.7135 5.272C10.7135 4.2245 11.5655 3.3725 12.613 3.3725C13.361 3.3725 14.0095 3.8075 14.319 4.4375C14.3285 4.4565 14.337 4.476 14.346 4.495C14.3515 4.507 14.357 4.5185 14.362 4.5305C14.3745 4.56 14.3865 4.5895 14.3975 4.6195C14.404 4.6375 14.41 4.656 14.416 4.674C14.4205 4.6875 14.425 4.7005 14.429 4.714C14.435 4.7335 14.4405 4.7535 14.446 4.7735C14.4495 4.786 14.453 4.798 14.456 4.8105C14.461 4.8305 14.4655 4.8505 14.47 4.8705C14.473 4.8835 14.4755 4.8965 14.478 4.9095C14.482 4.929 14.4855 4.9485 14.4885 4.968C14.491 4.983 14.493 4.998 14.495 5.013C14.4975 5.031 14.5 5.049 14.502 5.067C14.504 5.086 14.5055 5.1055 14.507 5.1245C14.508 5.139 14.5095 5.1535 14.5105 5.168C14.5125 5.2025 14.5135 5.237 14.5135 5.2715C14.5135 6.319 13.6615 7.171 12.614 7.171L12.6125 7.172ZM15.401 5.5925C15.413 5.4875 15.42 5.3805 15.42 5.2725C15.42 5.2285 15.4185 5.1845 15.4165 5.141C15.4165 5.13 15.4155 5.1195 15.4145 5.109C15.4125 5.0725 15.4095 5.036 15.406 5C15.4055 4.993 15.4045 4.9855 15.404 4.9785C15.3945 4.8875 15.381 4.798 15.3625 4.709C15.3625 4.7075 15.362 4.706 15.3615 4.705C15.3525 4.661 15.3425 4.617 15.331 4.5735C15.331 4.5725 15.331 4.5715 15.3305 4.5705C15.319 4.525 15.3065 4.48 15.292 4.435C18.335 2.896 21.743 2.0845 25.176 2.0845C28.609 2.0845 31.764 2.8245 34.759 4.285C34.758 4.288 34.757 4.2905 34.756 4.2935C34.747 4.3175 34.739 4.3415 34.7305 4.366C34.725 4.3825 34.719 4.3985 34.714 4.415C34.7055 4.441 34.698 4.4675 34.69 4.494C34.6855 4.509 34.681 4.524 34.677 4.5395C34.6695 4.5665 34.663 4.5935 34.6565 4.6205C34.653 4.636 34.649 4.6515 34.6455 4.667C34.6395 4.6935 34.634 4.7205 34.629 4.747C34.6255 4.764 34.6225 4.781 34.62 4.7985C34.6155 4.824 34.6115 4.8495 34.608 4.875C34.605 4.895 34.6025 4.915 34.6005 4.9355C34.5975 4.9585 34.595 4.9815 34.5925 5.005C34.59 5.0305 34.5885 5.056 34.5865 5.082C34.585 5.1005 34.5835 5.119 34.5825 5.1375C34.5805 5.1825 34.579 5.2275 34.579 5.2725C34.579 5.3205 34.58 5.368 34.5825 5.4155C31.9915 6.1045 29.5255 7.133 27.242 8.4785C26.7285 7.92 25.9925 7.569 25.1755 7.569C24.3585 7.569 23.572 7.945 23.057 8.5375C20.6675 7.2155 18.0955 6.226 15.4 5.5925H15.401ZM23.308 12.469C23.8045 12.913 24.4595 13.1835 25.1765 13.1835C25.8935 13.1835 26.6035 12.8895 27.107 12.4115C30.4435 15.211 33.1685 18.8505 35.016 22.975C34.6965 23.1365 34.412 23.3575 34.177 23.623C32.5795 22.8485 30.9135 22.1715 29.2195 21.6095C28.9815 21.5305 28.7245 21.6595 28.646 21.8975C28.567 22.1355 28.696 22.3925 28.934 22.471C30.559 23.01 32.1565 23.657 33.6905 24.396C33.55 24.73 33.4725 25.096 33.4725 25.4805C33.4725 26.2555 33.788 26.958 34.2975 27.4665C29.6125 33.326 23.152 37.9175 15.086 41.1215C14.642 40.297 13.798 39.719 12.8155 39.6485C12.581 35.3225 12.982 28.9865 16.0135 22.549C16.1105 22.575 16.2095 22.596 16.31 22.6115C16.4495 22.633 16.592 22.644 16.737 22.644C18.057 22.644 19.1665 21.728 19.465 20.4985C20.958 20.6455 22.367 20.849 23.757 21.119C23.7865 21.1245 23.8155 21.1275 23.844 21.1275C24.057 21.1275 24.247 20.977 24.289 20.76C24.337 20.514 24.176 20.2755 23.93 20.228C22.505 19.951 21.062 19.7435 19.533 19.593C19.5275 19.5315 19.521 19.47 19.512 19.4095C19.4165 18.7865 19.115 18.231 18.68 17.813C20.016 15.816 21.571 14.0205 23.3075 12.4685L23.308 12.469ZM16.7375 17.9375C17.785 17.9375 18.637 18.7895 18.637 19.837C18.637 20.8845 17.785 21.7365 16.7375 21.7365C15.69 21.7365 14.838 20.8845 14.838 19.837C14.838 18.7895 15.69 17.9375 16.7375 17.9375ZM0.908035 21.0025C0.908035 19.955 1.76004 19.103 2.80754 19.103C2.99004 19.103 3.16654 19.1295 3.33404 19.1775C3.35054 19.182 3.36704 19.187 3.38304 19.192C3.39954 19.1975 3.41604 19.203 3.43204 19.2085C3.44204 19.212 3.45254 19.215 3.46254 19.219C3.48954 19.229 3.51654 19.2395 3.54254 19.2505C3.54804 19.253 3.55353 19.2555 3.55854 19.2575C3.58054 19.267 3.60254 19.277 3.62454 19.2875C3.62953 19.29 3.63504 19.2925 3.64004 19.295C3.66254 19.306 3.68454 19.317 3.70654 19.329C3.71054 19.331 3.71404 19.333 3.71804 19.335C3.74254 19.3485 3.76654 19.362 3.79004 19.3765C3.79104 19.377 3.79204 19.3775 3.79304 19.3785C3.87054 19.4255 3.94454 19.4785 4.01404 19.5355C4.01553 19.5365 4.01704 19.538 4.01854 19.539C4.03904 19.556 4.05854 19.573 4.07854 19.591C4.08303 19.595 4.08754 19.599 4.09154 19.603C4.10804 19.618 4.12404 19.6335 4.14004 19.649C4.14554 19.6545 4.15154 19.66 4.15704 19.6655C4.17154 19.68 4.18554 19.695 4.19904 19.7095C4.20504 19.716 4.21153 19.7225 4.21754 19.7295C4.23104 19.744 4.24354 19.7595 4.25654 19.7745C4.27304 19.794 4.28903 19.8135 4.30453 19.8335C4.30954 19.84 4.31454 19.846 4.31954 19.8525C4.33204 19.8685 4.34354 19.885 4.35554 19.902C4.35904 19.907 4.36253 19.912 4.36603 19.9165C4.37854 19.9345 4.39054 19.9525 4.40254 19.971C4.40454 19.974 4.40604 19.9765 4.40804 19.9795C4.54054 20.1865 4.63304 20.4195 4.67754 20.667C4.67904 20.676 4.68104 20.6845 4.68254 20.6935C4.68504 20.7095 4.68754 20.726 4.68954 20.7425C4.69153 20.756 4.69304 20.77 4.69504 20.7835C4.69654 20.7975 4.69804 20.8115 4.69953 20.8255C4.70104 20.8435 4.70254 20.861 4.70354 20.879C4.70404 20.89 4.70504 20.901 4.70554 20.912C4.70704 20.9415 4.70804 20.971 4.70804 21.001C4.70804 21.0335 4.70704 21.066 4.70554 21.0985C4.65454 22.097 3.82653 22.8965 2.81604 22.9005C2.81554 22.9005 2.81504 22.9005 2.81404 22.9005C2.81204 22.9005 2.81004 22.9005 2.80804 22.9005C1.76054 22.9005 0.908535 22.0485 0.908535 21.001L0.908035 21.0025ZM3.26154 24C3.26154 23.9255 3.26154 23.8495 3.26304 23.773C3.27304 23.7715 3.28254 23.769 3.29254 23.7675C3.48803 23.7335 3.67704 23.679 3.85653 23.606C3.85854 23.605 3.86104 23.6045 3.86304 23.6035C3.89904 23.589 3.93454 23.5735 3.96954 23.5575C3.97204 23.5565 3.97454 23.555 3.97704 23.554C4.01254 23.5375 4.04754 23.5205 4.08254 23.503C4.08404 23.5025 4.08554 23.5015 4.08654 23.501C4.70154 23.185 5.18504 22.649 5.43254 21.997C5.43354 21.995 5.43403 21.993 5.43504 21.991C5.44654 21.9605 5.45704 21.9295 5.46754 21.8985C5.47104 21.8875 5.47504 21.877 5.47854 21.866C5.48753 21.839 5.49554 21.8115 5.50354 21.784C5.50804 21.7685 5.51254 21.7535 5.51654 21.738C5.52354 21.713 5.52954 21.688 5.53554 21.6625C5.54004 21.644 5.54454 21.6255 5.54854 21.607C5.55354 21.5835 5.55854 21.56 5.56304 21.5365C5.56704 21.5155 5.57103 21.494 5.57453 21.4725C5.57803 21.4505 5.58204 21.429 5.58503 21.407C5.58853 21.383 5.59154 21.3585 5.59454 21.334C5.59703 21.314 5.59953 21.2945 5.60154 21.2745C5.60454 21.246 5.60604 21.217 5.60804 21.188C5.60904 21.172 5.61054 21.156 5.61154 21.1395C5.61354 21.094 5.61504 21.0485 5.61504 21.0025C5.61504 20.97 5.61454 20.938 5.61304 20.906C8.37804 20.437 11.1815 20.2025 13.9555 20.2075C14.064 21.0275 14.5275 21.737 15.1865 22.176C12.0735 28.7945 11.6675 35.299 11.911 39.7295C11.6165 39.8055 11.3405 39.929 11.0915 40.09C11.0895 40.0915 11.087 40.093 11.085 40.0945C11.0535 40.115 11.0225 40.136 10.992 40.1575C10.983 40.164 10.9745 40.17 10.9655 40.1765C10.9415 40.194 10.9185 40.2115 10.895 40.2295C10.88 40.241 10.865 40.253 10.85 40.265C10.8335 40.2785 10.817 40.2925 10.8005 40.306C10.78 40.323 10.76 40.3405 10.74 40.3585C10.7295 40.368 10.7185 40.378 10.708 40.3875C10.6945 40.4 10.6805 40.412 10.667 40.425C5.95403 36.2595 3.26104 30.2995 3.26104 24H3.26154ZM12.6125 44.3475C11.565 44.3475 10.713 43.4955 10.713 42.448C10.713 42.0245 10.8525 41.6325 11.088 41.3165C11.0965 41.3055 11.105 41.2945 11.1135 41.2835C11.135 41.256 11.157 41.229 11.18 41.203C11.1905 41.191 11.2005 41.179 11.2115 41.1675C11.223 41.155 11.2345 41.1435 11.246 41.1315C11.259 41.118 11.272 41.1045 11.2855 41.0915C11.2955 41.0815 11.306 41.072 11.3165 41.062C11.334 41.046 11.3515 41.03 11.369 41.0145C11.376 41.0085 11.383 41.002 11.3905 40.996C11.644 40.783 11.9495 40.639 12.2755 40.5795C12.277 40.5795 12.279 40.579 12.2805 40.5785C12.3125 40.5725 12.345 40.568 12.3775 40.564C12.3835 40.5635 12.389 40.5625 12.395 40.562C12.424 40.5585 12.4535 40.556 12.483 40.554C12.4905 40.5535 12.498 40.5525 12.5055 40.5525C12.5415 40.5505 12.577 40.5495 12.613 40.5495C13.6605 40.5495 14.5125 41.4015 14.5125 42.449C14.5125 42.49 14.511 42.5305 14.508 42.571C14.5075 42.5815 14.5065 42.5925 14.5055 42.603C14.503 42.6365 14.4995 42.67 14.495 42.7035C14.494 42.711 14.4935 42.718 14.492 42.7255C14.486 42.766 14.479 42.806 14.4705 42.846C14.469 42.8525 14.4675 42.859 14.466 42.8655C14.4585 42.8995 14.45 42.933 14.4405 42.9665C14.438 42.975 14.436 42.9835 14.4335 42.992C14.422 43.031 14.4095 43.069 14.3955 43.107C14.394 43.1105 14.393 43.1135 14.3915 43.117C14.3785 43.151 14.3645 43.1845 14.35 43.218C14.3455 43.228 14.341 43.2375 14.3365 43.2475C14.3205 43.2815 14.304 43.315 14.2865 43.348C14.2845 43.3515 14.283 43.355 14.281 43.3585C14.263 43.3915 14.244 43.4235 14.224 43.4555C13.888 43.992 13.292 44.3495 12.6135 44.3495L12.6125 44.3475ZM35.175 43.5065C32.1015 45.0835 28.6545 45.9155 25.1765 45.9155C21.6985 45.9155 18.2725 45.0885 15.2065 43.521C15.214 43.5035 15.22 43.4855 15.227 43.4675C15.2355 43.4455 15.2445 43.4235 15.2525 43.4015C15.259 43.383 15.265 43.364 15.2715 43.3455C15.28 43.3205 15.2885 43.2955 15.2965 43.27C15.3015 43.253 15.306 43.2365 15.311 43.2195C15.319 43.192 15.327 43.1645 15.334 43.1365C15.338 43.1205 15.3415 43.1045 15.345 43.089C15.352 43.06 15.3585 43.031 15.3645 43.002C15.368 42.9855 15.3705 42.969 15.3735 42.953C15.379 42.924 15.384 42.895 15.3885 42.866C15.3915 42.847 15.3935 42.8285 15.3955 42.8095C15.399 42.7825 15.403 42.7555 15.4055 42.7285C15.408 42.704 15.4095 42.679 15.411 42.6545C15.4125 42.6325 15.4145 42.611 15.416 42.589C15.4185 42.542 15.4195 42.495 15.4195 42.448C15.4195 42.2895 15.4055 42.1345 15.3805 41.983C19.642 40.294 23.493 38.2125 26.832 35.7925C29.959 33.5265 32.717 30.904 35.036 27.9965C35.411 28.1825 35.8335 28.288 36.2795 28.288C36.475 28.288 36.666 28.268 36.8505 28.2295C37.794 31.9425 38.0385 35.7795 37.578 39.648C36.122 39.7495 34.968 40.966 34.968 42.4475C34.968 42.4945 34.969 42.541 34.9715 42.5875C34.9725 42.608 34.9745 42.628 34.976 42.6485C34.978 42.674 34.9795 42.7 34.982 42.7255C34.9845 42.751 34.988 42.776 34.991 42.801C34.9935 42.821 34.9955 42.8415 34.9985 42.8615C35.0025 42.8885 35.0075 42.9155 35.0125 42.9425C35.0155 42.9605 35.0185 42.9785 35.022 42.9965C35.0275 43.0235 35.0335 43.0505 35.04 43.0775C35.044 43.095 35.048 43.113 35.052 43.1305C35.0585 43.1565 35.066 43.1825 35.073 43.208C35.078 43.2265 35.083 43.2445 35.0885 43.263C35.096 43.287 35.104 43.311 35.112 43.3345C35.1185 43.3545 35.125 43.374 35.132 43.394C35.1395 43.4155 35.148 43.4365 35.156 43.458C35.162 43.474 35.1675 43.49 35.174 43.506L35.175 43.5065ZM37.7755 44.3475C37.093 44.3475 36.494 43.9855 36.159 43.444C36.1395 43.4125 36.121 43.381 36.1035 43.349C36.0985 43.34 36.0945 43.331 36.09 43.322C36.076 43.295 36.0625 43.268 36.05 43.2405C36.045 43.2295 36.04 43.219 36.0355 43.208C36.004 43.1355 35.9765 43.0615 35.9545 42.986C35.952 42.977 35.9495 42.968 35.9465 42.9585C35.937 42.925 35.9285 42.891 35.921 42.8565C35.92 42.851 35.9185 42.846 35.9175 42.8405C35.909 42.801 35.902 42.761 35.8965 42.721C35.8955 42.713 35.8945 42.705 35.8935 42.697C35.889 42.6645 35.886 42.6325 35.883 42.5995C35.882 42.589 35.881 42.578 35.8805 42.5675C35.878 42.5275 35.8765 42.4875 35.8765 42.447C35.8765 41.3995 36.7285 40.5475 37.776 40.5475C37.811 40.5475 37.846 40.5485 37.8805 40.5505C37.896 40.5515 37.911 40.553 37.9265 40.554C37.945 40.5555 37.963 40.557 37.981 40.5585C38.002 40.561 38.023 40.5635 38.0435 40.5665C38.0545 40.568 38.0655 40.5695 38.076 40.5715C38.102 40.5755 38.1275 40.58 38.153 40.5855C38.1565 40.586 38.1595 40.587 38.163 40.5875C39.0255 40.767 39.675 41.5325 39.675 42.4475C39.675 43.495 38.823 44.347 37.7755 44.347V44.3475ZM39.704 40.409C39.693 40.3985 39.681 40.3885 39.6695 40.378C39.663 40.372 39.656 40.366 39.6495 40.36C39.6255 40.3385 39.6015 40.3175 39.577 40.297C39.5625 40.285 39.5475 40.273 39.5325 40.261C39.5155 40.2475 39.499 40.234 39.482 40.221C39.4585 40.203 39.435 40.1855 39.411 40.1685C39.4025 40.1625 39.3935 40.156 39.3845 40.15C39.3525 40.1275 39.3195 40.1055 39.2865 40.084C39.286 40.084 39.2855 40.083 39.285 40.083C39.0405 39.9265 38.7705 39.806 38.4825 39.731C38.957 35.7225 38.6955 31.746 37.7035 27.899C38.02 27.712 38.297 27.4645 38.5185 27.173C40.823 28.8925 42.867 30.748 45.1745 32.971C43.915 35.7785 42.063 38.319 39.704 40.409Z" fill="black"/>
<path d="M6.59608 11.9925C6.84654 11.9925 7.04958 11.7895 7.04958 11.539C7.04958 11.2885 6.84654 11.0855 6.59608 11.0855C6.34562 11.0855 6.14258 11.2885 6.14258 11.539C6.14258 11.7895 6.34562 11.9925 6.59608 11.9925Z" fill="black"/>
<path d="M26.2855 21.676C26.536 21.676 26.739 21.473 26.739 21.2225C26.739 20.972 26.536 20.769 26.2855 20.769C26.035 20.769 25.832 20.972 25.832 21.2225C25.832 21.473 26.035 21.676 26.2855 21.676Z" fill="black"/>
</g>
<defs>
<clipPath id="clip0_384_869">
<rect width="48" height="48" fill="white"/>
</clipPath>
</defs>
</svg>
