<svg width="48" height="48" viewBox="0 0 48 48" fill="none" xmlns="http://www.w3.org/2000/svg">
<rect width="48" height="48" fill="white"/>
<path d="M45.915 33.207H45.957C47.0835 33.207 48 32.2905 48 31.164V31.0905C48 29.964 47.0835 29.0475 45.957 29.0475H43.132C45.0675 27.905 46.369 25.798 46.369 23.392C46.369 19.8005 43.469 16.874 39.8875 16.8305C40.067 16.54 40.171 16.198 40.171 15.8325C40.171 14.7825 39.3165 13.928 38.2665 13.928H38.2285C36.5885 13.928 35.2545 12.594 35.2545 10.954C35.2545 9.314 36.5885 7.98 38.2285 7.98H38.2665C39.3165 7.98 40.171 7.1255 40.171 6.0755V6.0085C40.171 4.9585 39.3165 4.104 38.2665 4.104H11.708C7.9495 4.104 4.8915 7.162 4.8915 10.9205C4.8915 13.444 6.2695 15.651 8.3125 16.8295H4.1615C3.1435 16.8295 2.315 17.658 2.315 18.676C2.315 19.694 3.1435 20.5225 4.1615 20.5225H4.198C5.7625 20.5225 7.035 21.7955 7.035 23.3595C7.035 24.9235 5.762 26.1965 4.198 26.1965H4.1615C3.1435 26.1965 2.315 27.025 2.315 28.043V28.1075C2.315 29.0385 3.0075 29.8105 3.9045 29.936C1.5815 31.192 0 33.6505 0 36.472C0 40.566 3.331 43.897 7.425 43.897H45.957C47.0835 43.897 48 42.9805 48 41.854C48 40.7275 47.0835 39.811 45.957 39.811H45.915C44.0945 39.811 42.6135 38.33 42.6135 36.5095C42.6135 34.689 44.0945 33.208 45.915 33.208V33.207ZM47.0925 31.09V31.1635C47.0925 31.79 46.583 32.2995 45.9565 32.2995H40.1705V29.954H45.9565C46.583 29.954 47.0925 30.4635 47.0925 31.09ZM31.4115 24.7485L39.2635 24.772V35.4635L35.37 33.5455C35.3065 33.5145 35.238 33.499 35.1695 33.499C35.096 33.499 35.023 33.517 34.9565 33.552L31.4115 35.4375V24.748V24.7485ZM5.7985 10.9195C5.7985 7.661 8.4495 5.0105 11.7075 5.0105H38.266C38.816 5.0105 39.263 5.458 39.263 6.0075V6.0745C39.263 6.6245 38.8155 7.0715 38.266 7.0715H17.4195C17.169 7.0715 16.966 7.2745 16.966 7.525C16.966 7.7755 17.169 7.9785 17.4195 7.9785H35.7375C34.888 8.691 34.3465 9.7595 34.3465 10.9525C34.3465 12.1455 34.888 13.214 35.7375 13.9265H11.595C9.955 13.9265 8.621 12.5925 8.621 10.9525C8.621 9.3125 9.955 7.9785 11.595 7.9785H12.282C12.5325 7.9785 12.7355 7.7755 12.7355 7.525C12.7355 7.2745 12.5325 7.0715 12.282 7.0715H11.595C9.455 7.0715 7.714 8.8125 7.714 10.9525C7.714 13.0925 9.455 14.8335 11.595 14.8335H38.266C38.816 14.8335 39.263 15.281 39.263 15.8305C39.263 16.38 38.816 16.8275 38.2665 16.8275H11.706C8.4485 16.8265 5.799 14.176 5.799 10.9185L5.7985 10.9195ZM3.222 18.6755C3.222 18.1575 3.6435 17.736 4.1615 17.736H11.706C11.706 17.736 11.7075 17.736 11.708 17.736H38.2665C38.2665 17.736 38.267 17.736 38.2675 17.736H39.806C42.9245 17.736 45.4615 20.273 45.4615 23.3915C45.4615 26.51 43.12 28.846 40.171 29.035V27.094C42.1165 26.9615 43.6585 25.3375 43.6585 23.3595C43.6585 21.3815 41.9785 19.615 39.914 19.615H4.1615C3.6435 19.615 3.222 19.1935 3.222 18.6755ZM4.1615 29.047C3.6435 29.047 3.222 28.6255 3.222 28.1075V28.043C3.222 27.525 3.6435 27.1035 4.1615 27.1035H10.8185C11.069 27.1035 11.272 26.9005 11.272 26.65C11.272 26.3995 11.069 26.1965 10.8185 26.1965H6.6375C7.4355 25.5095 7.9425 24.4925 7.9425 23.3595C7.9425 22.2265 7.4355 21.2095 6.6375 20.5225H39.914C41.4785 20.5225 42.751 21.7955 42.751 23.3595C42.751 24.8375 41.615 26.0545 40.1705 26.1845V24.32C40.1705 24.07 39.968 23.867 39.718 23.8665L24.9105 23.8215H24.909C24.659 23.8215 24.456 24.0235 24.4555 24.274C24.455 24.5245 24.657 24.7285 24.908 24.729L30.5045 24.746V26.197H16.4195C16.169 26.197 15.966 26.4 15.966 26.6505C15.966 26.901 16.169 27.104 16.4195 27.104H30.5045V29.047H4.1615ZM41.706 36.5085C41.706 37.846 42.3335 39.0385 43.309 39.81H38.228C37.9775 39.81 37.7745 40.013 37.7745 40.2635C37.7745 40.514 37.9775 40.717 38.228 40.717H45.9565C46.583 40.717 47.0925 41.2265 47.0925 41.853C47.0925 42.4795 46.583 42.989 45.9565 42.989H7.425C3.831 42.989 0.9075 40.0655 0.9075 36.4715C0.9075 32.8775 3.831 29.954 7.425 29.954H30.5045V32.2995H7.3015C4.9805 32.2995 3.0925 34.1875 3.0925 36.5085C3.0925 38.8295 4.9805 40.7175 7.3015 40.7175H31.6525C31.903 40.7175 32.106 40.5145 32.106 40.264C32.106 40.0135 31.903 39.8105 31.6525 39.8105H7.3015C5.481 39.8105 4 38.3295 4 36.509C4 34.6885 5.481 33.2075 7.3015 33.2075H30.5045V36.1935C30.5045 36.3525 30.588 36.5005 30.7245 36.5825C30.861 36.6645 31.0305 36.669 31.171 36.594L35.1775 34.463L39.5165 36.6005C39.58 36.632 39.6485 36.647 39.717 36.647C39.8005 36.647 39.8835 36.624 39.9565 36.5785C40.0895 36.4955 40.1705 36.35 40.1705 36.1935V33.2075H43.309C42.3335 33.979 41.706 35.172 41.706 36.509V36.5085Z" fill="black"/>
<path d="M14.8251 7.97551C15.0921 7.97551 15.3086 7.75901 15.3086 7.49201C15.3086 7.22501 15.0921 7.00851 14.8251 7.00851C14.5581 7.00851 14.3416 7.22501 14.3416 7.49201C14.3416 7.75901 14.5581 7.97551 14.8251 7.97551Z" fill="black"/>
<path d="M13.858 27.1335C14.125 27.1335 14.3415 26.917 14.3415 26.65C14.3415 26.383 14.125 26.1665 13.858 26.1665C13.591 26.1665 13.3745 26.383 13.3745 26.65C13.3745 26.917 13.591 27.1335 13.858 27.1335Z" fill="black"/>
<path d="M34.9686 39.7805C34.7016 39.7805 34.4851 39.997 34.4851 40.264C34.4851 40.531 34.7016 40.7475 34.9686 40.7475C35.2356 40.7475 35.4521 40.531 35.4521 40.264C35.4521 39.997 35.2356 39.7805 34.9686 39.7805Z" fill="black"/>
</svg>
