<svg width="48" height="48" viewBox="0 0 48 48" fill="none" xmlns="http://www.w3.org/2000/svg">
<g clip-path="url(#clip0_518_192)">
<path d="M15.7821 9.93452C15.7911 9.93452 15.8001 9.93452 15.8091 9.93352C16.0586 9.91902 16.2491 9.70452 16.2346 9.45502C16.1806 8.53052 16.3286 7.68352 16.6751 6.93752C17.6706 4.79352 20.3351 3.24752 22.8731 3.34352C25.4471 3.44002 27.1391 5.03802 27.7471 5.72052C27.7476 5.72102 27.7481 5.72152 27.7491 5.72252C27.7541 5.72802 27.7601 5.73352 27.7651 5.73902C27.7706 5.74452 27.7761 5.75052 27.7821 5.75602C27.7826 5.75652 27.7831 5.75702 27.7836 5.75752C27.7871 5.76102 27.7911 5.76352 27.7951 5.76652C27.8026 5.77302 27.8101 5.77902 27.8176 5.78502C27.8221 5.78852 27.8271 5.79152 27.8316 5.79452C27.8391 5.79952 27.8471 5.80502 27.8551 5.80952C27.8606 5.81302 27.8666 5.81552 27.8726 5.81902C27.8796 5.82302 27.8871 5.82652 27.8941 5.83002C27.9011 5.83302 27.9081 5.83602 27.9146 5.83852C27.9211 5.84102 27.9276 5.84402 27.9341 5.84652C27.9416 5.84902 27.9496 5.85152 27.9571 5.85352C27.9631 5.85552 27.9696 5.85752 27.9756 5.85902C27.9836 5.86102 27.9916 5.86252 27.9996 5.86402C28.0061 5.86502 28.0121 5.86652 28.0186 5.86752C28.0266 5.86852 28.0341 5.86902 28.0421 5.87002C28.0486 5.87052 28.0556 5.87152 28.0621 5.87152C28.0696 5.87152 28.0766 5.87152 28.0841 5.87152C28.0916 5.87152 28.0986 5.87152 28.1061 5.87152C28.1126 5.87152 28.1196 5.87052 28.1261 5.87002C28.1341 5.86952 28.1416 5.86852 28.1496 5.86752C28.1561 5.86652 28.1621 5.86502 28.1686 5.86402C28.1766 5.86252 28.1846 5.86102 28.1926 5.85902C28.1986 5.85752 28.2051 5.85552 28.2111 5.85352C28.2191 5.85102 28.2266 5.84902 28.2341 5.84652C28.2406 5.84402 28.2471 5.84152 28.2536 5.83902C28.2606 5.83602 28.2676 5.83352 28.2746 5.83052C28.2816 5.82702 28.2891 5.82302 28.2961 5.81952C28.3021 5.81652 28.3081 5.81352 28.3136 5.81002C28.3216 5.80552 28.3291 5.80002 28.3366 5.79502C28.3416 5.79202 28.3461 5.78902 28.3511 5.78552C28.3591 5.78002 28.3666 5.77352 28.3741 5.76702C28.3776 5.76402 28.3816 5.76102 28.3856 5.75802C28.3861 5.75752 28.3866 5.75702 28.3871 5.75652C28.3931 5.75102 28.3986 5.74502 28.4046 5.73902C28.4101 5.73352 28.4156 5.72852 28.4206 5.72302C28.4211 5.72252 28.4221 5.72202 28.4226 5.72102C29.0306 5.03852 30.7226 3.44052 33.2966 3.34402C35.8346 3.24852 38.4991 4.79402 39.4946 6.93802C40.4596 9.01652 39.8836 11.779 37.7826 15.1495C36.0666 17.902 33.8131 20.2545 32.9646 21.14C31.4966 22.6725 29.8556 24.0505 28.0846 25.2395C26.3136 24.0505 24.6726 22.6725 23.2046 21.14C22.2456 20.139 19.6976 17.4795 17.9476 14.415C17.8236 14.198 17.5471 14.1225 17.3301 14.2465C17.1131 14.3705 17.0376 14.647 17.1616 14.864C18.9671 18.025 21.5706 20.743 22.5511 21.7665C24.1221 23.406 25.8846 24.8745 27.7896 26.1315C27.8666 26.182 27.9531 26.2065 28.0386 26.2065C28.0541 26.2065 28.0696 26.2055 28.0851 26.2035C28.1006 26.205 28.1161 26.2065 28.1316 26.2065C28.2171 26.2065 28.3036 26.1825 28.3806 26.1315C30.2856 24.875 32.0481 23.406 33.6191 21.7665C34.4851 20.8625 36.7861 18.4605 38.5516 15.6285C40.8246 11.9825 41.4186 8.93002 40.3166 6.55702C39.7691 5.37752 38.7696 4.31202 37.5026 3.55652C36.2046 2.78252 34.6991 2.38702 33.2636 2.43952C30.7301 2.53452 28.9586 3.90102 28.0856 4.76352C27.2126 3.90052 25.4411 2.53452 22.9076 2.43952C21.4716 2.38652 19.9661 2.78252 18.6686 3.55652C17.4016 4.31202 16.4026 5.37752 15.8546 6.55702C15.4446 7.44002 15.2686 8.43352 15.3316 9.50902C15.3456 9.74952 15.5451 9.93502 15.7831 9.93502L15.7821 9.93452Z" fill="black"/>
<path d="M16.3754 11.8474C16.1069 11.8474 15.8889 12.0654 15.8889 12.3339C15.8889 12.6024 16.1069 12.8204 16.3754 12.8204C16.6439 12.8204 16.8619 12.6024 16.8619 12.3339C16.8619 12.0654 16.6439 11.8474 16.3754 11.8474Z" fill="black"/>
<path d="M0.4865 29.6095C0.755 29.6095 0.973 29.3915 0.973 29.123C0.973 28.8545 0.755 28.6365 0.4865 28.6365C0.218 28.6365 0 28.8545 0 29.123C0 29.3915 0.218 29.6095 0.4865 29.6095Z" fill="black"/>
<path d="M5.85459 28.1729C5.85459 27.6484 5.42909 27.2229 4.90459 27.2229C4.38009 27.2229 3.95459 27.6484 3.95459 28.1729C3.95459 28.6974 4.38009 29.1229 4.90459 29.1229C5.42909 29.1229 5.85459 28.6974 5.85459 28.1729Z" fill="black"/>
<path d="M47.7259 32.4059C47.1435 31.1369 45.7324 30.4054 44.2949 30.6274C44.2659 30.6319 44.2374 30.6394 44.2094 30.6494L33.4075 34.5669C33.8434 33.8929 34.4294 32.6894 34.0154 31.5464C33.5864 30.3624 32.4504 29.5419 31.1894 29.5049C31.1849 29.5049 31.1805 29.5049 31.1759 29.5049H24.4494L17.9329 26.0264C17.8914 26.0039 17.8464 25.9884 17.7999 25.9804L16.0564 25.6674C16.0279 25.6624 15.9989 25.6599 15.9694 25.6604L9.20945 25.7659V24.2384C9.20945 23.7529 8.81445 23.3579 8.32895 23.3579H0.913947C0.428447 23.3579 0.0334473 23.7529 0.0334473 24.2384V26.9399C0.0334473 27.1899 0.235947 27.3924 0.485947 27.3924C0.735947 27.3924 0.938447 27.1899 0.938447 26.9399V24.2634H8.30345V41.4189H0.938947V31.2019C0.938947 30.9519 0.736447 30.7494 0.486447 30.7494C0.236447 30.7494 0.0339473 30.9519 0.0339473 31.2019V41.4439C0.0339473 41.9294 0.428947 42.3244 0.914447 42.3244H8.32945C8.81495 42.3244 9.20995 41.9294 9.20995 41.4439V39.9324C9.76845 39.9604 10.3124 40.0579 10.8324 40.2239C11.6539 40.4864 12.2139 40.8549 12.4529 41.0124L12.4649 41.0204C13.0899 41.4314 16.3404 43.5339 18.9414 44.5509C19.7004 44.8479 21.4784 45.5424 23.7064 45.5654C23.7449 45.5654 23.7829 45.5659 23.8209 45.5659C26.5634 45.5659 28.6329 44.5544 29.6344 44.0649L29.6769 44.0444C33.2329 42.3069 38.7464 39.8729 45.7259 36.7909L46.291 36.5414C46.3055 36.5349 46.32 36.5279 46.334 36.5199C47.7894 35.6829 48.4014 33.8764 47.7269 32.4069L47.7259 32.4059ZM45.9019 35.7224L45.36 35.9619C38.3709 39.0479 32.8509 41.4854 29.2789 43.2304L29.2364 43.2514C28.2964 43.7109 26.3539 44.6604 23.8194 44.6604C23.7849 44.6604 23.7499 44.6604 23.7154 44.6599C21.6534 44.6389 20.0444 44.0099 19.2709 43.7074C16.7004 42.7029 13.3369 40.5104 12.9619 40.2639L12.9499 40.2559C12.6799 40.0784 12.0469 39.6619 11.1074 39.3614C10.4984 39.1669 9.86195 39.0539 9.20945 39.0249V26.6714L15.9399 26.5664L17.5684 26.8589L24.1234 30.3574C24.1889 30.3924 24.2624 30.4109 24.3364 30.4109H31.1694C32.0604 30.4399 32.8619 31.0199 33.1649 31.8559C33.5124 32.8144 32.721 33.9949 32.47 34.3339L32.4664 34.3384C32.2119 34.6824 31.8984 34.9804 31.5339 35.2264L21.1209 35.1329H21.1169C20.8689 35.1329 20.6664 35.3329 20.6644 35.5814C20.6619 35.8314 20.8629 36.0359 21.1129 36.0379L31.6409 36.1324H31.6644C31.6644 36.1324 31.6659 36.1324 31.6664 36.1324C31.667 36.1324 31.6679 36.1324 31.6689 36.1324C31.6719 36.1324 31.6744 36.1319 31.6774 36.1319C31.6909 36.1319 31.7049 36.1304 31.7184 36.1289C31.7254 36.1279 31.7324 36.1274 31.7394 36.1264C31.7554 36.1239 31.7714 36.1204 31.7874 36.1164C31.7924 36.1149 31.7969 36.1134 31.8019 36.1119C31.8089 36.1099 31.816 36.1079 31.823 36.1054L44.4759 31.5164C45.5009 31.3759 46.4949 31.8929 46.9039 32.7839C47.3825 33.8259 46.9424 35.1119 45.9024 35.7229L45.9019 35.7224Z" fill="black"/>
</g>
<defs>
<clipPath id="clip0_518_192">
<rect width="48" height="48" fill="white"/>
</clipPath>
</defs>
</svg>
