<svg width="48" height="48" viewBox="0 0 48 48" fill="none" xmlns="http://www.w3.org/2000/svg">
<g clip-path="url(#clip0_518_182)">
<path d="M47.3627 9.33102L37.2562 0.467518C36.6972 -0.0224824 35.9297 -0.136482 35.2527 0.170018C34.5757 0.476518 34.1552 1.12902 34.1552 1.87252V3.75052H16.6422C16.3982 3.75052 16.2007 3.94852 16.2007 4.19202C16.2007 4.43552 16.3987 4.63352 16.6422 4.63352H34.5967C34.8407 4.63352 35.0382 4.43552 35.0382 4.19202V1.87202C35.0382 1.47402 35.2547 1.13852 35.6172 0.974518C35.9797 0.810518 36.3747 0.869018 36.6737 1.13152L46.7802 9.99502C46.9937 10.182 47.1157 10.452 47.1157 10.736C47.1157 11.02 46.9932 11.29 46.7802 11.477L39.6917 17.6935V12.0575C39.6917 9.91802 37.9512 8.17702 35.8112 8.17702H12.1887C10.0492 8.17702 8.30823 9.91752 8.30823 12.0575V16.838H6.26773V4.63402H11.4727C11.7167 4.63402 11.9142 4.43602 11.9142 4.19252C11.9142 3.94902 11.7162 3.75102 11.4727 3.75102H6.24373C5.77023 3.75102 5.38473 4.13652 5.38473 4.61002V16.863C5.38473 17.3365 5.77023 17.722 6.24373 17.722H8.30873V29.132L0.637732 35.859C0.232732 36.2135 0.000732422 36.726 0.000732422 37.264C0.000732422 37.802 0.232732 38.314 0.637232 38.669L10.7437 47.5325C11.0947 47.8405 11.5282 47.9995 11.9697 47.9995C12.2312 47.9995 12.4957 47.9435 12.7472 47.8295C13.4242 47.523 13.8447 46.8705 13.8447 46.127V44.249H34.4262C34.6702 44.249 34.8677 44.051 34.8677 43.8075C34.8677 43.564 34.6697 43.366 34.4262 43.366H13.4032C13.1592 43.366 12.9617 43.564 12.9617 43.8075V46.1275C12.9617 46.5255 12.7452 46.861 12.3827 47.025C12.0202 47.189 11.6252 47.1305 11.3262 46.8685L1.22023 38.005C1.00673 37.818 0.884732 37.548 0.884732 37.264C0.884732 36.98 1.00723 36.71 1.22023 36.523L8.30873 30.3065V35.9425C8.30873 38.082 10.0492 39.823 12.1892 39.823H35.8122C37.9517 39.823 39.6927 38.0825 39.6927 35.9425V31.162H41.7332V43.366H38.3317C38.0877 43.366 37.8902 43.564 37.8902 43.8075C37.8902 44.051 38.0882 44.249 38.3317 44.249H41.7577C42.2312 44.249 42.6167 43.8635 42.6167 43.39V31.137C42.6167 30.6635 42.2312 30.278 41.7577 30.278H39.6927V26.09C39.6927 25.846 39.4947 25.6485 39.2512 25.6485C39.0077 25.6485 38.8097 25.8465 38.8097 26.09V35.942C38.8097 37.5945 37.4652 38.939 35.8127 38.939H12.1887C10.5362 38.939 9.19173 37.5945 9.19173 35.942V12.0575C9.19173 10.405 10.5362 9.06052 12.1887 9.06052H35.8117C37.4642 9.06052 38.8087 10.405 38.8087 12.0575V19.681C38.8087 19.925 39.0067 20.1225 39.2502 20.1225C39.4937 20.1225 39.6917 19.9245 39.6917 19.681V18.8685L47.3627 12.141C47.7672 11.786 47.9992 11.274 47.9992 10.736C47.9992 10.198 47.7672 9.68602 47.3627 9.33102Z" fill="black"/>
<path d="M36.392 43.3364C36.13 43.3364 35.9175 43.5489 35.9175 43.8109C35.9175 44.0729 36.13 44.2854 36.392 44.2854C36.654 44.2854 36.8665 44.0729 36.8665 43.8109C36.8665 43.5489 36.654 43.3364 36.392 43.3364Z" fill="black"/>
<path d="M14.1244 4.66189C14.3864 4.66189 14.5989 4.44939 14.5989 4.18739C14.5989 3.92539 14.3864 3.71289 14.1244 3.71289C13.8624 3.71289 13.6499 3.92539 13.6499 4.18739C13.6499 4.44939 13.8624 4.66189 14.1244 4.66189Z" fill="black"/>
<path d="M33.2636 23.5256C33.7371 23.5256 34.1226 23.1401 34.1226 22.6666V20.1231H36.5246C36.7246 20.1231 36.9001 19.9886 36.9516 19.7951C37.0031 19.6016 36.9181 19.3976 36.7446 19.2981L24.2201 12.1181C24.0841 12.0401 23.9166 12.0401 23.7806 12.1181L11.2561 19.2981C11.0826 19.3976 10.9976 19.6016 11.0491 19.7951C11.1006 19.9886 11.2756 20.1231 11.4761 20.1231H13.8776V22.6666C13.8776 23.1401 14.2631 23.5256 14.7366 23.5256H14.8986V31.1636H14.0746C13.6011 31.1636 13.2156 31.5491 13.2156 32.0226V34.8231C13.2156 35.2966 13.6011 35.6821 14.0746 35.6821H33.9256C34.3991 35.6821 34.7846 35.2966 34.7846 34.8231V32.0226C34.7846 31.5491 34.3991 31.1636 33.9256 31.1636H33.1016V23.5256H33.2636ZM24.0001 13.0101L34.8656 19.2391H13.1341L23.9996 13.0101H24.0001ZM14.7611 20.1231H33.2396V22.6426H14.7611V20.1231ZM26.0561 31.1636V23.5256H28.9901V31.1636H26.0561ZM19.0106 31.1636V23.5256H21.9446V31.1636H19.0106ZM22.8276 23.5256H25.1726V31.1636H22.8276V23.5256ZM15.7821 23.5256H18.1271V31.1636H15.7821V23.5256ZM33.9011 34.7991H14.0991V32.0471H33.9011V34.7991ZM32.2181 31.1636H29.8731V23.5256H32.2181V31.1636Z" fill="black"/>
<path d="M39.2499 22.1345C38.9879 22.1345 38.7754 22.347 38.7754 22.609C38.7754 22.871 38.9879 23.0835 39.2499 23.0835C39.5119 23.0835 39.7244 22.871 39.7244 22.609C39.7244 22.347 39.5119 22.1345 39.2499 22.1345Z" fill="black"/>
</g>
<defs>
<clipPath id="clip0_518_182">
<rect width="48" height="48" fill="white"/>
</clipPath>
</defs>
</svg>
