<svg width="48" height="48" viewBox="0 0 48 48" fill="none" xmlns="http://www.w3.org/2000/svg">
<g clip-path="url(#clip0_518_202)">
<path d="M0.483889 21.5794C0.731389 21.5794 0.931889 21.3789 0.931889 21.1314V18.9004C0.931889 16.9689 2.50339 15.3974 4.43489 15.3974H32.2984L30.1879 17.5079C29.3924 18.2039 28.7224 19.0134 28.1964 19.9139C27.0679 21.8444 26.8489 23.7694 26.8634 25.0444C26.8634 25.0494 26.8639 25.0549 26.8644 25.0599C26.8644 25.0679 26.8649 25.0759 26.8659 25.0834C26.8664 25.0904 26.8679 25.0974 26.8689 25.1044C26.8699 25.1119 26.8709 25.1199 26.8729 25.1274C26.8744 25.1344 26.8759 25.1414 26.8779 25.1484C26.8799 25.1559 26.8814 25.1629 26.8839 25.1704C26.8864 25.1779 26.8884 25.1839 26.8909 25.1909C26.8934 25.1979 26.8959 25.2044 26.8984 25.2114C26.9014 25.2184 26.9044 25.2249 26.9074 25.2314C26.9104 25.2379 26.9134 25.2439 26.9169 25.2504C26.9204 25.2569 26.9244 25.2634 26.9279 25.2694C26.9314 25.2754 26.9349 25.2814 26.9389 25.2869C26.9429 25.2929 26.9474 25.2989 26.9519 25.3049C26.9559 25.3104 26.9599 25.3159 26.9644 25.3214C26.9689 25.3269 26.9739 25.3324 26.9789 25.3379C26.9834 25.3429 26.9884 25.3484 26.9934 25.3534C26.9984 25.3584 27.0039 25.3634 27.0089 25.3679C27.0144 25.3729 27.0194 25.3779 27.0249 25.3824C27.0304 25.3869 27.0359 25.3909 27.0414 25.3954C27.0474 25.3999 27.0529 25.4044 27.0589 25.4084C27.0649 25.4124 27.0709 25.4159 27.0769 25.4199C27.0829 25.4239 27.0894 25.4274 27.0954 25.4314C27.1019 25.4349 27.1084 25.4379 27.1144 25.4409C27.1204 25.4439 27.1274 25.4474 27.1339 25.4504C27.1409 25.4534 27.1479 25.4559 27.1549 25.4584C27.1614 25.4609 27.1679 25.4634 27.1749 25.4654C27.1824 25.4679 27.1899 25.4694 27.1974 25.4714C27.2039 25.4729 27.2104 25.4749 27.2174 25.4764C27.2254 25.4779 27.2334 25.4794 27.2414 25.4804C27.2479 25.4814 27.2544 25.4829 27.2614 25.4834C27.2699 25.4844 27.2779 25.4849 27.2864 25.4849C27.2919 25.4849 27.2974 25.4859 27.3029 25.4859C27.3054 25.4859 27.3084 25.4859 27.3109 25.4859C27.3109 25.4859 27.3114 25.4859 27.3119 25.4859C27.3699 25.4869 27.4289 25.4874 27.4899 25.4874C28.7664 25.4874 30.6044 25.2429 32.4394 24.1509C33.3349 23.6179 34.1349 22.9389 34.8179 22.1319L40.1324 16.8174C40.1909 17.2699 40.3509 17.7059 40.6054 18.0864C41.0174 18.7019 41.6409 19.1194 42.3159 19.2309C42.4394 19.2514 42.5639 19.2614 42.6884 19.2614C43.7564 19.2614 44.8194 18.5329 45.2159 17.4769C45.4484 16.8574 45.3949 16.2714 45.2909 15.8544C46.3839 16.4734 47.0684 17.6239 47.0684 18.8999V31.8369C47.0684 32.0844 47.2689 32.2849 47.5164 32.2849C47.7639 32.2849 47.9644 32.0844 47.9644 31.8369V18.8999C47.9644 18.0094 47.6969 17.1499 47.1904 16.4149C46.8234 15.8819 46.3504 15.4409 45.8019 15.1159L46.9404 13.9964C47.4964 13.4499 47.7084 12.9764 47.8559 12.4344C48.1649 11.2984 47.7184 10.2259 47.3214 9.55944C48.2184 8.28344 48.0974 6.50544 46.9579 5.36594C45.6819 4.08994 43.6064 4.08994 42.3304 5.36594L36.9374 10.7589L33.1949 14.5014H4.43439C2.00889 14.5014 0.0358887 16.4744 0.0358887 18.8999V21.1309C0.0358887 21.3784 0.236389 21.5789 0.483889 21.5789V21.5794ZM33.6954 15.2664L37.2529 11.7094L40.6139 15.0704L34.1904 21.4939L30.8294 18.1329L33.6954 15.2669V15.2664ZM39.7024 9.25993L43.0634 12.6209L41.2469 14.4374L37.8859 11.0764L39.7024 9.25993ZM31.9804 23.3829C30.4454 24.2964 28.9044 24.5549 27.7634 24.5889C27.8044 23.4494 28.0669 21.9084 28.9684 20.3659C29.3084 19.7839 29.7154 19.2439 30.1824 18.7529L33.5739 22.1444C33.5759 22.1464 33.5779 22.1479 33.5799 22.1494C33.0954 22.6239 32.5599 23.0374 31.9804 23.3824V23.3829ZM46.9909 12.1994C46.8754 12.6234 46.7274 12.9489 46.3114 13.3579L44.7269 14.9164C44.7269 14.9164 44.7224 14.9204 44.7204 14.9229L44.4039 15.2344C44.2714 15.3649 44.2329 15.5634 44.3079 15.7339C44.4059 15.9574 44.6094 16.5434 44.3769 17.1629C44.0844 17.9429 43.2249 18.4744 42.4614 18.3484C42.0294 18.2769 41.6239 18.0004 41.3494 17.5894C41.0309 17.1134 40.9249 16.5109 41.0579 15.9359C41.0619 15.9184 41.0644 15.9009 41.0664 15.8839L44.0129 12.9374L46.6869 10.2634C46.9539 10.7824 47.1834 11.4904 46.9904 12.1999L46.9909 12.1994ZM42.9624 5.99944C43.8889 5.07294 45.3969 5.07294 46.3234 5.99944C47.2499 6.92594 47.2499 8.43394 46.3234 9.36044L43.6964 11.9874L40.3354 8.62644L42.9624 5.99944Z" fill="black"/>
<path d="M47.5159 36.4689C47.2684 36.4689 47.0679 36.6694 47.0679 36.9169V39.1919C47.0679 41.1234 45.4964 42.6949 43.5649 42.6949H4.4344C2.5029 42.6949 0.9314 41.1234 0.9314 39.1919V25.5134C0.9314 25.2659 0.7309 25.0654 0.4834 25.0654C0.2359 25.0654 0.0354004 25.2659 0.0354004 25.5134V39.1919C0.0354004 41.6174 2.0084 43.5904 4.4339 43.5904H43.5644C45.9899 43.5904 47.9629 41.6174 47.9629 39.1919V36.9169C47.9629 36.6694 47.7624 36.4689 47.5149 36.4689H47.5159Z" fill="black"/>
<path d="M43.5416 31.2464C43.5416 30.0849 42.5966 29.1404 41.4356 29.1404H24.3211C23.1596 29.1404 22.2151 30.0854 22.2151 31.2464C22.2151 32.4074 23.1601 33.3524 24.3211 33.3524H41.4356C42.5971 33.3524 43.5416 32.4074 43.5416 31.2464ZM23.1101 31.2464C23.1101 30.5789 23.6531 30.0359 24.3206 30.0359H41.4351C42.1026 30.0359 42.6456 30.5789 42.6456 31.2464C42.6456 31.9139 42.1026 32.4569 41.4351 32.4569H24.3206C23.6531 32.4569 23.1101 31.9139 23.1101 31.2464Z" fill="black"/>
<path d="M18.4224 36.0891C18.4224 35.8416 18.2219 35.6411 17.9744 35.6411H5.85694C5.60944 35.6411 5.40894 35.8416 5.40894 36.0891C5.40894 36.3366 5.60944 36.5371 5.85694 36.5371H17.9744C18.2219 36.5371 18.4224 36.3366 18.4224 36.0891Z" fill="black"/>
<path d="M5.85694 39.2234C5.60944 39.2234 5.40894 39.4239 5.40894 39.6714C5.40894 39.9189 5.60944 40.1194 5.85694 40.1194H13.3309C13.5784 40.1194 13.7789 39.9189 13.7789 39.6714C13.7789 39.4239 13.5784 39.2234 13.3309 39.2234H5.85694Z" fill="black"/>
<path d="M37.6339 38.6215C37.7189 38.7295 37.8484 38.7925 37.9859 38.7925H43.3589C43.6064 38.7925 43.8069 38.592 43.8069 38.3445C43.8069 38.097 43.6064 37.8965 43.3589 37.8965H38.4654C38.4309 37.4545 38.2304 37.041 37.8969 36.7625C37.2904 36.256 36.3604 36.2795 35.7229 36.813C35.5359 36.941 35.3339 37.046 35.1214 37.125C35.0619 37.147 35.0019 37.167 34.9409 37.185C34.8524 36.7245 34.5909 36.31 34.1969 36.0325C33.6024 35.614 32.8119 35.588 32.1824 35.967C32.1694 35.975 32.1569 35.9835 32.1449 35.9925L29.0714 38.296C28.8734 38.4445 28.8334 38.725 28.9814 38.923C29.0694 39.0405 29.2039 39.1025 29.3399 39.1025C29.4334 39.1025 29.5274 39.0735 29.6079 39.013L32.6614 36.7245C32.9839 36.5395 33.3819 36.555 33.6809 36.7655C33.9674 36.9675 34.1164 37.313 34.0699 37.6675C34.0519 37.804 34.0974 37.941 34.1939 38.0395C34.2904 38.138 34.4264 38.1865 34.5629 38.1715C34.8599 38.139 35.1524 38.0695 35.4324 37.9655C35.7224 37.858 35.9979 37.714 36.2514 37.537C36.2639 37.5285 36.2759 37.519 36.2874 37.509C36.5974 37.242 37.0424 37.217 37.3224 37.451C37.5339 37.6275 37.6234 37.9375 37.5499 38.2405C37.5179 38.374 37.5484 38.515 37.6334 38.6225L37.6339 38.6215Z" fill="black"/>
<path d="M11.9359 17.989C7.70542 17.989 4.26392 21.4305 4.26392 25.661C4.26392 29.8915 7.70542 33.333 11.9359 33.333C16.1664 33.333 19.6079 29.8915 19.6079 25.661C19.6079 21.4305 16.1664 17.989 11.9359 17.989ZM11.9359 32.437C8.19942 32.437 5.15942 29.397 5.15942 25.6605C5.15942 21.924 8.19942 18.884 11.9359 18.884C15.6724 18.884 18.7124 21.924 18.7124 25.6605C18.7124 29.397 15.6724 32.437 11.9359 32.437Z" fill="black"/>
<path d="M13.9196 25.4741C13.5301 25.2971 13.0251 25.1451 12.4026 25.0181C11.9926 24.9121 11.6671 24.8146 11.4261 24.7261C11.1861 24.6371 11.0126 24.5351 10.9066 24.4181C10.8006 24.3016 10.7476 24.1581 10.7476 23.9891C10.7476 23.7276 10.8501 23.5326 11.0551 23.4056C11.2606 23.2776 11.5361 23.2146 11.8831 23.2146C12.2076 23.2146 12.4771 23.2836 12.6896 23.4211C12.9011 23.5591 13.0256 23.7196 13.0606 23.9036C13.1031 23.9746 13.1521 24.0246 13.2091 24.0521C13.2651 24.0806 13.3256 24.0951 13.3896 24.0951H14.5881C14.6521 24.0951 14.7046 24.0716 14.7471 24.0261C14.7901 23.9801 14.8111 23.9286 14.8111 23.8726C14.8041 23.6181 14.7146 23.3546 14.5411 23.0816C14.3676 22.8096 14.1161 22.5651 13.7876 22.3496C13.4596 22.1336 13.0501 21.9871 12.5626 21.9091V21.1561C12.5626 21.0786 12.5376 21.0146 12.4886 20.9651C12.4396 20.9151 12.3791 20.8911 12.3081 20.8911H11.5551C11.4776 20.8911 11.4136 20.9151 11.3641 20.9651C11.3141 21.0141 11.2901 21.0781 11.2901 21.1561V21.8881C10.5821 21.9796 10.0286 22.2206 9.63011 22.6091C9.23061 22.9986 9.03011 23.4726 9.03011 24.0311C9.03011 24.4551 9.12411 24.8106 9.31161 25.0971C9.49911 25.3836 9.77611 25.6166 10.1446 25.7971C10.5116 25.9776 10.9611 26.1241 11.4916 26.2376C11.9371 26.3436 12.2926 26.4421 12.5576 26.5346C12.8226 26.6261 13.0171 26.7291 13.1411 26.8421C13.2646 26.9551 13.3266 27.1036 13.3266 27.2876C13.3266 27.5421 13.2116 27.7441 12.9821 27.8926C12.7516 28.0411 12.4071 28.1151 11.9471 28.1151C11.6646 28.1151 11.4276 28.0781 11.2366 28.0036C11.0456 27.9291 10.8956 27.8351 10.7861 27.7221C10.6766 27.6091 10.5971 27.4926 10.5471 27.3726C10.5046 27.3156 10.4591 27.2681 10.4096 27.2291C10.3596 27.1901 10.2886 27.1706 10.1971 27.1706H9.06161C8.99761 27.1706 8.94311 27.1941 8.89761 27.2396C8.85111 27.2856 8.82861 27.3371 8.82861 27.3931C8.84261 27.7116 8.94161 28.0156 9.12561 28.3056C9.30961 28.5956 9.58161 28.8411 9.94211 29.0431C10.3031 29.2441 10.7521 29.3771 11.2896 29.4411V30.1731C11.2896 30.2506 11.3136 30.3136 11.3636 30.3641C11.4126 30.4131 11.4766 30.4381 11.5546 30.4381H12.3076C12.3786 30.4381 12.4386 30.4131 12.4881 30.3641C12.5371 30.3141 12.5621 30.2511 12.5621 30.1731V29.4411C13.0646 29.3771 13.5016 29.2501 13.8726 29.0586C14.2436 28.8676 14.5321 28.6151 14.7366 28.3006C14.9421 27.9856 15.0446 27.6231 15.0446 27.2126C15.0446 26.8021 14.9541 26.4366 14.7736 26.1576C14.5931 25.8781 14.3081 25.6501 13.9196 25.4731V25.4741Z" fill="black"/>
<path d="M0.484 23.9184C0.7515 23.9184 0.968 23.7019 0.968 23.4344C0.968 23.1669 0.7515 22.9504 0.484 22.9504C0.2165 22.9504 0 23.1669 0 23.4344C0 23.7019 0.2165 23.9184 0.484 23.9184Z" fill="black"/>
<path d="M47.516 33.9265C47.2485 33.9265 47.032 34.143 47.032 34.4105C47.032 34.678 47.2485 34.8945 47.516 34.8945C47.7835 34.8945 48 34.678 48 34.4105C48 34.143 47.7835 33.9265 47.516 33.9265Z" fill="black"/>
</g>
<defs>
<clipPath id="clip0_518_202">
<rect width="48" height="48" fill="white"/>
</clipPath>
</defs>
</svg>
