<svg width="1920" height="352" viewBox="0 0 1920 352" fill="none" xmlns="http://www.w3.org/2000/svg">
<path opacity="0.09" d="M1569.1 338.582C1490.98 341.396 1424.98 331.881 1373.89 310.774C1420.45 279.684 1467.8 224.404 1467.8 128.317C1467.8 89.3192 1455.28 56.2181 1431.64 32.699C1410.46 11.6591 1382.15 0 1351.98 0C1323.87 0 1294.7 10.788 1272.99 33.4361C1251.28 10.788 1222.1 0 1194 0C1136.45 0 1078.17 44.09 1078.17 128.25C1078.17 224.135 1125.46 279.617 1171.55 310.908C1120.47 331.881 1054.53 341.329 976.471 338.515H-33V351.514H976.471C1060.39 354.529 1130.86 343.473 1184.81 319.351C1197.26 326.722 1209.25 332.35 1219.84 336.572C1246.95 347.561 1295.5 347.561 1323.67 336.572C1334.8 332.283 1347.38 326.521 1360.5 318.949C1408.72 340.726 1470.33 351.983 1542.93 351.983C1551.52 351.983 1560.25 351.782 1569.1 351.514H2348.32V338.515H1958.24H1569.1V338.582ZM1273.32 54.208C1287.11 74.1088 1294.3 99.8391 1294.3 129.724C1294.3 165.438 1287.17 197.065 1273.05 224.069C1258.93 196.998 1251.81 165.438 1251.81 129.724C1251.81 103.256 1258.8 75.7839 1273.39 54.208H1273.32ZM1091.09 128.317C1091.09 71.0265 1126.46 12.9992 1194 12.9992C1220.37 12.9992 1244.81 23.1171 1262.86 41.5438C1263.46 42.1469 1264 42.7499 1264.6 43.353C1248.94 64.1919 1238.82 92.7365 1238.82 129.724C1238.82 170.799 1247.74 206.781 1265.39 237.135C1258.47 247.923 1250.28 257.907 1240.89 267.019C1225.57 281.895 1207.05 294.492 1185.47 304.811C1136.38 274.39 1091.09 221.187 1091.09 128.317ZM1319.08 324.578C1294.3 334.227 1248.41 334.227 1224.7 324.578C1216.24 321.16 1207.58 317.207 1198.93 312.584C1218.44 302.399 1235.49 290.338 1249.88 276.4C1258.6 267.958 1266.33 258.845 1273.05 249.129C1279.78 258.845 1287.51 267.958 1296.23 276.4C1310.42 290.137 1327.14 302.064 1346.32 312.115C1336.66 317.274 1327.4 321.361 1319.08 324.578ZM1359.7 304.409C1338.53 294.157 1320.28 281.694 1305.16 267.019C1295.77 257.907 1287.57 247.923 1280.65 237.135C1298.3 206.714 1307.22 170.799 1307.22 129.724C1307.22 92.8705 1297.16 64.3259 1281.58 43.554C1297.9 25.1943 1321.21 13.0662 1352.05 13.0662C1419.65 13.0662 1454.95 71.0935 1454.95 128.384C1454.95 223.398 1405.66 276.065 1359.7 304.476V304.409Z" fill="white"/>
</svg>
