<svg width="48" height="48" viewBox="0 0 48 48" fill="none" xmlns="http://www.w3.org/2000/svg">
<g clip-path="url(#clip0_520_258)">
<path d="M0.497402 25.2781C0.758402 25.2781 0.969902 25.0666 0.969902 24.8056V13.5426H43.5444V26.4851C43.5444 26.7461 43.7559 26.9576 44.0169 26.9576C44.2779 26.9576 44.4894 26.7461 44.4894 26.4851V8.40206C44.4894 4.61806 41.4109 1.53906 37.6264 1.53906H6.8879C3.1039 1.53906 0.0249023 4.61806 0.0249023 8.40206V24.8056C0.0249023 25.0666 0.236402 25.2781 0.497402 25.2781ZM6.8879 2.48356H37.6259C40.8894 2.48356 43.5444 5.13856 43.5444 8.40206V12.5981H0.969902V8.40206C0.969902 5.13856 3.6249 2.48356 6.8884 2.48356H6.8879Z" fill="black"/>
<path d="M27.3254 39.096H6.88791C3.62441 39.096 0.969414 36.441 0.969414 33.1775V30.356C0.969414 30.095 0.757914 29.8835 0.496914 29.8835C0.235914 29.8835 0.0244141 30.095 0.0244141 30.356V33.1775C0.0244141 36.9615 3.10291 40.0405 6.88741 40.0405H27.3249C27.5859 40.0405 27.7974 39.829 27.7974 39.568C27.7974 39.307 27.5859 39.0955 27.3249 39.0955L27.3254 39.096Z" fill="black"/>
<path d="M8.04999 9.56043C8.73897 9.56043 9.29749 9.0019 9.29749 8.31293C9.29749 7.62395 8.73897 7.06543 8.04999 7.06543C7.36101 7.06543 6.80249 7.62395 6.80249 8.31293C6.80249 9.0019 7.36101 9.56043 8.04999 9.56043Z" fill="black"/>
<path d="M12.881 9.46562C13.5175 9.20196 13.8198 8.47221 13.5562 7.83568C13.2925 7.19915 12.5628 6.89688 11.9262 7.16054C11.2897 7.4242 10.9874 8.15395 11.2511 8.79048C11.5147 9.42701 12.2445 9.72928 12.881 9.46562Z" fill="black"/>
<path d="M16.9125 9.56043C17.6015 9.56043 18.16 9.0019 18.16 8.31293C18.16 7.62395 17.6015 7.06543 16.9125 7.06543C16.2236 7.06543 15.665 7.62395 15.665 8.31293C15.665 9.0019 16.2236 9.56043 16.9125 9.56043Z" fill="black"/>
<path d="M47.9385 32.1659C47.7735 31.5509 47.308 31.0854 46.693 30.9204L30.1965 26.5004C29.5815 26.3354 28.9455 26.5059 28.495 26.9564C28.0445 27.4069 27.8745 28.0429 28.039 28.6579L32.459 45.1544C32.624 45.7694 33.0895 46.2349 33.7045 46.3999C33.859 46.4414 34.0145 46.4614 34.1685 46.4614C34.6275 46.4614 35.069 46.2809 35.406 45.9439C35.443 45.9069 35.4735 45.8639 35.4965 45.8169L39.3855 37.8469L41.967 36.5874C42.2015 36.4729 42.2985 36.1904 42.1845 35.9559C42.07 35.7214 41.7875 35.6244 41.553 35.7384L38.8255 37.0694C38.731 37.1154 38.6545 37.1919 38.608 37.2869L34.6865 45.3239C34.4825 45.4969 34.2115 45.5579 33.9495 45.4874C33.664 45.4109 33.4485 45.1949 33.372 44.9099L28.952 28.4134C28.8755 28.1279 28.9545 27.8334 29.1635 27.6244C29.3725 27.4154 29.667 27.3364 29.9525 27.4129L46.449 31.8329C46.7345 31.9094 46.95 32.1254 47.0265 32.4104C47.097 32.6729 47.0355 32.9434 46.863 33.1474L44.615 34.2444C44.3805 34.3589 44.2835 34.6414 44.3975 34.8759C44.512 35.1104 44.7945 35.2074 45.029 35.0934L47.356 33.9579C47.403 33.9349 47.446 33.9044 47.483 33.8674C47.9335 33.4169 48.1035 32.7809 47.939 32.1659H47.9385Z" fill="black"/>
<path d="M0.4975 28.1095C0.7725 28.1095 0.995 27.887 0.995 27.612C0.995 27.337 0.7725 27.1145 0.4975 27.1145C0.2225 27.1145 0 27.3375 0 27.612C0 27.8865 0.2225 28.1095 0.4975 28.1095Z" fill="black"/>
<path d="M43.321 34.8799C43.0465 34.8799 42.8235 35.1029 42.8235 35.3774C42.8235 35.6519 43.046 35.8749 43.321 35.8749C43.596 35.8749 43.8185 35.6519 43.8185 35.3774C43.8185 35.1029 43.596 34.8799 43.321 34.8799Z" fill="black"/>
<path d="M36.5791 17.8965H6.80258C6.54158 17.8965 6.33008 18.108 6.33008 18.369C6.33008 18.63 6.54158 18.8415 6.80258 18.8415H36.5791C36.8401 18.8415 37.0516 18.63 37.0516 18.369C37.0516 18.108 36.8401 17.8965 36.5791 17.8965Z" fill="black"/>
<path d="M37.0511 22.2865C37.0511 22.0255 36.8396 21.814 36.5786 21.814H6.80258C6.54158 21.814 6.33008 22.0255 6.33008 22.2865C6.33008 22.5475 6.54158 22.759 6.80258 22.759H36.5791C36.8401 22.759 37.0516 22.5475 37.0516 22.2865H37.0511Z" fill="black"/>
<path d="M24.1251 26.0125H6.80258C6.54158 26.0125 6.33008 26.224 6.33008 26.485C6.33008 26.746 6.54158 26.9575 6.80258 26.9575H24.1251C24.3861 26.9575 24.5976 26.746 24.5976 26.485C24.5976 26.224 24.3861 26.0125 24.1251 26.0125Z" fill="black"/>
<path d="M24.1251 30.2104H6.80258C6.54158 30.2104 6.33008 30.4219 6.33008 30.6829C6.33008 30.9439 6.54158 31.1554 6.80258 31.1554H24.1251C24.3861 31.1554 24.5976 30.9439 24.5976 30.6829C24.5976 30.4219 24.3861 30.2104 24.1251 30.2104Z" fill="black"/>
</g>
<defs>
<clipPath id="clip0_520_258">
<rect width="48" height="48" fill="white"/>
</clipPath>
</defs>
</svg>
