<svg width="48" height="48" viewBox="0 0 48 48" fill="none" xmlns="http://www.w3.org/2000/svg">
<path d="M43.757 11.794C43.51 11.794 43.3095 11.9945 43.3095 12.2415V32.546H32.614L35.321 29.55C35.3595 29.5075 35.389 29.458 35.409 29.4045C35.822 28.2815 35.4705 27.038 34.534 26.31C33.648 25.6215 32.404 25.557 31.439 26.1495C31.4205 26.161 31.4025 26.1735 31.386 26.1875L24.4285 32.0055V5.1615H43.3095V7.7165C43.3095 7.9635 43.51 8.164 43.757 8.164C44.004 8.164 44.2045 7.9635 44.2045 7.7165V3.2735C44.2045 1.4685 42.736 0 40.931 0H26.806C25.001 0 23.5325 1.4685 23.5325 3.2735V23.369L17.789 25.515C17.6555 25.565 17.5535 25.6755 17.515 25.813L14.1015 37.9575L11.0625 40.722C10.8795 40.8885 10.8665 41.1715 11.0325 41.3545C11.199 41.5375 11.482 41.551 11.665 41.3845L14.799 38.5335C14.861 38.477 14.906 38.4045 14.9285 38.3235L18.3155 26.274L23.533 24.3245V32.9635C23.533 33.1375 23.6335 33.2955 23.791 33.369C23.9485 33.4425 24.1345 33.4185 24.2675 33.307L31.9335 26.8965C32.579 26.515 33.399 26.5625 33.9845 27.017C34.5805 27.48 34.825 28.2925 34.595 29.0175L27.826 36.5095C27.7545 36.5885 27.714 36.6905 27.7105 36.7965C27.685 37.681 27.4585 39.4035 26.2265 41.001C24.6185 43.0865 22.37 43.607 21.478 43.7345C21.392 43.747 21.3115 43.784 21.246 43.841C20.71 44.3115 20.184 44.807 19.6825 45.3145C19.147 45.8565 18.627 46.4255 18.1335 47.0085L5.38448 47.0965L9.32048 43.516C9.50348 43.3495 9.51698 43.0665 9.35048 42.8835C9.18398 42.7005 8.90098 42.687 8.71798 42.8535L3.91698 47.221C3.77998 47.346 3.73398 47.5425 3.80148 47.715C3.86848 47.887 4.03398 47.9995 4.21848 47.9995H4.22148L18.3465 47.902C18.478 47.901 18.6025 47.8425 18.687 47.741C19.204 47.1215 19.753 46.517 20.3195 45.943C20.775 45.4815 21.252 45.03 21.7385 44.5995C22.8155 44.425 25.203 43.794 26.9355 41.547C27.9625 40.215 28.3685 38.808 28.5215 37.7645H40.9305C42.7355 37.7645 44.204 36.296 44.204 34.491V12.2415C44.204 11.9945 44.0035 11.794 43.7565 11.794H43.757ZM26.8065 0.895H40.9315C42.243 0.895 43.3095 1.962 43.3095 3.273V4.266H24.4285V3.273C24.4285 1.9615 25.4955 0.895 26.8065 0.895ZM40.931 36.8705H28.7065L31.8045 33.4415H43.309V34.4925C43.309 35.804 42.242 36.8705 40.931 36.8705Z" fill="black"/>
<path d="M35.7365 34.7556H32.001C31.754 34.7556 31.5535 34.9561 31.5535 35.2031C31.5535 35.4501 31.754 35.6506 32.001 35.6506H35.7365C35.9835 35.6506 36.184 35.4501 36.184 35.2031C36.184 34.9561 35.9835 34.7556 35.7365 34.7556Z" fill="black"/>
<path d="M34.1618 3.06932C34.3805 2.85063 34.3805 2.49605 34.1618 2.27736C33.9431 2.05867 33.5886 2.05867 33.3699 2.27736C33.1512 2.49605 33.1512 2.85063 33.3699 3.06932C33.5886 3.28801 33.9431 3.28801 34.1618 3.06932Z" fill="black"/>
<path d="M28.5339 17.5029C28.7809 17.5029 28.9814 17.3024 28.9814 17.0554V14.1284H32.0044C32.2514 14.1284 32.4519 13.9279 32.4519 13.6809C32.4519 13.4339 32.2514 13.2334 32.0044 13.2334H28.5339C28.2869 13.2334 28.0864 13.4339 28.0864 13.6809V17.0554C28.0864 17.3024 28.2869 17.5029 28.5339 17.5029Z" fill="black"/>
<path d="M38.9895 20.2185C38.7425 20.2185 38.542 20.419 38.542 20.666V23.593H35.519C35.272 23.593 35.0715 23.7935 35.0715 24.0405C35.0715 24.2875 35.272 24.488 35.519 24.488H38.9895C39.2365 24.488 39.437 24.2875 39.437 24.0405V20.666C39.437 20.419 39.2365 20.2185 38.9895 20.2185Z" fill="black"/>
<path d="M38.9421 17.551C39.1891 17.551 39.3896 17.3505 39.3896 17.1035V13.633C39.3896 13.386 39.1891 13.1855 38.9421 13.1855H35.5676C35.3206 13.1855 35.1201 13.386 35.1201 13.633C35.1201 13.88 35.3206 14.0805 35.5676 14.0805H38.4946V17.1035C38.4946 17.3505 38.6951 17.551 38.9421 17.551Z" fill="black"/>
<path d="M28.582 20.1704C28.335 20.1704 28.1345 20.3709 28.1345 20.6179V24.0884C28.1345 24.3354 28.335 24.5359 28.582 24.5359H31.9565C32.2035 24.5359 32.404 24.3354 32.404 24.0884C32.404 23.8414 32.2035 23.6409 31.9565 23.6409H29.0295V20.6179C29.0295 20.3709 28.829 20.1704 28.582 20.1704Z" fill="black"/>
<path d="M38.9894 18.4351H37.3224V16.3991C37.3224 15.9191 36.9319 15.5286 36.4519 15.5286H31.2854C30.8054 15.5286 30.4149 15.9191 30.4149 16.3991V18.4351H28.5344C28.2874 18.4351 28.0869 18.6356 28.0869 18.8826C28.0869 19.1296 28.2874 19.3301 28.5344 19.3301H30.4149V21.3661C30.4149 21.8461 30.8054 22.2366 31.2854 22.2366H36.4519C36.9319 22.2366 37.3224 21.8461 37.3224 21.3661V19.3301H38.9894C39.2364 19.3301 39.4369 19.1296 39.4369 18.8826C39.4369 18.6356 39.2364 18.4351 38.9894 18.4351ZM31.3099 16.4236H36.4269V18.4351H31.3099V16.4236ZM36.4274 21.3421H31.3104V19.3306H36.4274V21.3421Z" fill="black"/>
<path d="M43.7569 9.52148C43.4964 9.52148 43.2854 9.73248 43.2854 9.99298C43.2854 10.2535 43.4964 10.4645 43.7569 10.4645C44.0174 10.4645 44.2284 10.2535 44.2284 9.99298C44.2284 9.73248 44.0174 9.52148 43.7569 9.52148Z" fill="black"/>
<path d="M10.213 42.6005C10.4735 42.6005 10.6845 42.3895 10.6845 42.129C10.6845 41.8685 10.4735 41.6575 10.213 41.6575C9.95245 41.6575 9.74146 41.8685 9.74146 42.129C9.74146 42.3895 9.95245 42.6005 10.213 42.6005Z" fill="black"/>
</svg>
