<svg width="48" height="48" viewBox="0 0 48 48" fill="none" xmlns="http://www.w3.org/2000/svg">
<g clip-path="url(#clip0_1096_3464)">
<path d="M17.7196 17.7406C17.9826 17.7406 18.1966 17.5266 18.1966 17.2636C18.1966 17.0006 17.9826 16.7866 17.7196 16.7866C17.4566 16.7866 17.2426 17.0006 17.2426 17.2636C17.2426 17.5266 17.4566 17.7406 17.7196 17.7406Z" fill="black"/>
<path d="M28.3665 31.9809C28.6295 31.9809 28.8435 31.7669 28.8435 31.5039C28.8435 31.2409 28.6295 31.0269 28.3665 31.0269C28.1035 31.0269 27.8895 31.2409 27.8895 31.5039C27.8895 31.7669 28.1035 31.9809 28.3665 31.9809Z" fill="black"/>
<path d="M23.6745 41.1143C23.4115 41.1143 23.1975 41.3283 23.1975 41.5913C23.1975 41.8543 23.4115 42.0683 23.6745 42.0683C23.9375 42.0683 24.1515 41.8543 24.1515 41.5913C24.1515 41.3283 23.9375 41.1143 23.6745 41.1143Z" fill="black"/>
<path d="M41.386 14.2395H28.071C28.5095 13.3635 28.757 12.376 28.757 11.3315V6.519C28.757 2.9245 25.8325 0 22.2385 0H6.61397C3.01947 0 0.0949707 2.9245 0.0949707 6.5185V11.331C0.0949707 13.021 0.744971 14.6255 1.92547 15.8495C2.95247 16.9145 4.28247 17.5895 5.72147 17.788L5.04447 23.0125C5.01447 23.242 5.12297 23.4675 5.32097 23.588C5.41447 23.645 5.51997 23.673 5.62497 23.673C5.74197 23.673 5.85897 23.638 5.95897 23.5685L14.193 17.8495H15.8805C16.204 17.8495 16.466 17.5875 16.466 17.264C16.466 16.9405 16.204 16.6785 15.8805 16.6785H14.0095C13.89 16.6785 13.7735 16.715 13.6755 16.783L6.37497 21.8535L6.96097 17.334C6.98197 17.171 6.93397 17.0065 6.82747 16.881C6.72147 16.7555 6.56747 16.68 6.40297 16.674C3.56997 16.563 1.26547 14.166 1.26547 11.3305V6.518C1.26547 3.569 3.66447 1.17 6.61347 1.17H22.238C25.187 1.17 27.586 3.569 27.586 6.518V11.3305C27.586 12.4895 27.214 13.5625 26.5855 14.4395C26.5605 14.468 26.5385 14.499 26.5195 14.532C25.543 15.834 23.9875 16.6785 22.2385 16.6785H21.8595C21.8355 16.677 21.811 16.677 21.787 16.6785H19.7775C19.454 16.6785 19.192 16.9405 19.192 17.264C19.192 17.5875 19.454 17.8495 19.7775 17.8495H20.782C20.33 18.748 20.0935 19.736 20.0935 20.7575V25.57C20.0935 25.6835 20.0965 25.796 20.102 25.9085H12.4415C8.84697 25.9085 5.92297 28.833 5.92297 32.427V35.6575C5.92297 37.3475 6.57297 38.952 7.75347 40.176C8.78047 41.241 10.1105 41.916 11.5495 42.1145L10.8725 47.339C10.8425 47.5685 10.951 47.794 11.149 47.9145C11.2425 47.9715 11.348 47.9995 11.453 47.9995C11.57 47.9995 11.687 47.9645 11.787 47.895L20.021 42.176H21.7195C22.043 42.176 22.305 41.914 22.305 41.5905C22.305 41.267 22.043 41.005 21.7195 41.005H19.838C19.7185 41.005 19.602 41.0415 19.504 41.1095L12.2035 46.18L12.7895 41.6605C12.8105 41.4975 12.7625 41.333 12.656 41.2075C12.55 41.082 12.396 41.0065 12.2315 41.0005C9.39847 40.8895 7.09397 38.4925 7.09397 35.657V32.4265C7.09397 29.4775 9.49297 27.0785 12.442 27.0785H20.2705C20.953 29.9475 23.5375 32.088 26.6125 32.088C26.936 32.088 27.198 31.826 27.198 31.5025C27.198 31.179 26.936 30.917 26.6125 30.917C23.9415 30.917 21.7215 28.949 21.327 26.3865C21.3265 26.3835 21.326 26.3805 21.3255 26.378C21.2855 26.114 21.2645 25.844 21.2645 25.569V20.7565C21.2645 19.7155 21.564 18.7165 22.132 17.8485H22.239C24.291 17.8485 26.124 16.895 27.32 15.4085H41.387C44.336 15.4085 46.735 17.8075 46.735 20.7565V25.569C46.735 28.2965 44.608 30.635 41.893 30.8925C41.735 30.9075 41.59 30.986 41.491 31.11C41.392 31.234 41.3475 31.393 41.368 31.5505L41.9565 36.092L34.656 31.0215C34.558 30.9535 34.4415 30.917 34.322 30.917H30.1215C29.798 30.917 29.536 31.179 29.536 31.5025C29.536 31.826 29.798 32.088 30.1215 32.088H30.967C30.974 32.2005 30.9785 32.3135 30.9785 32.4265V35.657C30.9785 38.606 28.5795 41.005 25.6305 41.005C25.307 41.005 25.045 41.267 25.045 41.5905C25.045 41.914 25.307 42.176 25.6305 42.176C29.225 42.176 32.149 39.2515 32.149 35.6575V32.427C32.149 32.3145 32.145 32.2015 32.139 32.0885H34.138L42.372 37.8075C42.472 37.877 42.589 37.912 42.706 37.912C42.811 37.912 42.9165 37.8835 43.01 37.827C43.208 37.7065 43.316 37.481 43.2865 37.2515L42.6025 31.974C43.975 31.7125 45.232 31.0125 46.1915 29.9645C47.2965 28.758 47.905 27.197 47.905 25.57V20.7575C47.905 17.163 44.9805 14.239 41.3865 14.239L41.386 14.2395Z" fill="black"/>
<path d="M29.099 23.0878C29.099 21.6768 27.951 20.5288 26.54 20.5288C25.129 20.5288 23.981 21.6768 23.981 23.0878C23.981 24.4988 25.129 25.6468 26.54 25.6468C27.951 25.6468 29.099 24.4988 29.099 23.0878ZM26.54 24.4758C25.7745 24.4758 25.152 23.8533 25.152 23.0878C25.152 22.3223 25.7745 21.6998 26.54 21.6998C27.3055 21.6998 27.928 22.3223 27.928 23.0878C27.928 23.8533 27.3055 24.4758 26.54 24.4758Z" fill="black"/>
<path d="M36.6135 23.0878C36.6135 21.6768 35.4655 20.5288 34.0545 20.5288C32.6435 20.5288 31.4955 21.6768 31.4955 23.0878C31.4955 24.4988 32.6435 25.6468 34.0545 25.6468C35.4655 25.6468 36.6135 24.4988 36.6135 23.0878ZM32.6665 23.0878C32.6665 22.3223 33.289 21.6998 34.0545 21.6998C34.82 21.6998 35.4425 22.3223 35.4425 23.0878C35.4425 23.8533 34.82 24.4758 34.0545 24.4758C33.289 24.4758 32.6665 23.8533 32.6665 23.0878Z" fill="black"/>
<path d="M44.128 23.0878C44.128 21.6768 42.98 20.5288 41.569 20.5288C40.158 20.5288 39.01 21.6768 39.01 23.0878C39.01 24.4988 40.158 25.6468 41.569 25.6468C42.98 25.6468 44.128 24.4988 44.128 23.0878ZM40.181 23.0878C40.181 22.3223 40.8035 21.6998 41.569 21.6998C42.3345 21.6998 42.957 22.3223 42.957 23.0878C42.957 23.8533 42.3345 24.4758 41.569 24.4758C40.8035 24.4758 40.181 23.8533 40.181 23.0878Z" fill="black"/>
<path d="M5.14898 5.33164H23.4325C23.756 5.33164 24.018 5.06964 24.018 4.74614C24.018 4.42264 23.756 4.16064 23.4325 4.16064H5.14898C4.82548 4.16064 4.56348 4.42264 4.56348 4.74614C4.56348 5.06964 4.82548 5.33164 5.14898 5.33164Z" fill="black"/>
<path d="M5.14898 9.63829H13.4115C13.735 9.63829 13.997 9.37628 13.997 9.05278C13.997 8.72928 13.735 8.46729 13.4115 8.46729H5.14898C4.82548 8.46729 4.56348 8.72928 4.56348 9.05278C4.56348 9.37628 4.82548 9.63829 5.14898 9.63829Z" fill="black"/>
<path d="M5.14898 13.7701H20.18C20.5035 13.7701 20.7655 13.5081 20.7655 13.1846C20.7655 12.8611 20.5035 12.5991 20.18 12.5991H5.14898C4.82548 12.5991 4.56348 12.8611 4.56348 13.1846C4.56348 13.5081 4.82548 13.7701 5.14898 13.7701Z" fill="black"/>
</g>
<defs>
<clipPath id="clip0_1096_3464">
<rect width="48" height="48" fill="white"/>
</clipPath>
</defs>
</svg>
