<svg width="48" height="48" viewBox="0 0 48 48" fill="none" xmlns="http://www.w3.org/2000/svg">
<g clip-path="url(#clip0_1097_3516)">
<path d="M17.87 44.1201C17.63 44.1201 17.44 44.3101 17.44 44.5501V47.1301H9.71003V39.9301C9.71003 39.8301 9.67003 39.7301 9.61003 39.6501L2.65003 31.5601V18.7301C2.97003 18.1901 3.57003 17.8601 4.20003 17.9001C4.85003 17.9401 5.41003 18.3401 5.67003 18.9301V24.7401C5.67003 24.8601 5.72003 24.9701 5.81003 25.0501C6.31003 25.5201 6.78003 25.9601 7.26003 26.4101C6.88003 26.5201 6.46003 26.7301 6.12003 27.1401C5.55003 27.8201 5.42003 28.8001 5.79003 29.6201C5.81003 29.6701 5.84003 29.7101 5.88003 29.7501L10.62 34.4601C10.7 34.5401 10.81 34.5901 10.92 34.5901C11.03 34.5901 11.14 34.5501 11.23 34.4601C11.4 34.2901 11.4 34.0201 11.23 33.8501L6.55003 29.2001C6.35003 28.6901 6.44003 28.1101 6.79003 27.6901C7.21003 27.1801 7.83003 27.1501 8.08003 27.1601C10.02 28.9501 11.82 30.5201 13.51 31.9201L13.61 32.0001C14.93 33.0801 16.73 34.5701 17.28 37.0001C17.43 37.6601 17.44 38.1701 17.44 38.6301V40.5001C17.44 40.7401 17.63 40.9301 17.87 40.9301C18.11 40.9301 18.3 40.7401 18.3 40.5001V38.6301C18.3 38.1401 18.29 37.5601 18.12 36.8101C17.5 34.0901 15.49 32.4401 14.15 31.3401L14.05 31.2601C11.77 29.3801 9.31003 27.1901 6.54003 24.5601V18.8501C6.54003 18.8001 6.54003 18.7501 6.51003 18.7001C6.15003 17.7501 5.27003 17.1001 4.25003 17.0401C3.25003 16.9801 2.30003 17.5301 1.83003 18.4201C1.80003 18.4801 1.78003 18.5501 1.78003 18.6201V31.7301C1.78003 31.8301 1.82003 31.9301 1.88003 32.0101L8.84003 40.1001V47.5701C8.84003 47.8101 9.03003 48.0001 9.27003 48.0001H17.86C17.97 48.0001 18.08 47.9601 18.17 47.8801C18.25 47.8001 18.3 47.6901 18.3 47.5701V44.5601C18.3 44.3201 18.11 44.1301 17.87 44.1301V44.1201Z" fill="black"/>
<path d="M45.6501 25.1401C45.4101 25.1401 45.2201 25.3301 45.2201 25.5701V31.5601L38.26 39.6501C38.19 39.7301 38.16 39.8301 38.16 39.9301V47.1301H30.43V38.6301C30.43 38.1701 30.44 37.6601 30.59 37.0001C31.14 34.5701 32.95 33.0901 34.26 32.0001L34.3601 31.9201C36.0501 30.5301 37.85 28.9501 39.7901 27.1601C40.0401 27.1501 40.6501 27.1701 41.0801 27.6901C41.4201 28.1101 41.5101 28.6901 41.3101 29.2001L36.6301 33.8501C36.4601 34.0201 36.4601 34.2901 36.6301 34.4601C36.7101 34.5501 36.83 34.5901 36.94 34.5901C37.05 34.5901 37.1601 34.5501 37.2401 34.4601L41.98 29.7501C41.98 29.7501 42.05 29.6701 42.07 29.6201C42.44 28.8001 42.3101 27.8201 41.7401 27.1401C41.4001 26.7301 40.98 26.5201 40.6 26.4101C41.08 25.9701 41.55 25.5301 42.05 25.0501C42.14 24.9701 42.19 24.8601 42.19 24.7401V18.9301C42.44 18.3401 43.01 17.9401 43.66 17.9001C44.31 17.8601 44.89 18.1901 45.21 18.7301V20.7801C45.21 21.0201 45.4 21.2101 45.64 21.2101C45.88 21.2101 46.07 21.0201 46.07 20.7801V18.6201C46.07 18.5501 46.0501 18.4801 46.0201 18.4201C45.5601 17.5301 44.6 16.9801 43.6 17.0401C42.59 17.1001 41.7 17.7501 41.34 18.7001C41.32 18.7501 41.3101 18.8001 41.3101 18.8501V24.5601C38.5301 27.2001 36.07 29.3901 33.8 31.2601L33.7001 31.3401C32.3701 32.4401 30.35 34.1001 29.73 36.8101C29.56 37.5501 29.55 38.1401 29.55 38.6301V47.5701C29.55 47.6901 29.6 47.7901 29.68 47.8801C29.76 47.9601 29.87 48.0101 29.99 48.0101H38.5801C38.8201 48.0101 39.01 47.8101 39.01 47.5801V40.1101L45.9701 32.0201C46.0401 31.9401 46.07 31.8401 46.07 31.7401V25.5901C46.07 25.3501 45.88 25.1601 45.64 25.1601L45.6501 25.1401Z" fill="black"/>
<path d="M18.26 42.13C18.03 41.9 17.68 41.9 17.46 42.13C17.25 42.36 17.23 42.71 17.46 42.93C17.69 43.14 18.04 43.16 18.26 42.93C18.48 42.72 18.49 42.38 18.28 42.16L18.26 42.14V42.13Z" fill="black"/>
<path d="M46.04 22.7199C45.81 22.4899 45.46 22.4899 45.24 22.7199C45.03 22.9499 45.01 23.2999 45.24 23.5199C45.47 23.7399 45.82 23.7499 46.04 23.5199C46.26 23.3099 46.27 22.9699 46.06 22.7499L46.04 22.7299V22.7199Z" fill="black"/>
<path d="M22.1899 14.65C21.9599 14.42 21.6099 14.42 21.3899 14.65C21.1799 14.88 21.1599 15.23 21.3899 15.45C21.6199 15.66 21.9699 15.68 22.1899 15.45C22.4099 15.24 22.4199 14.9 22.2099 14.68L22.1899 14.66V14.65Z" fill="black"/>
<path d="M29.65 29.8401C29.73 29.9201 29.84 29.9701 29.96 29.9701C30.07 29.9701 30.18 29.9201 30.27 29.8401L35.03 25.0801C35.19 24.9201 35.2 24.6501 35.03 24.4801C32.82 22.1201 30.73 19.8401 28.81 17.7201C29.81 16.2401 30.44 14.9501 30.77 13.4501C31.28 11.1401 31.35 7.42014 28.78 2.79014C28.78 2.79014 28.78 2.79014 28.77 2.78014C28.33 1.96014 27.68 1.24014 26.9 0.770138C24.96 -0.419862 22.36 -0.0798623 20.78 0.870138C20.78 0.870138 20.78 0.870138 20.77 0.870138C16.85 3.25014 16.01 11.5201 19.03 17.4401C16.66 19.9701 12.65 24.2001 12.65 24.2001C12.49 24.3701 12.49 24.6301 12.65 24.8001L17.53 29.9101C17.62 30.0001 17.73 30.0401 17.84 30.0401C17.95 30.0401 18.05 30.0001 18.14 29.9201C20.21 27.9601 22.18 25.8801 24.02 23.7501C24.54 24.3301 25.09 24.9501 25.73 25.6501C27.01 27.0701 28.32 28.4801 29.64 29.8501L29.65 29.8401ZM34.12 24.7701L29.96 28.9301C28.75 27.6701 27.54 26.3701 26.35 25.0401C25.71 24.3301 25.13 23.6801 24.59 23.0801C24.83 22.7901 25.08 22.5101 25.3 22.2401C26.53 20.7501 27.52 19.5401 28.31 18.4501C30.11 20.4501 32.06 22.5601 34.12 24.7701ZM23.93 12.1601C22.68 10.6901 21.72 9.51014 21.1 8.68014C20.91 8.42014 20.55 7.91014 20.28 7.25014C21.14 6.82014 22.37 6.36014 23.92 6.32014C25.59 6.27014 26.96 6.73014 27.9 7.18014C27.2 8.46014 25.91 10.0001 23.94 12.1601H23.93ZM26.46 1.50014C27.45 2.11014 28.21 3.19014 28.45 4.32014C28.59 5.00014 28.53 5.67014 28.25 6.40014C27.21 5.90014 25.7 5.38014 23.88 5.46014C22.26 5.50014 20.95 5.96014 20.01 6.41014C19.98 6.26014 19.93 6.12014 19.91 5.95014C19.75 4.55014 20.23 3.03014 21.3 1.57014C22.63 0.800138 24.86 0.510138 26.46 1.50014ZM17.86 28.9901L13.56 24.4901C14.54 23.4501 17.84 19.9601 19.83 17.8501C19.86 17.8201 19.89 17.8001 19.91 17.7601C20.27 17.3701 20.59 17.0301 20.84 16.7701C21 16.6001 20.99 16.3201 20.82 16.1601C20.64 16.0001 20.37 16.0101 20.21 16.1801C20.06 16.3401 19.87 16.5401 19.67 16.7601C17.71 12.6601 17.63 7.36014 19.17 4.08014C19.02 4.75014 18.98 5.41014 19.05 6.06014C19.24 7.65014 20.05 8.74014 20.4 9.20014C21.04 10.0601 22.04 11.2801 23.34 12.8101C23.17 13.0001 23 13.1801 22.81 13.3801C22.65 13.5601 22.66 13.8301 22.83 13.9901C23 14.1501 23.28 14.1401 23.44 13.9701C26.16 11.0301 27.99 9.00014 28.83 7.22014C28.83 7.22014 28.83 7.21014 28.83 7.20014C29.03 6.77014 29.17 6.35014 29.26 5.94014C30.4 9.06014 30.29 11.5901 29.92 13.2801C29.34 15.8901 27.79 17.8501 24.61 21.7101C24.32 22.0701 24 22.4401 23.67 22.8301C21.85 24.9601 19.89 27.0401 17.84 29.0101L17.86 28.9901Z" fill="black"/>
</g>
<defs>
<clipPath id="clip0_1097_3516">
<rect width="48" height="48" fill="white"/>
</clipPath>
</defs>
</svg>
