<svg width="48" height="48" viewBox="0 0 48 48" fill="none" xmlns="http://www.w3.org/2000/svg">
<g clip-path="url(#clip0_1096_3390)">
<path d="M15.7821 9.93428C15.7911 9.93428 15.8001 9.93428 15.8091 9.93328C16.0586 9.91878 16.2491 9.70428 16.2346 9.45478C16.1806 8.53028 16.3286 7.68328 16.6751 6.93728C17.6706 4.79328 20.3351 3.24728 22.8731 3.34328C25.4471 3.43978 27.1391 5.03778 27.7471 5.72028C27.7476 5.72078 27.7481 5.72128 27.7491 5.72228C27.7541 5.72778 27.7601 5.73328 27.7651 5.73878C27.7706 5.74428 27.7761 5.75028 27.7821 5.75578C27.7826 5.75628 27.7831 5.75678 27.7836 5.75728C27.7871 5.76078 27.7911 5.76328 27.7951 5.76628C27.8026 5.77278 27.8101 5.77878 27.8176 5.78478C27.8221 5.78828 27.8271 5.79128 27.8316 5.79428C27.8391 5.79928 27.8471 5.80478 27.8551 5.80928C27.8606 5.81278 27.8666 5.81528 27.8726 5.81878C27.8796 5.82278 27.8871 5.82628 27.8941 5.82978C27.9011 5.83278 27.9081 5.83578 27.9146 5.83828C27.9211 5.84078 27.9276 5.84378 27.9341 5.84628C27.9416 5.84878 27.9496 5.85128 27.9571 5.85328C27.9631 5.85528 27.9696 5.85728 27.9756 5.85878C27.9836 5.86078 27.9916 5.86228 27.9996 5.86378C28.0061 5.86478 28.0121 5.86628 28.0186 5.86728C28.0266 5.86828 28.0341 5.86878 28.0421 5.86978C28.0486 5.87028 28.0556 5.87128 28.0621 5.87128C28.0696 5.87128 28.0766 5.87128 28.0841 5.87128C28.0916 5.87128 28.0986 5.87128 28.1061 5.87128C28.1126 5.87128 28.1196 5.87028 28.1261 5.86978C28.1341 5.86928 28.1416 5.86828 28.1496 5.86728C28.1561 5.86628 28.1621 5.86478 28.1686 5.86378C28.1766 5.86228 28.1846 5.86078 28.1926 5.85878C28.1986 5.85728 28.2051 5.85528 28.2111 5.85328C28.2191 5.85078 28.2266 5.84878 28.2341 5.84628C28.2406 5.84378 28.2471 5.84128 28.2536 5.83878C28.2606 5.83578 28.2676 5.83328 28.2746 5.83028C28.2816 5.82678 28.2891 5.82278 28.2961 5.81928C28.3021 5.81628 28.3081 5.81328 28.3136 5.80978C28.3216 5.80528 28.3291 5.79978 28.3366 5.79478C28.3416 5.79178 28.3461 5.78878 28.3511 5.78528C28.3591 5.77978 28.3666 5.77328 28.3741 5.76678C28.3776 5.76378 28.3816 5.76078 28.3856 5.75778C28.3861 5.75728 28.3866 5.75678 28.3871 5.75628C28.3931 5.75078 28.3986 5.74478 28.4046 5.73878C28.4101 5.73328 28.4156 5.72828 28.4206 5.72278C28.4211 5.72228 28.4221 5.72178 28.4226 5.72078C29.0306 5.03828 30.7226 3.44028 33.2966 3.34378C35.8346 3.24828 38.4991 4.79378 39.4946 6.93778C40.4596 9.01628 39.8836 11.7788 37.7826 15.1493C36.0666 17.9018 33.8131 20.2543 32.9646 21.1398C31.4966 22.6723 29.8556 24.0503 28.0846 25.2393C26.3136 24.0503 24.6726 22.6723 23.2046 21.1398C22.2456 20.1388 19.6976 17.4793 17.9476 14.4148C17.8236 14.1978 17.5471 14.1223 17.3301 14.2463C17.1131 14.3703 17.0376 14.6468 17.1616 14.8638C18.9671 18.0248 21.5706 20.7428 22.5511 21.7663C24.1221 23.4058 25.8846 24.8743 27.7896 26.1313C27.8666 26.1818 27.9531 26.2063 28.0386 26.2063C28.0541 26.2063 28.0696 26.2053 28.0851 26.2033C28.1006 26.2048 28.1161 26.2063 28.1316 26.2063C28.2171 26.2063 28.3036 26.1823 28.3806 26.1313C30.2856 24.8748 32.0481 23.4058 33.6191 21.7663C34.4851 20.8623 36.7861 18.4603 38.5516 15.6283C40.8246 11.9823 41.4186 8.92978 40.3166 6.55678C39.7691 5.37728 38.7696 4.31178 37.5026 3.55628C36.2046 2.78228 34.6991 2.38678 33.2636 2.43928C30.7301 2.53428 28.9586 3.90078 28.0856 4.76328C27.2126 3.90028 25.4411 2.53428 22.9076 2.43928C21.4716 2.38628 19.9661 2.78228 18.6686 3.55628C17.4016 4.31178 16.4026 5.37728 15.8546 6.55678C15.4446 7.43978 15.2686 8.43328 15.3316 9.50878C15.3456 9.74928 15.5451 9.93478 15.7831 9.93478L15.7821 9.93428Z" fill="black"/>
<path d="M16.3755 11.8477C16.107 11.8477 15.889 12.0657 15.889 12.3342C15.889 12.6027 16.107 12.8207 16.3755 12.8207C16.644 12.8207 16.862 12.6027 16.862 12.3342C16.862 12.0657 16.644 11.8477 16.3755 11.8477Z" fill="black"/>
<path d="M0.4865 29.6097C0.755 29.6097 0.973 29.3917 0.973 29.1232C0.973 28.8547 0.755 28.6367 0.4865 28.6367C0.218 28.6367 0 28.8547 0 29.1232C0 29.3917 0.218 29.6097 0.4865 29.6097Z" fill="black"/>
<path d="M5.85447 28.1731C5.85447 27.6486 5.42897 27.2231 4.90447 27.2231C4.37997 27.2231 3.95447 27.6486 3.95447 28.1731C3.95447 28.6976 4.37997 29.1231 4.90447 29.1231C5.42897 29.1231 5.85447 28.6976 5.85447 28.1731Z" fill="black"/>
<path d="M47.7259 32.4059C47.1435 31.1369 45.7324 30.4054 44.2949 30.6274C44.2659 30.6319 44.2374 30.6394 44.2094 30.6494L33.4075 34.5669C33.8434 33.8929 34.4294 32.6894 34.0154 31.5464C33.5864 30.3624 32.4504 29.5419 31.1894 29.5049C31.1849 29.5049 31.1805 29.5049 31.1759 29.5049H24.4494L17.9329 26.0264C17.8914 26.0039 17.8464 25.9884 17.7999 25.9804L16.0564 25.6674C16.0279 25.6624 15.9989 25.6599 15.9694 25.6604L9.20945 25.7659V24.2384C9.20945 23.7529 8.81445 23.3579 8.32895 23.3579H0.913947C0.428447 23.3579 0.0334473 23.7529 0.0334473 24.2384V26.9399C0.0334473 27.1899 0.235947 27.3924 0.485947 27.3924C0.735947 27.3924 0.938447 27.1899 0.938447 26.9399V24.2634H8.30345V41.4189H0.938947V31.2019C0.938947 30.9519 0.736447 30.7494 0.486447 30.7494C0.236447 30.7494 0.0339473 30.9519 0.0339473 31.2019V41.4439C0.0339473 41.9294 0.428947 42.3244 0.914447 42.3244H8.32945C8.81495 42.3244 9.20995 41.9294 9.20995 41.4439V39.9324C9.76845 39.9604 10.3124 40.0579 10.8324 40.2239C11.6539 40.4864 12.2139 40.8549 12.4529 41.0124L12.4649 41.0204C13.0899 41.4314 16.3404 43.5339 18.9414 44.5509C19.7004 44.8479 21.4784 45.5424 23.7064 45.5654C23.7449 45.5654 23.7829 45.5659 23.8209 45.5659C26.5634 45.5659 28.6329 44.5544 29.6344 44.0649L29.6769 44.0444C33.2329 42.3069 38.7464 39.8729 45.7259 36.7909L46.291 36.5414C46.3055 36.5349 46.32 36.5279 46.334 36.5199C47.7894 35.6829 48.4014 33.8764 47.7269 32.4069L47.7259 32.4059ZM45.9019 35.7224L45.36 35.9619C38.3709 39.0479 32.8509 41.4854 29.2789 43.2304L29.2364 43.2514C28.2964 43.7109 26.3539 44.6604 23.8194 44.6604C23.7849 44.6604 23.7499 44.6604 23.7154 44.6599C21.6534 44.6389 20.0444 44.0099 19.2709 43.7074C16.7004 42.7029 13.3369 40.5104 12.9619 40.2639L12.9499 40.2559C12.6799 40.0784 12.0469 39.6619 11.1074 39.3614C10.4984 39.1669 9.86195 39.0539 9.20945 39.0249V26.6714L15.9399 26.5664L17.5684 26.8589L24.1234 30.3574C24.1889 30.3924 24.2624 30.4109 24.3364 30.4109H31.1694C32.0604 30.4399 32.8619 31.0199 33.1649 31.8559C33.5124 32.8144 32.721 33.9949 32.47 34.3339L32.4664 34.3384C32.2119 34.6824 31.8984 34.9804 31.5339 35.2264L21.1209 35.1329H21.1169C20.8689 35.1329 20.6664 35.3329 20.6644 35.5814C20.6619 35.8314 20.8629 36.0359 21.1129 36.0379L31.6409 36.1324H31.6644C31.6644 36.1324 31.6659 36.1324 31.6664 36.1324C31.667 36.1324 31.6679 36.1324 31.6689 36.1324C31.6719 36.1324 31.6744 36.1319 31.6774 36.1319C31.6909 36.1319 31.7049 36.1304 31.7184 36.1289C31.7254 36.1279 31.7324 36.1274 31.7394 36.1264C31.7554 36.1239 31.7714 36.1204 31.7874 36.1164C31.7924 36.1149 31.7969 36.1134 31.8019 36.1119C31.8089 36.1099 31.816 36.1079 31.823 36.1054L44.4759 31.5164C45.5009 31.3759 46.4949 31.8929 46.9039 32.7839C47.3825 33.8259 46.9424 35.1119 45.9024 35.7229L45.9019 35.7224Z" fill="black"/>
</g>
<defs>
<clipPath id="clip0_1096_3390">
<rect width="48" height="48" fill="white"/>
</clipPath>
</defs>
</svg>
