<svg width="16" height="16" viewBox="0 0 16 16" fill="none" xmlns="http://www.w3.org/2000/svg">
<path d="M9.99586 8L15.5824 13.5865C15.8475 13.8512 15.9967 14.2103 15.997 14.585C15.9973 14.9596 15.8488 15.319 15.5841 15.5841C15.3195 15.8493 14.9603 15.9984 14.5857 15.9988C14.2111 15.9991 13.8517 15.8506 13.5865 15.5859L8 9.99939L2.41348 15.5859C2.14834 15.851 1.78874 16 1.41378 16C1.03882 16 0.679222 15.851 0.414087 15.5859C0.148952 15.3208 0 14.9612 0 14.5862C0 14.2113 0.148952 13.8517 0.414087 13.5865L6.00061 8L0.414087 2.41348C0.148952 2.14834 0 1.78874 0 1.41378C0 1.03882 0.148952 0.679222 0.414087 0.414087C0.679222 0.148952 1.03882 0 1.41378 0C1.78874 0 2.14834 0.148952 2.41348 0.414087L8 6.00061L13.5865 0.414087C13.8517 0.148952 14.2113 0 14.5862 0C14.9612 0 15.3208 0.148952 15.5859 0.414087C15.851 0.679222 16 1.03882 16 1.41378C16 1.78874 15.851 2.14834 15.5859 2.41348L9.99586 8Z" fill="#17AF95"/>
</svg>
