<svg width="14" height="15" viewBox="0 0 14 15" fill="none" xmlns="http://www.w3.org/2000/svg">
<path d="M6.99932 3.29883C7.18497 3.29883 7.36302 3.37258 7.49429 3.50385C7.62557 3.63513 7.69932 3.81318 7.69932 3.99883V8.19883C7.69932 8.38448 7.62557 8.56253 7.49429 8.6938C7.36302 8.82508 7.18497 8.89883 6.99932 8.89883C6.81366 8.89883 6.63562 8.82508 6.50434 8.6938C6.37307 8.56253 6.29932 8.38448 6.29932 8.19883V3.99883C6.29932 3.81318 6.37307 3.63513 6.50434 3.50385C6.63562 3.37258 6.81366 3.29883 6.99932 3.29883ZM6.99932 10.2988C6.81366 10.2988 6.63562 10.3726 6.50434 10.5039C6.37307 10.6351 6.29932 10.8132 6.29932 10.9988C6.29932 11.1845 6.37307 11.3625 6.50434 11.4938C6.63562 11.6251 6.81366 11.6988 6.99932 11.6988C7.18497 11.6988 7.36302 11.6251 7.49429 11.4938C7.62557 11.3625 7.69932 11.1845 7.69932 10.9988C7.69932 10.8132 7.62557 10.6351 7.49429 10.5039C7.36302 10.3726 7.18497 10.2988 6.99932 10.2988Z" fill="#FF0501"/>
<path fill-rule="evenodd" clip-rule="evenodd" d="M7 0.5C3.1339 0.5 0 3.6339 0 7.5C0 11.3661 3.1339 14.5 7 14.5C10.8661 14.5 14 11.3661 14 7.5C14 3.6339 10.8661 0.5 7 0.5ZM1.4 7.5C1.4 8.98521 1.99 10.4096 3.0402 11.4598C4.09041 12.51 5.51479 13.1 7 13.1C8.48521 13.1 9.90959 12.51 10.9598 11.4598C12.01 10.4096 12.6 8.98521 12.6 7.5C12.6 6.01479 12.01 4.59041 10.9598 3.5402C9.90959 2.49 8.48521 1.9 7 1.9C5.51479 1.9 4.09041 2.49 3.0402 3.5402C1.99 4.59041 1.4 6.01479 1.4 7.5Z" fill="#FF0501"/>
</svg>
