<svg width="320" height="150" viewBox="0 0 320 150" fill="none" xmlns="http://www.w3.org/2000/svg">
<path opacity="0.09" d="M286.6 144.282C253.317 145.481 225.198 141.427 203.435 132.432C223.269 119.183 243.443 95.6265 243.443 54.6804C243.443 38.0621 238.108 23.9566 228.036 13.9342C219.013 4.96835 206.954 0 194.1 0C182.127 0 169.699 4.59715 160.449 14.2483C151.199 4.59715 138.771 0 126.797 0C102.282 0 77.4548 18.7884 77.4548 54.6519C77.4548 95.5123 97.6004 119.155 117.235 132.489C95.4723 141.427 67.3821 145.453 34.1278 144.254H-276V149.793H34.1278C69.879 151.078 99.8987 146.367 122.882 136.087C128.188 139.228 133.295 141.627 137.806 143.425C149.355 148.108 170.039 148.108 182.041 143.425C186.78 141.598 192.143 139.142 197.732 135.916C218.275 145.196 244.521 149.993 275.449 149.993C279.109 149.993 282.826 149.907 286.6 149.793H596.727V144.254H286.6V144.282ZM160.591 23.1C166.464 31.5804 169.528 42.5451 169.528 55.2801C169.528 70.4992 166.492 83.9766 160.477 95.4837C154.462 83.948 151.426 70.4992 151.426 55.2801C151.426 44.0013 154.405 32.2943 160.619 23.1H160.591ZM82.9594 54.6804C82.9594 30.267 98.026 5.53943 126.797 5.53943C138.033 5.53943 148.447 9.85104 156.136 17.7033C156.391 17.9603 156.618 18.2173 156.874 18.4743C150.206 27.3545 145.893 39.5184 145.893 55.2801C145.893 72.7835 149.695 88.1169 157.214 101.052C154.263 105.649 150.773 109.903 146.773 113.787C140.247 120.126 132.359 125.494 123.165 129.891C102.254 116.928 82.9594 94.2559 82.9594 54.6804ZM180.084 138.314C169.529 142.426 149.979 142.426 139.878 138.314C136.274 136.858 132.586 135.173 128.897 133.203C137.21 128.863 144.474 123.723 150.603 117.784C154.32 114.186 157.611 110.303 160.477 106.163C163.343 110.303 166.634 114.186 170.351 117.784C176.395 123.638 183.517 128.72 191.689 133.003C187.574 135.202 183.63 136.944 180.084 138.314ZM197.392 129.72C188.369 125.351 180.594 120.04 174.153 113.787C170.153 109.903 166.663 105.649 163.712 101.052C171.231 88.0883 175.033 72.7835 175.033 55.2801C175.033 39.5755 170.749 27.4116 164.109 18.5599C171.061 10.7362 180.992 5.56798 194.129 5.56798C222.928 5.56798 237.967 30.2955 237.967 54.709C237.967 95.1982 216.97 117.641 197.392 129.748V129.72Z" fill="white"/>
</svg>
