<?xml version="1.0" encoding="UTF-8"?><svg id="Capa_1" xmlns="http://www.w3.org/2000/svg" xmlns:xlink="http://www.w3.org/1999/xlink" viewBox="0 0 86 48"><defs><clipPath id="clippath"><rect x="40.37" y="18.53" width=".05" height=".03" fill="none" stroke-width="0"/></clipPath><clipPath id="clippath-1"><rect x="40.37" y="18.53" width=".05" height=".03" fill="none" stroke-width="0"/></clipPath><clipPath id="clippath-2"><rect x="39.79" y="20.07" width=".05" height=".03" fill="none" stroke-width="0"/></clipPath><clipPath id="clippath-3"><rect x="39.79" y="20.07" width=".05" height=".03" fill="none" stroke-width="0"/></clipPath><clipPath id="clippath-4"><rect x="42.88" y="18.53" width=".05" height=".03" fill="none" stroke-width="0"/></clipPath><clipPath id="clippath-5"><rect x="42.88" y="18.53" width=".05" height=".03" fill="none" stroke-width="0"/></clipPath><clipPath id="clippath-6"><rect x="42.31" y="20.07" width=".05" height=".03" fill="none" stroke-width="0"/></clipPath><clipPath id="clippath-7"><rect x="42.31" y="20.07" width=".05" height=".03" fill="none" stroke-width="0"/></clipPath></defs><g opacity=".37"><g clip-path="url(#clippath)"><g clip-path="url(#clippath-1)"><path d="M40.42,18.53s-.02.02-.03.03c0-.01-.02-.02-.03-.03,0,0,.02,0,.03,0,0,0,.02,0,.03,0" fill="#17b4e9" stroke-width="0"/></g></g></g><g opacity=".37"><g clip-path="url(#clippath-2)"><g clip-path="url(#clippath-3)"><path d="M39.84,20.07s-.02.02-.03.03c0-.01-.02-.02-.03-.03,0,0,.02,0,.03,0,0,0,.02,0,.03,0" fill="#17b6eb" stroke-width="0"/></g></g></g><rect width="86" height="48" rx="9" ry="9" fill="#fff" stroke-width="0"/><g opacity=".37"><g clip-path="url(#clippath-4)"><g clip-path="url(#clippath-5)"><path d="M42.94,18.53s-.02.02-.03.03c0-.01-.02-.02-.03-.03,0,0,.02,0,.03,0,0,0,.02,0,.03,0" fill="#17b4e9" stroke-width="0"/></g></g></g><g opacity=".37"><g clip-path="url(#clippath-6)"><g clip-path="url(#clippath-7)"><path d="M42.36,20.07s-.02.02-.03.03c0-.01-.02-.02-.03-.03,0,0,.02,0,.03,0,0,0,.02,0,.03,0" fill="#17b6eb" stroke-width="0"/></g></g></g><rect x="15.92" y="28.73" width="13.96" height="1.74" fill="#149395" stroke-width="0"/><rect x="15.92" y="32.22" width="13.96" height="1.74" fill="#149395" stroke-width="0"/><path d="M21.24,14.16h3.33l5.31,12.57h-3.71l-.91-2.23h-4.81l-.89,2.23h-3.64l5.31-12.57ZM24.27,21.81l-1.39-3.55-1.41,3.55h2.8Z" fill="#149395" stroke-width="0"/><path d="M35.67,14.16h3.33l5.31,12.57h-3.71l-.91-2.23h-4.81l-.89,2.23h-3.63l5.31-12.57ZM38.7,21.81l-1.39-3.55-1.41,3.55h2.8Z" fill="#149395" stroke-width="0"/><path d="M43.76,20.52v-.04c0-3.58,2.89-6.49,6.74-6.49s6.7,2.87,6.7,6.45v.04c0,3.58-2.89,6.49-6.74,6.49s-6.7-2.87-6.7-6.45M53.67,20.52v-.04c0-1.8-1.3-3.37-3.21-3.37s-3.15,1.53-3.15,3.33v.04c0,1.8,1.3,3.37,3.19,3.37s3.17-1.53,3.17-3.33" fill="#149395" stroke-width="0"/><path d="M58.13,20.52v-.04c0-3.63,2.8-6.49,6.58-6.49,2.55,0,4.19,1.07,5.29,2.6l-2.6,2.01c-.71-.89-1.53-1.46-2.73-1.46-1.75,0-2.98,1.48-2.98,3.3v.04c0,1.87,1.23,3.33,2.98,3.33,1.3,0,2.07-.61,2.82-1.51l2.6,1.85c-1.17,1.62-2.76,2.82-5.52,2.82-3.57,0-6.44-2.73-6.44-6.45" fill="#149395" stroke-width="0"/><path d="M32.12,28.74h.34l.92,2.11h-.39l-.21-.51h-.99l-.22.51h-.38l.92-2.11ZM32.65,30.02l-.36-.84-.36.84h.72Z" fill="#149395" stroke-width="0"/><path d="M33.54,30.55l.22-.26c.2.17.4.27.66.27.23,0,.37-.11.37-.26h0c0-.16-.08-.24-.47-.33-.45-.11-.7-.24-.7-.63h0c0-.36.3-.61.72-.61.31,0,.55.09.76.26l-.2.28c-.19-.14-.38-.22-.57-.22-.22,0-.34.11-.34.25h0c0,.17.1.24.5.34.44.11.67.27.67.61h0c0,.4-.31.63-.75.63-.32,0-.62-.11-.88-.34" fill="#149395" stroke-width="0"/><path d="M35.45,29.81h0c0-.6.46-1.09,1.1-1.09s1.09.49,1.09,1.08h0c0,.6-.46,1.09-1.1,1.09s-1.09-.49-1.09-1.08M37.26,29.81h0c0-.41-.3-.75-.71-.75s-.71.33-.71.74h0c0,.42.3.75.71.75s.71-.33.71-.74" fill="#149395" stroke-width="0"/><path d="M37.93,29.81h0c0-.6.45-1.09,1.08-1.09.39,0,.62.13.82.32l-.24.27c-.17-.16-.35-.26-.59-.26-.4,0-.69.33-.69.74h0c0,.42.29.75.69.75.26,0,.42-.1.6-.27l.24.24c-.22.23-.46.37-.85.37-.61,0-1.07-.48-1.07-1.08" fill="#149395" stroke-width="0"/><rect x="40.2" y="28.76" width=".37" height="2.1" fill="#149395" stroke-width="0"/><path d="M41.81,28.74h.34l.92,2.11h-.39l-.21-.51h-.99l-.22.51h-.38l.92-2.11ZM42.34,30.02l-.36-.84-.36.84h.72Z" fill="#149395" stroke-width="0"/><path d="M43.28,29.81h0c0-.6.45-1.09,1.08-1.09.39,0,.62.13.82.32l-.24.27c-.17-.16-.35-.26-.59-.26-.4,0-.69.33-.69.74h0c0,.42.29.75.69.75.26,0,.42-.1.6-.27l.24.24c-.22.23-.46.37-.85.37-.61,0-1.07-.48-1.07-1.08" fill="#149395" stroke-width="0"/><rect x="45.55" y="28.76" width=".37" height="2.1" fill="#149395" stroke-width="0"/><path d="M46.32,29.81h0c0-.6.46-1.09,1.1-1.09s1.09.49,1.09,1.08h0c0,.6-.46,1.09-1.1,1.09s-1.09-.49-1.09-1.08M48.13,29.81h0c0-.41-.3-.75-.71-.75s-.71.33-.71.74h0c0,.41.3.75.71.75s.71-.33.71-.74M47.61,28.09l.33.15-.37.34h-.28l.32-.49Z" fill="#149395" stroke-width="0"/><polygon points="48.9 28.76 49.24 28.76 50.36 30.21 50.36 28.76 50.73 28.76 50.73 30.85 50.42 30.85 49.26 29.36 49.26 30.85 48.9 30.85 48.9 28.76" fill="#149395" stroke-width="0"/><path d="M52.79,28.74h.34l.92,2.11h-.39l-.21-.51h-.99l-.22.51h-.38l.92-2.11ZM53.31,30.02l-.36-.84-.36.84h.72Z" fill="#149395" stroke-width="0"/><path d="M54.35,28.76h.93c.26,0,.47.08.6.21.11.11.17.27.17.45h0c0,.35-.21.56-.5.64l.57.79h-.44l-.51-.73h-.46v.73h-.37v-2.1ZM55.26,29.79c.26,0,.43-.14.43-.35h0c0-.23-.16-.35-.43-.35h-.54v.7h.54Z" fill="#149395" stroke-width="0"/><path d="M56.36,29.81h0c0-.59.45-1.09,1.08-1.09.36,0,.59.1.8.28l-.23.28c-.16-.14-.32-.22-.59-.22-.39,0-.68.34-.68.74h0c0,.44.28.76.71.76.2,0,.38-.06.5-.16v-.39h-.54v-.32h.89v.88c-.21.18-.5.33-.88.33-.66,0-1.09-.47-1.09-1.08" fill="#149395" stroke-width="0"/><polygon points="58.74 28.76 60.3 28.76 60.3 29.09 59.11 29.09 59.11 29.63 60.16 29.63 60.16 29.96 59.11 29.96 59.11 30.52 60.31 30.52 60.31 30.85 58.74 30.85 58.74 28.76" fill="#149395" stroke-width="0"/><polygon points="60.69 28.76 61.03 28.76 62.15 30.21 62.15 28.76 62.52 28.76 62.52 30.85 62.21 30.85 61.05 29.36 61.05 30.85 60.69 30.85 60.69 28.76" fill="#149395" stroke-width="0"/><polygon points="63.51 29.1 62.84 29.1 62.84 28.76 64.55 28.76 64.55 29.1 63.88 29.1 63.88 30.85 63.51 30.85 63.51 29.1" fill="#149395" stroke-width="0"/><rect x="64.9" y="28.76" width=".37" height="2.1" fill="#149395" stroke-width="0"/><polygon points="65.77 28.76 66.11 28.76 67.23 30.21 67.23 28.76 67.59 28.76 67.59 30.85 67.29 30.85 66.13 29.36 66.13 30.85 65.77 30.85 65.77 28.76" fill="#149395" stroke-width="0"/><path d="M68.82,28.74h.34l.92,2.11h-.39l-.21-.51h-.99l-.22.51h-.38l.92-2.11ZM69.34,30.02l-.36-.84-.36.84h.72Z" fill="#149395" stroke-width="0"/><path d="M31.38,31.87h.78c.66,0,1.11.45,1.11,1.04h0c0,.6-.45,1.06-1.11,1.06h-.78v-2.1ZM32.16,33.63c.44,0,.73-.3.73-.71h0c0-.42-.29-.72-.73-.72h-.41v1.42h.41Z" fill="#149395" stroke-width="0"/><polygon points="33.73 31.87 35.29 31.87 35.29 32.2 34.1 32.2 34.1 32.74 35.15 32.74 35.15 33.07 34.1 33.07 34.1 33.63 35.3 33.63 35.3 33.96 33.73 33.96 33.73 31.87" fill="#149395" stroke-width="0"/><path d="M36.59,32.92h0c0-.6.46-1.09,1.1-1.09s1.09.49,1.09,1.08h0c0,.6-.46,1.09-1.1,1.09s-1.09-.49-1.09-1.08M38.4,32.92h0c0-.41-.3-.75-.71-.75s-.71.33-.71.74h0c0,.41.3.75.71.75s.71-.33.71-.74" fill="#149395" stroke-width="0"/><polygon points="39.24 31.87 39.58 31.87 40.71 33.32 40.71 31.87 41.07 31.87 41.07 33.96 40.76 33.96 39.61 32.47 39.61 33.96 39.24 33.96 39.24 31.87" fill="#149395" stroke-width="0"/><path d="M41.53,32.92h0c0-.6.44-1.09,1.08-1.09.39,0,.62.14.82.33l-.24.27c-.17-.16-.35-.26-.59-.26-.4,0-.69.33-.69.74h0c0,.42.29.75.69.75.26,0,.42-.11.6-.27l.24.24c-.22.23-.46.37-.85.37-.61,0-1.07-.48-1.07-1.08" fill="#149395" stroke-width="0"/><path d="M43.75,32.92h0c0-.6.46-1.09,1.1-1.09s1.09.49,1.09,1.08h0c0,.6-.46,1.09-1.1,1.09s-1.09-.49-1.09-1.08M45.56,32.92h0c0-.41-.3-.75-.71-.75s-.71.33-.71.74h0c0,.41.29.75.71.75s.71-.33.71-.74" fill="#149395" stroke-width="0"/><polygon points="46.4 31.87 46.77 31.87 46.77 33.63 47.87 33.63 47.87 33.96 46.4 33.96 46.4 31.87" fill="#149395" stroke-width="0"/><path d="M48.17,32.92h0c0-.6.45-1.09,1.1-1.09s1.09.49,1.09,1.08h0c0,.6-.45,1.09-1.1,1.09s-1.09-.49-1.09-1.08M49.98,32.92h0c0-.41-.3-.75-.71-.75s-.71.33-.71.74h0c0,.41.3.75.71.75s.71-.33.71-.74" fill="#149395" stroke-width="0"/><path d="M50.73,32.92h0c0-.59.45-1.09,1.08-1.09.36,0,.59.1.81.28l-.23.28c-.16-.14-.32-.22-.59-.22-.38,0-.68.34-.68.74h0c0,.44.28.76.71.76.2,0,.38-.06.51-.16v-.39h-.54v-.32h.89v.88c-.21.18-.51.33-.88.33-.66,0-1.09-.47-1.09-1.08" fill="#149395" stroke-width="0"/><path d="M53.2,31.87h.37v2.1h-.37v-2.1ZM53.56,31.2l.33.15-.37.34h-.28l.32-.49Z" fill="#149395" stroke-width="0"/><path d="M54.89,31.85h.34l.92,2.11h-.39l-.21-.51h-.99l-.21.51h-.38l.92-2.11ZM55.42,33.13l-.36-.84-.36.84h.72Z" fill="#149395" stroke-width="0"/><path d="M57.36,32.92h0c0-.6.45-1.09,1.08-1.09.39,0,.62.14.82.33l-.24.27c-.17-.16-.35-.26-.59-.26-.4,0-.69.33-.69.74h0c0,.42.29.75.69.75.26,0,.42-.11.6-.27l.24.24c-.22.23-.46.37-.85.37-.61,0-1.07-.48-1.07-1.08" fill="#149395" stroke-width="0"/><polygon points="59.68 31.87 60.05 31.87 60.05 33.63 61.15 33.63 61.15 33.96 59.68 33.96 59.68 31.87" fill="#149395" stroke-width="0"/><path d="M61.57,31.87h.37v2.1h-.37v-2.1ZM61.92,31.2l.33.15-.36.34h-.28l.32-.49Z" fill="#149395" stroke-width="0"/><polygon points="62.51 31.87 62.85 31.87 63.97 33.32 63.97 31.87 64.33 31.87 64.33 33.96 64.03 33.96 62.87 32.47 62.87 33.96 62.51 33.96 62.51 31.87" fill="#149395" stroke-width="0"/><rect x="64.91" y="31.87" width=".37" height="2.1" fill="#149395" stroke-width="0"/><path d="M65.75,32.92h0c0-.6.45-1.09,1.08-1.09.39,0,.62.14.82.33l-.24.27c-.17-.16-.35-.26-.59-.26-.4,0-.69.33-.69.74h0c0,.42.29.75.69.75.26,0,.42-.11.6-.27l.24.24c-.22.23-.46.37-.85.37-.61,0-1.07-.48-1.07-1.08" fill="#149395" stroke-width="0"/><path d="M68.82,31.85h.34l.92,2.11h-.39l-.21-.51h-.99l-.22.51h-.38l.92-2.11ZM69.34,33.13l-.36-.84-.36.84h.72Z" fill="#149395" stroke-width="0"/></svg>