<?xml version="1.0" encoding="UTF-8"?><svg id="Capa_1" xmlns="http://www.w3.org/2000/svg" xmlns:xlink="http://www.w3.org/1999/xlink" viewBox="0 0 86 48"><defs><clipPath id="clippath"><rect x="42.88" y="18.53" width=".05" height=".03" fill="none" stroke-width="0"/></clipPath><clipPath id="clippath-1"><rect x="42.88" y="18.53" width=".05" height=".03" fill="none" stroke-width="0"/></clipPath><clipPath id="clippath-2"><rect x="42.31" y="20.07" width=".05" height=".03" fill="none" stroke-width="0"/></clipPath><clipPath id="clippath-3"><rect x="42.31" y="20.07" width=".05" height=".03" fill="none" stroke-width="0"/></clipPath></defs><rect x="0" width="86" height="48" rx="9" ry="9" fill="#fff" stroke-width="0"/><g opacity=".37"><g clip-path="url(#clippath)"><g clip-path="url(#clippath-1)"><path d="M42.94,18.53s-.02.02-.03.03c0-.01-.02-.02-.03-.03,0,0,.02,0,.03,0,0,0,.02,0,.03,0" fill="#17b4e9" stroke-width="0"/></g></g></g><g opacity=".37"><g clip-path="url(#clippath-2)"><g clip-path="url(#clippath-3)"><path d="M42.36,20.07s-.02.02-.03.03c0-.01-.02-.02-.03-.03,0,0,.02,0,.03,0,0,0,.02,0,.03,0" fill="#17b6eb" stroke-width="0"/></g></g></g><path d="M19.21,20.65l-.38-.04c.54-.09,2.09-.43,2.66-1.31.19-.3.28-.67.28-1.01,0-1.84-2.22-2.29-3.88-2.29h-5.45v.08h.08c1.33,0,1.42.38,1.42,1.46v6.79c0,1.08-.09,1.46-1.42,1.46h-.08v.08h5.97c1.69,0,2.86-.11,3.65-1.23.25-.35.39-.79.39-1.25,0-.3-.05-.6-.18-.91-.58-1.41-2.06-1.72-3.06-1.83ZM16.82,16.08h.28c.84,0,1.62.06,1.71.96.05.4.09.96.09,1.51,0,1.94-.39,2.03-1.44,2.03h-.64v-4.49ZM19.04,24.89c-.19.74-.42.89-1.33.89-.77,0-.89-.1-.89-1.15v-3.98h.43c.5,0,1.17.04,1.47.38.35.39.47,1.35.47,2.23,0,.68-.06,1.31-.14,1.62Z" fill="#149395" stroke-width="0"/><path d="M27.68,25.81c-1.16,0-1.45-.96-1.45-2.56v-.77h3.78c0-.54-.01-.97-.18-1.42-.37-.94-1.08-1.9-2.72-1.9-.74,0-1.57.24-2.2.84-.88.86-1.22,1.81-1.22,2.72,0,1.25.7,3.21,3.52,3.21.54,0,1.07-.09,1.42-.3,1.04-.63,1.31-1.88,1.38-2.53h-.09c-.14,1.27-.91,2.71-2.25,2.71ZM26.23,22.03c0-1.93.14-2.79.86-2.79.13,0,.23.01.28.06.37.31.38.82.38,1.49,0,.47-.01,1.12-.04,1.61h-1.47v-.36Z" fill="#149395" stroke-width="0"/><path d="M35.42,25.78v.08h4.14v-.08c-.98,0-1.07-.3-1.07-1.23v-3.08c0-.81-.1-1.41-.72-1.9-.34-.26-.78-.4-1.31-.4-.91,0-1.65.39-1.96,1.2v-1.12h-3.6v.09c.98,0,1.07.3,1.07,1.23v3.99c0,.93-.09,1.23-1.07,1.23v.08h4.15v-.08c-.52,0-.55-.43-.55-1.23v-2.93c0-1.02.08-1.22.21-1.5.2-.4.58-.44.65-.44.37,0,.6.24.6,1.51v3.36c0,.81-.04,1.23-.55,1.23Z" fill="#149395" stroke-width="0"/><path d="M43.21,16.83h-.08c-.09.92-.67,1.41-1.07,1.69-.57.39-1.22.68-2.05.72v.09h.65v4.58c0,1.4.28,2.01,1.78,2.01s1.64-.83,1.74-1.33c.08-.38.13-.78.13-1.17h-.09c0,.6-.1,1.25-.21,1.52-.19.47-.4.5-.5.5-.24,0-.29-.1-.29-1.18v-4.93h1.15v-.09h-1.15v-2.4Z" fill="#149395" stroke-width="0"/><path d="M49.07,25.81c-1.16,0-1.45-.96-1.45-2.56v-.77h3.78c0-.54-.01-.97-.18-1.42-.37-.94-1.08-1.9-2.72-1.9-.74,0-1.57.24-2.2.84-.88.86-1.22,1.81-1.22,2.72,0,1.25.7,3.21,3.52,3.21.54,0,1.07-.09,1.42-.3,1.04-.63,1.31-1.88,1.38-2.53h-.09c-.14,1.27-.91,2.71-2.25,2.71ZM47.62,22.03c0-1.93.14-2.79.86-2.79.13,0,.23.01.28.06.37.31.38.82.38,1.49,0,.47-.01,1.12-.04,1.61h-1.47v-.36Z" fill="#149395" stroke-width="0"/><path d="M59.91,19.32h.01v-.09h-2.86v.09h.05c.35,0,.63.11.74.24.24.26.31.6.31.96,0,.47-.14.94-.25,1.31l-.72,2.38-1.2-3.59c-.14-.42-.25-.73-.25-.93,0-.29.3-.35.67-.37v-.09h-4.39v.09c.67,0,.65.09,1.01,1.04l2.01,5.49h1.76l1.28-4.32c.24-.82.57-2.22,1.81-2.22Z" fill="#149395" stroke-width="0"/><path d="M65.47,23.1h-.09c-.14,1.27-.91,2.71-2.25,2.71-1.16,0-1.45-.96-1.45-2.56v-.77h3.78c0-.54-.01-.97-.18-1.42-.36-.94-1.08-1.9-2.72-1.9-.74,0-1.57.24-2.2.84-.88.86-1.22,1.81-1.22,2.72,0,1.25.7,3.21,3.52,3.21.54,0,1.07-.09,1.42-.3,1.04-.63,1.31-1.88,1.38-2.53ZM61.68,22.03c0-1.93.14-2.79.86-2.79.13,0,.23.01.28.06.37.31.38.82.38,1.49,0,.47-.01,1.12-.04,1.61h-1.47v-.36Z" fill="#149395" stroke-width="0"/><path d="M70.1,19.16c-1.88,0-3.46,1.51-3.46,3.39s1.59,3.39,3.46,3.39,3.46-1.51,3.46-3.39-1.59-3.39-3.46-3.39ZM70.93,24.4c0,1.04-.31,1.45-.83,1.45s-.82-.4-.82-1.45v-3.7c0-1.04.31-1.45.82-1.45s.83.4.83,1.45v3.7Z" fill="#149395" stroke-width="0"/><path d="M14.54,30.71c.06-.06.12-.1.19-.13.07-.03.15-.05.23-.05.08,0,.16.02.24.05.07.03.13.07.19.13l.15-.15c-.07-.07-.16-.13-.26-.18-.1-.04-.21-.06-.32-.06s-.22.02-.31.06c-.1.04-.19.1-.26.18-.07.07-.13.16-.17.26-.04.1-.06.21-.06.32s.02.22.06.32c.02.05.05.09.07.14.03.04.06.08.1.12.04.04.08.07.12.1.04.03.09.05.14.07.1.04.21.06.31.06s.22-.02.32-.06c.1-.04.19-.1.26-.17l-.15-.15c-.05.05-.11.09-.19.13-.07.03-.15.05-.24.05s-.16-.02-.23-.05c-.07-.04-.14-.08-.19-.13-.05-.06-.1-.12-.13-.19-.03-.07-.05-.15-.05-.24s.02-.16.05-.23c.04-.08.08-.14.13-.19Z" fill="#149395" stroke-width="0"/><path d="M21.56,30.55c-.07-.07-.16-.13-.26-.17-.1-.04-.21-.06-.32-.06s-.22.02-.32.06c-.1.04-.18.1-.26.17-.08.08-.14.16-.18.26-.04.1-.07.2-.07.32s.02.22.07.32c.04.1.1.19.18.26.07.07.16.13.26.17.1.04.21.06.32.06s.22-.02.32-.06c.1-.04.19-.1.26-.17.07-.07.13-.16.18-.26.04-.1.06-.2.06-.32s-.02-.22-.06-.32c-.04-.1-.1-.19-.18-.26ZM21.54,31.37c-.03.08-.07.14-.13.19-.05.05-.11.1-.19.13-.07.03-.15.05-.24.05s-.16-.02-.23-.05c-.07-.03-.13-.07-.19-.13-.06-.06-.1-.12-.13-.19-.03-.07-.05-.15-.05-.23s.02-.16.05-.23c.02-.04.03-.07.06-.1.02-.03.05-.06.07-.09.03-.03.06-.05.09-.07.03-.02.06-.04.1-.06.07-.03.15-.05.23-.05s.16.02.24.05c.07.03.13.07.19.13.06.06.1.12.13.19.03.07.05.15.05.23s-.02.16-.05.23Z" fill="#149395" stroke-width="0"/><path d="M26.75,31.53c-.06,0-.11.02-.15.07-.04.04-.06.1-.06.16s.02.11.06.16c.04.04.09.06.15.06s.11-.02.16-.06c.04-.04.06-.1.06-.16s-.02-.11-.06-.16c-.04-.04-.1-.07-.16-.07Z" fill="#149395" stroke-width="0"/><polygon points="33.54 31.57 33.29 31.15 33.75 30.37 33.5 30.37 33.16 30.93 32.82 30.37 32.57 30.37 33.04 31.15 32.79 31.57 32.08 30.37 31.82 30.37 32.79 32 33.16 31.36 33.54 32 34.5 30.37 34.24 30.37 33.54 31.57" fill="#149395" stroke-width="0"/><path d="M40.56,30.55c-.07-.07-.16-.13-.26-.17-.1-.04-.21-.06-.32-.06s-.22.02-.32.06c-.1.04-.18.1-.26.17-.08.08-.14.16-.18.26-.04.1-.07.2-.07.32s.02.22.07.32c.04.1.1.19.18.26.07.07.16.13.26.17.1.04.21.06.32.06s.22-.02.32-.06c.1-.04.19-.1.26-.17.07-.07.13-.16.18-.26.04-.1.06-.2.06-.32s-.02-.22-.06-.32c-.04-.1-.1-.19-.18-.26ZM40.54,31.37c-.03.08-.07.14-.13.19-.05.05-.11.1-.19.13-.07.03-.15.05-.24.05s-.16-.02-.23-.05c-.07-.03-.13-.07-.19-.13-.06-.06-.1-.12-.13-.19-.03-.07-.05-.15-.05-.23s.02-.16.05-.23c.02-.04.03-.07.06-.1s.05-.06.07-.09c.03-.03.06-.05.09-.07.03-.02.06-.04.1-.06.07-.03.15-.05.23-.05s.16.02.24.05c.07.03.13.07.19.13.06.06.1.12.13.19.03.07.05.15.05.23s-.02.16-.05.23Z" fill="#149395" stroke-width="0"/><path d="M46.82,31.4s.03-.01.04-.02c.02,0,.04-.02.06-.03s.04-.02.06-.03c.04-.03.08-.06.11-.1.07-.08.11-.18.11-.31s-.04-.24-.11-.32c-.05-.06-.11-.1-.17-.13-.06-.03-.12-.05-.17-.07-.05-.02-.09-.02-.13-.03-.02,0-.03,0-.04,0h-1.06v1.54h.21v-.46h.78l.43.46h.31l-.47-.49s.03,0,.04-.01ZM46.71,31.2s-.02,0-.03,0c-.01,0-.02,0-.03,0,0,0-.02,0-.02,0s-.01,0-.02,0h-.87v-.64h.83s.04,0,.09,0c.03,0,.05,0,.08.02.03,0,.05.02.08.03.05.02.09.06.13.1.03.04.05.1.05.17,0,.04,0,.08-.02.1-.01.03-.03.05-.04.07-.03.03-.06.05-.1.07-.02.01-.04.02-.06.03-.02,0-.04.01-.06.02Z" fill="#149395" stroke-width="0"/><polygon points="53.04 30.37 52.05 31.16 52.05 30.37 51.84 30.37 51.84 31.9 52.05 31.9 52.05 31.45 52.42 31.15 52.97 31.9 53.24 31.9 52.59 31.01 53.38 30.37 53.04 30.37" fill="#149395" stroke-width="0"/><polygon points="58.05 31.9 58.37 31.9 59.32 31.9 59.32 31.69 58.26 31.69 58.26 31.25 59.32 31.25 59.32 31.03 58.26 31.03 58.26 30.58 59.32 30.58 59.32 30.37 58.05 30.37 58.05 31.9" fill="#149395" stroke-width="0"/><path d="M65.37,31.4s.03-.01.04-.02c.02,0,.04-.02.06-.03.02-.01.04-.02.06-.03.04-.03.08-.06.11-.1.07-.08.11-.18.11-.31s-.04-.24-.11-.32c-.05-.06-.11-.1-.17-.13-.06-.03-.12-.05-.17-.07-.05-.02-.09-.02-.13-.03-.02,0-.03,0-.04,0h-1.06v1.54h.21v-.46h.78l.43.46h.31l-.47-.49s.03,0,.04-.01ZM65.26,31.2s-.02,0-.03,0c-.01,0-.02,0-.03,0,0,0-.02,0-.02,0s-.01,0-.02,0h-.87v-.64h.83s.04,0,.09,0c.03,0,.05,0,.08.02.03,0,.05.02.08.03.05.02.09.06.13.1.03.04.05.1.05.17,0,.04,0,.08-.02.1-.01.03-.03.05-.04.07-.03.03-.06.05-.1.07-.02.01-.04.02-.06.03-.02,0-.04.01-.06.02Z" fill="#149395" stroke-width="0"/><path d="M71.87,31.16s-.07-.04-.11-.06c-.04-.02-.09-.03-.14-.04-.1-.02-.24-.04-.41-.04-.16,0-.28-.01-.36-.03-.08-.02-.14-.05-.18-.07-.03-.03-.05-.05-.06-.06,0-.02,0-.03,0-.03h0s0-.02,0-.02h0c0-.06.02-.1.07-.14.04-.03.08-.05.14-.07.06-.02.11-.04.17-.05.02,0,.03,0,.04,0,.01,0,.03,0,.04,0,.01,0,.02,0,.04,0,.01,0,.02,0,.03,0h.05c.16,0,.29.02.37.05.08.03.14.07.18.1.03.03.05.06.06.09v.03s0,0,0,0h.04s.18-.02.18-.02c0,0,0-.04-.03-.09-.02-.05-.06-.11-.12-.16-.06-.06-.14-.11-.25-.15-.11-.04-.26-.06-.44-.06,0,0-.04,0-.12,0-.07,0-.16.02-.25.05-.02,0-.05.02-.07.03-.02,0-.05.02-.07.03-.05.02-.09.05-.13.08-.04.03-.08.07-.1.12-.03.05-.04.1-.05.16v.05s0,.08.03.13c.02.05.07.1.13.14.06.04.15.08.25.1.11.03.25.04.41.04.08,0,.15,0,.21,0,.06,0,.11.01.16.02.09.02.14.04.18.07.02.01.03.02.04.03,0,.01.01.02.02.03,0,0,0,.02,0,.02v.02h0v.02s0,0,0,.02c0,0,0,.02-.01.03,0,.03-.03.05-.07.08-.04.03-.1.07-.18.1-.08.03-.19.04-.35.04h-.03s-.03,0-.06,0c-.02,0-.05,0-.09,0-.07,0-.14-.03-.2-.05-.08-.03-.13-.05-.16-.08-.03-.04-.05-.07-.05-.11h-.22c0,.06.01.12.04.17.03.05.07.09.11.12.07.05.14.09.2.11.04.01.07.02.11.03.03,0,.07.02.1.02.03,0,.06.01.09.01.03,0,.05,0,.08,0,.02,0,.04,0,.05,0h.03c.18,0,.33-.02.44-.06.11-.04.2-.09.25-.15.03-.03.05-.05.07-.08.02-.03.03-.05.04-.07,0-.02.02-.04.02-.06,0-.01,0-.03.01-.04v-.02s0-.02,0-.03c0-.03-.01-.08-.03-.13-.02-.05-.07-.1-.13-.15Z" fill="#149395" stroke-width="0"/></svg>