<?xml version="1.0" encoding="UTF-8"?><svg id="Capa_1" xmlns="http://www.w3.org/2000/svg" xmlns:xlink="http://www.w3.org/1999/xlink" viewBox="0 0 86 48"><defs><clipPath id="clippath"><rect x="42.88" y="18.53" width=".05" height=".03" fill="none" stroke-width="0"/></clipPath><clipPath id="clippath-1"><rect x="42.88" y="18.53" width=".05" height=".03" fill="none" stroke-width="0"/></clipPath><clipPath id="clippath-2"><rect x="42.31" y="20.07" width=".05" height=".03" fill="none" stroke-width="0"/></clipPath><clipPath id="clippath-3"><rect x="42.31" y="20.07" width=".05" height=".03" fill="none" stroke-width="0"/></clipPath></defs><rect width="86" height="48" rx="9" ry="9" fill="#fff" stroke-width="0"/><g opacity=".37"><g clip-path="url(#clippath)"><g clip-path="url(#clippath-1)"><path d="M42.94,18.53s-.02.02-.03.03c0-.01-.02-.02-.03-.03,0,0,.02,0,.03,0,0,0,.02,0,.03,0" fill="#17b4e9" stroke-width="0"/></g></g></g><g opacity=".37"><g clip-path="url(#clippath-2)"><g clip-path="url(#clippath-3)"><path d="M42.36,20.07s-.02.02-.03.03c0-.01-.02-.02-.03-.03,0,0,.02,0,.03,0,0,0,.02,0,.03,0" fill="#17b6eb" stroke-width="0"/></g></g></g><path d="M43.85,12c.15.32.3.64.45.96.85,1.77,1.7,3.55,2.56,5.32.52,1.09,1.05,2.19,1.58,3.28.01.03.03.06.04.1-.04,0-.07,0-.1,0-.69,0-1.38,0-2.07,0-.07,0-.11-.02-.14-.09-.35-.75-.7-1.5-1.04-2.25-.03-.07-.07-.09-.14-.09-1.31,0-2.63,0-3.94,0-.08,0-.12.03-.15.1-.33.75-.67,1.49-1,2.23-.03.07-.06.1-.14.1-.66,0-1.33,0-1.99,0h-.1c.04-.08.07-.16.1-.23,1.19-2.57,2.38-5.15,3.57-7.72.14-.3.28-.6.41-.9.02-.04.02-.1,0-.14-.1-.23-.2-.45-.3-.68h2.41ZM43.02,14.37c-.49,1.15-.97,2.29-1.46,3.44h2.87c-.47-1.15-.93-2.28-1.41-3.44Z" fill="#149395" fill-rule="evenodd" stroke-width="0"/><path d="M55.63,12v1.49h-3.66v2.54h2.48v1.48h-2.48v4.15h-2.11v-.12c0-2.89,0-5.78,0-8.67,0-.07-.02-.15-.05-.21-.09-.22-.19-.43-.29-.65h6.1Z" fill="#149395" fill-rule="evenodd" stroke-width="0"/><path d="M36.32,12s0,.08,0,.13v9.53h-2.11v-.13c0-2.9,0-5.79,0-8.69,0-.07-.02-.14-.04-.21-.09-.21-.19-.43-.29-.64h2.45Z" fill="#149395" fill-rule="evenodd" stroke-width="0"/><path d="M30.29,23.39s.08-.05.14-.04c.6.14,1.19.3,1.79.42.74.15,1.49.3,2.24.42.71.12,1.43.22,2.14.31.41.05.81.09,1.22.12.68.05,1.36.1,2.03.14.38.02.76.03,1.14.04.47,0,.94.02,1.41.01.65-.01,1.31-.03,1.96-.06.54-.03,1.08-.07,1.63-.11.52-.05,1.04-.1,1.56-.17.67-.09,1.33-.17,2-.28.55-.09,1.09-.2,1.63-.31,1.23-.24,2.44-.56,3.65-.9.24-.07.48-.15.72-.22.14-.04.16-.03.16.11,0,.34,0,.68,0,1.02,0,.08-.02.12-.1.14-.88.2-1.75.4-2.63.59-.43.09-.86.17-1.29.24-.37.06-.75.12-1.13.17-.38.05-.77.1-1.15.15-.32.04-.65.08-.97.1-.56.05-1.13.1-1.69.13-.43.03-.85.04-1.28.05-.39.01-.77.03-1.16.03-.57,0-1.13,0-1.7-.02-.56-.02-1.12-.04-1.68-.08-.49-.03-.97-.07-1.46-.12-.64-.07-1.27-.14-1.91-.23-.51-.07-1.02-.14-1.53-.24-.72-.13-1.45-.27-2.17-.42-1.17-.24-2.32-.56-3.47-.9-.04-.01-.07-.04-.11-.06v-.04Z" fill="#149395" fill-rule="evenodd" stroke-width="0"/><path d="M43.53,34.25v1.72h-.3v-1.16s-.02,0-.02,0c-.02.02-.03.04-.05.06-.12.19-.24.37-.36.56-.06.1-.17.1-.23,0-.13-.19-.26-.38-.4-.57-.01-.02-.03-.04-.06-.07v1.18h-.3v-1.71c.08,0,.16,0,.23,0,.03,0,.06.03.08.06.18.25.35.51.53.76,0,.01.02.02.04.05.04-.06.07-.12.1-.17.13-.2.26-.4.39-.61.05-.08.1-.11.19-.1.05,0,.1,0,.16,0Z" fill="#149395" fill-rule="evenodd" stroke-width="0"/><path d="M44.12,31.79v1.25h-.3v-1.73c.09,0,.18,0,.27,0,.03,0,.06.05.08.07.28.36.55.73.83,1.09,0,0,.01.02.02.03,0,0,.01,0,.02-.01v-1.18h.3v1.72c-.08,0-.15,0-.23,0-.03,0-.07-.04-.09-.07-.28-.36-.55-.73-.83-1.09-.02-.02-.04-.04-.08-.09Z" fill="#149395" fill-rule="evenodd" stroke-width="0"/><path d="M38.73,29.58v-1.19h.3v1.73c-.08,0-.17,0-.25,0-.03,0-.05-.03-.07-.06-.28-.36-.55-.73-.83-1.09-.02-.03-.04-.05-.08-.1v1.25h-.3v-1.73c.09,0,.18,0,.27,0,.03,0,.06.04.08.06.28.37.56.74.84,1.11,0,.01.01.02.02.03,0,0,.02-.01.03-.02Z" fill="#149395" fill-rule="evenodd" stroke-width="0"/><path d="M46.35,34.25v1.72c-.09,0-.17,0-.26,0-.03,0-.05-.03-.07-.06-.27-.36-.55-.72-.82-1.08-.02-.03-.04-.05-.09-.07v1.21h-.29s0-.06,0-.1c0-.5,0-1,0-1.51,0-.09.03-.11.12-.11.14-.01.22.04.31.15.24.34.5.67.75,1,.01.01.03.03.06.06,0-.05,0-.09,0-.12,0-.33,0-.66,0-.99,0-.07.02-.11.1-.1.07,0,.14,0,.21,0Z" fill="#149395" fill-rule="evenodd" stroke-width="0"/><path d="M45.85,33.04v-1.71s.04,0,.07,0c.26.01.53,0,.79.04.44.08.66.46.62.91-.04.42-.36.74-.83.76-.21.01-.42,0-.63,0ZM46.16,31.57v1.21c.28.01.57.03.74-.25.14-.23.15-.48,0-.71-.17-.27-.45-.25-.73-.25Z" fill="#149395" fill-rule="evenodd" stroke-width="0"/><path d="M49.55,29.26c0,.53-.35.88-.87.89-.52,0-.87-.36-.87-.88s.35-.88.87-.88c.52,0,.87.35.87.88ZM48.13,29.25c0,.07.01.14.03.2.05.25.25.43.49.43.28,0,.48-.14.54-.4.03-.12.03-.24.02-.37-.03-.37-.39-.59-.74-.45-.21.08-.34.3-.35.59Z" fill="#149395" fill-rule="evenodd" stroke-width="0"/><path d="M49.39,32.38v.66h-.3v-1.74c.24.01.48,0,.71.04.21.03.35.19.37.37.03.25-.05.4-.27.51-.02,0-.03.02-.04.02.16.26.32.52.48.8-.12,0-.22,0-.32,0-.03,0-.06-.04-.07-.06-.1-.16-.19-.33-.29-.5-.06-.11-.15-.15-.28-.11ZM49.39,32.12c.16,0,.32.03.42-.13.07-.1.07-.21,0-.3-.1-.15-.26-.13-.42-.12v.55Z" fill="#149395" fill-rule="evenodd" stroke-width="0"/><path d="M45.75,28.39h.31v1.04c0,.48-.23.71-.71.71-.11,0-.22-.01-.32-.04-.25-.07-.39-.25-.4-.5-.01-.4,0-.8,0-1.21h.29v.1c0,.31,0,.61,0,.92,0,.07,0,.14.03.21.05.19.23.29.45.26.21-.03.34-.18.34-.41,0-.33,0-.65,0-.98v-.11Z" fill="#149395" fill-rule="evenodd" stroke-width="0"/><path d="M47.96,35.14h.3v.73c-.31.13-.63.18-.97.08-.32-.09-.53-.38-.55-.73-.03-.43.18-.78.55-.92.28-.1.56-.09.84,0,.02,0,.05.05.05.07,0,.07,0,.14,0,.21-.12-.03-.23-.07-.35-.09-.31-.06-.61.07-.72.33-.14.31-.05.74.26.87.17.07.34.07.51.02.03,0,.06-.06.06-.09,0-.16,0-.31,0-.48Z" fill="#149395" fill-rule="evenodd" stroke-width="0"/><path d="M43.52,33.04s-.02,0-.02,0q-.3.01-.4-.26t-.27-.19c-.11,0-.22,0-.33,0-.07,0-.1.02-.13.09-.03.1-.07.2-.11.29-.02.05-.04.07-.1.07-.08,0-.16,0-.25,0,.07-.2.15-.38.22-.56.14-.36.28-.73.42-1.09.03-.07.07-.09.14-.09.07,0,.14-.02.18.08.21.53.42,1.05.63,1.58,0,.02.02.05.03.08ZM42.49,32.36h.44c-.07-.21-.14-.4-.22-.62-.08.22-.15.42-.22.62Z" fill="#149395" fill-rule="evenodd" stroke-width="0"/><path d="M37.4,33.04s-.01,0-.01,0q-.3.02-.41-.26t-.26-.18c-.12,0-.24,0-.35,0-.06,0-.09.02-.11.07-.04.13-.09.25-.14.37h-.31s.02-.07.03-.1c.2-.52.4-1.03.6-1.55.03-.08.08-.09.15-.09.07,0,.14-.02.18.09.2.52.41,1.03.62,1.55.01.03.02.07.03.1ZM36.81,32.36c-.07-.21-.14-.4-.21-.6,0,0-.02,0-.02,0-.07.2-.14.39-.22.6h.45Z" fill="#149395" fill-rule="evenodd" stroke-width="0"/><path d="M40.92,32.4c-.13.19-.26.36-.38.54-.05.08-.11.12-.21.11-.06,0-.12,0-.2,0,.03-.04.05-.08.07-.11.17-.23.33-.47.5-.7.04-.05.04-.09,0-.15-.17-.25-.34-.51-.52-.78.12,0,.23,0,.33,0,.02,0,.04.04.06.07.12.18.24.36.36.55.04-.05.07-.09.1-.14.1-.14.2-.27.29-.42.04-.05.07-.08.14-.07.08,0,.15,0,.25,0-.02.04-.04.07-.06.09-.16.22-.31.45-.48.67-.05.06-.05.11,0,.18.16.23.31.47.47.71.01.02.03.05.05.09-.11,0-.2,0-.29,0-.03,0-.06-.03-.08-.06-.11-.16-.22-.33-.33-.49-.02-.03-.04-.06-.07-.09Z" fill="#149395" fill-rule="evenodd" stroke-width="0"/><path d="M40.74,35.22v.49h.63v.25h-.94v-1.71h.94c-.03.08-.05.16-.08.25h-.55v.47h.4c.15,0,.15,0,.15.15,0,.03,0,.06,0,.1h-.54Z" fill="#149395" fill-rule="evenodd" stroke-width="0"/><path d="M39.77,32.04v.26c-.14,0-.29,0-.43,0-.13,0-.13,0-.13.13v.36h.65v.26h-.94v-1.72h.92s0,.02,0,.03q-.06.22-.28.22c-.1,0-.19,0-.28,0-.02,0-.06.03-.06.05,0,.14,0,.27,0,.42h.56Z" fill="#149395" fill-rule="evenodd" stroke-width="0"/><path d="M48.66,32.78v.26h-.93v-1.72h.92s0,.02,0,.03q-.06.22-.3.22c-.09,0-.18,0-.26,0-.02,0-.07.04-.07.07,0,.11,0,.22,0,.33,0,.06.03.07.08.07.16,0,.31,0,.47,0v.26c-.13,0-.25,0-.38,0-.19,0-.17-.02-.17.17,0,.1,0,.2,0,.31h.64Z" fill="#149395" fill-rule="evenodd" stroke-width="0"/><path d="M39.54,29.77c.14.09.28.13.44.12.2-.02.3-.16.22-.3-.04-.06-.1-.11-.16-.15-.1-.06-.21-.11-.31-.17-.22-.13-.3-.31-.24-.53.05-.2.23-.34.47-.35.14,0,.27.02.41.04.07,0,.1.05.09.12,0,.06,0,.12,0,.16-.15-.03-.29-.06-.43-.07-.1,0-.18.03-.22.13-.03.08,0,.17.1.23.07.05.15.08.22.13.09.05.18.1.26.16.24.17.24.6-.06.77-.24.13-.68.11-.9-.06.04-.07.07-.15.12-.22Z" fill="#149395" fill-rule="evenodd" stroke-width="0"/><path d="M46.85,28.65h-.5v-.26h1.36c-.03.08-.05.17-.08.26h-.46v1.46h-.31v-1.46Z" fill="#149395" fill-rule="evenodd" stroke-width="0"/><path d="M44.27,28.65h-.46v1.46h-.31v-1.46h-.5v-.26h1.35c-.03.09-.05.17-.08.26Z" fill="#149395" fill-rule="evenodd" stroke-width="0"/><path d="M38.24,35.97h-.3s0-.07,0-.1c0-.5,0-1.01,0-1.51,0-.09.03-.11.11-.11.25,0,.49,0,.74,0,.03,0,.06,0,.1,0-.02.08-.04.15-.07.22,0,.02-.05.03-.08.03-.16,0-.32,0-.5,0,0,.15,0,.29,0,.43,0,.01.05.04.08.04.15,0,.3,0,.46,0v.25h-.55v.74Z" fill="#149395" fill-rule="evenodd" stroke-width="0"/><path d="M42.12,28.39c-.02.08-.04.15-.07.22-.01.02-.05.04-.08.04-.13,0-.25,0-.39,0v1.46h-.31v-1.46h-.5v-.26h1.35Z" fill="#149395" fill-rule="evenodd" stroke-width="0"/><path d="M37.7,33.05v-1.72h.3v1.46h.62v.26h-.92Z" fill="#149395" fill-rule="evenodd" stroke-width="0"/><path d="M39.52,34.26v1.46h.6v.25h-.9v-1.71h.3Z" fill="#149395" fill-rule="evenodd" stroke-width="0"/><path d="M37.01,30.11h-.29v-1.72h.29v1.72Z" fill="#149395" fill-rule="evenodd" stroke-width="0"/><path d="M44.02,34.25h.29v1.71h-.29v-1.71Z" fill="#149395" fill-rule="evenodd" stroke-width="0"/><path d="M42.69,30.11h-.28v-1.72h.28v1.72Z" fill="#149395" fill-rule="evenodd" stroke-width="0"/></svg>