<?xml version="1.0" encoding="UTF-8"?><svg id="Capa_1" xmlns="http://www.w3.org/2000/svg" xmlns:xlink="http://www.w3.org/1999/xlink" viewBox="0 0 86 48"><defs><clipPath id="clippath"><rect x="42.88" y="18.53" width=".05" height=".03" fill="none" stroke-width="0"/></clipPath><clipPath id="clippath-1"><rect x="42.88" y="18.53" width=".05" height=".03" fill="none" stroke-width="0"/></clipPath><clipPath id="clippath-2"><rect x="42.31" y="20.07" width=".05" height=".03" fill="none" stroke-width="0"/></clipPath><clipPath id="clippath-3"><rect x="42.31" y="20.07" width=".05" height=".03" fill="none" stroke-width="0"/></clipPath></defs><rect x="0" width="86" height="48" rx="9" ry="9" fill="#fff" stroke-width="0"/><g opacity=".37"><g clip-path="url(#clippath)"><g clip-path="url(#clippath-1)"><path d="M42.94,18.53s-.02.02-.03.03c0-.01-.02-.02-.03-.03,0,0,.02,0,.03,0,0,0,.02,0,.03,0" fill="#17b4e9" stroke-width="0"/></g></g></g><g opacity=".37"><g clip-path="url(#clippath-2)"><g clip-path="url(#clippath-3)"><path d="M42.36,20.07s-.02.02-.03.03c0-.01-.02-.02-.03-.03,0,0,.02,0,.03,0,0,0,.02,0,.03,0" fill="#17b6eb" stroke-width="0"/></g></g></g><path d="M32.04,28.33l-4.85,2.8-.04.02c-.07.04-.13.09-.19.13-.06.05-.12.1-.18.16-.05.06-.11.12-.15.18-.2.26-.33.57-.37.89-.03.25-.02.5.05.74.06.24.17.46.33.66.15.19.33.36.55.49h.03c.21.13.44.21.67.24.25.03.5.01.74-.05.24-.06.46-.17.66-.33.19-.14.35-.33.48-.54h0c.04-.08.07-.15.1-.22.03-.07.06-.15.08-.22.02-.08.04-.15.05-.23.01-.08.02-.16.02-.23v-.02s0-1.58,0-1.58l-1.26.73v.86s0,.06,0,.08c0,.02,0,.05-.02.07,0,0-.02.06-.03.07,0,.02-.02.04-.03.07-.04.07-.1.14-.16.19-.07.05-.14.09-.22.11-.08.02-.16.03-.25.02-.07,0-.15-.03-.22-.07h-.01c-.07-.05-.14-.11-.19-.17-.05-.07-.09-.14-.11-.22-.02-.08-.03-.16-.02-.25.01-.08.04-.16.08-.23,0-.01.04-.05.04-.06,0,0,.04-.05.05-.06.02-.02.04-.04.06-.05.02-.02.04-.03.06-.05h0s.02-.02.02-.02l.76-.44c.49-.28.97-.56,1.46-.84h0s0,0,0,0l.77-.44h0s.64-.37.64-.37l.05-.03.05-.03.03.05.03.05.7,1.21.73-1.26-1.02-1.77h0ZM38.36,14.62c.06.01.12.04.18.07h0c.07.04.14.1.19.16h0c.05.07.09.14.11.22.02.08.03.16.02.25-.01.08-.04.16-.08.23-.06.11-.15.18-.25.24-1.23.71-2.46,1.42-3.69,2.13l-.05.03c-.25-.44-.5-.87-.76-1.31l-.73,1.26,1.02,1.77c1.11-.64,2.22-1.28,3.32-1.92l.09-.05,1.43-.83.04-.02c.07-.04.13-.09.19-.14.06-.05.12-.1.18-.16.05-.06.11-.12.15-.18.05-.06.09-.13.13-.2.12-.21.21-.45.24-.7.03-.25.01-.5-.05-.74-.06-.24-.17-.46-.33-.66-.15-.19-.33-.36-.55-.49h-.02c-.22-.13-.44-.21-.67-.24-.25-.03-.5-.01-.74.05-.24.06-.46.17-.66.33-.19.14-.35.33-.48.54-.04.07-.08.15-.11.22-.03.07-.06.15-.08.22-.02.08-.04.15-.05.23-.01.08-.02.16-.02.23v1.61s1.26-.73,1.26-.73v-.86s0-.05,0-.08c.01-.07.04-.14.07-.21.04-.07.1-.14.16-.19.07-.05.14-.09.22-.11.1-.03.21-.03.3,0h0ZM28.86,25.18l-1.81-1.04h0c-.51-.29-1.01-.58-1.52-.88l-.09-.05h0s-1.43-.82-1.43-.82h0l-.04-.02h0c-.07-.04-.14-.07-.21-.1-.07-.03-.15-.05-.22-.07-.08-.02-.15-.03-.23-.04-.08,0-.16-.01-.24-.01h0c-.26,0-.5.05-.72.14-.23.1-.44.24-.61.41h0c-.17.17-.31.38-.41.61h0c-.09.22-.14.47-.14.72h0c0,.26.05.5.14.72.1.23.24.44.41.61h0c.17.17.38.31.61.41.22.09.47.14.72.14.08,0,.16,0,.24-.01.08,0,.16-.02.23-.04.08-.02.15-.04.22-.07.07-.03.14-.06.21-.1h.02s0-.01,0-.01l1.37-.79-1.26-.73-.74.43h0s0,0,0,0h0s-.05.02-.07.03c-.02,0-.05.02-.07.02-.02,0-.05,0-.07.01-.02,0-.05,0-.07,0-.09,0-.17-.02-.24-.05-.08-.03-.15-.08-.21-.14-.06-.06-.11-.13-.14-.21-.03-.08-.05-.16-.05-.24h0c0-.09.02-.17.05-.24.03-.08.08-.15.14-.21l.02-.02h0c.05-.05.12-.09.19-.12.06-.02.12-.04.18-.05h0s.06,0,.06,0h0s.05,0,.08,0c.03,0,.05,0,.08.01.02,0,.05.01.07.02h.02s.05.03.05.03h0s0,0,0,0h0s.03.02.03.02c.26.14.51.29.76.44l.09.05.09.05h0s1.26.73,1.26.73h0s.03.02.03.02l.03.02,1.39.8h0l.05.03.05.03-.03.05-.03.05h0s-.7,1.21-.7,1.21h1.45l1.02-1.77h0ZM27.23,19.59l.73,1.26c.68,0,1.36,0,2.04,0h0s0-.19,0-.2v-5.4h0v-.04c0-.08,0-.16-.02-.23-.01-.08-.03-.15-.05-.23-.02-.08-.05-.15-.08-.22-.03-.07-.07-.14-.11-.21-.13-.22-.29-.41-.49-.55-.2-.15-.42-.26-.66-.33-.24-.06-.49-.08-.74-.05-.24.03-.48.11-.7.24-.22.13-.41.29-.55.49-.15.2-.26.42-.33.66-.06.24-.08.49-.05.74.03.24.11.48.24.7h0c.04.07.08.13.13.2.05.06.1.12.15.18.06.06.11.11.17.16h0c.06.05.13.09.19.13l.03.02h0l1.36.79v-1.45l-.75-.43s-.04-.03-.07-.05c-.02-.01-.03-.03-.05-.05h0s-.03-.04-.05-.06v-.02s-.04-.05-.04-.05c-.04-.07-.07-.15-.08-.23-.01-.08,0-.17.02-.25.04-.16.15-.3.3-.39h.01c.07-.05.14-.07.22-.08.08-.01.17,0,.25.02.08.02.16.06.22.11.05.04.1.09.13.14l.03.05c.04.07.06.14.08.22,0,0,0,.11,0,.12,0,0,0,1.07,0,1.07,0,1.08,0,2.16,0,3.25h-1.51ZM37.5,22.82l1.81,1.04h0s.03.02.03.02l1.49.86.09.05,1.42.82h0s.04.03.04.03h0c.07.04.14.07.21.1.07.03.15.05.22.07.08.02.15.03.23.04.08,0,.16.01.24.01h0c.26,0,.5-.05.72-.14.23-.1.44-.24.61-.41h0c.17-.17.32-.38.41-.61.09-.21.14-.45.14-.7v-.03c0-.25-.05-.49-.14-.72-.1-.23-.24-.44-.41-.61-.17-.17-.38-.31-.61-.41-.22-.09-.47-.14-.72-.14-.08,0-.16,0-.24.01-.08,0-.16.02-.23.04-.08.02-.15.04-.22.07-.07.03-.14.06-.21.1h0s-.02.01-.02.01l-1.37.79,1.26.73.75-.43h0s.05-.02.07-.03h0s.05-.02.07-.02c.02,0,.05,0,.07-.01.02,0,.05,0,.07,0,.08,0,.16.02.24.05.08.03.15.08.21.14.06.06.11.13.14.21.03.07.05.16.05.24s-.02.17-.05.24c-.03.08-.08.15-.14.21s-.13.11-.21.14c-.08.03-.16.05-.24.05-.03,0-.05,0-.08,0-.05,0-.1-.02-.15-.04-.02,0-.11-.06-.11-.05l-.76-.44c-.95-.55-1.9-1.1-2.85-1.65l-.03-.02h0l-.05-.03-.05-.03.03-.05c.24-.42.48-.84.73-1.26h-1.45l-1.02,1.77h0ZM36.36,27.15v5.6h0v.04s0,0,0,0c0,.08,0,.16.02.23.01.08.03.15.05.23.02.08.05.15.08.22.03.06.06.13.09.19v.03c.14.22.31.41.5.55.2.15.42.26.66.33.24.06.49.08.74.05.23-.03.46-.1.67-.22h.03c.22-.14.41-.31.55-.5.15-.2.26-.42.33-.66.06-.24.08-.49.05-.74-.03-.24-.11-.48-.24-.7-.04-.07-.08-.13-.13-.2-.05-.06-.1-.12-.15-.18-.06-.06-.11-.11-.17-.16-.06-.05-.12-.09-.19-.13h-.02s0-.02,0-.02h0s-1.37-.79-1.37-.79v1.45l.75.43s.04.03.07.05c.02.02.04.03.05.05.02.02.03.04.05.06v.02s.04.05.04.05c.04.07.07.15.08.23.01.08,0,.17-.02.25-.02.08-.06.16-.11.22-.05.06-.11.12-.19.16-.07.04-.15.07-.23.08-.08.01-.17,0-.25-.02-.08-.02-.15-.06-.22-.11-.06-.05-.12-.1-.16-.17v-.02s-.03-.05-.04-.07c-.01-.02-.02-.05-.03-.07,0,0-.02-.08-.02-.08,0-.03,0-.05,0-.08v-2.63h0v-1.72h.12s1.4,0,1.4,0l-.73-1.26h-2.04Z" fill="#149395" stroke-width="0"/><path d="M28.85,22.86c-.64-1.11-1.28-2.22-1.92-3.32h0s-.05-.09-.05-.09c-.28-.49-.56-.99-.85-1.47,0-.03-.11-.17-.13-.19-.05-.06-.1-.12-.16-.18-.29-.28-.67-.47-1.07-.52-.25-.03-.5-.02-.74.05-.24.06-.46.17-.66.33-.19.15-.36.33-.49.55h0c-.12.23-.2.46-.23.7-.03.25-.01.5.05.74.06.24.17.46.33.66.15.19.33.36.55.49h.01c.06.04.13.08.2.11.07.03.15.06.22.08.08.02.15.04.23.05.08.01.16.02.23.02h.02s1.58,0,1.58,0l-.73-1.26h-.86c-.05,0-.1-.01-.15-.02-.21-.06-.37-.23-.43-.44-.02-.08-.03-.16-.02-.25.02-.17.11-.32.24-.42.07-.05.14-.09.22-.11.08-.02.16-.03.25-.02.14.02.26.08.36.17.02.02.04.04.05.06.02.02.03.04.04.06l.02.03.44.76.05.09c.54.93,1.08,1.86,1.61,2.79l.03.05.03.05-.05.03-.05.03-1.21.7,1.26.73,1.77-1.02h0ZM39.26,25.65l-.03-.05.05-.03.05-.03h0s1.21-.7,1.21-.7l-1.26-.73-1.77,1.02,1.03,1.78h0l.02.03.02.03c.58,1,1.16,2,1.73,3h0l.03.04c.04.07.09.13.13.19.05.06.1.12.16.18.06.05.12.11.18.15.06.04.12.08.18.12h.02c.22.14.46.22.7.25.25.03.5.01.74-.05.24-.06.46-.17.66-.33.19-.15.36-.33.49-.55h0s0,0,0,0h0s0,0,0,0h0s0,0,0,0c.12-.22.2-.45.23-.69.03-.25.01-.5-.05-.74-.06-.24-.17-.46-.33-.66-.15-.19-.33-.36-.55-.48h0s-.19-.1-.21-.11c-.07-.03-.14-.06-.22-.08-.08-.02-.15-.04-.23-.05-.08-.01-.16-.02-.23-.02h-.03s-1.58,0-1.58,0l.73,1.26h.86s0,0,0,0h0s.05,0,.07,0h0s.05,0,.07.02h.04s.02.02.03.02c.02,0,.03.02.05.03h.01c.07.05.14.11.19.17.05.07.09.14.11.22.02.08.03.16.02.25,0,.08-.03.15-.07.22h0s0,.01,0,.01c-.04.07-.1.14-.16.19-.07.05-.14.09-.22.11-.08.02-.16.03-.25.02-.08-.01-.16-.04-.23-.08-.02-.01-.05-.03-.06-.04-.02-.02-.04-.03-.06-.05-.02-.02-.04-.04-.05-.06-.02-.02-.03-.04-.04-.06h0s0,0,0,0l-.02-.03h0c-.71-1.23-1.42-2.46-2.13-3.69h0ZM24.54,28.43c.71,0,3.6,0,4.08,0h.03s.06,0,.06,0h.06s0,.06,0,.06v.06h0v1.4s1.26-.73,1.26-.73v-2.04h-5.61c-.09,0-.18,0-.27.02-.08.01-.15.03-.23.05-.08.02-.15.05-.22.08-.07.03-.14.07-.21.11h0c-.22.13-.41.29-.55.49-.15.2-.26.42-.33.66-.06.24-.08.49-.05.74.03.24.11.48.24.7h0s0,0,0,0h0c.13.22.29.41.49.55.2.15.42.26.66.33.24.06.49.08.74.05.23-.03.46-.1.67-.22h.02c.07-.05.13-.1.2-.14.06-.05.12-.1.18-.15.06-.06.11-.11.16-.17.05-.06.09-.12.13-.19l.02-.03h0s.79-1.37.79-1.37h-1.45l-.43.75c-.1.16-.27.26-.45.29-.08.01-.17,0-.25-.02-.08-.02-.16-.06-.22-.11-.06-.05-.12-.11-.16-.19-.04-.07-.07-.15-.08-.24-.01-.08,0-.17.02-.25.02-.08.06-.16.11-.22.05-.07.11-.12.19-.16.02-.01.05-.02.07-.03.08-.04.17-.05.35-.05h0ZM32.01,19.68c.64-1.11,1.28-2.22,1.92-3.33h0l.05-.09.05-.09h0s.77-1.33.77-1.33h0l.03-.05c.04-.07.07-.14.1-.21.03-.07.05-.15.07-.22.02-.08.03-.15.04-.23,0-.08.01-.16.01-.24,0-.26-.05-.5-.14-.72-.1-.23-.24-.44-.41-.61-.17-.17-.38-.31-.61-.41-.22-.09-.47-.14-.72-.14s-.5.05-.72.14c-.23.1-.44.24-.61.41h0c-.17.17-.31.38-.41.61-.09.22-.14.47-.14.72,0,.08,0,.16.01.23,0,.08.02.16.04.23.02.08.04.15.07.22.03.07.06.14.1.21l.8,1.39.73-1.26-.43-.75s-.02-.05-.03-.07c0-.02-.02-.05-.02-.07,0-.02-.01-.05-.01-.07,0-.02,0-.05,0-.07,0-.09.02-.17.05-.24.03-.08.08-.15.14-.21.06-.06.13-.11.21-.14.07-.03.16-.05.24-.05s.17.02.24.05h0c.16.06.28.19.34.34.03.07.05.16.05.24,0,.03,0,.05,0,.08,0,.03,0,.05-.01.08,0,.02-.02.06-.02.07,0,.01-.02.06-.03.07h0s0,0,0,0l-.02.03h0s0,0,0,0h0c-.42.74-.84,1.46-1.26,2.18h0s-.02.03-.02.03l-.02.03-.8,1.39h0s-.03.05-.03.05l-.03.05-.05-.03-.05-.03-1.21-.7v1.45l1.77,1.02h0ZM36.34,20.82h5.6s.04,0,.04,0c.08,0,.16,0,.23-.02.08-.01.15-.03.23-.05.08-.02.15-.05.22-.08.07-.03.13-.06.19-.09h.02c.22-.14.41-.3.55-.5.15-.2.26-.42.33-.66.06-.24.08-.49.05-.74-.03-.24-.11-.48-.24-.7h0s0,0,0,0h0c-.13-.22-.29-.41-.49-.55-.2-.15-.42-.26-.66-.33-.24-.06-.49-.08-.74-.05-.24.03-.48.11-.7.24h0c-.29.17-.51.39-.68.67l-.79,1.37h1.45l.43-.75h0s0,0,0,0h0s.03-.04.04-.06h0s.03-.04.05-.05c.02-.02.04-.03.06-.05h0s.07-.04.07-.04h0s0,0,0,0h.01s0,0,0,0c.07-.04.14-.06.21-.07h0c.08,0,.16,0,.24.02.08.02.16.06.22.11.06.05.12.11.16.19h0s0,.03,0,.03c.04.07.06.14.07.21,0,.08,0,.16-.02.24-.02.08-.06.16-.11.22-.05.06-.11.12-.19.16-.02.01-.05.03-.07.03-.01,0-.06.02-.07.03-.02,0-.05.01-.08.02-.02,0-.05,0-.07,0h-.04s-.06,0-.06,0h-.8c-1.13,0-2.27,0-3.4,0h-.06v-.12h0v-1.4s-1.26.73-1.26.73v2.04h0ZM34.36,28.32c-.64,1.11-1.28,2.22-1.92,3.33l-.05.09h0l-.83,1.43-.02.04c-.08.14-.13.29-.17.44-.02.08-.03.15-.04.23,0,.08-.01.16-.01.24,0,.26.05.5.14.72.1.23.24.44.41.61.17.17.38.31.61.41.22.09.47.14.72.14s.5-.05.72-.14h0c.23-.1.44-.24.61-.41h0c.17-.17.31-.38.41-.61.09-.22.14-.47.14-.72,0-.08,0-.16-.01-.23s-.02-.16-.04-.23c-.02-.08-.04-.15-.07-.22-.03-.08-.07-.16-.11-.23l-.79-1.37-.73,1.26.43.75s.02.05.03.07c0,.02.01.05.02.07,0,.02,0,.05.01.07,0,.02,0,.05,0,.07,0,.09-.02.17-.05.24-.07.16-.19.28-.34.34-.16.06-.33.06-.49,0h0c-.16-.06-.28-.19-.34-.34h0c-.05-.13-.06-.26-.03-.4,0-.02.01-.05.02-.07,0-.02.02-.05.03-.07l.02-.04.44-.76c.07-.14.12-.2.19-.33.5-.87,1-1.73,1.5-2.6l.03-.05.05.03.05.03,1.21.7v-1.45l-1.77-1.02Z" fill="#149395" stroke-width="0"/><path d="M63.59,24.74v-.34h0c.11,0,.22-.02.32-.06.1-.04.19-.1.27-.19.08-.08.14-.17.18-.28.04-.1.06-.21.06-.33s-.02-.22-.06-.33c-.04-.1-.1-.2-.18-.28-.08-.08-.17-.14-.27-.18-.1-.04-.21-.06-.32-.06h0v-.34h0c.16,0,.32.03.47.09.15.06.28.15.4.26.12.12.2.25.27.39.06.15.09.3.09.46s-.03.32-.09.46c-.06.14-.15.27-.27.39-.12.11-.25.2-.4.26-.15.06-.3.09-.46.09h0ZM49.21,24.68v-2.28h.37v2.28h-.37ZM63.59,22.35v.34c-.11,0-.22.02-.32.06-.1.04-.19.1-.27.19-.08.08-.14.17-.18.28-.04.1-.06.21-.06.33s.02.22.06.33c.04.1.1.19.18.28.08.08.17.14.27.19.1.04.21.06.32.06v.34c-.16,0-.32-.03-.47-.09-.15-.06-.28-.15-.4-.26-.12-.11-.2-.24-.26-.39-.06-.14-.09-.3-.09-.46s.03-.32.09-.46c.06-.14.15-.27.26-.39.12-.11.25-.2.4-.26.15-.06.3-.09.47-.09h0ZM50.12,24.68v-2.37l1.45,1.39s.08.08.12.13c.04.04.08.1.13.15v-1.58h.34v2.37l-1.48-1.42s-.08-.08-.11-.12c-.04-.04-.07-.09-.11-.13v1.59h-.34ZM52.55,24.23l.3-.14c.03.1.08.18.15.23.07.05.17.08.29.08s.2-.03.26-.09c.06-.06.1-.14.1-.25,0-.13-.11-.25-.33-.36-.03-.02-.05-.03-.07-.03-.25-.12-.42-.23-.5-.33-.08-.1-.13-.22-.13-.36,0-.19.06-.34.19-.45.13-.12.29-.17.5-.17.17,0,.31.03.42.1.11.06.19.16.23.28l-.29.15c-.05-.07-.1-.12-.15-.16-.05-.03-.12-.05-.19-.05-.1,0-.18.03-.24.08-.06.05-.09.12-.09.21,0,.14.13.26.39.38.02,0,.04.02.05.02.23.1.38.21.46.3.08.1.13.22.13.37,0,.22-.07.39-.2.51-.14.13-.32.19-.55.19-.19,0-.35-.04-.48-.13-.12-.09-.21-.22-.24-.38h0ZM55.17,22.72v1.97h-.37v-1.97h-.61v-.31h1.58v.31h-.6ZM56.06,24.68v-2.28h.37v2.28h-.37ZM57.7,22.72v1.97h-.37v-1.97h-.61v-.31h1.58v.31h-.6ZM58.58,22.4h.37v1.38c0,.21.05.36.14.46.1.1.24.15.43.15s.33-.05.42-.15c.1-.1.14-.26.14-.46v-1.38h.37v1.42c0,.31-.08.54-.23.69-.16.15-.39.23-.7.23s-.55-.08-.7-.23c-.15-.15-.23-.38-.23-.69v-1.42h0ZM61.7,22.72v1.97h-.37v-1.97h-.61v-.31h1.58v.31h-.6Z" fill="#149395" stroke-width="0"/><path d="M62.42,27.66v-.29h.3l-.22-.49s-.03-.07-.04-.11c-.01-.04-.03-.08-.04-.13v-.66l1.04,2.24h-.37l-.25-.56h-.43ZM63.67,28.22v-2.16h.35v1.85h.79v.31h-1.14ZM62.42,25.98v.66h0s-.02.09-.04.13c-.01.04-.03.08-.04.11l-.22.49h.3v.29h-.43l-.25.56h-.37l1.05-2.25h0ZM57.67,28.28v-.33h0c.11,0,.21-.02.3-.06.09-.04.18-.1.26-.18.07-.08.13-.16.17-.26.04-.1.06-.2.06-.31s-.02-.21-.06-.31c-.04-.1-.1-.19-.17-.26-.07-.08-.16-.13-.25-.18-.1-.04-.2-.06-.3-.06h0v-.32h0c.16,0,.3.03.44.08.14.06.26.14.37.25.11.11.19.23.25.37.06.14.09.28.09.44s-.03.3-.09.44c-.06.14-.14.26-.25.37-.11.11-.24.19-.38.25-.14.06-.29.09-.44.09h0ZM59.23,28.22v-2.25l1.37,1.32s.08.08.11.12c.04.04.08.09.12.14v-1.5h.33v2.25l-1.4-1.35s-.07-.07-.11-.12c-.04-.04-.07-.08-.1-.13v1.5h-.32ZM57.67,26v.32c-.11,0-.21.02-.3.06-.1.04-.18.1-.26.18-.07.08-.13.16-.17.26-.04.1-.06.2-.06.31s.02.21.06.31c.04.1.1.18.17.26.07.08.16.14.26.18.1.04.2.06.3.06v.33c-.16,0-.3-.03-.44-.09-.14-.06-.27-.14-.37-.25-.11-.11-.19-.23-.25-.37-.06-.14-.09-.28-.09-.44s.03-.3.09-.44c.06-.14.14-.26.25-.37.11-.11.24-.19.38-.25.14-.06.29-.08.44-.08h0ZM52.38,27.66v-.29h.3l-.22-.49s-.03-.07-.04-.11c-.01-.04-.03-.08-.04-.13v-.66l1.04,2.24h-.37l-.25-.56h-.43ZM55.31,26.58c-.1-.08-.2-.15-.32-.19-.11-.04-.23-.06-.35-.06-.24,0-.43.08-.58.23-.15.15-.22.35-.22.59s.07.43.22.58c.14.15.33.23.55.23.13,0,.25-.02.37-.07.12-.05.23-.11.33-.21v.4c-.09.07-.2.12-.31.15-.11.03-.23.05-.36.05-.17,0-.32-.03-.46-.08-.14-.05-.26-.13-.37-.24-.11-.1-.19-.23-.24-.37-.06-.14-.08-.29-.08-.45s.03-.31.08-.45c.06-.14.14-.26.25-.37.11-.11.23-.19.37-.24.14-.06.29-.08.45-.08.13,0,.25.02.36.06.12.04.23.09.34.17l-.02.36h0ZM55.76,28.22v-2.16h.35v2.16h-.35ZM49.19,28.22v-2.25l1.37,1.32s.08.08.11.12c.04.04.08.09.12.14v-1.5h.33v2.25l-1.4-1.35s-.07-.07-.11-.12c-.04-.04-.07-.08-.1-.13v1.5h-.32ZM52.38,25.98v.66h0s-.02.09-.04.13c-.01.04-.03.08-.04.11l-.22.49h.3v.29h-.43l-.25.56h-.37l1.05-2.25h0Z" fill="#149395" stroke-width="0"/><path d="M51,31.79v-.23c.08,0,.14-.02.2-.05.05-.03.1-.09.14-.17l.21.12c-.06.11-.14.19-.23.25-.09.05-.2.08-.32.08h0ZM51,31.23v-.17h.3c0-.08-.04-.14-.09-.18-.05-.04-.12-.06-.21-.06h0v-.21c.18,0,.32.05.41.15.1.1.15.24.15.43v.05h-.56ZM51.84,31.74v-1.8h.25v1.8h-.25ZM49.91,31.19c0-.11-.03-.2-.08-.27-.05-.06-.13-.1-.22-.1h0v-.22c.06,0,.11.02.16.05.06.04.11.09.14.16v-.88h.25v1.8h-.25v-.14c-.04.06-.1.11-.16.14-.04.02-.09.04-.14.04v-.22c.09,0,.16-.03.22-.1.06-.07.08-.16.08-.27h0ZM51,30.6v.21c-.08,0-.15.02-.2.06-.05.04-.09.1-.11.18h.3v.17h-.32c0,.1.04.18.09.24.05.06.13.09.22.09h0v.23h0c-.18,0-.32-.05-.42-.16-.1-.11-.16-.25-.16-.43s.05-.31.16-.43c.11-.11.25-.17.42-.17h0ZM49.61,30.83c-.09,0-.17.03-.22.1-.05.07-.08.16-.08.27s.03.21.08.27c.05.06.13.1.22.1h0v.22s-.04,0-.07,0c-.16,0-.28-.05-.37-.16-.09-.11-.13-.25-.13-.44,0-.18.05-.32.14-.43.09-.11.21-.16.36-.16.03,0,.05,0,.07,0v.22Z" fill="#149395" stroke-width="0"/><path d="M63.87,31.12v-.6c.08-.01.13-.03.17-.05.06-.04.09-.12.09-.23,0-.12-.03-.2-.1-.25-.04-.03-.09-.05-.16-.06v-.31c.08,0,.15.01.21.02.08.02.14.05.2.09.07.05.12.12.15.2.04.08.05.17.05.27,0,.17-.04.3-.12.4-.08.1-.2.15-.36.17l.73.97h-.39l-.47-.63ZM63.87,29.62v.31c-.05,0-.12-.01-.2-.01h-.06v.61h.06c.08,0,.14,0,.2-.01v.6l-.24-.32h-.04v.95h-.32v-2.12h.48s.08,0,.12,0h0ZM55.95,31.2v-.29h.3l-.22-.48s-.03-.07-.04-.11c-.01-.04-.03-.08-.04-.13v-.64l1.02,2.2h-.36l-.24-.55h-.42ZM55.95,29.38v-.27l.07-.1h.33l-.39.37h0ZM57.17,31.74v-2.21l1.35,1.3s.07.08.11.12c.04.04.08.09.12.14v-1.47h.32v2.2l-1.38-1.32s-.07-.07-.11-.11c-.03-.04-.07-.08-.1-.12v1.48h-.32ZM61.26,30.14c-.1-.08-.2-.15-.31-.19-.11-.04-.22-.06-.34-.06-.23,0-.42.07-.57.22-.15.15-.22.34-.22.58s.07.42.21.57c.14.15.32.22.54.22.13,0,.24-.02.36-.07.11-.04.22-.11.33-.2v.39c-.09.07-.19.12-.3.15-.11.03-.23.05-.36.05-.16,0-.31-.03-.45-.08-.14-.05-.26-.13-.36-.24-.1-.1-.18-.22-.24-.36-.06-.14-.08-.28-.08-.44s.03-.3.08-.44c.06-.14.14-.26.24-.36.11-.1.23-.18.36-.24.14-.05.28-.08.44-.08.12,0,.24.02.36.05.11.04.22.09.33.16l-.02.35h0ZM61.68,31.74v-2.12h1.18v.29h-.84v.53h.84v.3h-.84v.69h.84v.31h-1.18ZM54.78,30.14c-.1-.08-.2-.15-.31-.19-.11-.04-.22-.06-.34-.06-.23,0-.42.07-.57.22-.15.15-.22.34-.22.58s.07.42.21.57c.14.15.32.22.54.22.13,0,.25-.02.36-.07.11-.04.22-.11.33-.2v.39c-.09.07-.19.12-.3.15-.11.03-.23.05-.36.05-.16,0-.31-.03-.45-.08-.14-.05-.26-.13-.36-.24-.1-.1-.18-.22-.24-.36-.06-.14-.08-.28-.08-.44s.03-.3.08-.44c.06-.14.14-.26.24-.36.11-.1.23-.18.36-.24.14-.05.28-.08.44-.08.12,0,.24.02.36.05.11.04.22.09.33.16l-.02.35h0ZM55.95,29.11v.27l-.03.03h-.18l.21-.3h0ZM55.95,29.54v.64h0s-.02.09-.04.13c-.01.04-.03.08-.04.11l-.22.48h.3v.29h-.42l-.25.55h-.36l1.03-2.21h0Z" fill="#149395" stroke-width="0"/><path d="M48.88,33.18h15.86v.47h-15.86v-.47Z" fill="#149395" stroke-width="0"/><path d="M50.91,19.35h-1.26v-6.04h1.26v6.04h0ZM58.15,19.53l-4.4-3.81v3.62h-1.19v-6.23l4.4,3.81v-3.62h1.19v6.23h0ZM64.82,18.53c-.61.61-1.34.91-2.2.91s-1.59-.3-2.2-.91c-.61-.61-.91-1.34-.91-2.2s.3-1.59.91-2.2c.61-.61,1.34-.91,2.2-.91s1.59.3,2.2.91l-.84.84c-.38-.37-.83-.56-1.36-.56s-.98.19-1.36.56c-.38.37-.56.83-.56,1.36s.19.98.56,1.36c.37.38.83.56,1.36.56s.98-.19,1.36-.56l.84.84Z" fill="#149395" stroke-width="0"/><path d="M48.81,20.47h15.86v.47h-15.86v-.47Z" fill="#149395" stroke-width="0"/></svg>