<?xml version="1.0" encoding="UTF-8"?><svg id="Capa_1" xmlns="http://www.w3.org/2000/svg" xmlns:xlink="http://www.w3.org/1999/xlink" viewBox="0 0 86 48"><defs><clipPath id="clippath"><rect x="40.37" y="18.53" width=".05" height=".03" fill="none" stroke-width="0"/></clipPath><clipPath id="clippath-1"><rect x="40.37" y="18.53" width=".05" height=".03" fill="none" stroke-width="0"/></clipPath><clipPath id="clippath-2"><rect x="39.79" y="20.07" width=".05" height=".03" fill="none" stroke-width="0"/></clipPath><clipPath id="clippath-3"><rect x="39.79" y="20.07" width=".05" height=".03" fill="none" stroke-width="0"/></clipPath><clipPath id="clippath-4"><rect x="42.88" y="18.53" width=".05" height=".03" fill="none" stroke-width="0"/></clipPath><clipPath id="clippath-5"><rect x="42.88" y="18.53" width=".05" height=".03" fill="none" stroke-width="0"/></clipPath><clipPath id="clippath-6"><rect x="42.31" y="20.07" width=".05" height=".03" fill="none" stroke-width="0"/></clipPath><clipPath id="clippath-7"><rect x="42.31" y="20.07" width=".05" height=".03" fill="none" stroke-width="0"/></clipPath></defs><g opacity=".37"><g clip-path="url(#clippath)"><g clip-path="url(#clippath-1)"><path d="M40.42,18.53s-.02.02-.03.03c0-.01-.02-.02-.03-.03,0,0,.02,0,.03,0,0,0,.02,0,.03,0" fill="#17b4e9" stroke-width="0"/></g></g></g><g opacity=".37"><g clip-path="url(#clippath-2)"><g clip-path="url(#clippath-3)"><path d="M39.84,20.07s-.02.02-.03.03c0-.01-.02-.02-.03-.03,0,0,.02,0,.03,0,0,0,.02,0,.03,0" fill="#17b6eb" stroke-width="0"/></g></g></g><rect x="0" width="86" height="48" rx="9" ry="9" fill="#fff" stroke-width="0"/><g opacity=".37"><g clip-path="url(#clippath-4)"><g clip-path="url(#clippath-5)"><path d="M42.94,18.53s-.02.02-.03.03c0-.01-.02-.02-.03-.03,0,0,.02,0,.03,0,0,0,.02,0,.03,0" fill="#17b4e9" stroke-width="0"/></g></g></g><g opacity=".37"><g clip-path="url(#clippath-6)"><g clip-path="url(#clippath-7)"><path d="M42.36,20.07s-.02.02-.03.03c0-.01-.02-.02-.03-.03,0,0,.02,0,.03,0,0,0,.02,0,.03,0" fill="#17b6eb" stroke-width="0"/></g></g></g><path d="M20.12,20.66v8.14h-1.6v-8.14h1.6ZM21.15,23.15c.21-.49.5-.92.87-1.29.37-.37.8-.66,1.3-.87.5-.21,1.02-.32,1.58-.32s1.1.11,1.59.32c.49.21.92.5,1.3.87.37.37.67.8.88,1.29.21.49.32,1.02.32,1.59v4.08h-1.61v-4.08c0-.34-.06-.66-.19-.95-.13-.3-.3-.56-.53-.78-.22-.22-.49-.4-.79-.53-.3-.13-.62-.19-.96-.19s-.66.06-.95.19c-.3.13-.56.3-.78.53-.22.22-.4.48-.53.78-.13.3-.19.61-.19.95v4.08h-1.61v-4.08c0-.57.11-1.1.32-1.59ZM37.11,20.62l-4.24,8.16-4.23-8.16h1.81c.17.33.36.7.58,1.12.22.42.44.84.65,1.27.22.43.43.84.64,1.24.21.4.39.74.53,1.03.18-.35.39-.75.63-1.21.24-.45.47-.9.7-1.35.23-.45.44-.86.63-1.24.19-.38.34-.67.45-.86h1.83ZM43.26,25.93l1.14,1.14-.56.56c-.39.39-.83.68-1.32.89-.5.21-1.02.31-1.56.31s-1.06-.1-1.56-.31c-.5-.21-.94-.5-1.32-.89-.4-.4-.7-.85-.89-1.35-.19-.5-.29-1.01-.29-1.53s.1-1.03.29-1.52c.19-.5.49-.94.89-1.34.4-.4.85-.7,1.35-.9.5-.2,1.01-.3,1.53-.3s1.03.1,1.53.3c.5.2.95.5,1.35.9l.56.56-4.52,4.52c.46.23.95.31,1.46.23.51-.08.96-.31,1.35-.7l.56-.56ZM39.22,23.01c-.48.48-.73,1.06-.73,1.74,0,.38.08.73.25,1.07.14-.15.37-.37.66-.66.3-.3.61-.61.94-.94.33-.33.65-.65.96-.95.31-.3.55-.54.72-.71-.46-.23-.95-.31-1.46-.24-.51.07-.96.3-1.35.69ZM50.12,20.66v1.61h-.82c-.34,0-.66.06-.95.19-.3.13-.56.3-.78.53-.22.22-.4.48-.53.78-.13.3-.19.61-.19.95v4.08h-1.63v-4.08c0-.57.11-1.1.32-1.59.21-.49.5-.92.88-1.29.37-.37.81-.66,1.31-.87.5-.21,1.02-.32,1.58-.32h.82ZM20.11,18.69h-1.61v1.42h1.61v-1.42Z" fill="#149395" stroke-width="0"/><path d="M51.67,21.85c.4-.4.85-.7,1.35-.9.5-.2,1.01-.3,1.53-.3s1.03.1,1.53.3c.5.2.95.5,1.35.9l.56.56-1.12,1.14-.58-.56c-.24-.24-.51-.42-.82-.54-.3-.12-.61-.18-.93-.18s-.62.06-.92.18c-.3.12-.57.3-.82.54-.24.23-.42.5-.54.8-.12.3-.18.61-.18.92s.06.62.18.93c.12.3.3.57.54.82.48.48,1.06.73,1.74.73.33,0,.64-.06.94-.18.3-.12.57-.3.8-.54l.58-.56,1.12,1.14-.56.56c-.4.4-.85.7-1.35.9-.5.2-1.01.3-1.53.3s-1.03-.1-1.53-.3c-.5-.2-.95-.5-1.35-.9-.4-.4-.7-.85-.89-1.34-.19-.5-.29-1.01-.29-1.53s.1-1.04.29-1.53c.19-.5.49-.94.89-1.34Z" fill="#149395" stroke-width="0"/><path d="M60.26,17.39v11.41h-1.61v-11.41h1.61Z" fill="#149395" stroke-width="0"/><path d="M69.2,20.66v4.06c0,.56-.11,1.08-.32,1.58-.21.5-.5.93-.88,1.31-.38.38-.81.67-1.3.88-.49.21-1.02.32-1.59.32s-1.08-.11-1.58-.32c-.5-.21-.93-.5-1.3-.88-.37-.37-.66-.81-.87-1.31-.21-.5-.32-1.02-.32-1.58v-4.06h1.61v4.06c0,.34.06.66.19.96.13.3.3.57.53.79.22.22.48.4.78.53.3.13.61.19.95.19s.66-.06.96-.19c.3-.13.57-.3.79-.53.22-.22.4-.49.53-.79.13-.3.19-.62.19-.96v-4.06h1.61Z" fill="#149395" stroke-width="0"/><path d="M75.52,21.01c.49.21.92.5,1.29.87.37.37.66.8.87,1.29.21.49.32,1.02.32,1.59s-.11,1.08-.32,1.58c-.21.5-.5.93-.87,1.31-.37.37-.8.67-1.29.88-.49.21-1.02.32-1.59.32s-1.08-.11-1.58-.32c-.5-.21-.93-.5-1.31-.88-.37-.38-.67-.81-.88-1.31-.21-.5-.32-1.02-.32-1.58v-7.33h1.61v3.26h2.47c.57,0,1.1.11,1.59.32ZM73.94,27.22c.34,0,.66-.06.95-.19.3-.13.56-.3.78-.53.22-.22.4-.49.53-.79.13-.3.19-.62.19-.96s-.06-.66-.19-.95c-.13-.3-.3-.56-.53-.78-.22-.22-.48-.4-.78-.53-.3-.13-.61-.19-.95-.19h-2.47v2.45c0,.34.06.66.19.96.13.3.3.57.53.79s.49.4.79.53c.3.13.62.19.96.19Z" fill="#149395" stroke-width="0"/><polygon points="8.19 18.14 8.19 25.72 11.25 26.91 11.25 22.63 15.64 21.04 8.19 18.14" fill="#149395" stroke-width="0"/><polygon points="15.64 28.82 11.44 27.19 11.44 30.34 15.64 28.82" fill="#149395" stroke-width="0"/><polygon points="11.44 22.76 11.44 26.99 15.81 28.69 15.81 21.17 11.44 22.76" fill="#149395" stroke-width="0"/></svg>