<?xml version="1.0" encoding="UTF-8"?><svg id="Capa_1" xmlns="http://www.w3.org/2000/svg" xmlns:xlink="http://www.w3.org/1999/xlink" viewBox="0 0 86 48"><defs><clipPath id="clippath"><rect x="40.37" y="18.53" width=".05" height=".03" fill="none" stroke-width="0"/></clipPath><clipPath id="clippath-1"><rect x="40.37" y="18.53" width=".05" height=".03" fill="none" stroke-width="0"/></clipPath><clipPath id="clippath-2"><rect x="39.79" y="20.07" width=".05" height=".03" fill="none" stroke-width="0"/></clipPath><clipPath id="clippath-3"><rect x="39.79" y="20.07" width=".05" height=".03" fill="none" stroke-width="0"/></clipPath><clipPath id="clippath-4"><rect x="42.88" y="18.53" width=".05" height=".03" fill="none" stroke-width="0"/></clipPath><clipPath id="clippath-5"><rect x="42.88" y="18.53" width=".05" height=".03" fill="none" stroke-width="0"/></clipPath><clipPath id="clippath-6"><rect x="42.31" y="20.07" width=".05" height=".03" fill="none" stroke-width="0"/></clipPath><clipPath id="clippath-7"><rect x="42.31" y="20.07" width=".05" height=".03" fill="none" stroke-width="0"/></clipPath></defs><g opacity=".37"><g clip-path="url(#clippath)"><g clip-path="url(#clippath-1)"><path d="M40.42,18.53s-.02.02-.03.03c0-.01-.02-.02-.03-.03,0,0,.02,0,.03,0,0,0,.02,0,.03,0" fill="#17b4e9" stroke-width="0"/></g></g></g><g opacity=".37"><g clip-path="url(#clippath-2)"><g clip-path="url(#clippath-3)"><path d="M39.84,20.07s-.02.02-.03.03c0-.01-.02-.02-.03-.03,0,0,.02,0,.03,0,0,0,.02,0,.03,0" fill="#17b6eb" stroke-width="0"/></g></g></g><rect x="0" width="86" height="48" rx="9" ry="9" fill="#fff" stroke-width="0"/><g opacity=".37"><g clip-path="url(#clippath-4)"><g clip-path="url(#clippath-5)"><path d="M42.94,18.53s-.02.02-.03.03c0-.01-.02-.02-.03-.03,0,0,.02,0,.03,0,0,0,.02,0,.03,0" fill="#17b4e9" stroke-width="0"/></g></g></g><g opacity=".37"><g clip-path="url(#clippath-6)"><g clip-path="url(#clippath-7)"><path d="M42.36,20.07s-.02.02-.03.03c0-.01-.02-.02-.03-.03,0,0,.02,0,.03,0,0,0,.02,0,.03,0" fill="#17b6eb" stroke-width="0"/></g></g></g><path d="M51.53,33.09c0-.64,0-1.28,0-1.93,0-.34.09-.43.43-.43.27,0,.53,0,.8,0,.16,0,.27.04.34.2.07.17.2.17.33.08.44-.32.94-.4,1.45-.32.7.1,1.39.59,1.51,1.36.07.44.07.89.08,1.33.01.56,0,1.11,0,1.67,0,.32-.07.38-.39.38-.29,0-.58,0-.87,0-.37,0-.45-.08-.45-.44,0-.6,0-1.21,0-1.81,0-.16-.03-.33-.04-.49-.03-.41-.44-.65-.84-.55-.32.08-.6.42-.61.75-.01.68,0,1.36-.01,2.04,0,.42-.07.49-.49.49-.27,0-.55,0-.82,0-.34,0-.41-.07-.41-.42,0-.64,0-1.28,0-1.93h0Z" fill="#149395" stroke-width="0"/><path d="M43.82,35.48c-.64.02-1.23-.07-1.8-.3-.2-.08-.28-.23-.2-.45.09-.23.18-.47.31-.68.11-.19.32-.14.46-.06.34.19.71.24,1.09.25.19,0,.39,0,.58-.02.07,0,.19-.09.19-.13,0-.09-.06-.19-.13-.25-.06-.05-.16-.05-.25-.07-.43-.08-.87-.13-1.29-.24-.44-.11-.79-.39-.91-.83-.14-.51-.07-.99.35-1.38.47-.44,1.04-.6,1.67-.64.56-.03,1.09.08,1.62.22.34.09.42.29.26.6-.08.16-.14.33-.22.49-.09.18-.22.22-.43.16-.37-.1-.74-.17-1.12-.23-.12-.02-.26.04-.38.09-.07.03-.14.12-.15.19,0,.05.09.13.15.16.13.05.27.08.4.12.4.09.8.16,1.19.27.48.14.77.48.85.97.08.5-.08.93-.47,1.26-.52.44-1.15.54-1.78.51Z" fill="#149395" stroke-width="0"/><path d="M58.77,33.15c0,.18,0,.36,0,.54,0,.36.25.56.59.44.24-.08.36,0,.44.2.08.21.17.42.23.64.05.18-.05.36-.26.41-.69.14-1.38.23-2.02-.18-.39-.25-.63-.61-.67-1.08-.04-.43-.04-.86-.04-1.29,0-.88,0-1.77,0-2.65,0-.39.08-.47.47-.47.29,0,.58,0,.87,0,.31.01.39.09.39.4,0,.18,0,.36,0,.54,0,.17.08.26.25.26.15,0,.3,0,.45,0,.2,0,.29.1.3.28.02.24.03.48.02.73,0,.19-.12.3-.31.31-.14,0-.28,0-.42,0-.2,0-.29.09-.29.29,0,.21,0,.42,0,.63,0,0,0,0,0,0Z" fill="#149395" stroke-width="0"/><path d="M31.11,32c0-.65,0-1.3,0-1.95,0-.32.06-.38.38-.38.31,0,.63,0,.94,0,.3,0,.39.08.39.39,0,1.19,0,2.38,0,3.57,0,.19.03.37.21.47.09.05.21.06.31.05.19-.02.31.06.33.24.03.24.04.48.05.73,0,.18-.1.3-.28.33-.59.08-1.18.11-1.69-.27-.3-.23-.57-.52-.59-.92-.03-.75,0-1.5,0-2.25-.01,0-.03,0-.04,0Z" fill="#149395" stroke-width="0"/><path d="M29.24,38.8c0,.29,0,.58,0,.87,0,.08-.07.22-.13.24-.09.02-.25-.01-.3-.08-.34-.41-.66-.85-.99-1.27-.03-.04-.09-.05-.13-.08-.03.06-.08.12-.08.18,0,.34,0,.69,0,1.03,0,.21-.19.32-.35.2-.06-.04-.1-.14-.1-.22,0-.44,0-.88.01-1.32,0-.15-.01-.3.02-.44.02-.09.09-.22.16-.25.08-.03.23.02.28.09.34.41.65.83.98,1.25.03.04.09.07.14.1.03-.06.08-.12.08-.17,0-.29,0-.58-.01-.87,0-.06-.03-.14,0-.18.06-.09.15-.15.23-.23.07.08.2.15.2.23.02.3,0,.61,0,.92,0,0,0,0-.01,0Z" fill="#149395" stroke-width="0"/><path d="M35.22,38.83c0,.27,0,.55,0,.82,0,.09-.07.26-.12.26-.11,0-.26-.03-.33-.11-.34-.41-.65-.83-.98-1.25-.04-.05-.1-.09-.15-.13-.03.07-.07.14-.08.21,0,.34,0,.67,0,1.01,0,.14,0,.29-.2.28-.16,0-.22-.12-.22-.28.02-.58.02-1.16.05-1.73,0-.09.08-.23.15-.25.07-.02.21.05.27.12.31.36.59.74.89,1.11.03.04.06.1.1.13.06.03.13.04.19.06.01-.06.04-.12.04-.18-.01-.3-.03-.61-.05-.91,0-.03,0-.07,0-.09.08-.09.16-.16.24-.25.06.09.16.17.17.27.02.21,0,.42,0,.63,0,.09,0,.19,0,.28,0,0,0,0,0,0Z" fill="#149395" stroke-width="0"/><path d="M47.58,38.8c0-.25,0-.5,0-.75,0-.33.16-.5.48-.5.31,0,.61,0,.92,0,.13,0,.24.02.25.18,0,.17-.09.24-.25.24-.22,0-.44,0-.66-.02-.19,0-.3.1-.3.3,0,.24.12.37.33.35.16-.01.32-.04.47-.01.1.02.17.14.26.21-.08.05-.16.14-.25.15-.18.02-.36,0-.54,0-.18,0-.26.09-.25.27,0,.06,0,.13,0,.19-.01.18.08.26.25.25.24,0,.49-.02.73,0,.08,0,.16.1.24.16-.08.06-.16.16-.24.16-.34.02-.69.01-1.03,0-.29,0-.39-.12-.39-.41,0-.26,0-.52,0-.78,0,0,0,0,0,0Z" fill="#149395" stroke-width="0"/><path d="M42.55,38.78c-.1-.71.8-1.39,1.49-1.22.17.04.33.15.47.25.04.03.07.15.04.2-.02.05-.12.09-.19.09-.08,0-.16-.05-.24-.08-.62-.22-1.03.11-1.21.66-.09.27.1.51.25.71.18.23.45.34.75.28.12-.02.22-.11.33-.14.09-.03.2-.02.3-.03,0,.09,0,.18-.03.27-.01.05-.06.09-.11.12-.3.2-1.06.15-1.34-.09-.55-.47-.51-.59-.52-1.01Z" fill="#149395" stroke-width="0"/><path d="M57.19,37.81c-.05.14-.07.24-.11.33-.21.46-.43.91-.65,1.37-.04.08-.03.18-.08.24-.08.08-.18.17-.29.19-.06.01-.19-.08-.22-.15-.25-.53-.48-1.06-.72-1.59-.04-.08-.12-.14-.13-.22-.02-.11.01-.22.02-.33.09.03.18.04.26.08.06.03.11.1.13.16.18.43.35.86.52,1.29.06.15.13.17.23.04.05-.07.1-.14.13-.22.18-.4.34-.8.53-1.19.03-.07.14-.13.23-.15.04,0,.1.1.14.15Z" fill="#149395" stroke-width="0"/><path d="M29.94,38.82c0-.28,0-.56,0-.84,0-.28.11-.41.39-.43.32-.01.64-.02.96,0,.09,0,.23.1.24.18.03.16-.09.24-.25.24-.21,0-.42,0-.63,0-.29,0-.39.11-.37.39.02.28.11.37.4.35.18,0,.36-.02.54,0,.06,0,.12.1.18.15-.06.06-.12.15-.19.16-.17.02-.34,0-.51,0-.33,0-.43.11-.41.44,0,.1.04.21,0,.3-.03.08-.13.13-.2.19-.05-.07-.14-.13-.15-.2-.02-.3,0-.61,0-.91,0,0,0,0,0,0Z" fill="#149395" stroke-width="0"/><path d="M52.64,39.01c0-.25,0-.5,0-.75,0-.21-.12-.33-.34-.31-.08,0-.17.02-.23-.01-.07-.04-.15-.14-.15-.21,0-.06.11-.12.18-.17.03-.02.09-.01.14-.01.41,0,.81,0,1.22,0,.13,0,.27,0,.27.18,0,.18-.11.24-.28.24-.42.01-.42.02-.42.45,0,.41,0,.81,0,1.22,0,.13.02.3-.18.29-.18,0-.25-.13-.25-.3,0-.2,0-.41,0-.61,0,0,.01,0,.02,0Z" fill="#149395" stroke-width="0"/><path d="M37.42,39.04c.01-.26.02-.51.04-.77.01-.19-.12-.33-.31-.32-.06,0-.14.03-.18,0-.09-.06-.16-.15-.23-.23.08-.06.15-.13.23-.18.02-.01.05,0,.07,0,.41,0,.83,0,1.24,0,.14,0,.28.02.27.21,0,.17-.13.22-.28.22-.04,0-.08,0-.12,0-.25,0-.3.05-.3.3,0,.48,0,.95,0,1.43,0,.08-.06.2-.13.22-.06.02-.18-.03-.24-.09-.04-.04-.04-.13-.04-.2,0-.2,0-.39,0-.59,0,0,0,0,0,0Z" fill="#149395" stroke-width="0"/><path d="M35.89,38.81c0-.28-.02-.56,0-.84,0-.11.08-.25.16-.31.09-.06.27.14.27.31,0,.56,0,1.13,0,1.69,0,.16-.08.28-.25.28-.18,0-.17-.15-.17-.28,0-.28,0-.56,0-.84,0,0-.01,0-.02,0Z" fill="#149395" stroke-width="0"/><path d="M32.08,38.79c0-.27-.02-.55,0-.82.01-.12.08-.26.18-.33.08-.06.22.17.22.35,0,.55,0,1.09,0,1.64,0,.16-.04.3-.21.3-.17,0-.18-.15-.18-.27,0-.29,0-.58,0-.87h0Z" fill="#149395" stroke-width="0"/><path d="M26.47,38.83c0,.28,0,.56,0,.84,0,.12-.03.27-.17.25-.07-.01-.18-.15-.18-.24-.02-.58-.01-1.16,0-1.73,0-.13.01-.31.19-.29.07,0,.16.19.17.3.02.29,0,.58,0,.87h0Z" fill="#149395" stroke-width="0"/><path d="M54.19,38.82c0-.27,0-.53,0-.8,0-.02,0-.05,0-.07.05-.1.1-.28.17-.29.17-.02.19.15.19.28,0,.58,0,1.16,0,1.74,0,.13-.04.26-.19.24-.06,0-.15-.15-.15-.23-.02-.29,0-.58,0-.87,0,0,0,0-.01,0Z" fill="#149395" stroke-width="0"/><path d="M51.89,12.08c-.21-.6-.48-1.15-.85-1.66-.54-.74-1.21-1.32-2.02-1.75-.56-.3-1.14-.52-1.76-.6-1.15-.15-2.29-.1-3.35.44-.46.23-.91.49-1.31.8-.66.51-1.18,1.16-1.55,1.91-.29.58-.55,1.18-.59,1.82-.05,1.11-.04,2.22-.04,3.33,0,.39-.04.46-.43.45-.5,0-1-.02-1.5,0-.32,0-.65.02-.95.1-.63.16-1.22.42-1.75.81-.64.47-1.14,1.06-1.48,1.76-.4.81-.58,1.69-.49,2.6.06.62.22,1.23.53,1.76.26.44.58.85.92,1.23.42.46.95.8,1.53,1.02.45.17.95.27,1.43.32.77.09,1.52-.02,2.23-.34.59-.26,1.12-.61,1.57-1.08.65-.67,1.09-1.45,1.28-2.36.17-.8.08-1.61.05-2.41,0-.28.11-.4.39-.4.45,0,.89,0,1.34,0,1.03.02,2.06.04,3.06-.3.75-.26,1.42-.64,2.02-1.15.59-.51,1.05-1.12,1.4-1.81.26-.53.47-1.07.54-1.66.12-.96.11-1.9-.21-2.83ZM40.4,20.97h-.02c0,.19-.01.38,0,.56.07.73-.59,1.57-1.29,1.82-.85.29-2.01-.35-2.21-1.26-.18-.84.14-1.63.89-2.03.22-.12.51-.17.77-.19.5-.03,1-.03,1.5-.03.26,0,.37.12.36.38,0,.25,0,.5,0,.75ZM49.08,14.55c-.15.58-.41,1.08-.85,1.48-.23.21-.49.41-.77.51-.38.14-.8.21-1.21.26-.39.04-.78,0-1.17,0h0c-.45,0-.89,0-1.34,0-.32,0-.39-.07-.38-.39.01-.82.02-1.64.05-2.47.03-1.04.45-1.91,1.34-2.47.63-.41,1.34-.56,2.11-.4.76.17,1.37.55,1.79,1.18.45.68.66,1.43.44,2.27Z" fill="#149395" stroke-width="0"/><path d="M25.54,31.99c-.47-1.12-2.03-1.73-3.12-1.02-.12.08-.2.08-.26-.06-.07-.15-.2-.18-.35-.18-.26,0-.52,0-.78,0-.36,0-.46.08-.46.45,0,.91,0,1.82,0,2.73h0c0,.37,0,.74,0,1.1,0,.56,0,1.11,0,1.67,0,.31.09.39.39.39.31,0,.63,0,.94,0,.24,0,.36-.1.36-.33,0-.43-.01-.86-.01-1.29,0-.07,0-.2.04-.21.08-.03.18-.01.26.01.09.03.17.13.26.15,1.13.24,2.04-.03,2.61-1.03.43-.75.44-1.57.1-2.39ZM23.49,34.05c-.35.16-.82.05-1.04-.28-.29-.43-.31-1.1.17-1.53.26-.23.57-.23.86-.12.28.11.48.34.54.66.02.1.01.2.02.3.03.44-.13.77-.54.96Z" fill="#149395" stroke-width="0"/><path d="M38.44,31.54c-.34-.41-.79-.65-1.3-.78-.7-.19-1.39-.12-2.03.2-.58.28-.98.74-1.22,1.36-.26.69-.05,1.81.46,2.33.56.56,1.21.87,2.02.82.55.04,1.08-.08,1.54-.38.47-.31.81-.72.99-1.27.28-.85.11-1.61-.45-2.28ZM36.79,34.03c-.52.29-1.21-.13-1.28-.66-.01-.09-.01-.19-.02-.22,0-.78.49-1.21,1.14-1.05.28.07.44.27.57.51.19.37.06,1.15-.41,1.42Z" fill="#149395" stroke-width="0"/><path d="M64.85,31.56c-.34-.42-.81-.65-1.32-.79-.69-.19-1.36-.13-1.99.18-.58.28-1,.72-1.24,1.34-.29.76-.09,1.82.49,2.4.56.56,1.22.83,1.97.79,1.11.07,2.18-.59,2.52-1.6.3-.87.13-1.63-.42-2.33ZM63.03,34.1c-.39.16-1.05-.17-1.14-.76-.01-.09-.01-.19-.02-.22,0-.75.51-1.18,1.15-1.03.36.08.53.37.63.69.13.45-.02,1.06-.63,1.31Z" fill="#149395" stroke-width="0"/><path d="M30.61,33.86c0-.37.03-.74,0-1.1-.03-.35-.07-.72-.22-1.02-.33-.69-.98-.97-1.69-1.05-.77-.09-1.53.03-2.23.39-.24.12-.28.24-.16.46.1.18.19.36.29.54.15.28.26.3.53.15.45-.26.93-.23,1.41-.12.06.02.14.06.17.12.06.09.09.19.14.29-.11.03-.22.1-.33.1-.67-.03-1.34-.03-1.92.36-.87.58-.8,1.71.06,2.23.7.42,1.43.45,2.14-.02.1-.07.19-.09.24.05.07.18.21.21.38.21.27,0,.55,0,.82,0,.3,0,.39-.09.39-.4,0-.39,0-.78,0-1.17h0ZM28.79,34.09c-.19.3-.68.4-.93.21-.14-.1-.3-.23-.2-.4.08-.15.25-.25.41-.34.08-.05.21,0,.32,0h0s.08-.02.12-.01c.13.03.35.05.36.11.04.13,0,.31-.08.43Z" fill="#149395" stroke-width="0"/><path d="M50.95,33.76s-.01,0-.02,0c0-.37,0-.74,0-1.1,0-1.19-.82-1.84-1.87-1.97-.78-.1-1.55.01-2.26.38-.21.11-.28.27-.18.48.09.2.19.39.3.58.1.19.28.25.43.14.41-.29.88-.26,1.34-.21.15.02.3.15.44.24.05.03.08.15.06.2-.02.05-.12.09-.19.1-.27,0-.53-.02-.8,0-.48.04-.94.11-1.36.39-.44.29-.67,1.2-.4,1.66.51.85,1.8,1.12,2.61.55.18-.13.24-.1.37.07.06.08.18.15.28.15.26.02.52,0,.78,0,.42,0,.48-.06.48-.49,0-.39,0-.78,0-1.17ZM49.14,34.06c-.17.23-.41.38-.73.33-.22-.03-.39-.19-.41-.39-.02-.18.11-.37.33-.42.13-.03.28-.03.42-.04,0,0,0,0,0,0,.05,0,.1,0,.14,0,.11.03.29.05.3.1.03.13.02.32-.05.41Z" fill="#149395" stroke-width="0"/><path d="M58.63,37.53c-.64-.03-1.31.68-1.33,1.24-.01.52.58,1.3,1.28,1.23.8.06,1.28-.62,1.3-1.19.02-.63-.58-1.24-1.25-1.27ZM59.44,38.8c0,.51-.35.84-.84.86-.41.02-.87-.39-.85-.87.02-.59.35-.84.87-.85.46,0,.88.31.82.86Z" fill="#149395" stroke-width="0"/><path d="M40,37.53c-.68,0-1.23.58-1.26,1.27-.03.57.59,1.26,1.26,1.19.66.06,1.24-.55,1.25-1.2,0-.73-.69-1.27-1.25-1.26ZM40.01,39.66c-.52.04-.85-.44-.88-.86-.03-.44.43-.87.88-.86.51.02.87.37.87.84,0,.47-.4.88-.86.88Z" fill="#149395" stroke-width="0"/><path d="M46.82,39.48c-.22-.26-.22-.26.03-.51.44-.44.29-.9-.18-1.23-.37-.27-.77-.2-1.18-.18-.22.01-.32.17-.32.39,0,.29,0,.58,0,.87,0,.28,0,.56,0,.84,0,.13,0,.27.18.27.16,0,.2-.12.2-.26,0-.18.02-.35.23-.41.21-.07.42,0,.56.19.1.13.18.29.3.39.08.07.26.11.35.06.14-.07.01-.16-.05-.24-.04-.06-.07-.12-.12-.17ZM46.25,38.92c-.09.02-.19.02-.23.03-.38.01-.47-.07-.47-.41,0-.07,0-.14-.01-.21-.03-.23.11-.39.34-.38.13,0,.27.02.39.05.28.06.37.18.37.45,0,.24-.16.43-.4.48Z" fill="#149395" stroke-width="0"/><path d="M51.78,39.43c-.12-.25-.25-.5-.37-.75-.12-.25-.21-.52-.35-.76-.07-.13-.2-.21-.31-.32-.11.12-.24.24-.32.38-.16.28-.3.57-.44.87-.13.27-.24.56-.34.84-.02.06.04.16.07.23.08-.03.21-.04.23-.1.13-.35.36-.42.73-.42.4,0,.74.01.9.45,0,.01.02.03.03.04.06.02.14.05.19.04.05-.02.08-.1.12-.15-.05-.13-.1-.23-.15-.34ZM51.06,38.95c-.02.07-.19.09-.29.13-.34-.03-.43-.17-.27-.46.05-.09.09-.18.15-.26.03-.05.08-.08.12-.12.04.04.08.08.11.13.04.08.07.17.1.26.03.11.11.24.08.33Z" fill="#149395" stroke-width="0"/></svg>