<?xml version="1.0" encoding="UTF-8"?><svg id="Capa_1" xmlns="http://www.w3.org/2000/svg" xmlns:xlink="http://www.w3.org/1999/xlink" viewBox="0 0 86 48"><defs><clipPath id="clippath"><rect x="42.88" y="21.97" width=".05" height=".03" fill="none" stroke-width="0"/></clipPath><clipPath id="clippath-1"><rect x="42.88" y="21.97" width=".05" height=".03" fill="none" stroke-width="0"/></clipPath><clipPath id="clippath-2"><rect x="42.31" y="23.51" width=".05" height=".03" fill="none" stroke-width="0"/></clipPath><clipPath id="clippath-3"><rect x="42.31" y="23.51" width=".05" height=".03" fill="none" stroke-width="0"/></clipPath><clipPath id="clippath-4"><rect x="42.88" y="18.53" width=".05" height=".03" fill="none" stroke-width="0"/></clipPath><clipPath id="clippath-5"><rect x="42.88" y="18.53" width=".05" height=".03" fill="none" stroke-width="0"/></clipPath><clipPath id="clippath-6"><rect x="42.31" y="20.07" width=".05" height=".03" fill="none" stroke-width="0"/></clipPath><clipPath id="clippath-7"><rect x="42.31" y="20.07" width=".05" height=".03" fill="none" stroke-width="0"/></clipPath></defs><g opacity=".37"><g clip-path="url(#clippath)"><g clip-path="url(#clippath-1)"><path d="M42.94,21.97s-.02.02-.03.03c0-.01-.02-.02-.03-.03,0,0,.02,0,.03,0,0,0,.02,0,.03,0" fill="#17b4e9" stroke-width="0"/></g></g></g><g opacity=".37"><g clip-path="url(#clippath-2)"><g clip-path="url(#clippath-3)"><path d="M42.36,23.51s-.02.02-.03.03c0-.01-.02-.02-.03-.03,0,0,.02,0,.03,0,0,0,.02,0,.03,0" fill="#17b6eb" stroke-width="0"/></g></g></g><rect x="0" width="86" height="48" rx="9" ry="9" fill="#fff" stroke-width="0"/><g opacity=".37"><g clip-path="url(#clippath-4)"><g clip-path="url(#clippath-5)"><path d="M42.94,18.53s-.02.02-.03.03c0-.01-.02-.02-.03-.03,0,0,.02,0,.03,0,0,0,.02,0,.03,0" fill="#17b4e9" stroke-width="0"/></g></g></g><g opacity=".37"><g clip-path="url(#clippath-6)"><g clip-path="url(#clippath-7)"><path d="M42.36,20.07s-.02.02-.03.03c0-.01-.02-.02-.03-.03,0,0,.02,0,.03,0,0,0,.02,0,.03,0" fill="#17b6eb" stroke-width="0"/></g></g></g><path d="M29.68,40c-.48,0-.88-.1-1.22-.27l.07-.44c.36.18.73.28,1.17.28.58,0,.86-.21.86-.47,0-.62-2.08-.18-2.07-1.24,0-.44.37-.88,1.33-.88.4,0,.81.07,1.12.18l-.07.42c-.36-.12-.69-.18-1.04-.18-.63,0-.83.23-.83.41,0,.6,2.07.14,2.07,1.23,0,.53-.49.93-1.38.93" fill="#149395" stroke-width="0"/><path d="M33.36,40c-1.25,0-1.73-.58-1.73-1.51s.48-1.5,1.73-1.5,1.73.57,1.73,1.5-.48,1.51-1.73,1.51M33.36,37.43c-.86,0-1.18.32-1.18,1.06s.33,1.07,1.18,1.07,1.18-.34,1.18-1.07-.32-1.06-1.18-1.06" fill="#149395" stroke-width="0"/><polygon points="38.49 39.49 38.47 39.94 35.95 39.94 35.95 37.05 36.47 37.05 36.47 39.49 38.49 39.49" fill="#149395" stroke-width="0"/><rect x="39.24" y="37.05" width=".53" height="2.89" fill="#149395" stroke-width="0"/><path d="M42.41,39.94h-1.5v-2.89h1.5c1.22,0,1.74.56,1.74,1.44,0,.96-.59,1.45-1.74,1.45M42.39,37.5h-.95v1.99h.95c.83,0,1.21-.28,1.21-1,0-.67-.34-.99-1.21-.99" fill="#149395" stroke-width="0"/><path d="M47.32,39.28h-1.96l-.35.66h-.57l1.61-2.89h.58l1.62,2.89h-.6l-.34-.66ZM46.21,37.67l-.64,1.21h1.55l-.62-1.21-.13-.28h-.01l-.14.28Z" fill="#149395" stroke-width="0"/><path d="M50.83,38.71h0s.21.24.21.24l.87,1h-.64l-.89-1.12h-.95v1.12h-.53v-2.89h1.5c.84,0,1.24.33,1.24.86,0,.41-.28.74-.8.8M50.37,37.45h-.96v1h.92c.53,0,.75-.18.75-.52,0-.31-.2-.48-.71-.48" fill="#149395" stroke-width="0"/><rect x="52.61" y="37.05" width=".53" height="2.89" fill="#149395" stroke-width="0"/><path d="M55.81,40c-1.25,0-1.73-.58-1.73-1.51s.48-1.5,1.73-1.5,1.73.57,1.73,1.5-.48,1.51-1.73,1.51M55.81,37.43c-.86,0-1.18.32-1.18,1.06s.33,1.07,1.18,1.07,1.18-.34,1.18-1.07-.32-1.06-1.18-1.06" fill="#149395" stroke-width="0"/><path d="M31.73,33.72h0s1.58,1.82,1.58,1.82h-1.31l-1.2-1.59h-1.25v1.59h-1.08v-4.47h2.36c1.36,0,2.05.52,2.05,1.4,0,.6-.41,1.13-1.14,1.25M30.78,31.88h-1.24v1.34h1.2c.7,0,1-.22,1-.7,0-.43-.27-.64-.96-.64" fill="#149395" stroke-width="0"/><path d="M37.84,34.64h-2.76l-.44.9h-1.16l2.4-4.47h1.2l2.42,4.47h-1.22l-.44-.9ZM36.26,32.22l-.79,1.62h1.99l-.78-1.62-.2-.44h-.02l-.2.44Z" fill="#149395" stroke-width="0"/><path d="M43.58,32.08c-.36-.11-.83-.21-1.38-.21-1.3,0-1.75.44-1.75,1.43,0,1.04.47,1.46,1.77,1.46.51,0,.97-.1,1.35-.25l.14.79c-.45.2-1.05.34-1.62.34-1.86,0-2.78-.87-2.78-2.34,0-1.37.87-2.32,2.87-2.32.55,0,1.14.11,1.52.24l-.12.86Z" fill="#149395" stroke-width="0"/><rect x="44.68" y="31.07" width="1.09" height="4.47" fill="#149395" stroke-width="0"/><polygon points="51.15 35.55 48.23 32.77 47.9 32.43 47.88 32.44 47.89 32.92 47.89 35.55 46.91 35.55 46.91 31.07 47.81 31.07 50.54 33.73 50.88 34.08 50.89 34.07 50.88 33.59 50.88 31.07 51.86 31.07 51.86 35.55 51.15 35.55" fill="#149395" stroke-width="0"/><path d="M57.45,35.36c-.48.17-1.18.29-1.84.29-2.06,0-2.94-.89-2.94-2.32s.89-2.34,2.94-2.34c.61,0,1.26.09,1.74.25l-.11.87c-.46-.15-1.01-.24-1.58-.24-1.35,0-1.85.41-1.85,1.44s.45,1.45,1.76,1.45c.36,0,.67-.04.94-.12v-1.42h.94v2.14Z" fill="#149395" stroke-width="0"/><path d="M43,27.55l-.38-.38c-.9-.9-2.19-1.38-3.71-1.38h-.04c-.11,0-1.06,0-2.03-.29-1.64-.49-1.88-1.42-1.88-1.93v-15.57h16.09v15.59c0,2.19-3.88,2.21-3.92,2.21h-.02c-1.5,0-2.82.49-3.72,1.37l-.39.38Z" fill="#149395" stroke-width="0"/><path d="M35.43,8.55v15.02c0,.79.81,1.2,1.49,1.4.91.27,1.83.27,1.87.27h.04c1.68,0,3.09.53,4.1,1.53,1.01-.99,2.45-1.53,4.1-1.53h.02s3.37-.05,3.37-1.66v-15.04h-15Z" fill="#fff" stroke-width="0"/><path d="M48.67,15.4c.54,0,1.01.28,1.27.71v-1.73c-.39-.2-.82-.31-1.27-.31-.53,0-1.03.15-1.45.4.13-.25.21-.53.21-.76,0-.52-.43-.95-.95-.95s-.95.43-.95.95c0,.22.08.51.2.76-.42-.26-.92-.4-1.45-.4-.45,0-.88.11-1.27.3-.39-.19-.82-.3-1.27-.3-.53,0-1.03.15-1.45.4.13-.25.2-.53.2-.76,0-.52-.43-.95-.95-.95s-.95.43-.95.95c0,.22.08.51.21.76-.43-.26-.92-.4-1.45-.4-.45,0-.89.11-1.28.31v1.73c.27-.42.74-.71,1.28-.71.83,0,1.5.67,1.5,1.5,0,.39-.15.74-.39,1.01l-2.38,2.39v1.88l3.34-3.35.02-.02s.18-.04.22,0l.02.02,3.33,3.34v.02h0s0,0,0,0v-.02l3.33-3.34.02-.02s.18-.04.22,0l.02.02,3.34,3.35v-1.88l-2.38-2.39c-.24-.27-.39-.62-.39-1.01,0-.83.67-1.5,1.5-1.5M39.53,15.12s0-.01-.01-.02c0,0,.01,0,.01,0,0,0,0,0,.02,0,0,0,0,.01-.02.02M45.38,17.91l-2.38,2.38-2.38-2.38c-.24-.27-.39-.62-.39-1.01,0-.83.67-1.5,1.5-1.5.53,0,.99.28,1.26.69v.02s0,0,0-.01c0,0,0,0,0,.01v-.02c.27-.41.73-.69,1.26-.69.83,0,1.5.67,1.5,1.5,0,.39-.15.74-.39,1.01M46.47,15.12s0-.01-.01-.02c0,0,0,0,.01,0,0,0,.01,0,.01,0,0,0,0,.01-.01.02" fill="#149395" stroke-width="0"/></svg>