<?xml version="1.0" encoding="UTF-8"?><svg id="Capa_1" xmlns="http://www.w3.org/2000/svg" xmlns:xlink="http://www.w3.org/1999/xlink" viewBox="0 0 86 48"><defs><clipPath id="clippath"><rect x="42.88" y="18.53" width=".05" height=".03" fill="none" stroke-width="0"/></clipPath><clipPath id="clippath-1"><rect x="42.88" y="18.53" width=".05" height=".03" fill="none" stroke-width="0"/></clipPath><clipPath id="clippath-2"><rect x="42.31" y="20.07" width=".05" height=".03" fill="none" stroke-width="0"/></clipPath><clipPath id="clippath-3"><rect x="42.31" y="20.07" width=".05" height=".03" fill="none" stroke-width="0"/></clipPath></defs><rect x="0" width="86" height="48" rx="9" ry="9" fill="#fff" stroke-width="0"/><g opacity=".37"><g clip-path="url(#clippath)"><g clip-path="url(#clippath-1)"><path d="M42.94,18.53s-.02.02-.03.03c0-.01-.02-.02-.03-.03,0,0,.02,0,.03,0,0,0,.02,0,.03,0" fill="#17b4e9" stroke-width="0"/></g></g></g><g opacity=".37"><g clip-path="url(#clippath-2)"><g clip-path="url(#clippath-3)"><path d="M42.36,20.07s-.02.02-.03.03c0-.01-.02-.02-.03-.03,0,0,.02,0,.03,0,0,0,.02,0,.03,0" fill="#17b6eb" stroke-width="0"/></g></g></g><path d="M38.39,21.64c-.34,0-.58.13-.73.37-.1.16-.17.36-.21.6h1.83c-.02-.24-.06-.45-.17-.6-.16-.24-.38-.37-.72-.37Z" fill="#149395" stroke-width="0"/><polygon points="37.44 22.62 37.44 22.62 37.44 22.62 37.44 22.62" fill="#fff" stroke-width="0"/><path d="M48.7,21.66c-.34,0-.58.12-.74.36-.16.24-.24.59-.24,1.03s.08.79.24,1.03c.16.24.4.36.74.36s.58-.12.74-.36c.16-.25.24-.59.24-1.03,0-.44-.08-.78-.24-1.03-.16-.24-.4-.36-.74-.36Z" fill="#149395" stroke-width="0"/><polygon points="49.68 23.04 49.68 23.04 49.68 23.04 49.68 23.04" fill="#fff" stroke-width="0"/><path d="M55.59,12.7c-1.33,0-2.64.28-3.86.82-1.37-2.42-3.9-4.05-6.83-4.05-2.2,0-4.18.92-5.61,2.41h0c-1.56-2.05-4.05-3.38-6.83-3.38-4.75,0-8.61,3.84-8.61,8.59,0,1.18.24,2.34.71,3.42-2.21,1.3-3.69,3.71-3.69,6.48,0,4.12,3.3,7.47,7.39,7.47.51,0,1.02-.05,1.52-.16,1.12,3.04,4.04,5.21,7.47,5.21s6.11-2,7.32-4.85c.95.46,2,.7,3.06.7,2.6,0,4.89-1.45,6.09-3.58.61.12,1.24.19,1.89.19,5.27,0,9.55-4.31,9.55-9.63s-4.28-9.63-9.55-9.63ZM30.38,23.87c0,.78-.56,1.26-1.47,1.26-.45,0-.87-.07-1.32-.31-.08-.05-.17-.09-.25-.15,0-.01-.05-.03-.02-.1h0s.18-.5.18-.5c.03-.09.09-.06.12-.04.05.03.09.06.15.09.53.33,1.02.34,1.17.34.39,0,.64-.21.64-.49v-.02c0-.31-.38-.42-.81-.56l-.1-.03c-.6-.17-1.24-.42-1.24-1.18v-.02c0-.72.58-1.22,1.41-1.22h.09c.49,0,.96.14,1.3.35.03.02.06.05.04.1-.02.05-.17.45-.19.5-.03.09-.12.03-.12.03-.3-.16-.76-.29-1.15-.29-.35,0-.58.19-.58.44v.02c0,.3.39.42.84.57l.08.03c.6.19,1.23.45,1.23,1.17v.02ZM34.1,24.87s-.09.03-.18.05c-.21.05-.43.09-.65.13-.25.04-.52.06-.78.06s-.48-.02-.68-.07c-.2-.05-.38-.12-.52-.23-.14-.1-.26-.24-.34-.4-.08-.16-.12-.36-.12-.59s.05-.42.14-.59c.09-.17.22-.31.37-.42.15-.11.34-.19.54-.25.2-.05.41-.08.63-.08.16,0,.3,0,.4.01h0s.2.02.42.06v-.11c0-.34-.07-.5-.21-.61-.14-.11-.36-.17-.63-.17,0,0-.62,0-1.12.26-.02.01-.04.02-.04.02,0,0-.06.02-.08-.04l-.18-.49c-.03-.07.02-.1.02-.1.23-.18.79-.29.79-.29.19-.04.5-.06.69-.06.51,0,.91.12,1.18.35.27.24.41.62.41,1.13v2.34s0,.07-.06.08ZM35.82,24.95s-.03.08-.07.08h-.68s-.07-.03-.07-.08v-5.48s.03-.08.07-.08h.68s.07.03.07.08v5.48ZM40.08,23.19c0,.07-.07.07-.07.07h-2.57c.01.39.11.66.3.85.19.18.48.3.88.3.61,0,.87-.12,1.05-.19,0,0,.07-.03.1.04l.17.47c.03.08,0,.11-.02.12-.16.09-.55.25-1.29.26-.36,0-.67-.05-.93-.15-.26-.1-.48-.24-.65-.43-.17-.18-.29-.4-.37-.65-.08-.25-.12-.52-.12-.82s.04-.57.11-.82c.07-.26.19-.48.35-.67.16-.19.35-.34.59-.45.24-.11.53-.16.85-.16.25,0,.5.05.74.15.16.07.32.19.49.37.1.11.26.36.33.6h0c.16.58.08,1.08.08,1.11ZM40.87,24.82c-.08-.05-.17-.09-.25-.15,0-.01-.05-.03-.02-.1h0s.18-.5.18-.5c.03-.08.1-.05.12-.04.05.03.09.06.15.09.53.33,1.02.34,1.17.34.39,0,.64-.21.64-.49v-.02c0-.31-.38-.42-.81-.56l-.1-.03c-.6-.17-1.24-.42-1.24-1.18v-.02c0-.72.58-1.22,1.41-1.22h.09c.49,0,.96.14,1.3.35.03.02.06.05.04.1-.01.05-.17.45-.18.5-.03.09-.12.03-.12.03-.3-.16-.76-.29-1.15-.29-.35,0-.58.19-.58.44v.02c0,.3.39.42.84.57l.08.03c.6.19,1.23.45,1.23,1.17v.02c0,.78-.56,1.26-1.47,1.26-.45,0-.87-.07-1.32-.31ZM46.69,21.66c-.01.08-.09.07-.09.07h-.85l-.58,3.27c-.06.34-.14.63-.23.86-.09.24-.18.41-.33.57-.14.15-.29.27-.47.33-.18.06-.39.1-.63.1-.11,0-.23,0-.38-.04-.1-.02-.16-.04-.23-.07-.03-.01-.06-.05-.04-.1.02-.05.17-.47.19-.52.03-.07.09-.04.09-.04.05.02.08.03.14.04.06.01.14.02.21.02.11,0,.21-.01.3-.04.11-.04.17-.1.23-.18.07-.09.12-.21.18-.36.06-.16.11-.37.15-.63l.58-3.21h-.57c-.07,0-.09-.03-.08-.08l.1-.53c.02-.08.09-.07.09-.07h.58l.03-.17c.09-.52.26-.91.52-1.16.26-.26.62-.39,1.09-.39.12,0,.23,0,.35.03.09.01.17.04.25.06.02,0,.07.03.05.09l-.2.54s-.03.07-.11.04c-.02,0-.05-.02-.13-.03-.06-.01-.13-.02-.21-.02-.09,0-.19.01-.28.04-.08.03-.16.07-.21.13-.06.06-.14.16-.18.27-.09.27-.13.56-.14.58h.82c.07,0,.09.03.08.08l-.1.53ZM50.44,23.86c-.07.25-.19.47-.34.66-.15.19-.35.33-.58.44s-.5.16-.81.16-.58-.05-.81-.16c-.23-.11-.43-.25-.58-.44-.15-.19-.27-.41-.34-.66-.07-.25-.11-.52-.11-.82s.04-.56.11-.82c.07-.25.19-.47.34-.66.15-.19.35-.33.58-.44.23-.11.5-.16.81-.16s.58.05.81.16c.23.11.43.26.58.44.15.19.27.41.34.66h0c.07.25.11.53.11.82s-.04.56-.11.82ZM53.58,21.17s0,0,0,0c-.03.08-.15.42-.19.53-.02.04-.04.07-.09.07,0,0-.15-.03-.28-.03-.12,0-.23.02-.34.05-.12.04-.23.1-.32.19-.09.09-.17.22-.22.38-.06.16-.08.42-.08.67v1.92s-.03.08-.08.08h-.67s-.08-.03-.08-.08v-3.82s.03-.08.07-.08h.66s.07.03.07.08v.31c.1-.13.27-.25.43-.32.16-.07.34-.13.66-.11.17.01.39.06.43.07,0,0,0,0,0,0,.03.01.05.05.04.09,0,0,0,0,0,0h0ZM56.82,24.91c-.29.11-.69.19-1.07.19-.66,0-1.16-.19-1.5-.56-.34-.37-.5-.88-.5-1.51,0-.29.04-.57.12-.82.08-.25.21-.47.37-.66.16-.19.37-.33.61-.44.24-.11.53-.16.84-.16.21,0,.41.01.57.04.18.03.41.09.51.13.02,0,.07.03.05.09-.07.2-.12.33-.19.52-.03.08-.09.05-.09.05-.25-.08-.49-.11-.8-.11-.37,0-.66.13-.84.37-.19.25-.29.57-.29,1,0,.47.12.82.33,1.04.21.22.5.33.87.33.15,0,.29,0,.41-.03.13-.02.24-.06.35-.1,0,0,.07-.03.1.05h0l.19.51c.02.06-.03.09-.03.09ZM60.63,23.19c0,.07-.07.07-.07.07h-2.57c.01.39.11.66.3.85.19.18.48.3.88.3.61,0,.87-.12,1.05-.19,0,0,.07-.03.1.04l.17.47c.03.08,0,.11-.02.12-.16.09-.55.25-1.29.26-.36,0-.67-.05-.93-.15-.26-.1-.48-.24-.65-.43-.17-.18-.29-.4-.37-.65-.08-.25-.12-.52-.12-.82s.04-.57.11-.82c.07-.26.19-.48.35-.67.16-.19.35-.34.59-.45.24-.11.53-.16.85-.16.25,0,.5.05.74.15.16.07.32.19.49.37.1.11.26.36.33.6h0c.16.58.08,1.08.08,1.11Z" fill="#149395" stroke-width="0"/><path d="M58.94,21.64c-.34,0-.58.13-.73.37-.11.16-.17.36-.21.6h1.83c-.02-.24-.06-.45-.17-.6-.16-.24-.38-.37-.72-.37Z" fill="#149395" stroke-width="0"/><polygon points="57.99 22.62 57.99 22.62 57.99 22.62 57.99 22.62" fill="#fff" stroke-width="0"/><path d="M33.34,23.19c-.23-.04-.46-.06-.7-.06-.52,0-.75.19-.75.19-.15.11-.23.27-.23.5,0,.14.03.25.08.33.03.05.05.07.15.15h0s.23.18.75.15c.37-.02.69-.09.69-.09h0v-1.17Z" fill="#149395" stroke-width="0"/></svg>