<?xml version="1.0" encoding="UTF-8"?><svg id="Capa_1" xmlns="http://www.w3.org/2000/svg" viewBox="0 0 86 48"><rect x="0" width="86" height="48" rx="9" ry="9" fill="#fff" stroke-width="0"/><path d="M22.94,14.17c.07-.03.48-.21.61-.26.06-.02.17,0,.16-.07-.27-.17-.72.09-.77.34Z" fill="#149395" stroke-width="0"/><path d="M35.54,21.48c-.13-.46-.53-1.24-1.84-1.36-.19-.02-.35-.06-.5-.1-.24-.07-.49-.14-.84-.09-2.24.29-4.35-.7-4.98-1.29h-.01c-.22-.17-.91-.78-.29-1.68.05-.07.07-.17.1-.37.04-.25.1-.6.25-.74.33-.32.35-.46.37-.67,0-.04,0-.09.02-.13.44-.28.84-.8.37-1.69.01-.01.03-.03.04-.04.05-.05.12-.1.16-.19.07-.13.13-.78.02-1-.04-.21-.26-.63-.43-.75-.04-.03-.08-.05-.11-.07-.13-.08-.23-.13-.34-.81-.08-.47-.4-.89-.97-1.25-.71-.48-1.71-.76-2.75-.76-1.25,0-2.41.39-3.11,1.04h-.01s0,0,0,0c-.41.39-.63.85-.63,1.33,0,.02,0,.04,0,.05h0s0,0,0,0c0,.42-.06.84-.14.9-.02.01-.09.03-.14.04-.11.03-.23.06-.3.12-.2.17-.3.67-.31.79,0,.1.04.19.1.28.02.03.05.09.05.11.04.23-.01.29-.08.37-.02.03-.05.06-.07.09-.31.5,0,1.17.97,2.17.17.18.45.35.72.52.22.14.42.27.56.39,1.02.9.89,2.84.09,3.97-.69.97-1.81,1.78-3.64,2.62-.04.01-.13.06-.17.08-1.58.69-1.76,2.19-1.73,3.42,0,.04,0,.08,0,.13h0c.08,1.97.48,3.76.65,4.44.04.16.1.42.15.66.1.43.14.6.15.64l.02.05.05.02c.62.32,1.84.35,2.67.08.61-.2,1.15-.55,1.43-.9.17.37.61,1.3,1.77,3.71.22.51.45.98.67,1.4l.24.45c.85,1.53,1.37,1.91,1.39,1.93l.11.08.08-.12c1.19-1.78,3.62-2.57,5.56-3.2,1.84-.6,3.3-1.07,3.05-2.17v-.02s-1.12-3.13.9-7.73l.03-.08-.05-.06s-.67-.81-.55-1.79c.08-.63.46-1.2,1.15-1.69.16-.12.24-.67.1-1.17Z" fill="#fff" stroke-width="0"/><path d="M21.64,20.8c.86-1.21.95-3.23-.11-4.15-.32-.28-.98-.6-1.28-.91-1-1.01-1.2-1.61-.95-2.01.08-.13.24-.19.17-.56-.02-.09-.16-.26-.15-.35.02-.17.12-.58.26-.7.09-.07.36-.1.43-.16.21-.16.19-1.02.19-1.02,0,0,.11.77.06,1.02-.07.37-.53.81-.55,1.39-.02.62.37.9.49.88.51-.06.18.8,1.11.69,0,0,.77.07.15.83-.22.27.14.56.27.66,1.11.83,1.56,3.78-.53,5.27-2.45,1.75-3.43,1.85-3.43,1.85,2.16-.97,3.23-1.85,3.87-2.74Z" fill="#149395" stroke-width="0"/><path d="M23.53,14.24s-.76.19-1.01.09c-.08-.14.34-.37.47-.44.19-.09.29-.22.46-.26.01-.02.39-.21.62-.2,0,0,.4.02.39.08.05.09.15.45.02.71-.03.07-.24.38-.33.44-.13.07-.52-.06-.52-.05-.06-.17.21-.14.31-.25-.04-.06-.38-.11-.4-.11Z" fill="#149395" stroke-width="0"/><path d="M23.49,33.11c-.3,1,.27,4.01.25,4.07,0,0-2.6-5.43-2.62-5.51-.16.36-.76.81-1.49,1.06-.78.26-1.98.24-2.57-.07-.02-.06-.21-.9-.3-1.28-.26-1.06-.57-2.65-.64-4.33,0,0,.23,2.34,1.07,4.24.03-1.65,3.83-1.09,3.56-2.37,0,0-.08-.48-.34-1.06-.18-.4-.85-.96-.93-1.01,0-.03.23-.8.19-.84.17-.04.39.1.37.33-.05.55.16.86.38,1.16.14.2.51.3.5.71-.13,3.66,3.63,3.38,4.5,1.67.28,1.71-1.39,1.46-1.92,3.23Z" fill="#149395" stroke-width="0"/><path d="M35.36,22.56c-2.32,1.67-.62,3.67-.62,3.67-2.07,4.72-.91,7.83-.91,7.83.47,2.05-6.27,1.8-8.59,5.26.02-.05.76-2.92,3.02-5.13,1.93-1.9.53-4.1.53-4.1,2.48.78,3.87-1.35,3.18-3.15-.45-1.16-.17-2.5.7-3.08,0,0,.83-.92,1.14-1.24.21-.15.38-.4.4-.42.22-.23.05-.6-.27-.65-.05,0-3.32.45-3.3.43-1.45,0-3-1.2-4.18-.2-.88.74-.9,2.3-.9,2.3-.26.54.11-2.97-1.27-3.53-.26-.19.88-.27.68-.88-.07-.21-1.84-.93-1.44-.99.18-.03.99.1,1.24-.02.55-.25.38-1.04.38-1.11-.14-.03-.29.02-.44-.01-.08-.17.12-.3.2-.41.13.04.39-.16.37-.23-.55-.23-.9.17-1.31.34-.04-.07.11-.66.28-.68.04,0,.11.32.28.19.28-.23.5-.22.51-.24.14.12.41.05.43-.12-.01-.04-.05-.06-.1-.06-.04.02-.06.07-.09.1-.07.02-.13-.04-.13-.04-.03-.15.05-.25-.03-.39-.03.01-.47.02-.48-.15.14-.14.5-.12.55.09.61-.05.32-.74.32-.74,0,0-.52-1.86-.53-1.94,0,0,.05-.5.02-.66-.04-.24.07-.71-.31-.9-.3-.15-1.36-.69-.7-1.2.41-.32.05-1.05-1.39-1.15-.03,0-1.21-.12-1.84.34,1.28-1.16,3.63-1.2,4.93-.66.93.38,1.56.88,1.67,1.54.15.89.29.81.51.97.19.13.39.65.38.69.09.09.06.75,0,.88-.07.13-.23.18-.24.29,0,.06.68.99-.34,1.61-.07.32.05.38-.36.79-.27.27-.27,1-.36,1.13-.73,1.05.19,1.76.32,1.86.72.67,2.9,1.6,5.09,1.32.53-.07.81.15,1.31.2,2.1.19,1.86,2.15,1.67,2.29Z" fill="#149395" stroke-width="0"/><path d="M25.05,13.21s-.04.03-.04.03c.01.01.05-.01.04-.03Z" fill="#149395" stroke-width="0"/><path d="M25.06,13.1s0,0,0-.01h0Z" fill="#149395" stroke-width="0"/><path d="M36.99,20.04l.23-.21c.17.21.48.41.86.41.49,0,.81-.24.81-.61,0-.39-.24-.58-.65-.76l-.37-.16c-.54-.23-.75-.54-.75-.96,0-.5.5-.83,1-.83.42,0,.77.19.98.45l-.23.21c-.18-.22-.41-.37-.77-.37s-.68.21-.68.56c0,.29.14.49.55.66l.37.16c.48.21.86.49.86,1,0,.54-.41.94-1.12.94-.49,0-.89-.25-1.09-.49Z" fill="#149395" stroke-width="0"/><path d="M39.48,18.72c0-1.02.79-1.81,1.81-1.81s1.8.78,1.8,1.81-.79,1.81-1.8,1.81-1.81-.78-1.81-1.81ZM42.77,18.72c0-.85-.64-1.51-1.49-1.51s-1.49.66-1.49,1.51.64,1.51,1.49,1.51,1.49-.66,1.49-1.51Z" fill="#149395" stroke-width="0"/><path d="M43.32,18.72c0-1.02.79-1.81,1.8-1.81.43,0,.82.14,1.12.38l-.17.25c-.25-.21-.57-.34-.95-.34-.85,0-1.49.66-1.49,1.51s.64,1.51,1.49,1.51c.38,0,.7-.13.95-.34l.16.25c-.3.24-.69.38-1.12.38-1.01,0-1.8-.78-1.8-1.81Z" fill="#149395" stroke-width="0"/><path d="M46.76,16.96h.31v3.53h-.31v-3.53Z" fill="#149395" stroke-width="0"/><path d="M47.9,16.96h1.98v.29h-1.67v1.27h1.37v.3h-1.37v1.38h1.67v.29h-1.98v-3.53Z" fill="#149395" stroke-width="0"/><path d="M50.48,16.96h.98c1.12,0,1.91.74,1.91,1.77s-.79,1.77-1.91,1.77h-.98v-3.53ZM51.46,20.2c.96,0,1.6-.62,1.6-1.47s-.63-1.47-1.6-1.47h-.67v2.94h.67Z" fill="#149395" stroke-width="0"/><path d="M54.93,16.92l1.71,3.57h-.32l-.52-1.08h-1.73l-.51,1.08h-.33l1.7-3.57ZM54.21,19.11h1.45l-.73-1.53-.72,1.53Z" fill="#149395" stroke-width="0"/><path d="M57.01,16.96h.98c1.12,0,1.92.74,1.92,1.77s-.79,1.77-1.92,1.77h-.98v-3.53ZM57.99,20.2c.96,0,1.6-.62,1.6-1.47s-.63-1.47-1.6-1.47h-.67v2.94h.67Z" fill="#149395" stroke-width="0"/><path d="M38.6,21.97l1.71,3.57h-.32l-.52-1.08h-1.73l-.51,1.08h-.32l1.7-3.57ZM37.88,24.17h1.45l-.73-1.53-.73,1.53Z" fill="#149395" stroke-width="0"/><path d="M41.45,23.94h-.46v1.6h-.31v-3.53h.93c.73,0,1.15.36,1.15.97,0,.54-.35.9-.96.96l1.34,1.6h-.38l-1.31-1.6ZM41.61,23.66c.56,0,.83-.25.83-.68s-.27-.68-.83-.68h-.62v1.36h.62Z" fill="#149395" stroke-width="0"/><path d="M43.06,23.77c0-1.03.79-1.81,1.8-1.81.45,0,.86.14,1.17.38l-.18.25c-.25-.2-.59-.33-.99-.33-.85,0-1.49.66-1.49,1.51s.64,1.51,1.49,1.51c.32,0,.66-.07.9-.21v-1.2h-1.02l.13-.3h1.2v1.67c-.33.21-.79.34-1.21.34-1.02,0-1.8-.78-1.8-1.8Z" fill="#149395" stroke-width="0"/><path d="M46.8,22.01h1.98v.29h-1.67v1.27h1.37v.3h-1.37v1.38h1.67v.29h-1.98v-3.53Z" fill="#149395" stroke-width="0"/><path d="M49.69,22.73v2.81h-.31v-3.57l2.63,2.85v-2.81h.31v3.57l-2.63-2.85Z" fill="#149395" stroke-width="0"/><path d="M53.75,22.3h-1v-.29h2.31v.29h-1v3.24h-.31v-3.24Z" fill="#149395" stroke-width="0"/><path d="M55.49,22.01h.31v3.53h-.31v-3.53Z" fill="#149395" stroke-width="0"/><path d="M56.94,22.73v2.81h-.31v-3.57l2.63,2.85v-2.81h.31v3.57l-2.63-2.85Z" fill="#149395" stroke-width="0"/><path d="M61.65,21.97l1.7,3.57h-.32l-.52-1.08h-1.73l-.51,1.08h-.32l1.7-3.57ZM60.92,24.17h1.45l-.73-1.53-.73,1.53Z" fill="#149395" stroke-width="0"/><path d="M64.5,22.01h.98c1.13,0,1.92.74,1.92,1.77s-.79,1.77-1.92,1.77h-.98v-3.53ZM65.48,25.25c.97,0,1.6-.62,1.6-1.47s-.63-1.47-1.6-1.47h-.67v2.94h.67Z" fill="#149395" stroke-width="0"/><path d="M67.93,22.01h1.98v.29h-1.67v1.27h1.37v.3h-1.37v1.38h1.67v.29h-1.98v-3.53Z" fill="#149395" stroke-width="0"/><path d="M37.21,26.85l1.89,1.9,1.89-1.9v3.84h-.86v-1.86l-1.04,1.04-1.04-1.04v1.86h-.86v-3.84Z" fill="#149395" stroke-width="0"/><path d="M43.1,26.85l1.87,3.84h-.9l-.27-.59h-1.4l-.27.59h-.9l1.87-3.84ZM43.46,29.41l-.36-.79-.36.79h.72Z" fill="#149395" stroke-width="0"/><path d="M44.93,29.99l.65-.53c.17.26.44.47.7.47s.36-.1.36-.27-.12-.28-.44-.42l-.21-.1c-.57-.26-.89-.68-.89-1.19,0-.66.55-1.1,1.15-1.1.42,0,.75.1,1.07.48l-.58.61c-.19-.24-.31-.28-.49-.28-.14,0-.29.09-.29.26,0,.2.17.31.51.46l.2.09c.52.24.83.62.83,1.14,0,.68-.5,1.13-1.21,1.13-.61,0-1.1-.25-1.36-.74Z" fill="#149395" stroke-width="0"/><path d="M48.46,27.74h-.91v-.85h2.68v.85h-.91v2.95h-.86v-2.95Z" fill="#149395" stroke-width="0"/><path d="M50.32,28.79c0-1.07.87-1.94,1.94-1.94s1.94.87,1.94,1.94-.87,1.94-1.94,1.94-1.94-.87-1.94-1.94ZM53.34,28.79c0-.61-.46-1.12-1.08-1.12s-1.08.51-1.08,1.12.47,1.12,1.08,1.12,1.08-.51,1.08-1.12Z" fill="#149395" stroke-width="0"/><path d="M54.67,26.89h.86v2.95h1.48v.85h-2.33v-3.8Z" fill="#149395" stroke-width="0"/><path d="M57.01,28.79c0-1.07.87-1.94,1.94-1.94s1.94.87,1.94,1.94-.87,1.94-1.94,1.94-1.94-.87-1.94-1.94ZM60.03,28.79c0-.61-.47-1.12-1.08-1.12s-1.08.51-1.08,1.12.47,1.12,1.08,1.12,1.08-.51,1.08-1.12Z" fill="#149395" stroke-width="0"/><path d="M61.18,28.79c0-1.07.87-1.94,1.94-1.94.65,0,1.17.26,1.54.72l-.65.53c-.23-.29-.48-.42-.89-.42-.61,0-1.08.51-1.08,1.12s.46,1.12,1.08,1.12c.31,0,.55-.05.73-.19v-.53h-.91l.36-.8h1.38v1.72c-.38.43-.92.62-1.56.62-1.07,0-1.94-.87-1.94-1.94Z" fill="#149395" stroke-width="0"/><polygon points="65.45 26.12 66.33 26.12 66.03 26.74 65.16 26.74 65.45 26.12" fill="#149395" stroke-width="0"/><rect x="65.18" y="26.89" width=".86" height="3.8" fill="#149395" stroke-width="0"/><path d="M68.15,26.85l1.87,3.84h-.9l-.27-.59h-1.4l-.27.59h-.9l1.87-3.84ZM68.5,29.41l-.36-.79-.36.79h.72Z" fill="#149395" stroke-width="0"/><path d="M51.8,32.84h-.43v1.93h.43c.61,0,1.02-.41,1.02-.96s-.41-.96-1.02-.96Z" fill="#149395" stroke-width="0"/><path d="M59.94,33.73c-.31,0-.53.24-.53.54s.22.54.53.54.53-.24.53-.54-.21-.54-.53-.54Z" fill="#149395" stroke-width="0"/><path d="M45.45,32.84h-.43v1.93h.43c.61,0,1.02-.41,1.02-.96s-.41-.96-1.02-.96Z" fill="#149395" stroke-width="0"/><path d="M58.09,32.79c-.31,0-.53.25-.53.55s.21.54.53.54.53-.24.53-.54-.22-.55-.53-.55Z" fill="#149395" stroke-width="0"/><path d="M37.09,31.86v3.87h32.85v-3.87h-32.85ZM45.45,35.07h-.75v-2.54h.75c.78,0,1.35.54,1.35,1.27s-.57,1.27-1.35,1.27ZM48.71,32.85h-1.14v.77h.93v.31h-.93v.83h1.14v.31h-1.46v-2.54h1.46v.31ZM49.78,35.1c-.37,0-.68-.18-.83-.39l.25-.21c.12.16.33.3.58.3.29,0,.48-.14.48-.36s-.14-.35-.41-.47l-.23-.1c-.39-.16-.55-.4-.55-.72,0-.39.36-.64.74-.64.3,0,.54.12.71.33l-.23.23c-.13-.16-.27-.24-.49-.24s-.4.12-.4.33c0,.19.11.31.38.43l.23.1c.34.15.6.36.6.72,0,.41-.31.7-.8.7ZM51.8,35.07h-.75v-2.54h.75c.78,0,1.35.54,1.35,1.27s-.57,1.27-1.35,1.27ZM55.05,32.85h-1.14v.77h.93v.31h-.93v.83h1.14v.31h-1.46v-2.54h1.46v.31ZM56.78,35.07h-.31v-2.26l.31-.31v2.57ZM58.78,33.8l-.76,1.27h-.35l.56-.94s-.08.02-.16.02c-.45,0-.83-.37-.83-.83s.37-.83.84-.83.84.37.84.83c0,.18-.07.33-.15.47ZM59.94,35.1c-.47,0-.84-.37-.84-.83,0-.18.06-.33.15-.47l.76-1.27h.35l-.56.94s.08-.02.16-.02c.45,0,.83.37.83.83s-.37.83-.84.83ZM61.39,35.07h-.33l1.08-2.25h-1.2v-.29h1.66l-1.21,2.54Z" fill="#149395" stroke-width="0"/></svg>