<?xml version="1.0" encoding="UTF-8"?><svg id="Capa_1" xmlns="http://www.w3.org/2000/svg" xmlns:xlink="http://www.w3.org/1999/xlink" viewBox="0 0 86 48"><defs><clipPath id="clippath"><rect x="42.88" y="18.53" width=".05" height=".03" fill="none" stroke-width="0"/></clipPath><clipPath id="clippath-1"><rect x="42.88" y="18.53" width=".05" height=".03" fill="none" stroke-width="0"/></clipPath><clipPath id="clippath-2"><rect x="42.31" y="20.07" width=".05" height=".03" fill="none" stroke-width="0"/></clipPath><clipPath id="clippath-3"><rect x="42.31" y="20.07" width=".05" height=".03" fill="none" stroke-width="0"/></clipPath></defs><rect x="0" width="86" height="48" rx="9" ry="9" fill="#fff" stroke-width="0"/><g opacity=".37"><g clip-path="url(#clippath)"><g clip-path="url(#clippath-1)"><path d="M42.94,18.53s-.02.02-.03.03c0-.01-.02-.02-.03-.03,0,0,.02,0,.03,0,0,0,.02,0,.03,0" fill="#17b4e9" stroke-width="0"/></g></g></g><g opacity=".37"><g clip-path="url(#clippath-2)"><g clip-path="url(#clippath-3)"><path d="M42.36,20.07s-.02.02-.03.03c0-.01-.02-.02-.03-.03,0,0,.02,0,.03,0,0,0,.02,0,.03,0" fill="#17b6eb" stroke-width="0"/></g></g></g><path d="M29.2,21.28h0c-.55-1.37-1.41-1.99-2.04-2.45-.05-.04-.1-.07-.15-.11-.03-.02-.06-.04-.08-.06h0c.02-.99-.89-1.39-.9-1.39-.04-.02-.08,0-.1.03s-.02.08.01.11l.19.18s.06.05.09.07c.16.13.34.27.38.61-.46-.51-1.16-1.03-1.49-1.26,0-.11-.09-.22-.22-.29-.08-.05-.17-.07-.25-.07-.09,0-.17.04-.21.1-.07.13.01.3.2.41.08.05.17.07.25.07.33.23,1.29.94,1.7,1.51-.02.1-.04.21-.08.32-.07,0-.13,0-.18.04-.15.1-.15.37,0,.61-.21.74-.48,1.18-.62,1.37-.57-.29-2.18-1.05-3.05-1.36-.02-.18-.13-.33-.29-.41-.07-.03-.14-.05-.22-.05-.2,0-.38.11-.46.29-.12.25-.01.56.24.68.07.03.14.05.22.05.15,0,.28-.06.38-.17.53.2,1.36.57,2.04.89-.03,0-.06,0-.08,0-.2.06-.33.24-.35.43-.78.18-1.78.53-2.65.96,0-.01,0-.02,0-.04,0-.28-.23-.51-.51-.51-.07,0-.14.02-.21.04l-1.07-.79c.11-.08.18-.22.18-.39,0-.26-.17-.47-.37-.47-.01,0-.02,0-.03,0-.09-.26-.17-.6-.23-.96.47-.31,1-.65,1.42-.87.44-.23,1-.42,1.5-.58.54.34,1.19.76,1.73,1.18-.03.16.03.35.18.49.21.19.5.21.66.05.16-.17.11-.46-.1-.65-.17-.16-.4-.2-.56-.12-.48-.37-1.04-.75-1.53-1.06.15-.04.29-.08.4-.11.09.07.22.13.36.14.03,0,.07,0,.1,0,.25,0,.44-.11.46-.28.01-.1-.04-.19-.14-.27-.09-.07-.21-.11-.34-.13-.04-.1-.08-.23-.1-.3-.01-.04.01-.14.05-.22.06.12.18.23.35.26.25.04.49-.09.52-.29,0-.01,0-.03,0-.04-.24-.16-.52-.25-.82-.3,0,0-.02.02-.03.03-.06-.02-.12-.03-.17-.04h0s0,0,0,0c-.06-.01-.11-.03-.16-.03-2-.41-3.49.1-4.43.5-2.52.99-3.79,2.84-4.07,3.54l.66-.78c.7-.73,1.33-1.58,2.85-2.25.18-.04.33-.07.49-.11-.08.09-.16.19-.23.3-.47.43-.9.9-1.18,1.27-.06.01-.13.03-.18.07-.22.13-.31.38-.21.56,0,0,.01.02.02.03-.11.29-.24.69-.35,1.15-.54.27-.98.55-1.32.84-.02,0-.03,0-.05,0-.15,0-.32.13-.43.33-.06.12-.09.24-.08.35,0,.13.06.22.15.27.03.02.07.03.11.03.15,0,.32-.13.43-.33.06-.11.09-.23.08-.34.29-.25.65-.47,1-.66-.25,1.13-.43,2.5-.34,3.61-.03.01-.05.03-.08.05-.21.17-.22.51-.02.75.11.13.26.21.41.22.2.28.45.58.71.87-.01.02-.03.05-.04.07-.04-.01-.07-.01-.11,0-.1.02-.18.09-.22.21-.04.1-.05.23-.03.36,0,.01,0,.03,0,.04-.28.36-.46.82-.51,1.26-.46-.49-.91-1.04-1.29-1.63-.21-.76-.29-1.43-.32-1.88.09,0,.19-.04.26-.1.21-.17.22-.51.02-.75-.2-.24-.53-.29-.74-.12-.21.17-.22.51-.02.75.05.06.11.11.17.14.01.29.05.64.12,1.04-.02-.05-.05-.1-.07-.14-.52-1.15-.51-1.33-.55-1.81l-.05-.64s0,.06,0,.09c-.05.41-.14,1.25.41,2.45.13.29.28.58.45.87.31,1.15.9,2.46,1.97,3.43,2.1,1.9,3.37,2.04,3.43,2.05,0,0,.09.05.13-.1.04-.14-.1-.2-.1-.2-.01,0-1.25-.15-3.26-1.97-.75-.68-1.24-1.51-1.57-2.32.28.36.62.72,1,1.07,0,0,0,0,0,0-.04,0-.07.01-.1.03-.04.04-.08.11-.02.26.04.09.1.19.18.28.11.13.28.27.42.27.04,0,.07-.01.1-.03.08-.07.05-.22-.04-.36.36.29.75.57,1.2.85l-.69-.58c-.22-.18-.45-.38-.68-.6-.03-.36.06-.84.35-1.28.05.04.1.06.15.07.19.5.54,1.25.88,1.99.1.22.2.42.27.58-.01.06-.01.12,0,.19.03.21.17.36.31.33.14-.02.23-.2.2-.41-.03-.19-.14-.32-.27-.34-.06-.14-.14-.3-.22-.49-.26-.55-.68-1.47-.9-2.02.06-.11.07-.25.05-.4,0-.06-.02-.11-.04-.16.01-.02.03-.05.04-.08.53.56,1.08,1.06,1.41,1.34-.06.15-.05.31.06.41.14.14.4.12.56-.04.17-.17.19-.42.04-.56-.12-.12-.31-.12-.47-.03-.33-.29-.92-.82-1.47-1.4.32-.67.78-1.46,1.4-1.98.42-.35,1-.83,1.48-1.22,0,.03.01.07.03.09.09.15.28.22.48.18.25.92.5,2.34.57,3.13-.02,0-.04.02-.05.03-.25.15-.36.44-.24.64.12.2.43.24.68.09.01,0,.02-.01.03-.02.26.12.53.22.8.32-.1.45-.24.89-.44,1.26-.74,1.4-1.4,1.83-1.43,1.84,0,0,0,0-.01,0l-.15.1-.23.18-.17.13s-.04.07-.03.1l-.24.03s-.08.04-.07.08c0,.04.03.08.08.08.11.01.28.02.48.02.49,0,1.08-.03,1.6-.09.44-.05,1.03-.13,1.56-.28-.37.34-.89.67-1.44.74-.06,0-.14.02-.25.04-.29.05-.72.12-1.02.14-.04,0-.08.04-.08.08,0,.04.03.08.08.08l.69.05s0,0,0,0c0,0,.05,0,.12,0,.11,0,.27,0,.3,0,.06,0,.17-.02.41-.05.13-.02.48-.07.96-.18.69-.15,1.65-.41,2.35-.82.04-.02.05-.06.04-.1-.01-.04-.05-.06-.09-.05l-.23.05s0,0-.01,0c-.5.17-1.19.36-1.87.51.38-.29.66-.6.77-.79.06-.03.11-.07.16-.1.06-.05.13-.09.2-.14.8-.57,1.86-1.33,2.59-3.02,0,.11.06.2.14.26.09.06.21.07.33.02.18.52.24,1.25-.4,1.97l-.13.12s-.04.08-.01.11c.02.03.07.05.11.03.45-.24.8-.73.95-1.33.19-.74.07-1.56-.32-2.32.03-.07.04-.15.04-.23,0-.23-.12-.43-.29-.5-.22-1.4-1.05-3.15-1.49-4,.08.03.18.06.3.1.66.22,1.75.57,2.28.84.02.06.05.12.09.17.12.17.29.28.43.28.05,0,.1-.01.13-.04.05.43,0,1.15-.66,1.95-.04-.04-.08-.06-.13-.07-.19-.03-.37.17-.42.46-.02.13-.01.26.02.36.04.12.12.19.22.21.19.03.37-.17.42-.46.01-.06.01-.12.01-.18.1-.12.25-.3.39-.53-.1.49-.23.93-.32,1.21-.13.03-.23.24-.28.42-.03.11-.05.23-.04.32,0,.15.07.2.13.22.01,0,.02,0,.04,0h0c.14,0,.26-.23.31-.42.03-.11.04-.21.04-.3.23-.57.49-1.61.55-2.49.07-.38.06-.74-.04-1.09-.09-.5-.21-.96-.38-1.38ZM27.48,26.72s.06,0,.09-.02c.04.08.08.17.11.25-.11,0-.23.06-.32.15.04-.12.09-.25.13-.39ZM19.21,20.41c-.05.07-.08.17-.08.27l-.72-.53c.07-.11.1-.24.08-.35.14-.1.31-.22.49-.34.06.35.15.68.24.94ZM18.55,17.69c.07-.12.13-.22.18-.3.02-.03.03-.05.05-.08.17-.14.34-.27.5-.38.02,0,.04,0,.06,0-.3.46-.46,1.05-.44,1.77,0,.13.01.26.03.39-.26.17-.5.34-.68.47-.04-.01-.08-.02-.12-.03.05-.52.16-1.37.43-1.82ZM22.84,17.27c-.2.05-.45.13-.73.21-.18-.11-.34-.21-.47-.28,0-.05,0-.1-.02-.15.53-.27,1.15-.57,1.25-.62.01,0,.03,0,.04,0,.03,0,.06.01.1.02-.07.17-.13.33-.1.44.02.06.04.14.08.24-.07.03-.13.08-.16.13ZM20.1,16.55l.22-.14c.6-.11,1.29-.16,2.07-.07-.28.14-.64.32-.94.47-.03-.02-.05-.04-.08-.05-.18-.09-.38-.07-.5.04-.29-.11-.55-.17-.85-.18.03-.02.05-.04.08-.06ZM20.75,17.07c.01.14.12.29.29.37.16.08.33.07.45,0,.07.04.17.1.26.16-.43.14-.88.32-1.25.51-.39.2-.86.49-1.3.78-.05-.71.06-1.47.52-2,.4,0,.7.06,1.03.18ZM17,19.4c.1,0,.21-.02.31-.08.22-.13.31-.38.21-.56-.02-.04-.05-.06-.08-.09.14-.18.32-.38.52-.59-.15.51-.22,1.1-.26,1.5-.17.09-.28.24-.31.39-.22.09-.43.18-.64.27.09-.34.18-.63.27-.85ZM18.52,24.14c-.64.54-1.1,1.32-1.43,1.98-.2-.23-.39-.46-.55-.68,0,0,.02-.01.02-.02.21-.17.22-.51.02-.75-.1-.12-.23-.2-.37-.22-.09-1.17.14-2.62.41-3.75.33-.16.64-.3.87-.39.08.08.2.12.34.12.07,0,.15-.01.22-.04l2.43,1.78c-.02.05-.03.1-.03.16,0,.06,0,.12.03.17-.04.03-.09.07-.13.11-.7-.29-1.66-.64-2.74-.87,0-.15-.04-.28-.15-.36-.2-.14-.52-.04-.71.23-.19.27-.19.6.01.75.2.14.52.04.71-.23,0-.01.02-.03.03-.04.97.2,1.85.51,2.53.78-.49.4-1.09.89-1.51,1.25ZM21.92,27.16c.09-.14.1-.31.02-.44-.07-.11-.2-.18-.34-.18-.08-.83-.33-2.26-.58-3.18.17-.12.27-.3.27-.47,0,0,0,0,.01,0l1.22,1.16c-.03.07-.05.15-.05.23,0,.21.13.41.33.49.01.68-.01,1.71-.21,2.69-.22-.09-.44-.19-.67-.3ZM27.22,25.73c-.13.09-.21.27-.21.46,0,.15.05.28.13.38-.67,2.22-1.89,3.08-2.78,3.72h-.01c-.07.05-.13.1-.19.15-.9.65-2.64.74-3.47.79l-.26.03c.44-.18,1.36-.72,2.04-2.15.19-.41.33-.86.44-1.33.61.18,1.22.3,1.75.34-.02.08-.02.16.02.23.09.15.32.18.52.07s.27-.33.18-.49c-.09-.15-.32-.18-.52-.07-.08.05-.13.11-.17.18-.63-.13-1.19-.27-1.75-.45.21-1.04.25-2.11.25-2.82.19-.08.33-.27.33-.49,0-.29-.24-.53-.53-.53-.06,0-.11,0-.17.03l-1.14-1.08c.82-.4,1.77-.74,2.51-.9.13.22.38.33.62.25.28-.09.42-.4.33-.69-.01-.04-.04-.08-.07-.12.22.1.39.19.49.24.19.35,1.38,2.59,1.65,4.26ZM28.91,22.13c-.06,0-.11.01-.16.04,0,0-.02.01-.02.02-.59-.27-1.52-.58-2.2-.8-.18-.06-.36-.12-.49-.16.15-.22.38-.63.58-1.26.11.05.21.04.29,0,.08-.06.12-.16.11-.28,0-.11-.05-.23-.13-.34-.02-.03-.04-.06-.07-.08.03-.08.05-.15.07-.23.56.34,1.47.95,1.84,1.77.34.62.46,1.25.46,1.25,0,.03-.08.16-.26.09Z" fill="#149395" stroke-width="0"/><path d="M54.17,26.78c-.21,0-.37-.18-.38-.39v-5.03h1.47v-1.43h-1.47v-1.04l-1.57-.94v1.98h-2.04s.94,1.43.94,1.43h1.1s0,5.04,0,5.04c.01,1.01.8,1.85,1.79,1.94h.11s1.15,0,1.15,0l-.94-1.57h-.17Z" fill="#149395" stroke-width="0"/><path d="M61.23,25.17c0,.89-.72,1.61-1.61,1.61s-1.61-.72-1.61-1.61v-5.25h-1.57v5.44h0c.1,1.66,1.49,2.99,3.17,2.99s3.14-1.4,3.18-3.12v-5.31s-1.57,0-1.57,0v5.25Z" fill="#149395" stroke-width="0"/><path d="M71.52,28.73h-.5c-.35,0-.68-.19-.84-.5l-1.54-2.93c1.15-.34,1.97-1.42,1.97-2.63,0-1.51-1.23-2.75-2.75-2.75h-1.38c-1.38,0-2.51,1.13-2.52,2.51v5.92h1.57v-5.91c0-.53.43-.96.96-.96h1.38c.65,0,1.18.53,1.18,1.18s-.53,1.18-1.18,1.18c-.36,0-.69.19-.88.5-.2.34-.21.77-.02,1.12l1.84,3.5c.41.78,1.2,1.28,2.07,1.33h1.6s-.95-1.56-.95-1.56Z" fill="#149395" stroke-width="0"/><path d="M37.39,26.38c0,.22-.18.4-.39.4-.14,0-.27-.08-.33-.18l-3.31-7.29c-.4-.75-1.16-1.25-2-1.32h0s-1.43-.01-1.43-.01l.95,1.57h.26c.35,0,.68.19.84.5l3.31,7.3c.34.63,1,1.02,1.72,1.02,1.07,0,1.94-.88,1.96-1.95l.53-6.49h-1.57l-.53,6.47Z" fill="#149395" stroke-width="0"/><polygon points="40.66 19.37 42.21 19.37 42.21 18.9 40.66 17.96 40.66 19.37" fill="#149395" stroke-width="0"/><rect x="40.64" y="19.92" width="1.57" height="8.43" fill="#149395" stroke-width="0"/><path d="M47.21,19.92c-2.27,0-3.71,1.44-3.83,3.86,0,.13,0,.24,0,.35,0,.17,0,.36.02.54.2,2.3,1.62,3.67,3.82,3.67,1.86,0,3.15-.95,3.64-2.67l.05-.17h-1.58l-.04.07c-.36.71-.81,1.32-1.86,1.32h0c-.07,0-.14,0-.22,0h-.06c-1.33,0-2.05-.76-2.27-2.1h6.14v-.12c.03-.18.03-.36.03-.54,0-.27-.02-.54-.05-.8-.28-2.16-1.66-3.4-3.79-3.4ZM44.93,23.34c.29-1.31.97-1.97,2.19-1.97.03,0,.05,0,.08,0,1.53.02,2.03.79,2.28,1.97h-4.55Z" fill="#149395" stroke-width="0"/></svg>