<?xml version="1.0" encoding="UTF-8"?><svg id="Capa_1" xmlns="http://www.w3.org/2000/svg" xmlns:xlink="http://www.w3.org/1999/xlink" viewBox="0 0 86 48"><defs><clipPath id="clippath"><rect x="42.88" y="18.53" width=".05" height=".03" fill="none" stroke-width="0"/></clipPath><clipPath id="clippath-1"><rect x="42.88" y="18.53" width=".05" height=".03" fill="none" stroke-width="0"/></clipPath><clipPath id="clippath-2"><rect x="42.31" y="20.07" width=".05" height=".03" fill="none" stroke-width="0"/></clipPath><clipPath id="clippath-3"><rect x="42.31" y="20.07" width=".05" height=".03" fill="none" stroke-width="0"/></clipPath></defs><rect x="0" width="86" height="48" rx="9" ry="9" fill="#fff" stroke-width="0"/><g opacity=".37"><g clip-path="url(#clippath)"><g clip-path="url(#clippath-1)"><path d="M42.94,18.53s-.02.02-.03.03c0-.01-.02-.02-.03-.03,0,0,.02,0,.03,0,0,0,.02,0,.03,0" fill="#17b4e9" stroke-width="0"/></g></g></g><g opacity=".37"><g clip-path="url(#clippath-2)"><g clip-path="url(#clippath-3)"><path d="M42.36,20.07s-.02.02-.03.03c0-.01-.02-.02-.03-.03,0,0,.02,0,.03,0,0,0,.02,0,.03,0" fill="#17b6eb" stroke-width="0"/></g></g></g><polygon points="12.85 17.4 14.72 27.16 14.77 27.16 16.73 17.4 19.49 17.4 16.46 30.6 13.03 30.6 10 17.4 12.85 17.4" fill="#149395" stroke-width="0"/><polygon points="20.53 17.4 24.48 17.4 26.37 26.72 26.41 26.72 28.31 17.4 32.25 17.4 32.25 30.6 29.81 30.6 29.81 20.06 29.77 20.06 27.43 30.6 25.35 30.6 23 20.06 22.97 20.06 22.97 30.6 20.53 30.6 20.53 17.4" fill="#149395" stroke-width="0"/><polygon points="34.31 17.4 41.13 17.4 41.13 18.84 35.93 18.84 35.93 22.98 40.84 22.98 40.84 24.43 35.93 24.43 35.93 29.16 41.35 29.16 41.35 30.6 34.31 30.6 34.31 17.4" fill="#149395" stroke-width="0"/><path d="M43.33,17.4h3.53c4.11,0,4.62,2.96,4.62,6.6,0,3.33-.83,6.6-4.46,6.6h-3.7v-13.21ZM44.96,29.27h1.7c2.81,0,3.13-2.89,3.13-5.25,0-2.55-.17-5.29-3.13-5.29h-1.7v10.54Z" fill="#149395" stroke-width="0"/><rect x="53.75" y="17.4" width="1.63" height="13.21" fill="#149395" stroke-width="0"/><path d="M66.14,24c0,3.33-.61,6.86-4.25,6.86s-4.25-3.53-4.25-6.86.61-6.86,4.25-6.86,4.25,3.53,4.25,6.86M59.33,24c0,3.05.3,5.53,2.55,5.53s2.55-2.48,2.55-5.53-.3-5.53-2.55-5.53-2.55,2.48-2.55,5.53" fill="#149395" stroke-width="0"/><path d="M74,20.82c0-1.39-.5-2.35-2.05-2.35-1.37,0-2.18.74-2.18,2.15,0,3.72,6.23,1.5,6.23,6.33,0,3.05-2.24,3.92-4.11,3.92-3.09,0-4-1.59-4-4.4h1.63c0,1.48.09,3.07,2.48,3.07,1.29,0,2.29-.92,2.29-2.33,0-3.74-6.23-1.57-6.23-6.42,0-1.22.52-3.64,3.87-3.64,2.52,0,3.66,1.26,3.7,3.68h-1.63Z" fill="#149395" stroke-width="0"/></svg>