<svg width="312" height="253" viewBox="0 0 312 253" fill="none" xmlns="http://www.w3.org/2000/svg">
<path opacity="0.09" d="M524.918 243.356C468.781 245.379 421.354 238.54 384.648 223.369C418.1 201.023 452.127 161.29 452.127 92.2277C452.127 64.1982 443.13 40.4068 426.14 23.5024C410.921 8.37995 390.582 0 368.903 0C348.707 0 327.745 7.75387 312.144 24.0322C296.542 7.75387 275.581 0 255.385 0C214.036 0 172.161 31.6897 172.161 92.1795C172.161 161.097 206.139 200.974 239.257 223.465C202.55 238.54 155.171 245.33 99.0822 243.308H-424V252.651H99.0822C159.383 254.818 210.016 246.872 248.78 229.534C257.73 234.831 266.344 238.877 273.953 241.911C293.431 249.809 328.319 249.809 348.563 241.911C356.555 238.829 365.6 234.687 375.028 229.245C409.677 244.897 453.945 252.988 506.11 252.988C512.284 252.988 518.553 252.843 524.918 252.651H1048V243.308H524.918V243.356ZM312.383 38.962C322.289 53.2657 327.458 71.7594 327.458 93.239C327.458 118.909 322.337 141.64 312.192 161.049C302.046 141.592 296.925 118.909 296.925 93.239C296.925 74.2156 301.95 54.4697 312.431 38.962H312.383ZM181.445 92.2277C181.445 51.0503 206.857 9.34317 255.385 9.34317C274.336 9.34317 291.9 16.6154 304.869 29.8596C305.3 30.2931 305.683 30.7265 306.114 31.1599C294.867 46.1379 287.593 66.6544 287.593 93.239C287.593 122.762 294.006 148.624 306.688 170.441C301.711 178.194 295.824 185.37 289.076 191.92C278.069 202.612 264.765 211.666 249.259 219.083C213.988 197.218 181.445 158.978 181.445 92.2277ZM345.261 233.29C327.458 240.225 294.484 240.225 277.447 233.29C271.369 230.834 265.148 227.993 258.926 224.669C272.948 217.349 285.2 208.68 295.537 198.663C301.806 192.594 307.358 186.045 312.192 179.061C317.025 186.045 322.577 192.594 328.846 198.663C339.04 208.536 351.052 217.108 364.835 224.332C357.895 228.041 351.243 230.979 345.261 233.29ZM374.454 218.794C359.235 211.425 346.122 202.467 335.259 191.92C328.511 185.37 322.624 178.194 317.647 170.441C330.329 148.576 336.742 122.762 336.742 93.239C336.742 66.7507 329.516 46.2342 318.317 31.3044C330.042 18.1084 346.792 9.39133 368.95 9.39133C417.526 9.39133 442.89 51.0984 442.89 92.2758C442.89 160.568 407.476 198.422 374.454 218.842V218.794Z" fill="white"/>
</svg>
