<svg width="14" height="17" viewBox="0 0 14 17" fill="none" xmlns="http://www.w3.org/2000/svg">
<path d="M7 3.81037C6.38516 3.81037 5.78412 3.98834 5.2729 4.32178C4.76168 4.65521 4.36323 5.12914 4.12794 5.68362C3.89265 6.23811 3.83109 6.84824 3.95104 7.43688C4.07099 8.02552 4.36706 8.56622 4.80182 8.9906C5.23658 9.41498 5.7905 9.70399 6.39352 9.82108C6.99655 9.93817 7.62161 9.87807 8.18965 9.6484C8.75769 9.41872 9.2432 9.02978 9.58479 8.53076C9.92637 8.03174 10.1087 7.44505 10.1087 6.84488C10.1078 6.04036 9.77994 5.26905 9.19715 4.70017C8.61436 4.13128 7.82419 3.81128 7 3.81037ZM7 8.2242C6.72053 8.2242 6.44733 8.1433 6.21496 7.99174C5.98258 7.84018 5.80147 7.62476 5.69452 7.37272C5.58757 7.12068 5.55959 6.84335 5.61411 6.57579C5.66863 6.30822 5.80321 6.06245 6.00083 5.86955C6.19844 5.67665 6.45022 5.54528 6.72433 5.49206C6.99843 5.43884 7.28255 5.46615 7.54075 5.57055C7.79895 5.67495 8.01964 5.85174 8.1749 6.07857C8.33017 6.3054 8.41304 6.57207 8.41304 6.84488C8.41304 7.2107 8.26417 7.56153 7.99917 7.82021C7.73418 8.07888 7.37476 8.2242 7 8.2242ZM7 0.5C5.27667 0.501826 3.62445 1.17089 2.40587 2.36039C1.18729 3.54989 0.50187 5.16267 0.5 6.84488C0.5 12.1801 6.26804 16.1829 6.51391 16.3505C6.6564 16.4478 6.8261 16.5 7 16.5C7.1739 16.5 7.3436 16.4478 7.48609 16.3505C8.57856 15.5646 9.57807 14.6625 10.4662 13.6608C12.4508 11.436 13.5 9.07731 13.5 6.84488C13.4981 5.16267 12.8127 3.54989 11.5941 2.36039C10.3755 1.17089 8.72333 0.501826 7 0.5ZM9.21141 12.5491C8.53777 13.3044 7.79782 14.0008 7 14.6305C6.20218 14.0008 5.46223 13.3044 4.78859 12.5491C3.6087 11.2153 2.19565 9.14214 2.19565 6.84488C2.19565 5.60109 2.70182 4.40825 3.60281 3.52877C4.5038 2.64928 5.72581 2.15519 7 2.15519C8.27419 2.15519 9.4962 2.64928 10.3972 3.52877C11.2982 4.40825 11.8043 5.60109 11.8043 6.84488C11.8043 9.14214 10.3913 11.2153 9.21141 12.5491Z" fill="white"/>
</svg>
