<svg width="16" height="17" viewBox="0 0 16 17" fill="none" xmlns="http://www.w3.org/2000/svg">
<path d="M15.1111 11.6111C14.0444 11.6111 12.8889 11.4333 11.9111 11.0778H11.6444C11.3778 11.0778 11.2 11.1667 11.0222 11.3444L9.06667 13.3C6.57778 11.9667 4.44444 9.92222 3.2 7.43333L5.15556 5.47778C5.42222 5.21111 5.51111 4.85556 5.33333 4.58889C5.06667 3.61111 4.88889 2.45556 4.88889 1.38889C4.88889 0.944444 4.44444 0.5 4 0.5H0.888889C0.444444 0.5 0 0.944444 0 1.38889C0 9.74444 6.75556 16.5 15.1111 16.5C15.5556 16.5 16 16.0556 16 15.6111V12.5C16 12.0556 15.5556 11.6111 15.1111 11.6111ZM1.77778 2.27778H3.11111C3.2 3.07778 3.37778 3.87778 3.55556 4.58889L2.48889 5.65556C2.13333 4.58889 1.86667 3.43333 1.77778 2.27778ZM14.2222 14.7222C13.0667 14.6333 11.9111 14.3667 10.8444 14.0111L11.9111 12.9444C12.6222 13.1222 13.4222 13.3 14.2222 13.3V14.7222Z" fill="white"/>
</svg>
