<svg width="12" height="12" viewBox="0 0 12 12" fill="none" xmlns="http://www.w3.org/2000/svg">
<path d="M0 1.33818C0 0.950296 0.135139 0.630296 0.405405 0.378182C0.675672 0.126057 1.02703 0 1.45946 0C1.88417 0 2.2278 0.124114 2.49035 0.372364C2.76061 0.628364 2.89575 0.961932 2.89575 1.37309C2.89575 1.74546 2.76448 2.05575 2.50193 2.304C2.23166 2.56 1.87645 2.688 1.43629 2.688H1.42471C0.999996 2.688 0.656375 2.56 0.393822 2.304C0.13127 2.048 0 1.72606 0 1.33818ZM0.150579 11.52V3.74691H2.72201V11.52H0.150579ZM4.14672 11.52H6.71815V7.17964C6.71815 6.90812 6.74904 6.69866 6.81081 6.55128C6.91892 6.28751 7.08301 6.06448 7.30309 5.88218C7.52317 5.69988 7.79922 5.60873 8.13127 5.60873C8.99614 5.60873 9.42857 6.19442 9.42857 7.36582V11.52H12V7.06328C12 5.91515 11.7297 5.04437 11.1892 4.45091C10.6486 3.85746 9.93437 3.56073 9.04633 3.56073C8.05019 3.56073 7.27413 3.99127 6.71815 4.85237V4.87564H6.70656L6.71815 4.85237V3.74691H4.14672C4.16216 3.99515 4.16988 4.76702 4.16988 6.06255C4.16988 7.35806 4.16216 9.17721 4.14672 11.52Z" fill="#17AF95"/>
</svg>
