<svg width="48" height="48" viewBox="0 0 48 48" fill="none" xmlns="http://www.w3.org/2000/svg">
<g clip-path="url(#clip0_1060_1195)">
<path d="M4.68 35.54C4.49 35.35 4.2 35.35 4.02 35.54C3.84 35.73 3.83 36.02 4.02 36.2C4.21 36.38 4.5 36.39 4.68 36.2C4.86 36.03 4.87 35.74 4.7 35.56C4.7 35.56 4.69 35.55 4.68 35.54Z" fill="black"/>
<path d="M14.7 26.74C14.88 26.57 14.89 26.28 14.72 26.1C14.72 26.1 14.71 26.09 14.7 26.08C14.51 25.89 14.22 25.89 14.04 26.08C13.86 26.27 13.85 26.56 14.04 26.74C14.23 26.92 14.52 26.93 14.7 26.74Z" fill="black"/>
<path d="M17.94 33.57C17.94 33.57 17.93 33.56 17.92 33.55C17.73 33.36 17.44 33.36 17.26 33.55C17.08 33.74 17.07 34.03 17.26 34.21C17.45 34.39 17.74 34.4 17.92 34.21C18.1 34.04 18.11 33.75 17.94 33.57Z" fill="black"/>
<path d="M11.52 29.43C12.04 28.53 12.12 27.59 11.75 26.8C11.38 26.01 10.61 25.47 9.58 25.29C8.61 25.12 7.51 25.29 6.49 25.77C4.33 26.78 3.18 28.89 3.92 30.46C4.29 31.25 5.06 31.79 6.09 31.97C6.34 32.01 6.59 32.03 6.85 32.03C7.61 32.03 8.42 31.84 9.18 31.49C10.2 31.01 11.03 30.28 11.52 29.42V29.43ZM6.24 31.12C5.5 30.99 4.96 30.63 4.71 30.1C4.17 28.96 5.14 27.37 6.86 26.56C7.51 26.26 8.18 26.1 8.82 26.1C9.03 26.1 9.23 26.12 9.43 26.15C10.17 26.28 10.71 26.64 10.96 27.17C11.21 27.7 11.14 28.35 10.76 29C10.36 29.7 9.66 30.31 8.8 30.71C7.94 31.11 7.03 31.26 6.23 31.12H6.24Z" fill="black"/>
<path d="M9.03 27.54C8.75 27.85 8.42 28.1 8.06 28.3C7.52 28.59 6.91 28.74 6.28 28.74C6.26 28.74 6.23 28.74 6.21 28.74C5.97 28.74 5.78 28.93 5.78 29.17C5.78 29.41 5.97 29.61 6.21 29.61C6.24 29.61 6.26 29.61 6.29 29.61C7.06 29.61 7.82 29.42 8.48 29.07C8.93 28.83 9.33 28.51 9.68 28.13C9.84 27.95 9.83 27.68 9.65 27.52C9.47 27.36 9.2 27.37 9.04 27.55L9.03 27.54Z" fill="black"/>
<path d="M11.72 33.1C10.61 32.94 9.51 33.09 8.63 33.53C7.7 34 7.12 34.73 6.99 35.6C6.86 36.46 7.21 37.33 7.97 38.05C8.69 38.73 9.69 39.19 10.81 39.35C11.1 39.39 11.39 39.41 11.68 39.41C12.49 39.41 13.25 39.24 13.91 38.91C14.84 38.44 15.42 37.71 15.55 36.84C15.68 35.98 15.33 35.11 14.57 34.39C13.85 33.71 12.85 33.25 11.73 33.09L11.72 33.1ZM14.68 36.73C14.6 37.31 14.18 37.81 13.51 38.15C12.79 38.51 11.87 38.64 10.93 38.5C9.99 38.36 9.15 37.98 8.56 37.42C8.01 36.9 7.76 36.3 7.85 35.72C7.93 35.14 8.35 34.64 9.02 34.3C9.55 34.03 10.18 33.9 10.85 33.9C11.09 33.9 11.34 33.92 11.6 33.96C12.54 34.1 13.38 34.48 13.97 35.04C14.52 35.56 14.77 36.16 14.68 36.73Z" fill="black"/>
<path d="M12.86 35.96C12.46 36.06 12.04 36.09 11.63 36.06C10.83 35.99 10.22 35.67 9.85 35.41C9.65 35.27 9.38 35.32 9.25 35.52C9.11 35.72 9.16 35.99 9.36 36.12C10.02 36.57 10.78 36.85 11.56 36.92C11.7 36.93 11.83 36.94 11.97 36.94C12.34 36.94 12.71 36.89 13.08 36.8C13.31 36.74 13.45 36.51 13.4 36.27C13.34 36.04 13.1 35.89 12.87 35.95L12.86 35.96Z" fill="black"/>
<path d="M17.5 31.05C17.82 30.05 17.17 28.95 16.04 28.58C15.51 28.41 14.94 28.43 14.46 28.63C13.95 28.85 13.58 29.24 13.42 29.73C13.26 30.23 13.33 30.76 13.62 31.23C13.9 31.68 14.34 32.02 14.88 32.2C15.12 32.28 15.37 32.32 15.61 32.32C16.47 32.32 17.25 31.83 17.5 31.05ZM16.67 30.78C16.49 31.32 15.81 31.59 15.14 31.37C14.8 31.26 14.53 31.05 14.36 30.78C14.21 30.53 14.16 30.25 14.25 30C14.34 29.75 14.53 29.55 14.8 29.43C14.96 29.36 15.13 29.33 15.31 29.33C15.46 29.33 15.62 29.36 15.78 29.41C16.45 29.63 16.85 30.24 16.68 30.79L16.67 30.78Z" fill="black"/>
<path d="M37.58 10.58C34.22 10.58 31.24 12.18 29.33 14.66V8.88001H30.28C31.01 8.88001 31.61 8.28001 31.61 7.55001V6.23001C31.61 5.99001 31.42 5.80001 31.18 5.80001C30.94 5.80001 30.75 5.99001 30.75 6.23001V7.55001C30.75 7.81001 30.54 8.02001 30.28 8.02001H26.81V1.43001H30.28C30.54 1.43001 30.75 1.64001 30.75 1.90001V3.33001C30.75 3.57001 30.94 3.76001 31.18 3.76001C31.42 3.76001 31.61 3.57001 31.61 3.33001V1.90001C31.61 1.17001 31.01 0.570007 30.28 0.570007H17.42C16.69 0.570007 16.09 1.17001 16.09 1.90001V7.54001C16.09 8.27001 16.69 8.87001 17.42 8.87001H18.61V18.36C18.61 18.6 18.8 18.79 19.04 18.79C19.28 18.79 19.47 18.6 19.47 18.36V13.62C20.1 13.71 20.74 13.81 21.37 13.93C21.87 14.03 22.23 14.11 22.52 14.18C23.1 14.31 23.41 14.39 23.97 14.39H24.01C24.56 14.39 24.88 14.32 25.46 14.19C25.76 14.12 26.13 14.04 26.65 13.94C27.25 13.83 27.85 13.74 28.45 13.66V15.95C27.69 17.32 27.24 18.89 27.17 20.55H26.15C25.95 19.5 25.02 18.7 23.91 18.7C22.65 18.7 21.63 19.72 21.63 20.98C21.63 22.24 22.65 23.26 23.91 23.26C25.02 23.26 25.94 22.46 26.15 21.41H27.17C27.24 23.07 27.69 24.64 28.45 26.01V42.05C28.45 44.53 26.44 46.54 23.96 46.54C21.48 46.54 19.47 44.53 19.47 42.05V37.48C20.27 36.08 20.74 34.48 20.81 32.78H21.67C21.87 33.83 22.8 34.63 23.91 34.63C25.17 34.63 26.19 33.61 26.19 32.35C26.19 31.09 25.17 30.07 23.91 30.07C22.8 30.07 21.88 30.87 21.67 31.92H20.81C20.74 30.21 20.26 28.62 19.47 27.22V21.8C19.47 21.56 19.28 21.37 19.04 21.37C18.8 21.37 18.61 21.56 18.61 21.8V25.93C16.7 23.5 13.74 21.93 10.42 21.93C4.67 21.93 0 26.6 0 32.35C0 38.1 4.68 42.77 10.42 42.77C13.74 42.77 16.7 41.2 18.61 38.77V42.05C18.61 45.01 21.01 47.41 23.97 47.41C26.93 47.41 29.33 45.01 29.33 42.05V27.32C31.24 29.79 34.22 31.4 37.58 31.4C39.07 31.4 40.51 31.09 41.86 30.49C42.08 30.39 42.18 30.14 42.08 29.92C41.98 29.7 41.72 29.6 41.51 29.7C40.27 30.26 38.95 30.54 37.59 30.54C32.32 30.54 28.04 26.25 28.04 20.99C28.04 15.73 32.33 11.44 37.59 11.44C42.85 11.44 47.14 15.73 47.14 20.99C47.14 23.71 45.98 26.31 43.95 28.12C43.77 28.28 43.76 28.55 43.92 28.73C44.08 28.91 44.35 28.93 44.53 28.76C46.74 26.78 48.01 23.95 48.01 20.98C48.01 15.23 43.33 10.56 37.59 10.56L37.58 10.58ZM25.94 8.01001H21.76V1.43001H25.94V8.01001ZM16.96 7.54001V1.90001C16.96 1.64001 17.17 1.43001 17.42 1.43001H20.89V8.01001H17.42C17.16 8.01001 16.96 7.80001 16.96 7.54001ZM26.5 13.1C25.97 13.2 25.59 13.28 25.28 13.35C24.71 13.47 24.47 13.52 23.98 13.53C23.52 13.53 23.27 13.47 22.72 13.34C22.43 13.27 22.06 13.19 21.54 13.08C20.85 12.94 20.16 12.84 19.47 12.74V8.87001H28.45V12.79C27.8 12.88 27.14 12.97 26.49 13.09L26.5 13.1ZM23.92 30.95C24.7 30.95 25.33 31.58 25.33 32.36C25.33 33.14 24.7 33.77 23.92 33.77C23.14 33.77 22.51 33.14 22.51 32.36C22.51 31.58 23.14 30.95 23.92 30.95ZM10.42 41.92C5.15 41.92 0.87 37.63 0.87 32.37C0.87 27.11 5.16 22.82 10.42 22.82C15.68 22.82 19.97 27.11 19.97 32.37C19.97 37.63 15.68 41.92 10.42 41.92ZM23.92 22.41C23.14 22.41 22.51 21.78 22.51 21C22.51 20.22 23.14 19.59 23.92 19.59C24.7 19.59 25.33 20.22 25.33 21C25.33 21.78 24.7 22.41 23.92 22.41Z" fill="black"/>
<path d="M32.06 17.56C32.24 17.39 32.25 17.1 32.08 16.92C32.08 16.92 32.07 16.91 32.06 16.9C31.87 16.71 31.58 16.71 31.4 16.9C31.22 17.09 31.21 17.38 31.4 17.56C31.59 17.74 31.88 17.75 32.06 17.56Z" fill="black"/>
<path d="M37.53 20.2C37.35 20.39 37.34 20.68 37.53 20.86C37.72 21.04 38.01 21.05 38.19 20.86C38.37 20.69 38.38 20.4 38.21 20.22C38.21 20.22 38.2 20.21 38.19 20.2C38 20.01 37.71 20.01 37.53 20.2Z" fill="black"/>
<path d="M41.45 16.62C41.63 16.45 41.64 16.16 41.47 15.98C41.47 15.98 41.46 15.97 41.45 15.96C41.26 15.77 40.97 15.77 40.79 15.96C40.61 16.15 40.6 16.44 40.79 16.62C40.98 16.8 41.27 16.81 41.45 16.62Z" fill="black"/>
<path d="M40.79 26.5C40.98 26.68 41.27 26.69 41.45 26.5C41.63 26.33 41.64 26.04 41.47 25.86C41.47 25.86 41.46 25.85 41.45 25.84C41.26 25.65 40.97 25.65 40.79 25.84C40.61 26.03 40.6 26.32 40.79 26.5Z" fill="black"/>
<path d="M43.4 29.09C43.21 28.9 42.92 28.9 42.74 29.09C42.56 29.28 42.55 29.57 42.74 29.75C42.93 29.93 43.22 29.94 43.4 29.75C43.58 29.58 43.59 29.29 43.42 29.11C43.42 29.11 43.41 29.1 43.4 29.09Z" fill="black"/>
<path d="M36.5 13.68C35.4 13.68 34.51 14.57 34.51 15.67C34.51 16.77 35.4 17.66 36.5 17.66C37.6 17.66 38.49 16.77 38.49 15.67C38.49 14.57 37.6 13.68 36.5 13.68ZM36.5 16.8C35.88 16.8 35.38 16.3 35.38 15.68C35.38 15.06 35.88 14.56 36.5 14.56C37.12 14.56 37.62 15.06 37.62 15.68C37.62 16.3 37.12 16.8 36.5 16.8Z" fill="black"/>
<path d="M43.15 23.45C44.25 23.45 45.14 22.56 45.14 21.46C45.14 20.36 44.25 19.47 43.15 19.47C42.05 19.47 41.16 20.36 41.16 21.46C41.16 22.56 42.05 23.45 43.15 23.45ZM43.15 20.33C43.77 20.33 44.27 20.83 44.27 21.45C44.27 22.07 43.77 22.57 43.15 22.57C42.53 22.57 42.03 22.07 42.03 21.45C42.03 20.83 42.53 20.33 43.15 20.33Z" fill="black"/>
<path d="M32.82 23.61C33.92 23.61 34.81 22.72 34.81 21.62C34.81 20.52 33.92 19.63 32.82 19.63C31.72 19.63 30.83 20.52 30.83 21.62C30.83 22.72 31.72 23.61 32.82 23.61ZM32.82 20.5C33.44 20.5 33.94 21 33.94 21.62C33.94 22.24 33.44 22.74 32.82 22.74C32.2 22.74 31.7 22.24 31.7 21.62C31.7 21 32.2 20.5 32.82 20.5Z" fill="black"/>
<path d="M36.78 28.16C37.88 28.16 38.77 27.27 38.77 26.17C38.77 25.07 37.88 24.18 36.78 24.18C35.68 24.18 34.79 25.07 34.79 26.17C34.79 27.27 35.68 28.16 36.78 28.16ZM36.78 25.05C37.4 25.05 37.9 25.55 37.9 26.17C37.9 26.79 37.4 27.29 36.78 27.29C36.16 27.29 35.66 26.79 35.66 26.17C35.66 25.55 36.16 25.05 36.78 25.05Z" fill="black"/>
<path d="M31.51 4.39C31.32 4.2 31.03 4.2 30.85 4.39C30.67 4.58 30.66 4.87 30.85 5.05C31.04 5.23 31.33 5.24 31.51 5.05C31.69 4.88 31.7 4.59 31.53 4.41C31.53 4.41 31.52 4.4 31.51 4.39Z" fill="black"/>
<path d="M19.37 20.4C19.55 20.23 19.56 19.94 19.39 19.76C19.39 19.76 19.38 19.75 19.37 19.74C19.18 19.55 18.89 19.55 18.71 19.74C18.53 19.93 18.52 20.22 18.71 20.4C18.9 20.58 19.19 20.59 19.37 20.4Z" fill="black"/>
</g>
<defs>
<clipPath id="clip0_1060_1195">
<rect width="48" height="48" fill="white"/>
</clipPath>
</defs>
</svg>
