<svg width="48" height="48" viewBox="0 0 48 48" fill="none" xmlns="http://www.w3.org/2000/svg">
<g clip-path="url(#clip0_1060_1228)">
<path d="M46.3905 26.0425C46.305 25.814 46.05 25.698 45.822 25.7835C45.5935 25.869 45.4775 26.1235 45.563 26.352C46.1905 28.028 46.5085 29.794 46.5085 31.6005C46.5085 39.8565 39.7915 46.5735 31.5355 46.5735C23.2795 46.5735 16.5625 39.8565 16.5625 31.6005C16.5625 23.3445 23.2795 16.6275 31.5355 16.6275C35.7005 16.6275 39.711 18.3835 42.538 21.445C42.7035 21.6245 42.983 21.6355 43.162 21.47C43.3415 21.3045 43.3525 21.025 43.187 20.846C41.717 19.254 39.9725 18 38.0025 17.119C35.963 16.207 33.787 15.7445 31.535 15.7445C28.704 15.7445 25.987 16.4825 23.6015 17.8655L15.3435 0.254C15.271 0.099 15.115 0 14.9435 0C14.772 0 14.6165 0.099 14.5435 0.2545L2.2105 26.582C2.065 26.867 1.9255 27.165 1.796 27.467L1.794 27.471C1.789 27.481 1.785 27.4915 1.781 27.5015C1.003 29.3285 0.608002 31.269 0.608002 33.2695C0.608002 37.204 2.14 40.903 4.9225 43.6855C7.705 46.468 11.404 48 15.3385 48C18.353 48 21.239 47.1005 23.704 45.3955C26.0645 46.7405 28.745 47.457 31.536 47.457C35.7715 47.457 39.7535 45.8075 42.748 42.813C45.743 39.818 47.392 35.836 47.392 31.601C47.392 29.688 47.055 27.818 46.3905 26.0425ZM15.3385 47.1165C7.7035 47.1165 1.4915 40.905 1.4915 33.2695C1.4915 31.3835 1.8645 29.554 2.6 27.833C2.6015 27.8295 2.603 27.826 2.6045 27.8225C2.7285 27.5335 2.8615 27.249 3.0005 26.9775C3.003 26.973 3.005 26.9685 3.007 26.964L14.944 1.4825L22.846 18.3325C21.9475 18.9235 21.102 19.61 20.3235 20.3885C17.3285 23.3835 15.6795 27.3655 15.6795 31.6005C15.6795 35.8355 17.329 39.818 20.3235 42.8125C21.11 43.599 21.965 44.2915 22.8745 44.887C20.631 46.347 18.0395 47.116 15.3385 47.116V47.1165Z" fill="black"/>
<path d="M36.6495 28.5625C38.0145 27.546 38.7665 26.182 38.7665 24.7225C38.7665 23.263 38.0145 21.899 36.6495 20.8825C35.3235 19.895 33.567 19.351 31.704 19.351C31.0745 19.351 30.45 19.414 29.848 19.5375C29.609 19.5865 29.455 19.82 29.5045 20.059C29.5535 20.298 29.7875 20.452 30.026 20.4025C30.5695 20.2905 31.134 20.234 31.704 20.234C35.111 20.234 37.883 22.2475 37.883 24.722C37.883 27.1965 35.111 29.21 31.704 29.21C28.297 29.21 25.525 27.1965 25.525 24.722C25.525 23.811 25.9025 22.9325 26.6165 22.181C26.7845 22.004 26.7775 21.7245 26.6005 21.5565C26.4235 21.3885 26.144 21.3955 25.976 21.5725C25.1025 22.491 24.641 23.58 24.641 24.722C24.641 26.182 25.393 27.5455 26.758 28.562C28.084 29.5495 29.8405 30.0935 31.7035 30.0935C33.5665 30.0935 35.3225 29.5495 36.649 28.562L36.6495 28.5625Z" fill="black"/>
<path d="M31.641 24.4225C31.6645 24.4225 31.6885 24.4225 31.712 24.4225C32.494 24.4145 33.263 24.273 33.998 24.0025C34.227 23.918 34.344 23.6645 34.26 23.4355C34.1755 23.2065 33.922 23.0895 33.693 23.1735C33.0535 23.409 32.384 23.532 31.7035 23.539C30.983 23.5465 30.271 23.4235 29.592 23.1735C29.363 23.089 29.109 23.2065 29.025 23.4355C28.9405 23.6645 29.058 23.9185 29.287 24.0025C30.0445 24.2815 30.8365 24.4225 31.6415 24.4225H31.641Z" fill="black"/>
<path d="M28.5625 32.297C27.2215 31.004 25.58 30.1765 23.9395 29.9665C22.251 29.7505 20.7635 30.2105 19.75 31.2615C18.7365 32.3125 18.331 33.816 18.6085 35.4955C18.8775 37.127 19.7645 38.7375 21.1055 40.0305C22.4465 41.3235 24.088 42.151 25.7285 42.361C26.001 42.396 26.268 42.413 26.529 42.413C27.8845 42.413 29.0685 41.9475 29.918 41.066C30.9315 40.015 31.337 38.5115 31.0595 36.832C30.7905 35.2005 29.9035 33.59 28.5625 32.297ZM29.282 40.453C27.564 42.2345 24.1715 41.7595 21.719 39.3945C20.514 38.2325 19.719 36.7965 19.4805 35.3515C19.25 33.9545 19.5715 32.7195 20.3865 31.8745C21.088 31.147 22.0685 30.796 23.1505 30.796C24.718 30.796 26.4985 31.5335 27.95 32.933C29.155 34.095 29.95 35.531 30.1885 36.976C30.419 38.373 30.0975 39.608 29.2825 40.453H29.282Z" fill="black"/>
<path d="M27.3405 36.429C26.7165 36.1545 26.149 35.7785 25.6545 35.311C25.1295 34.815 24.7035 34.2335 24.3885 33.582C24.282 33.3625 24.018 33.2705 23.7985 33.377C23.579 33.4835 23.487 33.7475 23.5935 33.967C23.9555 34.715 24.445 35.383 25.048 35.953C25.6165 36.49 26.268 36.922 26.985 37.2375C27.043 37.263 27.103 37.275 27.1625 37.275C27.3325 37.275 27.4945 37.1765 27.567 37.011C27.665 36.7875 27.564 36.527 27.3405 36.429Z" fill="black"/>
<path d="M38.9935 29.9995C37.362 30.2685 35.7515 31.1555 34.4585 32.4965C33.1655 33.8375 32.338 35.479 32.128 37.1195C31.912 38.808 32.372 40.2955 33.423 41.309C34.258 42.1145 35.379 42.5355 36.647 42.5355C36.9745 42.5355 37.312 42.5075 37.6565 42.4505C39.288 42.1815 40.8985 41.2945 42.1915 39.9535C43.4845 38.6125 44.312 36.971 44.522 35.3305C44.738 33.642 44.278 32.1545 43.227 31.141C42.176 30.128 40.6725 29.7225 38.993 29.9995H38.9935ZM43.6455 35.2185C43.4595 36.6715 42.7175 38.135 41.5555 39.34C40.3935 40.545 38.9575 41.34 37.5125 41.5785C36.1155 41.809 34.8805 41.487 34.0355 40.6725C32.254 38.9545 32.729 35.562 35.094 33.1095C36.547 31.603 38.38 30.7965 39.991 30.7965C41.0025 30.7965 41.9265 31.1145 42.6135 31.777C43.4585 32.592 43.825 33.814 43.645 35.2185H43.6455Z" fill="black"/>
<path d="M39.172 33.492C38.9485 33.3935 38.688 33.495 38.59 33.7185C38.3155 34.3425 37.939 34.91 37.472 35.4045C36.976 35.9295 36.3945 36.3555 35.7435 36.6705C35.524 36.777 35.432 37.041 35.5385 37.2605C35.615 37.418 35.7725 37.51 35.9365 37.51C36.001 37.51 36.0665 37.496 36.1285 37.466C36.8765 37.104 37.5445 36.6145 38.1145 36.0115C38.6515 35.443 39.0835 34.7915 39.399 34.0745C39.4975 33.851 39.396 33.5905 39.1725 33.4925L39.172 33.492Z" fill="black"/>
<path d="M44.643 24.07C44.909 24.07 45.125 23.8545 45.125 23.588C45.125 23.3215 44.9095 23.106 44.643 23.106C44.3765 23.106 44.161 23.3215 44.161 23.588C44.161 23.8545 44.377 24.07 44.643 24.07Z" fill="black"/>
<path d="M28.4695 20.738C28.4695 20.472 28.254 20.256 27.9875 20.256C27.721 20.256 27.5055 20.4715 27.5055 20.738C27.5055 21.0045 27.721 21.22 27.9875 21.22C28.254 21.22 28.4695 21.0045 28.4695 20.738Z" fill="black"/>
<path d="M14.551 8.408C14.285 8.408 14.069 8.6235 14.069 8.89C14.069 9.1565 14.2845 9.372 14.551 9.372C14.8175 9.372 15.033 9.1565 15.033 8.89C15.033 8.6235 14.8175 8.408 14.551 8.408Z" fill="black"/>
<path d="M13.758 10.597C13.537 10.493 13.274 10.5875 13.17 10.8085L4.5975 29.0005C4.4935 29.221 4.588 29.4845 4.809 29.5885C4.87 29.617 4.934 29.6305 4.997 29.6305C5.1625 29.6305 5.3215 29.537 5.397 29.377L13.9695 11.185C14.0735 10.9645 13.979 10.701 13.758 10.597Z" fill="black"/>
</g>
<defs>
<clipPath id="clip0_1060_1228">
<rect width="48" height="48" fill="white"/>
</clipPath>
</defs>
</svg>
