<svg width="48" height="48" viewBox="0 0 48 48" fill="none" xmlns="http://www.w3.org/2000/svg">
<g clip-path="url(#clip0_1055_311)">
<path d="M39.624 38.777C36.4535 35.5255 33.355 32.1615 30.4045 28.7675C30.6875 28.384 30.9705 27.996 31.249 27.6095C32.0825 26.453 32.779 25.448 33.378 24.537C33.5165 24.3265 33.458 24.0435 33.2475 23.905C33.037 23.7665 32.754 23.825 32.6155 24.0355C32.024 24.9355 31.3345 25.93 30.5085 27.076C30.272 27.404 30.032 27.7335 29.7915 28.0605C29.448 27.6605 27.4835 25.351 24.5685 21.469C25.667 19.995 26.775 18.4665 27.8645 16.919C28.584 15.897 29.581 14.4805 30.435 12.6505C30.4765 12.625 30.5145 12.5925 30.547 12.553C30.6345 12.447 30.6655 12.313 30.644 12.1875C31.195 10.924 31.667 9.47701 31.9365 7.83901C32.036 7.23451 32.1055 6.62201 32.1445 6.00651C32.147 6.01151 32.1495 6.01601 32.152 6.02051C32.1795 6.07651 32.217 6.12351 32.261 6.16201C33.2855 7.94051 34.1035 9.82101 34.7 11.7735C35.229 13.506 35.647 14.874 35.658 16.5305C35.667 17.8725 35.378 19.0305 34.6615 20.5265C34.5525 20.754 34.6485 21.026 34.876 21.135C35.103 21.244 35.3755 21.148 35.4845 20.9205C36.2655 19.2895 36.58 18.0155 36.5705 16.524C36.5585 14.7345 36.1015 13.2385 35.5725 11.506C34.8985 9.29901 33.9495 7.18051 32.748 5.19251C31.9375 3.72051 30.7715 2.47251 29.3505 1.56601C27.7945 0.572511 26.001 0.0315109 24.165 0.00151091C20.902 -0.0534891 17.8235 1.52851 15.9255 4.13351C15.9155 4.14551 15.906 4.15801 15.897 4.17151C15.894 4.17601 15.891 4.18101 15.888 4.18551C15.6585 4.50501 15.4465 4.83951 15.254 5.18801C14.051 7.17751 13.1015 9.29751 12.4265 11.5065C11.8975 13.2385 11.4405 14.7345 11.4285 16.5245C11.412 19.0095 12.204 21.3025 16.7505 27.6095C17.029 27.996 17.311 28.382 17.595 28.7675C14.647 32.159 11.547 35.525 8.376 38.777C8.225 38.9315 8.2035 39.1705 8.324 39.35L14.0015 47.7985C14.0815 47.9175 14.2125 47.992 14.356 47.9995C14.364 47.9995 14.372 48 14.3805 48C14.515 48 14.643 47.9405 14.73 47.837L24.0005 36.786L33.271 47.837C33.358 47.9405 33.486 48 33.6205 48C33.6285 48 33.6365 48 33.645 47.9995C33.788 47.992 33.9195 47.9175 33.9995 47.7985L39.677 39.35C39.7975 39.171 39.776 38.9315 39.625 38.777H39.624ZM27.119 16.3935C26.0875 17.858 25.04 19.306 23.9995 20.706C23.043 19.419 21.9965 17.978 20.8805 16.3935C20.1805 15.3995 19.287 14.1295 18.5075 12.523C19.434 11.794 21.419 10.547 24.1485 10.547H24.1565C26.724 10.5495 28.634 11.664 29.572 12.356C28.7745 14.0415 27.843 15.365 27.1185 16.3935H27.119ZM24.004 0.912511C24.0525 0.912511 24.1015 0.912511 24.1505 0.913511C27 0.960511 29.6025 2.32651 31.2685 4.56901C31.283 5.61551 31.206 6.66501 31.0375 7.69001C30.803 9.11551 30.4135 10.38 29.951 11.5015C28.7835 10.6705 26.801 9.63651 24.1585 9.63451H24.1495C21.3115 9.63451 19.2055 10.859 18.121 11.671C17.6275 10.5085 17.21 9.18851 16.963 7.69051C16.7945 6.66751 16.7175 5.62101 16.732 4.57701C18.433 2.30301 21.131 0.912511 24.004 0.912511ZM14.4205 46.786L9.288 39.1485C12.3345 36.0145 15.313 32.778 18.153 29.517C19.8245 31.749 21.582 33.948 23.4005 36.0815L14.4205 46.786ZM33.5795 46.786L24.507 35.971C24.507 35.971 24.5045 35.968 24.503 35.9665C22.0365 33.1005 19.677 30.109 17.4905 27.0755C13.092 20.9735 12.3255 18.8135 12.3405 16.53C12.3515 14.8735 12.7695 13.505 13.2985 11.7725C13.8945 9.82151 14.712 7.94251 15.735 6.16551C15.7805 6.12651 15.8195 6.07751 15.8475 6.02001C15.8495 6.01601 15.8515 6.01151 15.8535 6.00751C15.8925 6.62251 15.962 7.23401 16.0615 7.83851C16.3565 9.63051 16.8945 11.1945 17.512 12.539C17.5225 12.5695 17.536 12.5995 17.553 12.628C18.4095 14.4685 19.411 15.8925 20.1335 16.9185C25.2875 24.2385 28.9835 28.5215 29.15 28.714C29.2565 28.837 29.3635 28.9605 29.47 29.0835C29.4745 29.0885 29.4785 29.094 29.4835 29.099C32.4345 32.504 35.535 35.8815 38.7105 39.148L33.578 46.7855L33.5795 46.786Z" fill="black"/>
<path d="M34.1495 21.9815C33.8845 21.9815 33.67 22.196 33.67 22.461C33.67 22.726 33.8845 22.9405 34.1495 22.9405C34.4145 22.9405 34.629 22.726 34.629 22.461C34.629 22.196 34.4145 21.9815 34.1495 21.9815Z" fill="black"/>
</g>
<defs>
<clipPath id="clip0_1055_311">
<rect width="48" height="48" fill="white"/>
</clipPath>
</defs>
</svg>
