<svg width="48" height="48" viewBox="0 0 48 48" fill="none" xmlns="http://www.w3.org/2000/svg">
<g clip-path="url(#clip0_1060_1168)">
<path d="M6.33 11.33C6.33 11.33 6.32 11.32 6.31 11.31C6.13 11.13 5.84 11.13 5.66 11.31C5.49 11.49 5.48 11.78 5.66 11.96C5.84 12.13 6.13 12.14 6.31 11.96C6.49 11.79 6.5 11.51 6.33 11.33Z" fill="black"/>
<path d="M8.59 12.75C8.42 12.93 8.41 13.22 8.59 13.4C8.77 13.57 9.06 13.58 9.24 13.4C9.42 13.23 9.43 12.95 9.26 12.77C9.26 12.77 9.25 12.76 9.24 12.75C9.06 12.57 8.77 12.57 8.59 12.75Z" fill="black"/>
<path d="M13.09 14.66C13.27 14.49 13.28 14.21 13.11 14.03C13.11 14.03 13.1 14.02 13.09 14.01C12.91 13.83 12.62 13.83 12.44 14.01C12.26 14.19 12.26 14.48 12.44 14.66C12.62 14.83 12.91 14.84 13.09 14.66Z" fill="black"/>
<path d="M14.75 16.08C14.57 15.9 14.28 15.9 14.1 16.08C13.93 16.26 13.92 16.55 14.1 16.73C14.28 16.9 14.57 16.91 14.75 16.73C14.93 16.56 14.94 16.28 14.77 16.1C14.77 16.1 14.76 16.09 14.75 16.08Z" fill="black"/>
<path d="M16.32 14.74C16.5 14.57 16.51 14.29 16.34 14.11C16.34 14.11 16.33 14.1 16.32 14.09C16.14 13.91 15.85 13.91 15.67 14.09C15.5 14.27 15.49 14.56 15.67 14.74C15.85 14.91 16.14 14.92 16.32 14.74Z" fill="black"/>
<path d="M27.72 30.05C27.54 29.87 27.25 29.87 27.07 30.05C26.9 30.23 26.89 30.52 27.07 30.7C27.25 30.88 27.54 30.88 27.72 30.7C27.9 30.53 27.91 30.25 27.74 30.07C27.74 30.07 27.73 30.06 27.72 30.05Z" fill="black"/>
<path d="M27.83 32.68C27.65 32.5 27.36 32.5 27.18 32.68C27.01 32.86 27 33.15 27.18 33.33C27.36 33.5 27.65 33.51 27.83 33.33C28.01 33.16 28.02 32.88 27.85 32.7C27.85 32.7 27.84 32.69 27.83 32.68Z" fill="black"/>
<path d="M28.96 36.74C29.14 36.57 29.15 36.29 28.98 36.11C28.98 36.11 28.97 36.1 28.96 36.09C28.78 35.91 28.49 35.91 28.31 36.09C28.14 36.27 28.13 36.56 28.31 36.74C28.49 36.91 28.78 36.92 28.96 36.74Z" fill="black"/>
<path d="M26.66 40.34C26.84 40.17 26.85 39.89 26.68 39.71C26.68 39.71 26.67 39.7 26.66 39.69C26.48 39.51 26.19 39.51 26.01 39.69C25.83 39.87 25.83 40.16 26.01 40.34C26.19 40.51 26.48 40.52 26.66 40.34Z" fill="black"/>
<path d="M27.65 43.1C27.83 43.27 28.12 43.28 28.3 43.1C28.48 42.93 28.49 42.65 28.32 42.47C28.32 42.47 28.31 42.46 28.3 42.45C28.12 42.27 27.83 42.27 27.65 42.45C27.48 42.63 27.47 42.92 27.65 43.1Z" fill="black"/>
<path d="M25.73 42.76C25.91 42.59 25.92 42.31 25.75 42.13C25.75 42.13 25.74 42.12 25.73 42.11C25.55 41.93 25.26 41.93 25.08 42.11C24.91 42.29 24.9 42.58 25.08 42.76C25.26 42.93 25.55 42.94 25.73 42.76Z" fill="black"/>
<path d="M12.25 42C12.43 41.83 12.44 41.55 12.27 41.37C12.27 41.37 12.26 41.36 12.25 41.35C12.07 41.17 11.78 41.17 11.6 41.35C11.43 41.53 11.42 41.82 11.6 42C11.78 42.18 12.07 42.18 12.25 42Z" fill="black"/>
<path d="M13.37 7.04C13.55 6.87 13.56 6.59 13.39 6.41C13.39 6.41 13.38 6.4 13.37 6.39C13.19 6.21 12.9 6.21 12.72 6.39C12.55 6.57 12.54 6.86 12.72 7.04C12.9 7.21 13.19 7.22 13.37 7.04Z" fill="black"/>
<path d="M29.62 30.51C29.45 30.69 29.44 30.98 29.62 31.16C29.8 31.33 30.09 31.34 30.27 31.16C30.45 30.99 30.46 30.71 30.29 30.53C30.29 30.53 30.28 30.52 30.27 30.51C30.09 30.33 29.8 30.33 29.62 30.51Z" fill="black"/>
<path d="M19.66 11.53C19.84 11.36 19.85 11.08 19.68 10.9C19.68 10.9 19.67 10.89 19.66 10.88C19.48 10.7 19.19 10.7 19.01 10.88C18.84 11.06 18.83 11.35 19.01 11.53C19.19 11.7 19.48 11.71 19.66 11.53Z" fill="black"/>
<path d="M21.5 12.3C21.68 12.47 21.97 12.48 22.15 12.3C22.33 12.13 22.34 11.85 22.17 11.67C22.17 11.67 22.16 11.66 22.15 11.65C21.97 11.47 21.68 11.47 21.5 11.65C21.32 11.83 21.32 12.12 21.5 12.3Z" fill="black"/>
<path d="M22.32 9.73999C22.5 9.56999 22.51 9.28999 22.34 9.10999C22.34 9.10999 22.33 9.09999 22.32 9.08999C22.14 8.90999 21.85 8.90999 21.67 9.08999C21.5 9.26999 21.49 9.55999 21.67 9.73999C21.85 9.91999 22.14 9.91999 22.32 9.73999Z" fill="black"/>
<path d="M33.09 8.89999C33.27 8.72999 33.28 8.44999 33.11 8.26999C33.11 8.26999 33.1 8.25999 33.09 8.24999C32.91 8.06999 32.62 8.06999 32.44 8.24999C32.27 8.42999 32.26 8.71999 32.44 8.89999C32.62 9.06999 32.91 9.07999 33.09 8.89999Z" fill="black"/>
<path d="M34.18 11.3C34.36 11.13 34.37 10.85 34.2 10.67C34.2 10.67 34.19 10.66 34.18 10.65C34 10.47 33.71 10.47 33.53 10.65C33.36 10.83 33.35 11.12 33.53 11.3C33.71 11.47 34 11.48 34.18 11.3Z" fill="black"/>
<path d="M37.33 12.08C37.51 11.91 37.52 11.63 37.35 11.45C37.35 11.45 37.34 11.44 37.33 11.43C37.15 11.25 36.86 11.25 36.68 11.43C36.51 11.61 36.5 11.9 36.68 12.08C36.86 12.25 37.15 12.26 37.33 12.08Z" fill="black"/>
<path d="M36.29 9.73999C36.47 9.56999 36.48 9.28999 36.31 9.10999C36.31 9.10999 36.3 9.09999 36.29 9.08999C36.11 8.90999 35.82 8.90999 35.64 9.08999C35.47 9.26999 35.46 9.55999 35.64 9.73999C35.82 9.91999 36.11 9.91999 36.29 9.73999Z" fill="black"/>
<path d="M39.42 10.5C39.6 10.33 39.61 10.05 39.44 9.87C39.44 9.87 39.43 9.86 39.42 9.85C39.24 9.67 38.95 9.67 38.77 9.85C38.6 10.03 38.59 10.32 38.77 10.5C38.95 10.68 39.24 10.68 39.42 10.5Z" fill="black"/>
<path d="M6.92 14.54C7.1 14.37 7.11 14.09 6.94 13.91C6.94 13.91 6.93 13.9 6.92 13.89C6.74 13.71 6.45 13.71 6.27 13.89C6.1 14.07 6.09 14.36 6.27 14.54C6.45 14.71 6.74 14.72 6.92 14.54Z" fill="black"/>
<path d="M14.78 28.83C14.87 28.94 14.99 29 15.12 29C15.21 29 15.31 28.97 15.39 28.91C16.95 27.69 18.04 26.2 18.55 24.59C18.96 23.31 18.97 22.09 18.99 19.88C18.99 18.85 18.97 17.81 18.89 16.8C18.87 16.56 18.66 16.39 18.43 16.4C18.19 16.42 18.01 16.62 18.03 16.86C18.1 17.84 18.13 18.86 18.12 19.86C18.1 22.06 18.09 23.16 17.72 24.31C17.26 25.75 16.27 27.1 14.85 28.21C14.66 28.36 14.63 28.63 14.78 28.82V28.83Z" fill="black"/>
<path d="M46.86 43.2C46.74 42.77 46.6 42.27 46.43 41.6C45.93 39.6 45.72 38.67 45.79 37.59C45.82 37.09 45.89 36.83 45.97 36.48C46.04 36.19 46.13 35.85 46.22 35.31C46.51 33.59 46.46 32.26 46.42 31.19V30.97C46.33 28.9 46.31 25.67 46.33 20.51C46.73 19.54 47.02 18.55 47.18 17.53C47.41 16.05 48.02 12.1 45.64 9.69001C44.78 8.81001 43.75 8.47001 41.7 7.78001C40.17 7.27001 39.29 7.15001 38.44 7.03001C37.73 6.93001 36.99 6.83001 35.83 6.49001L35.69 6.45001C33.68 5.85001 30.91 5.03001 30.11 2.90001C29.84 2.17001 29.76 1.37001 29.88 0.530009C29.9 0.410009 29.86 0.280009 29.78 0.190009C29.7 0.100009 29.58 0.0400085 29.45 0.0400085H24.03C24.03 0.0400085 24.01 0.0400085 24 0.0400085C23.99 0.0400085 23.98 0.0400085 23.97 0.0400085H18.55C18.42 0.0400085 18.31 0.0900085 18.22 0.190009C18.14 0.280009 18.1 0.410009 18.12 0.530009C18.24 1.38001 18.16 2.18001 17.89 2.90001C17.46 4.05001 16.45 4.92001 14.73 5.64001C14.51 5.73001 14.4 5.98001 14.5 6.20001C14.57 6.37001 14.73 6.47001 14.9 6.47001C14.96 6.47001 15.01 6.46001 15.07 6.44001C16.83 5.71001 17.97 4.76001 18.55 3.56001C18.94 3.80001 19.48 4.22001 19.8 4.96001C19.98 5.37001 20.33 6.45001 19.75 7.44001C19.26 8.27001 18.31 8.76001 17.27 8.72001C17.02 8.70001 16.87 8.86001 16.83 9.07001C16.54 10.52 15.33 11.65 13.89 11.82C12.56 11.97 11.25 11.3 10.56 10.11C10.47 9.95001 10.28 9.86001 10.1 9.90001C9.79 9.96001 8.98 10.07 8.15 9.60001C7.57 9.28001 7.24 8.83001 7.05 8.47001C8.22 8.11001 8.94 8.01001 9.7 7.90001C10.13 7.84001 10.56 7.78001 11.08 7.67001C11.31 7.62001 11.46 7.39001 11.42 7.16001C11.37 6.93001 11.14 6.77001 10.91 6.82001C10.42 6.92001 10 6.98001 9.59 7.04001C8.74 7.16001 7.86 7.28001 6.33 7.79001C4.29 8.47001 3.26 8.82001 2.4 9.69001C-0.0100002 12.08 0.6 16.02 0.83 17.51C0.99 18.53 1.28 19.53 1.68 20.5C1.7 25.67 1.68 28.9 1.59 30.96V31.19C1.54 32.26 1.49 33.58 1.78 35.3C1.87 35.84 1.96 36.19 2.03 36.47C2.12 36.83 2.18 37.09 2.21 37.58C2.28 38.66 2.06 39.59 1.57 41.59C1.4 42.26 1.26 42.77 1.14 43.2C0.9 44.07 0.74 44.64 0.65 45.62C0.59 46.27 0.58 46.93 0.61 47.59C0.62 47.82 0.81 48 1.04 48H8.8C8.92 48 9.04 47.95 9.12 47.86C9.2 47.77 9.24 47.65 9.23 47.53C8.94 44.8 8.97 42.04 9.34 39.33C9.59 37.47 10 35.63 10.55 33.84C10.61 34.15 10.68 34.44 10.74 34.72C10.99 35.88 11.21 36.87 11.4 38.71C11.44 39.06 11.47 39.39 11.5 39.73C11.52 39.96 11.71 40.13 11.93 40.13C11.94 40.13 11.95 40.13 11.96 40.13C12.2 40.11 12.38 39.9 12.36 39.66C12.33 39.32 12.3 38.98 12.25 38.53C12.07 36.74 11.84 35.72 11.58 34.54C11.43 33.83 11.26 33.08 11.08 32.06C10.54 28.92 10.45 26.44 10.41 25.25C10.34 23.36 10.38 21.44 10.53 19.55C10.55 19.31 10.37 19.1 10.13 19.09C9.87 19.08 9.69 19.25 9.67 19.49C9.52 21.41 9.48 23.36 9.55 25.28C9.59 26.48 9.68 28.96 10.22 32.1C9.4 34.41 8.81 36.8 8.49 39.22C8.14 41.84 8.09 44.51 8.33 47.15H1.46C1.46 46.67 1.46 46.19 1.51 45.72C1.59 44.82 1.74 44.3 1.97 43.45C2.09 43.02 2.23 42.5 2.4 41.82C2.88 39.88 3.15 38.8 3.07 37.54C3.03 36.97 2.96 36.66 2.86 36.28C2.79 36.01 2.71 35.69 2.63 35.17C2.36 33.54 2.4 32.32 2.44 31.24V31.01C2.52 29.18 2.55 26.44 2.54 22.26C2.63 22.41 2.7 22.57 2.8 22.71C2.88 22.84 3.02 22.91 3.16 22.91C3.24 22.91 3.32 22.89 3.39 22.84C3.59 22.71 3.65 22.44 3.52 22.24C2.56 20.72 1.93 19.09 1.67 17.39C1.46 16.02 0.9 12.39 2.97 10.28C3.64 9.60001 4.53 9.27001 6.19 8.71001C6.42 9.19001 6.88 9.86001 7.71 10.32C8.58 10.81 9.44 10.82 9.96 10.76C10.76 11.96 12.09 12.67 13.5 12.67C13.66 12.67 13.82 12.67 13.98 12.64C15.7 12.44 17.11 11.22 17.58 9.55001C18.8 9.49001 19.9 8.86001 20.49 7.85001C21.27 6.51001 20.82 5.12001 20.59 4.59001C20.14 3.55001 19.36 2.99001 18.86 2.71001C19.02 2.13001 19.08 1.51001 19.04 0.880009H23.98C23.98 0.880009 24 0.880009 24.01 0.880009C24.02 0.880009 24.03 0.880009 24.04 0.880009H28.98C28.93 1.69001 29.04 2.47001 29.31 3.19001C30.26 5.72001 33.26 6.61001 35.45 7.26001L35.59 7.30001C36.81 7.66001 37.58 7.77001 38.33 7.87001C39.18 7.99001 39.98 8.10001 41.43 8.58001C43.35 9.22001 44.31 9.55001 45.02 10.27C47.1 12.38 46.53 16.01 46.32 17.37C46.06 19.07 45.43 20.71 44.47 22.22C44.34 22.42 44.4 22.69 44.6 22.82C44.67 22.87 44.75 22.89 44.83 22.89C44.97 22.89 45.11 22.82 45.19 22.69C45.28 22.54 45.36 22.39 45.45 22.24C45.45 26.41 45.47 29.15 45.54 30.99V31.21C45.59 32.29 45.64 33.52 45.36 35.15C45.27 35.66 45.19 35.98 45.13 36.26C45.04 36.65 44.96 36.95 44.92 37.53C44.84 38.79 45.1 39.86 45.59 41.81C45.76 42.49 45.9 43 46.02 43.44C46.26 44.29 46.4 44.81 46.49 45.71C46.53 46.19 46.55 46.67 46.54 47.14H39.67C39.92 44.5 39.86 41.83 39.51 39.21C39.18 36.78 38.6 34.39 37.78 32.09C38.32 28.94 38.4 26.46 38.45 25.27C38.52 23.34 38.48 21.39 38.33 19.48C38.31 19.24 38.13 19.07 37.87 19.08C37.63 19.1 37.45 19.31 37.47 19.54C37.61 21.42 37.65 23.34 37.59 25.24C37.57 25.86 37.53 26.82 37.43 28.04C37.35 28 37.25 27.99 37.16 28.01C36.22 28.25 34.88 28.78 33.88 30.01C33.71 30.22 33.55 30.44 33.41 30.68C33.02 30.82 32.66 31.03 32.34 31.29C31.94 31.62 31.6 32.03 31.37 32.5C30.97 32.65 30.59 32.86 30.25 33.11C29.76 33.47 29.33 33.92 29 34.44C28.87 34.64 28.93 34.91 29.13 35.04C29.2 35.09 29.28 35.11 29.36 35.11C29.5 35.11 29.64 35.04 29.72 34.91C30 34.48 30.34 34.11 30.75 33.81C31.08 33.57 31.44 33.39 31.82 33.26C31.93 33.22 32.03 33.14 32.08 33.03C32.21 32.74 32.45 32.33 32.89 31.97C33.17 31.74 33.49 31.57 33.84 31.46C33.95 31.43 34.03 31.35 34.09 31.26C34.23 31.02 34.38 30.79 34.56 30.57C35.41 29.53 36.56 29.07 37.37 28.86C37.27 29.81 37.13 30.89 36.93 32.06C36.75 33.07 36.59 33.83 36.43 34.53C36.17 35.71 35.95 36.74 35.76 38.53C35.65 39.57 35.55 40.56 35.59 41.85C35.63 43.09 35.79 44.32 36.06 45.53C35.69 45.54 35.19 45.49 34.69 45.19C34.35 44.98 34.06 44.68 33.86 44.33C33.76 44.16 33.56 44.07 33.37 44.13C33.21 44.17 32.38 44.36 31.65 43.83C31.06 43.4 30.76 42.67 30.86 41.91C30.88 41.76 30.82 41.62 30.71 41.52C30.29 41.16 29.92 40.75 29.64 40.28C29.25 39.65 29.01 38.95 28.91 38.2C28.88 37.96 28.66 37.8 28.43 37.82C28.19 37.85 28.02 38.06 28.05 38.3C28.16 39.17 28.44 39.99 28.9 40.73C29.2 41.21 29.56 41.65 29.98 42.03C29.93 43.01 30.36 43.95 31.14 44.52C31.93 45.1 32.81 45.09 33.28 45.02C33.54 45.39 33.87 45.7 34.24 45.93C34.86 46.31 35.49 46.4 35.98 46.4C36.09 46.4 36.18 46.4 36.27 46.38C36.34 46.63 36.4 46.89 36.48 47.14H11.53C11.92 45.88 12.19 44.59 12.32 43.29C12.34 43.05 12.17 42.84 11.93 42.82C11.71 42.79 11.48 42.97 11.46 43.21C11.31 44.64 11 46.06 10.52 47.44C10.47 47.57 10.5 47.72 10.58 47.83C10.66 47.94 10.79 48.01 10.93 48.01H37.06C37.2 48.01 37.33 47.94 37.41 47.83C37.49 47.72 37.51 47.57 37.47 47.44C36.84 45.62 36.5 43.73 36.44 41.83C36.4 40.59 36.5 39.63 36.6 38.62C36.78 36.88 37 35.88 37.25 34.72C37.31 34.44 37.37 34.15 37.44 33.85C37.99 35.64 38.4 37.48 38.65 39.34C39.01 42.05 39.05 44.81 38.76 47.54C38.75 47.66 38.79 47.78 38.87 47.87C38.95 47.96 39.07 48.01 39.19 48.01H46.95C47.18 48.01 47.37 47.83 47.38 47.6C47.41 46.95 47.4 46.29 47.34 45.63C47.25 44.65 47.09 44.07 46.85 43.2H46.86Z" fill="black"/>
<path d="M29.57 16.4C29.31 16.38 29.13 16.56 29.11 16.8C29.04 17.83 29 18.86 29.01 19.89C29.03 22.1 29.04 23.31 29.45 24.59C29.96 26.2 31.06 27.69 32.61 28.91C32.69 28.97 32.78 29 32.88 29C33.01 29 33.14 28.94 33.22 28.83C33.37 28.64 33.33 28.37 33.15 28.22C31.73 27.11 30.74 25.76 30.28 24.32C29.91 23.17 29.9 22.07 29.88 19.87C29.87 18.88 29.9 17.87 29.97 16.87C29.99 16.63 29.81 16.43 29.57 16.41V16.4Z" fill="black"/>
</g>
<defs>
<clipPath id="clip0_1060_1168">
<rect width="48" height="48" fill="white"/>
</clipPath>
</defs>
</svg>
