<svg width="48" height="48" viewBox="0 0 48 48" fill="none" xmlns="http://www.w3.org/2000/svg">
<g clip-path="url(#clip0_1090_1428)">
<path d="M12.49 23.8C12.28 23.39 12.1 22.99 11.95 22.61C11.11 20.42 10.15 15.86 11.93 12.66C14.62 7.8 23.44 6.41 29.65 8.21C29.88 8.28 30.12 8.14 30.19 7.91C30.26 7.68 30.12 7.44 29.89 7.37C23.22 5.44 14.1 6.94 11.17 12.24C10.66 13.16 10.36 14.19 10.2 15.24C8.12 15.74 6.15 15.21 5.36 13.91C5.07 13.44 4.94 12.87 4.97 12.19V0.43C4.97 0.19 4.78 0 4.54 0H0.43C0.19 0 0 0.19 0 0.43V13.36C0 14.88 0.62 16.37 1.76 17.55C3.44 19.3 5.89 19.58 6.93 19.7C7.33 19.75 7.74 19.77 8.14 19.77C8.85 19.77 9.56 19.69 10.26 19.55C10.47 20.88 10.81 22.07 11.13 22.92C11.29 23.33 11.48 23.76 11.71 24.2C11.79 24.35 11.94 24.43 12.09 24.43C12.16 24.43 12.23 24.41 12.29 24.38C12.5 24.27 12.58 24.01 12.48 23.8H12.49ZM7.03 18.85C6 18.73 3.85 18.49 2.38 16.96C1.4 15.94 0.86 14.66 0.86 13.37V0.86H4.1V12.17C4.06 12.99 4.24 13.74 4.61 14.36C5.55 15.91 7.77 16.6 10.09 16.13C10.03 17 10.05 17.86 10.14 18.69C9.1 18.9 8.05 18.95 7.01 18.84L7.03 18.85Z" fill="black"/>
<path d="M47.57 0H43.46C43.22 0 43.03 0.19 43.03 0.43V12.22C43.06 12.87 42.93 13.45 42.65 13.92C41.86 15.22 39.88 15.75 37.81 15.25C37.66 14.2 37.35 13.18 36.84 12.25C36.19 11.07 35.19 10.03 33.88 9.17C33.68 9.04 33.41 9.09 33.28 9.29C33.15 9.49 33.2 9.76 33.4 9.89C34.59 10.67 35.49 11.61 36.08 12.67C37.85 15.87 36.9 20.43 36.06 22.62C35.74 23.46 34.75 25.65 32.61 27.76C32.37 28 32.12 28.23 31.9 28.42C31.66 28.6 26.04 32.86 26.04 40.28V47.14H25.28V37.55C25.28 35.66 25.67 33.92 26.43 32.38C27.28 30.69 28.18 29.96 29.33 29.04C29.82 28.65 30.37 28.2 30.96 27.65C31.13 27.49 31.14 27.21 30.98 27.04C30.82 26.87 30.54 26.86 30.37 27.02C29.81 27.55 29.29 27.97 28.79 28.37C27.61 29.32 26.58 30.14 25.65 32C24.82 33.66 24.4 35.53 24.4 37.56V47.15H23.57V37.56C23.57 35.53 23.15 33.66 22.32 32C21.39 30.14 20.37 29.32 19.18 28.37C18.26 27.63 17.22 26.79 15.99 25.27C13.5 22.16 12.48 19.15 12.97 16.34C13.19 15.04 13.69 14.1 13.9 13.76C16.37 9.59 22.75 9.4 23.98 9.44C25.25 9.41 31.58 9.59 34.05 13.76C34.25 14.1 34.75 15.04 34.98 16.34C35.49 19.28 34.21 22.01 33.06 23.78C32.93 23.98 32.99 24.25 33.18 24.38C33.38 24.51 33.65 24.46 33.78 24.26C35.02 22.36 36.39 19.42 35.83 16.2C35.59 14.81 35.08 13.8 34.79 13.33C32.15 8.87 25.83 8.58 23.97 8.58C22.08 8.57 15.79 8.86 13.15 13.32C12.87 13.8 12.35 14.81 12.11 16.19C11.58 19.26 12.65 22.5 15.31 25.81C16.59 27.41 17.67 28.28 18.63 29.04C19.78 29.96 20.69 30.69 21.53 32.38C22.3 33.92 22.69 35.66 22.68 37.55V47.14H21.92V40.28C21.92 32.85 16.3 28.6 16.09 28.44C15.84 28.23 15.6 28 15.36 27.76C14.98 27.38 14.61 26.98 14.27 26.57C14.12 26.39 13.85 26.36 13.66 26.51C13.48 26.66 13.45 26.93 13.6 27.12C13.96 27.55 14.34 27.98 14.75 28.38C15.01 28.64 15.27 28.87 15.55 29.12C15.6 29.16 21.06 33.31 21.06 40.29V47.59C21.06 47.83 21.25 48.02 21.49 48.02H26.44C26.68 48.02 26.87 47.83 26.87 47.59V40.29C26.87 33.31 32.32 29.16 32.4 29.1C32.66 28.88 32.92 28.64 33.18 28.38C35.44 26.15 36.48 23.83 36.82 22.94C37.15 22.09 37.49 20.91 37.69 19.57C38.39 19.71 39.1 19.79 39.81 19.79C40.22 19.79 40.62 19.77 41.03 19.72C42.07 19.6 44.52 19.32 46.2 17.57C47.33 16.39 47.96 14.9 47.96 13.38V0.43C47.96 0.19 47.77 0 47.53 0H47.57ZM47.14 13.37C47.14 14.66 46.6 15.94 45.62 16.96C44.16 18.49 42.01 18.73 40.97 18.85C39.93 18.97 38.88 18.91 37.84 18.7C37.93 17.87 37.95 17 37.89 16.14C40.22 16.61 42.42 15.91 43.37 14.37C43.74 13.76 43.92 13 43.88 12.2V0.86H47.13V13.36L47.14 13.37Z" fill="black"/>
<path d="M32.12 8.93999C32.32 8.74999 32.33 8.44999 32.14 8.24999C32.14 8.24999 32.13 8.23999 32.12 8.22999C31.92 8.02999 31.6 8.02999 31.41 8.22999C31.22 8.42999 31.21 8.74999 31.41 8.93999C31.61 9.12999 31.93 9.13999 32.12 8.93999Z" fill="black"/>
<path d="M31.77 25.53C31.58 25.73 31.57 26.05 31.77 26.24C31.97 26.43 32.29 26.44 32.48 26.24C32.68 26.05 32.69 25.75 32.5 25.55C32.5 25.55 32.49 25.54 32.48 25.53C32.28 25.33 31.96 25.33 31.77 25.53Z" fill="black"/>
<path d="M13.33 25.18C13.13 24.98 12.81 24.98 12.62 25.18C12.43 25.38 12.42 25.7 12.62 25.89C12.82 26.08 13.14 26.09 13.33 25.89C13.53 25.7 13.54 25.4 13.35 25.2C13.35 25.2 13.34 25.19 13.33 25.18Z" fill="black"/>
</g>
<defs>
<clipPath id="clip0_1090_1428">
<rect width="48" height="48" fill="white"/>
</clipPath>
</defs>
</svg>
