<svg width="48" height="48" viewBox="0 0 48 48" fill="none" xmlns="http://www.w3.org/2000/svg">
<g clip-path="url(#clip0_772_4458)">
<path d="M3.29705 41.8445C3.04855 41.8445 2.84705 42.046 2.84705 42.2945V46.792C2.84705 47.0405 3.04855 47.242 3.29705 47.242C3.54555 47.242 3.74705 47.0405 3.74705 46.792V42.2945C3.74705 42.046 3.54555 41.8445 3.29705 41.8445Z" fill="#6080E0"/>
<path d="M13.0955 41.8445C12.847 41.8445 12.6455 42.046 12.6455 42.2945V46.792C12.6455 47.0405 12.847 47.242 13.0955 47.242C13.344 47.242 13.5455 47.0405 13.5455 46.792V42.2945C13.5455 42.046 13.344 41.8445 13.0955 41.8445Z" fill="#6080E0"/>
<path d="M34.9045 41.8445C34.656 41.8445 34.4545 42.046 34.4545 42.2945V46.792C34.4545 47.0405 34.656 47.242 34.9045 47.242C35.153 47.242 35.3545 47.0405 35.3545 46.792V42.2945C35.3545 42.046 35.153 41.8445 34.9045 41.8445Z" fill="#6080E0"/>
<path d="M44.488 39.354H43.507L42.809 37.7465C43.512 36.929 43.944 35.822 43.944 34.605C43.944 32.0955 42.1065 30.054 39.848 30.054C37.5895 30.054 35.752 32.0955 35.752 34.605C35.752 35.818 36.1815 36.9215 36.88 37.738L36.1115 39.354H35.1195C34.217 39.354 33.3385 39.6705 32.638 40.2345C31.8375 39.2045 30.588 38.5405 29.1855 38.5405H28.056L27.25 36.684C28.0395 35.7785 28.526 34.5445 28.526 33.1865C28.526 30.414 26.498 28.158 24.0055 28.158C21.513 28.158 19.485 30.4135 19.485 33.1865C19.485 34.5405 19.9685 35.771 20.754 36.676L19.867 38.5405H18.726C17.344 38.5405 16.11 39.1855 15.3085 40.19C14.6155 39.648 13.771 39.3535 12.8805 39.3535H11.8995L11.2015 37.746C11.9045 36.9285 12.3365 35.8215 12.3365 34.6045C12.3365 32.095 10.499 30.0535 8.24055 30.0535C5.98205 30.0535 4.14455 32.095 4.14455 34.6045C4.14455 35.8175 4.57405 36.921 5.27255 37.7375L4.50405 39.3535H3.51205C1.32755 39.3535 -0.449951 41.1305 -0.449951 43.3155V46.3075C-0.449951 46.8225 -0.0309512 47.2415 0.484049 47.2415C0.732549 47.2415 0.934049 47.04 0.934049 46.7915C0.934049 46.543 0.732549 46.3415 0.484049 46.3415C0.466549 46.3415 0.450049 46.3255 0.450049 46.3075V43.3155C0.450049 41.627 1.82355 40.2535 3.51205 40.2535H4.78855C4.79155 40.2535 4.79455 40.2535 4.79805 40.2535C4.80705 40.2535 4.81605 40.253 4.82505 40.252C4.83155 40.2515 4.83805 40.251 4.84455 40.25C4.85205 40.249 4.85955 40.248 4.86705 40.2465C4.87455 40.245 4.88205 40.2435 4.88955 40.242C4.89605 40.2405 4.90205 40.239 4.90805 40.237C4.91605 40.235 4.92405 40.2325 4.93205 40.2295C4.93755 40.2275 4.94305 40.2255 4.94855 40.2235C4.95655 40.2205 4.96455 40.2175 4.97205 40.214C4.97755 40.2115 4.98355 40.2085 4.98905 40.206C4.99605 40.2025 5.00305 40.199 5.01005 40.195C5.01605 40.1915 5.02255 40.1875 5.02855 40.184C5.03455 40.1805 5.04005 40.1765 5.04555 40.1725C5.05205 40.168 5.05855 40.163 5.06505 40.158C5.06955 40.1545 5.07455 40.1505 5.07905 40.1465C5.08555 40.141 5.09205 40.135 5.09855 40.129C5.10255 40.125 5.10655 40.121 5.11055 40.117C5.11655 40.111 5.12205 40.1045 5.12805 40.098C5.13205 40.093 5.13605 40.0885 5.14005 40.0835C5.14505 40.0775 5.14955 40.0715 5.15405 40.065C5.15855 40.059 5.16255 40.0525 5.16705 40.046C5.17055 40.0405 5.17405 40.035 5.17705 40.0295C5.18155 40.0215 5.18605 40.0135 5.19005 40.0055C5.19155 40.003 5.19305 40 5.19455 39.9975L5.96005 38.3885C6.18605 38.5555 6.47905 38.7355 6.83205 38.879C6.83305 38.879 6.83405 38.88 6.83555 38.8805C6.91955 38.9145 7.00705 38.9465 7.09805 38.976C7.11355 38.981 7.12855 38.986 7.14405 38.9905C7.17405 39 7.20405 39.009 7.23505 39.0175C7.26505 39.026 7.29555 39.034 7.32555 39.042C7.34755 39.0475 7.37005 39.053 7.39255 39.058C7.42205 39.065 7.45155 39.0715 7.48155 39.0775C7.50655 39.0825 7.53105 39.0875 7.55655 39.0925C7.59105 39.099 7.62505 39.105 7.65955 39.1105C7.67605 39.113 7.69255 39.116 7.70955 39.1185C7.75555 39.125 7.80205 39.131 7.84905 39.136C7.86305 39.1375 7.87655 39.139 7.89055 39.14C7.94155 39.145 7.99255 39.149 8.04355 39.1515C8.05205 39.1515 8.06055 39.152 8.06855 39.1525C8.12605 39.155 8.18305 39.157 8.24105 39.157C8.29755 39.157 8.35405 39.1555 8.41005 39.153C8.41905 39.153 8.42855 39.1525 8.43755 39.152C8.48755 39.1495 8.53755 39.1455 8.58755 39.141C8.60205 39.1395 8.61655 39.138 8.63155 39.1365C8.67755 39.1315 8.72305 39.126 8.76805 39.1195C8.78555 39.117 8.80255 39.114 8.81955 39.1115C8.85105 39.1065 8.88255 39.101 8.91355 39.0955C8.94055 39.0905 8.96655 39.0855 8.99305 39.08C9.02255 39.074 9.05205 39.0675 9.08155 39.0605C9.10555 39.055 9.12955 39.049 9.15355 39.043C9.17305 39.038 9.19205 39.033 9.21155 39.0275C9.25455 39.016 9.29655 39.0035 9.33805 38.991C9.35055 38.987 9.36255 38.9835 9.37505 38.9795C9.84405 38.8295 10.2245 38.607 10.505 38.4015L11.1865 39.972C11.1965 39.997 11.2085 40.0205 11.2225 40.043C11.2225 40.044 11.2235 40.0445 11.224 40.0455C11.2355 40.0635 11.248 40.081 11.262 40.097C11.263 40.098 11.264 40.099 11.265 40.1005C11.2775 40.115 11.291 40.1285 11.3055 40.1415C11.3075 40.143 11.309 40.145 11.311 40.1465C11.3265 40.1595 11.3425 40.172 11.3595 40.183C11.3605 40.184 11.362 40.1845 11.3635 40.1855C11.3795 40.196 11.3965 40.205 11.414 40.213C11.4155 40.214 11.417 40.2145 11.419 40.2155C11.4375 40.224 11.4565 40.231 11.4765 40.237C11.4775 40.237 11.4785 40.237 11.4795 40.238C11.497 40.243 11.5145 40.247 11.533 40.2495C11.5375 40.25 11.542 40.251 11.5465 40.2515C11.5645 40.254 11.583 40.2555 11.602 40.2555C11.603 40.2555 11.604 40.2555 11.605 40.2555C11.6055 40.2555 11.6065 40.2555 11.607 40.2555H12.881C13.596 40.2555 14.2735 40.5015 14.8205 40.9535C14.5235 41.543 14.356 42.2085 14.356 42.9125V46.253C14.356 46.799 14.8 47.243 15.346 47.243C15.5945 47.243 15.796 47.0415 15.796 46.793C15.796 46.5445 15.5945 46.343 15.346 46.343C15.297 46.343 15.256 46.3015 15.256 46.253V42.9125C15.256 42.262 15.4365 41.653 15.749 41.132C15.764 41.1115 15.7775 41.09 15.789 41.068C16.404 40.092 17.4905 39.442 18.7265 39.442H20.1515C20.1545 39.442 20.1575 39.442 20.161 39.442C20.17 39.442 20.179 39.4415 20.188 39.4405C20.1945 39.44 20.201 39.4395 20.2075 39.4385C20.215 39.4375 20.2225 39.4365 20.23 39.435C20.2375 39.4335 20.245 39.432 20.2525 39.4305C20.259 39.429 20.265 39.4275 20.2715 39.4255C20.2795 39.4235 20.2875 39.421 20.2955 39.418C20.301 39.416 20.3065 39.414 20.312 39.412C20.32 39.409 20.328 39.406 20.3355 39.4025C20.341 39.4 20.347 39.397 20.3525 39.3945C20.3595 39.391 20.3665 39.3875 20.3735 39.3835C20.3795 39.38 20.386 39.376 20.392 39.3725C20.398 39.369 20.4035 39.365 20.409 39.361C20.4155 39.3565 20.422 39.3515 20.4285 39.3465C20.433 39.343 20.438 39.339 20.4425 39.3355C20.449 39.33 20.4555 39.324 20.462 39.318C20.466 39.314 20.47 39.31 20.474 39.306C20.48 39.3 20.4855 39.2935 20.4915 39.287C20.4955 39.282 20.4995 39.2775 20.5035 39.2725C20.5085 39.2665 20.513 39.2605 20.5175 39.254C20.522 39.248 20.526 39.2415 20.5305 39.235C20.534 39.2295 20.5375 39.224 20.5405 39.2185C20.545 39.2105 20.5495 39.2025 20.5535 39.1945C20.555 39.192 20.5565 39.189 20.558 39.1865L21.44 37.3325C21.873 37.6625 22.5485 38.052 23.429 38.177C23.4305 38.177 23.432 38.177 23.4335 38.1775C23.4675 38.1825 23.502 38.1865 23.5365 38.1905C23.541 38.191 23.546 38.1915 23.5505 38.192C23.5815 38.1955 23.613 38.1985 23.6445 38.2015C23.6515 38.202 23.6585 38.203 23.6655 38.2035C23.6945 38.206 23.724 38.208 23.754 38.2095C23.7625 38.21 23.771 38.2105 23.78 38.211C23.8085 38.2125 23.8375 38.2135 23.8665 38.2145C23.8755 38.2145 23.8845 38.2155 23.8935 38.2155C23.931 38.2165 23.9685 38.217 24.0065 38.217C24.072 38.217 24.137 38.215 24.2015 38.212C24.21 38.212 24.219 38.2115 24.2275 38.211C24.285 38.208 24.3425 38.2035 24.3995 38.198C24.415 38.1965 24.4305 38.195 24.446 38.1935C24.4975 38.188 24.5485 38.1815 24.5995 38.174C24.6195 38.171 24.6395 38.168 24.6595 38.1645C24.7005 38.158 24.741 38.1505 24.7815 38.143C24.8105 38.1375 24.839 38.1315 24.8675 38.1255C24.8955 38.1195 24.924 38.113 24.952 38.1065C24.9905 38.0975 25.028 38.088 25.0655 38.078C25.091 38.071 25.116 38.0645 25.1415 38.057C25.172 38.048 25.202 38.039 25.2315 38.03C25.244 38.026 25.256 38.022 25.2685 38.018C25.33 37.998 25.3905 37.977 25.4495 37.955C25.452 37.954 25.454 37.9535 25.4565 37.9525C25.911 37.781 26.281 37.5525 26.5555 37.3455L27.343 39.16C27.353 39.1855 27.3655 39.2095 27.38 39.2325C27.38 39.2325 27.38 39.233 27.3805 39.2335C27.392 39.252 27.405 39.2695 27.419 39.286C27.4195 39.2865 27.4205 39.2875 27.421 39.288C27.434 39.303 27.448 39.317 27.463 39.33C27.4645 39.3315 27.466 39.3325 27.4675 39.334C27.483 39.3475 27.4995 39.3595 27.5165 39.371C27.5175 39.3715 27.5185 39.372 27.5195 39.373C27.536 39.3835 27.5535 39.393 27.571 39.4015C27.5725 39.402 27.574 39.403 27.575 39.4035C27.5935 39.412 27.613 39.4195 27.633 39.425C27.634 39.425 27.6345 39.425 27.6355 39.4255C27.653 39.4305 27.671 39.4345 27.689 39.4375C27.6935 39.438 27.698 39.439 27.7025 39.4395C27.721 39.442 27.7395 39.4435 27.7585 39.4435C27.7595 39.4435 27.7605 39.4435 27.7615 39.4435C27.762 39.4435 27.763 39.4435 27.7635 39.4435H29.186C30.438 39.4435 31.5375 40.11 32.148 41.107C32.1605 41.135 32.176 41.1615 32.1945 41.187C32.488 41.696 32.6565 42.2855 32.6565 42.914V46.2545C32.6565 46.3035 32.6155 46.3445 32.5665 46.3445C32.318 46.3445 32.1165 46.546 32.1165 46.7945C32.1165 47.043 32.318 47.2445 32.5665 47.2445C33.1125 47.2445 33.5565 46.8005 33.5565 46.2545V42.914C33.5565 42.231 33.399 41.584 33.1185 41.0075C33.6735 40.527 34.387 40.2565 35.1205 40.2565H36.397C36.4 40.2565 36.403 40.2565 36.4065 40.2565C36.4155 40.2565 36.4245 40.256 36.4335 40.255C36.44 40.2545 36.4465 40.254 36.453 40.253C36.4605 40.252 36.468 40.251 36.476 40.2495C36.4835 40.248 36.491 40.2465 36.4985 40.245C36.505 40.2435 36.511 40.242 36.5175 40.24C36.5255 40.238 36.5335 40.2355 36.5415 40.2325C36.547 40.2305 36.5525 40.2285 36.558 40.2265C36.566 40.2235 36.574 40.2205 36.5815 40.217C36.587 40.2145 36.593 40.2115 36.5985 40.209C36.6055 40.2055 36.6125 40.202 36.6195 40.198C36.626 40.1945 36.632 40.1905 36.638 40.187C36.644 40.1835 36.6495 40.1795 36.655 40.1755C36.6615 40.171 36.668 40.166 36.6745 40.161C36.679 40.1575 36.684 40.1535 36.6885 40.1495C36.695 40.144 36.7015 40.138 36.708 40.132C36.712 40.128 36.7165 40.124 36.72 40.12C36.726 40.114 36.7315 40.1075 36.7375 40.101C36.7415 40.096 36.7455 40.0915 36.7495 40.0865C36.7545 40.0805 36.759 40.0745 36.7635 40.068C36.768 40.062 36.7725 40.0555 36.7765 40.049C36.78 40.0435 36.7835 40.038 36.7865 40.0325C36.791 40.0245 36.7955 40.0165 36.7995 40.0085C36.801 40.006 36.8025 40.003 36.804 40.0005L37.5695 38.3915C37.7955 38.5585 38.0885 38.7385 38.4415 38.882C38.4425 38.882 38.4435 38.883 38.445 38.8835C38.529 38.9175 38.6165 38.9495 38.7075 38.979C38.723 38.984 38.738 38.989 38.7535 38.9935C38.7835 39.003 38.8135 39.012 38.8445 39.0205C38.8745 39.029 38.905 39.037 38.935 39.045C38.957 39.0505 38.9795 39.056 39.002 39.061C39.0315 39.068 39.061 39.0745 39.091 39.0805C39.116 39.0855 39.1405 39.0905 39.166 39.0955C39.2005 39.102 39.2345 39.108 39.269 39.1135C39.2855 39.116 39.302 39.119 39.319 39.1215C39.3655 39.128 39.412 39.134 39.4585 39.139C39.4725 39.1405 39.486 39.142 39.5 39.143C39.551 39.148 39.602 39.152 39.653 39.1545C39.6615 39.1545 39.67 39.155 39.678 39.1555C39.7355 39.158 39.7925 39.16 39.8505 39.16C39.907 39.16 39.9635 39.1585 40.0195 39.156C40.0285 39.156 40.038 39.1555 40.047 39.155C40.097 39.1525 40.147 39.1485 40.1965 39.144C40.2115 39.1425 40.226 39.141 40.2405 39.1395C40.286 39.1345 40.3315 39.129 40.377 39.1225C40.3945 39.12 40.412 39.117 40.4295 39.1145C40.4605 39.1095 40.4915 39.1045 40.5225 39.0985C40.5505 39.0935 40.578 39.088 40.605 39.0825C40.6335 39.0765 40.662 39.0705 40.6905 39.064C40.715 39.0585 40.7395 39.0525 40.7635 39.0465C40.782 39.042 40.8 39.037 40.818 39.032C40.8625 39.02 40.906 39.0075 40.949 38.994C40.9605 38.9905 40.972 38.987 40.9835 38.9835C41.453 38.8335 41.8335 38.6105 42.1145 38.4055L42.796 39.976C42.806 40.001 42.818 40.0245 42.832 40.047C42.832 40.048 42.833 40.0485 42.8335 40.0495C42.845 40.0675 42.8575 40.085 42.8715 40.101C42.8725 40.102 42.8735 40.103 42.8745 40.1045C42.887 40.119 42.9005 40.1325 42.915 40.1455C42.917 40.147 42.9185 40.149 42.9205 40.1505C42.936 40.1635 42.952 40.176 42.969 40.187C42.97 40.188 42.9715 40.1885 42.973 40.1895C42.989 40.2 43.006 40.209 43.0235 40.217C43.025 40.218 43.0265 40.2185 43.0285 40.2195C43.047 40.228 43.066 40.235 43.086 40.241C43.087 40.241 43.088 40.241 43.089 40.242C43.1065 40.247 43.124 40.251 43.142 40.2535C43.1465 40.254 43.151 40.255 43.1555 40.2555C43.1735 40.258 43.192 40.2595 43.211 40.2595C43.212 40.2595 43.213 40.2595 43.214 40.2595C43.2145 40.2595 43.2155 40.2595 43.216 40.2595H44.49C46.1785 40.2595 47.552 41.633 47.552 43.3215V46.3135C47.552 46.331 47.536 46.3475 47.518 46.3475C47.2695 46.3475 47.068 46.549 47.068 46.7975C47.068 47.046 47.2695 47.2475 47.518 47.2475C48.033 47.2475 48.452 46.8285 48.452 46.3135V43.3215C48.452 41.137 46.6745 39.3595 44.49 39.3595L44.488 39.354ZM8.24105 30.954C10.0035 30.954 11.437 32.592 11.437 34.605C11.437 36.618 10.098 38.145 8.41755 38.25C8.40855 38.2505 8.39905 38.251 8.39005 38.2515C8.34055 38.254 8.29055 38.256 8.24055 38.256C8.19055 38.256 8.14105 38.2545 8.09155 38.2515C8.08205 38.2515 8.07255 38.2505 8.06305 38.25C6.38305 38.1445 5.04405 36.55 5.04405 34.605C5.04405 32.66 6.47805 30.954 8.24005 30.954H8.24105ZM24.0055 29.0585C26.002 29.0585 27.626 30.9105 27.626 33.187C27.626 35.4635 26.1095 37.1895 24.206 37.3085C24.1955 37.309 24.185 37.3095 24.1745 37.31C24.1185 37.313 24.062 37.315 24.0055 37.315C23.949 37.315 23.893 37.313 23.837 37.31C23.826 37.3095 23.8155 37.309 23.8045 37.308C21.9015 37.1885 20.385 35.3855 20.385 33.1865C20.385 30.9875 22.009 29.058 24.0055 29.058V29.0585ZM39.8485 30.954C41.611 30.954 43.0445 32.592 43.0445 34.605C43.0445 36.618 41.7055 38.145 40.025 38.25C40.016 38.2505 40.0065 38.251 39.9975 38.2515C39.948 38.254 39.898 38.256 39.848 38.256C39.798 38.256 39.7485 38.2545 39.699 38.2515C39.6895 38.2515 39.68 38.2505 39.6705 38.25C37.9905 38.1445 36.6515 36.55 36.6515 34.605C36.6515 32.66 38.0855 30.954 39.8475 30.954H39.8485Z" fill="#6080E0"/>
<path d="M44.7031 45.3845C44.4546 45.3845 44.2531 45.586 44.2531 45.8345V46.792C44.2531 47.0405 44.4546 47.242 44.7031 47.242C44.9516 47.242 45.1531 47.0405 45.1531 46.792V45.8345C45.1531 45.586 44.9516 45.3845 44.7031 45.3845Z" fill="#6080E0"/>
<path d="M44.7031 43.332C44.4546 43.332 44.2531 43.5335 44.2531 43.782V44.471C44.2531 44.7195 44.4546 44.921 44.7031 44.921C44.9516 44.921 45.1531 44.7195 45.1531 44.471V43.782C45.1531 43.5335 44.9516 43.332 44.7031 43.332Z" fill="#6080E0"/>
<path d="M44.7031 43.5745C44.4546 43.5745 44.2531 43.988 44.2531 44.498V45.912C44.2531 46.422 44.4546 46.8355 44.7031 46.8355C44.9516 46.8355 45.1531 46.422 45.1531 45.912V44.498C45.1531 43.988 44.9516 43.5745 44.7031 43.5745Z" fill="#6080E0"/>
<path d="M18.486 41.321C18.2375 41.321 18.036 41.5225 18.036 41.771V46.7915C18.036 47.04 18.2375 47.2415 18.486 47.2415C18.7345 47.2415 18.936 47.04 18.936 46.7915V41.771C18.936 41.5225 18.7345 41.321 18.486 41.321Z" fill="#6080E0"/>
<path d="M29.4255 41.321C29.177 41.321 28.9755 41.5225 28.9755 41.771V46.7915C28.9755 47.04 29.177 47.2415 29.4255 47.2415C29.674 47.2415 29.8755 47.04 29.8755 46.7915V41.771C29.8755 41.5225 29.674 41.321 29.4255 41.321Z" fill="#6080E0"/>
<path d="M7.74601 19.6105V24.8255C7.74601 25.0015 7.84901 25.1615 8.00901 25.235C8.16901 25.308 8.35751 25.281 8.49051 25.166L14.75 19.745H20.5465L23.61 25.051C23.6905 25.19 23.839 25.276 23.9995 25.276C24.16 25.276 24.309 25.19 24.389 25.051L27.4525 19.745H33.249L39.5085 25.166C39.592 25.238 39.697 25.276 39.803 25.276C39.8665 25.276 39.93 25.2625 39.99 25.2355C40.15 25.1625 40.253 25.0025 40.253 24.826V19.611C44.7945 18.8475 48.1715 14.892 48.1715 10.252C48.1715 7.72601 47.181 5.34501 45.383 3.54701C43.585 1.74901 41.2035 0.758514 38.678 0.758514H9.32101C6.79501 0.758514 4.41401 1.74851 2.61601 3.54701C0.818015 5.34451 -0.172485 7.72601 -0.172485 10.2515C-0.172485 14.892 3.20451 18.847 7.74601 19.6105ZM9.32101 1.65851H38.679C43.4175 1.65851 47.2725 5.51351 47.2725 10.252C47.2725 14.5725 44.0375 18.237 39.748 18.776C39.523 18.804 39.354 18.9955 39.354 19.2225V23.8415L33.712 18.9555C33.63 18.8845 33.5255 18.8455 33.4175 18.8455H27.1935C27.0325 18.8455 26.884 18.9315 26.804 19.0705L24.0005 23.9265L21.197 19.0705C21.1165 18.9315 20.968 18.8455 20.8075 18.8455H14.5835C14.4755 18.8455 14.3705 18.8845 14.289 18.9555L8.64701 23.8415V19.2225C8.64701 18.9955 8.47801 18.8045 8.25301 18.776C3.96251 18.237 0.727515 14.5725 0.727515 10.2515C0.727515 5.51301 4.58251 1.65801 9.32101 1.65801V1.65851Z" fill="#6080E0"/>
<path d="M14.7705 16.6555H33.23C33.4785 16.6555 33.68 16.454 33.68 16.2055V11.0415C33.68 10.793 33.4785 10.5915 33.23 10.5915C32.9815 10.5915 32.78 10.793 32.78 11.0415V15.7555H25.2695C25.615 15.519 26.224 15.218 27.2565 14.8985C28.6595 14.4645 30.215 14.196 30.852 14.196C31.1005 14.196 31.302 13.9945 31.302 13.746V6.869H32.78V7.219C32.78 7.4675 32.9815 7.669 33.23 7.669C33.4785 7.669 33.68 7.4675 33.68 7.219V6.419C33.68 6.1705 33.4785 5.96899 33.23 5.96899H31.302V3.82C31.302 3.5715 31.1005 3.37 30.852 3.37H28.641C26.5795 3.37 24.8 4.602 24.0005 6.3685C23.201 4.602 21.4215 3.37 19.36 3.37H17.149C16.9005 3.37 16.699 3.5715 16.699 3.82V5.96899H14.771C14.5225 5.96899 14.321 6.1705 14.321 6.419V16.205C14.321 16.4535 14.5225 16.655 14.771 16.655L14.7705 16.6555ZM28.6405 4.2705H30.4015V13.321C29.57 13.398 28.233 13.6545 26.99 14.039C25.776 14.4145 24.933 14.8175 24.45 15.257V8.46149C24.45 6.151 26.33 4.27099 28.6405 4.27099V4.2705ZM19.3595 4.2705C21.67 4.2705 23.55 6.1505 23.55 8.461V15.2565C23.0665 14.817 22.224 14.414 21.01 14.0385C19.767 13.654 18.43 13.3975 17.5985 13.3205V6.628C17.6315 6.5655 17.65 6.4945 17.65 6.419C17.65 6.3435 17.631 6.2725 17.5985 6.21V4.27H19.3595V4.2705ZM15.2205 6.8695H16.6985V13.7465C16.6985 13.995 16.9 14.1965 17.1485 14.1965C17.7855 14.1965 19.341 14.465 20.744 14.899C21.777 15.2185 22.3855 15.5195 22.731 15.756H15.2205V6.86999V6.8695Z" fill="#6080E0"/>
<path d="M33.2294 8.76401C32.9719 8.76401 32.7629 8.97301 32.7629 9.23051C32.7629 9.48801 32.9719 9.69701 33.2294 9.69701C33.4869 9.69701 33.6959 9.48801 33.6959 9.23051C33.6959 8.97301 33.4869 8.76401 33.2294 8.76401Z" fill="#6080E0"/>
<path d="M44.703 42.7775C44.9606 42.7775 45.1695 42.5686 45.1695 42.311C45.1695 42.0533 44.9606 41.8445 44.703 41.8445C44.4453 41.8445 44.2365 42.0533 44.2365 42.311C44.2365 42.5686 44.4453 42.7775 44.703 42.7775Z" fill="#6080E0"/>
</g>
<defs>
<clipPath id="clip0_772_4458">
<rect width="48" height="48" fill="white"/>
</clipPath>
</defs>
</svg>
