<svg width="48" height="48" viewBox="0 0 48 48" fill="none" xmlns="http://www.w3.org/2000/svg">
<g clip-path="url(#clip0_772_4451)">
<path d="M39.029 4.125C36.369 1.465 32.832 0 29.0705 0H27.237C26.993 0 26.7955 0.198 26.7955 0.4415V5.9805C25.357 6.1945 24.2495 7.438 24.2495 8.9355C24.2495 10.433 25.3565 11.6765 26.7955 11.8905V14.0835C26.7955 14.3275 26.9935 14.525 27.237 14.525H32.222C32.466 14.525 32.6635 14.327 32.6635 14.0835C32.6635 12.9235 33.6075 11.9795 34.7675 11.9795C35.9275 11.9795 36.8715 12.9235 36.8715 14.0835C36.8715 14.3275 37.0695 14.525 37.313 14.525H42.712C42.956 14.525 43.1535 14.327 43.1535 14.0835C43.1535 10.3215 41.6885 6.785 39.0285 4.125H39.029ZM37.7225 13.6415C37.5085 12.203 36.265 11.0955 34.7675 11.0955C33.27 11.0955 32.0265 12.2025 31.8125 13.6415H27.6785V11.481C27.6785 11.237 27.4805 11.0395 27.237 11.0395C26.077 11.0395 25.133 10.0955 25.133 8.9355C25.133 7.7755 26.077 6.8315 27.237 6.8315C27.481 6.8315 27.6785 6.6335 27.6785 6.39V0.8835H29.0705C36.201 0.8835 42.0295 6.567 42.263 13.642H37.7225V13.6415Z" fill="#6080E0"/>
<path d="M36.2399 19.869H30.4904C30.4279 18.2765 29.1129 17 27.5054 17C25.8979 17 24.5829 18.2765 24.5204 19.869H21.2074V17.4415C21.2074 17.1975 21.0094 17 20.7659 17C19.6059 17 18.6619 16.056 18.6619 14.896C18.6619 13.736 19.6059 12.792 20.7659 12.792C21.0099 12.792 21.2074 12.594 21.2074 12.3505V6.6695C21.2074 6.4255 21.0094 6.228 20.7659 6.228H18.9324C16.0459 6.228 13.2714 7.095 10.9089 8.7355C10.7084 8.8745 10.6589 9.15 10.7979 9.35C10.9369 9.5505 11.2124 9.6 11.4129 9.461C13.6269 7.924 16.2269 7.1115 18.9324 7.1115H20.3244V11.942C18.8859 12.156 17.7784 13.3995 17.7784 14.897C17.7784 16.3945 18.8854 17.638 20.3244 17.852V19.87H17.0114C16.9489 18.2775 15.6339 17.001 14.0264 17.001C12.4189 17.001 11.1039 18.2775 11.0414 19.87H5.74044C5.84394 16.746 7.04594 13.7705 9.15144 11.4485C9.31544 11.268 9.30144 10.9885 9.12094 10.8245C8.94044 10.6605 8.66094 10.6745 8.49694 10.855C6.14494 13.449 4.84994 16.8075 4.84994 20.3115C4.84994 20.316 4.85044 20.32 4.85044 20.324C4.79444 23.77 5.58244 26.4725 7.19294 28.3565C9.07044 30.553 10.8929 31.9575 10.9694 32.0165C11.1389 32.1465 11.3049 32.2695 11.4654 32.3885C12.3439 33.0405 13.0379 33.5555 13.5014 34.519C13.7674 35.0715 13.9139 35.688 13.9404 36.3565C12.9629 36.56 12.2259 37.428 12.2259 38.465C12.2259 39.502 12.9749 40.384 13.9649 40.578C13.7809 40.864 13.6734 41.2035 13.6734 41.5685C13.6734 42.5795 14.4959 43.4015 15.5064 43.4015H15.6239C15.6614 45.944 17.7409 48.001 20.2924 48.001C22.8439 48.001 24.9234 45.944 24.9609 43.4015H25.3039C26.3149 43.4015 27.1369 42.579 27.1369 41.5685C27.1369 41.204 27.0294 40.864 26.8454 40.578C27.8349 40.384 28.5844 39.5105 28.5844 38.465C28.5844 37.704 28.1874 37.0345 27.5894 36.6515C27.5794 35.8685 27.7274 35.152 28.0319 34.5195C28.4954 33.556 29.1894 33.041 30.0679 32.389C30.2284 32.27 30.3944 32.1465 30.5639 32.017C30.6404 31.9585 32.4629 30.554 34.3404 28.357C35.9539 26.469 36.7419 23.7595 36.6824 20.304C36.6784 20.063 36.4819 19.87 36.2409 19.87L36.2399 19.869ZM11.9904 31.6785C11.8324 31.5615 11.6694 31.44 11.5049 31.3145C11.4869 31.3005 9.67644 29.904 7.86244 27.782C6.45944 26.1405 5.74294 23.777 5.72944 20.7525H11.5004C11.5159 20.7525 11.5314 20.7515 11.5469 20.75C11.5494 20.75 11.5519 20.749 11.5549 20.749C11.5674 20.7475 11.5804 20.7455 11.5924 20.743C11.5954 20.7425 11.5984 20.7415 11.6014 20.7405C11.6134 20.7375 11.6249 20.7345 11.6364 20.731C11.6399 20.73 11.6434 20.7285 11.6474 20.727C11.6579 20.7235 11.6684 20.7195 11.6784 20.715C11.6829 20.713 11.6869 20.711 11.6909 20.709C11.6999 20.7045 11.7089 20.7 11.7179 20.695C11.7229 20.6925 11.7274 20.6895 11.7319 20.6865C11.7399 20.6815 11.7474 20.6765 11.7554 20.671C11.7604 20.6675 11.7649 20.664 11.7699 20.66C11.7769 20.6545 11.7839 20.649 11.7904 20.643C11.7949 20.639 11.7999 20.635 11.8044 20.6305C11.8109 20.624 11.8174 20.6175 11.8234 20.611C11.8259 20.608 11.8289 20.6055 11.8314 20.603C11.8329 20.6015 11.8339 20.5995 11.8354 20.598C11.8419 20.5905 11.8479 20.583 11.8534 20.575C11.8564 20.571 11.8599 20.567 11.8629 20.5625C11.8694 20.553 11.8754 20.5435 11.8809 20.5335C11.8829 20.5305 11.8849 20.5275 11.8864 20.5245C11.9084 20.485 11.9244 20.442 11.9334 20.3965C11.9344 20.3925 11.9344 20.389 11.9354 20.385C11.9374 20.374 11.9389 20.363 11.9399 20.352C11.9404 20.3455 11.9404 20.339 11.9409 20.333C11.9409 20.3255 11.9419 20.3185 11.9419 20.311C11.9419 20.3095 11.9419 20.308 11.9419 20.3065C11.9419 20.3 11.9414 20.2935 11.9409 20.287C11.9404 20.278 11.9399 20.2685 11.9389 20.2595C11.9389 20.258 11.9389 20.2565 11.9389 20.255C11.9269 20.1615 11.9214 20.0735 11.9214 19.9875C11.9214 18.8275 12.8654 17.8835 14.0254 17.8835C15.1854 17.8835 16.1294 18.8275 16.1294 19.9875C16.1294 20.074 16.1234 20.1615 16.1119 20.255C16.1119 20.2565 16.1119 20.258 16.1119 20.2595C16.1109 20.2685 16.1104 20.2775 16.1099 20.2865C16.1099 20.293 16.1089 20.2995 16.1089 20.306C16.1089 20.3075 16.1089 20.309 16.1089 20.3105C16.1089 20.318 16.1099 20.3255 16.1099 20.333C16.1099 20.3395 16.1099 20.346 16.1109 20.352C16.1119 20.363 16.1139 20.374 16.1154 20.385C16.1159 20.389 16.1164 20.3925 16.1169 20.3965C16.1259 20.442 16.1419 20.485 16.1639 20.5245C16.1659 20.528 16.1679 20.531 16.1699 20.5345C16.1754 20.544 16.1814 20.5535 16.1874 20.5625C16.1904 20.567 16.1939 20.5715 16.1974 20.576C16.2029 20.5835 16.2089 20.591 16.2149 20.598C16.2164 20.5995 16.2174 20.6015 16.2189 20.6035C16.2214 20.6065 16.2249 20.609 16.2274 20.612C16.2334 20.6185 16.2394 20.6245 16.2459 20.6305C16.2504 20.635 16.2554 20.6395 16.2604 20.6435C16.2669 20.649 16.2734 20.6545 16.2804 20.66C16.2854 20.664 16.2904 20.6675 16.2954 20.671C16.3029 20.6765 16.3104 20.681 16.3184 20.686C16.3234 20.689 16.3279 20.692 16.3329 20.695C16.3414 20.7 16.3504 20.7045 16.3599 20.709C16.3644 20.711 16.3684 20.7135 16.3729 20.715C16.3829 20.7195 16.3934 20.7235 16.4039 20.727C16.4074 20.7285 16.4109 20.73 16.4149 20.731C16.4264 20.7345 16.4379 20.7375 16.4499 20.7405C16.4529 20.741 16.4559 20.742 16.4589 20.743C16.4714 20.7455 16.4839 20.7475 16.4969 20.749C16.4994 20.749 16.5019 20.75 16.5049 20.75C16.5204 20.7515 16.5359 20.7525 16.5514 20.7525H20.3254V24.572C18.8869 24.786 17.7794 26.0295 17.7794 27.527C17.7794 29.0245 18.8864 30.268 20.3254 30.482V36.311H14.8234C14.7914 35.525 14.6154 34.7955 14.2979 34.1355C13.7399 32.9755 12.8909 32.3455 11.9924 31.679L11.9904 31.6785ZM20.2909 47.1165C18.2269 47.1165 16.5444 45.456 16.5069 43.4005H24.0749C24.0374 45.456 22.3549 47.1165 20.2909 47.1165ZM26.4294 39.734H24.5184C24.2744 39.734 24.0769 39.932 24.0769 40.1755C24.0769 40.419 24.2749 40.617 24.5184 40.617H25.3024C25.8259 40.617 26.2524 41.043 26.2524 41.567C26.2524 42.091 25.8264 42.517 25.3024 42.517H16.0754C16.0754 42.517 16.0724 42.517 16.0709 42.517H15.5049C14.9814 42.517 14.5549 42.091 14.5549 41.567C14.5549 41.043 14.9809 40.617 15.5049 40.617H21.8159C22.0599 40.617 22.2574 40.419 22.2574 40.1755C22.2574 39.932 22.0594 39.734 21.8159 39.734H14.3779C13.6779 39.734 13.1079 39.1645 13.1079 38.464C13.1079 37.8575 13.5354 37.349 14.1049 37.224C14.1824 37.285 14.2779 37.319 14.3779 37.319H26.9779C27.4044 37.524 27.6989 37.9605 27.6989 38.464C27.6989 39.164 27.1294 39.734 26.4289 39.734H26.4294ZM33.6679 27.782C31.8539 29.904 30.0439 31.3005 30.0259 31.3145C29.8619 31.4405 29.6984 31.5615 29.5404 31.6785C28.6419 32.3455 27.7929 32.9755 27.2349 34.135C26.9149 34.8 26.7389 35.536 26.7089 36.329C26.6174 36.317 26.5244 36.3105 26.4299 36.3105H21.2074V30.0725C21.2074 29.8285 21.0094 29.631 20.7659 29.631C19.6059 29.631 18.6619 28.687 18.6619 27.527C18.6619 26.367 19.6059 25.423 20.7659 25.423C21.0099 25.423 21.2074 25.225 21.2074 24.9815V20.7525H24.9814C25.1084 20.7525 25.2289 20.698 25.3129 20.603C25.3969 20.508 25.4354 20.381 25.4199 20.2555C25.4079 20.162 25.4024 20.0745 25.4024 19.988C25.4024 18.828 26.3464 17.884 27.5064 17.884C28.6664 17.884 29.6104 18.828 29.6104 19.988C29.6104 20.0745 29.6044 20.162 29.5929 20.2555C29.5769 20.3815 29.6159 20.508 29.6999 20.603C29.7839 20.698 29.9044 20.7525 30.0314 20.7525H35.8024C35.7889 23.7775 35.0719 26.141 33.6694 27.782H33.6679Z" fill="#6080E0"/>
<path d="M23.2266 39.7175C22.9736 39.7175 22.7686 39.9225 22.7686 40.1755C22.7686 40.4285 22.9736 40.6335 23.2266 40.6335C23.4796 40.6335 23.6846 40.4285 23.6846 40.1755C23.6846 39.9225 23.4796 39.7175 23.2266 39.7175Z" fill="#6080E0"/>
<path d="M9.87694 10.5505C10.1299 10.5505 10.3349 10.3455 10.3349 10.0925C10.3349 9.83949 10.1299 9.63449 9.87694 9.63449C9.62394 9.63449 9.41895 9.83949 9.41895 10.0925C9.41895 10.3455 9.62394 10.5505 9.87694 10.5505Z" fill="#6080E0"/>
</g>
<defs>
<clipPath id="clip0_772_4451">
<rect width="48" height="48" fill="white"/>
</clipPath>
</defs>
</svg>
