<svg width="48" height="48" viewBox="0 0 48 48" fill="none" xmlns="http://www.w3.org/2000/svg">
<path d="M47.1275 17.8545H33.2505V15.376H34.605C35.0835 15.376 35.473 14.9865 35.473 14.508V11.7865C35.473 11.308 35.0835 10.9185 34.605 10.9185H23.345V8.3965C23.369 8.3985 23.3925 8.4 23.417 8.4H29.441C29.9195 8.4 30.309 8.0105 30.309 7.532V2.9035C30.309 2.425 29.9195 2.0355 29.441 2.0355H23.417C23.3925 2.0355 23.369 2.037 23.345 2.039V1.452C23.345 1.208 23.147 1.0105 22.9035 1.0105C22.66 1.0105 22.462 1.2085 22.462 1.452V10.918H13.396C12.9175 10.918 12.528 11.3075 12.528 11.786V14.5075C12.528 14.986 12.9175 15.3755 13.396 15.3755H14.7505V17.854H0.8725C0.3915 17.854 0 18.2455 0 18.7265V21.162C0 21.643 0.3915 22.0345 0.8725 22.0345H1.667V32.7015C1.667 32.9455 1.865 33.143 2.1085 33.143C2.352 33.143 2.55 32.945 2.55 32.7015V22.0345H14.749V46.105H2.5505V37.1575C2.5505 36.9135 2.3525 36.716 2.109 36.716C1.8655 36.716 1.6675 36.914 1.6675 37.1575V46.1205C1.6675 46.599 2.057 46.9885 2.5355 46.9885H45.9315C46.41 46.9885 46.7995 46.599 46.7995 46.1205V22.0345H47.1275C47.6085 22.0345 48 21.643 48 21.162V18.7265C48 18.2455 47.6085 17.854 47.1275 17.854V17.8545ZM23.432 2.919H29.425V7.5165H23.432V2.919ZM2.5355 21.152H0.8835V18.738H14.7495V21.152H2.5355ZM18.6935 46.106V43.603H29.3065V46.106H18.6935ZM28.021 33.9185V42.7195H24.442V33.9185H28.021ZM23.5585 42.7195H19.9795V33.9185H23.5585V42.7195ZM30.19 46.106V43.5875C30.19 43.109 29.8005 42.7195 29.322 42.7195H28.904V33.903C28.904 33.4245 28.5145 33.035 28.036 33.035H19.9635C19.485 33.035 19.0955 33.4245 19.0955 33.903V42.7195H18.6775C18.199 42.7195 17.8095 43.109 17.8095 43.5875V46.106H15.6325V21.927C15.7255 21.846 15.7845 21.727 15.7845 21.594C15.7845 21.461 15.7255 21.342 15.6325 21.261V15.376H27.267C27.511 15.376 27.7085 15.178 27.7085 14.9345C27.7085 14.691 27.5105 14.493 27.267 14.493H13.4105V11.8025H34.589V14.493H31.1885C30.9445 14.493 30.747 14.691 30.747 14.9345C30.747 15.178 30.945 15.376 31.1885 15.376H32.367V46.106H30.19ZM45.916 46.106H33.2505V22.0355H45.916V46.106ZM47.1165 21.152H33.2505V18.738H47.1165V21.152Z" fill="#6080E0"/>
<path d="M5.24752 30.606H12.089C12.5675 30.606 12.957 30.2165 12.957 29.738V26.1345C12.957 25.656 12.5675 25.2665 12.089 25.2665H5.24752C4.76902 25.2665 4.37952 25.656 4.37952 26.1345V29.738C4.37952 30.2165 4.76902 30.606 5.24752 30.606ZM12.0735 29.7225H9.08052V26.15H12.0735V29.7225ZM5.26302 26.15H8.19752V29.7225H5.26302V26.15Z" fill="#6080E0"/>
<path d="M4.37952 36.732C4.37952 37.2105 4.76902 37.6 5.24752 37.6H12.089C12.5675 37.6 12.957 37.2105 12.957 36.732V33.1285C12.957 32.65 12.5675 32.2605 12.089 32.2605H5.24752C4.76902 32.2605 4.37952 32.65 4.37952 33.1285V36.732ZM12.0735 36.7165H9.08052V33.144H12.0735V36.7165ZM5.26302 33.144H8.19752V36.7165H5.26302V33.144Z" fill="#6080E0"/>
<path d="M35.911 30.606H42.7525C43.231 30.606 43.6205 30.2165 43.6205 29.738V26.1345C43.6205 25.656 43.231 25.2665 42.7525 25.2665H35.911C35.4325 25.2665 35.043 25.656 35.043 26.1345V29.738C35.043 30.2165 35.4325 30.606 35.911 30.606ZM42.737 29.7225H39.744V26.15H42.737V29.7225ZM35.9265 26.15H38.861V29.7225H35.9265V26.15Z" fill="#6080E0"/>
<path d="M35.911 37.6H42.7525C43.231 37.6 43.6205 37.2105 43.6205 36.732V33.1285C43.6205 32.65 43.231 32.2605 42.7525 32.2605H35.911C35.4325 32.2605 35.043 32.65 35.043 33.1285V36.732C35.043 37.2105 35.4325 37.6 35.911 37.6ZM42.737 36.7165H39.744V33.144H42.737V36.7165ZM35.9265 33.144H38.861V36.7165H35.9265V33.144Z" fill="#6080E0"/>
<path d="M24.0001 17.257C20.6936 17.257 18.0031 19.947 18.0031 23.254C18.0031 26.561 20.6931 29.251 24.0001 29.251C27.3071 29.251 29.9971 26.561 29.9971 23.254C29.9971 19.947 27.3071 17.257 24.0001 17.257ZM24.0001 28.3675C21.1806 28.3675 18.8866 26.0735 18.8866 23.254C18.8866 20.4345 21.1806 18.1405 24.0001 18.1405C26.8196 18.1405 29.1136 20.4345 29.1136 23.254C29.1136 26.0735 26.8196 28.3675 24.0001 28.3675Z" fill="#6080E0"/>
<path d="M26.1935 23.5455H24.4415V20.6545C24.4415 20.4105 24.2435 20.213 24 20.213C23.7565 20.213 23.5585 20.411 23.5585 20.6545V23.987C23.5585 24.231 23.7565 24.4285 24 24.4285H26.1935C26.4375 24.4285 26.635 24.2305 26.635 23.987C26.635 23.7435 26.437 23.5455 26.1935 23.5455Z" fill="#6080E0"/>
<path d="M28.812 15.4005C29.0696 15.4005 29.2785 15.1916 29.2785 14.934C29.2785 14.6764 29.0696 14.4675 28.812 14.4675C28.5543 14.4675 28.3455 14.6764 28.3455 14.934C28.3455 15.1916 28.5543 15.4005 28.812 15.4005Z" fill="#6080E0"/>
<path d="M2.10896 35.6195C2.36696 35.6195 2.57546 35.4105 2.57546 35.153C2.57546 34.8955 2.36646 34.6865 2.10896 34.6865C1.85146 34.6865 1.64246 34.8955 1.64246 35.153C1.64246 35.4105 1.85146 35.6195 2.10896 35.6195Z" fill="#6080E0"/>
</svg>
