<svg width="72" height="72" viewBox="0 0 72 72" fill="none" xmlns="http://www.w3.org/2000/svg">
<path d="M66.7703 4.23376H5.22975C2.346 4.23376 0 6.57976 0 9.46351V48.6428C0 51.5265 2.346 53.8725 5.22975 53.8725H25.731V61.1258H17.7458C16.7108 61.1258 15.8685 61.968 15.8685 63.003V65.853C15.8685 66.888 16.7108 67.7303 17.7458 67.7303H42.4215C42.7875 67.7303 43.0838 67.4333 43.0838 67.068C43.0838 66.7028 42.7868 66.4058 42.4215 66.4058H17.7458C17.4412 66.4058 17.1938 66.1583 17.1938 65.8538V63.0038C17.1938 62.6993 17.4412 62.4518 17.7458 62.4518H54.2535C54.558 62.4518 54.8055 62.6993 54.8055 63.0038V65.8538C54.8055 66.1583 54.558 66.4058 54.2535 66.4058H49.554C49.188 66.4058 48.8918 66.7028 48.8918 67.068C48.8918 67.4333 49.1888 67.7303 49.554 67.7303H54.2535C55.2885 67.7303 56.1307 66.888 56.1307 65.853V63.003C56.1307 61.968 55.2885 61.1258 54.2535 61.1258H46.2682V53.8725H66.7695C69.6533 53.8725 71.9993 51.5265 71.9993 48.6428V9.46351C71.9993 6.57976 69.6533 4.23376 66.7695 4.23376H66.7703ZM60.7185 44.184H49.152V43.9305C49.152 41.229 51.3503 39.0308 54.0518 39.0308H55.8188C58.5203 39.0308 60.7185 41.229 60.7185 43.9305V44.184ZM55.8188 37.7055H54.0518C50.619 37.7055 47.8268 40.4978 47.8268 43.9305V44.184H36.6638L36.786 37.7048C43.0365 37.3763 48.0593 32.3393 48.366 26.0828H70.6748V44.184H62.0438V43.9305C62.0438 40.4978 59.2515 37.7055 55.8188 37.7055ZM22.848 44.184H11.2815V43.9305C11.2815 41.229 13.4798 39.0308 16.1813 39.0308H17.9482C20.6497 39.0308 22.848 41.229 22.848 43.9305V44.184ZM17.9482 37.7055H16.1813C12.7485 37.7055 9.95625 40.4978 9.95625 43.9305V44.184H1.32525V26.0835L23.9085 26.1368C24.2408 32.3595 29.2403 37.3635 35.4615 37.7033L35.3393 44.184H24.174V43.9305C24.174 40.4978 21.3818 37.7055 17.949 37.7055H17.9482ZM9.2115 24.7575V24.504C9.2115 21.8025 11.4097 19.6043 14.1112 19.6043H15.8783C18.5798 19.6043 20.778 21.8025 20.778 24.504V24.7575H9.2115ZM36.1357 14.556C42.1575 14.556 47.0565 19.455 47.0565 25.476C47.0565 31.497 42.1575 36.3968 36.1357 36.3968C30.114 36.3968 25.2157 31.4978 25.2157 25.476C25.2157 19.4543 30.1148 14.556 36.1357 14.556ZM62.7885 24.7575H51.222V24.504C51.222 21.8025 53.4202 19.6043 56.1217 19.6043H57.8888C60.5903 19.6043 62.7885 21.8025 62.7885 24.504V24.7575ZM70.6748 9.46351V24.7575H64.1138V24.504C64.1138 21.0713 61.3215 18.279 57.8888 18.279H56.1217C52.689 18.279 49.8968 21.0713 49.8968 24.504V24.7575H48.3592C47.9963 18.5123 42.9315 13.509 36.6615 13.2428V5.55901H66.7695C68.9228 5.55901 70.6748 7.31101 70.6748 9.46426V9.46351ZM5.22975 5.55901H35.3363V13.2578C29.1742 13.6568 24.24 18.6323 23.9077 24.8123L22.1018 24.8078C22.1018 24.8033 22.1018 24.7988 22.1018 24.7943V24.504C22.1018 21.0713 19.3095 18.279 15.8768 18.279H14.1098C10.677 18.279 7.88475 21.0713 7.88475 24.504V24.774L1.32375 24.7583V9.46351C1.32375 7.31026 3.07575 5.55826 5.229 5.55826L5.22975 5.55901ZM44.9438 61.1265H27.0563V53.8733H44.9438V61.1265ZM66.7703 52.548H5.22975C3.0765 52.548 1.3245 50.796 1.3245 48.6428V45.5093H70.674V48.6428C70.674 50.796 68.922 52.548 66.7688 52.548H66.7703Z" fill="#17AF95"/>
<path d="M45.8903 66.3705C45.5048 66.3705 45.192 66.6832 45.192 67.0687C45.192 67.4542 45.5048 67.767 45.8903 67.767C46.2758 67.767 46.5885 67.4542 46.5885 67.0687C46.5885 66.6832 46.2758 66.3705 45.8903 66.3705Z" fill="#17AF95"/>
<path d="M42.2752 48.9038H32.8522C32.4862 48.9038 32.1899 49.2008 32.1899 49.5661C32.1899 49.9313 32.4869 50.2283 32.8522 50.2283H42.2752C42.6412 50.2283 42.9374 49.9313 42.9374 49.5661C42.9374 49.2008 42.6404 48.9038 42.2752 48.9038Z" fill="#17AF95"/>
<path d="M30.423 48.8678C30.0375 48.8678 29.7247 49.1805 29.7247 49.566C29.7247 49.9515 30.0375 50.2643 30.423 50.2643C30.8085 50.2643 31.1212 49.9515 31.1212 49.566C31.1212 49.1805 30.8085 48.8678 30.423 48.8678Z" fill="#17AF95"/>
<path d="M27.9502 22.518V30.4222C27.9502 30.7882 28.2472 31.0845 28.6124 31.0845H43.5217C43.8877 31.0845 44.1839 30.7875 44.1839 30.4222V22.518C44.1839 22.152 43.8869 21.8557 43.5217 21.8557H42.2639V20.4187C42.2639 20.0527 41.9669 19.7565 41.6017 19.7565H39.8159C38.2349 19.7565 36.8467 20.5927 36.0674 21.846C35.2889 20.5927 33.8999 19.7565 32.3189 19.7565H30.5332C30.1672 19.7565 29.8709 20.0535 29.8709 20.4187V21.8557H28.6132C28.2472 21.8557 27.9509 22.1527 27.9509 22.518H27.9502ZM42.8594 23.1802V29.7592H38.4554C38.6279 29.7 38.8199 29.6392 39.0329 29.5777C40.0634 29.2815 41.1682 29.0977 41.6009 29.0977C41.9669 29.0977 42.2632 28.8007 42.2632 28.4355V23.1802H42.8587H42.8594ZM39.8159 21.081H40.9394V27.825C40.2487 27.9127 39.2894 28.1092 38.3947 28.386C37.7002 28.6005 37.1482 28.8277 36.7304 29.073V24.1665C36.7304 22.4647 38.1149 21.081 39.8159 21.081ZM32.3197 21.081C34.0214 21.081 35.4052 22.4655 35.4052 24.1665V29.073C34.9874 28.8277 34.4354 28.6005 33.7409 28.386C32.8462 28.1092 31.8877 27.9127 31.1962 27.825V22.7475C31.2224 22.6755 31.2382 22.599 31.2382 22.518C31.2382 22.437 31.2232 22.3597 31.1962 22.2885V21.0817H32.3197V21.081ZM29.2754 23.1802H29.8709V28.4355C29.8709 28.8015 30.1679 29.0977 30.5332 29.0977C30.9659 29.0977 32.0707 29.2815 33.1012 29.5777C33.3142 29.6392 33.5062 29.7 33.6787 29.7592H29.2747V23.1802H29.2754Z" fill="#17AF95"/>
<path d="M17.0647 29.2223C14.8695 29.2223 13.0837 31.008 13.0837 33.2033C13.0837 35.3985 14.8695 37.1843 17.0647 37.1843C19.26 37.1843 21.0457 35.3985 21.0457 33.2033C21.0457 31.008 19.26 29.2223 17.0647 29.2223ZM17.0647 35.8598C15.6 35.8598 14.4082 34.668 14.4082 33.2033C14.4082 31.7385 15.6 30.5468 17.0647 30.5468C18.5295 30.5468 19.7212 31.7385 19.7212 33.2033C19.7212 34.668 18.5295 35.8598 17.0647 35.8598Z" fill="#17AF95"/>
<path d="M54.9352 29.2223C52.74 29.2223 50.9542 31.008 50.9542 33.2033C50.9542 35.3985 52.74 37.1843 54.9352 37.1843C57.1305 37.1843 58.9162 35.3985 58.9162 33.2033C58.9162 31.008 57.1305 29.2223 54.9352 29.2223ZM54.9352 35.8598C53.4705 35.8598 52.2787 34.668 52.2787 33.2033C52.2787 31.7385 53.4705 30.5468 54.9352 30.5468C56.4 30.5468 57.5917 31.7385 57.5917 33.2033C57.5917 34.668 56.4 35.8598 54.9352 35.8598Z" fill="#17AF95"/>
<path d="M14.9948 17.7585C17.19 17.7585 18.9758 15.9728 18.9758 13.7775C18.9758 11.5823 17.19 9.79651 14.9948 9.79651C12.7995 9.79651 11.0138 11.5823 11.0138 13.7775C11.0138 15.9728 12.7995 17.7585 14.9948 17.7585ZM14.9948 11.121C16.4595 11.121 17.6513 12.3128 17.6513 13.7775C17.6513 15.2423 16.4595 16.434 14.9948 16.434C13.53 16.434 12.3383 15.2423 12.3383 13.7775C12.3383 12.3128 13.53 11.121 14.9948 11.121Z" fill="#17AF95"/>
<path d="M57.0053 17.7585C59.2005 17.7585 60.9863 15.9728 60.9863 13.7775C60.9863 11.5823 59.2005 9.79651 57.0053 9.79651C54.81 9.79651 53.0243 11.5823 53.0243 13.7775C53.0243 15.9728 54.81 17.7585 57.0053 17.7585ZM57.0053 11.121C58.47 11.121 59.6618 12.3128 59.6618 13.7775C59.6618 15.2423 58.47 16.434 57.0053 16.434C55.5405 16.434 54.3488 15.2423 54.3488 13.7775C54.3488 12.3128 55.5405 11.121 57.0053 11.121Z" fill="#17AF95"/>
</svg>
