<svg width="48" height="48" viewBox="0 0 48 48" fill="none" xmlns="http://www.w3.org/2000/svg">
<g clip-path="url(#clip0_772_4486)">
<path d="M47.558 46.161H17.4225L17.9625 45.9435C18.402 45.7665 18.6155 45.265 18.439 44.8255L17.5285 42.5635C17.5095 42.5165 17.483 42.4745 17.4515 42.438C17.451 42.3325 17.4315 42.226 17.39 42.1225L17.113 41.4345C17.022 41.208 16.7645 41.0985 16.538 41.1895C16.3115 41.2805 16.202 41.538 16.293 41.7645L16.561 42.43L13.9915 43.4645L12.1545 38.901L14.6905 37.88L15.2075 39.164C15.231 39.222 15.2655 39.2725 15.3075 39.314C15.4045 39.529 15.654 39.631 15.8745 39.5425C16.101 39.4515 16.2105 39.194 16.1195 38.9675L15.5345 37.514C15.503 37.4355 15.4605 37.3635 15.409 37.299L14.4185 34.8385C14.2415 34.399 13.74 34.185 13.3005 34.362L11.0505 35.268C10.9785 34.8665 10.6275 34.56 10.2055 34.56H7.423C7.264 34.56 7.1155 34.604 6.9875 34.68C6.8595 34.6045 6.711 34.56 6.552 34.56H3.7695C3.2955 34.56 2.91 34.9455 2.91 35.4195V38.074C2.887 38.1515 2.874 38.2335 2.874 38.3185V43.2865C2.874 43.3715 2.887 43.4535 2.91 43.531V46.161H0.442C0.198 46.161 0 46.359 0 46.603C0 46.847 0.198 47.045 0.442 47.045H15.0535C15.056 47.045 15.0585 47.045 15.061 47.045C15.0635 47.045 15.0665 47.045 15.069 47.045H47.558C47.802 47.045 48 46.847 48 46.603C48 46.359 47.802 46.161 47.558 46.161ZM3.793 38.3425H6.527V43.262H3.793V38.3425ZM7.4465 38.3425H10.1805V43.262H7.4465V38.3425ZM11.0645 43.531C11.0875 43.4535 11.1005 43.3715 11.1005 43.2865V38.65L11.2335 38.98C11.241 39.062 11.2605 39.1435 11.292 39.222L13.1475 43.831C13.1795 43.91 13.222 43.9815 13.2725 44.0445L14.1245 46.161H11.065V43.531H11.0645ZM16.8575 43.2635L17.61 45.133L15.074 46.154L14.3215 44.2845L16.8575 43.2635ZM13.6075 35.1905L14.36 37.06L11.824 38.081L11.0715 36.2115L13.6075 35.1905ZM10.1805 35.4435V36.1835C10.1805 36.1835 10.1805 36.1845 10.1805 36.185V37.459H7.4465V35.444H10.1805V35.4435ZM6.527 35.4435V37.4585H3.793V35.4435H6.527ZM3.793 46.161V44.146H6.527V46.161H3.793ZM7.4465 46.161V44.146H10.1805V46.161H7.4465Z" fill="#6080E0"/>
<path d="M0.869 28.9865H21.646C21.89 28.9865 22.088 28.7885 22.088 28.5445C22.088 28.3005 21.89 28.1025 21.646 28.1025H0.8835V24.4325H21.5905C21.8345 24.4325 22.0325 24.2345 22.0325 23.9905C22.0325 23.7465 21.8345 23.5485 21.5905 23.5485H17.812C17.8225 23.495 17.8285 23.4395 17.8285 23.3825V20.2045C17.8285 19.7305 17.443 19.345 16.969 19.345H7.9985C7.5245 19.345 7.139 19.7305 7.139 20.2045V23.3825C7.139 23.4395 7.145 23.4945 7.1555 23.5485H4.144V1.83899H44.0545V17.079C44.0545 17.323 44.2525 17.521 44.4965 17.521C44.7405 17.521 44.9385 17.323 44.9385 17.079V1.81449C44.9385 1.34049 44.553 0.954987 44.079 0.954987H4.12C3.646 0.954987 3.2605 1.34049 3.2605 1.81449V23.5485H0.869C0.39 23.5485 0 23.9385 0 24.4175V28.1175C0 28.5965 0.39 28.9865 0.869 28.9865ZM8.023 20.229H16.945V23.3585H8.023V20.229Z" fill="#6080E0"/>
<path d="M47.131 23.5485H44.937C44.9355 23.5245 44.9325 23.5005 44.9275 23.478C44.934 23.4475 44.938 23.4155 44.938 23.383V20.6555C44.938 20.4115 44.74 20.2135 44.496 20.2135C44.252 20.2135 44.054 20.4115 44.054 20.6555V23.383C44.054 23.416 44.058 23.4475 44.0645 23.4785C44.0595 23.5015 44.0561 23.5245 44.0546 23.549H42.2421C41.9981 23.549 41.8 23.747 41.8 23.991C41.8 24.235 41.9981 24.433 42.2421 24.433H47.1155V28.103H42.2421C41.9981 28.103 41.8 28.301 41.8 28.545C41.8 28.789 41.9981 28.987 42.2421 28.987H47.13C47.609 28.987 47.999 28.597 47.999 28.118V24.418C47.999 23.939 47.609 23.549 47.13 23.549L47.131 23.5485Z" fill="#6080E0"/>
<path d="M44.4965 18.345C44.2395 18.345 44.031 18.5535 44.031 18.8105C44.031 19.0675 44.2395 19.276 44.4965 19.276C44.7535 19.276 44.962 19.0675 44.962 18.8105C44.962 18.5535 44.7535 18.345 44.4965 18.345Z" fill="#6080E0"/>
<path d="M32.0571 39.348C32.3141 39.348 32.5226 39.1396 32.5226 38.8825C32.5226 38.6254 32.3141 38.417 32.0571 38.417C31.8 38.417 31.5916 38.6254 31.5916 38.8825C31.5916 39.1396 31.8 39.348 32.0571 39.348Z" fill="#6080E0"/>
<path d="M32.0571 42.229C32.3141 42.229 32.5226 42.0206 32.5226 41.7635C32.5226 41.5064 32.3141 41.298 32.0571 41.298C31.8 41.298 31.5916 41.5064 31.5916 41.7635C31.5916 42.0206 31.8 42.229 32.0571 42.229Z" fill="#6080E0"/>
<path d="M15.733 40.374C15.733 40.631 15.9415 40.8395 16.1985 40.8395C16.4555 40.8395 16.664 40.631 16.664 40.374C16.664 40.117 16.4555 39.9085 16.1985 39.9085C15.9415 39.9085 15.733 40.117 15.733 40.374Z" fill="#6080E0"/>
<path d="M25.415 40.463V44.196C25.415 44.44 25.613 44.638 25.857 44.638C26.101 44.638 26.299 44.44 26.299 44.196V40.463C26.299 40.219 26.101 40.021 25.857 40.021C25.613 40.021 25.415 40.219 25.415 40.463Z" fill="#6080E0"/>
<path d="M40.8326 26.734L40.8301 26.7155C40.5806 24.825 40.6621 23.486 40.7336 22.304C40.8246 20.8045 40.9031 19.509 40.2871 17.6855C39.9111 16.572 39.2106 14.499 37.1171 12.9745C35.5281 11.8175 33.8171 11.475 32.5291 11.416C32.4996 11.4095 32.4691 11.406 32.4376 11.406C32.3771 11.406 32.3151 11.406 32.2516 11.4075C32.1846 11.4065 32.1186 11.406 32.0546 11.406C32.0226 11.406 31.9911 11.41 31.9611 11.4165C30.6736 11.4765 28.9631 11.818 27.3746 12.9745C25.2811 14.499 24.5811 16.5715 24.2046 17.6855C23.5886 19.5095 23.6671 20.8045 23.7581 22.304C23.8296 23.486 23.9111 24.825 23.6616 26.7155L23.6591 26.734C23.6121 27.0915 23.5136 27.8345 23.6631 28.8045C23.8171 29.8035 24.1981 30.7725 24.7716 31.631C24.5796 31.7595 24.3806 31.911 24.1511 32.12C22.9696 33.1975 22.3876 34.481 22.1071 35.368C21.8631 36.1405 21.8571 36.795 21.8476 37.88C21.8441 38.28 21.8401 38.733 21.8246 39.2855C21.7801 40.89 21.8186 42.516 21.9391 44.1175C21.9566 44.3495 22.1501 44.526 22.3791 44.526C22.3901 44.526 22.4016 44.526 22.4126 44.525C22.6561 44.5065 22.8381 44.2945 22.8201 44.051C22.7016 42.4795 22.6641 40.8845 22.7076 39.31C22.7231 38.749 22.7271 38.2915 22.7306 37.8875C22.7401 36.817 22.7446 36.28 22.9491 35.634C23.1966 34.8505 23.7096 33.718 24.7456 32.7725C25.1151 32.435 25.3781 32.284 25.7421 32.0745C25.9766 31.9395 26.2571 31.778 26.6216 31.5345C26.6461 31.874 26.6941 32.2105 26.7656 32.5405C27.1921 34.5035 28.3571 35.876 29.2596 36.682C29.3426 36.7565 29.4481 36.7945 29.5541 36.7945C29.6371 36.7945 29.7206 36.771 29.7941 36.7235L32.2451 35.139L34.6961 36.7235C34.7696 36.771 34.8531 36.7945 34.9361 36.7945C35.0421 36.7945 35.1471 36.7565 35.2306 36.682C36.1331 35.876 37.2981 34.503 37.7246 32.5405C37.7961 32.211 37.8441 31.8745 37.8686 31.5345C38.2331 31.778 38.5136 31.9395 38.7481 32.0745C39.1121 32.284 39.3746 32.4355 39.7446 32.7725C40.7811 33.718 41.2936 34.8505 41.5411 35.634C41.7451 36.28 41.7501 36.8175 41.7596 37.8875C41.7631 38.291 41.7671 38.749 41.7826 39.31C41.8266 40.8845 41.7886 42.4795 41.6701 44.051C41.6516 44.2945 41.8341 44.5065 42.0776 44.525C42.0891 44.526 42.1001 44.526 42.1111 44.526C42.3401 44.526 42.5336 44.3495 42.5511 44.1175C42.6716 42.516 42.7101 40.8905 42.6656 39.2855C42.6501 38.733 42.6461 38.2795 42.6426 37.88C42.6331 36.795 42.6271 36.14 42.3831 35.368C42.1026 34.481 41.5206 33.1975 40.3396 32.12C40.1101 31.9105 39.9111 31.759 39.7191 31.631C40.2926 30.7725 40.6736 29.803 40.8276 28.8045C40.9771 27.835 40.8786 27.0915 40.8316 26.734H40.8326ZM25.0426 17.9685C25.3876 16.948 26.0291 15.048 27.8956 13.689C29.4111 12.5855 31.0631 12.3125 32.2426 12.2915C33.4226 12.3125 35.0786 12.583 36.5976 13.689C38.4636 15.048 39.1056 16.9475 39.4506 17.9685C39.8156 19.049 39.9131 19.9165 39.9126 20.7945C39.8291 20.6875 39.6981 20.62 39.5511 20.624C39.0011 20.64 38.3741 20.6255 37.6991 20.553C37.6956 20.553 37.6921 20.552 37.6886 20.552C36.0266 20.373 34.0701 19.8445 32.2221 18.564C31.4521 18.0305 30.7461 17.395 30.1226 16.6745C30.0261 16.563 29.8806 16.507 29.7346 16.525C29.5886 16.543 29.4606 16.6325 29.3941 16.764C28.8391 17.861 27.8001 19.3695 26.0021 20.3265C25.5536 20.5655 25.0766 20.7585 24.5821 20.903C24.5731 19.9875 24.6631 19.0935 25.0436 17.9685H25.0426ZM37.2606 23.358C37.1206 24.8795 36.6791 26.069 36.3331 26.799C35.8731 27.769 35.6631 28.212 35.2061 28.6295C33.7121 29.9935 30.7796 29.9935 29.2856 28.6295C28.8286 28.212 28.6186 27.7695 28.1586 26.799C27.9626 26.3855 27.3661 25.1275 27.2316 23.365C27.1606 22.439 27.1986 21.5045 27.3436 20.5875C27.3466 20.5675 27.3481 20.547 27.3486 20.5275C28.5351 19.6775 29.3441 18.627 29.8776 17.719C30.4401 18.306 31.0571 18.833 31.7176 19.2905C33.5851 20.5845 35.5486 21.1645 37.2551 21.39C37.3181 22.0465 37.3206 22.707 37.2606 23.3585V23.358ZM25.5316 31.1765C25.0161 30.416 24.6736 29.556 24.5371 28.67C24.4071 27.8255 24.4941 27.1665 24.5361 26.85L24.5386 26.831C24.7991 24.8565 24.7151 23.472 24.6411 22.2505C24.6321 22.1 24.6231 21.9525 24.6151 21.8075C24.6321 21.805 24.6496 21.802 24.6666 21.797C25.2651 21.635 25.8426 21.408 26.3841 21.123C26.3041 21.8895 26.2926 22.6635 26.3511 23.432C26.4981 25.358 27.1476 26.727 27.3611 27.1775C27.7451 27.987 27.9911 28.5055 28.3736 28.9545C27.7726 29.557 27.1176 30.11 26.4206 30.602C26.0541 30.8605 25.7741 31.034 25.5321 31.1765H25.5316ZM29.6046 35.795C28.8456 35.058 27.9696 33.913 27.6306 32.353C27.5326 31.9015 27.4846 31.435 27.4881 30.966C27.4881 30.948 27.4871 30.93 27.4851 30.9125C27.8941 30.596 28.2871 30.2595 28.6621 29.9055C28.7501 30.3945 28.8816 30.873 29.0546 31.336C29.6231 32.8545 30.5446 33.946 31.3456 34.669L29.6046 35.7945V35.795ZM32.2461 34.2775C31.4671 33.6425 30.4651 32.5835 29.8821 31.026C29.7441 30.658 29.6371 30.278 29.5596 29.8905C30.3561 30.318 31.3006 30.533 32.2466 30.533C33.1921 30.533 34.1371 30.318 34.9336 29.8905C34.8561 30.278 34.7491 30.6575 34.6111 31.026C34.0281 32.5835 33.0256 33.642 32.2471 34.2775H32.2461ZM36.8616 32.353C36.5226 33.9125 35.6466 35.0575 34.8876 35.795L33.1466 34.6695C33.9476 33.9465 34.8691 32.8545 35.4376 31.3365C35.6111 30.8735 35.7421 30.395 35.8301 29.906C36.2051 30.26 36.5981 30.5965 37.0071 30.913C37.0051 30.9305 37.0036 30.9485 37.0041 30.9665C37.0076 31.4355 36.9596 31.902 36.8616 32.3535V32.353ZM39.9551 28.67C39.8186 29.5555 39.4761 30.4155 38.9606 31.1765C38.7186 31.034 38.4386 30.861 38.0721 30.602C37.3751 30.11 36.7201 29.5565 36.1191 28.954C36.5016 28.5055 36.7481 27.9865 37.1316 27.177C37.5081 26.3825 37.9891 25.089 38.1406 23.439C38.2001 22.7905 38.2026 22.1335 38.1501 21.4795C38.6621 21.5145 39.1416 21.52 39.5761 21.5075C39.7061 21.5035 39.8216 21.4435 39.8996 21.3515C39.8881 21.6425 39.8701 21.94 39.8516 22.251C39.7776 23.4725 39.6936 24.857 39.9541 26.8315L39.9566 26.8505C39.9986 27.167 40.0856 27.826 39.9556 28.6705L39.9551 28.67Z" fill="#6080E0"/>
<path d="M38.193 40.463V44.196C38.193 44.44 38.391 44.638 38.635 44.638C38.879 44.638 39.077 44.44 39.077 44.196V40.463C39.077 40.219 38.879 40.021 38.635 40.021C38.391 40.021 38.193 40.219 38.193 40.463Z" fill="#6080E0"/>
</g>
<defs>
<clipPath id="clip0_772_4486">
<rect width="48" height="48" fill="white"/>
</clipPath>
</defs>
</svg>
