<svg width="34" height="30" viewBox="0 0 34 30" fill="none" xmlns="http://www.w3.org/2000/svg">
<path d="M16.5113 0.767426C16.9325 0.346305 17.5044 0.113682 18.0951 0.113573C18.6858 0.113463 19.2576 0.345874 19.6786 0.76684L32.3578 13.4461C32.7788 13.867 33.0112 14.4389 33.0111 15.0296C33.011 15.6203 32.7783 16.1922 32.3572 16.6133L19.6733 29.2972C19.2522 29.6932 18.6866 29.907 18.1084 29.8945C17.5303 29.8821 16.971 29.6497 16.5626 29.2413C16.1542 28.8329 15.9155 28.2799 15.9093 27.6955C15.8969 27.1173 16.1169 26.558 16.5066 26.1306L25.369 17.2682L3.16686 17.266C2.57614 17.2661 2.00432 17.0337 1.58335 16.6127C1.16239 16.1918 0.929975 15.6199 0.930085 15.0292C0.930194 14.4385 1.16282 13.8666 1.58394 13.4455C2.00506 13.0244 2.57697 12.7917 3.16768 12.7916L25.3699 12.7938L16.5045 3.92839C16.0835 3.50743 15.8511 2.93561 15.8512 2.34489C15.8513 1.75417 16.0839 1.18226 16.505 0.761143L16.5113 0.767426Z" fill="white"/>
</svg>
