<svg width="169" height="96" viewBox="0 0 169 96" fill="none" xmlns="http://www.w3.org/2000/svg">
<g clip-path="url(#clip0_771_4022)">
<path d="M150.904 0H17.8702C8.00076 0 0 8.05887 0 18V78C0 87.9411 8.00076 96 17.8702 96H150.904C160.773 96 168.774 87.9411 168.774 78V18C168.774 8.05887 160.773 0 150.904 0Z" fill="#088896"/>
<path d="M32.5238 36C32.5238 29.38 37.865 24 44.4373 24C51.0095 24 56.3507 29.38 56.3507 36H32.5238ZM32.5238 60C32.5238 53.38 37.865 48 44.4373 48C37.865 48 32.5238 42.62 32.5238 36C25.9515 36 20.6103 41.38 20.6103 48C20.6103 54.62 25.9515 60 32.5238 60ZM32.5238 60C32.5238 66.62 37.865 72 44.4373 72C51.0095 72 56.3507 66.62 56.3507 60H32.5238ZM44.4373 48C51.0095 48 56.3507 53.38 56.3507 60C62.923 60 68.2642 54.62 68.2642 48C68.2642 41.38 62.923 36 56.3507 36C56.3507 42.62 51.0095 48 44.4373 48Z" fill="white"/>
<path d="M98.306 36H105.692V60H100.212V43.86L93.2031 60L85.8366 43.84V60H80.7336V36H88.0207L93.2825 48.42L98.2861 36M125.151 43.08C125.151 38.34 121.537 35.58 117.209 35.58C112.88 35.58 108.254 38.1 108.254 43.02C108.254 47.28 112.9 49.48 115.561 50.16C117.01 50.54 120.703 50.96 120.703 53.62C120.703 56.28 118.122 56.82 116.196 56.82C113.714 56.82 112.265 55.06 112.463 52.42H107.579C107.4 58.38 111.431 60.62 116.137 60.72C121.577 60.84 125.727 58.5 125.727 53.22C125.727 47.94 121.021 47.08 117.328 45.88C115.898 45.42 113.257 45 113.257 42.54C113.257 40.5 115.005 39.5 116.812 39.5C119.115 39.5 120.326 40.66 120.485 43.04H125.111M135.436 35.98H127.851V59.96H135.436C141.75 59.96 148.144 56.28 148.144 48C148.144 39.72 141.731 36 135.436 36V35.98ZM135.099 55.58H132.994V40.38H135.099C140.877 40.38 142.982 44.18 142.982 47.98C142.982 51.78 140.897 55.58 135.099 55.58Z" fill="white"/>
</g>
<defs>
<clipPath id="clip0_771_4022">
<rect width="168.774" height="96" fill="white"/>
</clipPath>
</defs>
</svg>
