<svg width="174" height="96" viewBox="0 0 174 96" fill="none" xmlns="http://www.w3.org/2000/svg">
<g clip-path="url(#clip0_771_4048)">
<path d="M155.05 0H18.8064C8.84749 0 0.7742 8.05887 0.7742 18V78C0.7742 87.9411 8.84749 96 18.8064 96H155.05C165.009 96 173.082 87.9411 173.082 78V18C173.082 8.05887 165.009 0 155.05 0Z" fill="#088896"/>
<path fill-rule="evenodd" clip-rule="evenodd" d="M88.6311 24C88.9316 24.64 89.2322 25.28 89.5327 25.92C91.2357 29.46 92.9388 33.02 94.6619 36.56C95.7037 38.74 96.7656 40.94 97.8275 43.12C97.8475 43.18 97.8876 43.24 97.9077 43.32C97.8275 43.32 97.7674 43.32 97.7073 43.32C96.3248 43.32 94.9424 43.32 93.5599 43.32C93.4196 43.32 93.3395 43.28 93.2794 43.14C92.5781 41.64 91.8769 40.14 91.1957 38.64C91.1356 38.5 91.0554 38.46 90.9152 38.46C88.2905 38.46 85.6458 38.46 83.0211 38.46C82.8608 38.46 82.7806 38.52 82.7205 38.66C82.0594 40.16 81.3781 41.64 80.717 43.12C80.6569 43.26 80.5967 43.32 80.4365 43.32C79.1141 43.32 77.7717 43.32 76.4493 43.32H76.249C76.3291 43.16 76.3892 43 76.4493 42.86C78.8336 37.72 81.2179 32.56 83.6021 27.42C83.8826 26.82 84.1631 26.22 84.4236 25.62C84.4637 25.54 84.4637 25.42 84.4236 25.34C84.2232 24.88 84.0229 24.44 83.8225 23.98H88.6511L88.6311 24ZM86.9681 28.74C85.9864 31.04 85.0247 33.32 84.0429 35.62H89.7932C88.8515 33.32 87.9298 31.06 86.9681 28.74Z" fill="white"/>
<path fill-rule="evenodd" clip-rule="evenodd" d="M112.233 24V26.98H104.9V32.06H109.869V35.02H104.9V43.32H100.673V43.08C100.673 37.3 100.673 31.52 100.673 25.74C100.673 25.6 100.633 25.44 100.572 25.32C100.392 24.88 100.192 24.46 99.9914 24.02H112.213L112.233 24Z" fill="white"/>
<path fill-rule="evenodd" clip-rule="evenodd" d="M73.5441 24C73.5441 24 73.5441 24.16 73.5441 24.26V43.32H69.3166V43.06C69.3166 37.26 69.3166 31.48 69.3166 25.68C69.3166 25.54 69.2765 25.4 69.2365 25.26C69.0561 24.84 68.8558 24.4 68.6554 23.98H73.5642L73.5441 24Z" fill="white"/>
<path fill-rule="evenodd" clip-rule="evenodd" d="M61.4626 46.78C61.4626 46.78 61.6229 46.68 61.7431 46.7C62.9452 46.98 64.1273 47.3 65.3295 47.54C66.8121 47.84 68.3148 48.14 69.8175 48.38C71.24 48.62 72.6826 48.82 74.1051 49C74.9266 49.1 75.728 49.18 76.5495 49.24C77.9119 49.34 79.2744 49.44 80.6168 49.52C81.3781 49.56 82.1395 49.58 82.9009 49.6C83.8425 49.6 84.7842 49.64 85.7259 49.62C87.0282 49.6 88.3506 49.56 89.6529 49.5C90.7348 49.44 91.8168 49.36 92.9188 49.28C93.9606 49.18 95.0025 49.08 96.0443 48.94C97.3867 48.76 98.7091 48.6 100.051 48.38C101.153 48.2 102.235 47.98 103.317 47.76C105.782 47.28 108.206 46.64 110.63 45.96C111.111 45.82 111.592 45.66 112.073 45.52C112.353 45.44 112.394 45.46 112.394 45.74C112.394 46.42 112.394 47.1 112.394 47.78C112.394 47.94 112.353 48.02 112.193 48.06C110.43 48.46 108.687 48.86 106.924 49.24C106.062 49.42 105.201 49.58 104.339 49.72C103.598 49.84 102.836 49.96 102.075 50.06C101.314 50.16 100.532 50.26 99.771 50.36C99.1298 50.44 98.4687 50.52 97.8275 50.56C96.7055 50.66 95.5635 50.76 94.4415 50.82C93.5799 50.88 92.7384 50.9 91.8769 50.92C91.0955 50.94 90.3341 50.98 89.5527 50.98C88.4107 50.98 87.2887 50.98 86.1467 50.94C85.0247 50.9 83.9026 50.86 82.7806 50.78C81.7989 50.72 80.8372 50.64 79.8554 50.54C78.5731 50.4 77.3109 50.26 76.0286 50.08C75.0068 49.94 73.9849 49.8 72.9631 49.6C71.5205 49.34 70.0579 49.06 68.6153 48.76C66.2712 48.28 63.967 47.64 61.6629 46.96C61.5828 46.94 61.5227 46.88 61.4425 46.84V46.76L61.4626 46.78Z" fill="white"/>
<path fill-rule="evenodd" clip-rule="evenodd" d="M87.9899 68.5V71.94H87.3889V69.62H87.3488C87.3087 69.66 87.2887 69.7 87.2486 69.74C87.0082 70.12 86.7678 70.48 86.5273 70.86C86.4071 71.06 86.1867 71.06 86.0665 70.86C85.806 70.48 85.5456 70.1 85.2651 69.72C85.245 69.68 85.205 69.64 85.1449 69.58V71.94H84.5438V68.52C84.7041 68.52 84.8644 68.52 85.0046 68.52C85.0647 68.52 85.1248 68.58 85.1649 68.64C85.5255 69.14 85.8661 69.66 86.2268 70.16C86.2268 70.18 86.2669 70.2 86.3069 70.26C86.3871 70.14 86.4472 70.02 86.5073 69.92C86.7678 69.52 87.0282 69.12 87.2887 68.7C87.3889 68.54 87.489 68.48 87.6694 68.5C87.7695 68.5 87.8697 68.5 87.9899 68.5Z" fill="white"/>
<path fill-rule="evenodd" clip-rule="evenodd" d="M89.1721 63.58V66.08H88.571V62.62C88.7513 62.62 88.9316 62.62 89.1119 62.62C89.1721 62.62 89.2322 62.72 89.2722 62.76C89.8332 63.48 90.3742 64.22 90.9352 64.94C90.9352 64.94 90.9552 64.98 90.9753 65C90.9753 65 90.9953 65 91.0154 64.98V62.62H91.6164V66.06C91.4561 66.06 91.3159 66.06 91.1556 66.06C91.0955 66.06 91.0154 65.98 90.9753 65.92C90.4143 65.2 89.8733 64.46 89.3123 63.74C89.2722 63.7 89.2322 63.66 89.152 63.56L89.1721 63.58Z" fill="white"/>
<path fill-rule="evenodd" clip-rule="evenodd" d="M78.3728 59.16V56.78H78.9738V60.24C78.8136 60.24 78.6332 60.24 78.4729 60.24C78.4128 60.24 78.3728 60.18 78.3327 60.12C77.7717 59.4 77.2307 58.66 76.6697 57.94C76.6297 57.88 76.5896 57.84 76.5094 57.74V60.24H75.9084V56.78C76.0887 56.78 76.269 56.78 76.4493 56.78C76.5094 56.78 76.5695 56.86 76.6096 56.9C77.1706 57.64 77.7316 58.38 78.2926 59.12C78.2926 59.14 78.3127 59.16 78.3327 59.18C78.3327 59.18 78.3728 59.16 78.3928 59.14L78.3728 59.16Z" fill="white"/>
<path fill-rule="evenodd" clip-rule="evenodd" d="M93.64 68.5V71.94C93.4597 71.94 93.2994 71.94 93.1191 71.94C93.059 71.94 93.0189 71.88 92.9789 71.82C92.4379 71.1 91.8769 70.38 91.3359 69.66C91.2959 69.6 91.2558 69.56 91.1556 69.52V71.94H90.5746C90.5746 71.94 90.5746 71.82 90.5746 71.74C90.5746 70.74 90.5746 69.74 90.5746 68.72C90.5746 68.54 90.6347 68.5 90.815 68.5C91.0955 68.48 91.2558 68.58 91.4361 68.8C91.917 69.48 92.4379 70.14 92.9388 70.8C92.9588 70.82 92.9989 70.86 93.059 70.92C93.059 70.82 93.059 70.74 93.059 70.68C93.059 70.02 93.059 69.36 93.059 68.7C93.059 68.56 93.0991 68.48 93.2594 68.5C93.3996 68.5 93.5399 68.5 93.6801 68.5H93.64Z" fill="white"/>
<path fill-rule="evenodd" clip-rule="evenodd" d="M92.6382 66.08V62.66C92.6382 62.66 92.7184 62.66 92.7785 62.66C93.2994 62.68 93.8404 62.66 94.3613 62.74C95.2429 62.9 95.6837 63.66 95.6035 64.56C95.5234 65.4 94.8823 66.04 93.9406 66.08C93.5198 66.1 93.0991 66.08 92.6783 66.08H92.6382ZM93.2594 63.14V65.56C93.8204 65.58 94.4014 65.62 94.742 65.06C95.0225 64.6 95.0425 64.1 94.742 63.64C94.4014 63.1 93.8404 63.14 93.2794 63.14H93.2594Z" fill="white"/>
<path fill-rule="evenodd" clip-rule="evenodd" d="M100.051 58.52C100.051 59.58 99.3502 60.28 98.3084 60.3C97.2665 60.3 96.5653 59.58 96.5653 58.54C96.5653 57.5 97.2665 56.78 98.3084 56.78C99.3502 56.78 100.051 57.48 100.051 58.54V58.52ZM97.2064 58.5C97.2064 58.64 97.2264 58.78 97.2665 58.9C97.3667 59.4 97.7674 59.76 98.2483 59.76C98.8093 59.76 99.21 59.48 99.3302 58.96C99.3903 58.72 99.3903 58.48 99.3703 58.22C99.3102 57.48 98.5889 57.04 97.8876 57.32C97.4669 57.48 97.2064 57.92 97.1864 58.5H97.2064Z" fill="white"/>
<path fill-rule="evenodd" clip-rule="evenodd" d="M99.7309 64.76V66.08H99.1298V62.6C99.6107 62.62 100.092 62.6 100.552 62.68C100.973 62.74 101.254 63.06 101.294 63.42C101.354 63.92 101.194 64.22 100.753 64.44C100.713 64.44 100.693 64.48 100.673 64.48C100.993 65 101.314 65.52 101.634 66.08C101.394 66.08 101.194 66.08 100.993 66.08C100.933 66.08 100.873 66 100.853 65.96C100.653 65.64 100.472 65.3 100.272 64.96C100.152 64.74 99.9713 64.66 99.7109 64.74L99.7309 64.76ZM99.7309 64.24C100.051 64.24 100.372 64.3 100.572 63.98C100.713 63.78 100.713 63.56 100.572 63.38C100.372 63.08 100.051 63.12 99.7309 63.14V64.24Z" fill="white"/>
<path fill-rule="evenodd" clip-rule="evenodd" d="M92.4379 56.78H93.059V58.86C93.059 59.82 92.5982 60.28 91.6364 60.28C91.4161 60.28 91.1957 60.26 90.9953 60.2C90.4944 60.06 90.2139 59.7 90.1939 59.2C90.1738 58.4 90.1939 57.6 90.1939 56.78H90.7749V56.98C90.7749 57.6 90.7749 58.2 90.7749 58.82C90.7749 58.96 90.7749 59.1 90.835 59.24C90.9352 59.62 91.2958 59.82 91.7366 59.76C92.1574 59.7 92.4179 59.4 92.4179 58.94C92.4179 58.28 92.4179 57.64 92.4179 56.98V56.76L92.4379 56.78Z" fill="white"/>
<path fill-rule="evenodd" clip-rule="evenodd" d="M97.4669 70.28V71.74C96.8458 72 96.2046 72.1 95.5234 71.9C94.8823 71.72 94.4615 71.14 94.4214 70.44C94.3613 69.58 94.7821 68.88 95.5234 68.6C96.0844 68.4 96.6454 68.42 97.2064 68.6C97.2465 68.6 97.3066 68.7 97.3066 68.74C97.3066 68.88 97.3066 69.02 97.3066 69.16C97.0662 69.1 96.8458 69.02 96.6053 68.98C95.9842 68.86 95.3832 69.12 95.1628 69.64C94.8823 70.26 95.0626 71.12 95.6837 71.38C96.0243 71.52 96.3649 71.52 96.7055 71.42C96.7656 71.42 96.8257 71.3 96.8257 71.24C96.8257 70.92 96.8257 70.62 96.8257 70.28H97.4669Z" fill="white"/>
<path fill-rule="evenodd" clip-rule="evenodd" d="M87.9298 66.08C87.5291 66.0933 87.262 65.92 87.1284 65.56C86.9948 65.2 86.8145 65.0733 86.5874 65.18C86.367 65.18 86.1466 65.18 85.9263 65.18C85.786 65.18 85.7259 65.22 85.6658 65.36C85.6057 65.56 85.5255 65.76 85.4454 65.94C85.4053 66.04 85.3652 66.08 85.245 66.08C85.0847 66.08 84.9245 66.08 84.7441 66.08C84.8844 65.68 85.0447 65.32 85.1849 64.96C85.4654 64.24 85.7459 63.5 86.0264 62.78C86.0865 62.64 86.1667 62.6 86.3069 62.6C86.4472 62.6 86.5874 62.56 86.6676 62.76C87.0883 63.82 87.5091 64.86 87.9298 65.92C87.9298 65.96 87.9699 66.02 87.9899 66.08H87.9298ZM85.9062 64.72H86.7878C86.6475 64.3 86.5073 63.92 86.347 63.48C86.1867 63.92 86.0465 64.32 85.9062 64.72Z" fill="white"/>
<path fill-rule="evenodd" clip-rule="evenodd" d="M75.688 66.08C75.2873 66.1067 75.0134 65.9333 74.8665 65.56C74.7196 65.1866 74.5459 65.0666 74.3456 65.2C74.1052 65.2 73.8647 65.2 73.6443 65.2C73.5241 65.2 73.464 65.24 73.4239 65.34C73.3438 65.6 73.2436 65.84 73.1434 66.08H72.5223C72.5223 66.08 72.5624 65.94 72.5824 65.88C72.9832 64.84 73.3839 63.82 73.7846 62.78C73.8447 62.62 73.9449 62.6 74.0851 62.6C74.2254 62.6 74.3656 62.56 74.4458 62.78C74.8465 63.82 75.2672 64.84 75.688 65.88C75.708 65.94 75.728 66.02 75.7481 66.08H75.688ZM74.5259 64.72C74.3857 64.3 74.2454 63.92 74.1052 63.52H74.0651C73.9248 63.92 73.7846 64.3 73.6243 64.72H74.5259Z" fill="white"/>
<path fill-rule="evenodd" clip-rule="evenodd" d="M82.7606 64.8C82.5001 65.18 82.2397 65.52 81.9993 65.88C81.8991 66.04 81.7789 66.12 81.5785 66.1C81.4583 66.1 81.3381 66.1 81.1778 66.1C81.2379 66.02 81.278 65.94 81.318 65.88C81.6586 65.42 81.9792 64.94 82.3198 64.48C82.4 64.38 82.4 64.3 82.3198 64.18C81.9792 63.68 81.6386 63.16 81.278 62.62C81.5184 62.62 81.7388 62.62 81.9391 62.62C81.9792 62.62 82.0193 62.7 82.0594 62.76C82.2998 63.12 82.5402 63.48 82.7806 63.86C82.8608 63.76 82.9209 63.68 82.981 63.58C83.1814 63.3 83.3817 63.04 83.562 62.74C83.6422 62.64 83.7023 62.58 83.8425 62.6C84.0028 62.6 84.1431 62.6 84.3434 62.6C84.3034 62.68 84.2633 62.74 84.2232 62.78C83.9027 63.22 83.6021 63.68 83.2615 64.12C83.1613 64.24 83.1613 64.34 83.2615 64.48C83.5821 64.94 83.8826 65.42 84.2032 65.9C84.2232 65.94 84.2633 66 84.3034 66.08C84.083 66.08 83.9027 66.08 83.7223 66.08C83.6622 66.08 83.6021 66.02 83.562 65.96C83.3416 65.64 83.1213 65.3 82.9009 64.98C82.8608 64.92 82.8207 64.86 82.7606 64.8Z" fill="white"/>
<path fill-rule="evenodd" clip-rule="evenodd" d="M82.4 70.44V71.42H83.6622V71.92H81.7788V68.5H83.6622C83.6021 68.66 83.562 68.82 83.5019 69H82.4V69.94H83.2014C83.5019 69.94 83.5019 69.94 83.5019 70.24C83.5019 70.3 83.5019 70.36 83.5019 70.44H82.4Z" fill="white"/>
<path fill-rule="evenodd" clip-rule="evenodd" d="M80.4565 64.08V64.6C80.176 64.6 79.8754 64.6 79.5949 64.6C79.3345 64.6 79.3345 64.6 79.3345 64.86V65.58H80.6368V66.1H78.7534V62.66H80.5967C80.5967 62.66 80.5967 62.7 80.5967 62.72C80.5166 63.0133 80.3296 63.16 80.0357 63.16C79.8354 63.16 79.6551 63.16 79.4747 63.16C79.4347 63.16 79.3545 63.22 79.3545 63.26C79.3545 63.54 79.3545 63.8 79.3545 64.1H80.4765L80.4565 64.08Z" fill="white"/>
<path fill-rule="evenodd" clip-rule="evenodd" d="M98.2683 65.56V66.08H96.405V62.64H98.2483C98.2483 62.64 98.2483 62.68 98.2483 62.7C98.1681 62.9933 97.9678 63.14 97.6472 63.14C97.4669 63.14 97.2865 63.14 97.1263 63.14C97.0862 63.14 96.986 63.22 96.986 63.28C96.986 63.5 96.986 63.72 96.986 63.94C96.986 64.06 97.0461 64.08 97.1463 64.08C97.4669 64.08 97.7674 64.08 98.088 64.08V64.6C97.8275 64.6 97.5871 64.6 97.3266 64.6C96.9459 64.6 96.986 64.56 96.986 64.94C96.986 65.14 96.986 65.34 96.986 65.56H98.2683Z" fill="white"/>
<path fill-rule="evenodd" clip-rule="evenodd" d="M79.9957 59.54C80.2762 59.72 80.5567 59.8 80.8772 59.78C81.278 59.74 81.4783 59.46 81.318 59.18C81.2379 59.06 81.1177 58.96 80.9975 58.88C80.7971 58.76 80.5767 58.66 80.3763 58.54C79.9356 58.28 79.7753 57.92 79.8955 57.48C79.9957 57.08 80.3563 56.8 80.8372 56.78C81.1177 56.78 81.3781 56.82 81.6586 56.86C81.7989 56.86 81.859 56.96 81.839 57.1C81.839 57.22 81.839 57.34 81.839 57.42C81.5384 57.36 81.2579 57.3 80.9774 57.28C80.7771 57.28 80.6168 57.34 80.5366 57.54C80.4765 57.7 80.5366 57.88 80.737 58C80.8772 58.1 81.0375 58.16 81.1778 58.26C81.3581 58.36 81.5384 58.46 81.6987 58.58C82.1796 58.92 82.1796 59.78 81.5785 60.12C81.0976 60.38 80.2161 60.34 79.7753 60C79.8554 59.86 79.9155 59.7 80.0157 59.56L79.9957 59.54Z" fill="white"/>
<path fill-rule="evenodd" clip-rule="evenodd" d="M93.64 57.3V56.78H96.3649C96.3048 56.94 96.2647 57.12 96.2046 57.3H95.283V60.22H94.6619V57.3H93.64Z" fill="white"/>
<path fill-rule="evenodd" clip-rule="evenodd" d="M89.4726 57.3H88.5509V60.22H87.9298V57.3H86.928V56.78H89.6329C89.5728 56.96 89.5327 57.12 89.4726 57.3Z" fill="white"/>
<path fill-rule="evenodd" clip-rule="evenodd" d="M77.391 71.94H76.7899C76.7899 71.94 76.7899 71.8 76.7899 71.74C76.7899 70.74 76.7899 69.72 76.7899 68.72C76.7899 68.54 76.85 68.5 77.0103 68.5C77.5112 68.5 77.9921 68.5 78.493 68.5C78.5531 68.5 78.6132 68.5 78.6933 68.5C78.6533 68.66 78.6132 68.8 78.5531 68.94C78.5531 68.98 78.4529 69 78.3928 69C78.0722 69 77.7517 69 77.391 69C77.391 69.3 77.391 69.58 77.391 69.86C77.391 69.88 77.4912 69.94 77.5513 69.94C77.8518 69.94 78.1524 69.94 78.4729 69.94V70.44H77.371V71.92L77.391 71.94Z" fill="white"/>
<path fill-rule="evenodd" clip-rule="evenodd" d="M85.1649 56.78C85.1248 56.94 85.0848 57.08 85.0246 57.22C85.0046 57.26 84.9245 57.3 84.8644 57.3C84.6039 57.3 84.3635 57.3 84.083 57.3V60.22H83.4619V57.3H82.4601V56.78H85.1649Z" fill="white"/>
<path fill-rule="evenodd" clip-rule="evenodd" d="M76.3091 66.1V62.66H76.9102V65.58H78.1524V66.1H76.3091Z" fill="white"/>
<path fill-rule="evenodd" clip-rule="evenodd" d="M79.9556 68.52V71.44H81.1577V71.94H79.3545V68.52H79.9556Z" fill="white"/>
<path fill-rule="evenodd" clip-rule="evenodd" d="M74.9266 60.22H74.3456V56.78H74.9266V60.22Z" fill="white"/>
<path fill-rule="evenodd" clip-rule="evenodd" d="M88.9717 68.5H89.5527V71.92H88.9717V68.5Z" fill="white"/>
<path fill-rule="evenodd" clip-rule="evenodd" d="M86.3069 60.22H85.7459V56.78H86.3069V60.22Z" fill="white"/>
</g>
<defs>
<clipPath id="clip0_771_4048">
<rect width="172.308" height="96" fill="white" transform="translate(0.7742)"/>
</clipPath>
</defs>
</svg>
