<svg width="48" height="48" viewBox="0 0 48 48" fill="none" xmlns="http://www.w3.org/2000/svg">
<path d="M44.5135 2.82251H3.4865C1.564 2.82251 0 4.38651 0 6.30901V32.4285C0 34.351 1.564 35.915 3.4865 35.915H17.154V40.7505H11.8305C11.1405 40.7505 10.579 41.312 10.579 42.002V43.902C10.579 44.592 11.1405 45.1535 11.8305 45.1535H28.281C28.525 45.1535 28.7225 44.9555 28.7225 44.712C28.7225 44.4685 28.5245 44.2705 28.281 44.2705H11.8305C11.6275 44.2705 11.4625 44.1055 11.4625 43.9025V42.0025C11.4625 41.7995 11.6275 41.6345 11.8305 41.6345H36.169C36.372 41.6345 36.537 41.7995 36.537 42.0025V43.9025C36.537 44.1055 36.372 44.2705 36.169 44.2705H33.036C32.792 44.2705 32.5945 44.4685 32.5945 44.712C32.5945 44.9555 32.7925 45.1535 33.036 45.1535H36.169C36.859 45.1535 37.4205 44.592 37.4205 43.902V42.002C37.4205 41.312 36.859 40.7505 36.169 40.7505H30.8455V35.915H44.513C46.4355 35.915 47.9995 34.351 47.9995 32.4285V6.30901C47.9995 4.38651 46.4355 2.82251 44.513 2.82251H44.5135ZM40.479 29.456H32.768V29.287C32.768 27.486 34.2335 26.0205 36.0345 26.0205H37.2125C39.0135 26.0205 40.479 27.486 40.479 29.287V29.456ZM37.2125 25.137H36.0345C33.746 25.137 31.8845 26.9985 31.8845 29.287V29.456H24.4425L24.524 25.1365C28.691 24.9175 32.0395 21.5595 32.244 17.3885H47.1165V29.456H41.3625V29.287C41.3625 26.9985 39.501 25.137 37.2125 25.137ZM15.232 29.456H7.521V29.287C7.521 27.486 8.9865 26.0205 10.7875 26.0205H11.9655C13.7665 26.0205 15.232 27.486 15.232 29.287V29.456ZM11.9655 25.137H10.7875C8.499 25.137 6.6375 26.9985 6.6375 29.287V29.456H0.8835V17.389L15.939 17.4245C16.1605 21.573 19.4935 24.909 23.641 25.1355L23.5595 29.456H16.116V29.287C16.116 26.9985 14.2545 25.137 11.966 25.137H11.9655ZM6.141 16.505V16.336C6.141 14.535 7.6065 13.0695 9.4075 13.0695H10.5855C12.3865 13.0695 13.852 14.535 13.852 16.336V16.505H6.141ZM24.0905 9.70401C28.105 9.70401 31.371 12.97 31.371 16.984C31.371 20.998 28.105 24.2645 24.0905 24.2645C20.076 24.2645 16.8105 20.9985 16.8105 16.984C16.8105 12.9695 20.0765 9.70401 24.0905 9.70401ZM41.859 16.505H34.148V16.336C34.148 14.535 35.6135 13.0695 37.4145 13.0695H38.5925C40.3935 13.0695 41.859 14.535 41.859 16.336V16.505ZM47.1165 6.30901V16.505H42.7425V16.336C42.7425 14.0475 40.881 12.186 38.5925 12.186H37.4145C35.126 12.186 33.2645 14.0475 33.2645 16.336V16.505H32.2395C31.9975 12.3415 28.621 9.00601 24.441 8.82851V3.70601H44.513C45.9485 3.70601 47.1165 4.87401 47.1165 6.30951V6.30901ZM3.4865 3.70601H23.5575V8.83851C19.4495 9.10451 16.16 12.4215 15.9385 16.5415L14.7345 16.5385C14.7345 16.5355 14.7345 16.5325 14.7345 16.5295V16.336C14.7345 14.0475 12.873 12.186 10.5845 12.186H9.4065C7.118 12.186 5.2565 14.0475 5.2565 16.336V16.516L0.8825 16.5055V6.30901C0.8825 4.87351 2.0505 3.70551 3.486 3.70551L3.4865 3.70601ZM29.9625 40.751H18.0375V35.9155H29.9625V40.751ZM44.5135 35.032H3.4865C2.051 35.032 0.883 33.864 0.883 32.4285V30.3395H47.116V32.4285C47.116 33.864 45.948 35.032 44.5125 35.032H44.5135Z" fill="white"/>
<path d="M30.5936 44.2469C30.3366 44.2469 30.1281 44.4554 30.1281 44.7124C30.1281 44.9694 30.3366 45.1779 30.5936 45.1779C30.8506 45.1779 31.0591 44.9694 31.0591 44.7124C31.0591 44.4554 30.8506 44.2469 30.5936 44.2469Z" fill="white"/>
<path d="M28.1835 32.6025H21.9015C21.6575 32.6025 21.46 32.8005 21.46 33.044C21.46 33.2875 21.658 33.4855 21.9015 33.4855H28.1835C28.4275 33.4855 28.625 33.2875 28.625 33.044C28.625 32.8005 28.427 32.6025 28.1835 32.6025Z" fill="white"/>
<path d="M20.282 32.5785C20.025 32.5785 19.8165 32.787 19.8165 33.044C19.8165 33.301 20.025 33.5095 20.282 33.5095C20.539 33.5095 20.7475 33.301 20.7475 33.044C20.7475 32.787 20.539 32.5785 20.282 32.5785Z" fill="white"/>
<path d="M18.6335 15.012V20.2815C18.6335 20.5255 18.8315 20.723 19.075 20.723H29.0145C29.2585 20.723 29.456 20.525 29.456 20.2815V15.012C29.456 14.768 29.258 14.5705 29.0145 14.5705H28.176V13.6125C28.176 13.3685 27.978 13.171 27.7345 13.171H26.544C25.49 13.171 24.5645 13.7285 24.045 14.564C23.526 13.7285 22.6 13.171 21.546 13.171H20.3555C20.1115 13.171 19.914 13.369 19.914 13.6125V14.5705H19.0755C18.8315 14.5705 18.634 14.7685 18.634 15.012H18.6335ZM28.573 15.4535V19.8395H25.637C25.752 19.8 25.88 19.7595 26.022 19.7185C26.709 19.521 27.4455 19.3985 27.734 19.3985C27.978 19.3985 28.1755 19.2005 28.1755 18.957V15.4535H28.5725H28.573ZM26.544 14.054H27.293V18.55C26.8325 18.6085 26.193 18.7395 25.5965 18.924C25.1335 19.067 24.7655 19.2185 24.487 19.382V16.111C24.487 14.9765 25.41 14.054 26.544 14.054ZM21.5465 14.054C22.681 14.054 23.6035 14.977 23.6035 16.111V19.382C23.325 19.2185 22.957 19.067 22.494 18.924C21.8975 18.7395 21.2585 18.6085 20.7975 18.55V15.165C20.815 15.117 20.8255 15.066 20.8255 15.012C20.8255 14.958 20.8155 14.9065 20.7975 14.859V14.0545H21.5465V14.054ZM19.517 15.4535H19.914V18.957C19.914 19.201 20.112 19.3985 20.3555 19.3985C20.644 19.3985 21.3805 19.521 22.0675 19.7185C22.2095 19.7595 22.3375 19.8 22.4525 19.8395H19.5165V15.4535H19.517Z" fill="white"/>
<path d="M11.3765 19.4814C9.91303 19.4814 8.72253 20.6719 8.72253 22.1354C8.72253 23.5989 9.91303 24.7894 11.3765 24.7894C12.84 24.7894 14.0305 23.5989 14.0305 22.1354C14.0305 20.6719 12.84 19.4814 11.3765 19.4814ZM11.3765 23.9064C10.4 23.9064 9.60553 23.1119 9.60553 22.1354C9.60553 21.1589 10.4 20.3644 11.3765 20.3644C12.353 20.3644 13.1475 21.1589 13.1475 22.1354C13.1475 23.1119 12.353 23.9064 11.3765 23.9064Z" fill="white"/>
<path d="M36.6235 19.4814C35.16 19.4814 33.9695 20.6719 33.9695 22.1354C33.9695 23.5989 35.16 24.7894 36.6235 24.7894C38.087 24.7894 39.2775 23.5989 39.2775 22.1354C39.2775 20.6719 38.087 19.4814 36.6235 19.4814ZM36.6235 23.9064C35.647 23.9064 34.8525 23.1119 34.8525 22.1354C34.8525 21.1589 35.647 20.3644 36.6235 20.3644C37.6 20.3644 38.3945 21.1589 38.3945 22.1354C38.3945 23.1119 37.6 23.9064 36.6235 23.9064Z" fill="white"/>
<path d="M9.99653 11.839C11.46 11.839 12.6505 10.6485 12.6505 9.18501C12.6505 7.72151 11.46 6.53101 9.99653 6.53101C8.53303 6.53101 7.34253 7.72151 7.34253 9.18501C7.34253 10.6485 8.53303 11.839 9.99653 11.839ZM9.99653 7.41401C10.973 7.41401 11.7675 8.20851 11.7675 9.18501C11.7675 10.1615 10.973 10.956 9.99653 10.956C9.02003 10.956 8.22553 10.1615 8.22553 9.18501C8.22553 8.20851 9.02003 7.41401 9.99653 7.41401Z" fill="white"/>
<path d="M38.0035 11.839C39.467 11.839 40.6575 10.6485 40.6575 9.18501C40.6575 7.72151 39.467 6.53101 38.0035 6.53101C36.54 6.53101 35.3495 7.72151 35.3495 9.18501C35.3495 10.6485 36.54 11.839 38.0035 11.839ZM38.0035 7.41401C38.98 7.41401 39.7745 8.20851 39.7745 9.18501C39.7745 10.1615 38.98 10.956 38.0035 10.956C37.027 10.956 36.2325 10.1615 36.2325 9.18501C36.2325 8.20851 37.027 7.41401 38.0035 7.41401Z" fill="white"/>
</svg>
