<svg width="214" height="48" viewBox="0 0 214 48" fill="none" xmlns="http://www.w3.org/2000/svg">
<g clip-path="url(#clip0_771_4397)">
<path d="M23.3676 29.6773C21.9794 27.3005 21.2764 24.4897 21.2764 21.2805C21.2764 18.6009 21.9727 16.2908 23.3008 14.5305C23.2564 14.4837 23.2119 14.437 23.1674 14.3902C21.7525 12.9526 19.8304 12.1603 17.7548 12.1603C12.4424 12.1603 9.66382 16.6937 9.66382 21.1714C9.66382 28.4311 13.2232 32.5905 17.0808 34.9674C18.7759 34.1595 20.2353 33.1736 21.4388 32.0119C22.1796 31.2975 22.8226 30.5186 23.3676 29.6773Z" fill="#10AE96"/>
<path d="M27.9481 37.4577C25.7301 38.3145 21.9148 38.3123 19.7859 37.4555C18.9539 37.1216 18.0106 36.681 17.0318 36.1068C13.7504 37.569 9.68824 38.4124 4.96533 38.6127C9.35009 44.319 16.2398 48 23.9904 48C31.7411 48 38.6263 44.319 43.0133 38.6149C38.2415 38.4191 34.1459 37.5645 30.8445 36.0801C29.8168 36.6721 28.8223 37.1194 27.9503 37.4555L27.9481 37.4577Z" fill="#10AE96"/>
<path d="M8.64939 21.1714C8.64939 14.5883 13.2299 11.1454 17.7548 11.1454C19.9617 11.1454 22.2575 11.9866 23.9616 13.7559C23.986 13.7292 24.0105 13.7047 24.0372 13.678C25.6456 12.0445 27.8235 11.1454 30.1728 11.1454C34.6977 11.1454 39.2782 14.5905 39.2782 21.1714C39.2782 28.6825 35.5542 33 31.8946 35.4303C35.1204 36.7567 39.1158 37.4889 43.7431 37.6157C46.4126 33.7455 47.981 29.0564 47.981 24C47.9788 10.7448 37.2404 0 23.9905 0C10.7406 0 0 10.7448 0 24C0 29.0564 1.56615 33.7455 4.23571 37.6135C8.81847 37.4844 12.7828 36.7611 15.9885 35.4503C12.3645 33.0044 8.64939 28.6691 8.64939 21.1714Z" fill="#10AE96"/>
<path d="M23.966 28.6558C25.0783 26.5415 25.6389 24.0734 25.6389 21.2782C25.6389 18.9436 25.0716 16.9295 23.9882 15.3761C22.8425 17.0653 22.2953 19.2084 22.2953 21.2782C22.2953 24.0734 22.8559 26.5393 23.9682 28.6558H23.966Z" fill="#10AE96"/>
<path d="M38.2638 21.1714C38.2638 16.6937 35.4853 12.1603 30.1728 12.1603C27.7524 12.1603 25.9215 13.1061 24.6357 14.5416C25.8637 16.1684 26.6512 18.3984 26.6512 21.2782C26.6512 24.4874 25.9505 27.2983 24.5601 29.6751C25.1051 30.5186 25.748 31.2975 26.4888 32.0097C27.6768 33.1536 29.1117 34.1306 30.7779 34.9318C34.3885 32.713 38.2616 28.598 38.2616 21.1692L38.2638 21.1714Z" fill="#10AE96"/>
<path d="M23.966 30.612C23.4365 31.3731 22.8292 32.083 22.144 32.744C21.0139 33.8345 19.6746 34.7804 18.1396 35.5726C18.8204 35.9354 19.5011 36.2448 20.1663 36.5118C22.0305 37.2618 25.6367 37.2618 27.5855 36.5096C28.2395 36.2581 28.967 35.9376 29.7233 35.537C28.2173 34.7492 26.9025 33.8167 25.788 32.7418C25.1028 32.0808 24.4954 31.3709 23.966 30.6097V30.612Z" fill="#10AE96"/>
<path d="M31.8968 35.4303C35.5586 33 39.2804 28.6825 39.2804 21.1714C39.2804 14.5883 34.6999 11.1454 30.175 11.1454C27.8257 11.1454 25.6478 12.0445 24.0394 13.678C24.0149 13.7025 23.9882 13.7292 23.9638 13.7559C22.2575 11.9889 19.9639 11.1454 17.757 11.1454C13.2321 11.1454 8.6516 14.5905 8.6516 21.1714C8.6516 28.6691 12.3667 33.0044 15.9907 35.4503C12.785 36.7611 8.82067 37.4844 4.23792 37.6135C4.4715 37.954 4.71621 38.2856 4.9676 38.6127C9.6905 38.4125 13.7549 37.569 17.034 36.1068C18.0129 36.681 18.9583 37.1217 19.7881 37.4555C21.9193 38.3123 25.7346 38.3145 27.9503 37.4577C28.8224 37.1216 29.8168 36.6721 30.8446 36.0823C34.1459 37.5645 38.2437 38.4191 43.0133 38.6172C43.2647 38.29 43.5094 37.9562 43.743 37.6179C39.1158 37.4911 35.1226 36.7611 31.8946 35.4325L31.8968 35.4303ZM23.9882 15.3761C25.0716 16.9295 25.6389 18.9436 25.6389 21.2782C25.6389 24.0734 25.0783 26.5393 23.966 28.6558C22.8537 26.5415 22.2931 24.0734 22.2931 21.2782C22.2931 19.2084 22.8403 17.063 23.986 15.3761H23.9882ZM9.66603 21.1714C9.66603 16.6936 12.4446 12.1602 17.757 12.1602C19.8326 12.1602 21.7547 12.9525 23.1696 14.3902C23.2141 14.4369 23.2608 14.4837 23.3031 14.5304C21.9749 16.2908 21.2786 18.5987 21.2786 21.2804C21.2786 24.4896 21.9794 27.3004 23.3698 29.6773C22.8248 30.5208 22.1818 31.2997 21.441 32.0119C20.2375 33.1736 18.7781 34.1595 17.083 34.9673C13.2277 32.5905 9.66603 28.431 9.66603 21.1714ZM27.5833 36.5096C25.6345 37.2619 22.0306 37.2619 20.1641 36.5119C19.5012 36.2448 18.8204 35.9354 18.1374 35.5727C19.6724 34.7782 21.0117 33.8346 22.1418 32.7441C22.827 32.0831 23.4343 31.3731 23.9638 30.612C24.4932 31.3731 25.1006 32.0831 25.7858 32.7441C26.9003 33.819 28.2151 34.7515 29.7211 35.5393C28.9625 35.9399 28.2373 36.2604 27.5833 36.5119V36.5096ZM30.7801 34.934C29.1138 34.1328 27.6789 33.1558 26.491 32.0119C25.7502 31.2975 25.1072 30.5185 24.5622 29.6773C25.9526 27.3004 26.6534 24.4896 26.6534 21.2804C26.6534 18.4006 25.8658 16.1706 24.6378 14.5438C25.9237 13.1061 27.7546 12.1624 30.175 12.1624C35.4874 12.1624 38.266 16.6958 38.266 21.1736C38.266 28.6024 34.3906 32.7173 30.7823 34.9362L30.7801 34.934Z" fill="white"/>
<path d="M53.4825 37.9318L61.4022 15.207H66.0361L73.9558 37.9318H70.6856L63.4711 16.6959H63.916L56.7015 37.9318H53.478H53.4825ZM58.0096 30.9615L58.746 28.2886H68.6923L69.4131 30.9615H58.0074H58.0096Z" fill="#9C9B9B"/>
<path d="M80.8789 38.2232C79.8156 38.2232 78.8701 38.0252 78.047 37.6246C77.2239 37.2262 76.5765 36.5808 76.1049 35.6839C75.6355 34.7893 75.3997 33.5986 75.3997 32.112V21.2247H78.6076V31.9428C78.6076 33.2448 78.8923 34.1461 79.4596 34.6468C80.0269 35.1476 80.7633 35.3991 81.662 35.3991C82.1225 35.3991 82.6008 35.3323 83.0969 35.201C83.593 35.0675 84.0713 34.856 84.5318 34.5689C84.9923 34.2819 85.395 33.9057 85.7442 33.4339V21.2247H88.9366V37.9317H86.2804L86.0512 36.1513H85.8822C85.197 36.8345 84.4272 37.3531 83.5708 37.7025C82.7165 38.0497 81.8177 38.2232 80.8767 38.2232H80.8789Z" fill="#9C9B9B"/>
<path d="M92.3469 37.9317V13.1194H95.5549V37.9317H92.3469Z" fill="#9C9B9B"/>
<path d="M103.228 38.2099C101.621 38.2099 100.36 37.7915 99.4435 36.9569C98.527 36.1224 98.0709 34.994 98.0709 33.5719C98.0709 32.1498 98.5715 30.9258 99.5748 30.0868C100.578 29.2455 102.184 28.7292 104.396 28.5356L108.585 28.106L108.907 30.0868L104.671 30.5007C103.475 30.6142 102.609 30.9035 102.077 31.3664C101.546 31.8338 101.279 32.4703 101.279 33.2782C101.279 34.086 101.519 34.747 102 35.1899C102.48 35.635 103.196 35.8575 104.149 35.8575C104.803 35.8575 105.457 35.7262 106.106 35.4592C106.756 35.1943 107.348 34.747 107.879 34.1238V27.1201C107.879 26.1876 107.73 25.4599 107.434 24.9325C107.139 24.405 106.682 24.0333 106.068 23.8175C105.454 23.6016 104.671 23.497 103.719 23.497C103.085 23.497 102.371 23.5526 101.579 23.6661C100.785 23.7796 99.9952 23.9621 99.2077 24.2181V21.6988C99.953 21.454 100.778 21.2693 101.679 21.1468C102.58 21.0244 103.423 20.9644 104.211 20.9644C105.735 20.9644 107.003 21.1602 108.011 21.5541C109.018 21.9503 109.77 22.6068 110.266 23.5282C110.762 24.4495 111.009 25.7069 111.009 27.3049V37.9295H108.355L108.124 36.1335H107.939C107.408 36.819 106.731 37.3353 105.913 37.6847C105.094 38.0319 104.198 38.2077 103.228 38.2077V38.2099Z" fill="#9C9B9B"/>
<path d="M118.531 38.2389C117.661 38.2389 116.822 38.1811 116.013 38.0631C115.203 37.9452 114.426 37.7738 113.679 37.5468V35.0587C114.509 35.3146 115.319 35.5015 116.113 35.6173C116.907 35.7352 117.708 35.7953 118.515 35.7953C119.855 35.7953 120.82 35.575 121.407 35.1343C121.995 34.6959 122.291 34.0906 122.291 33.3228C122.291 32.6685 122.121 32.1699 121.786 31.8272C121.447 31.4823 120.869 31.2196 120.05 31.0349L117.657 30.592C116.122 30.2649 115.016 29.7174 114.342 28.9563C113.666 28.1929 113.33 27.1937 113.33 25.9563C113.33 24.4919 113.906 23.2946 115.056 22.3621C116.206 21.4296 117.97 20.9667 120.344 20.9667C121.089 20.9667 121.81 21.009 122.502 21.0958C123.192 21.1826 123.839 21.3094 124.442 21.4719V23.9422C123.777 23.7597 123.114 23.6239 122.455 23.5349C121.794 23.4504 121.111 23.4058 120.406 23.4058C119.403 23.4058 118.604 23.5193 118.01 23.7441C117.416 23.9689 116.996 24.2693 116.745 24.6432C116.493 25.0149 116.369 25.4288 116.369 25.8784C116.369 26.4303 116.527 26.8955 116.842 27.2693C117.161 27.641 117.728 27.9214 118.546 28.1061L120.942 28.5668C122.466 28.8739 123.581 29.3903 124.282 30.118C124.982 30.8435 125.334 31.8717 125.334 33.2048C125.334 34.7515 124.751 35.9756 123.583 36.8814C122.417 37.7871 120.733 38.2412 118.533 38.2412L118.531 38.2389Z" fill="#9C9B9B"/>
<path d="M188.169 30.4229L188.031 30.5942C187.432 31.3353 186.783 31.9696 186.102 32.4815C185.421 32.9911 184.712 33.3806 183.993 33.6343C183.275 33.888 182.525 34.0171 181.764 34.0171C180.467 34.0171 179.268 33.6743 178.198 32.9978C177.126 32.319 176.249 31.3954 175.6 30.247C174.95 29.1031 174.621 27.7901 174.621 26.3457C174.621 24.9013 174.937 23.5772 175.559 22.4177C176.18 21.2604 177.03 20.3368 178.089 19.6714C179.146 19.0082 180.367 18.6743 181.722 18.6743C182.449 18.6743 183.221 18.8324 184.011 19.1417C184.805 19.4555 185.568 19.8872 186.278 20.4258C186.987 20.9666 187.575 21.5675 188.026 22.2174L188.162 22.411L190.876 19.0749L190.809 18.9681C189.924 17.5215 188.616 16.362 186.923 15.5208C185.234 14.684 183.337 14.2589 181.286 14.2589C179.235 14.2589 177.195 14.7953 175.502 15.8568C173.811 16.9162 172.456 18.3761 171.473 20.1966C170.49 22.0171 169.991 24.0846 169.991 26.3435C169.991 28.6024 170.49 30.6699 171.473 32.4904C172.456 34.3108 173.811 35.773 175.502 36.8301C177.195 37.8895 179.139 38.4258 181.286 38.4258C183.163 38.4258 185.001 37.9941 186.747 37.1439C188.496 36.2916 189.859 35.1855 190.803 33.8591L190.881 33.7478L188.171 30.4184L188.169 30.4229Z" fill="#10AE96"/>
<path d="M208.675 14.8575V17.4792C208.675 17.5905 208.54 17.635 208.471 17.5482C208.11 17.092 207.701 16.6713 207.247 16.2886C206.493 15.6521 205.601 15.1491 204.598 14.7952C203.594 14.4414 202.475 14.2611 201.27 14.2611C199.241 14.2611 197.383 14.7841 195.748 15.8145C194.115 16.8449 192.805 18.2826 191.848 20.0897C190.894 21.8946 190.411 23.9844 190.411 26.2989C190.411 28.6135 190.887 30.6676 191.826 32.4859C192.765 34.3064 194.04 35.7663 195.612 36.8256C197.19 37.8872 198.96 38.4258 200.878 38.4258C201.997 38.4258 203.08 38.2478 204.097 37.8939C205.112 37.54 206.05 37.0638 206.887 36.4762C207.487 36.0534 208.019 35.5838 208.475 35.0742C208.546 34.994 208.675 35.043 208.675 35.1498V37.8761C208.675 37.9406 208.727 37.9918 208.791 37.9918H213.449C213.514 37.9918 213.565 37.9406 213.565 37.8761V14.8575C213.565 14.793 213.514 14.7418 213.449 14.7418H208.791C208.727 14.7418 208.675 14.793 208.675 14.8575ZM208.849 26.3012C208.849 27.7767 208.555 29.1075 207.975 30.2537C207.396 31.3976 206.589 32.3056 205.574 32.9532C204.564 33.6009 203.379 33.928 202.053 33.928C200.727 33.928 199.594 33.6009 198.598 32.9532C197.597 32.3056 196.796 31.3954 196.22 30.2537C195.639 29.1075 195.345 27.7767 195.345 26.3012C195.345 24.8256 195.639 23.546 196.22 22.4154C196.798 21.2871 197.597 20.3857 198.598 19.7359C199.594 19.0883 200.758 18.7611 202.053 18.7611C203.347 18.7611 204.562 19.0905 205.574 19.7359C206.589 20.3835 207.396 21.2848 207.975 22.4132C208.555 23.546 208.849 24.8546 208.849 26.2989V26.3012Z" fill="#10AE96"/>
<path d="M159.068 38.4213C157.171 38.4213 155.48 38.0252 153.996 37.2329C152.512 36.4406 151.347 35.3457 150.497 33.9503C149.649 32.5549 149.224 30.9747 149.224 29.2121V15.0311C149.224 14.8731 149.353 14.744 149.511 14.744H153.994C154.152 14.744 154.281 14.8731 154.281 15.0311V28.9117C154.281 29.8486 154.492 30.6921 154.917 31.4399C155.34 32.1876 155.916 32.7863 156.641 33.2314C157.366 33.6787 158.176 33.9013 159.068 33.9013C159.96 33.9013 160.815 33.6787 161.562 33.2314C162.31 32.7841 162.901 32.1876 163.337 31.4399C163.773 30.6921 163.989 29.8486 163.989 28.9117V15.0311C163.989 14.8731 164.118 14.744 164.276 14.744H168.59C168.748 14.744 168.877 14.8731 168.877 15.0311V29.2121C168.877 30.977 168.458 32.5571 167.622 33.9503C166.786 35.3457 165.618 36.4406 164.123 37.2329C162.628 38.0252 160.941 38.4213 159.066 38.4213H159.068Z" fill="#10AE96"/>
<path d="M147.656 18.957V15.0111C147.656 14.862 147.536 14.7418 147.387 14.7418H132.219C132.07 14.7418 131.95 14.862 131.95 15.0111V37.7248C131.95 37.8739 132.07 37.994 132.219 37.994H136.662C136.811 37.994 136.931 37.8739 136.931 37.7248V29.0297C136.931 28.8805 137.051 28.7604 137.2 28.7604H145.992C146.141 28.7604 146.261 28.6402 146.261 28.4911V24.7433C146.261 24.5942 146.141 24.474 145.992 24.474H137.2C137.051 24.474 136.931 24.3538 136.931 24.2047V19.4955C136.931 19.3464 137.051 19.2262 137.2 19.2262H147.387C147.536 19.2262 147.656 19.1061 147.656 18.957Z" fill="#10AE96"/>
</g>
<defs>
<clipPath id="clip0_771_4397">
<rect width="213.565" height="48" fill="white"/>
</clipPath>
</defs>
</svg>
