<svg width="48" height="48" viewBox="0 0 48 48" fill="none" xmlns="http://www.w3.org/2000/svg">
<g clip-path="url(#clip0_772_4523)">
<path d="M46.9724 13.63L40.6169 7.27448C40.4504 7.10798 40.2284 7.01648 39.9924 7.01648C39.7564 7.01648 39.5344 7.10798 39.3679 7.27448L25.6214 21.021L20.2839 26.3585L9.78945 36.853L6.50495 40.1375C6.33845 40.304 6.24695 40.526 6.24695 40.762C6.24695 40.998 6.33845 41.22 6.50495 41.3865L12.8604 47.742C13.0269 47.9085 13.2489 48 13.4849 48C13.7209 48 13.9429 47.9085 14.1094 47.742L33.5024 28.349C33.6749 28.1765 33.6749 27.897 33.5024 27.7245C33.3299 27.552 33.0504 27.552 32.8779 27.7245L13.4849 47.1175L7.12945 40.762L10.1014 37.79L12.3219 40.0105C12.4079 40.0965 12.5214 40.14 12.6344 40.14C12.7474 40.14 12.8604 40.097 12.9469 40.0105C13.1194 39.838 13.1194 39.5585 12.9469 39.386L10.7264 37.1655L15.2589 32.633L17.4794 34.8535C17.5659 34.94 17.6789 34.983 17.7919 34.983C17.9049 34.983 18.0179 34.94 18.1044 34.8535C18.2769 34.681 18.2769 34.4015 18.1044 34.229L15.8839 32.0085L20.5969 27.2955L22.8174 29.516C22.9034 29.602 23.0169 29.6455 23.1299 29.6455C23.2429 29.6455 23.3559 29.6025 23.4424 29.516C23.6149 29.3435 23.6149 29.064 23.4424 28.8915L21.2219 26.671L25.9349 21.958L28.1554 24.1785C28.2414 24.265 28.3549 24.308 28.4679 24.308C28.5809 24.308 28.6939 24.265 28.7804 24.1785C28.9529 24.006 28.9529 23.7265 28.7804 23.554L26.5599 21.3335L31.2729 16.6205L33.4934 18.841C33.5799 18.927 33.6929 18.9705 33.8059 18.9705C33.9189 18.9705 34.0319 18.9275 34.1184 18.841C34.2909 18.6685 34.2909 18.389 34.1184 18.2165L31.8979 15.996L36.6464 11.2475L38.8669 13.468C38.9529 13.554 39.0664 13.5975 39.1794 13.5975C39.2924 13.5975 39.4054 13.5545 39.4919 13.468C39.6644 13.2955 39.6644 13.016 39.4919 12.8435L37.2714 10.623L39.9949 7.89948L46.3504 14.255L36.2259 24.3795C36.0534 24.552 36.0534 24.8315 36.2259 25.004C36.3984 25.1765 36.6779 25.1765 36.8504 25.004L46.9749 14.8795C47.1414 14.713 47.2329 14.491 47.2329 14.255C47.2329 14.019 47.1414 13.797 46.9749 13.6305L46.9724 13.63Z" fill="white"/>
<path d="M34.4495 26.107C34.2645 26.292 34.2645 26.592 34.4495 26.777C34.6345 26.962 34.9345 26.962 35.1195 26.777C35.3045 26.592 35.3045 26.292 35.1195 26.107C34.9345 25.922 34.6345 25.922 34.4495 26.107Z" fill="white"/>
<path d="M9.55104 34.584H9.55254C9.56454 34.579 9.57604 34.5745 9.58754 34.569C9.59104 34.5675 9.59454 34.5655 9.59804 34.564C9.60654 34.56 9.61454 34.5555 9.62254 34.551C9.62804 34.548 9.63404 34.5445 9.63954 34.541C9.64554 34.537 9.65154 34.5335 9.65704 34.529C9.66354 34.5245 9.67004 34.5195 9.67654 34.5145C9.68104 34.511 9.68604 34.507 9.69054 34.503C9.69704 34.4975 9.70354 34.4915 9.71004 34.4855C9.71254 34.4835 9.71504 34.4815 9.71704 34.479L35.9335 8.26301C37.8215 6.37501 37.8215 3.30351 35.9335 1.41551C34.0455 -0.472488 30.974 -0.472488 29.086 1.41551L2.87004 27.632C2.87004 27.632 2.86654 27.636 2.86504 27.638C2.85604 27.647 2.84754 27.657 2.83954 27.6665C2.83704 27.67 2.83404 27.673 2.83154 27.6765C2.82204 27.689 2.81304 27.702 2.80504 27.715C2.80304 27.7185 2.80104 27.722 2.79904 27.7255C2.79254 27.7365 2.78704 27.7475 2.78154 27.759C2.77704 27.7685 2.77354 27.7785 2.76954 27.7885C2.76804 27.7925 2.76654 27.7965 2.76504 27.801C2.76054 27.814 2.75704 27.827 2.75354 27.84C2.75354 27.84 2.75354 27.84 2.75354 27.8405L2.75004 27.8545C2.74904 27.859 2.74754 27.864 2.74654 27.8685L0.782041 36.034C0.746041 36.1835 0.790541 36.341 0.899041 36.4495C0.983041 36.5335 1.09554 36.579 1.21154 36.579C1.24604 36.579 1.28054 36.575 1.31504 36.567L9.48404 34.602C9.50704 34.5975 9.52954 34.5915 9.55154 34.5835L9.55104 34.584ZM22.6835 9.06801L24.382 7.36951L29.98 12.9675L28.2815 14.666L22.6835 9.06801ZM30.6045 12.3425L25.0065 6.74451L26.705 5.04601L32.303 10.644L30.6045 12.3425ZM29.711 2.04051C31.2545 0.497012 33.7655 0.497012 35.309 2.04051C36.053 2.78451 36.463 3.77851 36.463 4.83951C36.463 5.90051 36.053 6.89451 35.309 7.63851L32.928 10.0195L27.33 4.42151L29.711 2.04051ZM22.0585 9.69251L24.545 12.179L14.8765 21.8475C14.704 22.02 14.704 22.2995 14.8765 22.472C14.963 22.558 15.076 22.6015 15.189 22.6015C15.302 22.6015 15.415 22.5585 15.5015 22.472L25.17 12.8035L27.6565 15.29L9.49854 33.448C9.15954 32.7545 8.53104 31.3645 7.94554 30.0275L12.376 25.597C12.5485 25.4245 12.5485 25.145 12.376 24.9725C12.2035 24.8 11.924 24.8 11.7515 24.9725L7.32104 29.403C5.98404 28.8175 4.59404 28.189 3.90054 27.85L22.0585 9.69251ZM5.12904 29.3955C5.93654 29.76 6.75004 30.118 7.08504 30.2645C7.23154 30.5995 7.58954 31.413 7.95404 32.2205C8.23254 32.837 8.46104 33.3305 8.63254 33.6865C8.66554 33.755 8.69604 33.818 8.72454 33.8765L6.52304 34.406L2.94304 30.826L3.47254 28.6245C3.53104 28.653 3.59404 28.6835 3.66254 28.7165C4.01854 28.888 4.51204 29.1165 5.12854 29.395L5.12904 29.3955ZM2.70104 31.8335L5.51604 34.6485L1.80954 35.54L2.70104 31.8335Z" fill="white"/>
<path d="M13.8465 24.173C14.0315 23.988 14.0315 23.688 13.8465 23.503C13.6615 23.318 13.3615 23.318 13.1765 23.503C12.9915 23.688 12.9915 23.988 13.1765 24.173C13.3615 24.358 13.6615 24.358 13.8465 24.173Z" fill="white"/>
</g>
<defs>
<clipPath id="clip0_772_4523">
<rect width="48" height="48" fill="white"/>
</clipPath>
</defs>
</svg>
