<svg width="312" height="253" viewBox="0 0 312 253" fill="none" xmlns="http://www.w3.org/2000/svg">
<path opacity="0.09" d="M212.918 243.356C156.781 245.379 109.354 238.54 72.6476 223.369C106.1 201.023 140.127 161.29 140.127 92.2277C140.127 64.1982 131.13 40.4068 114.14 23.5024C98.9214 8.37995 78.582 0 56.9026 0C36.7067 0 15.7452 7.75387 0.143616 24.0322C-15.4579 7.75387 -36.4195 0 -56.6153 0C-97.9642 0 -139.839 31.6897 -139.839 92.1795C-139.839 161.097 -105.861 200.974 -72.7433 223.465C-109.45 238.54 -156.829 245.33 -212.918 243.308H-736V252.651H-212.918C-152.617 254.818 -101.984 246.872 -63.2197 229.534C-54.2703 234.831 -45.656 238.877 -38.0466 241.911C-18.5687 249.809 16.3194 249.809 36.5631 241.911C44.5553 238.829 53.6005 234.687 63.0284 229.245C97.6772 244.897 141.945 252.988 194.11 252.988C200.284 252.988 206.553 252.843 212.918 252.651H736V243.308H212.918V243.356ZM0.382874 38.962C10.2894 53.2657 15.458 71.7594 15.458 93.239C15.458 118.909 10.3373 141.64 0.191528 161.049C-9.95428 141.592 -15.0751 118.909 -15.0751 93.239C-15.0751 74.2156 -10.05 54.4697 0.430725 38.962H0.382874ZM-130.555 92.2277C-130.555 51.0503 -105.143 9.34317 -56.6153 9.34317C-37.6638 9.34317 -20.1001 16.6154 -7.13074 29.8596C-6.70001 30.2931 -6.3172 30.7265 -5.88647 31.1599C-17.133 46.1379 -24.4073 66.6544 -24.4073 93.239C-24.4073 122.762 -17.9944 148.624 -5.31219 170.441C-10.2894 178.194 -16.1757 185.37 -22.9236 191.92C-33.9308 202.612 -47.2353 211.666 -62.7411 219.083C-98.0121 197.218 -130.555 158.978 -130.555 92.2277ZM33.261 233.29C15.4581 240.225 -17.5158 240.225 -34.553 233.29C-40.631 230.834 -46.8524 227.993 -53.0739 224.669C-39.0516 217.349 -26.8002 208.68 -16.463 198.663C-10.1936 192.594 -4.64209 186.045 0.191528 179.061C5.02509 186.045 10.5765 192.594 16.8459 198.663C27.0396 208.536 39.0518 217.108 52.8347 224.332C45.8954 228.041 39.2432 230.979 33.261 233.29ZM62.454 218.794C47.2353 211.425 34.1224 202.467 23.2587 191.92C16.5108 185.37 10.6244 178.194 5.64722 170.441C18.3295 148.576 24.7424 122.762 24.7424 93.239C24.7424 66.7507 17.5158 46.2342 6.3172 31.3044C18.0423 18.1084 34.7924 9.39133 56.9504 9.39133C105.526 9.39133 130.89 51.0984 130.89 92.2758C130.89 160.568 95.4756 198.422 62.454 218.842V218.794Z" fill="white"/>
</svg>
