<?xml version="1.0" encoding="UTF-8"?><svg id="Capa_1" xmlns="http://www.w3.org/2000/svg" viewBox="0 0 1920 455"><path d="M1054,437.66c-100.99,3.64-186.31-8.66-252.34-35.94,60.18-40.19,121.39-111.64,121.39-235.85,0-50.41-16.19-93.2-46.75-123.6C848.93,15.07,812.34,0,773.34,0c-36.33,0-74.04,13.94-102.11,43.22C643.16,13.94,605.45,0,569.12,0c-74.39,0-149.72,56.99-149.72,165.78,0,123.94,61.13,195.66,120.7,236.11-66.03,27.11-151.27,39.32-252.17,35.68h-941.01v16.8H287.94c108.48,3.9,199.57-10.39,269.3-41.58,16.1,9.53,31.6,16.8,45.29,22.26,35.04,14.2,97.8,14.2,134.22,0,14.38-5.54,30.65-12.99,47.61-22.78,62.33,28.15,141.97,42.7,235.81,42.7,11.11,0,22.38-.26,33.84-.61h1007.24v-16.8h-1007.24v.09ZM671.66,70.07c17.82,25.72,27.12,58.98,27.12,97.61,0,46.16-9.21,87.05-27.46,121.95-18.25-34.99-27.46-75.79-27.46-121.95,0-34.21,9.04-69.72,27.89-97.61h-.09ZM436.11,165.86c0-74.05,45.72-149.06,133.02-149.06,34.09,0,65.69,13.08,89.02,36.9.77.78,1.46,1.56,2.24,2.34-20.23,26.94-33.32,63.83-33.32,111.64,0,53.09,11.54,99.61,34.35,138.84-8.95,13.94-19.54,26.85-31.68,38.63-19.8,19.23-43.74,35.51-71.63,48.85-63.45-39.32-122-108.09-122-228.14ZM730.81,419.55c-32.03,12.47-91.35,12.47-122,0-10.93-4.42-22.13-9.53-33.32-15.5,25.23-13.16,47.26-28.76,65.86-46.77,11.28-10.91,21.27-22.69,29.96-35.25,8.7,12.56,18.68,24.34,29.96,35.25,18.34,17.76,39.95,33.17,64.74,46.16-12.48,6.67-24.45,11.95-35.21,16.11ZM783.32,393.48c-27.38-13.25-50.97-29.36-70.51-48.33-12.14-11.78-22.73-24.68-31.68-38.63,22.81-39.32,34.35-85.75,34.35-138.84,0-47.64-13-84.53-33.15-111.38,21.09-23.73,51.23-39.41,91.09-39.41,87.39,0,133.02,75.01,133.02,149.06,0,122.82-63.71,190.89-123.11,227.62v-.09Z" fill="#fff" isolation="isolate" opacity=".09" stroke-width="0"/></svg>