<svg width="48" height="48" viewBox="0 0 48 48" fill="none" xmlns="http://www.w3.org/2000/svg">
<g clip-path="url(#clip0_486_199)">
<path d="M43.9615 0.0300105H41.245C40.9945 0.0300105 40.791 0.233011 40.791 0.484011C40.791 0.735011 40.994 0.938011 41.245 0.938011H43.9615C45.4985 0.938011 46.7495 2.18851 46.7495 3.72601V35.8645C46.7495 37.4015 45.499 38.6525 43.9615 38.6525H4.03852C2.50152 38.6525 1.25052 37.402 1.25052 35.8645V3.72551C1.25052 2.18851 2.50102 0.93751 4.03852 0.93751H36.4645C36.715 0.93751 36.9185 0.73451 36.9185 0.48351C36.9185 0.23251 36.7155 0.0295105 36.4645 0.0295105H4.03852C2.00052 0.0300105 0.343018 1.68751 0.343018 3.72551V35.864C0.343018 37.9015 2.00102 39.5595 4.03852 39.5595H18.631V41.774H9.65302C9.16652 41.774 8.77052 42.17 8.77052 42.6565V47.1175C8.77052 47.604 9.16652 48 9.65302 48H38.3475C38.834 48 39.23 47.604 39.23 47.1175V42.6565C39.23 42.17 38.834 41.774 38.3475 41.774H37.1835C36.933 41.774 36.7295 41.977 36.7295 42.228C36.7295 42.479 36.9325 42.682 37.1835 42.682H38.3225V47.093H34.763V44.928C34.763 44.4415 34.367 44.0455 33.8805 44.0455H29.778C29.2915 44.0455 28.8955 44.4415 28.8955 44.928V47.093H26.9345V44.928C26.9345 44.4415 26.5385 44.0455 26.052 44.0455H21.9495C21.463 44.0455 21.067 44.4415 21.067 44.928V47.093H19.106V44.928C19.106 44.4415 18.71 44.0455 18.2235 44.0455H14.121C13.6345 44.0455 13.2385 44.4415 13.2385 44.928V47.093H9.67902V42.682H32.9265C33.177 42.682 33.3805 42.479 33.3805 42.228C33.3805 41.977 33.1775 41.774 32.9265 41.774H29.3705V39.5595H43.963C46.0005 39.5595 47.6585 37.9015 47.6585 35.864V3.72551C47.6585 1.68801 46.0005 0.0300105 43.963 0.0300105H43.9615ZM29.8025 44.952H33.855V47.092H29.8025V44.952ZM21.9735 44.952H26.026V47.092H21.9735V44.952ZM14.145 44.952H18.1975V47.092H14.145V44.952ZM28.4615 41.7735H19.5385V39.559H28.4615V41.7735Z" fill="black"/>
<path d="M9.39438 6.80549C9.64488 6.80549 9.84838 6.60249 9.84838 6.35149C9.84838 6.10049 9.64538 5.89749 9.39438 5.89749H6.16738C5.91688 5.89749 5.71338 6.10049 5.71338 6.35149C5.71338 6.60249 5.91638 6.80549 6.16738 6.80549H7.32738V12.638H6.16738C5.91688 12.638 5.71338 12.841 5.71338 13.092C5.71338 13.343 5.91638 13.546 6.16738 13.546H7.32738V19.3785H6.16738C5.91688 19.3785 5.71338 19.5815 5.71338 19.8325C5.71338 20.0835 5.91638 20.2865 6.16738 20.2865H7.32738V26.119H6.16738C5.91688 26.119 5.71338 26.322 5.71338 26.573C5.71338 26.824 5.91638 27.027 6.16738 27.027H7.32738V32.8595H6.16738C5.91688 32.8595 5.71338 33.0625 5.71338 33.3135C5.71338 33.5645 5.91638 33.7675 6.16738 33.7675H9.39438C9.64488 33.7675 9.84838 33.5645 9.84838 33.3135C9.84838 33.0625 9.64538 32.8595 9.39438 32.8595H8.23438V27.027H9.39438C9.64488 27.027 9.84838 26.824 9.84838 26.573C9.84838 26.322 9.64538 26.119 9.39438 26.119H8.23438V20.2865H9.39438C9.64488 20.2865 9.84838 20.0835 9.84838 19.8325C9.84838 19.5815 9.64538 19.3785 9.39438 19.3785H8.23438V13.546H9.39438C9.64488 13.546 9.84838 13.343 9.84838 13.092C9.84838 12.841 9.64538 12.638 9.39438 12.638H8.23438V6.80549H9.39438Z" fill="black"/>
<path d="M36.3315 30.301C36.3315 30.5515 36.5345 30.755 36.7855 30.755H41.8355C42.086 30.755 42.2895 30.552 42.2895 30.301C42.2895 30.05 42.0865 29.847 41.8355 29.847H36.7855C36.535 29.847 36.3315 30.05 36.3315 30.301Z" fill="black"/>
<path d="M42.4385 33.3115C42.4385 33.061 42.2355 32.8575 41.9845 32.8575H34.9025C34.652 32.8575 34.4485 33.0605 34.4485 33.3115C34.4485 33.5625 34.6515 33.7655 34.9025 33.7655H41.9845C42.235 33.7655 42.4385 33.5625 42.4385 33.3115Z" fill="black"/>
<path d="M39.131 0.967C39.398 0.967 39.6145 0.7505 39.6145 0.4835C39.6145 0.2165 39.398 0 39.131 0C38.864 0 38.6475 0.2165 38.6475 0.4835C38.6475 0.7505 38.864 0.967 39.131 0.967Z" fill="black"/>
<path d="M39.1946 37.0565H41.5071C43.5446 37.0565 45.2026 35.3985 45.2026 33.361V6.228C45.2026 4.1905 43.5446 2.5325 41.5071 2.5325H6.49262C4.45512 2.5325 2.79712 4.1905 2.79712 6.228V33.3605C2.79712 35.398 4.45512 37.056 6.49262 37.056H34.7836C35.0341 37.056 35.2376 36.853 35.2376 36.602C35.2376 36.351 35.0346 36.148 34.7836 36.148H6.49262C4.95562 36.148 3.70462 34.8975 3.70462 33.36V6.228C3.70462 4.691 4.95512 3.44 6.49262 3.44H41.5076C43.0446 3.44 44.2956 4.6905 44.2956 6.228V33.3605C44.2956 34.8975 43.0451 36.1485 41.5076 36.1485H39.1951C38.9446 36.1485 38.7411 36.3515 38.7411 36.6025C38.7411 36.8535 38.9441 37.0565 39.1951 37.0565H39.1946Z" fill="black"/>
<path d="M36.6011 36.6025C36.6011 36.8695 36.8176 37.086 37.0846 37.086C37.3516 37.086 37.5681 36.8695 37.5681 36.6025C37.5681 36.3355 37.3516 36.119 37.0846 36.119C36.8176 36.119 36.6011 36.3355 36.6011 36.6025Z" fill="black"/>
<path d="M34.7241 42.2275C34.7241 42.4945 34.9406 42.711 35.2076 42.711C35.4746 42.711 35.6911 42.4945 35.6911 42.2275C35.6911 41.9605 35.4746 41.744 35.2076 41.744C34.9406 41.744 34.7241 41.9605 34.7241 42.2275Z" fill="black"/>
<path d="M18.4205 15.683C18.456 15.666 19.2975 15.2655 20.086 15.729C20.678 16.077 20.854 16.6785 20.894 16.8545C20.9415 17.0655 21.129 17.2085 21.336 17.2085C21.369 17.2085 21.403 17.205 21.4365 17.197C21.681 17.1415 21.8345 16.8985 21.779 16.6545C21.7305 16.4405 21.548 15.81 21.006 15.294C21.2635 14.9835 21.539 14.5155 21.587 13.8985C21.6355 13.276 21.4355 12.7795 21.2595 12.472C21.135 12.2545 20.8575 12.1795 20.64 12.304C20.4225 12.4285 20.3475 12.706 20.472 12.9235C20.5845 13.12 20.7125 13.436 20.682 13.828C20.6475 14.272 20.422 14.5985 20.2395 14.794C19.162 14.343 18.1445 14.808 18.022 14.8675C17.7965 14.9775 17.703 15.249 17.813 15.4745C17.923 15.7 18.1945 15.7935 18.42 15.6835L18.4205 15.683Z" fill="black"/>
<path d="M12.5785 27.289C13.1225 28.0515 13.897 28.3495 14.401 28.4655C14.593 29.131 15.0695 29.6035 15.5085 29.844C15.842 30.027 16.214 30.1145 16.5945 30.1145C16.6355 30.1145 16.6765 30.113 16.7175 30.111C16.935 31.671 17.978 33.005 19.4295 33.519C19.8565 33.6705 20.307 33.746 20.7605 33.746C21.2685 33.746 21.781 33.6515 22.271 33.4625C22.983 33.188 23.611 32.7265 24.091 32.134C24.571 32.726 25.199 33.188 25.911 33.4625C26.4005 33.651 26.913 33.746 27.4215 33.746C27.875 33.746 28.3255 33.6705 28.7525 33.519C30.204 33.005 31.247 31.671 31.4645 30.111C31.5055 30.113 31.547 30.1145 31.5875 30.1145C31.968 30.1145 32.34 30.0265 32.6735 29.844C33.1125 29.6035 33.589 29.131 33.781 28.4655C34.285 28.3495 35.06 28.0515 35.6035 27.289C36.2625 26.3645 36.316 25.097 35.7735 24.0155C36.784 23.292 37.469 22.1495 37.54 20.865C37.601 19.764 37.214 18.6945 36.451 17.8525C36.3645 17.757 36.274 17.6665 36.1805 17.58C36.1865 17.558 36.191 17.536 36.1935 17.5125C36.254 16.963 36.256 15.881 35.5905 14.804C35.1825 14.144 34.6645 13.713 34.227 13.44C34.3695 12.6025 34.159 11.811 33.655 11.3585C33.3 11.0395 32.79 10.875 32.2345 10.8945C32.147 10.366 31.9065 9.59751 31.2565 8.92901C30.4295 8.07951 29.422 7.88001 28.8445 7.84101C28.6155 7.22451 28.201 6.67951 27.6265 6.29751C26.5765 5.60001 25.169 5.61201 24.091 6.29551C23.013 5.61201 21.6055 5.60001 20.5555 6.29751C19.9805 6.67901 19.566 7.22451 19.337 7.84101C18.76 7.88001 17.752 8.07901 16.925 8.92851C16.2745 9.59651 16.034 10.365 15.947 10.8935C15.3915 10.874 14.882 11.0385 14.5265 11.3575C14.0225 11.8105 13.8125 12.6015 13.955 13.439C13.517 13.712 12.9995 14.143 12.5915 14.803C11.926 15.88 11.928 16.9625 11.9885 17.5115C11.991 17.5345 11.9955 17.557 12.0015 17.579C11.908 17.6655 11.8175 17.756 11.731 17.8515C10.9675 18.693 10.581 19.763 10.642 20.864C10.713 22.148 11.398 23.2905 12.4085 24.0145C11.866 25.096 11.919 26.3635 12.578 27.288L12.5785 27.289ZM27.1245 7.05451C28.038 7.66101 28.3905 8.90551 27.9445 9.94951C27.846 10.18 27.953 10.4465 28.1835 10.545C28.414 10.6435 28.6805 10.5365 28.779 10.306C28.992 9.80751 29.076 9.28301 29.0435 8.77451C29.4845 8.84201 30.093 9.03501 30.6065 9.56251C31.1105 10.0805 31.2865 10.6815 31.346 11.0795C30.7755 11.298 30.2605 11.6995 29.875 12.2395C29.7295 12.4435 29.777 12.727 29.981 12.8725C30.185 13.018 30.4685 12.9705 30.614 12.7665C31.002 12.223 31.5595 11.8745 32.1435 11.81C32.51 11.7695 32.8485 11.853 33.049 12.0335C33.362 12.315 33.4525 12.9215 33.2745 13.543C33.2745 13.543 33.2745 13.5435 33.2745 13.544C33.2705 13.558 33.2675 13.572 33.2645 13.5865C33.2645 13.587 33.2645 13.588 33.2645 13.5885C33.262 13.6025 33.26 13.6165 33.259 13.631C33.259 13.632 33.259 13.633 33.259 13.634C33.2585 13.6435 33.2585 13.653 33.258 13.6625C33.2575 13.7105 33.264 13.758 33.278 13.8025C33.2785 13.804 33.279 13.806 33.2795 13.8075C33.2825 13.816 33.286 13.8245 33.289 13.833C33.291 13.838 33.2925 13.8435 33.295 13.8485C33.297 13.8535 33.3 13.8585 33.3025 13.8635C33.3065 13.8715 33.31 13.88 33.3145 13.888C33.3155 13.8895 33.3165 13.8915 33.3175 13.893C33.34 13.933 33.369 13.969 33.4035 14.001C33.411 14.008 33.4185 14.015 33.427 14.0215C33.427 14.0215 33.428 14.022 33.4285 14.0225C33.44 14.0315 33.4515 14.04 33.464 14.048C33.464 14.048 33.4645 14.048 33.465 14.0485C33.4775 14.0565 33.4905 14.064 33.5035 14.071C33.5035 14.071 33.5035 14.071 33.504 14.071C33.8835 14.266 34.4195 14.6335 34.8195 15.2805C35.194 15.887 35.299 16.497 35.311 16.9535C34.758 16.6535 34.142 16.477 33.4975 16.4415C33.247 16.4275 33.033 16.6195 33.0195 16.87C33.006 17.1205 33.1975 17.3345 33.448 17.348C34.345 17.397 35.1735 17.7925 35.78 18.4615C36.379 19.122 36.6825 19.9575 36.6355 20.814C36.5435 22.4755 35.1325 23.836 33.423 23.9115C33.1725 23.9225 32.9785 24.1345 32.9895 24.385C33 24.6285 33.201 24.819 33.4425 24.819C33.449 24.819 33.456 24.819 33.463 24.819C34 24.7955 34.514 24.6705 34.9855 24.465C35.3575 25.2395 35.3215 26.1235 34.8665 26.7615C34.5745 27.1705 34.1705 27.388 33.843 27.503C33.719 26.725 33.207 26.2255 33.089 26.1195C32.9025 25.952 32.6155 25.9675 32.448 26.1545C32.2805 26.341 32.296 26.628 32.483 26.7955C32.536 26.843 32.9995 27.2785 32.9605 27.9245C32.927 28.48 32.551 28.877 32.239 29.048C31.933 29.216 31.5685 29.2495 31.207 29.1655C31.181 29.156 31.1545 29.1495 31.1265 29.145C30.7585 29.042 30.3975 28.8175 30.1085 28.489C29.943 28.301 29.6565 28.282 29.468 28.448C29.28 28.6135 29.2615 28.9 29.427 29.0885C29.755 29.462 30.1535 29.7395 30.5765 29.9115C30.429 31.1725 29.606 32.255 28.451 32.664C27.035 33.1655 25.3835 32.545 24.5515 31.219V21.2135C24.7445 21.26 24.968 21.294 25.207 21.294C25.5745 21.294 25.979 21.2135 26.3685 20.9725C26.864 20.666 27.129 20.228 27.264 19.914C27.363 19.684 27.2565 19.417 27.0265 19.318C26.796 19.219 26.5295 19.3255 26.4305 19.5555C26.347 19.749 26.186 20.0185 25.8915 20.2005C25.415 20.495 24.862 20.378 24.5515 20.2695V7.08001C25.335 6.56651 26.364 6.54851 27.1265 7.05451H27.1245ZM11.5485 20.815C11.501 19.9585 11.805 19.123 12.404 18.4625C13.0105 17.7935 13.8385 17.398 14.736 17.349C14.9865 17.3355 15.178 17.1215 15.1645 16.871C15.151 16.621 14.9365 16.428 14.6865 16.4425C14.042 16.478 13.4255 16.6545 12.873 16.9545C12.885 16.498 12.99 15.888 13.3645 15.2815C13.764 14.635 14.3005 14.267 14.68 14.072C14.68 14.072 14.68 14.072 14.6805 14.072C14.694 14.065 14.707 14.0575 14.7195 14.0495C14.7195 14.0495 14.7195 14.0495 14.72 14.0495C14.7325 14.0415 14.7445 14.0325 14.756 14.0235C14.756 14.0235 14.7565 14.023 14.757 14.0225C14.7655 14.0155 14.7735 14.0085 14.781 14.001C14.815 13.9695 14.8435 13.933 14.866 13.894C14.867 13.8925 14.868 13.8905 14.869 13.889C14.8735 13.881 14.8775 13.8725 14.8815 13.864C14.884 13.859 14.8865 13.8545 14.8885 13.8495C14.891 13.844 14.8925 13.8385 14.8945 13.833C14.8975 13.8245 14.901 13.8165 14.904 13.808C14.9045 13.806 14.905 13.804 14.9055 13.802C14.9185 13.76 14.9255 13.716 14.9255 13.671C14.9255 13.629 14.9205 13.5865 14.9085 13.5445C14.9085 13.5445 14.9085 13.5445 14.9085 13.544C14.7305 12.9225 14.821 12.3155 15.134 12.0345C15.3345 11.854 15.673 11.7705 16.0395 11.811C16.6235 11.875 17.181 12.224 17.569 12.7675C17.7145 12.9715 17.998 13.019 18.202 12.8735C18.406 12.728 18.4535 12.4445 18.308 12.2405C17.9225 11.7005 17.4075 11.299 16.837 11.0805C16.8965 10.6825 17.072 10.0815 17.5765 9.56351C18.09 9.03601 18.6985 8.84301 19.1395 8.77551C19.107 9.28401 19.191 9.80851 19.404 10.307C19.5025 10.5375 19.769 10.6445 19.9995 10.546C20.23 10.4475 20.337 10.181 20.2385 9.95051C19.7925 8.90651 20.145 7.66201 21.0585 7.05551C21.8205 6.54951 22.8495 6.56751 23.6335 7.08101V20.27C23.323 20.3785 22.7705 20.4955 22.2935 20.201C21.999 20.019 21.838 19.75 21.7545 19.556C21.6555 19.326 21.3885 19.2195 21.1585 19.3185C20.928 19.4175 20.822 19.6845 20.921 19.9145C21.056 20.228 21.3205 20.6665 21.8165 20.973C22.206 21.214 22.6105 21.2945 22.978 21.2945C23.217 21.2945 23.4405 21.26 23.6335 21.2135V31.219C22.8015 32.545 21.1495 33.1655 19.734 32.664C18.5795 32.255 17.7565 31.1725 17.6085 29.9115C18.0315 29.7395 18.4295 29.462 18.758 29.0885C18.9235 28.9 18.905 28.6135 18.717 28.448C18.5285 28.2825 18.242 28.301 18.0765 28.489C17.7875 28.818 17.427 29.042 17.059 29.145C17.031 29.1495 17.004 29.1565 16.978 29.166C16.6165 29.2495 16.2525 29.216 15.9465 29.048C15.6345 28.877 15.2585 28.4805 15.225 27.9245C15.186 27.2785 15.6495 26.843 15.7025 26.7955C15.889 26.628 15.9045 26.341 15.737 26.1545C15.5695 25.968 15.2825 25.9525 15.096 26.12C14.9775 26.226 14.466 26.7255 14.342 27.5035C14.0145 27.3885 13.6105 27.1715 13.3185 26.762C12.8635 26.124 12.8275 25.2395 13.1995 24.4655C13.6705 24.6715 14.1845 24.796 14.722 24.8195C14.729 24.8195 14.7355 24.8195 14.7425 24.8195C14.984 24.8195 15.185 24.6295 15.1955 24.3855C15.2065 24.135 15.0125 23.923 14.762 23.912C13.0525 23.8365 11.6415 22.476 11.5495 20.8145L11.5485 20.815Z" fill="black"/>
<path d="M15.3694 21.2165C15.4894 21.23 15.6094 21.2365 15.7279 21.2365C16.3989 21.2365 17.0369 21.023 17.5459 20.6375C17.6914 20.746 17.8239 20.871 17.9404 21.011C18.1609 21.2755 18.3234 21.5935 18.4094 21.931C18.4619 22.136 18.6464 22.2725 18.8489 22.2725C18.8859 22.2725 18.9239 22.268 18.9619 22.2585C19.2049 22.1965 19.3514 21.949 19.2889 21.7065C19.1694 21.239 18.9439 20.798 18.6374 20.43C18.4979 20.2625 18.3419 20.1115 18.1729 19.976C18.7599 19.106 18.6684 18.1765 18.6004 17.813C18.5544 17.5665 18.3169 17.404 18.0709 17.4505C17.8244 17.4965 17.6624 17.7335 17.7084 17.98C17.7459 18.1795 17.8344 18.8795 17.4019 19.496C16.9864 20.0885 16.2469 20.402 15.4714 20.314C15.2219 20.2865 14.9974 20.465 14.9694 20.714C14.9414 20.963 15.1204 21.188 15.3694 21.216V21.2165Z" fill="black"/>
<path d="M18.3774 24.7565C18.2134 24.567 17.9269 24.546 17.7374 24.7095C17.5479 24.8735 17.5269 25.16 17.6904 25.3495C18.1604 25.894 18.8014 26.219 19.4764 26.282C19.5424 26.6355 19.6664 26.9775 19.8449 27.2885C20.0824 27.7025 20.4169 28.0635 20.8114 28.3335C20.8899 28.387 20.9789 28.4125 21.0669 28.4125C21.2119 28.4125 21.3539 28.3435 21.4419 28.215C21.5834 28.008 21.5304 27.7255 21.3234 27.584C21.0409 27.391 20.8014 27.132 20.6314 26.836C20.5044 26.615 20.4294 26.398 20.3854 26.2055C21.5989 25.883 22.0769 24.819 22.1609 24.607C22.2534 24.374 22.1394 24.11 21.9064 24.018C21.6734 23.9255 21.4099 24.0395 21.3174 24.2725C21.2829 24.3595 20.9569 25.1275 20.1294 25.3345C19.5039 25.4915 18.8159 25.264 18.3769 24.7555L18.3774 24.7565Z" fill="black"/>
<path d="M26.745 17.1965C26.779 17.204 26.8125 17.208 26.8455 17.208C27.053 17.208 27.24 17.065 27.2875 16.8545C27.3275 16.6785 27.5035 16.077 28.0955 15.729C28.884 15.2655 29.726 15.666 29.7615 15.683C29.987 15.793 30.2585 15.699 30.368 15.474C30.478 15.2485 30.384 14.977 30.159 14.8675C30.037 14.808 29.019 14.3435 27.9415 14.794C27.759 14.5985 27.5335 14.2725 27.499 13.8285C27.4685 13.437 27.5965 13.1205 27.709 12.924C27.834 12.7065 27.7585 12.4295 27.5415 12.3045C27.324 12.1795 27.0465 12.255 26.922 12.472C26.7455 12.779 26.546 13.276 26.594 13.8985C26.642 14.5155 26.9175 14.9835 27.175 15.294C26.633 15.8095 26.4505 16.44 26.402 16.654C26.3465 16.8985 26.5 17.1415 26.7445 17.197L26.745 17.1965Z" fill="black"/>
<path d="M30.1109 17.451C29.8644 17.4045 29.6274 17.567 29.5814 17.8135C29.5134 18.1765 29.4219 19.106 30.0089 19.9765C29.8399 20.1115 29.6839 20.263 29.5444 20.4305C29.2379 20.798 29.0124 21.2395 28.8929 21.707C28.8309 21.95 28.9774 22.197 29.2204 22.259C29.2579 22.2685 29.2959 22.273 29.3334 22.273C29.5359 22.273 29.7204 22.1365 29.7729 21.9315C29.8589 21.594 30.0214 21.276 30.2419 21.0115C30.3589 20.8715 30.4909 20.7465 30.6364 20.638C31.1449 21.023 31.7829 21.237 32.4544 21.237C32.5729 21.237 32.6929 21.2305 32.8129 21.217C33.0619 21.189 33.2409 20.964 33.2129 20.715C33.1849 20.466 32.9599 20.287 32.7109 20.315C31.9349 20.4025 31.1954 20.089 30.7804 19.497C30.3479 18.8805 30.4364 18.181 30.4739 17.981C30.5199 17.7345 30.3579 17.4975 30.1114 17.4515L30.1109 17.451Z" fill="black"/>
<path d="M30.4444 24.7095C30.2544 24.5455 29.9679 24.5665 29.8044 24.7565C29.3654 25.265 28.6774 25.4925 28.0519 25.3355C27.2244 25.128 26.8984 24.36 26.8639 24.273C26.7714 24.04 26.5079 23.926 26.2749 24.0185C26.0419 24.111 25.9279 24.3745 26.0204 24.6075C26.1044 24.8195 26.5829 25.8835 27.7959 26.2055C27.7519 26.398 27.6769 26.615 27.5499 26.836C27.3799 27.132 27.1404 27.3905 26.8579 27.584C26.6509 27.7255 26.5979 28.008 26.7394 28.215C26.8274 28.3435 26.9694 28.4125 27.1144 28.4125C27.2024 28.4125 27.2919 28.387 27.3704 28.333C27.7649 28.063 28.0994 27.7015 28.3369 27.288C28.5154 26.977 28.6394 26.6345 28.7054 26.2815C29.3804 26.2185 30.0209 25.8935 30.4914 25.349C30.6554 25.1595 30.6344 24.8725 30.4444 24.709V24.7095Z" fill="black"/>
</g>
<defs>
<clipPath id="clip0_486_199">
<rect width="48" height="48" fill="white"/>
</clipPath>
</defs>
</svg>
