<svg width="48" height="48" viewBox="0 0 48 48" fill="none" xmlns="http://www.w3.org/2000/svg">
<g clip-path="url(#clip0_486_149)">
<path d="M46.3904 26.0425C46.3049 25.814 46.0499 25.698 45.8219 25.7835C45.5934 25.869 45.4774 26.1235 45.5629 26.352C46.1904 28.028 46.5084 29.794 46.5084 31.6005C46.5084 39.8565 39.7914 46.5735 31.5354 46.5735C23.2794 46.5735 16.5624 39.8565 16.5624 31.6005C16.5624 23.3445 23.2794 16.6275 31.5354 16.6275C35.7004 16.6275 39.7109 18.3835 42.5379 21.445C42.7034 21.6245 42.9829 21.6355 43.1619 21.47C43.3414 21.3045 43.3524 21.025 43.1869 20.846C41.7169 19.254 39.9724 18 38.0024 17.119C35.9629 16.207 33.7869 15.7445 31.5349 15.7445C28.7039 15.7445 25.9869 16.4825 23.6014 17.8655L15.3434 0.254C15.2709 0.099 15.1149 0 14.9434 0C14.7719 0 14.6164 0.099 14.5434 0.2545L2.21041 26.582C2.06491 26.867 1.92541 27.165 1.79591 27.467L1.79391 27.471C1.78891 27.481 1.78491 27.4915 1.78091 27.5015C1.00291 29.3285 0.60791 31.269 0.60791 33.2695C0.60791 37.204 2.13991 40.903 4.92241 43.6855C7.70491 46.468 11.4039 48 15.3384 48C18.3529 48 21.2389 47.1005 23.7039 45.3955C26.0644 46.7405 28.7449 47.457 31.5359 47.457C35.7714 47.457 39.7534 45.8075 42.7479 42.813C45.7429 39.818 47.3919 35.836 47.3919 31.601C47.3919 29.688 47.0549 27.818 46.3904 26.0425ZM15.3384 47.1165C7.70341 47.1165 1.49141 40.905 1.49141 33.2695C1.49141 31.3835 1.86441 29.554 2.59991 27.833C2.60141 27.8295 2.60291 27.826 2.60441 27.8225C2.72841 27.5335 2.86141 27.249 3.00041 26.9775C3.00291 26.973 3.00491 26.9685 3.00691 26.964L14.9439 1.4825L22.8459 18.3325C21.9474 18.9235 21.1019 19.61 20.3234 20.3885C17.3284 23.3835 15.6794 27.3655 15.6794 31.6005C15.6794 35.8355 17.3289 39.818 20.3234 42.8125C21.1099 43.599 21.9649 44.2915 22.8744 44.887C20.6309 46.347 18.0394 47.116 15.3384 47.116V47.1165Z" fill="black"/>
<path d="M36.6496 28.5625C38.0146 27.546 38.7666 26.182 38.7666 24.7225C38.7666 23.263 38.0146 21.899 36.6496 20.8825C35.3236 19.895 33.5671 19.351 31.7041 19.351C31.0746 19.351 30.4501 19.414 29.8481 19.5375C29.6091 19.5865 29.4551 19.82 29.5046 20.059C29.5536 20.298 29.7876 20.452 30.0261 20.4025C30.5696 20.2905 31.1341 20.234 31.7041 20.234C35.1111 20.234 37.8831 22.2475 37.8831 24.722C37.8831 27.1965 35.1111 29.21 31.7041 29.21C28.2971 29.21 25.5251 27.1965 25.5251 24.722C25.5251 23.811 25.9026 22.9325 26.6166 22.181C26.7846 22.004 26.7776 21.7245 26.6006 21.5565C26.4236 21.3885 26.1441 21.3955 25.9761 21.5725C25.1026 22.491 24.6411 23.58 24.6411 24.722C24.6411 26.182 25.3931 27.5455 26.7581 28.562C28.0841 29.5495 29.8406 30.0935 31.7036 30.0935C33.5666 30.0935 35.3226 29.5495 36.6491 28.562L36.6496 28.5625Z" fill="black"/>
<path d="M31.641 24.4225C31.6645 24.4225 31.6885 24.4225 31.712 24.4225C32.494 24.4145 33.263 24.273 33.998 24.0025C34.227 23.918 34.344 23.6645 34.26 23.4355C34.1755 23.2065 33.922 23.0895 33.693 23.1735C33.0535 23.409 32.384 23.532 31.7035 23.539C30.983 23.5465 30.271 23.4235 29.592 23.1735C29.363 23.089 29.109 23.2065 29.025 23.4355C28.9405 23.6645 29.058 23.9185 29.287 24.0025C30.0445 24.2815 30.8365 24.4225 31.6415 24.4225H31.641Z" fill="black"/>
<path d="M28.5624 32.297C27.2214 31.004 25.5799 30.1765 23.9394 29.9665C22.2509 29.7505 20.7634 30.2105 19.7499 31.2615C18.7364 32.3125 18.3309 33.816 18.6084 35.4955C18.8774 37.127 19.7644 38.7375 21.1054 40.0305C22.4464 41.3235 24.0879 42.151 25.7284 42.361C26.0009 42.396 26.2679 42.413 26.5289 42.413C27.8844 42.413 29.0684 41.9475 29.9179 41.066C30.9314 40.015 31.3369 38.5115 31.0594 36.832C30.7904 35.2005 29.9034 33.59 28.5624 32.297ZM29.2819 40.453C27.5639 42.2345 24.1714 41.7595 21.7189 39.3945C20.5139 38.2325 19.7189 36.7965 19.4804 35.3515C19.2499 33.9545 19.5714 32.7195 20.3864 31.8745C21.0879 31.147 22.0684 30.796 23.1504 30.796C24.7179 30.796 26.4984 31.5335 27.9499 32.933C29.1549 34.095 29.9499 35.531 30.1884 36.976C30.4189 38.373 30.0974 39.608 29.2824 40.453H29.2819Z" fill="black"/>
<path d="M27.3404 36.429C26.7164 36.1545 26.1489 35.7785 25.6544 35.311C25.1294 34.815 24.7034 34.2335 24.3884 33.582C24.2819 33.3625 24.0179 33.2705 23.7984 33.377C23.5789 33.4835 23.4869 33.7475 23.5934 33.967C23.9554 34.715 24.4449 35.383 25.0479 35.953C25.6164 36.49 26.2679 36.922 26.9849 37.2375C27.0429 37.263 27.1029 37.275 27.1624 37.275C27.3324 37.275 27.4944 37.1765 27.5669 37.011C27.6649 36.7875 27.5639 36.527 27.3404 36.429Z" fill="black"/>
<path d="M38.9935 29.9995C37.362 30.2685 35.7515 31.1555 34.4585 32.4965C33.1655 33.8375 32.338 35.479 32.128 37.1195C31.912 38.808 32.372 40.2955 33.423 41.309C34.258 42.1145 35.379 42.5355 36.647 42.5355C36.9745 42.5355 37.312 42.5075 37.6565 42.4505C39.288 42.1815 40.8985 41.2945 42.1915 39.9535C43.4845 38.6125 44.312 36.971 44.522 35.3305C44.738 33.642 44.278 32.1545 43.227 31.141C42.176 30.128 40.6725 29.7225 38.993 29.9995H38.9935ZM43.6455 35.2185C43.4595 36.6715 42.7175 38.135 41.5555 39.34C40.3935 40.545 38.9575 41.34 37.5125 41.5785C36.1155 41.809 34.8805 41.487 34.0355 40.6725C32.254 38.9545 32.729 35.562 35.094 33.1095C36.547 31.603 38.38 30.7965 39.991 30.7965C41.0025 30.7965 41.9265 31.1145 42.6135 31.777C43.4585 32.592 43.825 33.814 43.645 35.2185H43.6455Z" fill="black"/>
<path d="M39.172 33.492C38.9485 33.3935 38.688 33.495 38.59 33.7185C38.3155 34.3425 37.939 34.91 37.472 35.4045C36.976 35.9295 36.3945 36.3555 35.7435 36.6705C35.524 36.777 35.432 37.041 35.5385 37.2605C35.615 37.418 35.7725 37.51 35.9365 37.51C36.001 37.51 36.0665 37.496 36.1285 37.466C36.8765 37.104 37.5445 36.6145 38.1145 36.0115C38.6515 35.443 39.0835 34.7915 39.399 34.0745C39.4975 33.851 39.396 33.5905 39.1725 33.4925L39.172 33.492Z" fill="black"/>
<path d="M44.6429 24.07C44.9089 24.07 45.1249 23.8545 45.1249 23.588C45.1249 23.3215 44.9094 23.106 44.6429 23.106C44.3764 23.106 44.1609 23.3215 44.1609 23.588C44.1609 23.8545 44.3769 24.07 44.6429 24.07Z" fill="black"/>
<path d="M28.4696 20.738C28.4696 20.472 28.2541 20.256 27.9876 20.256C27.7211 20.256 27.5056 20.4715 27.5056 20.738C27.5056 21.0045 27.7211 21.22 27.9876 21.22C28.2541 21.22 28.4696 21.0045 28.4696 20.738Z" fill="black"/>
<path d="M14.5511 8.408C14.2851 8.408 14.0691 8.6235 14.0691 8.89C14.0691 9.1565 14.2846 9.372 14.5511 9.372C14.8176 9.372 15.0331 9.1565 15.0331 8.89C15.0331 8.6235 14.8176 8.408 14.5511 8.408Z" fill="black"/>
<path d="M13.7579 10.597C13.5369 10.493 13.2739 10.5875 13.1699 10.8085L4.59744 29.0005C4.49344 29.221 4.58794 29.4845 4.80894 29.5885C4.86994 29.617 4.93394 29.6305 4.99694 29.6305C5.16244 29.6305 5.32144 29.537 5.39694 29.377L13.9694 11.185C14.0734 10.9645 13.9789 10.701 13.7579 10.597Z" fill="black"/>
</g>
<defs>
<clipPath id="clip0_486_149">
<rect width="48" height="48" fill="white"/>
</clipPath>
</defs>
</svg>
