<svg width="48" height="48" viewBox="0 0 48 48" fill="none" xmlns="http://www.w3.org/2000/svg">
<path d="M15.1326 21.0025H15.3506C15.5811 21.0025 15.7681 21.1895 15.7681 21.42V22.5265C15.7681 22.757 15.5811 22.944 15.3506 22.944H15.1326C14.9021 22.944 14.7151 22.757 14.7151 22.5265V21.42C14.7151 21.1895 14.9021 21.0025 15.1326 21.0025Z" fill="black"/>
<path d="M19.158 9.944C19.2725 9.961 19.3805 9.9765 19.483 9.991C20.178 10.09 20.561 10.1445 21.03 10.3815C21.5565 10.6475 22.0155 11.0555 22.395 11.594C22.481 11.716 22.6175 11.7815 22.7565 11.7815C22.8445 11.7815 22.933 11.7555 23.0105 11.701C23.21 11.5605 23.258 11.285 23.1175 11.0855C22.654 10.427 22.0855 9.925 21.4285 9.593C20.8295 9.2905 20.3435 9.2215 19.6075 9.1165C19.5065 9.102 19.4 9.087 19.2865 9.07C18.3505 8.932 17.3885 8.753 16.426 8.537C16.1885 8.4835 15.9515 8.633 15.8985 8.8715C15.845 9.1095 15.9945 9.346 16.233 9.399C17.2165 9.62 18.201 9.803 19.1585 9.944H19.158Z" fill="black"/>
<path d="M36.6065 40.4935C35.7565 38.552 35.1425 37.1495 34.895 35.1485C34.865 34.9065 34.6455 34.7345 34.4025 34.764C34.1605 34.794 33.9885 35.0145 34.0185 35.2565C34.2815 37.3855 34.9175 38.8375 35.7975 40.8475C36.9655 43.515 37.789 45.391 38.5495 47.116H9.45151C10.2075 45.4005 11.0315 43.524 12.2035 40.8475C13.0835 38.8375 13.7195 37.3855 13.9825 35.2565C14.111 34.217 14.1315 33.09 14.0425 31.996C13.94 30.7365 13.692 29.495 13.305 28.2915C14.1195 28.57 14.9825 28.728 15.8585 28.7525C15.9365 28.7545 16.014 28.756 16.0915 28.756C17.9305 28.756 19.6225 28.1455 20.877 27.0245C21.9725 26.0455 22.698 24.731 23.033 23.118C23.275 21.952 23.2335 20.966 23.2045 20.5965C23.1855 20.3535 22.973 20.172 22.7295 20.191C22.4865 20.21 22.3045 20.423 22.324 20.666C22.3715 21.2715 22.4975 24.392 20.2885 26.366C18.377 28.074 15.265 28.314 12.756 27.1125C12.748 27.1085 12.74 27.1045 12.7315 27.101C12.2485 26.8675 11.788 26.581 11.3635 26.2405C11.173 26.088 10.895 26.1185 10.7425 26.309C10.59 26.4995 10.6205 26.7775 10.811 26.93C11.243 27.276 11.7115 27.577 12.208 27.829C12.723 29.1935 13.0445 30.619 13.1625 32.0685C13.247 33.103 13.2275 34.168 13.106 35.1485C12.859 37.1495 12.2445 38.552 11.3945 40.4935C10.0805 43.495 9.20401 45.49 8.37001 47.38C8.31001 47.5165 8.32251 47.6745 8.40401 47.7995C8.48551 47.9245 8.62501 48 8.77401 48H39.2265C39.376 48 39.515 47.9245 39.5965 47.7995C39.678 47.6745 39.691 47.5165 39.6305 47.38C38.791 45.478 37.915 43.4825 36.606 40.4935H36.6065Z" fill="black"/>
<path d="M44.9294 14.6475C44.3934 12.205 43.3549 10.2975 41.8439 8.978C40.3879 7.707 38.6844 7.129 35.2909 5.9775C34.5439 5.724 33.9454 5.54 33.4174 5.378C32.0369 4.954 31.4069 4.7605 30.6369 4.0915C29.6134 3.2025 28.8949 1.939 28.5014 0.3365C28.4529 0.139 28.2759 0 28.0724 0H19.9274C19.7239 0 19.5469 0.139 19.4984 0.3365C19.1049 1.9395 18.3864 3.2025 17.3629 4.0915C16.5929 4.76 15.9629 4.954 14.5824 5.378C14.0544 5.54 13.4559 5.724 12.7089 5.9775C9.31543 7.129 7.61193 7.7065 6.15593 8.978C4.64443 10.2975 3.60643 12.205 3.07043 14.6475C3.03093 14.8265 3.10643 15.0115 3.25993 15.112L8.24993 18.377C7.78443 19.583 7.72343 21.0885 8.08993 22.575C8.13943 22.7765 8.31993 22.911 8.51843 22.911C8.55343 22.911 8.58893 22.907 8.62443 22.898C8.86143 22.8395 9.00593 22.6005 8.94743 22.3635C8.59243 20.922 8.68443 19.478 9.20043 18.4015C9.37293 18.0415 9.52693 17.8565 9.89893 17.4095C10.3229 16.8995 11.0329 16.046 12.3034 14.2565C12.8679 13.4615 13.2549 12.888 13.4869 12.5035C13.7059 12.1405 13.9784 11.689 13.6214 11.392C13.3114 11.135 12.9699 11.3995 12.8574 11.486C12.7324 11.5825 12.5674 11.7275 12.3579 11.911C12.1819 12.0655 11.9819 12.2405 11.7449 12.442C11.1024 12.9865 10.4364 13.508 9.76593 13.991C9.56793 14.1335 9.52293 14.4095 9.66543 14.6075C9.80793 14.8055 10.0839 14.8505 10.2819 14.708C10.7334 14.383 11.1829 14.041 11.6244 13.6865C11.6109 13.7055 11.5969 13.725 11.5829 13.745C10.3319 15.507 9.66293 16.312 9.21993 16.8445C8.97493 17.139 8.79993 17.3495 8.64843 17.582L4.00143 14.541C4.51193 12.43 5.43193 10.783 6.73693 9.643C8.06143 8.487 9.70943 7.9275 12.9929 6.814C13.7279 6.5645 14.3199 6.383 14.8419 6.2225C16.2534 5.789 17.0309 5.55 17.9419 4.7585C19.0319 3.812 19.8134 2.5095 20.2679 0.8835H27.7314C28.1859 2.5095 28.9674 3.812 30.0574 4.7585C30.9684 5.55 31.7459 5.7885 33.1574 6.2225C33.6794 6.383 34.2714 6.565 35.0064 6.814C38.2899 7.928 39.9379 8.487 41.2619 9.643C42.5674 10.783 43.4869 12.4295 43.9974 14.541L39.3504 17.582C39.1989 17.3495 39.0239 17.139 38.7789 16.8445C38.3359 16.312 37.6664 15.507 36.4159 13.745C36.4019 13.7255 36.3884 13.706 36.3744 13.6865C36.8159 14.041 37.2654 14.383 37.7169 14.708C37.9149 14.8505 38.1909 14.8055 38.3334 14.6075C38.4759 14.4095 38.4309 14.1335 38.2329 13.991C37.5619 13.508 36.8959 12.9865 36.2539 12.442C36.0164 12.2405 35.8169 12.0655 35.6404 11.911C35.4314 11.7275 35.2659 11.5825 35.1409 11.486C35.0284 11.399 34.6869 11.1345 34.3769 11.392C34.0199 11.6885 34.2924 12.14 34.5114 12.503C34.7434 12.8875 35.1304 13.4605 35.6949 14.256C36.9654 16.0455 37.6749 16.899 38.0994 17.409C38.4714 17.8565 38.6254 18.0415 38.7979 18.4015C39.8129 20.518 39.1449 23.704 37.2769 25.6545C36.7119 26.2445 36.0524 26.7195 35.3404 27.077C35.2774 27.092 35.2189 27.1205 35.1679 27.1605C32.6989 28.3215 29.6504 28.099 27.7114 26.366C25.5024 24.392 25.6284 21.2715 25.6759 20.666C25.6949 20.423 25.5134 20.21 25.2704 20.191C25.0274 20.172 24.8144 20.3535 24.7954 20.5965C24.7664 20.966 24.7249 21.952 24.9669 23.118C25.3019 24.731 26.0269 26.0455 27.1229 27.0245C28.3864 28.154 30.0594 28.757 31.8939 28.7565C32.1369 28.7565 32.3824 28.746 32.6304 28.7245C33.3384 28.6635 34.0344 28.5145 34.6964 28.2875C34.5459 28.7555 34.4154 29.2305 34.3074 29.7075C34.2534 29.9455 34.4029 30.182 34.6409 30.2355C34.6739 30.243 34.7064 30.2465 34.7384 30.2465C34.9404 30.2465 35.1224 30.107 35.1689 29.902C35.3279 29.1985 35.5384 28.5 35.7939 27.8235C36.5924 27.4185 37.3149 26.892 37.9154 26.265C38.9489 25.1855 39.6869 23.741 39.9929 22.1965C40.2659 20.821 40.1769 19.4815 39.7479 18.3765L44.7389 15.111C44.8924 15.0105 44.9679 14.826 44.9284 14.6465L44.9294 14.6475Z" fill="black"/>
<path d="M32.6499 21.0025H32.8679C33.0984 21.0025 33.2854 21.1895 33.2854 21.42V22.5265C33.2854 22.757 33.0984 22.944 32.8679 22.944H32.6499C32.4194 22.944 32.2324 22.757 32.2324 22.5265V21.42C32.2324 21.1895 32.4194 21.0025 32.6499 21.0025Z" fill="black"/>
<path d="M24.99 11.7005C25.0675 11.755 25.156 11.781 25.244 11.781C25.383 11.781 25.5195 11.7155 25.6055 11.5935C25.9845 11.055 26.444 10.647 26.9705 10.381C27.4395 10.144 27.8225 10.0895 28.5175 9.9905C28.62 9.976 28.728 9.9605 28.8425 9.9435C29.801 9.8025 30.785 9.619 31.768 9.3985C32.006 9.345 32.1555 9.109 32.1025 8.871C32.049 8.633 31.8125 8.4835 31.575 8.5365C30.6135 8.7525 29.651 8.9315 28.7145 9.0695C28.6015 9.086 28.4945 9.1015 28.3935 9.116C27.6575 9.221 27.1715 9.29 26.5725 9.5925C25.9155 9.9245 25.347 10.4265 24.8835 11.085C24.743 11.2845 24.791 11.56 24.9905 11.7005H24.99Z" fill="black"/>
<path d="M34.4364 33.0125C34.6974 33.0125 34.9094 32.8005 34.9094 32.5395C34.9094 32.2785 34.6974 32.0665 34.4364 32.0665C34.1754 32.0665 33.9634 32.2785 33.9634 32.5395C33.9634 32.8005 34.1754 33.0125 34.4364 33.0125Z" fill="black"/>
<path d="M9.894 24.767C9.894 24.506 9.682 24.294 9.421 24.294C9.16 24.294 8.948 24.506 8.948 24.767C8.948 25.028 9.16 25.24 9.421 25.24C9.682 25.24 9.894 25.028 9.894 24.767Z" fill="black"/>
</svg>
