<svg width="48" height="48" viewBox="0 0 48 48" fill="none" xmlns="http://www.w3.org/2000/svg">
<g clip-path="url(#clip0_486_182)">
<path d="M47.294 29.2295L45.2065 17.0095C45.069 14.9335 44.427 13.2425 43.298 11.9845C42.057 10.6015 40.6625 10.19 38.1315 9.444C37.319 9.2045 36.398 8.933 35.3195 8.5815C33.3895 7.9525 31.459 7.2295 29.577 6.43L29.6115 0.444004C29.612 0.326504 29.566 0.213504 29.483 0.130504C29.4 0.0475035 29.2875 0.00050354 29.17 0.00050354H18.8295C18.712 0.00050354 18.5995 0.0475035 18.5165 0.130504C18.4335 0.214004 18.3875 0.326504 18.388 0.444004L18.4225 6.43C16.8555 7.0955 15.2525 7.709 13.6535 8.256C13.423 8.335 13.3 8.5855 13.379 8.816C13.458 9.0465 13.7085 9.1695 13.939 9.0905C15.6505 8.505 17.3665 7.844 19.0395 7.1255C19.2025 7.0555 19.3075 6.895 19.3065 6.7175L19.273 0.882003H28.726L28.6925 6.7175C28.6915 6.8945 28.7965 7.0555 28.9595 7.1255C30.951 7.981 32.9985 8.7525 35.0455 9.4195C36.1355 9.775 37.063 10.048 37.8815 10.2895C40.3355 11.013 41.567 11.376 42.641 12.573C43.6385 13.685 44.206 15.2045 44.3275 17.089C44.3285 17.1045 44.3305 17.1195 44.333 17.135L46.4175 29.3375C46.4 30.3565 46.3425 31.3865 46.246 32.3985C45.861 36.43 44.844 40.4165 43.221 44.254L40.128 43.103C39.9435 40.9935 39.952 38.8585 40.153 36.752C40.367 34.512 40.8015 32.283 41.4435 30.1265C41.4695 30.0385 41.468 29.945 41.4385 29.8585L38.1275 20.1425C38.0665 19.9635 37.8985 19.8435 37.71 19.8435C37.7075 19.8435 37.705 19.8435 37.702 19.8435C37.5105 19.847 37.343 19.9735 37.2875 20.157C37.0785 20.848 36.887 21.5435 36.711 22.242C36.6985 22.241 36.686 22.24 36.673 22.24H28.865V20.1685C28.865 19.1005 27.996 18.2315 26.928 18.2315C25.86 18.2315 24.991 19.1005 24.991 20.1685V22.24H24C23.987 22.24 23.974 22.241 23.961 22.242C23.948 22.241 23.935 22.24 23.922 22.24H22.931V20.1685C22.931 19.1005 22.062 18.2315 20.994 18.2315C19.926 18.2315 19.057 19.1005 19.057 20.1685V22.24H11.2885C11.113 21.542 10.9215 20.8475 10.7125 20.157C10.657 19.9735 10.4895 19.847 10.298 19.8435C10.2955 19.8435 10.293 19.8435 10.29 19.8435C10.1015 19.8435 9.93353 19.9635 9.87253 20.1425L6.56153 29.8585C6.53203 29.945 6.53003 30.039 6.55653 30.1265C7.19903 32.283 7.63303 34.5125 7.84703 36.752C8.04853 38.8585 8.05653 40.994 7.87203 43.103L4.77903 44.254C3.15653 40.4165 2.13903 36.43 1.75403 32.3985C1.65753 31.386 1.59953 30.356 1.58253 29.3375L3.66703 17.135C3.66953 17.12 3.67153 17.1045 3.67253 17.089C3.79403 15.2045 4.36103 13.685 5.35903 12.573C6.25103 11.5785 7.25253 11.153 9.16053 10.5745C9.39353 10.504 9.52553 10.2575 9.45453 10.0245C9.38403 9.7915 9.13753 9.6595 8.90453 9.7305C7.15103 10.262 5.82303 10.735 4.70203 11.984C3.57303 13.2425 2.93103 14.933 2.79353 17.009L0.706026 29.229C0.701526 29.256 0.699526 29.283 0.700026 29.3105C0.717026 30.366 0.776026 31.433 0.876026 32.4825C1.28253 36.7415 2.37903 40.9495 4.13453 44.99C4.22803 45.205 4.47303 45.3095 4.69303 45.2275L8.44003 43.8335C8.59853 43.7745 8.70903 43.6305 8.72553 43.462C8.94103 41.208 8.94103 38.9225 8.72553 36.6685C8.51053 34.419 8.07903 32.1795 7.44203 30.0105L10.253 21.762C10.7805 23.7255 11.172 25.718 11.421 27.703C11.5265 28.5445 11.6015 29.3475 11.645 30.424V36.991C11.645 37.023 11.647 37.055 11.6505 37.086C11.635 37.9685 11.6155 38.9455 11.5915 40.034C11.5365 42.5295 11.4705 45.0565 11.3955 47.546C11.392 47.6655 11.437 47.781 11.52 47.8665C11.603 47.952 11.7175 48.0005 11.8365 48.0005H36.1625C36.282 48.0005 36.396 47.952 36.479 47.8665C36.562 47.781 36.607 47.6655 36.6035 47.546C36.5285 45.0565 36.4625 42.529 36.4075 40.034C36.2305 31.994 36.2915 29.9945 36.5785 27.703C36.8275 25.718 37.219 23.7255 37.7465 21.762L40.5575 30.0105C39.921 32.1795 39.489 34.419 39.274 36.6685C39.0585 38.922 39.0585 41.208 39.274 43.462C39.29 43.63 39.401 43.7745 39.5595 43.8335L43.3065 45.2275C43.526 45.309 43.7715 45.205 43.865 44.99C45.6205 40.9495 46.717 36.7415 47.1235 32.4825C47.2235 31.4335 47.283 30.3665 47.2995 29.3105C47.2995 29.2835 47.298 29.256 47.2935 29.229L47.294 29.2295ZM23.922 23.122C23.935 23.122 23.948 23.121 23.961 23.12C23.974 23.121 23.987 23.122 24 23.122H24.991V38.0115H24C23.987 38.0115 23.974 38.0125 23.961 38.0135C23.948 38.0125 23.935 38.0115 23.922 38.0115H22.931V23.122H23.922ZM19.939 20.1685C19.939 19.587 20.412 19.114 20.9935 19.114C21.575 19.114 22.048 19.587 22.048 20.1685V38.0115H19.9385V20.1685H19.939ZM19.057 23.122V38.0115H19.0465C18.6175 38.013 18.217 38.1005 17.8565 38.272C17.411 38.484 17.158 38.759 16.8655 39.0775C16.8005 39.1485 16.7315 39.223 16.656 39.3025C16.45 39.518 15.8235 40.1745 15.446 40.3705C14.6655 40.7765 13.256 39.933 12.49 39.335C12.501 38.813 12.511 38.3185 12.52 37.8485H15.146C15.619 37.8485 16.004 37.4635 16.004 36.9905V29.269C16.004 27.339 14.434 25.769 12.504 25.769C12.3375 25.769 12.1825 25.8175 12.051 25.9C11.898 24.9725 11.7145 24.0455 11.502 23.1225H19.058L19.057 23.122ZM12.5275 30.404V26.651C13.96 26.664 15.121 27.8335 15.121 29.2685V36.966H12.5355C12.589 33.8005 12.586 31.8585 12.528 30.404H12.5275ZM12.2915 47.1175C12.3575 44.8905 12.416 42.637 12.466 40.406C13.1145 40.8405 14.075 41.357 14.9725 41.357C15.278 41.357 15.5765 41.297 15.853 41.1535C16.3 40.921 16.8325 40.3955 17.294 39.912C17.3735 39.8285 17.4465 39.7495 17.515 39.675C17.7735 39.3935 17.9445 39.2075 18.235 39.0695C18.4775 38.954 18.751 38.8955 19.0475 38.8945H23.922C23.935 38.8945 23.948 38.8935 23.961 38.8925C23.974 38.8935 23.987 38.8945 24 38.8945H28.873C29.171 38.8955 29.4445 38.9545 29.687 39.0695C29.978 39.2075 30.1485 39.3935 30.407 39.675C30.4755 39.7495 30.5485 39.8285 30.628 39.912C31.0895 40.3955 31.622 40.921 32.069 41.1535C32.3455 41.297 32.6435 41.357 32.9495 41.357C33.883 41.357 34.8845 40.798 35.5325 40.354C35.583 42.602 35.6415 44.8735 35.7085 47.1175H12.2915ZM35.942 25.9485C35.797 25.8365 35.6155 25.769 35.4185 25.769C33.4885 25.769 31.9185 27.339 31.9185 29.269V36.9905C31.9185 37.4635 32.3035 37.8485 32.7765 37.8485H35.4185C35.4395 37.8485 35.46 37.847 35.4805 37.8455C35.489 38.2985 35.4985 38.7735 35.509 39.2745C34.764 39.874 33.2835 40.7905 32.476 40.371C32.0985 40.1745 31.472 39.5185 31.266 39.303C31.1905 39.224 31.1215 39.149 31.0565 39.078C30.764 38.7595 30.511 38.4845 30.0655 38.2725C29.7045 38.101 29.3045 38.0135 28.874 38.012H28.865V32.742C28.865 32.4985 28.6675 32.301 28.424 32.301C28.1805 32.301 27.983 32.4985 27.983 32.742V38.012H25.8735V20.169C25.8735 19.5875 26.3465 19.1145 26.928 19.1145C27.5095 19.1145 27.9825 19.5875 27.9825 20.169V28.269C27.9825 28.5125 28.18 28.71 28.4235 28.71C28.667 28.71 28.8645 28.5125 28.8645 28.269V23.1225H36.4985C36.282 24.0615 36.096 25.005 35.9415 25.949L35.942 25.9485ZM35.3945 26.6515V36.9665H32.801V29.269C32.801 27.8335 33.962 26.6645 35.3945 26.6515Z" fill="black"/>
<path d="M11.3829 9.95751C11.6449 9.95751 11.8569 9.74551 11.8569 9.48351C11.8569 9.22151 11.6449 9.00951 11.3829 9.00951C11.1209 9.00951 10.9089 9.22201 10.9089 9.48351C10.9089 9.74501 11.1209 9.95751 11.3829 9.95751Z" fill="black"/>
<path d="M28.424 30.087C28.162 30.087 27.95 30.299 27.95 30.561C27.95 30.823 28.162 31.035 28.424 31.035C28.686 31.035 28.898 30.8225 28.898 30.561C28.898 30.2995 28.686 30.087 28.424 30.087Z" fill="black"/>
</g>
<defs>
<clipPath id="clip0_486_182">
<rect width="48" height="48" fill="white"/>
</clipPath>
</defs>
</svg>
