<svg width="48" height="48" viewBox="0 0 48 48" fill="none" xmlns="http://www.w3.org/2000/svg">
<g clip-path="url(#clip0_486_191)">
<path d="M28.998 34.5375C28.8155 34.219 28.608 33.706 28.6575 33.0685C28.721 32.2525 29.1785 31.6835 29.4845 31.389C30.0135 31.637 30.5365 31.7225 31.0035 31.7225C31.913 31.7225 32.6115 31.402 32.728 31.345C32.9525 31.2355 33.046 30.9645 32.9365 30.7395C32.827 30.515 32.556 30.4215 32.331 30.531C32.274 30.559 30.922 31.202 29.6505 30.455C28.6955 29.8935 28.412 28.9265 28.348 28.643C28.293 28.399 28.0505 28.246 27.8065 28.3015C27.5625 28.3565 27.4095 28.599 27.465 28.843C27.5375 29.163 27.824 30.1475 28.706 30.8915C28.313 31.316 27.83 32.0255 27.7545 32.9985C27.687 33.866 27.966 34.5595 28.2125 34.9885C28.296 35.1345 28.4485 35.216 28.6055 35.216C28.682 35.216 28.7595 35.1965 28.8305 35.156C29.0475 35.0315 29.1225 34.755 28.998 34.538V34.5375Z" fill="black"/>
<path d="M32.7775 22.567C32.429 22.1495 32.173 21.6475 32.037 21.115C31.975 20.873 31.7285 20.7265 31.486 20.7885C31.244 20.8505 31.0975 21.097 31.1595 21.3395C31.3285 22.0015 31.6475 22.6265 32.082 23.147C32.3245 23.4375 32.6005 23.694 32.905 23.9155C32.8775 23.952 32.85 23.9895 32.824 24.027C31.954 25.2675 32.087 26.6105 32.1845 27.1305C32.2255 27.348 32.4155 27.5 32.629 27.5C32.6565 27.5 32.6845 27.4975 32.713 27.492C32.959 27.446 33.1205 27.2095 33.0745 26.9635C33.015 26.6455 32.8745 25.532 33.5655 24.5465C33.668 24.4 33.783 24.2645 33.9085 24.1405C33.9105 24.1385 33.912 24.137 33.914 24.135C34.599 23.46 35.598 23.123 36.636 23.24C36.884 23.2675 37.1085 23.0895 37.1365 22.841C37.1645 22.5925 36.986 22.3685 36.7375 22.3405C35.55 22.2065 34.3985 22.5485 33.54 23.2555C33.2545 23.0625 32.9985 22.832 32.7775 22.567Z" fill="black"/>
<path d="M37.8604 11.686C37.8604 11.686 37.8639 11.6825 37.8659 11.6805C38.5509 11.0055 39.5499 10.6685 40.5879 10.7855C40.8364 10.813 41.0604 10.635 41.0884 10.3865C41.1164 10.138 40.9379 9.91399 40.6894 9.88599C39.5019 9.75199 38.3504 10.094 37.4919 10.801C37.2064 10.608 36.9504 10.3775 36.7294 10.1125C36.3809 9.69499 36.1249 9.19299 35.9889 8.66049C35.9269 8.41799 35.6804 8.27199 35.4379 8.33399C35.1959 8.39599 35.0494 8.64249 35.1114 8.88499C35.2809 9.54699 35.5994 10.172 36.0339 10.6925C36.2764 10.983 36.5524 11.2395 36.8569 11.461C36.8294 11.4975 36.8019 11.535 36.7754 11.5725C35.9054 12.813 36.0384 14.156 36.1359 14.676C36.1769 14.8935 36.3669 15.0455 36.5804 15.0455C36.6079 15.0455 36.6359 15.043 36.6644 15.0375C36.9104 14.9915 37.0719 14.755 37.0259 14.509C36.9664 14.191 36.8259 13.0775 37.5169 12.092C37.6194 11.9455 37.7344 11.81 37.8599 11.686H37.8604Z" fill="black"/>
<path d="M26.8874 17.1695C26.7954 17.402 26.9089 17.665 27.1414 17.757C27.1964 17.7785 27.2524 17.789 27.3084 17.789C27.4884 17.789 27.6589 17.6805 27.7294 17.503C27.7849 17.3635 28.3094 16.1285 29.6439 15.794C30.6524 15.541 31.7599 15.906 32.4654 16.7235C32.6289 16.9125 32.9149 16.9335 33.1039 16.7705C33.2929 16.607 33.3139 16.321 33.1504 16.132C32.4644 15.3375 31.4849 14.87 30.4804 14.8165C30.3979 14.256 30.2109 13.711 29.9289 13.22C29.5929 12.6345 29.1199 12.1235 28.5614 11.7415C28.3549 11.6005 28.0734 11.653 27.9324 11.8595C27.7914 12.066 27.8444 12.3475 28.0504 12.4885C28.4969 12.794 28.8749 13.2025 29.1439 13.6705C29.3934 14.105 29.5164 14.53 29.5744 14.882C29.5239 14.8925 29.4734 14.9035 29.4234 14.916C27.6509 15.36 26.9604 16.9855 26.8874 17.1695Z" fill="black"/>
<path d="M45.3445 8.8645C44.764 8.3295 44.0985 7.8885 43.363 7.55C43.341 7.388 43.313 7.227 43.279 7.066C43.004 5.7615 42.36 4.592 41.417 3.684C39.7075 2.0385 37.144 1.4355 34.886 2.1475C33.2425 2.666 32.1845 3.7335 31.6005 4.504C31.303 4.3325 30.99 4.1875 30.663 4.0715C29.369 3.613 27.926 3.642 26.5995 4.1535C25.4535 4.5955 24.459 5.3755 23.7465 6.38C23.1095 5.7235 22.1875 4.8985 20.978 4.1215C18.7925 2.718 16.437 1.9595 13.976 1.8675C11.33 1.7675 8.55396 2.5005 6.15846 3.9285C3.82496 5.32 1.98646 7.278 0.981464 9.442C-1.04704 13.812 0.0714642 19.4715 4.30546 26.2635C7.63196 31.5995 11.975 36.1325 13.61 37.839C16.5685 40.927 19.888 43.693 23.4755 46.06C23.477 46.061 23.478 46.0615 23.4795 46.062C23.496 46.073 23.5135 46.0825 23.5315 46.091C23.5345 46.0925 23.538 46.094 23.541 46.095C23.5565 46.102 23.573 46.108 23.5895 46.113C23.593 46.114 23.5965 46.1155 23.6 46.1165C23.6175 46.1215 23.636 46.1255 23.6545 46.1285C23.6595 46.1295 23.665 46.13 23.67 46.1305C23.6765 46.1315 23.683 46.1325 23.69 46.133C23.771 46.139 23.903 46.1465 24.076 46.1465C24.375 46.1465 24.7975 46.1245 25.2915 46.037C25.5375 45.9935 25.702 45.7585 25.6585 45.5125C25.615 45.2665 25.38 45.102 25.134 45.1455C24.755 45.2125 24.425 45.235 24.179 45.24C24.1935 39.0215 24.2075 34.0805 24.222 29.298C24.2275 27.3785 24.2335 25.433 24.239 23.39C24.6725 23.21 25.71 22.8875 26.6055 23.441C27.0915 23.7415 27.356 24.182 27.492 24.4985C27.5655 24.67 27.7325 24.7725 27.908 24.7725C27.9675 24.7725 28.0285 24.7605 28.0865 24.7355C28.316 24.6365 28.4225 24.3705 28.3235 24.141C28.136 23.705 27.7685 23.0955 27.0815 22.671C26.0445 22.03 24.9255 22.208 24.242 22.426C24.25 19.5325 24.258 16.427 24.266 12.9125C24.2665 12.6625 24.0645 12.4595 23.8145 12.459H23.8135C23.564 12.459 23.3615 12.661 23.361 12.9105C23.3465 19.338 23.3315 24.4 23.317 29.295C23.3035 33.973 23.289 38.8045 23.275 44.8335C20.0115 42.6105 16.983 40.0495 14.2645 37.2115C0.246963 22.5825 -0.249036 14.2435 1.80346 9.824C3.75646 5.618 8.97546 2.5865 13.942 2.773C18.826 2.956 22.083 5.8955 23.3595 7.2895V8.508C23.3595 8.758 23.562 8.9605 23.812 8.9605C24.062 8.9605 24.2645 8.758 24.2645 8.508V7.241C25.5365 5.1325 28.135 4.1375 30.3605 4.9255C30.7535 5.065 31.1235 5.2545 31.465 5.4885C31.4675 5.49 31.4695 5.492 31.472 5.494C31.473 5.4945 31.474 5.4955 31.4755 5.496C31.9775 5.8415 32.417 6.284 32.7755 6.81C32.9165 7.0165 33.198 7.07 33.4045 6.929C33.611 6.788 33.6645 6.5065 33.5235 6.3C33.1885 5.8085 32.792 5.379 32.3465 5.018C32.857 4.3525 33.7655 3.4505 35.157 3.0115C37.1035 2.3975 39.3135 2.9175 40.7875 4.3365C41.7675 5.2795 42.35 6.5235 42.4895 7.84C42.488 7.881 42.4915 7.9215 42.5005 7.9605C42.576 8.8475 42.451 9.7645 42.11 10.6425C42.0195 10.8755 42.135 11.138 42.368 11.2285C42.422 11.2495 42.4775 11.2595 42.532 11.2595C42.7135 11.2595 42.8845 11.15 42.954 10.9705C43.2515 10.2045 43.408 9.4015 43.4225 8.595C43.8985 8.8565 44.337 9.1685 44.7295 9.53C46.835 11.47 47.649 14.767 46.709 17.547C46.1615 19.1655 45.138 20.2925 44.251 21.0145C43.9775 20.545 43.6375 20.1085 43.237 19.7175C42.149 18.656 40.7145 18.0345 39.1975 17.9675C38.947 17.9565 38.7365 18.15 38.7255 18.4C38.7145 18.6495 38.908 18.861 39.158 18.872C41.807 18.989 43.9935 21.0995 44.136 23.677C44.24 25.5595 43.239 27.3485 41.595 28.323C41.5955 28.059 41.58 27.8275 41.5595 27.64C41.532 27.3915 41.3085 27.2125 41.06 27.2395C40.8115 27.267 40.632 27.4905 40.6595 27.739C40.7335 28.41 40.7365 29.732 39.926 31.043C39.3065 32.0455 38.475 32.616 37.887 32.918C37.887 32.918 37.8865 32.918 37.886 32.918C37.873 32.9245 37.8605 32.932 37.8485 32.9395C37.848 32.9395 37.847 32.94 37.8465 32.9405C37.8345 32.9485 37.823 32.9565 37.812 32.9655C37.8115 32.966 37.8105 32.9665 37.81 32.967C37.8025 32.973 37.795 32.98 37.788 32.9865C37.753 33.0185 37.7235 33.0555 37.701 33.0955C37.7 33.097 37.699 33.0985 37.698 33.1C37.6935 33.108 37.6895 33.1165 37.686 33.1245C37.6835 33.1295 37.681 33.134 37.679 33.1395C37.6765 33.1445 37.675 33.15 37.673 33.1555C37.6695 33.164 37.6665 33.172 37.6635 33.1805C37.663 33.1825 37.6625 33.1845 37.662 33.1865C37.649 33.2295 37.642 33.2745 37.642 33.3205C37.642 33.3315 37.642 33.3425 37.643 33.3535C37.643 33.3535 37.643 33.3535 37.643 33.354C37.644 33.369 37.646 33.3835 37.6485 33.3985C37.6485 33.3985 37.6485 33.3985 37.6485 33.399C37.651 33.4135 37.6545 33.4285 37.6585 33.443V33.4435C37.9455 34.4455 37.785 35.436 37.259 35.909C36.91 36.2225 36.358 36.3635 35.7435 36.296C34.8145 36.194 33.9305 35.6435 33.3185 34.7855C33.1735 34.582 32.8905 34.5345 32.687 34.68C32.4835 34.825 32.436 35.108 32.5815 35.3115C33.1645 36.1285 33.9555 36.7225 34.826 37.0145C34.7595 37.625 34.514 38.6735 33.6455 39.566C32.5465 40.6955 31.17 40.846 30.567 40.852C30.782 39.69 30.649 38.755 30.6025 38.494C30.5585 38.248 30.3235 38.084 30.0775 38.128C29.8315 38.172 29.6675 38.407 29.7115 38.653C29.7775 39.022 30.045 40.9525 28.855 42.7505C28.717 42.959 28.774 43.24 28.9825 43.378C29.0595 43.429 29.146 43.4535 29.232 43.4535C29.379 43.4535 29.523 43.382 29.61 43.2505C29.9405 42.751 30.173 42.243 30.336 41.753C30.3415 41.753 30.3465 41.754 30.352 41.7545C30.398 41.7565 30.454 41.7575 30.518 41.7575C31.2175 41.7575 32.9305 41.5995 34.295 40.1975C35.3055 39.1595 35.6205 37.9505 35.716 37.202C35.824 37.212 35.9315 37.218 36.037 37.218C36.755 37.218 37.407 36.9945 37.865 36.583C38.5855 35.9355 38.866 34.7715 38.616 33.5485C39.268 33.164 40.0725 32.5275 40.6965 31.518C41.15 30.784 41.387 30.048 41.5015 29.3935C43.759 28.3465 45.1745 26.0535 45.0405 23.626C45.0065 23.014 44.875 22.416 44.655 21.8495C45.6785 21.054 46.918 19.7565 47.5675 17.8355C48.6185 14.727 47.7045 11.037 45.344 8.8625L45.3445 8.8645Z" fill="black"/>
<path d="M27.3085 44.0885C27.04 44.0885 26.822 44.3065 26.822 44.575C26.822 44.8435 27.04 45.0615 27.3085 45.0615C27.577 45.0615 27.795 44.8435 27.795 44.575C27.795 44.3065 27.577 44.0885 27.3085 44.0885Z" fill="black"/>
<path d="M23.725 9.82349C23.4565 9.82349 23.2385 10.0415 23.2385 10.31C23.2385 10.5785 23.4565 10.7965 23.725 10.7965C23.9935 10.7965 24.2115 10.5785 24.2115 10.31C24.2115 10.0415 23.9935 9.82349 23.725 9.82349Z" fill="black"/>
</g>
<defs>
<clipPath id="clip0_486_191">
<rect width="48" height="48" fill="white"/>
</clipPath>
</defs>
</svg>
