<svg width="48" height="48" viewBox="0 0 48 48" fill="none" xmlns="http://www.w3.org/2000/svg">
<g clip-path="url(#clip0_486_186)">
<path d="M46.7541 35.3905C46.5036 34.5845 46.1836 33.944 45.9171 33.4945C46.3301 32.8405 46.6556 32.089 46.8321 31.2275C47.5011 27.9675 45.5661 25.264 44.7976 24.345C45.0936 23.702 45.2791 23.106 45.3856 22.7C45.4516 22.4485 45.3011 22.1915 45.0496 22.1255C44.7981 22.0595 44.5411 22.21 44.4751 22.4615C44.3266 23.028 43.8806 24.461 42.9496 25.5245C40.3411 28.504 34.0711 28.536 27.6316 25.6255V23.095C28.5776 23.4655 30.4331 24.1375 32.5026 24.5965C33.9726 24.9225 35.2846 25.085 36.4336 25.085C38.2776 25.085 39.7036 24.666 40.6926 23.8295C41.8306 22.8675 42.2446 21.666 42.2616 21.6155C42.9911 19.4495 41.8716 17.366 41.1866 16.3685C42.0086 15.82 42.5911 15.177 42.9176 14.453C43.5351 15.4225 44.3361 16.9725 44.6346 18.8385C44.6716 19.07 44.8716 19.235 45.0986 19.235C45.1231 19.235 45.1481 19.233 45.1736 19.229C45.4301 19.188 45.6051 18.9465 45.5641 18.69C45.1546 16.13 43.8781 14.1255 43.2351 13.249C43.2836 12.816 43.2671 12.458 43.2596 12.2965C43.1651 10.267 42.0921 8.367 40.0701 6.649C38.7911 5.562 37.4446 4.83 36.7401 4.484C36.7306 4.4335 36.7196 4.383 36.7056 4.3325C36.4771 3.512 35.6366 2.83 34.7921 2.7805C33.9101 2.7275 33.3511 3.3525 32.7596 4.013C32.2801 4.5485 31.7366 5.155 30.8936 5.632C30.1941 6.0275 29.4016 6.2685 28.5366 6.349L28.1646 5.411C28.0796 5.1965 27.8531 5.0775 27.6311 5.124V4.291C27.6311 4.031 27.4206 3.8205 27.1606 3.8205C26.9006 3.8205 26.6901 4.031 26.6901 4.291V5.373C25.8081 5.5715 24.9071 5.672 24.0001 5.672H23.9871C23.0846 5.671 22.1881 5.5705 21.3101 5.373V0.940996H26.6901V1.547C26.6901 1.807 26.9006 2.0175 27.1606 2.0175C27.4206 2.0175 27.6311 1.807 27.6311 1.547V0.914996C27.6311 0.410496 27.2206 -0.00050354 26.7156 -0.00050354H21.2836C20.7791 -0.00050354 20.3681 0.409996 20.3681 0.914996V5.1225C20.1461 5.076 19.9196 5.195 19.8346 5.4095L19.4626 6.3475C18.5976 6.267 17.8051 6.026 17.1056 5.6305C16.2626 5.154 15.7191 4.547 15.2396 4.0115C14.6481 3.351 14.0891 2.727 13.2071 2.779C12.3626 2.829 11.5221 3.5105 11.2936 4.331C11.2796 4.3815 11.2686 4.432 11.2591 4.4825C10.5546 4.829 9.20809 5.561 7.92909 6.648C5.90709 8.366 4.83409 10.266 4.73959 12.2955C4.73209 12.4565 4.71559 12.8145 4.76409 13.248C3.82659 14.5265 1.46509 18.317 2.61359 22.699C2.72009 23.1055 2.90559 23.7015 3.20159 24.344C2.43259 25.263 0.498092 27.9665 1.16709 31.2265C1.34359 32.0875 1.66909 32.8395 2.08209 33.4935C1.81559 33.9435 1.49509 34.584 1.24509 35.3895C0.796092 36.8345 0.731592 38.2905 1.05259 39.718C1.35109 41.046 1.98559 42.3 2.88609 43.344C3.74709 44.342 4.83209 45.1315 6.02509 45.6275C6.10259 45.66 7.52109 46.2385 9.36459 46.2385C9.95709 46.2385 10.5941 46.1785 11.2441 46.022C13.3626 45.5105 15.2781 44.0605 16.7836 41.828C17.8451 40.254 18.6516 38.368 19.1626 36.2825C19.2781 36.6205 19.5851 36.8705 19.9546 36.9C20.0921 36.937 20.2296 36.972 20.3681 37.0055V38.196C20.2961 38.1775 20.2241 38.1585 20.1531 38.139C20.1121 38.1275 20.0711 38.122 20.0271 38.1225C19.9136 38.1225 19.6231 38.15 19.3821 38.391C19.2091 38.564 19.1136 38.794 19.1136 39.038V43.6025C19.1136 44.0825 19.4846 44.477 19.9551 44.515C20.0926 44.552 20.2301 44.587 20.3686 44.6205V47.0855C20.3686 47.59 20.7791 48.001 21.2841 48.001H26.7161C27.2206 48.001 27.6316 47.5905 27.6316 47.0855V44.6205C27.7706 44.587 27.9096 44.552 28.0476 44.5145C28.1866 44.502 28.4191 44.4485 28.6181 44.2495C28.7911 44.0765 28.8866 43.8465 28.8866 43.6025V42.583C28.8866 42.323 28.6761 42.1125 28.4161 42.1125C28.1561 42.1125 27.9456 42.323 27.9456 42.583V43.577C27.9121 43.579 27.8791 43.584 27.8471 43.593C26.5966 43.936 25.3051 44.11 24.0081 44.111H24.0006C22.7011 44.111 21.4071 43.937 20.1536 43.593C20.1216 43.584 20.0886 43.579 20.0551 43.577V39.0875C20.2821 39.1475 20.5121 39.2025 20.7406 39.2515C20.7416 39.2515 20.7426 39.2515 20.7436 39.252C20.7446 39.252 20.7451 39.252 20.7461 39.2525C21.8111 39.4815 22.9031 39.5975 23.9921 39.5985H24.0001C25.0936 39.5985 26.1836 39.4825 27.2516 39.253C27.2556 39.252 27.2591 39.2515 27.2631 39.2505C27.4916 39.2015 27.7191 39.147 27.9451 39.0875V40.2005C27.9451 40.4605 28.1556 40.671 28.4156 40.671C28.6756 40.671 28.8861 40.4605 28.8861 40.2005V39.0375C28.8861 38.533 28.4756 38.122 27.9706 38.122C27.9286 38.122 27.8866 38.1275 27.8461 38.1385C27.7746 38.158 27.7026 38.177 27.6306 38.1955V37.005C27.7696 36.9715 27.9086 36.9365 28.0466 36.899C28.1856 36.8865 28.4181 36.833 28.6171 36.634C28.7176 36.5335 28.7911 36.413 28.8356 36.2825C29.3471 38.3675 30.1531 40.2535 31.2146 41.8275C32.7206 44.06 34.6361 45.5105 36.7541 46.0215C37.4041 46.1785 38.0406 46.238 38.6336 46.238C40.4771 46.238 41.8951 45.6595 41.9731 45.627C43.1656 45.131 44.2511 44.341 45.1121 43.3435C46.0131 42.2995 46.6471 41.0455 46.9456 39.7175C47.2666 38.29 47.2021 36.834 46.7531 35.389L46.7541 35.3905ZM24.0006 45.052H24.0081C24.9081 45.052 25.8056 44.972 26.6901 44.816V47.059H21.3101V44.816C22.1976 44.9725 23.0976 45.052 24.0006 45.052ZM43.6576 26.144C43.9071 25.859 44.1251 25.5555 44.3151 25.2475C45.0906 26.261 46.4376 28.467 45.9101 31.0385C45.7406 31.8635 45.4101 32.576 44.9901 33.188C44.9761 33.2055 44.9636 33.2235 44.9526 33.2425C43.7281 34.988 41.7786 35.9035 40.8121 36.271C39.9031 36.6165 38.9271 36.7835 37.9056 36.7835C36.6636 36.7835 35.3551 36.5355 34.0241 36.0605C33.9941 36.046 33.9626 36.0345 33.9301 36.027C32.3411 35.4475 30.7201 34.5445 29.1406 33.3525C29.1321 33.3455 29.1236 33.3395 29.1146 33.333C28.9821 33.2325 28.8496 33.13 28.7171 33.025C28.7141 33.0225 28.7111 33.02 28.7081 33.018C27.3446 31.9375 26.0166 30.6415 24.7721 29.1515L27.1391 27.3655C27.2256 27.3005 27.3011 27.2265 27.3661 27.146C28.7856 29.2815 32.5121 34.0975 37.2386 34.0975C37.4606 34.0975 37.6846 34.087 37.9106 34.065C39.2111 33.9385 42.3326 33.379 43.2336 30.9235C43.7991 29.382 43.2111 27.841 42.7566 26.986C43.0871 26.732 43.3881 26.4515 43.6571 26.144H43.6576ZM42.1476 39.2045C41.6726 40.3605 40.5941 41.6955 39.3486 41.893C39.2326 41.9115 39.1141 41.9205 38.9936 41.9205C37.2986 41.9205 35.2341 40.1175 34.4571 37.1905C35.6456 37.5465 36.8011 37.726 37.9051 37.726C39.0476 37.726 40.1351 37.5345 41.1466 37.15C41.4886 37.02 41.9416 36.8275 42.4446 36.5615C42.5496 37.2425 42.5611 38.196 42.1476 39.204V39.2045ZM6.03159 27.5075C7.40909 28.293 9.17709 28.709 11.2556 28.725C11.2966 28.725 11.3381 28.7255 11.3791 28.7255C13.9351 28.7255 16.7536 28.122 19.6136 26.9705C19.0716 27.7525 18.2786 28.7925 17.2871 29.8005C15.0946 32.0295 12.9046 33.156 10.7671 33.156C10.5711 33.156 10.3751 33.1465 10.1801 33.1275C9.05659 33.018 6.36659 32.553 5.64959 30.5985C5.22409 29.438 5.66059 28.229 6.03159 27.5075ZM10.4606 17.8445C12.4121 18.316 14.7856 18.5555 17.4431 18.5555C18.3846 18.5555 19.3621 18.525 20.3686 18.4645V22.079C19.2476 22.5325 15.0161 24.144 11.5541 24.144C10.1151 24.144 8.80909 23.8655 7.91459 23.1095C6.98459 22.3235 6.63309 21.3225 6.63009 21.314C6.01559 19.4905 7.08659 17.626 7.63059 16.8425C8.42109 17.244 9.36709 17.5805 10.4606 17.8445ZM14.6541 8.867C15.6271 9.544 16.6921 10.0865 17.8236 10.4845L17.5316 11.2205C17.4466 11.4355 17.5296 11.68 17.7281 11.7985L20.3686 13.3705V14.239C18.3621 14.299 16.3271 14.222 14.3136 14.0085C11.4231 13.7025 8.92709 13.438 8.66859 12.6555C8.60259 12.455 8.55459 11.6655 10.7171 9.9135C11.7561 9.0715 12.8836 8.3495 13.4626 7.994C13.9106 8.3495 14.3396 8.648 14.6541 8.867ZM21.3101 26.3575V22.3925C21.3101 22.3925 21.3101 22.3895 21.3101 22.388V13.931L23.7596 15.3895C23.8336 15.4335 23.9171 15.456 24.0006 15.456C24.0841 15.456 24.1671 15.434 24.2416 15.3895L26.6911 13.931V22.387C26.6911 22.387 26.6911 22.3915 26.6911 22.3935V25.932C26.6911 25.932 26.6911 25.9345 26.6911 25.9355V26.357C26.6911 26.364 26.6916 26.371 26.6921 26.378C26.6941 26.4725 26.6546 26.552 26.5731 26.613L24.1796 28.4185C24.0746 28.498 23.9271 28.498 23.8221 28.4185L21.4291 26.613C21.3491 26.5525 21.3091 26.4745 21.3096 26.3815C21.3096 26.3735 21.3111 26.365 21.3111 26.357L21.3101 26.3575ZM30.2716 11.7985C30.4701 11.6805 30.5536 11.4355 30.4681 11.2205L30.1761 10.4845C31.3081 10.087 32.3726 9.544 33.3456 8.867C33.6601 8.648 34.0891 8.3495 34.5371 7.994C35.1166 8.3495 36.2436 9.072 37.2826 9.9135C39.4451 11.6655 39.3971 12.455 39.3311 12.6555C39.0721 13.438 36.5761 13.7025 33.6856 14.0085C31.6721 14.2215 29.6376 14.299 27.6306 14.239V13.3705L30.2706 11.7985H30.2716ZM24.0001 29.6935C24.3741 30.144 24.7561 30.579 25.1456 30.997C24.7641 31.027 24.3811 31.043 24.0001 31.043H23.9926C23.6141 31.043 23.2336 31.027 22.8546 30.997C23.2441 30.579 23.6261 30.144 24.0001 29.6935ZM36.6211 28.7255C36.6621 28.7255 36.7036 28.7255 36.7446 28.725C38.8231 28.709 40.5906 28.293 41.9686 27.5075C42.3391 28.229 42.7761 29.438 42.3506 30.5985C41.6336 32.553 38.9431 33.018 37.8201 33.1275C35.4981 33.3535 33.1071 32.234 30.7136 29.8005C29.7221 28.7925 28.9291 27.752 28.3871 26.9705C31.2471 28.1225 34.0656 28.7255 36.6216 28.7255H36.6211ZM41.3701 21.3145C41.3666 21.3245 41.0251 22.3155 40.0851 23.11C39.1906 23.866 37.8851 24.1445 36.4456 24.1445C32.9836 24.1445 28.7526 22.533 27.6311 22.0795V18.465C28.6376 18.5255 29.6146 18.556 30.5566 18.556C33.2141 18.556 35.5881 18.3165 37.5391 17.845C38.6321 17.581 39.5786 17.2445 40.3691 16.843C40.9131 17.6265 41.9841 19.4905 41.3696 21.3145H41.3701ZM42.3191 12.34C42.3296 12.5635 42.3611 13.244 42.1391 13.8705C41.8731 14.6205 41.2471 15.271 40.3146 15.8105C40.2881 15.8225 40.2621 15.8375 40.2376 15.8545C37.7781 17.2365 33.2686 17.867 27.6311 17.522V15.181C28.0701 15.194 28.5101 15.2005 28.9516 15.2005C30.5601 15.2005 32.1796 15.115 33.7851 14.945C37.5206 14.5495 39.7756 14.3105 40.2251 12.9515C40.5526 11.9615 39.7841 10.7285 37.8756 9.183C36.9351 8.421 35.9271 7.7545 35.2866 7.352C35.8806 6.7945 36.4116 6.156 36.6441 5.4915C38.2806 6.349 42.1516 8.749 42.3191 12.3405V12.34ZM31.3571 6.4505C32.3346 5.8975 32.9591 5.2005 33.4606 4.6405C34.0171 4.019 34.3271 3.6945 34.7366 3.72C35.1816 3.746 35.6776 4.1505 35.7986 4.585C35.9636 5.177 35.3771 5.928 34.8566 6.453C34.1626 7.153 33.2821 7.766 32.8086 8.095C31.8951 8.7305 30.8941 9.239 29.8291 9.6095L28.8956 7.255C29.7891 7.1395 30.6151 6.87 31.3566 6.4505H31.3571ZM20.5531 6.154C21.6721 6.457 22.8251 6.6105 23.9861 6.612H24.0001C25.1661 6.612 26.3236 6.458 27.4471 6.154L29.4456 11.195L24.0001 14.4375L21.0801 12.699L18.5546 11.195L20.5531 6.154ZM12.2016 4.5845C12.3226 4.15 12.8186 3.746 13.2636 3.7195C13.6731 3.6945 13.9826 4.0185 14.5391 4.64C15.0406 5.2 15.6651 5.897 16.6426 6.45C17.3841 6.8695 18.2101 7.139 19.1036 7.2545L18.1701 9.609C17.1051 9.23849 16.1041 8.73 15.1911 8.0945C14.7181 7.7655 13.8371 7.1525 13.1431 6.4525C12.6226 5.927 12.0361 5.1765 12.2011 4.5845H12.2016ZM5.68109 12.34C5.84859 8.7485 9.71959 6.348 11.3561 5.491C11.5886 6.1555 12.1196 6.7945 12.7136 7.3515C12.0731 7.754 11.0651 8.4205 10.1246 9.1825C8.21609 10.7285 7.44759 11.961 7.77509 12.951C8.22459 14.3105 10.4791 14.549 14.2151 14.9445C15.8211 15.1145 17.4401 15.2 19.0486 15.2C19.4896 15.2 19.9301 15.1935 20.3691 15.1805V17.5215C19.3506 17.584 18.3691 17.6145 17.4296 17.6145C13.1696 17.6145 9.77809 16.9865 7.76309 15.854C7.73809 15.8365 7.71209 15.8215 7.68509 15.8095C6.75309 15.27 6.12709 14.6195 5.86109 13.8695C5.63909 13.2425 5.67059 12.5625 5.68109 12.339V12.34ZM5.08259 14.453C5.40909 15.177 5.99159 15.8195 6.81309 16.368C6.12809 17.3655 5.00859 19.449 5.73809 21.615C5.75509 21.6655 6.16909 22.867 7.30709 23.829C8.29609 24.6655 9.72209 25.0845 11.5661 25.0845C12.7156 25.0845 14.0271 24.922 15.4971 24.596C17.5666 24.137 19.4221 23.465 20.3681 23.0945V25.625C13.9291 28.5355 7.65859 28.504 5.05009 25.5245C4.11909 24.461 3.67309 23.028 3.52459 22.4615C2.62959 19.0475 4.09809 15.9995 5.08159 14.4535L5.08259 14.453ZM3.68509 25.2475C3.87559 25.5555 4.09359 25.859 4.34259 26.144C4.61159 26.451 4.91209 26.732 5.24309 26.986C4.78859 27.841 4.20059 29.382 4.76609 30.9235C5.66709 33.3795 8.78909 33.9385 10.0891 34.065C10.3156 34.087 10.5391 34.0975 10.7611 34.0975C15.4876 34.097 19.2141 29.28 20.6336 27.1455C20.6986 27.2265 20.7741 27.3005 20.8601 27.3655L23.2271 29.151C21.9841 30.639 20.6586 31.9335 19.2971 33.013C19.2916 33.0175 19.2856 33.0215 19.2806 33.026C19.1526 33.1275 19.0241 33.2275 18.8951 33.325C18.8811 33.3345 18.8676 33.3445 18.8546 33.3555C17.2766 34.546 15.6586 35.4475 14.0711 36.0265C14.0376 36.0345 14.0056 36.046 13.9751 36.061C12.6441 36.536 11.3361 36.784 10.0936 36.784C9.07259 36.784 8.09559 36.617 7.18709 36.2715C6.22059 35.904 4.27109 34.9885 3.04659 33.243C3.03559 33.224 3.02309 33.206 3.00909 33.189C2.58909 32.577 2.25859 31.8645 2.08909 31.0395C1.56159 28.468 2.90859 26.262 3.68409 25.2485L3.68509 25.2475ZM5.55559 36.562C6.05859 36.828 6.51159 37.0205 6.85359 37.1505C7.86559 37.535 8.95259 37.7265 10.0951 37.7265C11.1991 37.7265 12.3551 37.547 13.5431 37.191C12.7661 40.1185 10.7016 41.921 9.00659 41.921C8.88609 41.921 8.76759 41.912 8.65159 41.8935C7.40559 41.6955 6.32709 40.361 5.85259 39.2045C5.43909 38.197 5.45009 37.243 5.55559 36.562ZM16.0041 41.302C14.6321 43.3365 12.9101 44.6525 11.0241 45.1075C8.64659 45.6815 6.41009 44.7685 6.38759 44.7595C4.18609 43.8435 2.49409 41.833 1.97209 39.5125C1.46259 37.248 2.17709 35.3365 2.69859 34.329C3.30759 35.0465 4.01309 35.6145 4.69309 36.056C4.51859 36.865 4.40959 38.1675 4.98259 39.5625C5.57309 41.001 6.89159 42.567 8.50509 42.8235C8.66709 42.849 8.83159 42.862 8.99859 42.862C11.2291 42.862 13.8386 40.597 14.5931 36.8345C14.9251 36.708 15.2586 36.569 15.5941 36.416C16.5841 35.9645 17.5646 35.407 18.5251 34.753C18.0831 37.2535 17.2206 39.5005 16.0046 41.303L16.0041 41.302ZM26.6901 38.4055C25.8041 38.572 24.9036 38.6565 24.0001 38.6565H23.9926C23.0941 38.6565 22.1936 38.5715 21.3101 38.4055V37.202C22.1976 37.3585 23.0976 37.438 24.0006 37.438H24.0081C24.9081 37.438 25.8056 37.358 26.6901 37.202V38.4055ZM27.8466 35.979C26.5961 36.322 25.3041 36.496 24.0076 36.497H24.0001C22.7006 36.497 21.4066 36.323 20.1531 35.979C20.1211 35.97 20.0881 35.965 20.0546 35.963V33.614C20.7236 33.074 21.3796 32.4875 22.0186 31.8565C22.6721 31.9405 23.3346 31.9835 23.9916 31.984H23.9996C24.6596 31.984 25.3246 31.941 25.9806 31.8565C26.6196 32.4875 27.2756 33.074 27.9446 33.614V35.9625C27.9111 35.9645 27.8781 35.9695 27.8461 35.9785L27.8466 35.979ZM46.0281 39.512C45.5061 41.8325 43.8141 43.843 41.6126 44.759C41.5901 44.7685 39.3536 45.681 36.9761 45.107C35.0901 44.652 33.3681 43.336 31.9961 41.3015C30.7801 39.4985 29.9176 37.2515 29.4756 34.7515C30.4361 35.4055 31.4166 35.963 32.4066 36.4145C32.7421 36.5675 33.0761 36.7065 33.4076 36.833C34.1621 40.5955 36.7716 42.8605 39.0021 42.8605C39.1691 42.8605 39.3341 42.848 39.4956 42.822C41.1091 42.566 42.4271 40.9995 43.0176 39.561C43.5906 38.166 43.4816 36.8635 43.3071 36.0545C43.9871 35.613 44.6926 35.045 45.3016 34.3275C45.8226 35.335 46.5371 37.2465 46.0281 39.511V39.512Z" fill="black"/>
<path d="M27.1606 3.49C27.4293 3.49 27.6471 3.27218 27.6471 3.0035C27.6471 2.73481 27.4293 2.517 27.1606 2.517C26.8919 2.517 26.6741 2.73481 26.6741 3.0035C26.6741 3.27218 26.8919 3.49 27.1606 3.49Z" fill="black"/>
<path d="M45.2231 20.217C44.9546 20.217 44.7366 20.435 44.7366 20.7035C44.7366 20.972 44.9546 21.19 45.2231 21.19C45.4916 21.19 45.7096 20.972 45.7096 20.7035C45.7096 20.435 45.4916 20.217 45.2231 20.217Z" fill="black"/>
<path d="M28.4059 40.8915C28.1374 40.8915 27.9194 41.1095 27.9194 41.378C27.9194 41.6465 28.1374 41.8645 28.4059 41.8645C28.6744 41.8645 28.8924 41.6465 28.8924 41.378C28.8924 41.1095 28.6744 40.8915 28.4059 40.8915Z" fill="black"/>
</g>
<defs>
<clipPath id="clip0_486_186">
<rect width="48" height="48" fill="white"/>
</clipPath>
</defs>
</svg>
