<svg width="48" height="48" viewBox="0 0 48 48" fill="none" xmlns="http://www.w3.org/2000/svg">
<g clip-path="url(#clip0_1298_2820)">
<path d="M45.3599 38.88C44.3799 37.99 42.4499 37.23 38.1699 35.6C37.8399 35.47 37.4999 35.37 37.1399 35.26C36.4599 35.06 35.7599 34.85 34.9199 34.41C33.8399 33.84 32.3699 33.06 31.7599 31.53C31.5899 31.09 31.5399 30.57 31.4599 29.42C31.3699 28.19 31.3599 26.83 31.3899 25.95C32.5499 24.33 32.9999 22.65 33.1499 21.43C34.0599 21.11 35.2099 20.49 36.0399 19.3C36.8099 18.19 36.9099 17.15 37.0699 15.42C37.1999 14 37.2999 12.97 36.5999 12.16C36.1899 11.68 35.5799 11.37 34.8399 11.25C34.9699 9.7 34.7799 8.23 34.2499 6.86C32.6899 2.72 28.3599 -0.12 23.7699 4.83822e-07C20.3199 0.0700005 16.9399 1.83 14.9499 4.6C14.8099 4.8 14.8499 5.07 15.0499 5.21C15.2499 5.35 15.5199 5.31 15.6599 5.11C17.4899 2.56 20.6099 0.94 23.7899 0.87C27.9499 0.8 32.0299 3.43 33.4499 7.14C33.9699 8.5 34.1399 9.99 33.9399 11.56C33.9199 11.68 33.9599 11.8 34.0399 11.89C34.1199 11.98 34.2299 12.04 34.3499 12.05C34.8499 12.08 35.5299 12.21 35.9499 12.71C36.3899 13.22 36.3499 13.92 36.2099 15.33C36.0499 17.02 35.9699 17.87 35.3299 18.79C34.5499 19.91 33.4299 20.43 32.6199 20.68C32.4499 20.73 32.3299 20.88 32.3099 21.05C32.1999 22.17 31.8199 23.84 30.6799 25.43C30.6199 25.48 30.5699 25.54 30.5499 25.61C29.6899 26.75 27.4799 29.11 23.9999 29.11C20.2999 29.11 17.9899 26.34 17.3599 25.5C16.1799 23.89 15.7999 22.19 15.6799 21.05C15.6599 20.88 15.5399 20.73 15.3699 20.68C14.5699 20.44 13.4399 19.91 12.6599 18.79C12.0199 17.87 11.9399 17.02 11.7799 15.33C11.6499 13.93 11.6099 13.23 12.0399 12.72C12.4599 12.23 13.1399 12.09 13.6399 12.06C13.7599 12.06 13.8699 12 13.9499 11.9C14.0299 11.8 14.0599 11.69 14.0499 11.57C13.9099 10.44 13.9599 9.34 14.1899 8.29C14.2399 8.06 14.0999 7.82 13.8599 7.77C13.6199 7.71 13.3899 7.86 13.3399 8.1C13.1099 9.11 13.0399 10.16 13.1299 11.24C12.3799 11.36 11.7799 11.67 11.3699 12.15C10.6699 12.97 10.7699 13.99 10.8999 15.41C11.0599 17.14 11.1599 18.18 11.9299 19.29C12.7699 20.49 13.9199 21.11 14.8199 21.42C15.0299 23.08 15.6399 24.63 16.5899 25.94C16.6099 26.65 16.6099 28.13 16.5199 29.41C16.4399 30.56 16.3899 31.09 16.2199 31.52C15.6099 33.05 14.1399 33.83 13.0599 34.39C12.2199 34.83 11.5199 35.04 10.8399 35.24C10.4799 35.35 10.1399 35.45 9.80992 35.58C5.52992 37.21 3.59992 37.97 2.61992 38.86C1.53992 39.85 -0.210083 42.28 0.179917 47.5C0.199917 47.73 0.389917 47.9 0.609917 47.9H33.0999C33.3399 47.9 33.5399 47.7 33.5399 47.46C33.5399 47.22 33.3399 47.02 33.0999 47.02H26.8599V36.14C26.9099 36.11 26.9699 36.1 27.0299 36.07C27.5699 35.73 27.8999 35.14 27.8999 34.5V28.98C28.9999 28.4 29.8599 27.65 30.4799 26.99C30.4799 27.76 30.5099 28.64 30.5699 29.46C30.6499 30.62 30.6999 31.25 30.9299 31.83C31.6499 33.66 33.3599 34.56 34.4899 35.16C35.4099 35.64 36.1799 35.87 36.8699 36.08C37.2099 36.18 37.5299 36.28 37.8399 36.39C41.5899 37.82 43.8499 38.68 44.7499 39.5C45.6899 40.35 47.1899 42.46 46.9299 47.02H38.4399C38.1999 47.02 37.9999 47.22 37.9999 47.46C37.9999 47.7 38.1999 47.9 38.4399 47.9H47.3299C47.5599 47.9 47.7499 47.72 47.7599 47.5C48.1599 42.29 46.3999 39.85 45.3199 38.86L45.3599 38.88ZM21.9799 38.88H26.0199V40.93H21.9799V38.88ZM21.9799 41.8H26.0199V43.64H21.9799V41.8ZM21.9799 38.01V36.36C22.2399 36.36 22.4899 36.3 22.7299 36.19L23.9999 35.58L25.2699 36.19C25.5099 36.31 25.7599 36.36 26.0199 36.37V38.01H21.9799ZM21.9799 47.04V44.52H26.0199V47.04H21.9799ZM27.0499 34.52C27.0499 34.86 26.8799 35.17 26.5899 35.35C26.2999 35.53 25.9499 35.55 25.6399 35.4L24.1799 34.69C24.0599 34.63 23.9199 34.63 23.7999 34.69L22.3399 35.4C22.0299 35.55 21.6799 35.53 21.3899 35.35C21.0999 35.17 20.9299 34.86 20.9299 34.52C20.9299 34.28 20.7299 34.08 20.4899 34.08C20.2499 34.08 20.0499 34.28 20.0499 34.52C20.0499 35.16 20.3799 35.75 20.9199 36.09C20.9699 36.12 21.0299 36.14 21.0899 36.17V47.05H1.03992C0.779917 42.48 2.27992 40.38 3.21992 39.53C4.11992 38.71 6.37992 37.85 10.1299 36.42C10.4399 36.3 10.7699 36.21 11.0999 36.11C11.7899 35.91 12.5599 35.67 13.4799 35.19C14.6099 34.59 16.3199 33.69 17.0399 31.87C17.2699 31.29 17.3099 30.66 17.3999 29.5C17.4599 28.67 17.4799 27.77 17.4799 27.03C18.0999 27.69 18.9599 28.44 20.0599 29.02V30.87C20.0599 31.11 20.2599 31.31 20.4999 31.31C20.7399 31.31 20.9399 31.11 20.9399 30.87V29.42C21.8299 29.77 22.8499 30.01 23.9899 30.01C25.1299 30.01 26.1499 29.78 27.0399 29.42V34.54L27.0499 34.52Z" fill="black"/>
<path d="M36.2401 47.13C36.0401 46.93 35.7101 46.93 35.5201 47.13C35.3301 47.33 35.3201 47.66 35.5201 47.85C35.7201 48.04 36.0501 48.05 36.2401 47.85C36.4401 47.66 36.4501 47.35 36.2601 47.15C36.2601 47.15 36.2501 47.14 36.2401 47.13Z" fill="black"/>
<path d="M20.8699 32.38C20.6699 32.18 20.3399 32.18 20.1499 32.38C19.9599 32.58 19.9499 32.91 20.1499 33.1C20.3499 33.29 20.6799 33.3 20.8699 33.1C21.0699 32.91 21.0799 32.6 20.8899 32.4C20.8899 32.4 20.8799 32.39 20.8699 32.38Z" fill="black"/>
<path d="M14.65 6.88C14.85 6.69 14.86 6.38 14.67 6.18C14.67 6.18 14.66 6.17 14.65 6.16C14.45 5.96 14.12 5.96 13.93 6.16C13.74 6.36 13.73 6.69 13.93 6.88C14.13 7.07 14.46 7.08 14.65 6.88Z" fill="black"/>
</g>
<defs>
<clipPath id="clip0_1298_2820">
<rect width="48" height="48" fill="white"/>
</clipPath>
</defs>
</svg>
