<svg width="48" height="48" viewBox="0 0 48 48" fill="none" xmlns="http://www.w3.org/2000/svg">
<g clip-path="url(#clip0_1298_2827)">
<path d="M26.15 16C25.96 16 25.76 16 25.56 15.97C24.02 15.81 22.91 15.09 22.27 14.53C20.91 15.77 19.07 16.24 17.45 15.73C16.28 15.36 15.51 14.59 15.07 13.99C14.24 14.54 12.28 15.56 9.92003 14.84C7.56003 14.12 6.51003 12.17 6.24003 11.59C6.14003 11.37 6.24003 11.11 6.46003 11C6.68003 10.89 6.94003 11 7.05003 11.22C7.28003 11.72 8.17003 13.38 10.18 13.99C12.73 14.76 14.81 13.08 14.9 13.01C15 12.93 15.13 12.89 15.26 12.92C15.39 12.94 15.5 13.02 15.56 13.13C15.86 13.63 16.53 14.52 17.71 14.89C19.14 15.34 20.8 14.84 21.94 13.62C22.02 13.53 22.14 13.48 22.26 13.48C22.38 13.48 22.49 13.53 22.57 13.61C22.96 14 24.03 14.93 25.65 15.1C27.48 15.29 28.8 14.41 29.29 14.02C29.39 13.94 29.52 13.91 29.64 13.93C30.9 14.15 34.16 14.42 37.23 12.27C39.67 10.56 40.69 8.22 41.08 6.98C41.15 6.75 41.4 6.62 41.63 6.69C41.86 6.76 41.99 7.01 41.92 7.24C41.5 8.59 40.39 11.13 37.74 12.99C34.55 15.22 31.17 15.05 29.69 14.82C29.09 15.26 27.83 15.99 26.16 15.99L26.15 16Z" fill="black"/>
<path d="M9.86993 26.52C9.76993 26.52 9.66993 26.49 9.58993 26.42C9.39993 26.27 9.36993 25.99 9.52993 25.8C9.77993 25.49 10.9899 23.88 10.4599 22.01C10.2999 21.44 9.99993 20.92 9.55993 20.47C9.39993 20.3 9.39993 20.03 9.55993 19.86C9.94993 19.46 10.4599 18.77 10.6699 17.79C10.9199 16.61 10.5899 15.64 10.3699 15.17C10.2699 14.95 10.3699 14.69 10.5899 14.58C10.8099 14.48 11.0699 14.58 11.1799 14.8C11.4399 15.37 11.8399 16.55 11.5399 17.97C11.3399 18.94 10.8899 19.67 10.4699 20.17C10.8599 20.65 11.1399 21.19 11.3099 21.77C11.9599 24.06 10.5099 25.99 10.2099 26.36C10.1199 26.47 9.99993 26.52 9.86993 26.52Z" fill="black"/>
<path d="M37.1499 35.94C36.9699 35.94 36.7899 35.82 36.7299 35.64C36.2999 34.37 36.1299 33.06 36.1999 31.74C36.3199 29.6 37.0799 27.91 37.7699 26.79C37.1199 26.03 36.2299 24.68 36.0799 22.78C35.8999 20.47 36.9699 18.73 37.5899 17.93C37.1799 17.54 36.7299 16.98 36.4499 16.19C36.0299 14.99 36.2299 13.93 36.3899 13.4C36.4599 13.17 36.7099 13.04 36.9399 13.11C37.1699 13.18 37.3099 13.43 37.2299 13.66C37.0999 14.08 36.9299 14.94 37.2799 15.89C37.5899 16.75 38.1599 17.28 38.4699 17.53C38.5699 17.6 38.6299 17.72 38.6399 17.84C38.6499 17.96 38.6099 18.09 38.5299 18.18C38.1099 18.64 36.7699 20.33 36.9499 22.72C37.0899 24.58 38.0599 25.85 38.6299 26.44C38.7699 26.59 38.7899 26.82 38.6799 26.99C38.0099 28 37.1899 29.65 37.0699 31.79C36.9999 33 37.1699 34.2 37.5599 35.36C37.6399 35.59 37.5099 35.84 37.2799 35.92C37.2299 35.94 37.1899 35.94 37.1399 35.94H37.1499Z" fill="black"/>
<path d="M10.8301 6.05C10.7201 6.05 10.6201 6.01 10.5301 5.93C10.1401 5.58 9.0901 4.76 7.6701 4.82C6.9601 4.85 6.2501 5.09 5.6301 5.52C5.4301 5.66 5.1501 5.61 5.0201 5.4C4.8801 5.2 4.9301 4.92 5.1401 4.79C5.9001 4.27 6.7701 3.98 7.6501 3.94C9.4001 3.86 10.6801 4.85 11.1501 5.28C11.3301 5.44 11.3401 5.72 11.1801 5.9C11.0901 6 10.9701 6.04 10.8501 6.04L10.8301 6.05Z" fill="black"/>
<path d="M7.4201 35.01C6.4701 35.01 5.5301 34.74 4.7201 34.18C3.1601 33.11 2.3601 31.11 2.7501 29.21C2.9501 28.22 3.4401 27.47 3.9101 26.94C3.2601 26.51 2.3001 25.67 1.9201 24.29C1.4901 22.72 1.9201 21.05 3.0701 19.81C2.6201 19.29 2.0201 18.35 1.9601 17.05C1.9001 15.76 2.4201 14.78 2.7701 14.26C2.5901 13.88 2.4101 13.26 2.5801 12.52C2.7701 11.72 3.2801 11.23 3.6701 10.96C3.3701 10.42 3.0301 9.62 3.0101 8.65C3.0101 8.41 3.2001 8.2 3.4401 8.2C3.6601 8.18 3.8901 8.39 3.8901 8.63C3.9101 9.65 4.3701 10.46 4.6401 10.86C4.7201 10.97 4.7401 11.11 4.7001 11.23C4.6601 11.35 4.5701 11.46 4.4501 11.51C4.3701 11.55 3.6201 11.89 3.4201 12.71C3.2601 13.36 3.5501 13.9 3.6401 14.05C3.7401 14.21 3.7301 14.41 3.6101 14.56C3.3501 14.88 2.7601 15.77 2.8101 17C2.8701 18.36 3.7001 19.25 3.9501 19.49C4.0401 19.57 4.0901 19.69 4.0901 19.81C4.0901 19.93 4.0401 20.05 3.9401 20.13C2.8301 21.14 2.3501 22.67 2.7301 24.04C3.1501 25.55 4.4101 26.26 4.7801 26.44C4.9101 26.5 5.0001 26.63 5.0301 26.78C5.0601 26.93 5.0001 27.07 4.8901 27.17C4.4101 27.6 3.8001 28.32 3.5801 29.38C3.2601 30.94 3.9101 32.57 5.1801 33.44C6.7501 34.52 8.9501 34.28 10.3001 32.88C11.5801 31.56 11.7901 29.47 10.8001 27.9C9.5801 25.96 7.2101 25.99 7.1101 25.99C6.8701 25.99 6.6701 25.8 6.6701 25.56C6.6701 25.32 6.8601 25.11 7.1001 25.11C7.2201 25.1 10.0701 25.07 11.5501 27.44C12.7501 29.35 12.4901 31.9 10.9301 33.5C9.9801 34.48 8.6701 34.99 7.3701 34.99L7.4201 35.01Z" fill="black"/>
<path d="M36.4 42C34.72 42 33.12 41.27 32.01 39.97C31.26 40.43 30 40.98 28.42 40.9C27.9 40.87 26.33 40.78 24.97 39.56C23.75 38.46 23.39 37.1 23.28 36.39C23.24 36.15 23.41 35.92 23.65 35.89C23.89 35.86 24.12 36.02 24.15 36.26C24.24 36.86 24.54 37.99 25.55 38.9C26.68 39.92 27.97 39.99 28.46 40.01C30.04 40.11 31.26 39.42 31.83 39.01C32.03 38.87 32.3 38.91 32.44 39.11C33.61 40.7 35.61 41.43 37.53 40.97C39.44 40.51 40.88 38.97 41.21 37.03C41.24 36.88 41.34 36.75 41.48 36.69C41.54 36.67 42.96 36.08 44.03 34.71C44.18 34.52 44.46 34.48 44.65 34.63C44.84 34.78 44.88 35.06 44.73 35.25C43.76 36.5 42.55 37.17 42.04 37.41C41.58 39.58 39.91 41.3 37.74 41.82C37.29 41.93 36.84 41.98 36.39 41.98L36.4 42Z" fill="black"/>
<path d="M45.6901 31.63C45.4501 31.63 45.2501 31.43 45.2501 31.19C45.2401 28.93 43.8401 27.33 43.6801 27.15C43.5301 26.99 43.5301 26.75 43.6601 26.58C44.1501 25.96 45.2601 24.28 45.1301 21.97C45.0201 20.08 44.1301 18.73 43.6101 18.1C43.4801 17.94 43.4801 17.7 43.6101 17.54C44.1501 16.91 45.3901 15.16 45.3501 12.7C45.3101 10.64 44.4001 9.14 43.8601 8.43C43.7201 8.25 43.7501 7.99 43.9101 7.84C43.9801 7.77 45.6801 6.2 45.3001 4.13C45.1201 3.12 44.4801 2.19 43.5501 1.57C42.6501 0.970001 41.5701 0.750001 40.5801 0.970001C39.0101 1.32 37.7801 2.72 37.5201 4.45C37.5001 4.58 37.4201 4.7 37.3101 4.77C37.2001 4.84 37.0601 4.85 36.9301 4.8C36.5501 4.66 35.2201 4.26 33.8201 4.91C32.1701 5.68 31.6801 7.3 31.6001 7.62C31.5601 7.76 31.4701 7.87 31.3301 7.92C31.2001 7.97 31.0501 7.96 30.9301 7.88C30.4101 7.54 28.9801 6.77 27.1601 7C24.8601 7.29 23.5701 8.94 23.2301 9.43C23.1401 9.56 23.0001 9.63 22.8301 9.62C22.6701 9.61 22.5301 9.51 22.4701 9.36C22.2901 8.97 21.5901 7.65 20.0001 7.14C17.9801 6.49 16.3001 7.79 16.2301 7.85C16.1401 7.92 16.0201 7.96 15.9001 7.94C15.7801 7.92 15.6801 7.86 15.6001 7.77C15.3901 7.49 14.2401 6.08 12.2501 5.99C10.1001 5.9 8.79011 7.44 8.65011 7.61C8.50011 7.8 8.21011 7.83 8.03011 7.67C7.84011 7.52 7.81011 7.24 7.97011 7.05C8.25011 6.71 9.79011 4.99 12.2901 5.1C14.2101 5.18 15.4801 6.3 16.0301 6.9C16.7301 6.46 18.3501 5.68 20.2601 6.29C21.6501 6.73 22.4801 7.69 22.9201 8.37C23.6101 7.58 24.9701 6.37 27.0401 6.11C28.7201 5.89 30.1201 6.42 30.9201 6.84C31.2201 6.08 31.9301 4.79 33.4401 4.09C34.7501 3.48 35.9901 3.61 36.7401 3.8C37.2001 1.94 38.6101 0.480001 40.3801 0.090001C41.5901 -0.179999 42.9201 0.0900009 44.0301 0.820001C45.1501 1.57 45.9301 2.71 46.1501 3.95C46.5101 5.95 45.3301 7.56 44.7601 8.19C45.3701 9.07 46.1701 10.63 46.2101 12.67C46.2601 15.13 45.1601 16.94 44.4901 17.81C45.0801 18.61 45.8701 20.02 45.9901 21.91C46.1301 24.22 45.1601 25.97 44.5501 26.83C45.0701 27.49 46.1001 29.06 46.1101 31.17C46.1101 31.41 45.9101 31.61 45.6701 31.62L45.6901 31.63Z" fill="black"/>
<path d="M25.6301 48C25.5501 48 25.4601 48 25.3801 47.97C24.9001 47.86 24.5501 47.44 24.5001 46.95C24.2401 46.07 23.8601 45.22 23.3601 44.43C22.9301 43.74 22.4101 43.09 21.8301 42.52C21.0101 41.86 19.5201 40.38 19.1501 38.14C18.8301 36.2 19.4001 34.03 20.6801 32.34C21.7901 30.87 23.3101 29.96 24.9501 29.77C27.2401 29.51 29.6801 30.7 31.2501 32.84C31.9001 32.46 32.9401 32 34.2501 32H34.2801C35.1601 32 36.0501 32.2 36.8501 32.59C37.0701 32.7 37.1601 32.96 37.0501 33.18C36.9401 33.4 36.6801 33.49 36.4601 33.38C35.9901 33.15 35.2201 32.88 34.2801 32.88C34.2801 32.88 34.2601 32.88 34.2501 32.88C32.8901 32.88 31.8701 33.46 31.3801 33.8C31.2801 33.87 31.1601 33.9 31.0401 33.87C30.9201 33.85 30.8201 33.78 30.7501 33.68C29.3801 31.59 27.1301 30.4 25.0301 30.64C23.6301 30.8 22.3301 31.59 21.3701 32.86C20.2501 34.34 19.7301 36.3 20.0101 37.99C20.3301 39.94 21.6501 41.24 22.4101 41.85C23.0801 42.51 23.6401 43.2 24.1101 43.96C24.6501 44.83 25.0701 45.77 25.3601 46.75C25.3601 46.79 25.3801 46.82 25.3801 46.86C25.3801 46.98 25.4701 47.08 25.5801 47.11C25.6901 47.13 25.8301 47.07 25.8801 46.96C26.2201 45.65 26.3301 44.25 26.1801 42.85C26.0801 41.94 25.8601 41.03 25.5401 40.17C25.4501 39.94 25.5701 39.69 25.8001 39.6C26.0301 39.52 26.2801 39.63 26.3701 39.86C26.7201 40.79 26.9501 41.77 27.0601 42.75C27.2301 44.26 27.1101 45.78 26.7101 47.26C26.5001 47.73 26.0801 48 25.6401 48H25.6301Z" fill="black"/>
<path d="M31.9099 29.08C31.7999 29.08 31.6899 29.04 31.6099 28.96C30.8699 28.28 30.0599 27.74 29.1699 27.37C28.6299 27.14 28.0699 26.98 27.4999 26.88C27.2599 26.84 27.0999 26.61 27.1399 26.37C27.1799 26.13 27.4099 25.96 27.6499 26.01C28.2899 26.11 28.9099 26.3 29.5199 26.55C30.4999 26.96 31.3999 27.55 32.2099 28.31C32.3899 28.48 32.3999 28.76 32.2299 28.93C32.1399 29.02 32.0299 29.07 31.9099 29.07V29.08Z" fill="black"/>
<path d="M17.94 28.33C17.03 28.33 16.14 28.14 15.27 27.61C13.65 26.63 12.17 24.45 12.63 22.35C12.94 20.91 14.11 19.71 15.76 19.04C15.15 18.8 14.52 18.41 14 17.76C13.1 16.63 13.03 15.38 13.07 14.73C13.08 14.49 13.3 14.3 13.54 14.31C13.78 14.32 13.97 14.53 13.96 14.78C13.94 15.2 13.96 16.28 14.7 17.21C15.81 18.6 17.6 18.54 17.97 18.5C18 18.5 18.02 18.5 18.05 18.5C18.29 18.47 18.5 18.65 18.53 18.89C18.56 19.13 18.38 19.35 18.14 19.38C18.14 19.38 18.11 19.38 18.07 19.38C15.72 19.62 13.85 20.92 13.5 22.54C13.14 24.18 14.36 26.03 15.74 26.86C17.47 27.9 19.37 27.37 21.56 26.75C22.08 26.6 22.61 26.45 23.15 26.32C23.39 26.26 23.63 26.41 23.68 26.65C23.74 26.89 23.59 27.13 23.35 27.18C22.82 27.31 22.3 27.45 21.79 27.6C20.46 27.97 19.18 28.33 17.94 28.33Z" fill="black"/>
<path d="M17.5199 32.48C17.2799 32.48 17.0799 32.29 17.0799 32.05C17.0599 31.33 17.1199 30.61 17.2499 29.9C17.3699 29.27 17.5399 28.64 17.7699 28.04C17.8599 27.81 18.1099 27.7 18.3399 27.79C18.5699 27.88 18.6799 28.13 18.5899 28.36C18.3799 28.91 18.2199 29.49 18.1099 30.07C17.9899 30.72 17.9399 31.39 17.9499 32.04C17.9499 32.28 17.7599 32.49 17.5199 32.49V32.48Z" fill="black"/>
<path d="M18.47 24.14C18.21 24.14 17.99 24.13 17.82 24.11C17.58 24.09 17.4 23.87 17.42 23.63C17.44 23.39 17.68 23.22 17.9 23.23C18.55 23.29 20.78 23.35 22.21 21.85C22.5 21.54 23.05 20.97 23.13 20.12C23.28 18.53 21.68 17.38 21.61 17.33C21.41 17.19 21.36 16.91 21.51 16.71C21.65 16.51 21.93 16.46 22.13 16.61C22.34 16.76 24.21 18.15 24.02 20.21C23.91 21.37 23.2 22.11 22.86 22.47C21.5 23.9 19.64 24.15 18.48 24.15L18.47 24.14Z" fill="black"/>
<path d="M34.5799 25.06C34.4599 25.06 34.3499 25.01 34.2599 24.92C33.1099 23.73 31.1399 22.19 28.2999 21.59C26.6699 21.24 24.9999 21.26 23.3399 21.63C23.0999 21.68 22.8599 21.54 22.8099 21.3C22.7599 21.06 22.9099 20.83 23.1399 20.77C24.9199 20.37 26.7199 20.35 28.4799 20.72C31.5499 21.37 33.6599 23.03 34.8999 24.3C35.0699 24.47 35.0599 24.75 34.8899 24.92C34.7999 25 34.6899 25.04 34.5799 25.04V25.06Z" fill="black"/>
<path d="M17.0601 37.07C16.1201 37.07 15.0301 36.86 13.9701 36.17C11.9201 34.83 11.4801 32.68 11.3901 32.05C11.3601 31.81 11.5201 31.59 11.7701 31.55C12.0101 31.52 12.2301 31.68 12.2701 31.93C12.3401 32.47 12.7201 34.3 14.4601 35.44C16.7601 36.94 19.2701 35.77 19.3801 35.72C19.6001 35.62 19.8601 35.71 19.9701 35.93C20.0701 36.15 19.9801 36.41 19.7601 36.52C19.6801 36.56 18.5501 37.08 17.0601 37.08V37.07Z" fill="black"/>
<path d="M28.56 19.49H28.55C28.31 19.49 28.11 19.28 28.12 19.04C28.13 18.6 28.25 17.73 28.89 16.93C29.68 15.94 30.76 15.71 31.19 15.65C31.42 15.62 31.65 15.79 31.68 16.03C31.71 16.27 31.54 16.49 31.3 16.52C31.05 16.55 30.19 16.71 29.58 17.47C29.1 18.06 29.02 18.71 29.01 19.04C29.01 19.28 28.81 19.47 28.57 19.47L28.56 19.49Z" fill="black"/>
<path d="M34.8599 19.16C34.2599 19.16 33.3499 19.04 32.4899 18.46C31.4399 17.75 31.0199 16.74 30.8199 16.25C30.6499 15.83 30.5199 15.38 30.4599 14.92C30.4199 14.68 30.5899 14.45 30.8299 14.42C31.0699 14.39 31.2999 14.55 31.3299 14.79C31.3899 15.18 31.4899 15.56 31.6399 15.91C31.8199 16.35 32.1599 17.16 32.9799 17.72C33.7899 18.26 34.6599 18.29 35.0999 18.26C35.3599 18.24 35.5499 18.43 35.5699 18.67C35.5899 18.91 35.3999 19.12 35.1599 19.14C35.0699 19.14 34.9699 19.15 34.8499 19.15L34.8599 19.16Z" fill="black"/>
<path d="M45.6401 32.94C45.4301 32.73 45.1101 32.73 44.9101 32.94C44.7101 33.15 44.7001 33.47 44.9101 33.67C45.1201 33.87 45.4401 33.88 45.6401 33.67C45.8401 33.48 45.8501 33.16 45.6601 32.96C45.6601 32.96 45.6501 32.95 45.6401 32.94Z" fill="black"/>
<path d="M25.77 26.09C25.56 25.88 25.24 25.88 25.04 26.09C24.84 26.3 24.83 26.62 25.04 26.82C25.25 27.02 25.57 27.03 25.77 26.82C25.97 26.63 25.98 26.31 25.79 26.11C25.79 26.11 25.78 26.1 25.77 26.09Z" fill="black"/>
<path d="M4.43993 6.23C4.22993 6.02 3.90993 6.02 3.70993 6.23C3.50993 6.44 3.49993 6.76 3.70993 6.96C3.91993 7.16 4.23993 7.17 4.43993 6.96C4.63993 6.77 4.64993 6.45 4.45993 6.25C4.45993 6.25 4.44993 6.24 4.43993 6.23Z" fill="black"/>
</g>
<defs>
<clipPath id="clip0_1298_2827">
<rect width="48" height="48" fill="white"/>
</clipPath>
</defs>
</svg>
