<svg width="48" height="48" viewBox="0 0 48 48" fill="none" xmlns="http://www.w3.org/2000/svg">
<g clip-path="url(#clip0_1298_2908)">
<path d="M47.95 10.04C47.66 7.83 46.03 5.35 43.81 5.02C42.88 4.89 42.1 5.21 40.68 5.81C39.5 6.31 38.81 6.77 38.26 7.15C37.79 7.47 37.42 7.72 36.9 7.89C35.62 8.31 34.06 8.03 32.25 7.08C30.94 5.54 28.51 3.72 24.26 3.62C24.09 3.62 23.93 3.62 23.75 3.62C19.52 3.72 17.09 5.54 15.77 7.08C13.96 8.03 12.39 8.3 11.12 7.89C10.59 7.72 10.22 7.47 9.76001 7.15C9.42001 6.92 9.04001 6.66 8.52001 6.38C8.31001 6.27 8.05001 6.34 7.93001 6.55C7.82001 6.76 7.89001 7.02 8.10001 7.14C8.58001 7.4 8.95002 7.65 9.27001 7.87C9.77001 8.21 10.21 8.5 10.85 8.71C11.33 8.87 11.83 8.94 12.36 8.94C13.13 8.94 13.95 8.76 14.83 8.44C14.48 9.03 14.2 9.66 13.98 10.32C12.8 11.21 11.72 11.59 10.76 11.44C10.24 11.36 9.83001 11.13 9.33001 10.84C8.69001 10.48 7.89002 10.03 6.55001 9.7C5.86001 9.53 5.06001 9.39 4.38001 9.82C3.81001 10.18 3.45001 10.85 3.36001 11.7C3.25001 12.8 3.79001 13.67 4.22001 14.16C4.12001 14.25 4.00001 14.32 3.91001 14.42C3.70001 14.65 3.53001 14.9 3.39001 15.18C2.63001 14.66 1.40001 13.58 1.01001 11.84C0.880015 11.28 0.860015 10.71 0.930015 10.13C1.17001 8.28 2.54001 6.12 4.34001 5.85C4.58001 5.81 4.81001 5.82 5.07001 5.87C5.31001 5.92 5.53001 5.76 5.58001 5.53C5.63001 5.3 5.47001 5.07 5.24001 5.02C4.88001 4.95 4.55001 4.94 4.21001 4.99C1.96001 5.35 0.330015 7.84 0.0500147 10.04C-0.0399854 10.71 -0.00998536 11.39 0.140015 12.05C0.630015 14.23 2.24001 15.51 3.07001 16.04C2.97001 16.5 2.94001 16.98 3.01001 17.5C3.18001 18.65 3.78001 19.76 4.71001 20.62C5.64001 21.48 6.79001 22.01 7.94001 22.09C8.05001 22.09 8.16002 22.1 8.27001 22.1C9.33002 22.1 10.26 21.72 10.92 21C11.55 20.32 11.85 19.42 11.81 18.43H14.81C15.27 19.24 15.72 19.8 16.15 20.33C16.62 20.91 17.07 21.46 17.5 22.33C17.88 23.08 18.16 23.89 18.33 24.73C17.9 25.47 17.61 26.27 17.45 27.11C17.1 28.97 17.51 30.56 17.97 31.64C17.71 31.95 17.53 32.29 17.44 32.65C17.11 33.96 17.99 35.18 18.3 35.62C18.59 36.03 18.87 36.58 19.11 37.24C19.19 37.46 19.44 37.58 19.66 37.5C19.88 37.42 20 37.17 19.92 36.95C19.65 36.22 19.34 35.6 18.97 35.08C18.74 34.76 18.04 33.78 18.27 32.87C18.3 32.73 18.36 32.6 18.44 32.47C18.5 32.56 18.55 32.66 18.62 32.75C18.83 33 19.06 33.23 19.31 33.43C19.39 33.49 19.48 33.52 19.58 33.52C19.71 33.52 19.83 33.46 19.92 33.36C20.07 33.17 20.04 32.9 19.85 32.75C19.65 32.59 19.46 32.4 19.29 32.2C19.12 31.99 18.98 31.77 18.86 31.53C18.41 30.57 17.96 29.06 18.29 27.27C18.39 26.72 18.59 26.19 18.83 25.68C18.91 25.84 18.99 25.99 19.05 26.16C19.21 26.63 19.27 27.14 19.23 27.63C19.21 27.87 19.38 28.08 19.62 28.1C19.63 28.1 19.65 28.1 19.66 28.1C19.88 28.1 20.07 27.93 20.09 27.71C20.15 27.09 20.07 26.46 19.87 25.87C19.71 25.42 19.48 25 19.18 24.62C18.99 23.68 18.69 22.78 18.26 21.94C17.78 20.99 17.29 20.38 16.81 19.79C16.39 19.27 15.95 18.73 15.51 17.94C15.26 17.5 14.67 16.34 14.41 15.03C13.93 12.58 14.69 9.71 16.35 7.73C17.53 6.31 19.78 4.6 23.76 4.51C23.91 4.51 24.06 4.51 24.22 4.51C28.19 4.6 30.44 6.31 31.62 7.73C33.27 9.72 34.03 12.58 33.56 15.03C33.3 16.34 32.71 17.5 32.46 17.94C32.02 18.73 31.59 19.27 31.16 19.79C30.68 20.38 30.19 20.99 29.71 21.94C29.28 22.78 28.98 23.69 28.79 24.62C28.5 25 28.26 25.42 28.1 25.87C27.9 26.45 27.82 27.09 27.88 27.71C27.9 27.93 28.09 28.1 28.31 28.1C28.32 28.1 28.34 28.1 28.35 28.1C28.59 28.08 28.76 27.87 28.74 27.63C28.71 27.29 28.71 26.75 28.92 26.16C28.98 25.99 29.05 25.83 29.14 25.68C29.38 26.19 29.57 26.72 29.68 27.27C30.01 29.05 29.55 30.57 29.11 31.53C28.99 31.77 28.84 31.99 28.68 32.2C28.51 32.4 28.33 32.59 28.12 32.76C27.93 32.91 27.9 33.18 28.05 33.37C28.14 33.48 28.26 33.53 28.39 33.53C28.48 33.53 28.58 33.5 28.66 33.44C28.92 33.24 29.15 33.01 29.35 32.76C29.42 32.67 29.47 32.57 29.53 32.48C29.6 32.61 29.66 32.74 29.7 32.88C29.93 33.79 29.23 34.77 28.97 35.14C27.91 36.64 27.19 39.35 26.8 43.44H25.99C26.2 40 26.41 36.5 26.62 32.99C26.83 29.39 27.05 25.8 27.26 22.27C29.9 20.63 31.68 18 32.18 15.04C32.61 12.47 32.02 10 30.55 8.27C30.44 8.14 30.33 8.01 30.21 7.89C30.04 7.72 29.77 7.72 29.6 7.89C29.43 8.06 29.43 8.33 29.6 8.5C29.7 8.61 29.81 8.72 29.9 8.83C31.2 10.37 31.72 12.58 31.33 14.9C30.86 17.69 29.15 20.15 26.62 21.65C26.5 21.72 26.42 21.85 26.41 22C26.19 25.6 25.97 29.27 25.75 32.94C25.54 36.46 25.33 39.99 25.12 43.44H22.94C22.73 39.98 22.52 36.46 22.31 32.94C22.09 29.27 21.87 25.59 21.65 22C21.65 21.86 21.56 21.73 21.44 21.65C18.92 20.15 17.2 17.68 16.73 14.9C16.34 12.58 16.86 10.36 18.16 8.83C20.09 6.55 23.93 5.74 27.11 6.93C27.34 7.01 27.58 6.9 27.67 6.68C27.75 6.46 27.64 6.21 27.42 6.12C23.86 4.78 19.69 5.68 17.51 8.27C16.05 10 15.46 12.47 15.89 15.04C16.39 18.01 18.17 20.63 20.81 22.27C21.02 25.8 21.24 29.39 21.45 32.99C21.66 36.5 21.87 40 22.08 43.44H21.19C21.09 42.37 20.96 41.38 20.81 40.5C20.77 40.27 20.55 40.1 20.31 40.15C20.08 40.19 19.92 40.41 19.96 40.65C20.12 41.62 20.26 42.71 20.37 43.92C20.39 44.14 20.58 44.31 20.8 44.31H27.2C27.42 44.31 27.61 44.14 27.63 43.92C28 39.83 28.69 37.05 29.72 35.6C30.01 35.2 30.88 33.98 30.55 32.67C30.46 32.31 30.28 31.97 30.02 31.66C30.48 30.58 30.89 28.99 30.54 27.13C30.38 26.3 30.09 25.5 29.66 24.75C29.83 23.91 30.11 23.11 30.49 22.35C30.93 21.48 31.37 20.94 31.84 20.36C32.27 19.83 32.72 19.27 33.18 18.46H36.18C36.15 19.45 36.44 20.36 37.07 21.03C37.75 21.76 38.71 22.12 39.73 22.12C40.94 22.12 42.23 21.62 43.29 20.64C44.22 19.78 44.82 18.67 44.99 17.52C45.06 17.01 45.03 16.52 44.93 16.07C45.76 15.54 47.37 14.26 47.86 12.08C48.01 11.42 48.04 10.75 47.95 10.07V10.04ZM10.29 20.41C9.74001 21 8.92001 21.29 8.00001 21.22C7.04001 21.15 6.08001 20.71 5.29001 19.98C4.51001 19.25 4.00001 18.32 3.86001 17.37C3.73001 16.45 3.96002 15.62 4.51002 15.03C4.65001 14.88 4.81001 14.75 4.98001 14.64C5.02001 14.63 5.05001 14.61 5.08001 14.59C5.51001 14.34 6.00002 14.21 6.53001 14.21C7.52001 14.21 8.61001 14.64 9.50001 15.46C10.28 16.19 10.79 17.12 10.93 18.07C11.06 18.99 10.83 19.82 10.28 20.41H10.29ZM14.37 17.56H11.7C11.47 16.55 10.92 15.59 10.1 14.83C8.55001 13.39 6.47001 13 4.94001 13.71C4.62001 13.37 4.11001 12.67 4.20001 11.8C4.26001 11.21 4.48001 10.77 4.82001 10.56C5.14002 10.36 5.55001 10.36 6.33001 10.55C7.56001 10.85 8.27001 11.25 8.89001 11.6C9.45002 11.92 9.94001 12.19 10.61 12.3C11.56 12.45 12.57 12.21 13.63 11.59C13.39 12.8 13.35 14.03 13.58 15.18C13.76 16.1 14.09 16.94 14.37 17.56ZM34.37 11.59C35.43 12.21 36.45 12.44 37.39 12.3C38.07 12.19 38.55 11.92 39.11 11.6C39.74 11.25 40.45 10.85 41.67 10.55C42.45 10.36 42.86 10.36 43.18 10.56C43.52 10.77 43.74 11.21 43.8 11.8C43.89 12.67 43.38 13.37 43.06 13.71C41.53 13 39.45 13.39 37.9 14.83C37.08 15.6 36.53 16.56 36.3 17.56H33.63C33.92 16.93 34.24 16.1 34.42 15.18C34.64 14.03 34.61 12.79 34.36 11.59H34.37ZM44.13 17.37C43.99 18.32 43.48 19.25 42.7 19.98C41.11 21.46 38.87 21.66 37.71 20.41C37.16 19.82 36.93 18.99 37.06 18.07C37.2 17.12 37.71 16.19 38.49 15.46C39.85 14.2 41.67 13.88 42.89 14.58C42.93 14.61 42.97 14.63 43.01 14.64C43.18 14.75 43.34 14.88 43.48 15.03C44.03 15.62 44.26 16.45 44.13 17.37ZM47.02 11.86C46.63 13.59 45.39 14.68 44.64 15.2C44.5 14.93 44.34 14.67 44.12 14.44C44.02 14.34 43.91 14.26 43.8 14.18C44.21 13.7 44.78 12.82 44.66 11.72C44.57 10.86 44.21 10.2 43.64 9.84C42.95 9.4 42.16 9.55 41.47 9.72C40.13 10.05 39.33 10.5 38.69 10.86C38.18 11.15 37.78 11.37 37.25 11.46C36.3 11.61 35.21 11.23 34.03 10.34C33.81 9.69 33.53 9.06 33.19 8.47C34.66 9.01 36 9.1 37.16 8.72C37.8 8.51 38.24 8.22 38.74 7.88C39.29 7.51 39.91 7.09 41.01 6.62C42.37 6.05 43 5.78 43.68 5.88C45.48 6.15 46.85 8.31 47.09 10.16C47.16 10.73 47.14 11.32 47.01 11.87L47.02 11.86Z" fill="black"/>
<path d="M28.9801 7.52C29.1801 7.33 29.1901 7.03 29.0001 6.83C29.0001 6.83 28.9901 6.82 28.9801 6.81C28.7801 6.61 28.4601 6.61 28.2701 6.81C28.0801 7.01 28.0701 7.33 28.2701 7.52C28.4701 7.71 28.7901 7.72 28.9801 7.52Z" fill="black"/>
<path d="M20.3601 39.25C20.5601 39.06 20.5701 38.76 20.3801 38.56C20.3801 38.56 20.3701 38.55 20.3601 38.54C20.1601 38.34 19.8401 38.34 19.6501 38.54C19.4601 38.74 19.4501 39.06 19.6501 39.25C19.8501 39.44 20.1701 39.45 20.3601 39.25Z" fill="black"/>
<path d="M7.16999 6.39C7.36999 6.2 7.37999 5.9 7.18999 5.7C7.18999 5.7 7.17999 5.69 7.16999 5.68C6.96999 5.48 6.64999 5.48 6.45999 5.68C6.26999 5.88 6.25999 6.2 6.45999 6.39C6.65999 6.58 6.97999 6.59 7.16999 6.39Z" fill="black"/>
</g>
<defs>
<clipPath id="clip0_1298_2908">
<rect width="48" height="48" fill="white"/>
</clipPath>
</defs>
</svg>
