<svg width="48" height="48" viewBox="0 0 48 48" fill="none" xmlns="http://www.w3.org/2000/svg">
<g clip-path="url(#clip0_1298_2621)">
<path d="M24.5201 33.47C24.3201 33.27 24.0001 33.27 23.8101 33.47C23.6201 33.67 23.6101 33.99 23.8101 34.18C24.0101 34.37 24.3301 34.38 24.5201 34.18C24.7201 33.99 24.7301 33.69 24.5401 33.49C24.5401 33.49 24.5301 33.48 24.5201 33.47Z" fill="black"/>
<path d="M19.39 26.24C19.19 26.04 18.87 26.04 18.68 26.24C18.49 26.44 18.48 26.76 18.68 26.95C18.88 27.14 19.2 27.15 19.39 26.95C19.59 26.76 19.6 26.46 19.41 26.26C19.41 26.26 19.4 26.25 19.39 26.24Z" fill="black"/>
<path d="M28.2501 31.76C28.0501 31.56 27.7301 31.56 27.5401 31.76C27.3501 31.96 27.3401 32.28 27.5401 32.47C27.7401 32.66 28.0601 32.67 28.2501 32.47C28.4501 32.28 28.4601 31.98 28.2701 31.78C28.2701 31.78 28.2601 31.77 28.2501 31.76Z" fill="black"/>
<path d="M34.17 21.88C33.97 21.68 33.65 21.68 33.46 21.88C33.27 22.08 33.26 22.4 33.46 22.59C33.66 22.78 33.98 22.79 34.17 22.59C34.37 22.4 34.38 22.1 34.19 21.9C34.19 21.9 34.18 21.89 34.17 21.88Z" fill="black"/>
<path d="M31.68 20.42C31.88 20.23 31.89 19.93 31.7 19.73C31.7 19.73 31.69 19.72 31.68 19.71C31.48 19.51 31.16 19.51 30.97 19.71C30.78 19.91 30.77 20.23 30.97 20.42C31.17 20.61 31.49 20.62 31.68 20.42Z" fill="black"/>
<path d="M24.17 26.93C23.12 26.93 22.26 27.79 22.26 28.84C22.26 29.89 23.12 30.75 24.17 30.75C25.22 30.75 26.08 29.89 26.08 28.84C26.08 27.79 25.22 26.93 24.17 26.93ZM24.17 29.9C23.59 29.9 23.11 29.43 23.11 28.84C23.11 28.25 23.58 27.78 24.17 27.78C24.76 27.78 25.23 28.25 25.23 28.84C25.23 29.43 24.76 29.9 24.17 29.9Z" fill="black"/>
<path d="M30.8199 24.37C29.7699 24.37 28.9099 25.23 28.9099 26.28C28.9099 27.33 29.7699 28.19 30.8199 28.19C31.8699 28.19 32.7299 27.33 32.7299 26.28C32.7299 25.23 31.8699 24.37 30.8199 24.37ZM30.8199 27.34C30.2399 27.34 29.7599 26.87 29.7599 26.28C29.7599 25.69 30.2299 25.22 30.8199 25.22C31.4099 25.22 31.8799 25.7 31.8799 26.28C31.8799 26.86 31.4099 27.34 30.8199 27.34Z" fill="black"/>
<path d="M28.1801 21.54C28.1801 20.49 27.3201 19.63 26.2701 19.63C25.2201 19.63 24.3601 20.49 24.3601 21.54C24.3601 22.59 25.2201 23.45 26.2701 23.45C27.3201 23.45 28.1801 22.59 28.1801 21.54ZM26.2701 22.6C25.6901 22.6 25.2101 22.12 25.2101 21.54C25.2101 20.96 25.6901 20.48 26.2701 20.48C26.8501 20.48 27.3301 20.96 27.3301 21.54C27.3301 22.12 26.8601 22.6 26.2701 22.6Z" fill="black"/>
<path d="M9.61011 37.66C9.50011 37.66 9.39011 37.62 9.30011 37.53C9.13011 37.36 9.13011 37.09 9.30011 36.92C9.69011 36.53 10.0001 36.31 10.2701 36.1C10.6401 35.82 10.9101 35.62 11.2401 35.11C11.7601 34.31 11.7601 33.76 11.7601 33.07C11.7601 32.44 11.7601 31.72 12.1301 30.73C12.5701 29.52 13.1601 28.94 13.8401 28.26C14.5301 27.58 15.3101 26.81 16.1901 25.11C16.8401 23.85 16.9801 23.19 17.0201 22.71C17.0801 21.99 16.9601 21.61 16.8001 21.13C16.6501 20.67 16.4901 20.16 16.4701 19.31C16.4601 18.72 16.5401 18.43 16.6901 17.87C16.8201 17.38 17.0201 16.65 17.3001 15.24C17.6801 13.3 17.6401 13 17.6201 12.87C17.5201 12.15 17.2501 11.75 16.8901 11.19C16.6601 10.83 16.3901 10.43 16.1301 9.89C15.6001 8.77 15.3301 7.5 15.3201 6.11L15.2101 0.44C15.2101 0.32 15.2501 0.21 15.3301 0.13C15.4101 0.05 15.5201 0 15.6401 0H20.0001C20.1301 0 20.2501 0.06 20.3301 0.15C20.4101 0.25 20.4501 0.38 20.4201 0.5C20.2501 1.45 20.1301 3.31 21.2301 5.03C21.5301 5.5 22.4201 6.88 23.8601 7.17C24.6801 7.33 25.3801 7.08 25.8401 6.91L25.9601 6.87C27.8601 6.19 30.3001 6.23 32.8301 6.98C33.0601 7.05 33.1901 7.29 33.1201 7.52C33.0501 7.75 32.8201 7.88 32.5801 7.81C30.2301 7.11 27.9801 7.07 26.2501 7.69L26.1401 7.73C25.6201 7.92 24.7601 8.24 23.7001 8.02C21.9001 7.66 20.8601 6.05 20.5201 5.52C19.4201 3.82 19.3701 2.02 19.5001 0.87H16.0801L16.1801 6.1C16.1801 7.37 16.4301 8.52 16.9001 9.52C17.1301 10.01 17.3701 10.37 17.6001 10.72C17.9801 11.3 18.3401 11.85 18.4701 12.76C18.5101 13.05 18.5201 13.49 18.1401 15.41C17.8601 16.85 17.6501 17.6 17.5201 18.1C17.3701 18.65 17.3201 18.83 17.3301 19.3C17.3401 20.02 17.4801 20.43 17.6201 20.87C17.7801 21.37 17.9501 21.9 17.8801 22.79C17.8301 23.36 17.6801 24.12 16.9601 25.52C16.0201 27.33 15.1501 28.19 14.4501 28.88C13.8201 29.51 13.3201 30 12.9401 31.03C12.6301 31.89 12.6301 32.49 12.6301 33.08C12.6301 33.82 12.6301 34.58 11.9701 35.59C11.5501 36.24 11.1801 36.51 10.7801 36.81C10.5201 37 10.2501 37.2 9.90011 37.55C9.82011 37.63 9.71011 37.68 9.60011 37.68L9.61011 37.66Z" fill="black"/>
<path d="M11.4 48H6.93003C6.73003 48 6.56003 47.86 6.51003 47.67C6.17003 46.3 5.91003 44.17 6.57003 41.78C6.63003 41.55 6.74003 41.19 6.90003 40.73C6.98003 40.51 7.23003 40.39 7.46003 40.48C7.68003 40.56 7.80003 40.81 7.71003 41.04C7.55003 41.46 7.46003 41.8 7.40003 42.02C6.84003 44.05 7.00003 45.88 7.27003 47.15H10.86C10.69 46.2 10.65 44.77 11.36 43.27C12.1 41.72 13.17 40.92 13.94 40.53C14.85 40.06 15.78 39.86 16.69 39.94C17.24 39.99 17.79 40.14 18.3 40.38C19.91 41.13 27.91 41.21 34.04 36C40.11 30.84 42.66 21.39 39.84 14.5C39.45 13.54 38.72 11.76 37.14 10.27C36.97 10.11 36.96 9.83001 37.12 9.66001C37.28 9.49001 37.56 9.48001 37.73 9.64001C39.45 11.26 40.22 13.15 40.64 14.17C43.6 21.39 40.95 31.26 34.61 36.65C28.45 41.88 20.15 42.19 17.96 41.16C17.51 40.95 17.07 40.82 16.62 40.79C15.87 40.72 15.11 40.89 14.34 41.28C13.39 41.77 12.65 42.56 12.14 43.63C11.39 45.21 11.61 46.71 11.81 47.46C11.84 47.59 11.81 47.73 11.74 47.83C11.66 47.94 11.53 48 11.4 48Z" fill="black"/>
<path d="M8.64997 38.61C8.44997 38.41 8.12998 38.41 7.93998 38.61C7.74998 38.81 7.73998 39.13 7.93998 39.32C8.13998 39.51 8.45997 39.52 8.64997 39.32C8.84997 39.13 8.85998 38.83 8.66998 38.63C8.66998 38.63 8.65997 38.62 8.64997 38.61Z" fill="black"/>
<path d="M35.63 8.16001C35.43 7.96001 35.11 7.96001 34.92 8.16001C34.73 8.36001 34.72 8.68001 34.92 8.87001C35.12 9.06001 35.44 9.07001 35.63 8.87001C35.83 8.68001 35.84 8.38001 35.65 8.18001C35.65 8.18001 35.64 8.17001 35.63 8.16001Z" fill="black"/>
<path d="M21.7201 38.88C20.3101 38.88 19.0401 38.56 17.9201 37.91C16.1701 36.91 15.0501 35.44 14.7601 33.79C14.1601 30.38 17.2501 27.89 17.3801 27.79C17.5701 27.64 17.8401 27.67 17.9901 27.86C18.1401 28.05 18.1101 28.32 17.9201 28.47C17.8901 28.49 15.1001 30.74 15.6201 33.65C15.8701 35.05 16.8401 36.3 18.3601 37.17C20.2401 38.25 23.7301 38.82 29.6401 35.37C32.8901 33.48 34.7401 30.99 35.5601 29.68C37.5301 26.51 37.8601 23.54 38.0101 22.28C38.3301 19.46 38.6301 16.79 37.0401 14.21C34.8701 10.71 30.9601 10.07 30.8001 10.05C28.4701 9.68999 26.0501 10.32 23.9701 11.83L23.8101 11.95C23.8101 11.95 20.2601 14.75 20.2501 18.72C20.2501 19.3 20.3201 19.66 20.4001 20.08C20.5101 20.64 20.6401 21.27 20.6001 22.45C20.5801 23.28 20.4801 24.11 20.3201 24.92C20.2701 25.15 20.0501 25.31 19.8101 25.26C19.5801 25.21 19.4201 24.99 19.4701 24.75C19.6201 23.99 19.7101 23.2 19.7301 22.42C19.7601 21.33 19.6501 20.78 19.5501 20.24C19.4601 19.81 19.3801 19.37 19.3801 18.71C19.3801 14.28 23.2501 11.28 23.2901 11.25L23.4601 11.12C25.7201 9.47999 28.3801 8.79999 30.9301 9.18999C31.1101 9.21999 35.4001 9.91999 37.7801 13.75C39.5301 16.59 39.2201 19.4 38.8801 22.37C38.7301 23.7 38.3801 26.8 36.3101 30.13C35.4501 31.51 33.5101 34.12 30.0901 36.11C26.9201 37.96 24.1301 38.88 21.7501 38.88H21.7201Z" fill="black"/>
<path d="M29.1999 17.41C28.3399 17.41 27.8099 16.73 27.3399 16.14C26.9299 15.62 26.5799 15.16 26.0899 15.16C25.6199 15.16 25.2599 15.57 24.8299 16.05C24.3399 16.61 23.7799 17.23 22.9199 17.23C22.9099 17.23 22.8999 17.23 22.8799 17.23C22.0699 17.21 21.2999 16.63 20.5999 15.5C20.4699 15.3 20.5299 15.03 20.7399 14.9C20.9399 14.77 21.2099 14.83 21.3399 15.04C21.8799 15.9 22.4199 16.35 22.9099 16.36H22.9299C23.3999 16.36 23.7699 15.95 24.1999 15.47C24.6899 14.92 25.2499 14.29 26.0999 14.29H26.1099C27.0099 14.29 27.5599 14.99 28.0299 15.6C28.4899 16.19 28.8199 16.54 29.2199 16.54C29.6399 16.54 29.9299 16.18 30.3699 15.59C30.8199 14.99 31.3299 14.3 32.1999 14.29C32.2099 14.29 32.2199 14.29 32.2299 14.29C33.0699 14.29 33.6099 14.93 34.0899 15.5C34.5099 16 34.9099 16.47 35.4399 16.51C36.0899 16.57 36.8399 15.98 37.6299 14.85C37.7699 14.65 38.0399 14.61 38.2299 14.74C38.4299 14.88 38.4699 15.15 38.3399 15.34C37.3499 16.76 36.3599 17.44 35.3799 17.37C34.4799 17.31 33.9199 16.64 33.4299 16.05C33.0199 15.56 32.6299 15.15 32.2199 15.15C31.7999 15.15 31.4999 15.52 31.0599 16.11C30.6099 16.71 30.0999 17.4 29.2299 17.41H29.1999Z" fill="black"/>
</g>
<defs>
<clipPath id="clip0_1298_2621">
<rect width="48" height="48" fill="white"/>
</clipPath>
</defs>
</svg>
