<svg width="48" height="48" viewBox="0 0 48 48" fill="none" xmlns="http://www.w3.org/2000/svg">
<g clip-path="url(#clip0_1298_2789)">
<path d="M45.3699 38.89C44.3899 38 42.4599 37.24 38.1799 35.61C37.9899 35.54 37.7999 35.47 37.5899 35.41C38.3499 33.88 38.0799 31.77 36.8399 30.06C35.4199 28.11 33.1899 27.24 31.3899 27.84C31.3699 27 31.3899 26.31 31.3899 25.96C32.5499 24.34 32.9999 22.66 33.1499 21.44C34.0599 21.12 35.2099 20.5 36.0399 19.31C36.8099 18.2 36.9099 17.16 37.0699 15.43C37.1999 14.01 37.2999 12.98 36.5999 12.17C36.1099 11.59 35.4299 11.35 34.8399 11.26C34.9699 9.71 34.7799 8.24 34.2499 6.86C32.6899 2.72 28.3699 -0.12 23.7699 4.83822e-07C20.3299 0.0700005 16.9599 1.82 14.9599 4.58C14.8199 4.77 14.8599 5.05 15.0599 5.19C15.2499 5.33 15.5299 5.29 15.6699 5.09C17.5099 2.55 20.6199 0.93 23.7899 0.87C27.9399 0.8 32.0299 3.43 33.4499 7.15C33.9699 8.52 34.1399 10 33.9399 11.57C33.9199 11.69 33.9599 11.81 34.0399 11.9C34.1199 11.99 34.2299 12.05 34.3499 12.06C34.8499 12.09 35.5299 12.22 35.9499 12.72C36.3899 13.23 36.3499 13.93 36.2099 15.34C36.0499 17.03 35.9699 17.88 35.3299 18.8C34.5499 19.92 33.4299 20.44 32.6199 20.69C32.4499 20.74 32.3299 20.89 32.3099 21.06C32.1999 22.18 31.8199 23.85 30.6799 25.44C30.6199 25.49 30.5699 25.55 30.5499 25.62C29.8299 26.57 27.5599 29.12 23.9999 29.12C20.4399 29.12 17.9799 26.35 17.3599 25.51C16.1799 23.9 15.7999 22.2 15.6799 21.06C15.6599 20.89 15.5399 20.74 15.3699 20.69C14.5699 20.44 13.4399 19.92 12.6599 18.8C12.0199 17.88 11.9399 17.03 11.7799 15.34C11.6499 13.94 11.6099 13.24 12.0399 12.73C12.4699 12.23 13.1499 12.1 13.6399 12.07C13.7599 12.07 13.8699 12.01 13.9499 11.91C14.0299 11.82 14.0599 11.7 14.0499 11.57C13.9099 10.44 13.9599 9.34 14.1899 8.3C14.2399 8.06 14.0999 7.83 13.8599 7.78C13.6199 7.72 13.3899 7.87 13.3399 8.11C13.1099 9.12 13.0399 10.17 13.1299 11.24C12.5399 11.33 11.8599 11.58 11.3699 12.15C10.6699 12.97 10.7699 13.99 10.8999 15.41C11.0599 17.14 11.1599 18.18 11.9299 19.29C12.7699 20.49 13.9199 21.11 14.8299 21.42C15.0399 23.08 15.6499 24.63 16.5999 25.94C16.6199 26.65 16.6199 28.13 16.5299 29.42C16.4499 30.57 16.3999 31.1 16.2299 31.53C15.7499 32.74 14.7199 33.49 13.6299 34.1C12.0999 32.65 9.90992 32.17 7.92992 32.9C5.85992 33.66 4.44992 35.62 4.32992 37.82C3.53992 38.2 2.99992 38.53 2.61992 38.88C1.53992 39.87 -0.210083 42.3 0.179917 47.52C0.199917 47.75 0.389917 47.92 0.609917 47.92H33.0999C33.3399 47.92 33.5399 47.72 33.5399 47.48C33.5399 47.24 33.3399 47.04 33.0999 47.04H1.03992C0.779917 42.47 2.27992 40.37 3.21992 39.52C3.55992 39.21 4.09992 38.88 4.91992 38.5C5.02992 38.45 5.10992 38.36 5.14992 38.25C5.17992 38.19 5.19992 38.13 5.19992 38.07C5.21992 36.13 6.43992 34.38 8.24992 33.72C10.0099 33.08 11.9799 33.55 13.2699 34.94C13.2899 34.96 13.3199 34.97 13.3399 34.99C13.3599 35 13.3699 35.01 13.3899 35.02C13.4499 35.05 13.5099 35.07 13.5799 35.07C13.5899 35.07 13.5999 35.07 13.6199 35.07C13.6699 35.07 13.7199 35.06 13.7599 35.03C13.7599 35.03 13.7799 35.03 13.7899 35.03C15.1199 34.32 16.4299 33.44 17.0599 31.86C17.2899 31.28 17.3399 30.65 17.4199 29.49C17.4799 28.66 17.4999 27.76 17.4999 27.02C18.7299 28.33 20.9099 30 24.0099 30C27.1099 30 29.3299 28.27 30.5199 27.02C30.5199 27.45 30.5199 27.96 30.5499 28.51C30.5499 28.51 30.5499 28.51 30.5499 28.52C30.5499 28.55 30.5599 28.58 30.5699 28.61C30.5699 28.64 30.5799 28.66 30.5999 28.69C30.5999 28.69 30.5999 28.7 30.5999 28.71C30.5999 28.73 30.6199 28.74 30.6399 28.75C30.6599 28.78 30.6799 28.8 30.6999 28.82C30.7199 28.84 30.7399 28.85 30.7599 28.86C30.7899 28.88 30.8199 28.89 30.8499 28.9C30.8699 28.9 30.8899 28.9 30.9199 28.91C30.9399 28.91 30.9599 28.92 30.9899 28.92C30.9899 28.92 30.9999 28.92 31.0099 28.92C31.0099 28.92 31.0199 28.92 31.0299 28.92C31.0499 28.92 31.0699 28.91 31.0899 28.9C31.1299 28.9 31.1599 28.88 31.1899 28.87C31.1899 28.87 31.1899 28.87 31.1999 28.87C32.6599 28.03 34.8299 28.78 36.1399 30.58C37.3099 32.19 37.4899 34.18 36.5899 35.42C36.4499 35.61 36.4899 35.89 36.6899 36.03C36.7599 36.08 36.8299 36.09 36.9099 36.1V36.12C37.2499 36.22 37.5699 36.32 37.8799 36.43C41.6299 37.86 43.8899 38.72 44.7899 39.54C45.7299 40.4 47.2299 42.5 46.9699 47.06H38.4199C38.1799 47.06 37.9799 47.26 37.9799 47.5C37.9799 47.74 38.1799 47.94 38.4199 47.94H47.3799C47.6099 47.94 47.7999 47.76 47.8099 47.54C48.2099 42.32 46.4499 39.89 45.3699 38.9V38.89Z" fill="black"/>
<path d="M13.39 36.45C13.39 36.45 13.3 37.1 12.93 37.88C12.83 38.1 12.92 38.36 13.13 38.46C13.19 38.49 13.25 38.5 13.32 38.5C13.48 38.5 13.64 38.41 13.71 38.25C14.15 37.33 14.25 36.56 14.25 36.55C14.28 36.31 14.11 36.09 13.87 36.06C13.61 36.02 13.41 36.2 13.38 36.44L13.39 36.45Z" fill="black"/>
<path d="M10.5901 40.18C8.87011 40.9 6.86011 40.51 5.48011 39.17C5.31011 39 5.03011 39.01 4.86011 39.17C4.69011 39.34 4.70011 39.62 4.86011 39.79C5.95011 40.85 7.37011 41.41 8.80011 41.41C9.51011 41.41 10.2301 41.27 10.9101 40.98C11.1301 40.89 11.2401 40.63 11.1401 40.41C11.0501 40.19 10.7901 40.08 10.5701 40.18H10.5901Z" fill="black"/>
<path d="M30.1599 29.32C29.9399 29.21 29.6799 29.3 29.5799 29.52C29.5299 29.63 28.2899 32.24 29.8299 34.63C30.7799 36.11 32.4499 36.97 34.2299 36.97C34.6399 36.97 35.0599 36.92 35.4799 36.83C35.7099 36.78 35.8599 36.54 35.8099 36.31C35.7599 36.08 35.5299 35.93 35.2899 35.98C33.4499 36.41 31.5499 35.68 30.5799 34.16C29.3099 32.18 30.3399 30 30.3799 29.91C30.4899 29.69 30.3999 29.43 30.1799 29.33L30.1599 29.32Z" fill="black"/>
<path d="M11.8799 39.22C11.6899 39.42 11.6799 39.75 11.8799 39.94C12.0799 40.13 12.4099 40.14 12.5999 39.94C12.7999 39.75 12.8099 39.44 12.6199 39.24C12.6199 39.24 12.6099 39.23 12.5999 39.22C12.3999 39.02 12.0699 39.02 11.8799 39.22Z" fill="black"/>
<path d="M36.2401 47.13C36.0401 46.93 35.7101 46.93 35.5201 47.13C35.3301 47.33 35.3201 47.66 35.5201 47.85C35.7201 48.04 36.0501 48.05 36.2401 47.85C36.4401 47.66 36.4501 47.35 36.2601 47.15C36.2601 47.15 36.2501 47.14 36.2401 47.13Z" fill="black"/>
<path d="M14.6099 6.85999C14.8099 6.66999 14.8199 6.35999 14.6299 6.15999C14.6299 6.15999 14.6199 6.14999 14.6099 6.13999C14.4099 5.93999 14.0799 5.93999 13.8899 6.13999C13.6999 6.33999 13.6899 6.66999 13.8899 6.85999C14.0899 7.04999 14.4199 7.05999 14.6099 6.85999Z" fill="black"/>
</g>
<defs>
<clipPath id="clip0_1298_2789">
<rect width="48" height="48" fill="white"/>
</clipPath>
</defs>
</svg>
