<svg width="48" height="48" viewBox="0 0 48 48" fill="none" xmlns="http://www.w3.org/2000/svg">
<g clip-path="url(#clip0_1298_2763)">
<path d="M17.05 23.19C16.85 22.66 16.45 22.25 15.93 22.02C15.41 21.79 14.84 21.78 14.31 21.98C13.78 22.18 13.37 22.58 13.14 23.1C12.67 24.17 13.15 25.42 14.22 25.89C14.5 26.01 14.79 26.07 15.07 26.07C15.88 26.07 16.66 25.6 17.01 24.81C17.24 24.29 17.25 23.72 17.05 23.19ZM16.22 24.46C15.94 25.09 15.2 25.38 14.57 25.1C13.94 24.82 13.65 24.08 13.93 23.45C14.07 23.14 14.31 22.91 14.62 22.79C14.77 22.73 14.92 22.71 15.07 22.71C15.24 22.71 15.42 22.75 15.58 22.82C15.89 22.96 16.12 23.2 16.24 23.51C16.36 23.82 16.35 24.16 16.22 24.47V24.46Z" fill="black"/>
<path d="M22.41 18.42C22.44 19.24 23.12 19.88 23.93 19.88C23.95 19.88 23.97 19.88 23.99 19.88C24.83 19.85 25.49 19.14 25.45 18.3C25.43 17.89 25.26 17.52 24.96 17.24C24.66 16.96 24.27 16.82 23.87 16.84C23.46 16.86 23.09 17.03 22.81 17.33C22.53 17.63 22.39 18.02 22.41 18.42ZM23.45 17.91C23.57 17.78 23.73 17.71 23.91 17.7H23.94C24.11 17.7 24.26 17.76 24.39 17.87C24.52 17.99 24.59 18.15 24.6 18.33C24.61 18.69 24.33 19 23.97 19.01C23.6 19.01 23.3 18.74 23.29 18.38C23.29 18.2 23.35 18.04 23.46 17.91H23.45Z" fill="black"/>
<path d="M33.15 23.92C33.43 24.04 33.72 24.1 34 24.1C34.81 24.1 35.59 23.63 35.94 22.84C36.17 22.32 36.18 21.75 35.98 21.22C35.78 20.69 35.38 20.28 34.86 20.05C34.34 19.82 33.77 19.81 33.24 20.01C32.71 20.21 32.3 20.61 32.07 21.13C31.84 21.65 31.83 22.22 32.03 22.75C32.23 23.28 32.63 23.69 33.15 23.92ZM32.86 21.47C33 21.16 33.24 20.93 33.55 20.81C33.7 20.75 33.85 20.73 34 20.73C34.17 20.73 34.35 20.77 34.51 20.84C34.82 20.98 35.05 21.22 35.17 21.53C35.29 21.84 35.28 22.18 35.15 22.49C34.87 23.12 34.13 23.41 33.5 23.13C33.19 22.99 32.96 22.75 32.84 22.44C32.72 22.13 32.73 21.79 32.86 21.48V21.47Z" fill="black"/>
<path d="M31.15 27.4C30.95 27.62 30.93 27.95 31.15 28.16C31.37 28.37 31.7 28.38 31.91 28.16C32.12 27.96 32.13 27.63 31.93 27.42C31.93 27.42 31.92 27.4 31.91 27.4C31.69 27.18 31.36 27.18 31.15 27.4Z" fill="black"/>
<path d="M28.6 15.31C28.81 15.11 28.82 14.78 28.62 14.57C28.62 14.57 28.61 14.55 28.6 14.55C28.38 14.33 28.04 14.33 27.84 14.55C27.64 14.77 27.62 15.1 27.84 15.31C28.06 15.51 28.39 15.53 28.6 15.31Z" fill="black"/>
<path d="M14.91 19.55C15.12 19.35 15.13 19.02 14.93 18.81C14.93 18.81 14.92 18.79 14.91 18.79C14.69 18.57 14.35 18.57 14.15 18.79C13.95 19.01 13.93 19.34 14.15 19.55C14.37 19.75 14.7 19.77 14.91 19.55Z" fill="black"/>
<path d="M15.9499 30.55C15.7499 30.77 15.7299 31.1 15.9499 31.31C16.1699 31.51 16.4999 31.53 16.7099 31.31C16.9199 31.11 16.9299 30.78 16.7299 30.57C16.7299 30.57 16.7199 30.55 16.7099 30.55C16.4899 30.33 16.1599 30.33 15.9499 30.55Z" fill="black"/>
<path d="M20.06 30.9C20.27 30.7 20.28 30.37 20.08 30.16C20.08 30.16 20.07 30.14 20.06 30.14C19.84 29.92 19.5 29.92 19.3 30.14C19.1 30.36 19.08 30.69 19.3 30.9C19.52 31.11 19.85 31.12 20.06 30.9Z" fill="black"/>
<path d="M21.01 23.63C21.22 23.43 21.23 23.1 21.03 22.89C21.03 22.89 21.02 22.87 21.01 22.87C20.79 22.65 20.46 22.65 20.25 22.87C20.05 23.09 20.03 23.42 20.25 23.63C20.47 23.84 20.8 23.85 21.01 23.63Z" fill="black"/>
<path d="M19.52 34.54C19.73 34.34 19.74 34.01 19.54 33.8C19.54 33.8 19.53 33.78 19.52 33.78C19.3 33.56 18.96 33.56 18.76 33.78C18.56 34 18.54 34.34 18.76 34.54C18.98 34.74 19.31 34.76 19.52 34.54Z" fill="black"/>
<path d="M29.91 24.36C30.13 24.56 30.46 24.58 30.67 24.36C30.88 24.16 30.89 23.83 30.69 23.62C30.69 23.62 30.68 23.6 30.67 23.6C30.45 23.38 30.12 23.38 29.91 23.6C29.71 23.82 29.69 24.15 29.91 24.36Z" fill="black"/>
<path d="M18.49 27.72C18.27 27.5 17.93 27.5 17.73 27.72C17.53 27.94 17.51 28.27 17.73 28.48C17.95 28.68 18.28 28.7 18.49 28.48C18.7 28.28 18.71 27.95 18.51 27.74C18.51 27.74 18.5 27.72 18.49 27.72Z" fill="black"/>
<path d="M22.42 26.33C22.63 26.13 22.64 25.8 22.44 25.59C22.44 25.59 22.43 25.57 22.42 25.57C22.2 25.35 21.86 25.35 21.66 25.57C21.46 25.79 21.44 26.12 21.66 26.33C21.88 26.53 22.21 26.55 22.42 26.33Z" fill="black"/>
<path d="M26.52 11.21C26.73 11.01 26.74 10.68 26.54 10.47C26.54 10.47 26.53 10.45 26.52 10.45C26.3 10.23 25.97 10.23 25.76 10.45C25.56 10.67 25.54 11.01 25.76 11.21C25.98 11.41 26.31 11.43 26.52 11.21Z" fill="black"/>
<path d="M33.3401 44.7C33.3401 44.7 33.3301 44.68 33.3201 44.68C33.1001 44.46 32.7701 44.46 32.5601 44.68C32.3601 44.9 32.3401 45.23 32.5601 45.44C32.7801 45.65 33.1101 45.66 33.3201 45.44C33.5301 45.24 33.5401 44.91 33.3401 44.7Z" fill="black"/>
<path d="M25.8299 26.87C26.0399 26.67 26.0499 26.34 25.8499 26.13C25.8499 26.13 25.8399 26.11 25.8299 26.11C25.6099 25.89 25.2699 25.89 25.0699 26.11C24.8699 26.33 24.8499 26.67 25.0699 26.87C25.2899 27.07 25.6199 27.09 25.8299 26.87Z" fill="black"/>
<path d="M26.91 23.09C27.12 22.89 27.13 22.56 26.93 22.35C26.93 22.35 26.92 22.33 26.91 22.33C26.69 22.11 26.35 22.11 26.15 22.33C25.95 22.55 25.93 22.89 26.15 23.09C26.37 23.29 26.7 23.31 26.91 23.09Z" fill="black"/>
<path d="M31.9501 31.33C31.7301 31.11 31.4001 31.11 31.1901 31.33C30.9901 31.55 30.9701 31.88 31.1901 32.09C31.4101 32.3 31.7401 32.31 31.9501 32.09C32.1601 31.89 32.1701 31.56 31.9701 31.35C31.9701 31.35 31.9601 31.33 31.9501 31.33Z" fill="black"/>
<path d="M30.67 19.38C30.88 19.18 30.89 18.85 30.69 18.64C30.69 18.64 30.68 18.62 30.67 18.62C30.45 18.4 30.12 18.4 29.91 18.62C29.71 18.84 29.69 19.17 29.91 19.38C30.13 19.58 30.46 19.6 30.67 19.38Z" fill="black"/>
<path d="M17.23 14.89C16.31 16.63 17.7 19.11 20.4 20.54C21.58 21.16 22.79 21.47 23.85 21.47C25.22 21.47 26.34 20.96 26.86 19.98C27.78 18.24 26.39 15.76 23.69 14.33C20.99 12.9 18.15 13.15 17.23 14.89ZM26.09 19.58C25.42 20.85 23 20.94 20.8 19.78C18.61 18.62 17.32 16.56 17.99 15.3C18.35 14.63 19.19 14.29 20.24 14.29C21.17 14.29 22.25 14.56 23.28 15.11C25.48 16.27 26.76 18.33 26.09 19.59V19.58Z" fill="black"/>
<path d="M23.1 32.76C23.12 33.17 23.29 33.54 23.59 33.82C23.87 34.08 24.24 34.22 24.62 34.22C24.64 34.22 24.66 34.22 24.68 34.22C25.09 34.2 25.46 34.03 25.74 33.73C26.02 33.43 26.16 33.04 26.14 32.64C26.12 32.23 25.95 31.86 25.65 31.58C25.35 31.3 24.99 31.16 24.56 31.18C23.72 31.21 23.06 31.92 23.1 32.76ZM24.62 32.04C24.79 32.04 24.94 32.1 25.07 32.22C25.2 32.34 25.27 32.5 25.28 32.68C25.28 32.86 25.23 33.02 25.11 33.15C24.99 33.28 24.83 33.35 24.65 33.36C24.32 33.35 23.98 33.09 23.97 32.73C23.96 32.37 24.24 32.06 24.6 32.05H24.63L24.62 32.04Z" fill="black"/>
<path d="M22.99 35.62C23.35 35.81 23.74 35.9 24.15 35.9C24.74 35.9 25.38 35.71 26.02 35.33C27.05 34.73 27.97 33.7 28.64 32.45C30.07 29.75 29.82 26.92 28.08 25.99C27.78 25.83 27.45 25.74 27.1 25.71C26.86 25.71 26.66 25.87 26.64 26.11C26.62 26.35 26.8 26.55 27.04 26.57C27.27 26.59 27.48 26.64 27.67 26.75C28.94 27.42 29.03 29.84 27.87 32.04C27.28 33.15 26.47 34.06 25.58 34.58C24.76 35.07 23.98 35.16 23.39 34.85C22.8 34.54 22.44 33.84 22.38 32.89C22.31 31.86 22.6 30.68 23.19 29.56C23.54 28.89 24 28.28 24.5 27.79C24.67 27.62 24.67 27.35 24.5 27.18C24.33 27.01 24.06 27.01 23.89 27.18C23.32 27.74 22.83 28.41 22.43 29.17C21.77 30.42 21.44 31.77 21.52 32.95C21.6 34.22 22.12 35.16 22.99 35.62Z" fill="black"/>
<path d="M47.8 36.26C47.47 34.71 46.33 33.39 44.6 32.56C42.13 31.37 39.71 32.23 38.8 32.64L36.35 30.19C37.3 28.32 37.84 26.21 37.84 23.97C37.84 18.12 34.13 12.88 28.62 10.93C28.39 10.85 28.15 10.97 28.07 11.19C27.99 11.41 28.11 11.66 28.33 11.74C33.5 13.56 36.97 18.48 36.97 23.96C36.97 26.12 36.43 28.15 35.5 29.94C35.44 30 35.41 30.08 35.39 30.16C33.19 34.18 28.92 36.91 24.02 36.91C16.88 36.91 11.06 31.1 11.06 23.95C11.06 16.8 16.87 10.99 24.02 10.99C24.26 10.99 24.45 10.8 24.45 10.56C24.45 10.32 24.26 10.13 24.02 10.13C21.87 10.13 19.84 10.64 18.02 11.52L15.83 9.33C15.44 8.86 15.24 8.38 15.23 7.92C15.23 7.49 15.39 7.19 15.55 6.89C15.6 6.8 15.64 6.71 15.68 6.63C16.39 5.12 15.84 2.76 14.44 1.37C12.65 -0.410004 9.41001 -0.500004 7.37001 1.18C5.68001 2.56 5.44001 4.6 5.43001 5.55C5.34001 5.55 5.25001 5.53 5.16001 5.52C4.75001 5.47 4.36001 5.43 3.84001 5.56C1.72001 6.12 -0.389987 8.98 0.200013 11.74C0.530013 13.29 1.66001 14.61 3.39001 15.44C5.86001 16.63 8.28001 15.77 9.19001 15.35L11.67 17.83C10.74 19.69 10.21 21.77 10.21 23.98C10.21 31.6 16.41 37.8 24.03 37.8C26.15 37.8 28.16 37.3 29.96 36.45L32.16 38.65C32.55 39.12 32.76 39.6 32.76 40.06C32.76 40.49 32.6 40.8 32.44 41.1C32.39 41.19 32.35 41.27 32.31 41.36C32.06 41.9 31.96 42.57 32.02 43.29C32.04 43.51 32.23 43.68 32.45 43.68C32.46 43.68 32.48 43.68 32.49 43.68C32.73 43.66 32.9 43.45 32.88 43.21C32.83 42.64 32.9 42.13 33.09 41.72C33.12 41.65 33.16 41.58 33.2 41.5C33.38 41.16 33.63 40.7 33.62 40.05C33.62 39.38 33.34 38.72 32.79 38.06L30.76 36.03C32.89 34.83 34.67 33.08 35.91 30.98L38.41 33.48C38.54 33.61 38.75 33.64 38.92 33.56C39.38 33.32 41.78 32.17 44.23 33.35C45.09 33.76 46.59 34.71 46.95 36.45C47.42 38.69 45.68 41.14 43.92 41.59C43.55 41.68 43.29 41.65 42.91 41.61C42.49 41.56 41.97 41.5 41.13 41.58C40 41.69 38.88 42 37.81 42.5C37.59 42.6 37.5 42.86 37.6 43.07C37.67 43.23 37.83 43.32 37.99 43.32C38.05 43.32 38.11 43.31 38.17 43.28C39.15 42.82 40.17 42.54 41.21 42.44C41.38 42.42 41.53 42.42 41.67 42.41C41.67 43.2 41.49 44.96 40.05 46.14C38.33 47.55 35.62 47.48 34.14 46C33.97 45.83 33.7 45.83 33.53 46C33.36 46.17 33.36 46.44 33.53 46.61C34.46 47.54 35.78 48 37.13 48C38.37 48 39.62 47.6 40.6 46.8C42.29 45.42 42.53 43.38 42.54 42.43C42.63 42.43 42.73 42.45 42.81 42.46C43.22 42.51 43.61 42.55 44.13 42.42C46.26 41.88 48.37 39.02 47.79 36.27L47.8 36.26ZM9.58001 14.52C9.44001 14.39 9.24001 14.35 9.07001 14.44C8.61001 14.68 6.21001 15.82 3.76001 14.65C2.90001 14.24 1.40001 13.29 1.04001 11.55C0.570012 9.31 2.31001 6.86 4.07001 6.41C4.44001 6.32 4.70001 6.35 5.08001 6.39C5.50001 6.44 6.02001 6.5 6.86001 6.42C7.99001 6.31 9.11001 6 10.18 5.5C10.4 5.4 10.49 5.14 10.39 4.93C10.29 4.71 10.03 4.62 9.82001 4.72C8.84001 5.18 7.82001 5.46 6.78001 5.56C6.61001 5.58 6.46001 5.58 6.32001 5.59C6.32001 4.8 6.50001 3.04 7.94001 1.86C9.66001 0.449996 12.37 0.519996 13.86 2C14.98 3.11 15.48 5.11 14.92 6.28C14.89 6.35 14.85 6.42 14.81 6.5C14.63 6.84 14.38 7.3 14.39 7.95C14.39 8.62 14.67 9.28 15.21 9.94L17.23 11.96C15.1 13.17 13.33 14.92 12.1 17.03L9.59001 14.51L9.58001 14.52Z" fill="black"/>
</g>
<defs>
<clipPath id="clip0_1298_2763">
<rect width="48" height="48" fill="white"/>
</clipPath>
</defs>
</svg>
