<svg width="48" height="48" viewBox="0 0 48 48" fill="none" xmlns="http://www.w3.org/2000/svg">
<path d="M3.4699 16.21C3.3899 16.21 3.3199 16.19 3.2499 16.15C2.4899 15.7 0.669902 14.38 0.149902 12.05C-9.76473e-05 11.39 -0.0300977 10.72 0.0599023 10.04C0.349902 7.83 1.9799 5.35 4.1999 5.02C4.5499 4.97 4.8999 4.98 5.2899 5.07C5.5199 5.12 5.6699 5.35 5.6199 5.58C5.5699 5.81 5.3399 5.96 5.1099 5.91C4.8199 5.85 4.5799 5.84 4.3299 5.87C2.5299 6.14 1.1599 8.3 0.919902 10.15C0.849902 10.72 0.869902 11.3 0.999902 11.86C1.4499 13.87 3.0399 15.01 3.7099 15.41C3.9099 15.53 3.9799 15.8 3.8599 16C3.7799 16.14 3.6399 16.21 3.4899 16.21H3.4699Z" fill="black"/>
<path d="M12.35 8.95C11.82 8.95 11.32 8.87 10.84 8.72C10.2 8.51 9.75999 8.22 9.25999 7.88C8.87999 7.62 8.44999 7.33 7.84999 7.02C7.63999 6.91 7.54999 6.65 7.65999 6.44C7.76999 6.23 8.02999 6.14 8.23999 6.25C8.88999 6.58 9.33999 6.89 9.73999 7.16C10.21 7.48 10.58 7.73 11.1 7.9C12.39 8.32 13.98 8.04 15.81 7.06C16.02 6.95 16.28 7.03 16.39 7.24C16.5 7.45 16.42 7.71 16.21 7.82C14.8 8.57 13.5 8.95 12.33 8.95H12.35Z" fill="black"/>
<path d="M4.86005 14.67C4.76005 14.67 4.66005 14.63 4.58005 14.56C4.35005 14.35 3.19005 13.25 3.35005 11.71C3.44005 10.85 3.80005 10.19 4.37005 9.83C5.06005 9.39 5.85005 9.54 6.54005 9.71C7.88005 10.04 8.68005 10.49 9.32005 10.85C9.83005 11.14 10.2301 11.36 10.7601 11.45C11.7501 11.61 12.8501 11.21 14.0601 10.28C14.2501 10.13 14.5201 10.17 14.6701 10.36C14.8201 10.55 14.7801 10.82 14.5901 10.97C13.1801 12.05 11.8501 12.51 10.6301 12.31C9.95005 12.2 9.47005 11.93 8.91005 11.61C8.28005 11.26 7.57005 10.86 6.34005 10.56C5.56005 10.37 5.15005 10.37 4.83005 10.57C4.49005 10.78 4.27005 11.22 4.21005 11.81C4.09005 12.93 4.98005 13.76 5.15005 13.92C5.33005 14.08 5.35005 14.35 5.19005 14.53C5.10005 14.63 4.98005 14.68 4.86005 14.68V14.67Z" fill="black"/>
<path d="M8.2701 22.09C8.1601 22.09 8.0501 22.09 7.94009 22.08C6.7801 22 5.64009 21.47 4.71009 20.61C3.78009 19.75 3.18009 18.64 3.01009 17.49C2.84009 16.31 3.15009 15.22 3.88009 14.44C5.37009 12.85 8.15009 13.02 10.1001 14.83C11.0301 15.7 11.6301 16.8 11.8001 17.95C11.9701 19.13 11.6601 20.22 10.9301 21C10.2701 21.71 9.33009 22.1 8.28009 22.1L8.2701 22.09ZM6.54009 14.21C5.75009 14.21 5.03009 14.48 4.51009 15.03C3.96009 15.62 3.73009 16.45 3.86009 17.37C4.00009 18.32 4.51009 19.25 5.29009 19.98C6.07009 20.71 7.04009 21.15 8.00009 21.22C8.92009 21.29 9.74009 21 10.2901 20.41C10.8401 19.82 11.0701 18.99 10.9401 18.07C10.8001 17.12 10.2901 16.19 9.5101 15.46C8.6201 14.63 7.53009 14.21 6.54009 14.21Z" fill="black"/>
<path d="M15.0599 18.42H11.3599C11.1199 18.42 10.9299 18.23 10.9299 17.99C10.9299 17.75 11.1199 17.56 11.3599 17.56H15.0599C15.2999 17.56 15.4899 17.75 15.4899 17.99C15.4899 18.23 15.2999 18.42 15.0599 18.42Z" fill="black"/>
<path d="M19.5999 33.5C19.5099 33.5 19.4099 33.47 19.3299 33.41C19.0799 33.21 18.8399 32.98 18.6399 32.73C18.4299 32.48 18.2499 32.2 18.0999 31.91C17.9899 31.7 18.0799 31.44 18.2899 31.33C18.4999 31.22 18.7599 31.31 18.8699 31.52C18.9899 31.76 19.1399 31.99 19.2999 32.19C19.4699 32.4 19.6599 32.58 19.8599 32.75C20.0499 32.9 20.0799 33.17 19.9299 33.36C19.8399 33.47 19.7199 33.52 19.5899 33.52L19.5999 33.5Z" fill="black"/>
<path d="M19.6701 28.09C19.6701 28.09 19.6401 28.09 19.6301 28.09C19.3901 28.07 19.2201 27.86 19.2401 27.62C19.2901 27.12 19.2301 26.61 19.0601 26.15C18.9201 25.75 18.7201 25.39 18.4601 25.07C18.3101 24.88 18.3401 24.61 18.5201 24.46C18.7101 24.31 18.9801 24.34 19.1301 24.52C19.4601 24.92 19.7101 25.37 19.8801 25.87C20.0801 26.45 20.1601 27.09 20.1001 27.71C20.0801 27.93 19.8901 28.1 19.6701 28.1V28.09Z" fill="black"/>
<path d="M27.1999 44.26H20.7999C20.5799 44.26 20.3899 44.09 20.3699 43.87C20.2599 42.68 20.1199 41.58 19.9599 40.6C19.9199 40.36 20.0799 40.14 20.3099 40.1C20.5499 40.05 20.7699 40.22 20.8099 40.45C20.9599 41.34 21.0899 42.32 21.1899 43.39H26.8099C27.2099 39.31 27.9199 36.59 28.9799 35.09C29.2399 34.72 29.9399 33.74 29.7099 32.83C29.6399 32.54 29.4699 32.26 29.2099 32C29.0799 31.87 29.0499 31.68 29.1199 31.51C29.5699 30.55 30.0299 29.03 29.6899 27.24C29.5399 26.46 29.2599 25.7 28.8399 25C28.7899 24.91 28.7699 24.8 28.7899 24.7C28.9699 23.73 29.2899 22.79 29.7299 21.92C30.2099 20.97 30.6999 20.36 31.1799 19.77C31.5999 19.25 32.0399 18.71 32.4799 17.92C32.7299 17.48 33.3199 16.31 33.5799 15.01C34.0599 12.56 33.2999 9.69 31.6399 7.71C30.4599 6.29 28.2099 4.58 24.2399 4.49C24.0799 4.49 23.9299 4.49 23.7799 4.49C19.7999 4.58 17.5499 6.29 16.3699 7.71C14.7199 9.7 13.9599 12.56 14.4299 15.01C14.6899 16.32 15.2799 17.48 15.5299 17.92C15.9699 18.71 16.3999 19.25 16.8299 19.77C17.3099 20.36 17.8099 20.97 18.2799 21.92C18.7199 22.79 19.0299 23.72 19.2199 24.7C19.2399 24.8 19.2199 24.91 19.1699 25C18.7499 25.7 18.4599 26.45 18.3199 27.24C17.9799 29.03 18.4499 30.55 18.8899 31.51C18.9699 31.68 18.9299 31.87 18.7999 32C18.5399 32.26 18.3699 32.54 18.2999 32.83C18.0699 33.75 18.7699 34.72 18.9999 35.04C19.3699 35.56 19.6799 36.18 19.9499 36.91C20.0299 37.13 19.9199 37.38 19.6899 37.46C19.4699 37.54 19.2199 37.43 19.1399 37.2C18.8999 36.54 18.6299 35.99 18.3299 35.58C18.0099 35.13 17.1299 33.91 17.4599 32.61C17.5499 32.25 17.7299 31.91 17.9899 31.6C17.5299 30.52 17.1199 28.93 17.4699 27.07C17.6299 26.24 17.9199 25.44 18.3499 24.69C18.1799 23.85 17.8999 23.04 17.5199 22.29C17.0799 21.42 16.6399 20.88 16.1699 20.29C15.7299 19.74 15.2699 19.18 14.7899 18.32C14.4599 17.73 13.8699 16.53 13.5999 15.15C13.0699 12.46 13.8999 9.31 15.7199 7.13C17.0199 5.57 19.4699 3.7 23.7699 3.6C23.9499 3.6 24.1099 3.6 24.2799 3.6C28.5899 3.7 31.0399 5.58 32.3299 7.13C34.1399 9.31 34.9799 12.46 34.4499 15.15C34.1799 16.53 33.5899 17.73 33.2599 18.32C32.7799 19.18 32.3199 19.74 31.8799 20.29C31.4099 20.87 30.9599 21.42 30.5299 22.29C30.1499 23.04 29.8699 23.85 29.6999 24.69C30.1299 25.44 30.4199 26.24 30.5799 27.07C30.9299 28.93 30.5199 30.52 30.0599 31.6C30.3199 31.91 30.4999 32.25 30.5899 32.61C30.9199 33.91 30.0499 35.14 29.7599 35.54C28.7299 36.98 28.0399 39.77 27.6699 43.86C27.6499 44.08 27.4599 44.25 27.2399 44.25L27.1999 44.26Z" fill="black"/>
<path d="M44.5301 16.21C44.3801 16.21 44.2401 16.14 44.1601 16C44.0401 15.8 44.1001 15.53 44.3101 15.41C44.9701 15.01 46.5601 13.87 47.0201 11.86C47.1501 11.31 47.1701 10.72 47.1001 10.15C46.8601 8.3 45.4901 6.14 43.6901 5.87C43.0001 5.77 42.3801 6.03 41.0201 6.61C39.9101 7.08 39.2901 7.5 38.7501 7.87C38.2501 8.21 37.8101 8.51 37.1701 8.71C35.6501 9.21 33.8301 8.91 31.7801 7.82C31.5701 7.71 31.4901 7.45 31.6001 7.24C31.7101 7.03 31.9801 6.95 32.1801 7.06C34.0201 8.04 35.6001 8.32 36.8901 7.9C37.4201 7.73 37.7801 7.48 38.2501 7.16C38.8001 6.79 39.4901 6.32 40.6701 5.82C42.0901 5.22 42.8801 4.89 43.8001 5.02C46.0301 5.35 47.6601 7.83 47.9401 10.04C48.0301 10.71 47.9901 11.4 47.8501 12.05C47.3301 14.38 45.5101 15.69 44.7501 16.15C44.6801 16.19 44.6001 16.21 44.5301 16.21Z" fill="black"/>
<path d="M43.14 14.67C43.02 14.67 42.9 14.62 42.81 14.52C42.65 14.34 42.67 14.07 42.85 13.91C43.03 13.75 43.91 12.92 43.79 11.8C43.76 11.46 43.63 10.85 43.17 10.56C42.85 10.36 42.45 10.35 41.66 10.55C40.43 10.85 39.72 11.25 39.1 11.6C38.54 11.92 38.05 12.19 37.38 12.3C36.16 12.49 34.83 12.04 33.42 10.96C33.23 10.82 33.19 10.54 33.34 10.35C33.48 10.16 33.76 10.12 33.95 10.27C35.16 11.2 36.28 11.59 37.25 11.44C37.77 11.36 38.18 11.13 38.69 10.84C39.33 10.48 40.13 10.03 41.47 9.7C42.16 9.53 42.96 9.39 43.64 9.82C44.21 10.18 44.57 10.85 44.66 11.71C44.82 13.25 43.66 14.35 43.43 14.56C43.35 14.63 43.25 14.67 43.15 14.67H43.14Z" fill="black"/>
<path d="M38.51 21.88C38.46 21.88 38.41 21.88 38.36 21.85C37.86 21.66 37.43 21.38 37.08 21C36.35 20.21 36.04 19.13 36.21 17.95C36.38 16.8 36.98 15.69 37.91 14.83C39.85 13.02 42.64 12.85 44.12 14.44C44.85 15.23 45.16 16.31 44.99 17.49C44.82 18.64 44.22 19.75 43.29 20.61C43.04 20.84 42.77 21.06 42.48 21.24C42.28 21.37 42.01 21.31 41.88 21.11C41.75 20.91 41.81 20.64 42.01 20.51C42.25 20.35 42.48 20.17 42.7 19.97C43.48 19.24 43.99 18.31 44.13 17.36C44.26 16.44 44.03 15.61 43.48 15.02C42.32 13.78 40.08 13.97 38.49 15.45C37.71 16.18 37.2 17.11 37.06 18.06C36.93 18.98 37.16 19.81 37.71 20.4C37.97 20.68 38.29 20.89 38.66 21.03C38.88 21.11 39 21.36 38.91 21.59C38.84 21.76 38.68 21.87 38.51 21.87V21.88Z" fill="black"/>
<path d="M36.64 18.42H32.94C32.7 18.42 32.51 18.23 32.51 17.99C32.51 17.75 32.7 17.56 32.94 17.56H36.64C36.88 17.56 37.07 17.75 37.07 17.99C37.07 18.23 36.88 18.42 36.64 18.42Z" fill="black"/>
<path d="M28.4001 33.5C28.2701 33.5 28.1501 33.44 28.0601 33.34C27.9101 33.15 27.9401 32.88 28.1301 32.73C28.3401 32.57 28.5201 32.38 28.6901 32.17C28.8601 31.97 29.0001 31.74 29.1201 31.5C29.2301 31.29 29.4901 31.2 29.7001 31.31C29.9101 31.42 30.0001 31.68 29.8901 31.89C29.7401 32.18 29.5601 32.46 29.3501 32.71C29.1401 32.96 28.9101 33.19 28.6601 33.39C28.5801 33.45 28.4901 33.48 28.3901 33.48L28.4001 33.5Z" fill="black"/>
<path d="M28.3401 28.09C28.1201 28.09 27.9301 27.92 27.9101 27.7C27.8501 27.08 27.9301 26.45 28.1301 25.86C28.3001 25.37 28.5501 24.91 28.8801 24.51C29.0301 24.33 29.3001 24.3 29.4901 24.45C29.6701 24.6 29.7001 24.87 29.5501 25.06C29.2901 25.38 29.0801 25.75 28.9501 26.14C28.7901 26.61 28.7301 27.12 28.7701 27.61C28.7901 27.85 28.6201 28.06 28.3801 28.08C28.3701 28.08 28.3501 28.08 28.3401 28.08V28.09Z" fill="black"/>
<path d="M40.8 21.04C40.59 20.83 40.27 20.83 40.07 21.04C39.88 21.25 39.86 21.57 40.07 21.77C40.28 21.96 40.6 21.98 40.8 21.77C41 21.58 41.01 21.27 40.82 21.07C40.82 21.07 40.81 21.06 40.8 21.05V21.04Z" fill="black"/>
<path d="M20.3599 39.25C20.5599 39.06 20.5699 38.76 20.3799 38.56C20.3799 38.56 20.3699 38.55 20.3599 38.54C20.1599 38.34 19.8399 38.34 19.6499 38.54C19.4599 38.74 19.4499 39.06 19.6499 39.25C19.8499 39.44 20.1699 39.45 20.3599 39.25Z" fill="black"/>
<path d="M7.16999 6.39C7.36999 6.2 7.37999 5.9 7.18999 5.7C7.18999 5.7 7.17999 5.69 7.16999 5.68C6.96999 5.48 6.64999 5.48 6.45999 5.68C6.26999 5.88 6.25999 6.2 6.45999 6.39C6.65999 6.58 6.97999 6.59 7.16999 6.39Z" fill="black"/>
</svg>
