<svg width="48" height="48" viewBox="0 0 48 48" fill="none" xmlns="http://www.w3.org/2000/svg">
<g clip-path="url(#clip0_1298_2935)">
<path d="M6.32996 11.33C6.32996 11.33 6.31996 11.32 6.30996 11.31C6.12996 11.13 5.83996 11.13 5.65996 11.31C5.48996 11.49 5.47996 11.78 5.65996 11.96C5.83996 12.13 6.12996 12.14 6.30996 11.96C6.48996 11.79 6.49996 11.51 6.32996 11.33Z" fill="black"/>
<path d="M8.59002 12.75C8.42002 12.93 8.41002 13.22 8.59002 13.4C8.77002 13.57 9.06002 13.58 9.24002 13.4C9.42002 13.23 9.43002 12.95 9.26002 12.77C9.26002 12.77 9.25002 12.76 9.24002 12.75C9.06002 12.57 8.77002 12.57 8.59002 12.75Z" fill="black"/>
<path d="M13.0901 14.66C13.2701 14.49 13.2801 14.21 13.1101 14.03C13.1101 14.03 13.1001 14.02 13.0901 14.01C12.9101 13.83 12.6201 13.83 12.4401 14.01C12.2601 14.19 12.2601 14.48 12.4401 14.66C12.6201 14.83 12.9101 14.84 13.0901 14.66Z" fill="black"/>
<path d="M14.75 16.08C14.57 15.9 14.28 15.9 14.1 16.08C13.93 16.26 13.92 16.55 14.1 16.73C14.28 16.9 14.57 16.91 14.75 16.73C14.93 16.56 14.94 16.28 14.77 16.1C14.77 16.1 14.76 16.09 14.75 16.08Z" fill="black"/>
<path d="M16.32 14.74C16.5 14.57 16.51 14.29 16.34 14.11C16.34 14.11 16.33 14.1 16.32 14.09C16.14 13.91 15.85 13.91 15.67 14.09C15.5 14.27 15.49 14.56 15.67 14.74C15.85 14.91 16.14 14.92 16.32 14.74Z" fill="black"/>
<path d="M27.72 30.05C27.54 29.87 27.25 29.87 27.07 30.05C26.9 30.23 26.89 30.52 27.07 30.7C27.25 30.88 27.54 30.88 27.72 30.7C27.9 30.53 27.91 30.25 27.74 30.07C27.74 30.07 27.73 30.06 27.72 30.05Z" fill="black"/>
<path d="M27.83 32.68C27.65 32.5 27.36 32.5 27.18 32.68C27.01 32.86 27 33.15 27.18 33.33C27.36 33.5 27.65 33.51 27.83 33.33C28.01 33.16 28.02 32.88 27.85 32.7C27.85 32.7 27.84 32.69 27.83 32.68Z" fill="black"/>
<path d="M28.96 36.74C29.14 36.57 29.15 36.29 28.98 36.11C28.98 36.11 28.97 36.1 28.96 36.09C28.78 35.91 28.49 35.91 28.31 36.09C28.14 36.27 28.13 36.56 28.31 36.74C28.49 36.91 28.78 36.92 28.96 36.74Z" fill="black"/>
<path d="M26.66 40.34C26.84 40.17 26.85 39.89 26.68 39.71C26.68 39.71 26.67 39.7 26.66 39.69C26.48 39.51 26.19 39.51 26.01 39.69C25.83 39.87 25.83 40.16 26.01 40.34C26.19 40.51 26.48 40.52 26.66 40.34Z" fill="black"/>
<path d="M27.65 43.1C27.83 43.27 28.12 43.28 28.3 43.1C28.48 42.93 28.49 42.65 28.32 42.47C28.32 42.47 28.31 42.46 28.3 42.45C28.12 42.27 27.83 42.27 27.65 42.45C27.48 42.63 27.47 42.92 27.65 43.1Z" fill="black"/>
<path d="M25.73 42.76C25.91 42.59 25.92 42.31 25.75 42.13C25.75 42.13 25.74 42.12 25.73 42.11C25.55 41.93 25.26 41.93 25.08 42.11C24.91 42.29 24.9 42.58 25.08 42.76C25.26 42.93 25.55 42.94 25.73 42.76Z" fill="black"/>
<path d="M12.25 42C12.43 41.83 12.44 41.55 12.27 41.37C12.27 41.37 12.26 41.36 12.25 41.35C12.07 41.17 11.78 41.17 11.6 41.35C11.43 41.53 11.42 41.82 11.6 42C11.78 42.18 12.07 42.18 12.25 42Z" fill="black"/>
<path d="M13.37 7.04C13.55 6.87 13.56 6.59 13.39 6.41C13.39 6.41 13.38 6.4 13.37 6.39C13.19 6.21 12.9 6.21 12.72 6.39C12.55 6.57 12.54 6.86 12.72 7.04C12.9 7.21 13.19 7.22 13.37 7.04Z" fill="black"/>
<path d="M29.62 30.51C29.45 30.69 29.44 30.98 29.62 31.16C29.8 31.33 30.09 31.34 30.27 31.16C30.45 30.99 30.46 30.71 30.29 30.53C30.29 30.53 30.28 30.52 30.27 30.51C30.09 30.33 29.8 30.33 29.62 30.51Z" fill="black"/>
<path d="M19.6599 11.53C19.8399 11.36 19.8499 11.08 19.6799 10.9C19.6799 10.9 19.6699 10.89 19.6599 10.88C19.4799 10.7 19.1899 10.7 19.0099 10.88C18.8399 11.06 18.8299 11.35 19.0099 11.53C19.1899 11.7 19.4799 11.71 19.6599 11.53Z" fill="black"/>
<path d="M21.5 12.3C21.68 12.47 21.97 12.48 22.15 12.3C22.33 12.13 22.34 11.85 22.17 11.67C22.17 11.67 22.16 11.66 22.15 11.65C21.97 11.47 21.68 11.47 21.5 11.65C21.32 11.83 21.32 12.12 21.5 12.3Z" fill="black"/>
<path d="M22.32 9.74C22.5 9.57 22.51 9.29 22.34 9.11C22.34 9.11 22.33 9.1 22.32 9.09C22.14 8.91 21.85 8.91 21.67 9.09C21.5 9.27 21.49 9.56 21.67 9.74C21.85 9.92 22.14 9.92 22.32 9.74Z" fill="black"/>
<path d="M33.09 8.9C33.27 8.73 33.28 8.45 33.11 8.27C33.11 8.27 33.1 8.26 33.09 8.25C32.91 8.07 32.62 8.07 32.44 8.25C32.27 8.43 32.26 8.72 32.44 8.9C32.62 9.07 32.91 9.08 33.09 8.9Z" fill="black"/>
<path d="M34.18 11.3C34.36 11.13 34.37 10.85 34.2 10.67C34.2 10.67 34.19 10.66 34.18 10.65C34 10.47 33.71 10.47 33.53 10.65C33.36 10.83 33.35 11.12 33.53 11.3C33.71 11.47 34 11.48 34.18 11.3Z" fill="black"/>
<path d="M37.33 12.08C37.51 11.91 37.52 11.63 37.35 11.45C37.35 11.45 37.34 11.44 37.33 11.43C37.15 11.25 36.86 11.25 36.68 11.43C36.51 11.61 36.5 11.9 36.68 12.08C36.86 12.25 37.15 12.26 37.33 12.08Z" fill="black"/>
<path d="M36.2899 9.74C36.4699 9.57 36.4799 9.29 36.3099 9.11C36.3099 9.11 36.2999 9.1 36.2899 9.09C36.1099 8.91 35.8199 8.91 35.6399 9.09C35.4699 9.27 35.4599 9.56 35.6399 9.74C35.8199 9.92 36.1099 9.92 36.2899 9.74Z" fill="black"/>
<path d="M39.4199 10.5C39.5999 10.33 39.6099 10.05 39.4399 9.87C39.4399 9.87 39.4299 9.86 39.4199 9.85C39.2399 9.67 38.9499 9.67 38.7699 9.85C38.5999 10.03 38.5899 10.32 38.7699 10.5C38.9499 10.68 39.2399 10.68 39.4199 10.5Z" fill="black"/>
<path d="M6.91995 14.54C7.09995 14.37 7.10995 14.09 6.93995 13.91C6.93995 13.91 6.92995 13.9 6.91995 13.89C6.73995 13.71 6.44995 13.71 6.26995 13.89C6.09995 14.07 6.08995 14.36 6.26995 14.54C6.44995 14.71 6.73995 14.72 6.91995 14.54Z" fill="black"/>
<path d="M14.7799 28.83C14.8699 28.94 14.9899 29 15.1199 29C15.2099 29 15.3099 28.97 15.3899 28.91C16.9499 27.69 18.0399 26.2 18.5499 24.59C18.9599 23.31 18.9699 22.09 18.9899 19.88C18.9899 18.85 18.9699 17.81 18.8899 16.8C18.8699 16.56 18.6599 16.39 18.4299 16.4C18.1899 16.42 18.0099 16.62 18.0299 16.86C18.0999 17.84 18.1299 18.86 18.1199 19.86C18.0999 22.06 18.0899 23.16 17.7199 24.31C17.2599 25.75 16.2699 27.1 14.8499 28.21C14.6599 28.36 14.6299 28.63 14.7799 28.82V28.83Z" fill="black"/>
<path d="M46.86 43.2C46.74 42.77 46.6 42.27 46.43 41.6C45.93 39.6 45.72 38.67 45.79 37.59C45.82 37.09 45.89 36.83 45.97 36.48C46.04 36.19 46.13 35.85 46.22 35.31C46.51 33.59 46.46 32.26 46.42 31.19V30.97C46.33 28.9 46.31 25.67 46.33 20.51C46.73 19.54 47.02 18.55 47.18 17.53C47.41 16.05 48.02 12.1 45.64 9.69C44.78 8.81 43.75 8.47 41.7 7.78C40.17 7.27 39.29 7.15 38.44 7.03C37.73 6.93 36.99 6.83 35.83 6.49L35.69 6.45C33.68 5.85 30.91 5.03 30.11 2.9C29.84 2.17 29.76 1.37 29.88 0.530001C29.9 0.410001 29.86 0.280001 29.78 0.190001C29.7 0.100001 29.58 0.0400009 29.45 0.0400009H24.03C24.03 0.0400009 24.01 0.0400009 24 0.0400009C23.99 0.0400009 23.98 0.0400009 23.97 0.0400009H18.55C18.42 0.0400009 18.31 0.0900009 18.22 0.190001C18.14 0.280001 18.1 0.410001 18.12 0.530001C18.24 1.38 18.16 2.18 17.89 2.9C17.46 4.05 16.45 4.92 14.73 5.64C14.51 5.73 14.4 5.98 14.5 6.2C14.57 6.37 14.73 6.47 14.9 6.47C14.96 6.47 15.01 6.46 15.07 6.44C16.83 5.71 17.97 4.76 18.55 3.56C18.94 3.8 19.48 4.22 19.8 4.96C19.98 5.37 20.33 6.45 19.75 7.44C19.26 8.27 18.31 8.76 17.27 8.72C17.02 8.7 16.87 8.86 16.83 9.07C16.54 10.52 15.33 11.65 13.89 11.82C12.56 11.97 11.25 11.3 10.56 10.11C10.47 9.95 10.28 9.86 10.1 9.9C9.78999 9.96 8.97999 10.07 8.14999 9.6C7.56999 9.28 7.23999 8.83 7.04999 8.47C8.21999 8.11 8.93999 8.01 9.69999 7.9C10.13 7.84 10.56 7.78 11.08 7.67C11.31 7.62 11.46 7.39 11.42 7.16C11.37 6.93 11.14 6.77 10.91 6.82C10.42 6.92 9.99999 6.98 9.58999 7.04C8.73999 7.16 7.85999 7.28 6.32999 7.79C4.28999 8.47 3.25999 8.82 2.39999 9.69C-0.0100117 12.08 0.599988 16.02 0.829988 17.51C0.989988 18.53 1.27999 19.53 1.67999 20.5C1.69999 25.67 1.67999 28.9 1.58999 30.96V31.19C1.53999 32.26 1.48999 33.58 1.77999 35.3C1.86999 35.84 1.95999 36.19 2.02999 36.47C2.11999 36.83 2.17999 37.09 2.20999 37.58C2.27999 38.66 2.05999 39.59 1.56999 41.59C1.39999 42.26 1.25999 42.77 1.13999 43.2C0.899988 44.07 0.739988 44.64 0.649988 45.62C0.589988 46.27 0.579988 46.93 0.609988 47.59C0.619988 47.82 0.809988 48 1.03999 48H8.79999C8.91999 48 9.03999 47.95 9.11999 47.86C9.19999 47.77 9.23999 47.65 9.22999 47.53C8.93999 44.8 8.96999 42.04 9.33999 39.33C9.58999 37.47 9.99999 35.63 10.55 33.84C10.61 34.15 10.68 34.44 10.74 34.72C10.99 35.88 11.21 36.87 11.4 38.71C11.44 39.06 11.47 39.39 11.5 39.73C11.52 39.96 11.71 40.13 11.93 40.13C11.94 40.13 11.95 40.13 11.96 40.13C12.2 40.11 12.38 39.9 12.36 39.66C12.33 39.32 12.3 38.98 12.25 38.53C12.07 36.74 11.84 35.72 11.58 34.54C11.43 33.83 11.26 33.08 11.08 32.06C10.54 28.92 10.45 26.44 10.41 25.25C10.34 23.36 10.38 21.44 10.53 19.55C10.55 19.31 10.37 19.1 10.13 19.09C9.86999 19.08 9.68999 19.25 9.66999 19.49C9.51999 21.41 9.47999 23.36 9.54999 25.28C9.58999 26.48 9.67999 28.96 10.22 32.1C9.39999 34.41 8.80999 36.8 8.48999 39.22C8.13999 41.84 8.08999 44.51 8.32999 47.15H1.45999C1.45999 46.67 1.45999 46.19 1.50999 45.72C1.58999 44.82 1.73999 44.3 1.96999 43.45C2.08999 43.02 2.22999 42.5 2.39999 41.82C2.87999 39.88 3.14999 38.8 3.06999 37.54C3.02999 36.97 2.95999 36.66 2.85999 36.28C2.78999 36.01 2.70999 35.69 2.62999 35.17C2.35999 33.54 2.39999 32.32 2.43999 31.24V31.01C2.51999 29.18 2.54999 26.44 2.53999 22.26C2.62999 22.41 2.69999 22.57 2.79999 22.71C2.87999 22.84 3.01999 22.91 3.15999 22.91C3.23999 22.91 3.31999 22.89 3.38999 22.84C3.58999 22.71 3.64999 22.44 3.51999 22.24C2.55999 20.72 1.92999 19.09 1.66999 17.39C1.45999 16.02 0.899988 12.39 2.96999 10.28C3.63999 9.6 4.52999 9.27 6.18999 8.71C6.41999 9.19 6.87999 9.86 7.70999 10.32C8.57999 10.81 9.43999 10.82 9.95999 10.76C10.76 11.96 12.09 12.67 13.5 12.67C13.66 12.67 13.82 12.67 13.98 12.64C15.7 12.44 17.11 11.22 17.58 9.55C18.8 9.49 19.9 8.86 20.49 7.85C21.27 6.51 20.82 5.12 20.59 4.59C20.14 3.55 19.36 2.99 18.86 2.71C19.02 2.13 19.08 1.51 19.04 0.880001H23.98C23.98 0.880001 24 0.880001 24.01 0.880001C24.02 0.880001 24.03 0.880001 24.04 0.880001H28.98C28.93 1.69 29.04 2.47 29.31 3.19C30.26 5.72 33.26 6.61 35.45 7.26L35.59 7.3C36.81 7.66 37.58 7.77 38.33 7.87C39.18 7.99 39.98 8.1 41.43 8.58C43.35 9.22 44.31 9.55 45.02 10.27C47.1 12.38 46.53 16.01 46.32 17.37C46.06 19.07 45.43 20.71 44.47 22.22C44.34 22.42 44.4 22.69 44.6 22.82C44.67 22.87 44.75 22.89 44.83 22.89C44.97 22.89 45.11 22.82 45.19 22.69C45.28 22.54 45.36 22.39 45.45 22.24C45.45 26.41 45.47 29.15 45.54 30.99V31.21C45.59 32.29 45.64 33.52 45.36 35.15C45.27 35.66 45.19 35.98 45.13 36.26C45.04 36.65 44.96 36.95 44.92 37.53C44.84 38.79 45.1 39.86 45.59 41.81C45.76 42.49 45.9 43 46.02 43.44C46.26 44.29 46.4 44.81 46.49 45.71C46.53 46.19 46.55 46.67 46.54 47.14H39.67C39.92 44.5 39.86 41.83 39.51 39.21C39.18 36.78 38.6 34.39 37.78 32.09C38.32 28.94 38.4 26.46 38.45 25.27C38.52 23.34 38.48 21.39 38.33 19.48C38.31 19.24 38.13 19.07 37.87 19.08C37.63 19.1 37.45 19.31 37.47 19.54C37.61 21.42 37.65 23.34 37.59 25.24C37.57 25.86 37.53 26.82 37.43 28.04C37.35 28 37.25 27.99 37.16 28.01C36.22 28.25 34.88 28.78 33.88 30.01C33.71 30.22 33.55 30.44 33.41 30.68C33.02 30.82 32.66 31.03 32.34 31.29C31.94 31.62 31.6 32.03 31.37 32.5C30.97 32.65 30.59 32.86 30.25 33.11C29.76 33.47 29.33 33.92 29 34.44C28.87 34.64 28.93 34.91 29.13 35.04C29.2 35.09 29.28 35.11 29.36 35.11C29.5 35.11 29.64 35.04 29.72 34.91C30 34.48 30.34 34.11 30.75 33.81C31.08 33.57 31.44 33.39 31.82 33.26C31.93 33.22 32.03 33.14 32.08 33.03C32.21 32.74 32.45 32.33 32.89 31.97C33.17 31.74 33.49 31.57 33.84 31.46C33.95 31.43 34.03 31.35 34.09 31.26C34.23 31.02 34.38 30.79 34.56 30.57C35.41 29.53 36.56 29.07 37.37 28.86C37.27 29.81 37.13 30.89 36.93 32.06C36.75 33.07 36.59 33.83 36.43 34.53C36.17 35.71 35.95 36.74 35.76 38.53C35.65 39.57 35.55 40.56 35.59 41.85C35.63 43.09 35.79 44.32 36.06 45.53C35.69 45.54 35.19 45.49 34.69 45.19C34.35 44.98 34.06 44.68 33.86 44.33C33.76 44.16 33.56 44.07 33.37 44.13C33.21 44.17 32.38 44.36 31.65 43.83C31.06 43.4 30.76 42.67 30.86 41.91C30.88 41.76 30.82 41.62 30.71 41.52C30.29 41.16 29.92 40.75 29.64 40.28C29.25 39.65 29.01 38.95 28.91 38.2C28.88 37.96 28.66 37.8 28.43 37.82C28.19 37.85 28.02 38.06 28.05 38.3C28.16 39.17 28.44 39.99 28.9 40.73C29.2 41.21 29.56 41.65 29.98 42.03C29.93 43.01 30.36 43.95 31.14 44.52C31.93 45.1 32.81 45.09 33.28 45.02C33.54 45.39 33.87 45.7 34.24 45.93C34.86 46.31 35.49 46.4 35.98 46.4C36.09 46.4 36.18 46.4 36.27 46.38C36.34 46.63 36.4 46.89 36.48 47.14H11.53C11.92 45.88 12.19 44.59 12.32 43.29C12.34 43.05 12.17 42.84 11.93 42.82C11.71 42.79 11.48 42.97 11.46 43.21C11.31 44.64 11 46.06 10.52 47.44C10.47 47.57 10.5 47.72 10.58 47.83C10.66 47.94 10.79 48.01 10.93 48.01H37.06C37.2 48.01 37.33 47.94 37.41 47.83C37.49 47.72 37.51 47.57 37.47 47.44C36.84 45.62 36.5 43.73 36.44 41.83C36.4 40.59 36.5 39.63 36.6 38.62C36.78 36.88 37 35.88 37.25 34.72C37.31 34.44 37.37 34.15 37.44 33.85C37.99 35.64 38.4 37.48 38.65 39.34C39.01 42.05 39.05 44.81 38.76 47.54C38.75 47.66 38.79 47.78 38.87 47.87C38.95 47.96 39.07 48.01 39.19 48.01H46.95C47.18 48.01 47.37 47.83 47.38 47.6C47.41 46.95 47.4 46.29 47.34 45.63C47.25 44.65 47.09 44.07 46.85 43.2H46.86Z" fill="black"/>
<path d="M29.5699 16.4C29.3099 16.38 29.1299 16.56 29.1099 16.8C29.0399 17.83 28.9999 18.86 29.0099 19.89C29.0299 22.1 29.0399 23.31 29.4499 24.59C29.9599 26.2 31.0599 27.69 32.6099 28.91C32.6899 28.97 32.7799 29 32.8799 29C33.0099 29 33.1399 28.94 33.2199 28.83C33.3699 28.64 33.3299 28.37 33.1499 28.22C31.7299 27.11 30.7399 25.76 30.2799 24.32C29.9099 23.17 29.8999 22.07 29.8799 19.87C29.8699 18.88 29.8999 17.87 29.9699 16.87C29.9899 16.63 29.8099 16.43 29.5699 16.41V16.4Z" fill="black"/>
</g>
<defs>
<clipPath id="clip0_1298_2935">
<rect width="48" height="48" fill="white"/>
</clipPath>
</defs>
</svg>
