<svg width="48" height="48" viewBox="0 0 48 48" fill="none" xmlns="http://www.w3.org/2000/svg">
<g clip-path="url(#clip0_1298_2613)">
<path d="M12.49 23.8C12.28 23.39 12.09 22.98 11.95 22.61C11.11 20.42 10.15 15.86 11.93 12.66C14.62 7.8 23.43 6.41 29.65 8.21C29.88 8.28 30.12 8.14 30.19 7.91C30.26 7.68 30.12 7.44 29.89 7.37C23.22 5.44 14.11 6.94 11.17 12.24C10.66 13.16 10.36 14.19 10.2 15.24C8.12 15.74 6.15 15.21 5.36 13.91C5.07 13.44 4.94 12.87 4.97 12.19V0.43C4.97 0.19 4.78 0 4.54 0H0.43C0.19 0 0 0.19 0 0.43V13.36C0 14.89 0.62 16.37 1.76 17.56C3.44 19.31 5.89 19.59 6.93 19.71C7.33 19.76 7.74 19.78 8.15 19.78C8.86 19.78 9.57 19.7 10.27 19.56C10.48 20.89 10.82 22.08 11.14 22.93C11.3 23.34 11.49 23.77 11.72 24.21C11.8 24.36 11.95 24.44 12.1 24.44C12.17 24.44 12.23 24.42 12.3 24.39C12.51 24.28 12.6 24.02 12.49 23.81V23.8ZM7.03 18.85C6 18.73 3.85 18.49 2.38 16.96C1.4 15.94 0.86 14.66 0.86 13.37V0.86H4.1V12.17C4.06 12.99 4.24 13.74 4.61 14.36C5.55 15.91 7.77 16.6 10.09 16.13C10.03 17 10.05 17.86 10.14 18.69C9.1 18.9 8.05 18.95 7.01 18.83L7.03 18.85Z" fill="black"/>
<path d="M47.57 0H43.46C43.22 0 43.03 0.19 43.03 0.43V12.22C43.06 12.87 42.93 13.45 42.65 13.92C41.86 15.22 39.88 15.75 37.81 15.25C37.66 14.2 37.35 13.18 36.84 12.25C36.19 11.07 35.19 10.03 33.88 9.17C33.68 9.04 33.41 9.09 33.28 9.29C33.15 9.49 33.2 9.76 33.4 9.89C34.59 10.67 35.49 11.61 36.08 12.67C37.85 15.87 36.9 20.43 36.06 22.62C35.74 23.46 34.75 25.65 32.61 27.76C32.46 27.91 32.3 28.05 32.15 28.19C31.61 27.77 30.64 27.21 29.38 27.36C27.84 27.54 26.54 28.71 26.07 30.34C26.06 30.38 26.05 30.42 26.05 30.46V31.42C26.05 31.66 26.24 31.85 26.48 31.85C26.72 31.85 26.91 31.66 26.91 31.42V30.52C27.3 29.25 28.3 28.35 29.48 28.21C30.69 28.08 31.61 28.83 31.86 29.07C33.24 30.38 32.75 32.4 32.75 32.42C32.56 33.18 32.12 33.73 31.99 33.88C31.8 34.1 31.69 34.18 31.53 34.28C31.37 34.39 31.2 34.5 30.95 34.75C30.24 35.43 29.7 36.34 29.39 37.37C29.22 37.93 29.22 38.27 29.21 38.51C29.21 38.73 29.21 38.81 29.1 38.99C28.67 39.74 27.44 40.32 26.68 39.89C26.24 39.65 25.99 39.1 25.92 38.26C25.83 37.09 26.56 36.21 26.78 35.98C26.86 35.9 26.9 35.79 26.9 35.68V35.02C26.9 34.78 26.71 34.59 26.47 34.59C26.23 34.59 26.04 34.78 26.04 35.02V35.51C25.64 35.98 24.96 36.98 25.07 38.32C25.16 39.53 25.61 40.16 26.04 40.49V47.12H21.96V40.46C22.52 40.03 22.85 39.33 22.93 38.32C23.03 36.98 22.36 35.98 21.96 35.51V30.44C21.96 30.44 21.94 30.36 21.93 30.32C21.46 28.69 20.16 27.52 18.62 27.34C17.37 27.18 16.4 27.74 15.86 28.17C15.7 28.03 15.55 27.89 15.39 27.74C15.01 27.36 14.64 26.96 14.3 26.55C14.15 26.36 13.87 26.34 13.69 26.49C13.5 26.64 13.48 26.91 13.63 27.1C13.99 27.53 14.37 27.96 14.78 28.35C14.93 28.5 15.09 28.64 15.24 28.78C13.9 30.4 14.38 32.52 14.4 32.62C14.63 33.53 15.13 34.19 15.34 34.43C15.6 34.74 15.79 34.87 15.97 34.99C16.09 35.08 16.23 35.17 16.44 35.36C17.04 35.93 17.51 36.73 17.77 37.6C17.9 38.05 17.91 38.3 17.91 38.51C17.91 38.77 17.91 39.03 18.13 39.41C18.61 40.25 19.68 40.89 20.7 40.89C20.83 40.89 20.96 40.87 21.09 40.84V47.55C21.09 47.79 21.28 47.98 21.52 47.98H26.47C26.71 47.98 26.9 47.79 26.9 47.55V40.84C27.03 40.86 27.16 40.89 27.29 40.89C28.31 40.89 29.37 40.24 29.85 39.41C30.06 39.04 30.07 38.77 30.07 38.51C30.07 38.29 30.07 38.05 30.21 37.6C30.47 36.73 30.94 35.93 31.54 35.36C31.74 35.17 31.88 35.07 32.01 34.99C32.19 34.87 32.37 34.74 32.64 34.43C32.85 34.19 33.35 33.53 33.58 32.62C33.6 32.52 34.09 30.41 32.75 28.78C32.91 28.64 33.06 28.5 33.22 28.35C35.48 26.12 36.52 23.8 36.86 22.91C37.19 22.06 37.53 20.88 37.73 19.54C38.44 19.68 39.14 19.76 39.85 19.76C40.26 19.76 40.66 19.74 41.07 19.69C42.11 19.57 44.56 19.29 46.24 17.54C47.37 16.36 48 14.87 48 13.35V0.43C48 0.19 47.81 0 47.57 0ZM18.89 38.99C18.79 38.81 18.78 38.73 18.78 38.51C18.78 38.26 18.78 37.93 18.6 37.36C18.29 36.33 17.75 35.43 17.04 34.74C16.79 34.5 16.62 34.38 16.46 34.28C16.3 34.17 16.19 34.09 16 33.87C15.83 33.67 15.43 33.14 15.24 32.41C15.24 32.39 14.75 30.36 16.13 29.06C16.43 28.78 17.18 28.18 18.2 28.18C18.3 28.18 18.4 28.18 18.51 28.2C19.68 28.34 20.69 29.24 21.08 30.51V35.68C21.08 35.79 21.13 35.89 21.21 35.97C21.43 36.21 22.16 37.08 22.07 38.26C22 39.09 21.75 39.64 21.32 39.88C20.55 40.31 19.33 39.73 18.89 38.98V38.99ZM47.14 13.37C47.14 14.66 46.6 15.94 45.62 16.96C44.16 18.49 42.01 18.73 40.97 18.85C39.93 18.97 38.89 18.91 37.84 18.71C37.93 17.88 37.95 17.01 37.89 16.15C40.22 16.62 42.42 15.93 43.37 14.38C43.74 13.77 43.92 13.01 43.88 12.21V0.86H47.13V13.36L47.14 13.37Z" fill="black"/>
<path d="M32.1199 8.94C32.3199 8.75 32.3299 8.45 32.1399 8.25C32.1399 8.25 32.1299 8.24 32.1199 8.23C31.9199 8.03 31.5999 8.03 31.4099 8.23C31.2199 8.43 31.2099 8.75 31.4099 8.94C31.6099 9.13 31.9299 9.14 32.1199 8.94Z" fill="black"/>
<path d="M13.3299 25.18C13.1299 24.98 12.8099 24.98 12.6199 25.18C12.4299 25.38 12.4199 25.7 12.6199 25.89C12.8199 26.08 13.1399 26.09 13.3299 25.89C13.5299 25.7 13.5399 25.4 13.3499 25.2C13.3499 25.2 13.3399 25.19 13.3299 25.18Z" fill="black"/>
<path d="M26.8299 33.62C27.0299 33.43 27.0399 33.13 26.8499 32.93C26.8499 32.93 26.8399 32.92 26.8299 32.91C26.6299 32.71 26.3099 32.71 26.1199 32.91C25.9299 33.11 25.9199 33.43 26.1199 33.62C26.3199 33.81 26.6399 33.82 26.8299 33.62Z" fill="black"/>
</g>
<defs>
<clipPath id="clip0_1298_2613">
<rect width="48" height="48" fill="white"/>
</clipPath>
</defs>
</svg>
