<svg width="48" height="48" viewBox="0 0 48 48" fill="none" xmlns="http://www.w3.org/2000/svg">
<path d="M20.77 7.21C20.77 7.21 20.83 7.21 20.86 7.21C21.06 7.21 21.24 7.07 21.28 6.87C21.41 6.24 21.51 5.6 21.58 4.97C21.73 3.61 21.75 2.23 21.63 0.86H26.37C26.25 2.23 26.27 3.61 26.42 4.97C26.77 8.09 27.75 10.44 28.3 11.57C28.84 12.67 29.37 13.46 29.87 14.12C30.21 14.56 30.53 14.93 30.84 15.28C31.63 16.18 32.31 16.95 32.94 18.46C33.6 20.05 33.92 21.8 33.88 23.65C33.88 23.89 34.07 24.08 34.3 24.09C34.53 24.09 34.73 23.9 34.73 23.67C34.77 21.7 34.43 19.84 33.72 18.14C33.04 16.49 32.28 15.63 31.47 14.72C31.4 14.65 31.34 14.57 31.27 14.49C32.87 14.82 34.38 15.37 35.77 16.17C39.04 18.05 40.65 20.65 41.82 22.54L41.92 22.71C42 22.84 42.14 22.92 42.29 22.92C42.37 22.92 42.44 22.9 42.51 22.86C42.71 22.74 42.78 22.47 42.65 22.27L42.54 22.09C41.39 20.23 39.64 17.41 36.18 15.42C34.42 14.41 32.48 13.76 30.41 13.46C29.96 12.87 29.51 12.16 29.03 11.19C28.5 10.11 27.57 7.86 27.23 4.88C27.07 3.42 27.07 1.94 27.23 0.48C27.24 0.36 27.2 0.24 27.12 0.14C27.04 0.05 26.92 0 26.8 0H21.1C20.98 0 20.86 0.05 20.78 0.14C20.7 0.23 20.66 0.35 20.67 0.48C20.83 1.94 20.83 3.42 20.67 4.88C20.6 5.49 20.51 6.1 20.38 6.7C20.33 6.93 20.48 7.16 20.72 7.21H20.77Z" fill="black"/>
<path d="M21.2701 39.36C21.0401 39.31 20.8001 39.45 20.7501 39.68C19.9201 43.24 18.8601 45.05 17.2101 45.71C16.2901 46.08 15.5301 45.95 14.5601 45.79C13.3301 45.58 11.9301 45.35 9.87008 46.1C9.45008 46.25 9.08008 46.42 8.73008 46.58C7.86008 46.97 7.23008 47.26 6.38008 47.08C5.05009 46.81 4.22009 45.66 3.86009 45.16C3.00008 43.97 1.91008 41.72 2.37009 36.01C2.68008 32.23 3.06009 27.53 6.15008 22.53C7.32009 20.63 8.93008 18.03 12.2001 16.16C13.5901 15.36 15.1001 14.81 16.7001 14.48C16.6301 14.56 16.5701 14.63 16.5001 14.71C15.7001 15.62 14.9401 16.49 14.2501 18.13C13.5401 19.83 13.2001 21.69 13.2401 23.66C13.2401 23.9 13.4401 24.08 13.6701 24.08C13.9101 24.08 14.1001 23.88 14.0901 23.64C14.0601 21.79 14.3701 20.05 15.0301 18.45C15.6601 16.94 16.3401 16.16 17.1301 15.27C17.4401 14.92 17.7701 14.54 18.1001 14.11C18.6001 13.46 19.1301 12.67 19.6701 11.57C19.7401 11.42 19.8601 11.18 19.9901 10.87C20.0801 10.65 19.9901 10.4 19.7701 10.3C19.5501 10.21 19.3001 10.3 19.2001 10.52C19.0701 10.82 18.9601 11.04 18.8901 11.19C18.4201 12.16 17.9601 12.87 17.5101 13.46C15.4401 13.75 13.5001 14.41 11.7401 15.42C8.28008 17.41 6.54008 20.22 5.38008 22.09C2.18008 27.26 1.78009 32.08 1.47009 35.95C0.980085 41.95 2.18009 44.37 3.12009 45.67C3.50008 46.2 4.51009 47.6 6.17008 47.93C6.41008 47.98 6.63008 48 6.85008 48C7.65008 48 8.31009 47.7 9.05009 47.37C9.38008 47.22 9.73009 47.06 10.1301 46.92C11.9701 46.25 13.2001 46.45 14.3801 46.65C15.3901 46.82 16.3501 46.98 17.4901 46.52C19.9301 45.54 20.9101 42.62 21.5501 39.89C21.6001 39.66 21.4601 39.42 21.2301 39.37L21.2701 39.36Z" fill="black"/>
<path d="M13.71 36.21C13.04 37.36 12.05 38.33 10.83 39.03C10.62 39.15 10.55 39.41 10.67 39.62C10.75 39.76 10.9 39.84 11.05 39.84C11.12 39.84 11.2 39.82 11.26 39.78C12.61 39.01 13.72 37.93 14.46 36.65C14.46 36.65 14.46 36.63 14.47 36.63C14.74 37.41 15.22 38.33 16.06 39.15C16.81 39.88 17.75 40.42 18.77 40.71C18.81 40.72 18.85 40.73 18.89 40.73C19.08 40.73 19.25 40.61 19.31 40.42C19.38 40.19 19.24 39.95 19.01 39.89C18.12 39.64 17.31 39.17 16.66 38.54C15.52 37.43 15.15 36.11 15.03 35.36C15.59 33.81 16.15 31.13 14.64 28.56C14.64 28.56 14.63 28.54 14.62 28.53C13.67 26.93 12.28 26.03 11.28 25.55C11.07 25.45 10.81 25.54 10.7 25.76C10.6 25.98 10.69 26.23 10.91 26.34C11.7 26.72 12.77 27.39 13.58 28.52C12.51 28.84 11.16 29.44 9.97997 30.63C9.94997 30.66 9.91998 30.69 9.88998 30.73C9.01998 30.08 7.87998 29.92 6.93998 30.36C5.74998 30.91 5.41998 32.13 5.36998 32.37C5.31998 32.6 5.46998 32.83 5.69998 32.88C5.72998 32.88 5.75998 32.89 5.78998 32.89C5.98998 32.89 6.16998 32.75 6.20998 32.55C6.22998 32.45 6.45998 31.53 7.29998 31.14C7.93998 30.84 8.69998 30.96 9.30998 31.4C7.15998 34.18 7.47998 37.57 7.57998 38.27C7.60998 38.49 7.78998 38.64 8.00998 38.64C8.02998 38.64 8.04998 38.64 8.06998 38.64C8.30998 38.61 8.46997 38.39 8.43998 38.15C8.33998 37.45 7.99998 33.83 10.6 31.23C11.75 30.08 13.06 29.54 14.05 29.27C15.76 32.58 13.74 36.17 13.71 36.21Z" fill="black"/>
<path d="M46.4901 35.94C46.2901 33.45 46.0601 30.63 45.0801 27.54C45.0101 27.31 44.7701 27.19 44.5401 27.26C44.3101 27.33 44.1901 27.57 44.2601 27.8C45.2001 30.79 45.4301 33.56 45.6301 36.01C46.1001 41.72 45.0001 43.97 44.1401 45.16C43.7801 45.65 42.9501 46.81 41.6201 47.08C40.7601 47.25 40.1401 46.97 39.2701 46.58C38.9201 46.42 38.5501 46.26 38.1301 46.1C36.0701 45.35 34.6801 45.58 33.4401 45.79C32.4701 45.95 31.7101 46.08 30.7901 45.71C28.0901 44.62 27.3201 40.39 26.5001 35.92C25.4901 30.39 26.2201 25.88 26.5401 23.95C26.8501 22.05 27.3101 20.16 27.9001 18.33C28.7501 19.11 29.1701 19.95 29.4201 20.43C30.2001 21.97 30.3201 23.48 30.2901 24.47C30.2901 24.71 30.4701 24.91 30.7101 24.92C30.7101 24.92 30.7101 24.92 30.7201 24.92C30.9501 24.92 31.1401 24.74 31.1501 24.5C31.2001 22.93 30.8701 21.39 30.1901 20.04C29.9001 19.46 29.2901 18.26 27.9701 17.26C27.9701 17.26 27.9501 17.25 27.9401 17.24C26.5801 16.22 25.1401 15.91 24.1701 15.83C24.1101 15.83 24.0601 15.83 24.0101 15.85C23.9601 15.84 23.9101 15.83 23.8501 15.83C22.8801 15.91 21.4501 16.22 20.0801 17.24C20.0801 17.24 20.0601 17.25 20.0501 17.26C18.7301 18.26 18.1201 19.46 17.8301 20.04C17.1501 21.39 16.8101 22.93 16.8701 24.5C16.8701 24.73 17.0701 24.92 17.3001 24.92C17.3001 24.92 17.3001 24.92 17.3101 24.92C17.5501 24.92 17.7401 24.71 17.7301 24.47C17.7001 23.48 17.8201 21.97 18.6001 20.43C18.8401 19.95 19.2701 19.11 20.1201 18.33C20.7101 20.16 21.1701 22.05 21.4801 23.95C21.7801 25.77 22.4701 30.03 21.6401 35.24C21.6001 35.47 21.7601 35.7 22.0001 35.73C22.0201 35.73 22.0501 35.73 22.0701 35.73C22.2801 35.73 22.4601 35.58 22.5001 35.37C23.3601 30.02 22.6501 25.67 22.3401 23.81C22.0001 21.76 21.5001 19.73 20.8601 17.76C21.9801 17 23.1401 16.75 23.9301 16.69C23.9601 16.69 23.9901 16.67 24.0201 16.66C24.0501 16.66 24.0801 16.68 24.1101 16.69C24.9001 16.76 26.0601 17.01 27.1801 17.76C26.5301 19.73 26.0301 21.76 25.7001 23.81C25.3801 25.78 24.6301 30.39 25.6701 36.07C26.5301 40.79 27.3501 45.25 30.4901 46.51C31.6301 46.97 32.5901 46.81 33.6001 46.64C34.7801 46.44 36.0101 46.24 37.8501 46.91C38.2501 47.06 38.6001 47.21 38.9301 47.36C39.6701 47.69 40.3301 47.99 41.1301 47.99C41.3401 47.99 41.5701 47.97 41.8101 47.92C43.4701 47.59 44.4801 46.19 44.8601 45.66C45.8001 44.36 47.0001 41.93 46.5101 35.93L46.4901 35.94Z" fill="black"/>
<path d="M40.6999 31.12C41.5399 31.51 41.7699 32.43 41.7899 32.53C41.8399 32.73 42.0099 32.87 42.2099 32.87C42.2399 32.87 42.2699 32.87 42.2999 32.86C42.5299 32.81 42.6799 32.58 42.6299 32.35C42.5799 32.11 42.2499 30.89 41.0599 30.34C40.1099 29.9 38.9699 30.06 38.1099 30.71C38.0799 30.68 38.0499 30.65 38.0199 30.61C36.8299 29.42 35.4899 28.81 34.4199 28.5C35.2399 27.37 36.2999 26.69 37.0899 26.32C37.3099 26.22 37.3999 25.96 37.2999 25.74C37.1999 25.52 36.9399 25.43 36.7199 25.53C35.7199 26.01 34.3299 26.91 33.3799 28.51C33.3799 28.52 33.3699 28.53 33.3599 28.54C31.8599 31.1 32.4099 33.79 32.9699 35.34C32.8499 36.09 32.4899 37.41 31.3399 38.52C30.6899 39.15 29.8799 39.62 28.9899 39.87C28.7599 39.94 28.6299 40.17 28.6899 40.4C28.7399 40.59 28.9199 40.71 29.1099 40.71C29.1499 40.71 29.1899 40.71 29.2299 40.69C30.2499 40.4 31.1899 39.86 31.9399 39.13C32.7899 38.31 33.2599 37.39 33.5299 36.61L33.5399 36.63C34.2799 37.91 35.3899 39 36.7399 39.76C36.8099 39.8 36.8799 39.82 36.9499 39.82C37.0999 39.82 37.2499 39.74 37.3299 39.6C37.4499 39.39 37.3799 39.13 37.1699 39.01C35.9499 38.32 34.9599 37.35 34.2899 36.19C34.2699 36.15 32.2399 32.56 33.9499 29.25C34.9499 29.51 36.2599 30.06 37.3999 31.21C39.9999 33.81 39.6499 37.43 39.5599 38.13C39.5299 38.37 39.6899 38.58 39.9299 38.62C39.9499 38.62 39.9699 38.62 39.9899 38.62C40.1999 38.62 40.3899 38.46 40.4199 38.25C40.5199 37.55 40.8399 34.16 38.6899 31.38C39.2999 30.94 40.0599 30.82 40.6999 31.12Z" fill="black"/>
<path d="M24.9701 2.58H23.2801C23.0401 2.58 22.8501 2.77 22.8501 3.01C22.8501 3.25 23.0401 3.44 23.2801 3.44H24.9701C25.2101 3.44 25.4001 3.25 25.4001 3.01C25.4001 2.77 25.2101 2.58 24.9701 2.58Z" fill="black"/>
<path d="M24.9701 6.08H23.2801C23.0401 6.08 22.8501 6.27 22.8501 6.51C22.8501 6.75 23.0401 6.94 23.2801 6.94H24.9701C25.2101 6.94 25.4001 6.75 25.4001 6.51C25.4001 6.27 25.2101 6.08 24.9701 6.08Z" fill="black"/>
<path d="M22 37.26C21.79 37.05 21.46 37.05 21.26 37.26C21.06 37.47 21.05 37.8 21.26 38C21.47 38.2 21.8 38.21 22 38C22.2 37.81 22.21 37.49 22.02 37.28C22.02 37.28 22.01 37.27 22 37.26Z" fill="black"/>
<path d="M43.8601 25.34C44.0601 25.15 44.0701 24.83 43.8801 24.62C43.8801 24.62 43.8701 24.61 43.8601 24.6C43.6501 24.39 43.3201 24.39 43.1201 24.6C42.9201 24.81 42.9101 25.14 43.1201 25.34C43.3301 25.54 43.6601 25.55 43.8601 25.34Z" fill="black"/>
<path d="M20.6401 9.22C20.8401 9.03 20.8501 8.70999 20.6601 8.49999C20.6601 8.49999 20.6501 8.48999 20.6401 8.47999C20.4301 8.26999 20.1001 8.26999 19.9001 8.47999C19.7001 8.68999 19.6901 9.02 19.9001 9.22C20.1101 9.42 20.4401 9.43 20.6401 9.22Z" fill="black"/>
</svg>
