<svg width="48" height="48" viewBox="0 0 48 48" fill="none" xmlns="http://www.w3.org/2000/svg">
<g clip-path="url(#clip0_1298_2601)">
<path d="M3.34546 4.632C3.56896 4.7695 3.86146 4.7 3.99896 4.4765C5.37946 2.235 7.31146 0.9495 9.29996 0.9495C10.9665 0.9495 12.5395 1.8015 13.8495 3.4135C15.16 5.026 16.0795 7.2885 16.439 9.784C16.473 10.0205 16.676 10.1915 16.9085 10.1915C16.931 10.1915 16.954 10.19 16.977 10.1865C17.2365 10.149 17.417 9.9085 17.3795 9.6485C16.996 6.9855 16.004 4.558 14.587 2.814C13.112 0.9995 11.2345 0 9.29996 0C8.10246 0 6.94846 0.367 5.87046 1.0915C4.84946 1.7775 3.94746 2.749 3.18996 3.9785C3.05246 4.202 3.12196 4.4945 3.34546 4.632Z" fill="black"/>
<path d="M14.5184 21.7145C15.9224 20.0245 16.9244 17.661 17.3399 15.0595C17.3814 14.8005 17.2049 14.557 16.9459 14.5155C16.6874 14.4745 16.4434 14.6505 16.4019 14.9095C16.0129 17.3455 15.0844 19.5465 13.7879 21.1075C12.4899 22.67 10.9384 23.496 9.30044 23.496C7.38494 23.496 5.56994 22.3495 4.18994 20.2675C2.76994 18.1255 1.98844 15.2685 1.98844 12.223C1.98844 10.8455 2.14894 9.49999 2.46544 8.22299C2.52844 7.96849 2.37344 7.71099 2.11894 7.64799C1.86394 7.58449 1.60694 7.73999 1.54394 7.99449C1.20894 9.34599 1.03894 10.7685 1.03894 12.223C1.03894 15.453 1.87694 18.4965 3.39894 20.7925C4.96044 23.1485 7.05644 24.446 9.30094 24.446C11.2029 24.446 13.0559 23.476 14.5189 21.715L14.5184 21.7145Z" fill="black"/>
<path d="M2.64847 6.60151C2.91947 6.60151 3.13947 6.38151 3.13947 6.11051C3.13947 5.83951 2.91947 5.61951 2.64847 5.61951C2.37747 5.61951 2.15747 5.83951 2.15747 6.11051C2.15747 6.38151 2.37747 6.60151 2.64847 6.60151Z" fill="black"/>
<path d="M29.3485 29.6815C29.3485 29.4105 29.1285 29.1905 28.8575 29.1905C28.5865 29.1905 28.3665 29.4105 28.3665 29.6815C28.3665 29.9525 28.5865 30.1725 28.8575 30.1725C29.1285 30.1725 29.3485 29.9525 29.3485 29.6815Z" fill="black"/>
<path d="M43.9165 20.4345C43.6455 20.4345 43.4255 20.6545 43.4255 20.9255C43.4255 21.1965 43.6455 21.4165 43.9165 21.4165C44.1875 21.4165 44.4075 21.1965 44.4075 20.9255C44.4075 20.6545 44.1875 20.4345 43.9165 20.4345Z" fill="black"/>
<path d="M44.602 3.6535C43.0405 1.2975 40.944 0 38.7 0C36.766 0 34.8885 0.9995 33.413 2.815C31.9955 4.559 31.004 6.986 30.6205 9.6495C30.583 9.909 30.7635 10.15 31.023 10.1875C31.283 10.225 31.5235 10.0445 31.561 9.785C31.9205 7.2895 32.84 5.027 34.1505 3.4145C35.4605 1.8025 37.0335 0.9505 38.7 0.9505C40.6155 0.9505 42.4305 2.097 43.8105 4.179C45.2305 6.321 46.012 9.178 46.012 12.2235C46.012 14.7945 45.461 17.218 44.418 19.2315C44.2975 19.4645 44.3885 19.751 44.6215 19.8715C44.6915 19.9075 44.766 19.925 44.8395 19.925C45.0115 19.925 45.177 19.8315 45.2615 19.6685C46.374 17.5205 46.9615 14.946 46.9615 12.224C46.9615 8.994 46.1235 5.9505 44.6015 3.6545L44.602 3.6535Z" fill="black"/>
<path d="M42.5995 21.747C41.43 22.891 40.082 23.496 38.7 23.496C37.0625 23.496 35.5105 22.67 34.2125 21.1075C32.916 19.5465 31.9875 17.3455 31.5985 14.9095C31.557 14.6505 31.3135 14.474 31.0545 14.5155C30.7955 14.557 30.619 14.8005 30.6605 15.0595C31.076 17.661 32.078 20.0245 33.482 21.7145C34.945 23.4755 36.7985 24.4455 38.7 24.4455C40.335 24.4455 41.9135 23.747 43.264 22.4255C43.4515 22.242 43.4545 21.9415 43.2715 21.754C43.088 21.5665 42.7875 21.563 42.6 21.7465L42.5995 21.747Z" fill="black"/>
<path d="M30.64 21.5735C29.0495 19.6105 27.547 17.756 27.549 15.3535C27.5495 14.5125 27.731 13.887 28.104 13.442C28.637 12.806 29.4905 12.623 30.6285 12.561C30.6645 12.5695 30.702 12.5745 30.7405 12.5745C30.795 12.5745 30.8475 12.565 30.897 12.5485C31.248 12.535 31.6235 12.5295 32.0235 12.524L32.2415 12.521C32.5115 12.517 32.782 12.514 33.053 12.5115C33.838 12.829 34.428 13.2645 34.8055 13.808C34.893 13.934 34.9595 14.0505 35.0295 14.1735C35.1735 14.4265 35.3225 14.688 35.6255 14.971C36.1365 15.4485 36.8165 15.7345 37.6465 15.821C37.663 15.8225 37.68 15.8235 37.696 15.8235C37.9365 15.8235 38.1425 15.642 38.168 15.3975C38.195 15.1365 38.0055 14.903 37.7445 14.876C37.125 14.8115 36.6305 14.61 36.274 14.277C36.0765 14.0925 35.9785 13.921 35.855 13.7035C35.781 13.574 35.6975 13.427 35.586 13.2665C35.393 12.9885 35.1605 12.7345 34.89 12.504C36.541 12.5065 38.201 12.5325 39.851 12.5835C40.1115 12.5905 40.332 12.3855 40.3405 12.1235C40.3485 11.8615 40.1425 11.6425 39.8805 11.634C39.245 11.6145 38.6075 11.5985 37.9695 11.586C38.3115 11.323 38.604 11.0275 38.8425 10.6995C38.8965 10.6255 38.949 10.5485 38.9995 10.4735C39.2125 10.16 39.4325 9.83601 39.8385 9.61951C40.111 9.47451 40.4275 9.39851 40.779 9.39351C41.0415 9.39001 41.251 9.17451 41.2475 8.91201C41.244 8.65201 41.032 8.44351 40.7725 8.44351C40.7705 8.44351 40.768 8.44351 40.766 8.44351C40.262 8.45051 39.7995 8.56401 39.3925 8.78051C38.7785 9.10701 38.4655 9.56851 38.2135 9.93951C38.165 10.011 38.119 10.079 38.0745 10.14C37.634 10.7445 36.946 11.2215 36.0295 11.559C35.0605 11.551 34.0935 11.5515 33.1315 11.5605C33.1295 11.5605 33.128 11.5605 33.126 11.5605C32.826 11.563 32.5265 11.5665 32.228 11.571L32.011 11.574C31.606 11.5795 31.2125 11.585 30.8345 11.601C30.8045 11.595 30.7735 11.592 30.7415 11.592C30.693 11.592 30.6465 11.5995 30.6025 11.612C29.266 11.687 28.1345 11.927 27.377 12.8315C26.855 13.4545 26.601 14.279 26.6 15.3525C26.598 18.092 28.278 20.166 29.903 22.1715C31.5665 24.225 33.1375 26.164 33.1675 28.8135C33.1745 29.4415 33.196 31.3515 31.886 32.7705C31.513 33.1745 31.063 33.5055 30.543 33.76V33.0745C30.543 32.4625 30.4455 31.859 30.2535 31.2805C30.171 31.0315 29.902 30.897 29.653 30.9795C29.404 31.062 29.2695 31.331 29.352 31.58C29.512 32.0615 29.593 32.564 29.593 33.0745V34.4495C29.5925 34.4635 29.5925 34.4775 29.593 34.4915V36.127C29.593 38.5455 28.0495 40.61 25.896 41.388C25.871 41.3945 25.8465 41.403 25.8235 41.4135C25.252 41.611 24.639 41.7185 24.001 41.7185C23.363 41.7185 22.75 41.611 22.1785 41.4135C22.155 41.403 22.131 41.3945 22.106 41.388C19.9525 40.61 18.409 38.5455 18.409 36.127V33.075C18.409 30.4415 20.5515 28.299 23.185 28.299H24.817C25.487 28.299 26.136 28.4365 26.7455 28.7085C26.9855 28.815 27.266 28.7075 27.3725 28.468C27.479 28.2285 27.3715 27.9475 27.132 27.841C26.3995 27.515 25.621 27.3495 24.817 27.3495H23.185C20.028 27.3495 17.459 29.918 17.459 33.0755V33.7615C16.939 33.507 16.4885 33.176 16.115 32.7715C14.805 31.3525 14.8265 29.4425 14.8335 28.8145C14.8635 26.165 16.4345 24.226 18.098 22.1725C19.723 20.167 21.403 18.093 21.401 15.3535C21.4 14.2805 21.146 13.4555 20.624 12.8325C19.612 11.6245 17.9335 11.6015 15.99 11.5745L15.773 11.5715C15.4745 11.567 15.1755 11.564 14.876 11.561C14.873 11.561 14.8705 11.561 14.8675 11.561C13.906 11.5525 12.9395 11.552 11.9715 11.5595C11.055 11.222 10.367 10.745 9.92646 10.1405C9.88196 10.0795 9.83596 10.0115 9.78746 9.94001C9.53546 9.56901 9.22246 9.10751 8.60846 8.78101C8.20096 8.56451 7.73896 8.45101 7.23496 8.44401C7.23296 8.44401 7.23046 8.44401 7.22846 8.44401C6.96946 8.44401 6.75746 8.65251 6.75346 8.91251C6.74996 9.17501 6.95946 9.39051 7.22196 9.39401C7.57346 9.39901 7.88996 9.47501 8.16246 9.62001C8.56846 9.83601 8.78846 10.16 9.00146 10.4735C9.05246 10.5485 9.10496 10.626 9.15846 10.6995C9.39696 11.0275 9.68896 11.323 10.0315 11.586C9.39346 11.5985 8.75646 11.6145 8.12046 11.634C7.85846 11.642 7.65246 11.861 7.66046 12.1235C7.66846 12.3855 7.88596 12.591 8.14996 12.5835C9.79946 12.5325 11.4595 12.5065 13.111 12.504C12.841 12.734 12.608 12.9885 12.415 13.2665C12.3035 13.4275 12.2195 13.574 12.146 13.7035C12.022 13.921 11.9245 14.093 11.727 14.2775C11.3705 14.6105 10.8755 14.812 10.2565 14.8765C9.99546 14.9035 9.80596 15.137 9.83296 15.398C9.85846 15.642 10.0645 15.824 10.305 15.824C10.3215 15.824 10.338 15.823 10.3545 15.8215C11.1845 15.735 11.8645 15.4495 12.3755 14.9715C12.6785 14.6885 12.8275 14.427 12.9715 14.174C13.0415 14.051 13.108 13.9345 13.1955 13.8085C13.573 13.265 14.1625 12.8295 14.948 12.512C15.219 12.5145 15.4895 12.5175 15.7595 12.5215L15.9775 12.5245C17.8275 12.55 19.1645 12.5685 19.8965 13.4425C20.2695 13.8875 20.451 14.513 20.4515 15.354C20.4535 17.7565 18.951 19.611 17.3605 21.5745C15.668 23.6635 13.918 25.824 13.8845 28.8035C13.8765 29.5245 13.8515 31.719 15.4175 33.4155C15.97 34.0135 16.6555 34.478 17.459 34.7995V36.127C17.459 38.852 19.134 41.193 21.5085 42.175V47.077C21.5085 47.5865 21.923 48.0005 22.432 48.0005H25.5685C26.078 48.0005 26.492 47.586 26.492 47.077V42.175C28.8665 41.193 30.5415 38.852 30.5415 36.127V34.7995C31.345 34.478 32.0305 34.0135 32.5825 33.4155C34.1485 31.7195 34.124 29.5245 34.1155 28.8035C34.082 25.8235 32.332 23.6635 30.6395 21.5745L30.64 21.5735ZM25.5425 47.05H22.458V42.484C22.9525 42.604 23.469 42.668 24 42.668C24.531 42.668 25.0475 42.604 25.542 42.484V47.05H25.5425Z" fill="black"/>
</g>
<defs>
<clipPath id="clip0_1298_2601">
<rect width="48" height="48" fill="white"/>
</clipPath>
</defs>
</svg>
