<svg width="48" height="48" viewBox="0 0 48 48" fill="none" xmlns="http://www.w3.org/2000/svg">
<g clip-path="url(#clip0_1298_3021)">
<path d="M27.8499 40.64C27.6499 40.44 27.3299 40.44 27.1399 40.64C26.9499 40.84 26.9399 41.16 27.1399 41.35C27.3399 41.54 27.6599 41.55 27.8499 41.35C28.0499 41.16 28.0599 40.86 27.8699 40.66C27.8699 40.66 27.8599 40.65 27.8499 40.64Z" fill="black"/>
<path d="M16.5699 42.2C16.3699 42 16.0499 42 15.8599 42.2C15.6699 42.4 15.6599 42.72 15.8599 42.91C16.0599 43.1 16.3799 43.11 16.5699 42.91C16.7699 42.72 16.7799 42.42 16.5899 42.22C16.5899 42.22 16.5799 42.21 16.5699 42.2Z" fill="black"/>
<path d="M20.2 5.71998C20.4 5.52998 20.41 5.22999 20.22 5.02999C20.22 5.02999 20.21 5.01999 20.2 5.00999C20 4.80999 19.68 4.80999 19.49 5.00999C19.3 5.20999 19.29 5.52998 19.49 5.71998C19.69 5.90998 20.01 5.91998 20.2 5.71998Z" fill="black"/>
<path d="M37.3201 16.59C36.6301 15.17 35.8501 13.56 35.1401 11.2C34.1101 7.77002 33.6701 4.16002 33.8101 0.45002C33.8101 0.45002 33.8101 0.45002 33.8101 0.44002C33.8101 0.41002 33.8001 0.38002 33.7901 0.35002C33.7901 0.33002 33.7901 0.30002 33.7801 0.28002C33.7701 0.25002 33.7501 0.22002 33.7301 0.20002C33.7201 0.18002 33.7101 0.16002 33.6901 0.15002C33.6701 0.13002 33.6401 0.11002 33.6101 0.0900195C33.5901 0.0800195 33.5801 0.0600195 33.5601 0.0500195C33.5301 0.0400195 33.4901 0.0300195 33.4601 0.0300195C33.4401 0.0300195 33.4201 0.0200195 33.4001 0.0200195C33.4001 0.0200195 33.4001 0.0200195 33.3901 0.0200195H14.8401C14.6701 0.0200195 14.5201 0.12002 14.4501 0.27002C10.8601 7.89002 8.93009 16.35 8.88009 24.75C8.83009 32.69 10.3701 40.43 13.4601 47.76C13.5301 47.92 13.6801 48.02 13.8601 48.02H32.4001C32.4601 48.02 32.5101 48.01 32.5601 47.99C32.5801 47.99 32.5901 47.97 32.6101 47.96C32.6401 47.94 32.6701 47.93 32.6901 47.9C32.7101 47.88 32.7201 47.86 32.7301 47.85C32.7501 47.82 32.7701 47.8 32.7801 47.77C32.7901 47.75 32.7901 47.72 32.8001 47.7C32.8001 47.67 32.8201 47.65 32.8201 47.62C33.1501 42.6 34.1301 37.81 35.7201 33.38C36.3701 31.56 36.9701 30.23 37.5001 29.05C38.5101 26.8 39.1801 25.32 39.1101 22.77C39.0501 20.18 38.2801 18.6 37.3101 16.61L37.3201 16.59ZM16.5901 47.14V44.48C16.6001 44.24 16.4101 44.05 16.1701 44.04C15.9301 44.04 15.7401 44.23 15.7401 44.47V47.13H14.1401C11.2101 40.08 9.69009 32.34 9.74009 24.73C9.79009 16.55 11.6501 8.30002 15.1101 0.86002H19.4201V3.37002C19.4201 3.61002 19.6101 3.80002 19.8501 3.80002C20.0901 3.80002 20.2801 3.61002 20.2801 3.37002V0.86002H27.0001V11.08C27.0001 11.27 27.1201 11.44 27.3001 11.49C27.7601 11.63 30.1101 12.46 30.9501 14.86C31.2501 15.7 31.6001 17.31 30.7001 18.7C29.5401 20.49 26.7701 20.96 25.3201 20.09C25.0201 19.91 24.8701 19.72 24.6401 19.44C24.3901 19.13 24.0901 18.74 23.4801 18.24C22.6501 17.56 21.7001 17.02 20.6601 16.64C20.4401 16.56 20.1901 16.67 20.1101 16.9C20.0301 17.12 20.1401 17.37 20.3701 17.45C21.3201 17.8 22.1801 18.29 22.9301 18.9C23.0401 18.99 23.1401 19.08 23.2301 19.17C22.7001 19.7 21.4301 20.71 19.7201 20.54C17.6601 20.34 15.9101 18.51 15.9101 16.55C15.9101 15.08 16.8901 13.44 18.0201 13.03C18.0901 13.01 18.1601 12.98 18.2401 12.96C18.5901 12.86 19.0601 12.71 19.5001 12.27C19.9401 11.82 20.2001 11.2 20.2801 10.39V7.37002C20.2801 7.13002 20.0901 6.94002 19.8501 6.94002C19.6101 6.94002 19.4201 7.13002 19.4201 7.37002V10.35C19.3701 10.92 19.1901 11.36 18.8901 11.67C18.6101 11.95 18.3001 12.05 18.0001 12.14C17.9101 12.17 17.8201 12.19 17.7401 12.22C16.2501 12.76 15.0501 14.7 15.0501 16.56C15.0501 17.86 15.6901 19.1 16.6601 20C16.2701 20.63 15.6701 21.89 15.8301 23.53C15.9501 24.74 16.4301 25.64 16.8301 26.21C16.3201 26.67 15.8901 27.24 15.6001 27.82C14.9401 29.14 14.9201 30.66 15.4801 31.95C15.1801 32.2 14.9301 32.49 14.7801 32.83C14.2901 33.94 14.6901 35.36 15.7701 36.44L15.7501 40.18C15.7501 40.42 15.9401 40.61 16.1801 40.61C16.4201 40.61 16.6101 40.42 16.6101 40.18L16.6301 36.25C16.6301 36.13 16.5801 36.01 16.4901 35.93C15.5801 35.1 15.2101 33.99 15.5701 33.18C15.6501 33.01 15.7601 32.86 15.9001 32.71C15.9601 32.8 16.0101 32.89 16.0801 32.97C17.2901 34.5 19.0101 34.75 19.8501 34.78C19.7301 34.98 19.6101 35.17 19.4801 35.38C19.2501 35.77 19.0301 36.16 18.8201 36.53C18.7801 36.6 18.7701 36.67 18.7701 36.74L18.8201 47.13H16.5801L16.5901 47.14ZM33.3501 23.05C33.2901 25.44 32.6101 27.4 31.8901 28.86C31.5901 27.67 30.8401 26.66 30.0001 26.04C28.9001 25.22 27.6901 25.09 27.0301 25.08C26.6301 24.95 26.2301 24.78 25.8501 24.58C25.4201 24.35 25.1501 24.16 24.9301 24C24.6801 23.82 24.4601 23.66 24.1401 23.57C23.3001 23.31 22.3001 23.66 21.1001 24.65C20.8501 24.88 20.5701 25.05 20.2701 25.16C19.8601 25.3 19.5201 25.28 19.2301 25.26C19.1301 25.26 19.0401 25.25 18.9601 25.25C18.4701 25.25 17.9801 25.42 17.5201 25.7C17.1901 25.22 16.7901 24.46 16.6901 23.46C16.5601 22.14 17.0101 21.12 17.3401 20.56C18.0201 21.02 18.8001 21.34 19.6401 21.42C19.8001 21.44 19.9501 21.44 20.1001 21.44C21.9001 21.44 23.2201 20.4 23.8301 19.82C23.8801 19.88 23.9301 19.94 23.9701 20C24.2101 20.31 24.4401 20.59 24.8801 20.86C25.4801 21.22 26.2401 21.4 27.0501 21.4C28.6701 21.4 30.4601 20.68 31.4201 19.2C31.8301 18.57 32.0701 17.84 32.1201 17.05C32.8001 18.58 33.4001 20.63 33.3401 23.07L33.3501 23.05ZM22.4601 47.14H19.7001L19.6501 36.86C19.8401 36.52 20.0401 36.17 20.2401 35.82C20.4201 35.52 20.5901 35.24 20.7701 34.96C21.0601 35.09 21.3801 35.31 21.6401 35.68C22.0401 36.26 22.0101 36.92 22.0001 37.22C21.9501 38.62 22.0901 41.6 22.4601 47.13V47.14ZM36.7201 28.68C36.2101 29.81 35.5801 31.22 34.9101 33.07C33.3301 37.45 32.3601 42.19 31.9901 47.14H27.8801V42.88C27.8801 42.64 27.6901 42.45 27.4501 42.45C27.2101 42.45 27.0201 42.64 27.0201 42.88V47.14H23.3301C22.9601 41.6 22.8201 38.63 22.8701 37.24C22.8801 36.9 22.9101 36.01 22.3601 35.2C21.7201 34.26 20.7701 34 20.3901 33.93C20.3501 33.93 20.3101 33.93 20.2701 33.93C20.1801 33.94 18.0701 34.1 16.7701 32.46C15.8401 31.28 15.6901 29.62 16.3801 28.23C16.9101 27.18 18.0501 26.08 18.9801 26.12H19.1701C19.4901 26.15 19.9701 26.19 20.5501 25.99C20.9701 25.85 21.3501 25.61 21.6701 25.31C22.3101 24.78 23.2101 24.21 23.8901 24.41C24.0701 24.46 24.2001 24.56 24.4301 24.72C24.6701 24.89 24.9701 25.11 25.4601 25.36C25.9001 25.59 26.3701 25.79 26.8401 25.93C26.8801 25.94 26.8901 25.95 26.9701 25.95C27.4901 25.91 28.5501 26.04 29.4901 26.74C30.4401 27.44 31.2601 28.74 31.1701 30.22C31.1601 30.44 31.1301 30.66 31.0701 30.88C30.6301 32.68 29.0201 33.45 28.7201 33.58C28.4201 33.69 27.9701 33.92 27.6101 34.37C27.0701 35.03 27.0101 35.75 27.0201 36.12V38.54C27.0201 38.78 27.2101 38.97 27.4501 38.97C27.6901 38.97 27.8801 38.78 27.8801 38.54V36.11C27.8801 35.9 27.9001 35.38 28.2701 34.92C28.5101 34.62 28.8101 34.47 29.0301 34.39C29.4201 34.23 31.3601 33.29 31.9001 31.09C31.9501 30.87 31.9801 30.66 32.0001 30.44C32.9701 28.87 34.1201 26.35 34.2101 23.09C34.3201 19.05 32.7101 16 31.7301 14.53C30.8601 12.16 28.7401 11.13 27.8601 10.8V0.86002H32.9301C32.8301 4.51002 33.2901 8.06002 34.3001 11.44C35.0301 13.87 35.8301 15.51 36.5301 16.96C37.4601 18.86 38.1901 20.36 38.2501 22.77C38.3101 25.12 37.7101 26.46 36.7101 28.67L36.7201 28.68Z" fill="black"/>
</g>
<defs>
<clipPath id="clip0_1298_3021">
<rect width="48" height="48" fill="white"/>
</clipPath>
</defs>
</svg>
