<svg width="48" height="48" viewBox="0 0 48 48" fill="none" xmlns="http://www.w3.org/2000/svg">
<g clip-path="url(#clip0_1298_2800)">
<path d="M34.7099 16.66C34.9999 16.66 35.2399 16.44 35.2499 16.16C35.2499 16.15 35.2499 16.14 35.2499 16.13C35.2499 15.83 35.0099 15.59 34.7099 15.59C34.4099 15.59 34.1699 15.83 34.1699 16.13C34.1699 16.43 34.4099 16.67 34.7099 16.67V16.66Z" fill="black"/>
<path d="M33.3399 44.7C33.3399 44.7 33.3299 44.68 33.3199 44.68C33.0999 44.46 32.7699 44.46 32.5599 44.68C32.3599 44.9 32.3399 45.24 32.5599 45.44C32.7799 45.64 33.1099 45.66 33.3199 45.44C33.5299 45.24 33.5399 44.91 33.3399 44.7Z" fill="black"/>
<path d="M47.8001 36.26C47.4701 34.71 46.3401 33.39 44.6101 32.56C42.1401 31.37 39.7201 32.23 38.8101 32.64L36.2801 30.11C38.1501 26.36 38.2701 21.87 36.4001 17.96C36.3001 17.74 36.0401 17.65 35.8201 17.76C35.6001 17.86 35.5101 18.12 35.6201 18.34C35.6401 18.38 35.6501 18.42 35.6701 18.46C35.6101 18.43 35.5501 18.4 35.4901 18.37C34.5201 17.85 33.6201 17.13 32.8101 16.24C32.8101 16.24 32.8101 16.23 32.8001 16.22C31.9801 15.32 31.3501 14.34 30.9301 13.32C30.8801 13.19 30.8401 13.07 30.8001 12.95C31.6201 13.46 32.3901 14.06 33.0901 14.76C33.2601 14.93 33.5301 14.93 33.7001 14.76C33.8701 14.59 33.8701 14.32 33.7001 14.15C31.0901 11.54 27.6201 10.1 23.9301 10.1C21.8301 10.1 19.8101 10.58 17.9701 11.46L15.8501 9.34003C15.4601 8.87003 15.2501 8.39003 15.2501 7.93003C15.2501 7.50003 15.4101 7.19003 15.5701 6.89003C15.6201 6.80003 15.6601 6.72003 15.7001 6.63003C16.4101 5.12003 15.8601 2.76003 14.4601 1.37003C12.6701 -0.409974 9.4301 -0.499974 7.3901 1.18003C5.7001 2.56003 5.4601 4.60003 5.4501 5.55003C5.3601 5.55003 5.2701 5.53003 5.1801 5.52003C4.7701 5.47003 4.3801 5.43003 3.8601 5.56003C1.7201 6.12003 -0.389897 8.99003 0.200103 11.74C0.530103 13.29 1.6601 14.6 3.4001 15.44C5.8801 16.63 8.2901 15.77 9.2001 15.35L11.5901 17.74C9.0001 22.92 9.8501 29.4 14.1601 33.71C16.7701 36.32 20.2401 37.76 23.9301 37.76C26.0401 37.76 28.0601 37.28 29.9101 36.39C29.9101 36.39 29.9101 36.39 29.9101 36.4L32.1601 38.64C32.5501 39.12 32.7501 39.59 32.7601 40.05C32.7601 40.48 32.6001 40.79 32.4401 41.08C32.3901 41.17 32.3501 41.26 32.3101 41.34C32.0501 41.88 31.9501 42.55 32.0201 43.27C32.0401 43.49 32.2301 43.66 32.4501 43.66C32.4601 43.66 32.4801 43.66 32.4901 43.66C32.7301 43.64 32.9001 43.43 32.8801 43.19C32.8301 42.62 32.9001 42.11 33.0901 41.7C33.1201 41.63 33.1601 41.56 33.2001 41.48C33.3801 41.14 33.6301 40.68 33.6201 40.03C33.6201 39.36 33.3401 38.71 32.7901 38.04L30.7001 35.95C31.7801 35.34 32.7901 34.59 33.6901 33.69C34.5401 32.84 35.2501 31.9 35.8401 30.89L38.4101 33.46C38.5401 33.59 38.7501 33.63 38.9201 33.54C39.3801 33.3 41.7901 32.15 44.2301 33.33C45.0901 33.74 46.5901 34.69 46.9501 36.43C47.4201 38.67 45.6801 41.12 43.9301 41.57C43.5601 41.66 43.3001 41.63 42.9201 41.59C42.5001 41.54 41.9801 41.48 41.1401 41.56C40.0101 41.67 38.8901 41.98 37.8201 42.48C37.6001 42.58 37.5101 42.84 37.6101 43.05C37.6801 43.21 37.8401 43.3 38.0001 43.3C38.0601 43.3 38.1201 43.29 38.1801 43.26C39.1601 42.8 40.1901 42.52 41.2201 42.42C41.3901 42.4 41.5401 42.39 41.6801 42.39C41.6801 43.18 41.5001 44.94 40.0601 46.12C38.3401 47.53 35.6301 47.47 34.1501 45.98C33.9801 45.81 33.7101 45.81 33.5401 45.98C33.3701 46.15 33.3701 46.42 33.5401 46.59C34.4701 47.52 35.7901 47.98 37.1401 47.98C38.3801 47.98 39.6301 47.58 40.6201 46.78C42.3101 45.4 42.5501 43.36 42.5601 42.41C42.6501 42.41 42.7501 42.43 42.8301 42.44C43.2401 42.49 43.6301 42.53 44.1501 42.4C46.2801 41.86 48.3901 39 47.8101 36.25L47.8001 36.26ZM18.4401 35.55L18.4101 35.43C18.3201 35.11 18.2101 34.75 18.0401 34.29C17.8401 33.78 17.5901 33.28 17.3001 32.8C17.6701 32.96 18.0501 33.09 18.4301 33.17C18.6001 33.21 18.7601 33.23 18.9201 33.26C19.3601 33.33 19.7401 33.4 20.2501 33.66C20.8201 33.95 21.2301 34.32 21.4801 34.58C21.6301 34.74 22.0201 35.15 22.2801 35.75C22.4501 36.15 22.5001 36.48 22.5201 36.8C21.1001 36.65 19.7401 36.26 18.4601 35.66C18.4601 35.62 18.4601 35.58 18.4601 35.54L18.4401 35.55ZM11.8401 28.11C11.7801 28.09 11.7201 28.08 11.6601 28.08C11.2201 26.76 10.9801 25.38 10.9701 24C11.3001 24.06 11.6301 24.14 12.0301 24.35C12.6001 24.64 13.0101 25.01 13.2601 25.27C13.4101 25.43 13.8001 25.84 14.0601 26.44C14.3001 26.98 14.3001 27.39 14.3101 27.9C14.3101 28.09 14.3101 28.29 14.3301 28.5C14.3601 28.88 14.4401 29.27 14.5401 29.65C14.1001 29.3 13.6401 28.98 13.1601 28.72C12.7301 28.48 12.3601 28.32 12.0501 28.19L11.8401 28.1V28.11ZM20.3201 11.49C20.3201 11.49 20.3401 11.54 20.3601 11.57C20.9801 12.33 21.4601 13.14 21.8101 13.98C21.9801 14.41 22.0901 14.76 22.1801 15.06C22.2701 15.35 22.3501 15.62 22.4701 15.89C22.2001 15.72 21.9201 15.6 21.6201 15.47C21.3401 15.35 21.0101 15.21 20.6101 15C19.6401 14.48 18.7301 13.76 17.9201 12.86C17.9101 12.85 17.9001 12.84 17.8901 12.83C17.8701 12.81 17.8401 12.79 17.8201 12.78C17.8001 12.77 17.7801 12.76 17.7501 12.75C17.7201 12.74 17.6901 12.73 17.6601 12.73C17.6401 12.73 17.6201 12.73 17.5901 12.73C17.5601 12.73 17.5301 12.73 17.5001 12.74C17.4701 12.74 17.4501 12.76 17.4301 12.77C17.4201 12.77 17.4001 12.77 17.3901 12.79C17.3801 12.79 17.3701 12.81 17.3601 12.82C17.3501 12.82 17.3401 12.83 17.3201 12.84C17.3101 12.85 17.3001 12.86 17.2901 12.88C17.2701 12.9 17.2501 12.92 17.2401 12.95C17.2301 12.97 17.2201 13 17.2101 13.02C17.2101 13.05 17.1901 13.07 17.1901 13.1C17.1901 13.13 17.1901 13.15 17.1901 13.18C17.1901 13.21 17.1901 13.23 17.2001 13.26C17.2001 13.29 17.2201 13.31 17.2301 13.34C17.2301 13.35 17.2301 13.37 17.2501 13.38C17.8001 14.29 18.1201 15.21 18.2001 16.11C18.2201 16.27 18.2201 16.42 18.2301 16.57C18.2501 16.98 18.2801 17.42 18.4501 17.96C17.9601 17.75 17.5201 17.68 17.1001 17.62C16.9201 17.6 16.7401 17.57 16.5501 17.53C15.6601 17.36 14.7801 16.94 13.9301 16.31C13.9201 16.3 13.9001 16.3 13.8801 16.29C13.8601 16.28 13.8301 16.26 13.8101 16.26C13.7801 16.26 13.7601 16.24 13.7301 16.24C13.7001 16.24 13.6801 16.24 13.6501 16.24C13.6201 16.24 13.6001 16.24 13.5701 16.25C13.5601 16.25 13.5401 16.25 13.5301 16.25C13.9101 15.74 14.3201 15.24 14.7801 14.78C16.3501 13.21 18.2601 12.1 20.3401 11.5L20.3201 11.49ZM32.1401 16.81C32.6601 17.7 32.9801 18.6 33.0601 19.48C33.0801 19.64 33.0801 19.79 33.0901 19.93C33.1101 20.34 33.1401 20.78 33.3101 21.32C32.8201 21.11 32.3901 21.04 31.9601 20.98C31.7801 20.96 31.6001 20.93 31.4101 20.89C30.5501 20.72 29.7001 20.32 28.8701 19.72C28.3501 18.83 28.0301 17.94 27.9501 17.05C27.9301 16.89 27.9301 16.74 27.9201 16.59C27.9001 16.18 27.8701 15.74 27.7001 15.2C28.1901 15.41 28.6301 15.48 29.0501 15.54C29.2301 15.56 29.4101 15.59 29.6001 15.63C30.4601 15.8 31.3101 16.2 32.1401 16.8V16.81ZM23.1301 18.36C23.2301 18.69 23.3401 19.07 23.5301 19.52C23.7401 20.03 24.0001 20.52 24.3001 21C23.9301 20.85 23.5501 20.73 23.1801 20.66C22.9701 20.62 22.7801 20.59 22.5801 20.57C22.0701 20.5 21.6701 20.45 21.1601 20.15C20.5901 19.82 20.2301 19.39 20.0901 19.22C19.7601 18.82 19.4901 18.37 19.3201 17.89C19.1201 17.35 19.1001 16.97 19.0801 16.52C19.0801 16.36 19.0601 16.2 19.0501 16.03C19.0101 15.64 18.9301 15.25 18.8201 14.86C19.2701 15.2 19.7301 15.51 20.2101 15.77C20.6401 16 20.9901 16.15 21.3001 16.27C21.8201 16.49 22.1401 16.62 22.5001 17.01C22.8801 17.43 22.9901 17.8 23.1601 18.35L23.1301 18.36ZM19.4601 19.83C19.7901 20.23 20.0601 20.68 20.2301 21.16C20.4301 21.7 20.4501 22.08 20.4701 22.53C20.4701 22.69 20.4901 22.85 20.5001 23.02C20.5401 23.41 20.6201 23.8 20.7401 24.19C20.2901 23.85 19.8301 23.54 19.3501 23.28C18.9201 23.05 18.5701 22.9 18.2601 22.78C17.7401 22.56 17.4201 22.43 17.0601 22.04C16.6801 21.62 16.5701 21.25 16.4001 20.7C16.3001 20.37 16.1901 19.99 16.0001 19.54C15.7901 19.03 15.5301 18.54 15.2301 18.06C15.6001 18.21 15.9701 18.33 16.3501 18.4C16.5601 18.44 16.7501 18.47 16.9401 18.49C17.4501 18.56 17.8501 18.61 18.3701 18.91C18.9401 19.24 19.3001 19.67 19.4401 19.84L19.4601 19.83ZM17.0101 23.88C17.1001 24.2 17.2101 24.56 17.3801 25.02C17.5801 25.53 17.8301 26.02 18.1201 26.51C17.7501 26.35 17.3701 26.22 16.9901 26.14C16.8201 26.1 16.6601 26.08 16.5101 26.05C16.0701 25.98 15.6901 25.91 15.1701 25.65C14.7201 25.42 14.3001 25.11 13.9401 24.73C13.7901 24.57 13.4001 24.16 13.1401 23.56C12.9101 23.02 12.9001 22.61 12.8901 22.1C12.8901 21.91 12.8901 21.71 12.8701 21.5C12.8401 21.12 12.7801 20.74 12.6801 20.36C13.1201 20.71 13.5801 21.02 14.0501 21.28C14.4801 21.52 14.8401 21.67 15.1601 21.81C15.6901 22.04 16.0501 22.19 16.4201 22.62C16.7701 23.02 16.8601 23.35 17.0201 23.89L17.0101 23.88ZM15.2001 28.45C15.1901 28.26 15.1801 28.07 15.1801 27.9C15.1801 27.48 15.1601 27.04 15.0001 26.52C15.5201 26.75 15.9501 26.83 16.3601 26.9C16.5101 26.92 16.6501 26.95 16.8101 26.98C17.6801 27.17 18.5301 27.58 19.3501 28.21C19.8501 29.1 20.1501 29.99 20.2201 30.86C20.2301 31.05 20.2401 31.24 20.2401 31.41C20.2401 31.84 20.2601 32.27 20.4201 32.79C19.9001 32.56 19.4701 32.48 19.0601 32.41C18.9101 32.39 18.7601 32.36 18.6101 32.33C17.7501 32.14 16.8901 31.73 16.0701 31.11C15.5701 30.22 15.2701 29.33 15.2001 28.46V28.45ZM20.0101 27.62C20.0101 27.62 20.0001 27.62 19.9901 27.6C19.2001 26.69 18.5901 25.72 18.1901 24.7C18.0301 24.28 17.9301 23.94 17.8401 23.64C17.8301 23.6 17.8201 23.56 17.8001 23.52C17.8401 23.54 17.8801 23.55 17.9201 23.57C18.2001 23.69 18.5301 23.83 18.9301 24.04C19.9001 24.56 20.8001 25.27 21.6001 26.16C21.6001 26.16 21.6001 26.18 21.6101 26.18C22.4401 27.08 23.0701 28.06 23.4801 29.08C23.6501 29.51 23.7601 29.86 23.8501 30.16C23.8701 30.24 23.9001 30.32 23.9201 30.4C23.8401 30.37 23.7701 30.33 23.6901 30.3C23.4001 30.17 23.0601 30.03 22.6601 29.81C21.6901 29.28 20.8001 28.54 20.0001 27.61L20.0101 27.62ZM22.2801 25.6C21.7601 24.71 21.4501 23.81 21.3601 22.93C21.3401 22.77 21.3401 22.62 21.3301 22.47C21.3101 22.06 21.2801 21.62 21.1101 21.08C21.6001 21.29 22.0401 21.36 22.4601 21.42C22.6401 21.44 22.8201 21.47 23.0101 21.51C23.8701 21.68 24.7201 22.08 25.5401 22.68C26.0601 23.57 26.3801 24.47 26.4601 25.35C26.4801 25.51 26.4801 25.66 26.4901 25.81C26.5101 26.22 26.5401 26.66 26.7101 27.2C26.2201 26.99 25.7801 26.92 25.3601 26.86C25.1801 26.84 25.0001 26.81 24.8101 26.77C23.9501 26.6 23.1001 26.2 22.2801 25.6ZM26.2101 22.12C26.2101 22.12 26.2101 22.1 26.2001 22.1C25.3801 21.2 24.7501 20.22 24.3301 19.2C24.1601 18.77 24.0501 18.42 23.9601 18.12C23.8701 17.83 23.7901 17.56 23.6701 17.29C23.9401 17.46 24.2201 17.58 24.5201 17.71C24.8001 17.83 25.1301 17.97 25.5301 18.18C26.5001 18.7 27.4001 19.41 28.2101 20.31C28.2101 20.31 28.2101 20.32 28.2201 20.33C29.0401 21.23 29.6701 22.21 30.0901 23.23C30.2601 23.66 30.3701 24.01 30.4601 24.31C30.5501 24.6 30.6301 24.87 30.7501 25.14C30.4801 24.97 30.2001 24.85 29.9001 24.72C29.6201 24.6 29.2901 24.46 28.8901 24.25C27.9201 23.73 27.0201 23.02 26.2201 22.13L26.2101 22.12ZM31.2901 24.06C31.1901 23.73 31.0801 23.35 30.8901 22.9C30.6801 22.39 30.4201 21.9 30.1201 21.42C30.4901 21.57 30.8601 21.69 31.2401 21.76C31.4501 21.8 31.6401 21.83 31.8401 21.85C32.3501 21.92 32.7501 21.97 33.2601 22.27C33.8301 22.6 34.2001 23.03 34.3301 23.2C34.6601 23.6 34.9301 24.06 35.1001 24.53C35.3001 25.07 35.3201 25.46 35.3401 25.9C35.3401 26.06 35.3601 26.22 35.3701 26.39C35.4101 26.78 35.4901 27.18 35.6101 27.57C35.1601 27.22 34.7001 26.91 34.2101 26.65C33.7801 26.42 33.4301 26.27 33.1201 26.15C32.6001 25.93 32.2801 25.8 31.9201 25.41C31.5401 24.99 31.4301 24.62 31.2601 24.07L31.2901 24.06ZM36.4301 27.27C36.3401 26.95 36.2801 26.62 36.2501 26.31C36.2301 26.15 36.2301 26 36.2201 25.86C36.2001 25.45 36.1701 25.01 36.0001 24.47C36.2801 24.59 36.5601 24.67 36.8401 24.72C36.7901 25.58 36.6501 26.44 36.4301 27.28V27.27ZM26.0601 13.96C26.3901 14.36 26.6601 14.81 26.8301 15.29C27.0301 15.83 27.0501 16.21 27.0701 16.66C27.0701 16.82 27.0901 16.98 27.1001 17.15C27.1401 17.54 27.2201 17.93 27.3301 18.32C26.8801 17.98 26.4201 17.67 25.9401 17.41C25.5101 17.18 25.1601 17.03 24.8501 16.91C24.3301 16.69 24.0101 16.56 23.6501 16.17C23.2701 15.75 23.1601 15.38 22.9901 14.83C22.8901 14.5 22.7801 14.12 22.5901 13.67C22.3901 13.17 22.1301 12.68 21.8401 12.2C22.2101 12.34 22.5801 12.45 22.9501 12.53C23.1601 12.57 23.3501 12.6 23.5401 12.62C24.0501 12.69 24.4501 12.74 24.9701 13.04C25.5301 13.37 25.9001 13.8 26.0401 13.97L26.0601 13.96ZM13.2201 16.64C13.2201 16.64 13.2201 16.66 13.2201 16.67C13.2201 16.7 13.2201 16.73 13.2301 16.75C13.2301 16.78 13.2401 16.8 13.2601 16.82C13.2701 16.85 13.2901 16.87 13.3101 16.9C13.3101 16.91 13.3201 16.93 13.3301 16.94C14.1501 17.84 14.7801 18.82 15.2001 19.84C15.3701 20.27 15.4801 20.62 15.5701 20.92C15.5801 20.96 15.5901 21 15.6101 21.04C15.5701 21.02 15.5401 21.01 15.5001 20.99C15.2101 20.86 14.8701 20.72 14.4701 20.5C13.6601 20.06 12.9101 19.47 12.2201 18.75C12.1901 18.71 12.1501 18.69 12.1001 18.67C12.4101 17.96 12.7801 17.28 13.2301 16.63L13.2201 16.64ZM11.6201 19.93C11.8301 20.47 11.9701 21.02 12.0101 21.55C12.0201 21.75 12.0301 21.93 12.0301 22.11C12.0301 22.53 12.0501 22.97 12.2101 23.48C11.7501 23.28 11.3701 23.19 11.0101 23.13C11.0801 22.05 11.2801 20.97 11.6101 19.93H11.6201ZM22.1501 34.04C22.0001 33.88 21.6101 33.47 21.3501 32.87C21.1101 32.33 21.1101 31.92 21.1001 31.41C21.1001 31.22 21.1001 31.02 21.0801 30.81C21.0501 30.43 20.9701 30.04 20.8701 29.66C21.3101 30.01 21.7701 30.33 22.2501 30.59C22.6801 30.83 23.0401 30.98 23.3601 31.12C23.8901 31.35 24.2501 31.5 24.6201 31.93C24.9701 32.34 25.0601 32.66 25.2201 33.21C25.3101 33.53 25.4201 33.89 25.5901 34.35C25.7901 34.86 26.0501 35.35 26.3401 35.84C25.9601 35.68 25.5801 35.56 25.2001 35.47C25.0301 35.43 24.8701 35.41 24.7201 35.38C24.2801 35.31 23.9001 35.24 23.3801 34.98C22.9301 34.75 22.5101 34.43 22.1501 34.06V34.04ZM27.6901 36.29C27.1501 35.57 26.7101 34.8 26.4001 34.01C26.2401 33.59 26.1401 33.25 26.0501 32.95C26.0301 32.87 26.0001 32.79 25.9801 32.71C26.0601 32.74 26.1301 32.78 26.2101 32.81C26.4901 32.93 26.8201 33.07 27.2201 33.28C28.1901 33.8 29.1001 34.52 29.9101 35.42C29.2001 35.79 28.4601 36.1 27.7001 36.33C27.7001 36.32 27.6901 36.3 27.6801 36.29H27.6901ZM27.6301 32.52C27.2001 32.29 26.8501 32.14 26.5401 32.02C26.0201 31.8 25.7101 31.67 25.3401 31.28C24.9601 30.86 24.8501 30.49 24.6801 29.94C24.5801 29.61 24.4701 29.24 24.2801 28.78C24.0701 28.27 23.8101 27.78 23.5101 27.3C23.8801 27.45 24.2501 27.57 24.6301 27.64C24.8401 27.68 25.0301 27.71 25.2301 27.73C25.7401 27.8 26.1401 27.85 26.6501 28.15C27.2201 28.48 27.5801 28.91 27.7201 29.08C28.0501 29.48 28.3201 29.93 28.4901 30.41C28.6901 30.95 28.7101 31.34 28.7301 31.79C28.7301 31.95 28.7501 32.11 28.7601 32.28C28.8001 32.67 28.8801 33.06 28.9901 33.45C28.5401 33.11 28.0801 32.8 27.6001 32.54L27.6301 32.52ZM28.3701 28.46C28.1401 28.19 27.8201 27.73 27.6001 27.13C27.4001 26.59 27.3801 26.21 27.3601 25.76C27.3601 25.6 27.3401 25.44 27.3301 25.27C27.2901 24.88 27.2101 24.49 27.1001 24.1C27.5501 24.44 28.0101 24.75 28.4901 25.01C28.9201 25.24 29.2701 25.39 29.5801 25.51C30.1001 25.73 30.4201 25.86 30.7801 26.25C31.1601 26.67 31.2701 27.04 31.4401 27.59C31.5401 27.92 31.6501 28.3 31.8401 28.75C32.0501 29.26 32.3101 29.75 32.6101 30.23C32.2401 30.08 31.8701 29.96 31.4901 29.89C31.2801 29.85 31.0901 29.82 30.9001 29.8C30.3901 29.73 29.9901 29.68 29.4701 29.38C28.9001 29.05 28.5401 28.62 28.4001 28.45L28.3701 28.46ZM34.5201 31.38C34.5201 31.37 34.5101 31.35 34.5001 31.34C33.6801 30.44 33.0501 29.46 32.6301 28.44C32.4601 28.01 32.3501 27.66 32.2601 27.36C32.1701 27.07 32.0901 26.8 31.9701 26.53C32.2401 26.7 32.5201 26.82 32.8201 26.95C33.1001 27.07 33.4301 27.21 33.8301 27.42C34.5501 27.81 35.2401 28.31 35.8801 28.9C35.8801 28.9 35.8901 28.9 35.9001 28.9C35.5401 29.77 35.0801 30.6 34.5301 31.38H34.5201ZM36.0001 19.57C36.0001 19.57 36.0901 19.59 36.1301 19.6C36.6201 20.98 36.8601 22.41 36.8701 23.84C36.5901 23.78 36.3301 23.69 36.0401 23.52C35.4701 23.19 35.1101 22.76 34.9701 22.59C34.7401 22.31 34.4201 21.86 34.2001 21.26C34.0001 20.72 33.9801 20.33 33.9601 19.89C33.9601 19.73 33.9401 19.57 33.9301 19.4C33.8901 19.01 33.8101 18.62 33.7001 18.23C34.1501 18.57 34.6101 18.88 35.0901 19.14C35.4401 19.33 35.7401 19.46 36.0101 19.57H36.0001ZM29.7301 12.49C29.8301 12.82 29.9401 13.19 30.1301 13.65C30.3401 14.16 30.6001 14.65 30.9001 15.13C30.5301 14.98 30.1601 14.86 29.7801 14.79C29.5701 14.75 29.3801 14.72 29.1801 14.7C28.6701 14.63 28.2701 14.58 27.7601 14.28C27.1901 13.95 26.8301 13.52 26.6901 13.35C26.4601 13.08 26.1401 12.62 25.9201 12.02C25.8001 11.68 25.7501 11.4 25.7201 11.11C27.1301 11.3 28.4801 11.72 29.7301 12.35C29.7301 12.4 29.7301 12.44 29.7401 12.49H29.7301ZM24.8301 11.02C24.8501 11.33 24.9001 11.67 25.0301 12.08C24.5401 11.87 24.1101 11.8 23.6901 11.74C23.5101 11.72 23.3301 11.69 23.1401 11.65C22.6701 11.56 22.2101 11.38 21.7501 11.16C22.4601 11.04 23.1901 10.97 23.9301 10.97C24.2301 10.97 24.5301 10.99 24.8301 11.01V11.02ZM9.5801 14.52C9.4401 14.39 9.2401 14.36 9.0701 14.44C8.6101 14.68 6.2101 15.83 3.7601 14.65C2.2801 13.93 1.3101 12.83 1.0401 11.55C0.570103 9.31003 2.3101 6.86003 4.0701 6.41003C4.4401 6.32003 4.7001 6.35003 5.0801 6.39003C5.5001 6.44003 6.0201 6.50003 6.8501 6.42003C7.9801 6.31003 9.1001 6.00003 10.1701 5.50003C10.3901 5.40003 10.4801 5.14003 10.3801 4.93003C10.2801 4.71003 10.0201 4.62003 9.8101 4.72003C8.8301 5.18003 7.8101 5.46003 6.7701 5.56003C6.6001 5.58003 6.4501 5.58003 6.3101 5.59003C6.3101 4.80003 6.4901 3.04003 7.9301 1.86003C9.6501 0.450027 12.3601 0.520026 13.8401 2.00003C14.9601 3.11003 15.4501 5.11003 14.9101 6.28003C14.8801 6.35003 14.8401 6.42003 14.8001 6.50003C14.6201 6.84003 14.3701 7.30003 14.3801 7.95003C14.3801 8.62003 14.6501 9.28003 15.2001 9.94003L17.1501 11.89C16.0601 12.5 15.0501 13.26 14.1501 14.16C13.3001 15.01 12.6001 15.96 12.0101 16.95L9.5801 14.52ZM12.0801 29.16C12.2801 29.25 12.5001 29.35 12.7501 29.49C13.7201 30.02 14.6101 30.76 15.4101 31.69C15.4101 31.69 15.4201 31.69 15.4301 31.7C16.2201 32.6 16.8301 33.58 17.2301 34.61C17.3001 34.8 17.3601 34.97 17.4101 35.13C16.4601 34.57 15.5601 33.9 14.7601 33.1C13.5901 31.93 12.7101 30.59 12.0801 29.17V29.16ZM23.3801 36.86C23.3701 36.56 23.3401 36.22 23.2201 35.83C23.7401 36.06 24.1701 36.14 24.5701 36.21C24.7201 36.23 24.8601 36.26 25.0201 36.29C25.4001 36.37 25.7901 36.52 26.1601 36.69C25.4301 36.82 24.6801 36.89 23.9201 36.89C23.7401 36.89 23.5601 36.87 23.3801 36.86ZM33.0801 33.1C32.3401 33.84 31.5101 34.47 30.6401 35.01C30.6401 34.99 30.6201 34.98 30.6201 34.96C30.6201 34.95 30.6201 34.93 30.6001 34.92C30.0501 34.01 29.7301 33.09 29.6501 32.19C29.6301 32.03 29.6301 31.88 29.6201 31.74C29.6001 31.32 29.5701 30.89 29.4001 30.34C29.8901 30.55 30.3301 30.62 30.7501 30.68C30.9301 30.7 31.1101 30.73 31.3001 30.77C32.1901 30.94 33.0701 31.36 33.9201 31.99C33.9201 31.99 33.9401 31.99 33.9501 32C33.9801 32.02 34.0001 32.04 34.0401 32.05C33.7501 32.42 33.4401 32.78 33.1001 33.11L33.0801 33.1Z" fill="black"/>
</g>
<defs>
<clipPath id="clip0_1298_2800">
<rect width="48" height="48" fill="white"/>
</clipPath>
</defs>
</svg>
