<svg width="48" height="48" viewBox="0 0 48 48" fill="none" xmlns="http://www.w3.org/2000/svg">
<g clip-path="url(#clip0_1298_2964)">
<path d="M25.47 12.7C25.68 12.5 25.69 12.17 25.49 11.95C25.49 11.95 25.48 11.93 25.47 11.93C25.25 11.71 24.91 11.71 24.7 11.93C24.49 12.15 24.48 12.49 24.7 12.7C24.92 12.91 25.26 12.92 25.47 12.7Z" fill="black"/>
<path d="M17.9401 4.66001C18.1501 4.46001 18.1601 4.13001 17.9601 3.91001C17.9601 3.91001 17.9501 3.89001 17.9401 3.89001C17.7201 3.67001 17.3801 3.67001 17.1701 3.89001C16.9601 4.11001 16.9501 4.45001 17.1701 4.66001C17.3901 4.87001 17.7301 4.88001 17.9401 4.66001Z" fill="black"/>
<path d="M24.46 39.98C24.24 39.76 23.9 39.76 23.69 39.98C23.48 40.2 23.47 40.54 23.69 40.75C23.91 40.96 24.25 40.97 24.46 40.75C24.67 40.55 24.68 40.22 24.48 40C24.48 40 24.47 39.98 24.46 39.98Z" fill="black"/>
<path d="M40.96 13.9C39.72 11.6 38.01 8.46001 35.22 8.41001C35.2 8.41001 35.17 8.41001 35.15 8.41001C34.6 8.41001 34.08 8.54001 33.6 8.73001C33.78 8.29001 33.98 7.86001 34.22 7.46001C34.3 7.33001 34.37 7.21001 34.45 7.09001C34.75 6.63001 35.05 6.15001 35.27 5.43001C35.38 5.04001 35.45 4.64001 35.48 4.21001V1.33001C35.48 1.26001 35.47 1.20001 35.44 1.14001C35.3 0.840007 34.96 0.300007 34.31 0.0800072C33.92 -0.0499928 33.5 -0.0399929 33.06 0.110007C32.23 0.400007 31.95 1.11001 31.68 1.78001C31.45 2.36001 31.21 2.96001 30.61 3.44001C30.18 3.78001 29.36 4.21001 28.43 4.33001C28.28 4.35001 28.15 4.36001 28.02 4.37001C27.62 4.40001 27.2 4.43001 26.69 4.70001C26.44 4.83001 25.96 5.13001 25.58 5.66001C25.18 6.22001 25.11 6.73001 25.05 7.14001C25 7.49001 24.96 7.76001 24.75 8.05001C24.56 8.30001 24.27 8.50001 23.88 8.63001C23.49 8.50001 23.2 8.30001 23.01 8.05001C22.8 7.77001 22.76 7.50001 22.71 7.15001C22.65 6.74001 22.58 6.23001 22.18 5.67001C21.8 5.14001 21.32 4.84001 21.07 4.71001C20.56 4.45001 20.14 4.41001 19.74 4.38001L19.49 4.36001C19.25 4.33001 19.04 4.51001 19.01 4.75001C18.99 4.99001 19.16 5.20001 19.4 5.23001L19.66 5.25001C20.03 5.28001 20.3 5.30001 20.65 5.48001C20.83 5.57001 21.18 5.79001 21.45 6.17001C21.72 6.55001 21.77 6.88001 21.83 7.26001C21.89 7.66001 21.95 8.11001 22.3 8.57001C22.61 8.98001 23.06 9.28001 23.65 9.47001C23.7 9.50001 23.75 9.51001 23.8 9.52001C23.89 9.53001 23.98 9.52001 24.06 9.48001C24.66 9.29001 25.12 8.98001 25.43 8.57001C25.78 8.11001 25.85 7.66001 25.9 7.26001C25.95 6.88001 26 6.55001 26.27 6.17001C26.54 5.79001 26.89 5.57001 27.07 5.48001C27.42 5.30001 27.69 5.28001 28.07 5.25001C28.22 5.24001 28.37 5.23001 28.53 5.21001C29.63 5.06001 30.6 4.56001 31.13 4.13001C31.92 3.51001 32.23 2.73001 32.47 2.10001C32.72 1.45001 32.89 1.08001 33.33 0.930007C33.42 0.900007 33.71 0.800007 34.01 0.900007C34.31 1.00001 34.49 1.26001 34.59 1.42001V4.16001C34.57 4.50001 34.51 4.84001 34.42 5.16001C34.25 5.76001 33.98 6.16001 33.71 6.59001C33.63 6.72001 33.55 6.84001 33.47 6.97001C33.04 7.68001 32.69 8.47001 32.45 9.32001C32 9.64001 31.62 10.01 31.34 10.36C31.04 10.73 30.85 11.07 30.62 11.84H27.52C27.28 11.84 27.08 12.04 27.08 12.28C27.08 12.52 27.28 12.72 27.52 12.72H30.38C30.28 13.1 30.17 13.53 30.04 14.07L29.68 15.58C29.04 18.31 28.84 19.04 28.22 19.36C27.75 19.6 27.01 19.66 26.66 19.36C26.39 19.13 26.39 18.68 26.43 17.97C26.47 17.16 26.53 16.15 25.79 15.37C25.66 15.24 24.99 14.57 24 14.57C23.01 14.57 22.35 15.24 22.23 15.37C21.49 16.16 21.55 17.16 21.59 17.97C21.63 18.68 21.63 19.13 21.36 19.36C21.01 19.66 20.27 19.6 19.8 19.36C19.17 19.04 18.98 18.31 18.34 15.57L17.98 14.06C17.85 13.52 17.74 13.09 17.64 12.71H22.67C22.91 12.71 23.11 12.51 23.11 12.27C23.11 12.03 22.91 11.83 22.67 11.83H17.4C17.17 11.07 16.98 10.72 16.68 10.35C16.33 9.92001 15.82 9.46001 15.22 9.08001C14.98 8.32001 14.67 7.60001 14.28 6.96001C14.2 6.83001 14.12 6.70001 14.04 6.58001C13.77 6.15001 13.5 5.75001 13.33 5.15001C13.23 4.82001 13.18 4.48001 13.16 4.17001V1.44001C13.25 1.28001 13.43 1.02001 13.74 0.920007C14.04 0.820007 14.33 0.920007 14.42 0.950007C14.86 1.10001 15.02 1.47001 15.28 2.12001C15.42 2.48001 15.58 2.88001 15.83 3.27001C15.96 3.47001 16.23 3.53001 16.44 3.40001C16.64 3.27001 16.7 3.00001 16.57 2.79001C16.36 2.47001 16.23 2.12001 16.09 1.79001C15.82 1.11001 15.54 0.410007 14.71 0.120007C14.27 -0.0299929 13.85 -0.0499928 13.46 0.0900072C12.81 0.310007 12.47 0.850007 12.33 1.15001C12.3 1.21001 12.29 1.27001 12.29 1.34001V4.24001C12.31 4.64001 12.38 5.05001 12.5 5.44001C12.71 6.16001 13.02 6.64001 13.32 7.10001C13.4 7.22001 13.47 7.34001 13.55 7.47001C13.77 7.83001 13.96 8.22001 14.12 8.62001C13.73 8.49001 13.31 8.42001 12.88 8.42001C12.86 8.42001 12.83 8.42001 12.81 8.42001C10.02 8.47001 8.31999 11.62 7.06999 13.91C4.37999 18.86 4.65999 23.54 4.74999 25.08C4.89999 27.62 5.60999 30.02 6.79999 32.02C7.52999 33.24 8.19999 33.93 9.05999 34.3C10.38 34.88 12.12 34.74 13.48 33.94C14.68 33.23 15.27 32.2 15.78 31.3C16.14 30.66 16.45 30.13 16.9 29.83V31.79C16.9 32.76 17.65 33.55 18.6 33.62V34.91C17.65 34.99 16.9 35.78 16.9 36.74V38.97C16.9 39.94 17.65 40.73 18.6 40.8V42.09C17.65 42.17 16.9 42.96 16.9 43.92V46.15C16.9 47.17 17.73 48 18.75 48H29.19C30.21 48 31.04 47.17 31.04 46.15V43.92C31.04 42.91 30.23 42.1 29.23 42.07V40.8C30.23 40.78 31.04 39.96 31.04 38.95V36.72C31.04 35.71 30.23 34.9 29.23 34.87V33.6C30.23 33.58 31.04 32.76 31.04 31.75V29.73C31.55 30.01 31.89 30.58 32.28 31.26C32.8 32.17 33.38 33.19 34.58 33.9C35.38 34.37 36.32 34.61 37.22 34.61C37.85 34.61 38.46 34.49 39 34.26C39.86 33.88 40.53 33.2 41.26 31.98C42.77 29.44 43.21 26.8 43.31 25.04C43.4 23.5 43.68 18.83 40.99 13.87L40.96 13.9ZM28.33 33.63V34.89H19.45V33.63H28.33ZM30.14 43.92V46.15C30.14 46.69 29.7 47.12 29.17 47.12H18.73C18.19 47.12 17.76 46.68 17.76 46.15V43.92C17.76 43.38 18.2 42.95 18.73 42.95H29.17C29.71 42.95 30.14 43.39 30.14 43.92ZM30.14 36.74V38.97C30.14 39.51 29.7 39.94 29.17 39.94H25.88C25.64 39.94 25.44 40.14 25.44 40.38C25.44 40.62 25.64 40.82 25.88 40.82H28.33V42.08H19.45V40.82H22.4C22.64 40.82 22.84 40.62 22.84 40.38C22.84 40.14 22.64 39.94 22.4 39.94H18.73C18.19 39.94 17.76 39.5 17.76 38.97V36.74C17.76 36.2 18.2 35.77 18.73 35.77H29.17C29.71 35.77 30.14 36.21 30.14 36.74ZM30.14 31.78C30.14 32.32 29.7 32.75 29.17 32.75H18.73C18.19 32.75 17.76 32.31 17.76 31.78V29.55C17.76 29.01 18.2 28.58 18.73 28.58H29.17C29.71 28.58 30.14 29.02 30.14 29.55V31.78ZM42.41 25.02C42.31 26.69 41.9 29.18 40.48 31.57C39.85 32.64 39.31 33.2 38.62 33.5C37.55 33.97 36.13 33.85 35 33.19C34 32.6 33.5 31.72 33.01 30.87C32.49 29.96 31.95 29.02 30.82 28.76C30.52 28.14 29.89 27.71 29.16 27.71H18.72C17.97 27.71 17.33 28.16 17.04 28.8C16.01 29.1 15.49 29.99 14.99 30.87C14.51 31.72 14 32.6 13 33.19C11.87 33.85 10.45 33.98 9.37999 33.5C8.68999 33.2 8.14999 32.64 7.51999 31.57C6.39999 29.68 5.72999 27.42 5.58999 25.02C5.49999 23.55 5.23999 19.06 7.79999 14.32C8.93999 12.21 10.51 9.33001 12.79 9.28001C13.4 9.28001 14.01 9.47001 14.55 9.77001C14.6 9.82001 14.66 9.86001 14.73 9.88001C15.23 10.18 15.66 10.56 15.97 10.95C16.2 11.23 16.35 11.5 16.58 12.28C16.58 12.29 16.58 12.31 16.58 12.32C16.58 12.42 16.62 12.5 16.67 12.57C16.79 13 16.93 13.55 17.11 14.31L17.47 15.82C18.15 18.69 18.37 19.66 19.38 20.18C20.1 20.56 21.24 20.64 21.91 20.07C22.53 19.54 22.49 18.74 22.45 17.97C22.41 17.23 22.37 16.52 22.86 16.01C22.88 15.99 23.35 15.49 24 15.49C24.65 15.49 25.13 15.99 25.15 16.01C25.63 16.52 25.59 17.22 25.55 17.97C25.51 18.74 25.47 19.54 26.09 20.07C26.76 20.64 27.9 20.55 28.62 20.18C29.63 19.66 29.86 18.69 30.53 15.82L30.89 14.31C31.07 13.57 31.21 13.03 31.32 12.6C31.39 12.52 31.43 12.42 31.43 12.31C31.43 12.29 31.42 12.26 31.42 12.24C31.65 11.48 31.79 11.22 32.02 10.94C32.69 10.11 33.92 9.28001 35.16 9.28001H35.21C37.49 9.32001 39.05 12.21 40.19 14.32C42.76 19.05 42.49 23.54 42.4 25.02H42.41Z" fill="black"/>
<path d="M15.29 19.78C13.94 19.78 12.83 20.88 12.83 22.24C12.83 23.6 13.93 24.7 15.29 24.7C16.65 24.7 17.75 23.6 17.75 22.24C17.75 20.88 16.65 19.78 15.29 19.78ZM15.29 23.81C14.42 23.81 13.71 23.1 13.71 22.23C13.71 21.36 14.42 20.65 15.29 20.65C16.16 20.65 16.87 21.36 16.87 22.23C16.87 23.1 16.16 23.81 15.29 23.81Z" fill="black"/>
<path d="M36.14 19.94C36.14 18.59 35.04 17.48 33.68 17.48C32.32 17.48 31.22 18.58 31.22 19.94C31.22 21.3 32.32 22.4 33.68 22.4C35.04 22.4 36.14 21.3 36.14 19.94ZM33.68 21.52C32.81 21.52 32.1 20.81 32.1 19.94C32.1 19.07 32.81 18.36 33.68 18.36C34.55 18.36 35.26 19.07 35.26 19.94C35.26 20.81 34.55 21.52 33.68 21.52Z" fill="black"/>
<path d="M23.89 21.94C22.79 21.94 21.89 22.84 21.89 23.94C21.89 25.04 22.79 25.94 23.89 25.94C24.99 25.94 25.89 25.04 25.89 23.94C25.89 22.84 24.99 21.94 23.89 21.94ZM23.89 25.08C23.27 25.08 22.76 24.57 22.76 23.95C22.76 23.33 23.27 22.82 23.89 22.82C24.51 22.82 25.02 23.33 25.02 23.95C25.02 24.57 24.51 25.08 23.89 25.08Z" fill="black"/>
<path d="M37.66 23.03C36.56 23.03 35.66 23.93 35.66 25.03C35.66 26.13 36.56 27.03 37.66 27.03C38.76 27.03 39.66 26.13 39.66 25.03C39.66 23.93 38.76 23.03 37.66 23.03ZM37.66 26.16C37.04 26.16 36.53 25.65 36.53 25.03C36.53 24.41 37.04 23.9 37.66 23.9C38.28 23.9 38.79 24.41 38.79 25.03C38.79 25.65 38.28 26.16 37.66 26.16Z" fill="black"/>
<path d="M35.04 15.88C36.14 15.88 37.04 14.98 37.04 13.88C37.04 12.78 36.14 11.88 35.04 11.88C33.94 11.88 33.04 12.78 33.04 13.88C33.04 14.98 33.94 15.88 35.04 15.88ZM35.04 12.75C35.66 12.75 36.17 13.26 36.17 13.88C36.17 14.5 35.66 15.01 35.04 15.01C34.42 15.01 33.91 14.5 33.91 13.88C33.91 13.26 34.42 12.75 35.04 12.75Z" fill="black"/>
<path d="M12.21 17.05C13.31 17.05 14.21 16.15 14.21 15.05C14.21 13.95 13.31 13.05 12.21 13.05C11.11 13.05 10.21 13.95 10.21 15.05C10.21 16.15 11.11 17.05 12.21 17.05ZM12.21 13.92C12.83 13.92 13.34 14.43 13.34 15.05C13.34 15.67 12.83 16.18 12.21 16.18C11.59 16.18 11.08 15.67 11.08 15.05C11.08 14.43 11.59 13.92 12.21 13.92Z" fill="black"/>
<path d="M11.13 27.87C10.03 27.87 9.13 28.77 9.13 29.87C9.13 30.97 10.03 31.87 11.13 31.87C12.23 31.87 13.13 30.97 13.13 29.87C13.13 28.77 12.23 27.87 11.13 27.87ZM11.13 31C10.51 31 10 30.49 10 29.87C10 29.25 10.51 28.74 11.13 28.74C11.75 28.74 12.26 29.25 12.26 29.87C12.26 30.49 11.75 31 11.13 31Z" fill="black"/>
<path d="M29.4 22C29.18 21.78 28.84 21.78 28.63 22C28.42 22.22 28.41 22.56 28.63 22.77C28.85 22.98 29.19 22.99 29.4 22.77C29.61 22.57 29.62 22.24 29.42 22.02C29.42 22.02 29.41 22 29.4 22Z" fill="black"/>
<path d="M28.85 24.59C28.63 24.37 28.29 24.37 28.08 24.59C27.87 24.81 27.86 25.15 28.08 25.36C28.3 25.57 28.64 25.58 28.85 25.36C29.06 25.16 29.07 24.83 28.87 24.61C28.87 24.61 28.86 24.59 28.85 24.59Z" fill="black"/>
<path d="M31.5 23.57C31.28 23.35 30.94 23.35 30.73 23.57C30.52 23.79 30.51 24.13 30.73 24.34C30.95 24.55 31.29 24.56 31.5 24.34C31.71 24.14 31.72 23.81 31.52 23.59C31.52 23.59 31.51 23.57 31.5 23.57Z" fill="black"/>
<path d="M8.55001 23.88C8.67001 23.62 8.55001 23.3 8.30001 23.18C8.30001 23.18 8.28001 23.18 8.27001 23.17C7.99001 23.05 7.67001 23.17 7.56001 23.45C7.45001 23.73 7.56001 24.05 7.84001 24.16C8.12001 24.27 8.44001 24.16 8.55001 23.88Z" fill="black"/>
<path d="M8.73995 25.79C8.73995 25.79 8.71995 25.79 8.70995 25.78C8.42995 25.66 8.10995 25.78 7.99995 26.06C7.88995 26.34 7.99995 26.66 8.27995 26.77C8.55995 26.88 8.87995 26.77 8.98995 26.49C9.10995 26.23 8.98995 25.91 8.73995 25.79Z" fill="black"/>
<path d="M10.37 24.85C10.65 24.96 10.97 24.85 11.08 24.57C11.2 24.31 11.08 23.99 10.83 23.87C10.83 23.87 10.81 23.87 10.8 23.86C10.52 23.74 10.2 23.86 10.09 24.14C9.98004 24.42 10.09 24.74 10.37 24.85Z" fill="black"/>
<path d="M35.3401 28.51C35.3401 28.51 35.3201 28.51 35.3101 28.5C35.0301 28.38 34.71 28.5 34.6 28.78C34.49 29.06 34.6001 29.38 34.8801 29.49C35.1601 29.6 35.4801 29.49 35.5901 29.21C35.7101 28.95 35.5901 28.63 35.3401 28.51Z" fill="black"/>
<path d="M37.14 30.3C37.14 30.3 37.12 30.3 37.11 30.29C36.83 30.17 36.51 30.29 36.4 30.57C36.29 30.85 36.4 31.17 36.68 31.28C36.96 31.39 37.28 31.28 37.39 31C37.51 30.74 37.39 30.42 37.14 30.3Z" fill="black"/>
</g>
<defs>
<clipPath id="clip0_1298_2964">
<rect width="48" height="48" fill="white"/>
</clipPath>
</defs>
</svg>
