<svg width="1440" height="377" viewBox="0 0 1440 377" fill="none" xmlns="http://www.w3.org/2000/svg">
<path opacity="0.09" d="M605.429 362.629C521.753 365.643 451.06 355.452 396.346 332.846C446.209 299.547 496.929 240.341 496.929 137.43C496.929 95.6629 483.518 60.2109 458.194 35.0214C435.509 12.4871 405.192 0 372.877 0C342.774 0 311.529 11.5542 288.274 35.8108C265.019 11.5542 233.774 0 203.671 0C142.037 0 79.6193 47.2214 79.6193 137.358C79.6193 240.054 130.267 299.476 179.631 332.99C124.917 355.452 54.2954 365.571 -29.3091 362.557H-809V376.48H-29.3091C60.5729 379.709 136.045 367.868 193.826 342.032C207.166 349.927 220.006 355.955 231.349 360.476C260.382 372.245 312.385 372.245 342.56 360.476C354.473 355.883 367.955 349.711 382.008 341.602C433.655 364.925 499.639 376.982 577.394 376.982C586.597 376.982 595.941 376.767 605.429 376.48H1440V362.557H1022.21H605.429V362.629ZM288.63 58.058C303.397 79.3722 311.101 106.93 311.101 138.937C311.101 177.188 303.468 211.061 288.345 239.982C273.222 210.989 265.589 177.188 265.589 138.937C265.589 110.59 273.08 81.1663 288.702 58.058H288.63ZM93.4582 137.43C93.4582 76.071 131.337 13.9224 203.671 13.9224C231.919 13.9224 258.099 24.759 277.431 44.4944C278.073 45.1402 278.644 45.7861 279.286 46.432C262.522 68.751 251.679 99.3229 251.679 138.937C251.679 182.929 261.238 221.467 280.142 253.977C272.723 265.531 263.949 276.224 253.891 285.984C237.484 301.916 217.652 315.408 194.54 326.459C141.966 293.878 93.4582 236.897 93.4582 137.43ZM337.638 347.63C311.101 357.964 261.951 357.964 236.556 347.63C227.496 343.97 218.223 339.736 208.95 334.784C229.851 323.876 248.112 310.958 263.521 296.031C272.866 286.989 281.141 277.229 288.345 266.823C295.55 277.229 303.825 286.989 313.17 296.031C328.364 310.743 346.269 323.517 366.814 334.282C356.47 339.808 346.555 344.185 337.638 347.63ZM381.152 326.029C358.468 315.049 338.922 301.7 322.729 285.984C312.67 276.224 303.896 265.531 296.478 253.977C315.381 221.395 324.94 182.929 324.94 138.937C324.94 99.4664 314.168 68.8945 297.476 46.6473C314.953 26.9837 339.92 13.9942 372.948 13.9942C445.353 13.9942 483.161 76.1427 483.161 137.502C483.161 239.265 430.373 295.672 381.152 326.101V326.029Z" fill="white"/>
</svg>
