<?xml version="1.0" encoding="UTF-8"?><svg id="Capa_1" xmlns="http://www.w3.org/2000/svg" viewBox="0 0 16 16"><circle cx="8" cy="8" r="8" fill="#10ae96" stroke-width="0"/><path d="M10.64,11.81c1.22-.81,2.46-2.25,2.46-4.75,0-2.19-1.53-3.34-3.04-3.34-.78,0-1.51.3-2.05.84,0,0-.02.02-.03.03-.57-.59-1.33-.87-2.07-.87-1.51,0-3.04,1.15-3.04,3.34,0,2.5,1.24,3.94,2.45,4.76-1.07.44-2.39.68-3.92.72.08.11.16.22.24.33,1.58-.07,2.93-.35,4.02-.84.33.19.64.34.92.45.71.29,1.98.29,2.72,0,.29-.11.62-.26.97-.46,1.1.49,2.47.78,4.06.84.08-.11.17-.22.24-.33-1.54-.04-2.87-.29-3.95-.73ZM8,5.13c.36.52.55,1.19.55,1.97,0,.93-.19,1.75-.56,2.46-.37-.71-.56-1.53-.56-2.46,0-.69.18-1.4.56-1.97ZM3.22,7.06c0-1.49.93-3,2.7-3,.69,0,1.33.26,1.8.74.02.02.03.03.04.05-.44.59-.68,1.36-.68,2.25,0,1.07.23,2.01.7,2.8-.18.28-.4.54-.64.78-.4.39-.89.72-1.45.99-1.29-.79-2.47-2.18-2.47-4.6ZM9.2,12.17c-.65.25-1.85.25-2.47,0-.22-.09-.45-.19-.68-.31.51-.26.96-.58,1.34-.94.23-.22.43-.46.61-.71.18.25.38.49.61.71.37.36.81.67,1.31.93-.25.13-.5.24-.71.32ZM10.26,11.64c-.56-.27-1.03-.59-1.43-.97-.25-.24-.46-.5-.64-.78.46-.79.7-1.73.7-2.8,0-.96-.26-1.7-.67-2.25.43-.48,1.04-.79,1.85-.79,1.77,0,2.7,1.51,2.7,3,0,2.48-1.29,3.85-2.5,4.59Z" fill="#fff" stroke-width="0"/></svg>