<svg width="48" height="48" viewBox="0 0 48 48" fill="none" xmlns="http://www.w3.org/2000/svg">
<g clip-path="url(#clip0_384_857)">
<path d="M5.95892 19.0435H9.79442C10.4304 19.0435 10.9479 18.526 10.9479 17.89V14.0545C10.9479 13.4185 10.4304 12.901 9.79442 12.901H5.95892C5.32292 12.901 4.80542 13.4185 4.80542 14.0545V17.89C4.80542 18.526 5.32292 19.0435 5.95892 19.0435ZM5.99192 14.0875H9.76192V17.8575H5.99192V14.0875Z" fill="black"/>
<path d="M4.80542 27.888C4.80542 28.524 5.32292 29.0415 5.95892 29.0415H9.79442C10.4304 29.0415 10.9479 28.524 10.9479 27.888V24.0525C10.9479 23.4165 10.4304 22.899 9.79442 22.899H5.95892C5.32292 22.899 4.80542 23.4165 4.80542 24.0525V27.888ZM5.99192 24.085H9.76192V27.855H5.99192V24.085Z" fill="black"/>
<path d="M4.80542 37.8855C4.80542 38.5215 5.32292 39.039 5.95892 39.039H9.79442C10.4304 39.039 10.9479 38.5215 10.9479 37.8855V34.05C10.9479 33.414 10.4304 32.8965 9.79442 32.8965H5.95892C5.32292 32.8965 4.80542 33.414 4.80542 34.05V37.8855ZM5.99192 34.083H9.76192V37.853H5.99192V34.083Z" fill="black"/>
<path d="M0.593068 9.777C0.812878 9.777 0.991068 9.59881 0.991068 9.379C0.991068 9.15919 0.812878 8.981 0.593068 8.981C0.373259 8.981 0.195068 9.15919 0.195068 9.379C0.195068 9.59881 0.373259 9.777 0.593068 9.777Z" fill="black"/>
<path d="M21.4939 30.573C21.4939 30.7925 21.6719 30.971 21.8919 30.971C22.1119 30.971 22.2899 30.793 22.2899 30.573C22.2899 30.353 22.1119 30.175 21.8919 30.175C21.6719 30.175 21.4939 30.353 21.4939 30.573Z" fill="black"/>
<path d="M41.0274 25.9705C41.2472 25.9705 41.4254 25.7923 41.4254 25.5725C41.4254 25.3527 41.2472 25.1745 41.0274 25.1745C40.8076 25.1745 40.6294 25.3527 40.6294 25.5725C40.6294 25.7923 40.8076 25.9705 41.0274 25.9705Z" fill="black"/>
<path d="M22.7874 31.81C22.5579 32.0435 22.5609 32.419 22.7949 32.649C24.5564 34.3805 26.8874 35.3335 29.3574 35.3335C34.5204 35.3335 38.7209 31.133 38.7209 25.97C38.7209 20.807 34.5204 16.6065 29.3574 16.6065C24.1944 16.6065 19.9939 20.807 19.9939 25.97C19.9939 26.972 20.1514 27.9585 20.4624 28.9015C20.5649 29.2125 20.9004 29.382 21.2114 29.2795C21.5224 29.177 21.6919 28.8415 21.5894 28.5305C21.3184 27.707 21.1809 26.8455 21.1809 25.97C21.1809 21.461 24.8489 17.793 29.3579 17.793C33.8669 17.793 37.5349 21.461 37.5349 25.97C37.5349 30.479 33.8669 34.147 29.3579 34.147C27.2004 34.147 25.1654 33.3145 23.6269 31.8025C23.3934 31.573 23.0179 31.576 22.7879 31.81H22.7874Z" fill="black"/>
<path d="M46.946 38.563L42.9595 34.576C42.848 34.465 42.6975 34.4025 42.54 34.4025C42.3825 34.4025 42.232 34.465 42.1205 34.576L41.8045 34.892L39.684 32.7715C40.7045 31.224 41.371 29.458 41.616 27.5985C41.6585 27.2735 41.43 26.9755 41.1055 26.933C40.78 26.89 40.4825 27.119 40.44 27.4435C39.7115 32.976 34.9475 37.148 29.358 37.148C23.1945 37.148 18.18 32.1335 18.18 25.97C18.18 19.8065 23.1945 14.792 29.358 14.792C34.645 14.792 39.251 18.5455 40.309 23.717C40.3745 24.038 40.688 24.2445 41.009 24.179C41.33 24.1135 41.537 23.8 41.471 23.479C40.9085 20.7295 39.3995 18.226 37.223 16.4295C36.5845 15.9025 35.897 15.445 35.173 15.0595V9.4005C35.173 9.243 35.1105 9.0925 34.9995 8.981L26.4 0.382004C26.2885 0.271004 26.138 0.208504 25.9805 0.208504H0.9695C0.435 0.208504 0 0.643504 0 1.178V6.23C0 6.5575 0.2655 6.823 0.593 6.823C0.9205 6.823 1.186 6.5575 1.186 6.23V1.3945H25.011V9.4C25.011 9.9345 25.446 10.3695 25.9805 10.3695H33.9865V14.506C32.525 13.9165 30.9525 13.6055 29.3575 13.6055H13.705C13.3775 13.6055 13.112 13.871 13.112 14.1985C13.112 14.526 13.3775 14.7915 13.705 14.7915H24.0765C22.7975 15.398 21.6385 16.2175 20.646 17.2045H13.7055C13.378 17.2045 13.1125 17.47 13.1125 17.7975C13.1125 18.125 13.378 18.3905 13.7055 18.3905H19.5955C18.4225 19.898 17.591 21.683 17.2165 23.629H13.7055C13.378 23.629 13.1125 23.8945 13.1125 24.222C13.1125 24.5495 13.378 24.815 13.7055 24.815H17.048C17.0125 25.195 16.9935 25.58 16.9935 25.969C16.9935 26.358 17.0125 26.7385 17.047 27.1165H13.705C13.3775 27.1165 13.112 27.382 13.112 27.7095C13.112 28.037 13.3775 28.3025 13.705 28.3025H17.215C17.6035 30.328 18.4875 32.179 19.736 33.7245H13.705C13.3775 33.7245 13.112 33.99 13.112 34.3175C13.112 34.645 13.3775 34.9105 13.705 34.9105H20.827C21.7785 35.8185 22.8745 36.5765 24.0765 37.1465H13.705C13.3775 37.1465 13.112 37.412 13.112 37.7395C13.112 38.067 13.3775 38.3325 13.705 38.3325H29.3575C30.9585 38.3325 32.528 38.023 33.9865 37.4345V46.603H1.1865V12.104C1.1865 11.7765 0.921 11.511 0.5935 11.511C0.266 11.511 0.0005 11.7765 0.0005 12.104V46.822C0.0005 47.3565 0.4355 47.7915 0.97 47.7915H34.2035C34.738 47.7915 35.173 47.3565 35.173 46.822V36.882C35.47 36.7235 35.7605 36.553 36.0445 36.3705L38.1855 38.5115L37.8695 38.8275C37.7585 38.939 37.696 39.0895 37.696 39.247C37.696 39.4045 37.7585 39.555 37.8695 39.6665L41.8565 43.653C42.5365 44.333 43.44 44.707 44.4015 44.707C45.363 44.707 46.2665 44.3325 46.9465 43.653C47.6265 42.973 48.0005 42.0695 48.0005 41.108C48.0005 40.1465 47.626 39.243 46.9465 38.563H46.946ZM26.1975 1.857L29.8605 5.52L33.5235 9.183H26.197V1.857H26.1975ZM37.023 35.6715C37.199 35.532 37.3725 35.3885 37.5415 35.239C38.064 34.7775 38.5425 34.2755 38.975 33.7405L40.9655 35.731L39.024 37.6725L37.023 35.6715ZM46.107 42.814C45.6515 43.2695 45.0455 43.5205 44.401 43.5205C43.7565 43.5205 43.1505 43.2695 42.695 42.814L39.1275 39.2465L39.443 38.931C39.443 38.931 39.443 38.931 39.4435 38.9305L42.224 36.15C42.224 36.15 42.224 36.15 42.2245 36.1495L42.54 35.834L46.1075 39.4015C46.563 39.857 46.814 40.463 46.814 41.1075C46.814 41.752 46.563 42.358 46.1075 42.8135L46.107 42.814Z" fill="black"/>
<path d="M28.6125 30.6015C29.2395 30.6015 29.866 30.363 30.3435 29.8855L34.0885 26.1405C35.043 25.186 35.043 23.633 34.0885 22.6785C33.134 21.724 31.581 21.724 30.6265 22.6785L28.6125 24.6925L28.303 24.383C27.3485 23.4285 25.7955 23.4285 24.841 24.383C24.3785 24.8455 24.124 25.46 24.124 26.114C24.124 26.768 24.3785 27.3825 24.841 27.845L26.8815 29.885C27.3585 30.362 27.9855 30.601 28.6125 30.601V30.6015ZM25.3105 26.115C25.3105 25.778 25.4415 25.461 25.68 25.223C25.926 24.977 26.249 24.854 26.572 24.854C26.895 24.854 27.218 24.977 27.464 25.223L28.1925 25.9515C28.304 26.0625 28.4545 26.125 28.612 26.125C28.7695 26.125 28.92 26.0625 29.0315 25.9515L31.4645 23.518C31.9565 23.026 32.757 23.026 33.249 23.518C33.741 24.01 33.741 24.8105 33.249 25.302L29.504 29.047C29.012 29.539 28.2115 29.539 27.7195 29.047L25.6795 27.007C25.441 26.7685 25.31 26.452 25.31 26.115H25.3105Z" fill="black"/>
</g>
<defs>
<clipPath id="clip0_384_857">
<rect width="48" height="48" fill="white"/>
</clipPath>
</defs>
</svg>
