<svg width="48" height="48" viewBox="0 0 48 48" fill="none" xmlns="http://www.w3.org/2000/svg">
<path d="M44.5135 2.82251H3.4865C1.564 2.82251 0 4.38651 0 6.30901V32.4285C0 34.351 1.564 35.915 3.4865 35.915H17.154V40.7505H11.8305C11.1405 40.7505 10.579 41.312 10.579 42.002V43.902C10.579 44.592 11.1405 45.1535 11.8305 45.1535H28.281C28.525 45.1535 28.7225 44.9555 28.7225 44.712C28.7225 44.4685 28.5245 44.2705 28.281 44.2705H11.8305C11.6275 44.2705 11.4625 44.1055 11.4625 43.9025V42.0025C11.4625 41.7995 11.6275 41.6345 11.8305 41.6345H36.169C36.372 41.6345 36.537 41.7995 36.537 42.0025V43.9025C36.537 44.1055 36.372 44.2705 36.169 44.2705H33.036C32.792 44.2705 32.5945 44.4685 32.5945 44.712C32.5945 44.9555 32.7925 45.1535 33.036 45.1535H36.169C36.859 45.1535 37.4205 44.592 37.4205 43.902V42.002C37.4205 41.312 36.859 40.7505 36.169 40.7505H30.8455V35.915H44.513C46.4355 35.915 47.9995 34.351 47.9995 32.4285V6.30901C47.9995 4.38651 46.4355 2.82251 44.513 2.82251H44.5135ZM29.9625 40.751H18.0375V35.9155H29.9625V40.751ZM47.1165 32.4285C47.1165 33.864 45.9485 35.0315 44.513 35.0315H3.4865C2.051 35.0315 0.883 33.8635 0.883 32.4285V6.30901C0.883 4.87351 2.051 3.70551 3.4865 3.70551H44.513C45.9485 3.70551 47.1165 4.87351 47.1165 6.30901V32.4285Z" fill="black"/>
<path d="M42.9106 5.71753H5.08908C3.84908 5.71753 2.84058 6.72603 2.84058 7.96603V30.772C2.84058 32.012 3.84908 33.0205 5.08908 33.0205H11.8266C12.0706 33.0205 12.2681 32.8225 12.2681 32.579C12.2681 32.3355 12.0701 32.1375 11.8266 32.1375H5.08908C4.33658 32.1375 3.72408 31.525 3.72408 30.7725V7.96603C3.72408 7.21353 4.33658 6.60103 5.08908 6.60103H42.9106C43.6631 6.60103 44.2756 7.21353 44.2756 7.96603V30.772C44.2756 31.5245 43.6631 32.137 42.9106 32.137H16.6256C16.3816 32.137 16.1841 32.335 16.1841 32.5785C16.1841 32.822 16.3821 33.02 16.6256 33.02H42.9106C44.1506 33.02 45.1591 32.0115 45.1591 30.7715V7.96603C45.1591 6.72603 44.1506 5.71753 42.9106 5.71753Z" fill="black"/>
<path d="M30.5934 44.247C30.3364 44.247 30.1279 44.4555 30.1279 44.7125C30.1279 44.9695 30.3364 45.178 30.5934 45.178C30.8504 45.178 31.0589 44.9695 31.0589 44.7125C31.0589 44.4555 30.8504 44.247 30.5934 44.247Z" fill="black"/>
<path d="M14.2189 33.044C14.476 33.044 14.6844 32.8356 14.6844 32.5785C14.6844 32.3214 14.476 32.113 14.2189 32.113C13.9618 32.113 13.7534 32.3214 13.7534 32.5785C13.7534 32.8356 13.9618 33.044 14.2189 33.044Z" fill="black"/>
</svg>
