<svg width="48" height="48" viewBox="0 0 48 48" fill="none" xmlns="http://www.w3.org/2000/svg">
<rect width="48" height="48" fill="white"/>
<path d="M15.7271 3.50851C15.4621 3.50851 15.2471 3.72351 15.2471 3.98851C15.2471 4.25351 15.4621 4.46851 15.7271 4.46851H21.1341C21.3991 4.46851 21.6141 4.25351 21.6141 3.98851C21.6141 3.72351 21.3991 3.50851 21.1341 3.50851H15.7271Z" fill="black"/>
<path d="M40.6109 32.2185C40.6109 31.602 40.5339 30.9875 40.3829 30.393C40.1689 29.5525 39.8109 28.759 39.3184 28.0355C39.3034 28.0135 39.2869 27.993 39.2684 27.974C37.7249 26.3595 35.9954 24.5575 34.3229 22.815C32.6954 21.1195 31.0144 19.368 29.5039 17.788V14.2185C29.5039 13.9535 29.2889 13.7385 29.0239 13.7385C28.7589 13.7385 28.5439 13.9535 28.5439 14.2185V25.511L25.4059 22.435C25.2254 22.258 24.9384 22.2515 24.7499 22.42C24.6799 22.4825 24.6134 22.5445 24.5484 22.6065C24.1044 22.313 23.5839 22.1545 23.0429 22.1545C22.1299 22.1545 21.3204 22.6045 20.8234 23.2945L16.4254 21.0645C16.5094 20.802 16.5549 20.523 16.5549 20.233C16.5549 19.874 16.4849 19.5315 16.3584 19.2175L21.0034 16.4605C21.5044 17.0215 22.2329 17.3755 23.0424 17.3755C24.5504 17.3755 25.7769 16.1485 25.7769 14.641C25.7769 13.1335 24.5499 11.9065 23.0424 11.9065C21.5349 11.9065 20.3074 13.1335 20.3074 14.641C20.3074 14.9945 20.3754 15.3325 20.4984 15.643L15.8489 18.4025C15.3479 17.848 14.6239 17.4985 13.8194 17.4985C12.3114 17.4985 11.0849 18.7255 11.0849 20.233C11.0849 21.7405 12.3119 22.9675 13.8194 22.9675C14.6944 22.9675 15.4739 22.554 15.9749 21.913L20.4069 24.16C20.3424 24.392 20.3074 24.6365 20.3074 24.889C20.3074 26.3525 21.4634 27.5515 22.9104 27.6205C23.2724 28.659 24.0654 29.6975 25.1624 31.133C25.9014 32.1 26.7059 33.0235 27.5579 33.883C27.2769 34.52 27.1089 35.185 27.0574 35.8645C26.9984 36.647 27.1024 37.363 27.2874 37.995C26.7744 38.3665 26.1584 38.5685 25.5234 38.5685H21.4104C21.4104 38.5685 21.4099 38.5685 21.4094 38.5685H11.3714C9.70542 38.5685 8.35042 37.213 8.35042 35.5475V3.9815C8.35042 2.3155 9.70592 0.9605 11.3714 0.9605H25.5234C27.1894 0.9605 28.5444 2.316 28.5444 3.9815V8.74C28.5444 9.005 28.7594 9.22 29.0244 9.22C29.2894 9.22 29.5044 9.005 29.5044 8.74V3.9815C29.5044 1.786 27.7184 0 25.5229 0H11.3704C9.17492 0 7.38892 1.786 7.38892 3.9815V35.5475C7.38892 37.743 9.17492 39.529 11.3704 39.529H21.1134C21.7624 40.856 22.7029 41.97 23.8489 42.764C24.1879 42.9985 24.5479 43.208 24.9224 43.389L24.9204 47.5195C24.9204 47.5235 24.9209 47.5275 24.9209 47.5315C24.9209 47.5375 24.9199 47.5435 24.9199 47.5495C24.9199 47.798 25.1349 47.9995 25.4004 47.9995H40.1304C40.3954 47.9995 40.6104 47.798 40.6104 47.5495C40.6104 47.544 40.6099 47.5385 40.6094 47.5335C40.6094 47.5275 40.6104 47.522 40.6104 47.516V41.4895C40.6104 41.2245 40.3954 41.0095 40.1304 41.0095C39.8654 41.0095 39.6504 41.2245 39.6504 41.4895V47.0995H25.8814L25.8834 43.0805C25.8834 42.889 25.7699 42.716 25.5944 42.6395C25.1729 42.4565 24.7694 42.2325 24.3959 41.974C23.5084 41.359 22.7584 40.5225 22.1984 39.529H25.5224C26.2734 39.529 27.0034 39.315 27.6339 38.9185C27.9989 39.7085 28.4474 40.2935 28.7224 40.6105C28.8174 40.72 28.9509 40.776 29.0854 40.776C29.1969 40.776 29.3089 40.7375 29.3999 40.6585C29.6004 40.485 29.6219 40.1815 29.4484 39.981C28.9674 39.426 27.8649 37.921 28.0149 35.9365C28.0654 35.2695 28.2504 34.618 28.5649 33.9995C28.6599 33.813 28.6229 33.5865 28.4739 33.4395C27.5644 32.544 26.7069 31.572 25.9254 30.5495C24.6719 28.909 23.9664 27.953 23.7359 27.04C23.7349 27.0355 23.7339 27.031 23.7329 27.026C23.6709 26.7755 23.6444 26.5285 23.6524 26.271C23.6699 25.711 23.8839 24.6355 25.0639 23.4445L34.2829 32.4805C34.4724 32.666 34.7764 32.663 34.9619 32.4735C35.1474 32.284 35.1444 31.98 34.9549 31.7945L29.4574 26.406C29.4869 26.3435 29.5039 26.274 29.5039 26.2005V19.177C30.8264 20.559 32.2479 22.0395 33.6299 23.4795C35.2919 25.211 37.0104 27.0015 38.5459 28.608C38.9639 29.23 39.2689 29.91 39.4514 30.6295C39.5829 31.147 39.6499 31.682 39.6499 32.219V37.221C39.6499 37.486 39.8649 37.701 40.1299 37.701C40.3949 37.701 40.6099 37.486 40.6099 37.221V32.2185H40.6109ZM23.0419 12.866C24.0204 12.866 24.8159 13.662 24.8159 14.64C24.8159 15.618 24.0199 16.414 23.0419 16.414C22.0639 16.414 21.2679 15.618 21.2679 14.64C21.2679 13.662 22.0639 12.866 23.0419 12.866ZM13.8194 22.007C12.8409 22.007 12.0454 21.211 12.0454 20.233C12.0454 19.255 12.8414 18.459 13.8194 18.459C14.7974 18.459 15.5934 19.255 15.5934 20.233C15.5934 21.211 14.7974 22.007 13.8194 22.007ZM22.6919 26.2415C22.6879 26.3735 22.6914 26.5025 22.7004 26.63C21.8849 26.4705 21.2679 25.7505 21.2679 24.889C21.2679 23.9105 22.0639 23.115 23.0419 23.115C23.3389 23.115 23.6264 23.189 23.8824 23.3265C22.9079 24.536 22.7109 25.63 22.6919 26.2415Z" fill="black"/>
<path d="M29.0239 12.091C29.2888 12.091 29.5034 11.8763 29.5034 11.6115C29.5034 11.3467 29.2888 11.132 29.0239 11.132C28.7591 11.132 28.5444 11.3467 28.5444 11.6115C28.5444 11.8763 28.7591 12.091 29.0239 12.091Z" fill="black"/>
<path d="M40.1311 39.049C39.8661 39.049 39.6516 39.2635 39.6516 39.5285C39.6516 39.7935 39.8661 40.008 40.1311 40.008C40.3961 40.008 40.6106 39.7935 40.6106 39.5285C40.6106 39.2635 40.3961 39.049 40.1311 39.049Z" fill="black"/>
</svg>
