<svg width="48" height="48" viewBox="0 0 48 48" fill="none" xmlns="http://www.w3.org/2000/svg">
<g clip-path="url(#clip0_1286_1244)">
<path d="M17.87 44.12C17.63 44.12 17.44 44.31 17.44 44.55V47.13H9.71003V39.93C9.71003 39.83 9.67003 39.73 9.61003 39.65L2.65003 31.56V18.73C2.97003 18.19 3.57003 17.86 4.20003 17.9C4.85003 17.94 5.41003 18.34 5.67003 18.93V24.74C5.67003 24.86 5.72003 24.97 5.81003 25.05C6.31003 25.52 6.78003 25.96 7.26003 26.41C6.88003 26.52 6.46003 26.73 6.12003 27.14C5.55003 27.82 5.42003 28.8 5.79003 29.62C5.81003 29.67 5.84003 29.71 5.88003 29.75L10.62 34.46C10.7 34.54 10.81 34.59 10.92 34.59C11.03 34.59 11.14 34.55 11.23 34.46C11.4 34.29 11.4 34.02 11.23 33.85L6.55003 29.2C6.35003 28.69 6.44003 28.11 6.79003 27.69C7.21003 27.18 7.83003 27.15 8.08003 27.16C10.02 28.95 11.82 30.52 13.51 31.92L13.61 32C14.93 33.08 16.73 34.57 17.28 37C17.43 37.66 17.44 38.17 17.44 38.63V40.5C17.44 40.74 17.63 40.93 17.87 40.93C18.11 40.93 18.3 40.74 18.3 40.5V38.63C18.3 38.14 18.29 37.56 18.12 36.81C17.5 34.09 15.49 32.44 14.15 31.34L14.05 31.26C11.77 29.38 9.31003 27.19 6.54003 24.56V18.85C6.54003 18.8 6.54003 18.75 6.51003 18.7C6.15003 17.75 5.27003 17.1 4.25003 17.04C3.25003 16.98 2.30003 17.53 1.83003 18.42C1.80003 18.48 1.78003 18.55 1.78003 18.62V31.73C1.78003 31.83 1.82003 31.93 1.88003 32.01L8.84003 40.1V47.57C8.84003 47.81 9.03003 48 9.27003 48H17.86C17.97 48 18.08 47.96 18.17 47.88C18.25 47.8 18.3 47.69 18.3 47.57V44.56C18.3 44.32 18.11 44.13 17.87 44.13V44.12Z" fill="black"/>
<path d="M45.6501 25.14C45.4101 25.14 45.2201 25.33 45.2201 25.57V31.56L38.26 39.65C38.19 39.73 38.16 39.83 38.16 39.93V47.13H30.43V38.63C30.43 38.17 30.44 37.66 30.59 37C31.14 34.57 32.95 33.09 34.26 32L34.3601 31.92C36.0501 30.53 37.85 28.95 39.7901 27.16C40.0401 27.15 40.6501 27.17 41.0801 27.69C41.4201 28.11 41.5101 28.69 41.3101 29.2L36.6301 33.85C36.4601 34.02 36.4601 34.29 36.6301 34.46C36.7101 34.55 36.83 34.59 36.94 34.59C37.05 34.59 37.1601 34.55 37.2401 34.46L41.98 29.75C41.98 29.75 42.05 29.67 42.07 29.62C42.44 28.8 42.3101 27.82 41.7401 27.14C41.4001 26.73 40.98 26.52 40.6 26.41C41.08 25.97 41.55 25.53 42.05 25.05C42.14 24.97 42.19 24.86 42.19 24.74V18.93C42.44 18.34 43.01 17.94 43.66 17.9C44.31 17.86 44.89 18.19 45.21 18.73V20.78C45.21 21.02 45.4 21.21 45.64 21.21C45.88 21.21 46.07 21.02 46.07 20.78V18.62C46.07 18.55 46.0501 18.48 46.0201 18.42C45.5601 17.53 44.6 16.98 43.6 17.04C42.59 17.1 41.7 17.75 41.34 18.7C41.32 18.75 41.3101 18.8 41.3101 18.85V24.56C38.5301 27.2 36.07 29.39 33.8 31.26L33.7001 31.34C32.3701 32.44 30.35 34.1 29.73 36.81C29.56 37.55 29.55 38.14 29.55 38.63V47.57C29.55 47.69 29.6 47.79 29.68 47.88C29.76 47.96 29.87 48.01 29.99 48.01H38.5801C38.8201 48.01 39.01 47.81 39.01 47.58V40.11L45.9701 32.02C46.0401 31.94 46.07 31.84 46.07 31.74V25.59C46.07 25.35 45.88 25.16 45.64 25.16L45.6501 25.14Z" fill="black"/>
<path d="M18.26 42.13C18.03 41.9 17.68 41.9 17.46 42.13C17.25 42.36 17.23 42.71 17.46 42.93C17.69 43.14 18.04 43.16 18.26 42.93C18.48 42.72 18.49 42.38 18.28 42.16L18.26 42.14V42.13Z" fill="black"/>
<path d="M46.04 22.72C45.81 22.49 45.46 22.49 45.24 22.72C45.03 22.95 45.01 23.3 45.24 23.52C45.47 23.74 45.82 23.75 46.04 23.52C46.26 23.31 46.27 22.97 46.06 22.75L46.04 22.73V22.72Z" fill="black"/>
<path d="M9.43005 5.45003C9.20005 5.22003 8.85005 5.22003 8.63005 5.45003C8.42005 5.68003 8.40005 6.03003 8.63005 6.25003C8.86005 6.47003 9.21005 6.48003 9.43005 6.25003C9.65005 6.04003 9.66005 5.70003 9.45005 5.48003L9.43005 5.46003V5.45003Z" fill="black"/>
<path d="M24.0099 30.54C23.8999 30.54 23.7799 30.5 23.6999 30.41L10.0199 16.73C9.96994 16.68 9.92994 16.61 9.90994 16.54C7.78994 13.98 7.05994 10.56 7.95994 7.33999C8.02994 7.10999 8.26994 6.96999 8.49994 7.03999C8.72994 7.10999 8.86994 7.34999 8.79994 7.57999C7.95994 10.57 8.65994 13.75 10.6799 16.1C10.7099 16.14 10.7399 16.18 10.7599 16.23L23.9999 29.47L37.2499 16.22C37.2499 16.22 37.2899 16.14 37.3199 16.1C40.4499 12.46 40.2399 6.95999 36.8499 3.55999C33.4499 0.15999 27.9299 -0.0300102 24.2999 3.11999C24.1299 3.25999 23.8899 3.25999 23.7199 3.11999C20.0799 -0.0300102 14.5599 0.15999 11.1599 3.56999C10.8799 3.84999 10.6099 4.14999 10.3699 4.46999C10.2199 4.65999 9.93994 4.69999 9.74994 4.54999C9.55994 4.39999 9.51994 4.12999 9.66994 3.92999C9.92994 3.58999 10.2199 3.25999 10.5299 2.94999C14.1699 -0.69001 20.0199 -0.98001 23.9999 2.21999C27.9899 -0.98001 33.8299 -0.69001 37.4699 2.94999C41.1499 6.62999 41.4099 12.57 38.0899 16.56C38.0699 16.62 38.0399 16.68 37.9899 16.73L24.3099 30.41C24.2199 30.5 24.1099 30.54 23.9999 30.54H24.0099Z" fill="black"/>
</g>
<defs>
<clipPath id="clip0_1286_1244">
<rect width="48" height="48" fill="white"/>
</clipPath>
</defs>
</svg>
