<svg width="48" height="48" viewBox="0 0 48 48" fill="none" xmlns="http://www.w3.org/2000/svg">
<g clip-path="url(#clip0_1104_513)">
<path d="M43.7999 18.28H36.1899V5.23C36.1899 2.92 34.3099 1.03 31.9899 1.03H4.64994C2.32994 1.03 0.449941 2.91 0.449941 5.23V6.19C0.449941 6.43 0.639941 6.63 0.889941 6.63C1.13994 6.63 1.32994 6.43 1.32994 6.19V5.23C1.32994 3.4 2.81994 1.91 4.64994 1.91H31.9999C33.8299 1.91 35.3199 3.4 35.3199 5.23V18.29H16.4499C14.1399 18.29 12.2499 20.17 12.2499 22.49V23.49C12.1899 23.5 12.1299 23.52 12.0699 23.56L5.43994 28.43V23.91C5.43994 23.67 5.24994 23.47 4.99994 23.47H4.63994C2.80994 23.47 1.31994 21.98 1.31994 20.15V11.74C1.31994 11.5 1.12994 11.3 0.879941 11.3C0.629941 11.3 0.439941 11.5 0.439941 11.74V20.15C0.439941 22.44 2.27994 24.31 4.55994 24.34V29.28C4.55994 29.44 4.64994 29.59 4.79994 29.67C4.85994 29.7 4.92994 29.72 4.99994 29.72C5.08994 29.72 5.17994 29.69 5.25994 29.63L12.2499 24.5V37.39C12.2499 39.7 14.1299 41.58 16.4499 41.58H18.6199C18.8599 41.58 19.0599 41.38 19.0599 41.14C19.0599 40.9 18.8699 40.7 18.6199 40.7H16.4499C14.6199 40.7 13.1299 39.21 13.1299 37.38V22.46C13.1299 20.63 14.6199 19.14 16.4499 19.14H43.7999C45.6299 19.14 47.1199 20.63 47.1199 22.46V37.38C47.1199 39.21 45.6299 40.7 43.7999 40.7H43.4399C43.1999 40.7 42.9999 40.9 42.9999 41.14V45.66L36.3699 40.79C36.2999 40.73 36.2099 40.7 36.1099 40.7H24.1299C23.8899 40.7 23.6899 40.9 23.6899 41.14C23.6899 41.38 23.8799 41.58 24.1299 41.58H35.9699L43.1799 46.88C43.2599 46.94 43.3499 46.97 43.4399 46.97C43.5099 46.97 43.5699 46.95 43.6399 46.92C43.7899 46.85 43.8799 46.7 43.8799 46.53V41.59C46.1599 41.55 47.9999 39.68 47.9999 37.4V22.48C47.9999 20.17 46.1199 18.28 43.7999 18.28Z" fill="black"/>
<path d="M12.12 12.55C12.12 11.04 10.89 9.82001 9.39003 9.82001C7.89003 9.82001 6.66003 11.05 6.66003 12.55C6.66003 14.05 7.89003 15.28 9.39003 15.28C10.89 15.28 12.12 14.05 12.12 12.55ZM7.52003 12.55C7.52003 11.53 8.35003 10.69 9.38003 10.69C10.41 10.69 11.24 11.52 11.24 12.55C11.24 13.58 10.41 14.41 9.38003 14.41C8.35003 14.41 7.52003 13.58 7.52003 12.55Z" fill="black"/>
<path d="M18.62 15.28C20.13 15.28 21.35 14.05 21.35 12.55C21.35 11.05 20.12 9.82001 18.62 9.82001C17.12 9.82001 15.89 11.05 15.89 12.55C15.89 14.05 17.12 15.28 18.62 15.28ZM18.62 10.69C19.64 10.69 20.48 11.52 20.48 12.55C20.48 13.58 19.65 14.41 18.62 14.41C17.59 14.41 16.76 13.58 16.76 12.55C16.76 11.52 17.59 10.69 18.62 10.69Z" fill="black"/>
<path d="M30.56 12.55C30.56 11.04 29.33 9.82001 27.83 9.82001C26.33 9.82001 25.1 11.05 25.1 12.55C25.1 14.05 26.33 15.28 27.83 15.28C29.33 15.28 30.56 14.05 30.56 12.55ZM25.97 12.55C25.97 11.53 26.8 10.69 27.83 10.69C28.86 10.69 29.69 11.52 29.69 12.55C29.69 13.58 28.86 14.41 27.83 14.41C26.8 14.41 25.97 13.58 25.97 12.55Z" fill="black"/>
<path d="M25.38 32.75L25.53 35.38C25.56 35.95 25.81 36.46 26.24 36.84C26.63 37.19 27.13 37.38 27.65 37.38C27.69 37.38 27.73 37.38 27.78 37.38C28.95 37.31 29.84 36.31 29.77 35.14L29.63 32.76H30.3L37.54 35.65C37.59 35.67 37.65 35.68 37.7 35.68C37.79 35.68 37.87 35.65 37.94 35.6C38.06 35.52 38.13 35.38 38.13 35.24V29.37C38.13 29.13 37.94 28.93 37.69 28.93C37.44 28.93 37.25 29.13 37.25 29.37V34.59L30.8 32.01V26.53L37.25 23.89V24.56C37.25 24.8 37.44 25 37.69 25C37.94 25 38.13 24.8 38.13 24.56V23.24C38.13 23.09 38.06 22.96 37.94 22.88C37.82 22.8 37.67 22.79 37.53 22.84L30.29 25.81H25.12C23.21 25.81 21.65 27.37 21.65 29.28C21.65 31.19 23.21 32.75 25.12 32.75H25.38ZM28.9 35.18C28.92 35.51 28.81 35.83 28.59 36.08C28.37 36.33 28.06 36.48 27.73 36.5C27.4 36.52 27.08 36.41 26.83 36.19C26.58 35.97 26.43 35.66 26.41 35.33L26.26 32.75H28.76L28.9 35.18ZM22.52 29.28C22.52 27.85 23.69 26.68 25.12 26.68H29.94V31.88H25.12C23.69 31.88 22.52 30.71 22.52 29.28Z" fill="black"/>
<path d="M21.94 40.53C21.59 40.18 21.03 40.18 20.7 40.53C20.37 40.88 20.35 41.44 20.7 41.77C21.05 42.1 21.61 42.12 21.94 41.77C22.28 41.45 22.3 40.91 21.98 40.56C21.97 40.55 21.96 40.54 21.94 40.52V40.53Z" fill="black"/>
<path d="M37.07 26.36C36.74 26.71 36.72 27.27 37.07 27.6C37.42 27.93 37.98 27.95 38.31 27.6C38.65 27.28 38.67 26.74 38.35 26.39C38.34 26.38 38.33 26.37 38.31 26.35C37.96 26 37.4 26 37.07 26.35V26.36Z" fill="black"/>
<path d="M1.50006 9.37999C1.84006 9.05999 1.86006 8.51999 1.54006 8.16999C1.53006 8.15999 1.52006 8.14999 1.50006 8.12999C1.15006 7.77999 0.59006 7.77999 0.26006 8.12999C-0.06994 8.47999 -0.08994 9.03999 0.26006 9.36999C0.61006 9.69999 1.17006 9.71999 1.50006 9.36999V9.37999Z" fill="black"/>
</g>
<defs>
<clipPath id="clip0_1104_513">
<rect width="48" height="48" fill="white"/>
</clipPath>
</defs>
</svg>
