<svg width="48" height="48" viewBox="0 0 48 48" fill="none" xmlns="http://www.w3.org/2000/svg">
<g clip-path="url(#clip0_1286_1251)">
<path d="M38.85 39.9H31.87V38.52C35.81 36.64 38.68 33.01 39.5601 28.73C39.6101 28.49 39.4601 28.26 39.2201 28.22C38.98 28.17 38.75 28.32 38.71 28.56C37.91 32.43 35.37 35.73 31.87 37.54V36.48C31.87 35.18 31.22 34.04 30.24 33.33C33 31.89 34.75 29.06 34.75 25.9C34.75 21.82 31.79 18.36 27.87 17.63C28.69 16.71 29.21 15.51 29.21 14.18C29.21 13.84 29.17 13.51 29.1101 13.19C33.9601 14.42 37.69 18.29 38.71 23.24C38.75 23.45 38.93 23.59 39.14 23.59C39.17 23.59 39.2001 23.59 39.23 23.59C39.4701 23.54 39.62 23.31 39.57 23.08C38.4501 17.64 34.24 13.42 28.83 12.25C28.11 10.48 26.4401 9.21001 24.4501 9.04001V6.88001C24.4501 6.22001 23.91 5.68001 23.25 5.68001H21.63V0.870005H24.0201C24.26 0.870005 24.46 0.670006 24.46 0.430005C24.46 0.190005 24.26 -0.00999451 24.0201 -0.00999451H12.73C12.49 -0.00999451 12.29 0.190005 12.29 0.430005C12.29 0.670006 12.49 0.870005 12.73 0.870005H15.12V5.64001H13.5C12.84 5.64001 12.3 6.18001 12.3 6.84001V12.08C12.3 12.32 12.5 12.52 12.74 12.52C12.98 12.52 13.18 12.32 13.18 12.08V6.84001C13.18 6.66001 13.33 6.51001 13.51 6.51001H23.2701C23.4501 6.51001 23.6 6.66001 23.6 6.84001V9.00001C20.94 9.23001 18.83 11.44 18.83 14.16C18.83 16.88 20.98 19.15 23.69 19.33C23.63 19.4 23.6 19.49 23.6 19.59V24.74C23.6 24.92 23.4501 25.07 23.2701 25.07H13.51C13.33 25.07 13.18 24.92 13.18 24.74V16.69C13.18 16.45 12.98 16.25 12.74 16.25C12.5 16.25 12.3 16.45 12.3 16.69V24.74C12.3 25.4 12.84 25.94 13.5 25.94H15.12V30.86C15.12 31.26 15.45 31.59 15.85 31.59H20.91C21.31 31.59 21.64 31.26 21.64 30.86V25.94H23.26C23.92 25.94 24.46 25.4 24.46 24.74V19.59C24.46 19.49 24.42 19.4 24.37 19.33C25.37 19.26 26.29 18.93 27.05 18.38C30.9 18.73 33.9001 22 33.9001 25.88C33.9001 28.93 32.1 31.63 29.3 32.81C28.89 32.66 28.46 32.57 28 32.57C25.8601 32.57 24.12 34.31 24.12 36.45V36.72H12.32C12.08 36.72 11.88 36.92 11.88 37.16C11.88 37.4 12.08 37.6 12.32 37.6H24.12V39.88H9.18005C7.04005 39.88 5.30005 41.62 5.30005 43.76C5.30005 45.9 7.04005 47.64 9.18005 47.64H28.91C29.15 47.64 29.35 47.44 29.35 47.2C29.35 46.96 29.15 46.76 28.91 46.76H9.15005C7.49005 46.76 6.14005 45.41 6.14005 43.75C6.14005 42.09 7.49005 40.74 9.15005 40.74H24.53C24.77 40.74 24.97 40.54 24.97 40.3V36.44C24.97 34.78 26.32 33.43 27.98 33.43C29.64 33.43 30.99 34.78 30.99 36.44V40.3C30.99 40.54 31.1901 40.74 31.43 40.74H38.85C40.51 40.74 41.8601 42.09 41.8601 43.75C41.8601 45.41 40.51 46.76 38.85 46.76H34.3101C34.0701 46.76 33.87 46.96 33.87 47.2C33.87 47.44 34.0701 47.64 34.3101 47.64H38.85C40.99 47.64 42.73 45.9 42.73 43.76C42.73 41.62 40.99 39.88 38.85 39.88V39.9ZM15.97 5.64001V0.870005H20.74V5.64001H15.97ZM20.74 30.72H15.97V25.95H20.74V30.72ZM19.67 14.17C19.67 11.78 21.6101 9.84001 24 9.84001C26.39 9.84001 28.33 11.78 28.33 14.17C28.33 16.56 26.39 18.5 24 18.5C21.6101 18.5 19.67 16.56 19.67 14.17Z" fill="black"/>
<path d="M32.1801 46.69C31.8701 46.38 31.3801 46.38 31.0901 46.69C30.8001 47 30.7801 47.49 31.0901 47.78C31.4001 48.07 31.8901 48.09 32.1801 47.78C32.4801 47.5 32.4901 47.02 32.2101 46.72C32.2001 46.71 32.1901 46.7 32.1801 46.69Z" fill="black"/>
<path d="M13.25 14.92C13.55 14.64 13.56 14.16 13.28 13.86C13.27 13.85 13.26 13.84 13.25 13.83C12.94 13.52 12.45 13.52 12.16 13.83C11.87 14.14 11.85 14.63 12.16 14.92C12.47 15.21 12.96 15.23 13.25 14.92Z" fill="black"/>
<path d="M38.86 25.35C38.57 25.66 38.55 26.15 38.86 26.44C39.17 26.73 39.66 26.75 39.95 26.44C40.25 26.16 40.2599 25.68 39.9799 25.38C39.9699 25.37 39.96 25.36 39.95 25.35C39.64 25.04 39.15 25.04 38.86 25.35Z" fill="black"/>
</g>
<defs>
<clipPath id="clip0_1286_1251">
<rect width="48" height="48" fill="white"/>
</clipPath>
</defs>
</svg>
