<svg width="48" height="48" viewBox="0 0 48 48" fill="none" xmlns="http://www.w3.org/2000/svg">
<g clip-path="url(#clip0_1104_467)">
<path d="M48.1501 14.52L24.0001 5.48996C23.9001 5.44996 23.7901 5.44996 23.6901 5.48996L21.3901 6.35996C21.1601 6.44996 21.0501 6.69996 21.1401 6.92996C21.2301 7.15996 21.4801 7.26996 21.7101 7.17996L23.8601 6.36996L46.7701 14.93L38.9601 17.93L35.4601 19.27L23.7201 14.61C23.5001 14.52 23.2401 14.63 23.1501 14.86C23.0601 15.09 23.1701 15.34 23.4001 15.43L34.2501 19.74L24.0101 23.68L1.24006 14.93C4.83006 13.57 16.0601 9.31996 17.5501 8.75996C17.7801 8.66996 17.8901 8.41996 17.8001 8.18996C17.7101 7.95996 17.4601 7.84996 17.2301 7.93996C9.02006 11.05 0.0800586 14.44 -0.139941 14.51C-0.319941 14.57 -0.439941 14.73 -0.439941 14.92C-0.439941 15.11 -0.329941 15.27 -0.159941 15.34L7.94006 18.45V29.19C7.94006 29.32 7.99006 29.44 8.09006 29.52C8.63006 30 9.20006 30.45 9.81006 30.89C9.89006 30.95 9.98006 30.97 10.0701 30.97C10.2101 30.97 10.3401 30.91 10.4301 30.79C10.5701 30.59 10.5301 30.32 10.3301 30.18C9.79006 29.79 9.30006 29.41 8.82006 28.99V18.79L23.8401 24.56C23.8901 24.58 23.9401 24.59 24.0001 24.59C24.0601 24.59 24.1101 24.59 24.1601 24.56L35.0101 20.39V23.13C35.0101 23.37 35.2101 23.57 35.4501 23.57C35.6901 23.57 35.8901 23.37 35.8901 23.13V20.06L38.6801 18.99L38.7301 29.35C38.0801 29.88 37.1201 30.6 35.8901 31.33V27.2C35.8901 26.96 35.6901 26.76 35.4501 26.76C35.2101 26.76 35.0101 26.96 35.0101 27.2V31.83C32.3201 33.28 28.5601 34.65 23.9801 34.65C23.9401 34.65 23.8901 34.65 23.8501 34.65C20.4501 34.63 17.1401 33.86 14.0201 32.37C13.8001 32.27 13.5401 32.36 13.4301 32.58C13.3301 32.8 13.4201 33.06 13.6401 33.17C16.8801 34.71 20.3101 35.51 23.8401 35.53H23.9801C28.5001 35.53 32.2501 34.24 35.0101 32.82V38.07L33.3801 41.93C33.3201 42.07 33.3401 42.22 33.4201 42.34C33.5001 42.46 33.6401 42.54 33.7901 42.54H37.6701C37.8301 42.54 37.9701 42.46 38.0501 42.32C38.1301 42.18 38.1301 42.02 38.0501 41.88L35.9001 38.04V32.34C37.5201 31.43 38.7301 30.51 39.4701 29.89C39.5701 29.81 39.6301 29.68 39.6301 29.55L39.5801 18.65L48.1701 15.35C48.3401 15.28 48.4501 15.12 48.4501 14.94C48.4501 14.76 48.3301 14.59 48.1601 14.53L48.1501 14.52ZM36.9101 41.65H34.4501L35.5101 39.15L36.9101 41.65Z" fill="black"/>
<path d="M12.3599 31.17C12.0899 30.9 11.6599 30.9 11.3999 31.17C11.1399 31.44 11.1299 31.87 11.3999 32.13C11.6699 32.39 12.0999 32.4 12.3599 32.13C12.6299 31.88 12.6399 31.46 12.3899 31.2C12.3899 31.2 12.3699 31.18 12.3599 31.17Z" fill="black"/>
<path d="M35.93 25.73C36.2 25.48 36.21 25.06 35.96 24.8C35.96 24.8 35.94 24.78 35.93 24.77C35.66 24.5 35.23 24.5 34.97 24.77C34.71 25.04 34.7 25.47 34.97 25.73C35.24 25.99 35.67 26 35.93 25.73Z" fill="black"/>
<path d="M20.03 8.11001C20.3 7.86001 20.31 7.44001 20.06 7.18001C20.06 7.18001 20.04 7.16001 20.03 7.15001C19.76 6.88001 19.33 6.88001 19.07 7.15001C18.81 7.42001 18.8 7.85001 19.07 8.11001C19.34 8.37001 19.77 8.38001 20.03 8.11001Z" fill="black"/>
</g>
<defs>
<clipPath id="clip0_1104_467">
<rect width="48" height="48" fill="white"/>
</clipPath>
</defs>
</svg>
