<svg width="48" height="48" viewBox="0 0 48 48" fill="none" xmlns="http://www.w3.org/2000/svg">
<g clip-path="url(#clip0_1286_1237)">
<path d="M17.87 44.12C17.63 44.12 17.44 44.31 17.44 44.55V47.13H9.71003V39.93C9.71003 39.83 9.67003 39.73 9.61003 39.65L2.65003 31.56V18.73C2.97003 18.19 3.57003 17.86 4.20003 17.9C4.85003 17.94 5.41003 18.34 5.67003 18.93V24.74C5.67003 24.86 5.72003 24.97 5.81003 25.05C6.31003 25.52 6.78003 25.96 7.26003 26.41C6.88003 26.52 6.46003 26.73 6.12003 27.14C5.55003 27.82 5.42003 28.8 5.79003 29.62C5.81003 29.67 5.84003 29.71 5.88003 29.75L10.62 34.46C10.7 34.54 10.81 34.59 10.92 34.59C11.03 34.59 11.14 34.55 11.23 34.46C11.4 34.29 11.4 34.02 11.23 33.85L6.55003 29.2C6.35003 28.69 6.44003 28.11 6.79003 27.69C7.21003 27.18 7.83003 27.15 8.08003 27.16C10.02 28.95 11.82 30.52 13.51 31.92L13.61 32C14.93 33.08 16.73 34.57 17.28 37C17.43 37.66 17.44 38.17 17.44 38.63V40.5C17.44 40.74 17.63 40.93 17.87 40.93C18.11 40.93 18.3 40.74 18.3 40.5V38.63C18.3 38.14 18.29 37.56 18.12 36.81C17.5 34.09 15.49 32.44 14.15 31.34L14.05 31.26C11.77 29.38 9.31003 27.19 6.54003 24.56V18.85C6.54003 18.8 6.54003 18.75 6.51003 18.7C6.15003 17.75 5.27003 17.1 4.25003 17.04C3.25003 16.98 2.30003 17.53 1.83003 18.42C1.80003 18.48 1.78003 18.55 1.78003 18.62V31.73C1.78003 31.83 1.82003 31.93 1.88003 32.01L8.84003 40.1V47.57C8.84003 47.81 9.03003 48 9.27003 48H17.86C17.97 48 18.08 47.96 18.17 47.88C18.25 47.8 18.3 47.69 18.3 47.57V44.56C18.3 44.32 18.11 44.13 17.87 44.13V44.12Z" fill="black"/>
<path d="M45.6501 25.14C45.4101 25.14 45.2201 25.33 45.2201 25.57V31.56L38.26 39.65C38.19 39.73 38.16 39.83 38.16 39.93V47.13H30.43V38.63C30.43 38.17 30.44 37.66 30.59 37C31.14 34.57 32.95 33.09 34.26 32L34.3601 31.92C36.0501 30.53 37.85 28.95 39.7901 27.16C40.0401 27.15 40.6501 27.17 41.0801 27.69C41.4201 28.11 41.5101 28.69 41.3101 29.2L36.6301 33.85C36.4601 34.02 36.4601 34.29 36.6301 34.46C36.7101 34.55 36.83 34.59 36.94 34.59C37.05 34.59 37.1601 34.55 37.2401 34.46L41.98 29.75C41.98 29.75 42.05 29.67 42.07 29.62C42.44 28.8 42.3101 27.82 41.7401 27.14C41.4001 26.73 40.98 26.52 40.6 26.41C41.08 25.97 41.55 25.53 42.05 25.05C42.14 24.97 42.19 24.86 42.19 24.74V18.93C42.44 18.34 43.01 17.94 43.66 17.9C44.31 17.86 44.89 18.19 45.21 18.73V20.78C45.21 21.02 45.4 21.21 45.64 21.21C45.88 21.21 46.07 21.02 46.07 20.78V18.62C46.07 18.55 46.0501 18.48 46.0201 18.42C45.5601 17.53 44.6 16.98 43.6 17.04C42.59 17.1 41.7 17.75 41.34 18.7C41.32 18.75 41.3101 18.8 41.3101 18.85V24.56C38.5301 27.2 36.07 29.39 33.8 31.26L33.7001 31.34C32.3701 32.44 30.35 34.1 29.73 36.81C29.56 37.55 29.55 38.14 29.55 38.63V47.57C29.55 47.69 29.6 47.79 29.68 47.88C29.76 47.96 29.87 48.01 29.99 48.01H38.5801C38.8201 48.01 39.01 47.81 39.01 47.58V40.11L45.9701 32.02C46.0401 31.94 46.07 31.84 46.07 31.74V25.59C46.07 25.35 45.88 25.16 45.64 25.16L45.6501 25.14Z" fill="black"/>
<path d="M18.26 42.13C18.03 41.9 17.68 41.9 17.46 42.13C17.25 42.36 17.23 42.71 17.46 42.93C17.69 43.14 18.04 43.16 18.26 42.93C18.48 42.72 18.49 42.38 18.28 42.16L18.26 42.14V42.13Z" fill="black"/>
<path d="M46.04 22.72C45.81 22.49 45.46 22.49 45.24 22.72C45.03 22.95 45.01 23.3 45.24 23.52C45.47 23.74 45.82 23.75 46.04 23.52C46.26 23.31 46.27 22.97 46.06 22.75L46.04 22.73V22.72Z" fill="black"/>
<path d="M22.1899 14.65C21.9599 14.42 21.6099 14.42 21.3899 14.65C21.1799 14.88 21.1599 15.23 21.3899 15.45C21.6199 15.66 21.9699 15.68 22.1899 15.45C22.4099 15.24 22.4199 14.9 22.2099 14.68L22.1899 14.66V14.65Z" fill="black"/>
<path d="M29.65 29.84C29.73 29.92 29.84 29.97 29.96 29.97C30.07 29.97 30.18 29.92 30.27 29.84L35.03 25.08C35.19 24.92 35.2 24.65 35.03 24.48C32.82 22.12 30.73 19.84 28.81 17.72C29.81 16.24 30.44 14.95 30.77 13.45C31.28 11.14 31.35 7.42002 28.78 2.79002C28.78 2.79002 28.78 2.79002 28.77 2.78002C28.33 1.96002 27.68 1.24002 26.9 0.770016C24.96 -0.419984 22.36 -0.0799844 20.78 0.870016C20.78 0.870016 20.78 0.870016 20.77 0.870016C16.85 3.25002 16.01 11.52 19.03 17.44C16.66 19.97 12.65 24.2 12.65 24.2C12.49 24.37 12.49 24.63 12.65 24.8L17.53 29.91C17.62 30 17.73 30.04 17.84 30.04C17.95 30.04 18.05 30 18.14 29.92C20.21 27.96 22.18 25.88 24.02 23.75C24.54 24.33 25.09 24.95 25.73 25.65C27.01 27.07 28.32 28.48 29.64 29.85L29.65 29.84ZM34.12 24.77L29.96 28.93C28.75 27.67 27.54 26.37 26.35 25.04C25.71 24.33 25.13 23.68 24.59 23.08C24.83 22.79 25.08 22.51 25.3 22.24C26.53 20.75 27.52 19.54 28.31 18.45C30.11 20.45 32.06 22.56 34.12 24.77ZM23.93 12.16C22.68 10.69 21.72 9.51002 21.1 8.68002C20.91 8.42002 20.55 7.91002 20.28 7.25002C21.14 6.82002 22.37 6.36002 23.92 6.32002C25.59 6.27002 26.96 6.73002 27.9 7.18002C27.2 8.46002 25.91 10 23.94 12.16H23.93ZM26.46 1.50002C27.45 2.11002 28.21 3.19002 28.45 4.32002C28.59 5.00002 28.53 5.67002 28.25 6.40002C27.21 5.90002 25.7 5.38002 23.88 5.46002C22.26 5.50002 20.95 5.96002 20.01 6.41002C19.98 6.26002 19.93 6.12002 19.91 5.95002C19.75 4.55002 20.23 3.03002 21.3 1.57002C22.63 0.800016 24.86 0.510016 26.46 1.50002ZM17.86 28.99L13.56 24.49C14.54 23.45 17.84 19.96 19.83 17.85C19.86 17.82 19.89 17.8 19.91 17.76C20.27 17.37 20.59 17.03 20.84 16.77C21 16.6 20.99 16.32 20.82 16.16C20.64 16 20.37 16.01 20.21 16.18C20.06 16.34 19.87 16.54 19.67 16.76C17.71 12.66 17.63 7.36002 19.17 4.08002C19.02 4.75002 18.98 5.41002 19.05 6.06002C19.24 7.65002 20.05 8.74002 20.4 9.20002C21.04 10.06 22.04 11.28 23.34 12.81C23.17 13 23 13.18 22.81 13.38C22.65 13.56 22.66 13.83 22.83 13.99C23 14.15 23.28 14.14 23.44 13.97C26.16 11.03 27.99 9.00002 28.83 7.22002C28.83 7.22002 28.83 7.21002 28.83 7.20002C29.03 6.77002 29.17 6.35002 29.26 5.94002C30.4 9.06002 30.29 11.59 29.92 13.28C29.34 15.89 27.79 17.85 24.61 21.71C24.32 22.07 24 22.44 23.67 22.83C21.85 24.96 19.89 27.04 17.84 29.01L17.86 28.99Z" fill="black"/>
</g>
<defs>
<clipPath id="clip0_1286_1237">
<rect width="48" height="48" fill="white"/>
</clipPath>
</defs>
</svg>
