<svg width="48" height="48" viewBox="0 0 48 48" fill="none" xmlns="http://www.w3.org/2000/svg">
<g clip-path="url(#clip0_1104_492)">
<path d="M45.77 14.44C45.53 14.4 45.31 14.56 45.27 14.79L39.65 46.55C39.6 46.83 39.33 47.02 39.04 46.97L35.86 46.45V27.76C35.86 27.52 35.67 27.33 35.43 27.33C35.19 27.33 35 27.52 35 27.76V46.57C35 46.88 34.75 47.13 34.44 47.13H1.93001C1.62001 47.13 1.37001 46.88 1.37001 46.57V36.16C1.37001 35.92 1.18001 35.73 0.94001 35.73C0.70001 35.73 0.51001 35.92 0.51001 36.16V46.57C0.51001 47.35 1.15001 47.99 1.93001 47.99H34.45C34.97 47.99 35.42 47.71 35.67 47.29L38.91 47.82C38.99 47.83 39.07 47.84 39.15 47.84C39.81 47.84 40.39 47.37 40.51 46.7L46.13 14.94C46.17 14.71 46.01 14.48 45.78 14.44H45.77Z" fill="black"/>
<path d="M46.63 4.14L35.87 2.24V1.43C35.87 0.650003 35.23 0.0100033 34.45 0.0100033H1.93C1.14 3.31365e-06 0.5 0.640003 0.5 1.42V31.27C0.5 31.51 0.69 31.7 0.93 31.7C1.17 31.7 1.36 31.51 1.36 31.27V1.42C1.36 1.11 1.61 0.860003 1.92 0.860003H34.44C34.75 0.860003 35 1.11 35 1.42V20.95C35 21.19 35.19 21.38 35.43 21.38C35.67 21.38 35.86 21.19 35.86 20.95V3.11L46.47 4.99C46.75 5.04 46.94 5.31 46.89 5.59L46.09 10.13C46.05 10.36 46.21 10.59 46.44 10.63C46.47 10.63 46.49 10.63 46.52 10.63C46.73 10.63 46.91 10.48 46.94 10.27L47.74 5.73C47.87 4.98 47.37 4.26 46.62 4.13L46.63 4.14Z" fill="black"/>
<path d="M46.5999 12.04C46.3199 11.76 45.8699 11.76 45.5999 12.04C45.3299 12.32 45.3199 12.77 45.5999 13.04C45.8799 13.31 46.3299 13.32 46.5999 13.04C46.8699 12.78 46.8899 12.35 46.6299 12.07C46.6299 12.06 46.6099 12.05 46.5999 12.04Z" fill="black"/>
<path d="M35.93 25.1C36.2 24.84 36.22 24.41 35.96 24.13C35.96 24.12 35.94 24.11 35.93 24.1C35.65 23.82 35.2 23.82 34.93 24.1C34.66 24.38 34.65 24.83 34.93 25.1C35.21 25.37 35.66 25.38 35.93 25.1Z" fill="black"/>
<path d="M1.43002 34.3C1.70002 34.04 1.72002 33.61 1.46002 33.33C1.46002 33.32 1.44002 33.31 1.43002 33.3C1.15002 33.02 0.700022 33.02 0.430022 33.3C0.160022 33.58 0.150022 34.03 0.430022 34.3C0.710022 34.57 1.16002 34.58 1.43002 34.3Z" fill="black"/>
<path d="M19.71 6.40002H4.41999C4.17999 6.40002 3.98999 6.59002 3.98999 6.83002C3.98999 7.07002 4.17999 7.26002 4.41999 7.26002H19.71C19.95 7.26002 20.14 7.07002 20.14 6.83002C20.14 6.59002 19.95 6.40002 19.71 6.40002Z" fill="black"/>
<path d="M28.8201 35.5H17.4901C17.2501 35.5 17.0601 35.69 17.0601 35.93C17.0601 36.17 17.2501 36.36 17.4901 36.36H28.8201C29.0601 36.36 29.2501 36.17 29.2501 35.93C29.2501 35.69 29.0601 35.5 28.8201 35.5Z" fill="black"/>
<path d="M17.4901 39.53C17.2501 39.53 17.0601 39.72 17.0601 39.96C17.0601 40.2 17.2501 40.39 17.4901 40.39H20.5401C20.7801 40.39 20.9701 40.2 20.9701 39.96C20.9701 39.72 20.7801 39.53 20.5401 39.53H17.4901Z" fill="black"/>
<path d="M28.82 39.53H23.15C22.91 39.53 22.72 39.72 22.72 39.96C22.72 40.2 22.91 40.39 23.15 40.39H28.82C29.06 40.39 29.25 40.2 29.25 39.96C29.25 39.72 29.06 39.53 28.82 39.53Z" fill="black"/>
<path d="M4.41999 10.52H14.28C14.52 10.52 14.71 10.33 14.71 10.09C14.71 9.84997 14.52 9.65997 14.28 9.65997H4.41999C4.17999 9.65997 3.98999 9.84997 3.98999 10.09C3.98999 10.33 4.17999 10.52 4.41999 10.52Z" fill="black"/>
<path d="M4.41999 13.67H17.49C17.73 13.67 17.92 13.48 17.92 13.24C17.92 13 17.73 12.81 17.49 12.81H4.41999C4.17999 12.81 3.98999 13 3.98999 13.24C3.98999 13.48 4.17999 13.67 4.41999 13.67Z" fill="black"/>
<path d="M4.41999 16.93H15.42C15.66 16.93 15.85 16.74 15.85 16.5C15.85 16.26 15.66 16.07 15.42 16.07H4.41999C4.17999 16.07 3.98999 16.26 3.98999 16.5C3.98999 16.74 4.17999 16.93 4.41999 16.93Z" fill="black"/>
<path d="M11.47 35.04H7.15003C5.57003 35.04 4.28003 36.33 4.28003 37.91V41.99C4.28003 43.57 5.57003 44.86 7.15003 44.86H11.47C13.05 44.86 14.34 43.57 14.34 41.99V37.91C14.34 36.33 13.05 35.04 11.47 35.04ZM13.48 41.99C13.48 43.1 12.58 44 11.47 44H7.15003C6.04003 44 5.14003 43.1 5.14003 41.99V37.91C5.14003 36.8 6.04003 35.9 7.15003 35.9H11.47C12.58 35.9 13.48 36.8 13.48 37.91V41.99Z" fill="black"/>
<path d="M17.0601 24.36C17.0601 24.6 17.2501 24.79 17.4901 24.79H28.8201C29.0601 24.79 29.2501 24.6 29.2501 24.36C29.2501 24.12 29.0601 23.93 28.8201 23.93H17.4901C17.2501 23.93 17.0601 24.12 17.0601 24.36Z" fill="black"/>
<path d="M17.4901 28.82H20.5401C20.7801 28.82 20.9701 28.63 20.9701 28.39C20.9701 28.15 20.7801 27.96 20.5401 27.96H17.4901C17.2501 27.96 17.0601 28.15 17.0601 28.39C17.0601 28.63 17.2501 28.82 17.4901 28.82Z" fill="black"/>
<path d="M28.82 27.95H23.15C22.91 27.95 22.72 28.14 22.72 28.38C22.72 28.62 22.91 28.81 23.15 28.81H28.82C29.06 28.81 29.25 28.62 29.25 28.38C29.25 28.14 29.06 27.95 28.82 27.95Z" fill="black"/>
<path d="M14.35 26.33C14.35 24.75 13.06 23.46 11.48 23.46H7.16004C5.58004 23.46 4.29004 24.75 4.29004 26.33V30.41C4.29004 31.99 5.58004 33.28 7.16004 33.28H11.48C13.06 33.28 14.35 31.99 14.35 30.41V26.33ZM13.48 30.42C13.48 31.53 12.58 32.43 11.47 32.43H7.15004C6.04004 32.43 5.14004 31.53 5.14004 30.42V26.34C5.14004 25.23 6.04004 24.33 7.15004 24.33H11.47C12.58 24.33 13.48 25.23 13.48 26.34V30.42Z" fill="black"/>
<path d="M21.33 16.45L23.55 18.78C23.63 18.87 23.75 18.91 23.86 18.91C23.97 18.91 24.07 18.87 24.16 18.79C25.04 17.95 25.88 17.06 26.68 16.15L27.29 16.82C28.03 17.64 28.66 18.3 29.08 18.74C29.16 18.82 29.27 18.87 29.39 18.87C29.5 18.87 29.61 18.82 29.7 18.74L31.87 16.57C32.03 16.41 32.04 16.14 31.87 15.97C30.87 14.9 29.97 13.92 29.16 13.03C29.58 12.39 29.84 11.82 29.99 11.15C30.23 10.06 30.27 8.3 29.06 6.12C29.05 6.1 29.03 6.09 29.02 6.07C28.8 5.68 28.49 5.34 28.13 5.11C27.17 4.52 25.88 4.68 25.1 5.15C25.1 5.15 25.1 5.15 25.09 5.15C23.09 6.36 22.92 10.28 24.13 12.85C22.77 14.3 21.34 15.83 21.34 15.83C21.18 16 21.18 16.26 21.34 16.42L21.33 16.45ZM30.96 16.27L29.39 17.84C29 17.43 28.49 16.89 27.92 16.26L27.24 15.51C27.3 15.43 27.37 15.35 27.43 15.28C27.91 14.7 28.3 14.21 28.64 13.77C29.34 14.55 30.11 15.38 30.95 16.28L30.96 16.27ZM26.61 10.28C26.17 9.97 25.67 9.5 25.35 8.8C25.31 8.72 25.26 8.6 25.21 8.45C25.66 8.24 26.15 8.1 26.64 8.09C27.34 8.08 27.9 8.26 28.3 8.44C28.04 8.92 27.53 9.51 26.61 10.27V10.28ZM27.67 5.87C28.06 6.11 28.37 6.56 28.47 7C28.51 7.2 28.54 7.4 28.53 7.61C27.92 7.35 27.27 7.21 26.61 7.23C26.08 7.24 25.55 7.36 25.05 7.55C25.05 6.8 25.36 6.21 25.6 5.88C26.15 5.58 27.03 5.47 27.67 5.86V5.87ZM24.29 8.39C24.38 8.74 24.5 9.01 24.57 9.16C24.94 9.96 25.49 10.51 25.99 10.89C25.68 11.23 25.25 11.68 24.78 12.19C24.29 10.99 24.14 9.59 24.3 8.39H24.29ZM24.88 13.34C24.94 13.3 24.99 13.25 25.02 13.19C25.84 12.32 26.59 11.51 26.94 11.14C28.15 10.16 28.81 9.4 29.14 8.72C29.34 9.65 29.28 10.42 29.16 10.99C28.91 12.13 28.21 13.01 26.79 14.73C26.66 14.89 26.52 15.06 26.36 15.24C25.58 16.15 24.75 17.03 23.89 17.88L22.25 16.16C22.75 15.62 23.85 14.45 24.89 13.35L24.88 13.34Z" fill="black"/>
<path d="M11.37 26.14L8.43004 29.71L7.30004 28.51C7.14004 28.34 6.86004 28.33 6.69004 28.49C6.52004 28.65 6.51004 28.93 6.67004 29.1L8.14004 30.65C8.22004 30.74 8.34004 30.79 8.45004 30.79H8.46004C8.58004 30.79 8.70004 30.73 8.78004 30.63L12.03 26.69C12.18 26.51 12.16 26.23 11.97 26.08C11.79 25.93 11.51 25.95 11.36 26.14H11.37Z" fill="black"/>
<path d="M11.38 37.88C11.21 37.71 10.94 37.71 10.77 37.88L9.31005 39.34L7.85005 37.88C7.68005 37.71 7.41005 37.71 7.24005 37.88C7.07005 38.05 7.07005 38.32 7.24005 38.49L8.70005 39.95L7.24005 41.41C7.07005 41.58 7.07005 41.85 7.24005 42.02C7.32005 42.1 7.43005 42.15 7.55005 42.15C7.67005 42.15 7.77005 42.11 7.86005 42.02L9.32005 40.56L10.78 42.02C10.86 42.1 10.97 42.15 11.09 42.15C11.21 42.15 11.31 42.11 11.4 42.02C11.57 41.85 11.57 41.58 11.4 41.41L9.94005 39.95L11.4 38.49C11.57 38.32 11.57 38.05 11.4 37.88H11.38Z" fill="black"/>
</g>
<defs>
<clipPath id="clip0_1104_492">
<rect width="48" height="48" fill="white"/>
</clipPath>
</defs>
</svg>
